<?xml version="1.0" encoding="UTF-8"?>
<svg id="Capa_2" data-name="Capa 2" xmlns="http://www.w3.org/2000/svg" viewBox="0 0 24.82 24.82">
  <defs>
    <style>
      .cls-1 {
        fill: #faf6ed;
      }

      .cls-2 {
        fill: #fff;
      }

      .cls-3 {
        fill: #2e1c15;
      }

      .cls-4 {
        fill: #fdbf31;
      }

      .cls-5 {
        fill: #f8f3e8;
      }

      .cls-6 {
        fill: #f36c58;
      }

      .cls-7 {
        fill: #9e1c21;
      }

      .cls-8 {
        fill: #fcf9f4;
      }

      .cls-9 {
        fill: #c15962;
      }

      .cls-10 {
        fill: #d92026;
      }

      .cls-11 {
        fill: #d9ccbd;
      }

      .cls-12 {
        fill: #e12729;
      }

      .cls-13 {
        fill: #f9f5ec;
      }

      .cls-14 {
        fill: #78111c;
      }

      .cls-15 {
        fill: #e83639;
      }

      .cls-16 {
        fill: #ae4d25;
      }

      .cls-17 {
        fill: #fec302;
      }

      .cls-18 {
        fill: #fbb729;
      }

      .cls-19 {
        fill: #fbe891;
      }

      .cls-20 {
        fill: #f8a31c;
      }

      .cls-21 {
        fill: #fdfdfd;
      }

      .cls-22 {
        fill: #b59f91;
      }

      .cls-23 {
        fill: #fdfdfc;
      }

      .cls-24 {
        fill: #f7f2e6;
      }

      .cls-25 {
        fill: #e3292a;
        stroke-width: .27px;
      }

      .cls-25, .cls-26 {
        stroke: #1d1d1b;
        stroke-miterlimit: 10;
      }

      .cls-27 {
        fill: #ec9d95;
      }

      .cls-28 {
        fill: #e42d2f;
      }

      .cls-29 {
        fill: #fcfbf8;
      }

      .cls-30 {
        fill: #ce6e29;
      }

      .cls-26 {
        fill: #c41a27;
        stroke-width: .25px;
      }
    </style>
  </defs>
  <g id="Capa_1-2" data-name="Capa 1">
    <circle class="cls-26" cx="12.41" cy="12.41" r="12.28"/>
    <path class="cls-25" d="M12.41,2.11C6.72,2.11,2.11,6.72,2.11,12.41s4.61,10.3,10.3,10.3,10.3-4.61,10.3-10.3S18.1,2.11,12.41,2.11Zm0,18.02c-4.27,0-7.72-3.46-7.72-7.72s3.46-7.72,7.72-7.72,7.72,3.46,7.72,7.72-3.46,7.72-7.72,7.72Z"/>
    <circle class="cls-2" cx="12.41" cy="12.41" r="7.9"/>
    <g>
      <path class="cls-2" d="M3.9,13.83l-.88,.1-.04-.35c-.03-.23,.06-.39,.27-.41,.21-.02,.32,.11,.35,.34l.02,.16,.26-.03,.02,.19Zm-.39-.15v-.12c-.03-.14-.11-.2-.23-.19-.12,.01-.19,.09-.17,.23v.12s.41-.04,.41-.04Z"/>
      <path class="cls-2" d="M2.93,12.82v-.21s.86-.38,.86-.38v.22s-.2,.09-.2,.09v.4s.22,.08,.22,.08v.14s-.88-.33-.88-.33Zm.55-.24l-.38,.17,.39,.15v-.31Z"/>
      <path class="cls-2" d="M2.92,12.09l.03-.35c.02-.23,.12-.37,.33-.35,.14,0,.23,.08,.26,.2l.3-.17-.02,.23-.27,.15v.14s.25,.02,.25,.02v.19s-.89-.06-.89-.06Zm.13-.19l.39,.03v-.12c.02-.14-.05-.21-.17-.22-.13,0-.2,.06-.21,.2v.12Z"/>
      <path class="cls-2" d="M2.99,11.19l.06-.35c.04-.23,.16-.36,.37-.32,.14,.02,.22,.11,.25,.23l.32-.14-.04,.23-.29,.13-.02,.14,.26,.04-.03,.19-.87-.15Zm.14-.17l.39,.07,.02-.12c.02-.14-.04-.22-.16-.24-.12-.02-.21,.04-.23,.18l-.02,.12Z"/>
      <path class="cls-2" d="M4.06,10.33l-.05,.19-.86-.21,.05-.19,.86,.21Z"/>
      <path class="cls-2" d="M3.24,9.97l.06-.19,.73,.22,.12-.38,.11,.03-.17,.57-.84-.25Z"/>
      <path class="cls-2" d="M3.59,8.92l.08-.2h.95s-.08,.21-.08,.21h-.22s-.16,.37-.16,.37l.16,.16-.05,.13-.68-.67Zm.61,0h-.42s.3,.29,.3,.29l.12-.29Z"/>
      <path class="cls-2" d="M4.65,7.33v.12c-.1-.01-.22,.02-.29,.13-.07,.12-.03,.3,.16,.41s.36,.06,.44-.06c.06-.11,.04-.23-.02-.31l.1-.06c.06,.07,.12,.25,0,.44-.14,.23-.39,.3-.63,.16s-.3-.4-.16-.63c.12-.19,.31-.22,.39-.21Z"/>
      <path class="cls-2" d="M4.73,6.86l.13-.17,.92,.25-.13,.17-.21-.06-.24,.32,.12,.19-.08,.11-.49-.81Zm.58,.16l-.41-.11,.22,.36,.19-.25Z"/>
      <path class="cls-2" d="M5.18,6.26l.24-.26c.16-.17,.33-.21,.49-.07,.1,.1,.13,.21,.08,.32l.35,.06-.16,.17-.31-.05-.1,.11,.19,.18-.13,.14-.65-.6Zm.22-.07l.29,.27,.08-.09c.1-.1,.09-.21,0-.29-.09-.08-.19-.08-.29,.02l-.08,.09Z"/>
      <path class="cls-2" d="M5.8,5.62l.29-.26c.15-.13,.29-.19,.41-.05,.07,.07,.07,.16,.05,.23,.08-.01,.16,0,.22,.08,.12,.14,.05,.27-.1,.4l-.29,.26-.58-.65Zm.22-.05l.18,.2,.12-.11c.08-.07,.1-.14,.03-.21-.06-.07-.14-.06-.21,.01l-.12,.11Zm.56,.37c.08-.07,.1-.14,.04-.21-.06-.07-.14-.06-.21,.01l-.12,.11,.18,.2,.12-.11Z"/>
      <path class="cls-2" d="M6.83,4.73c.21-.16,.46-.12,.63,.11,.17,.23,.13,.47-.09,.63-.21,.16-.46,.12-.63-.11-.17-.23-.13-.48,.09-.63Zm0-.06l-.09,.07-.02-.23,.17-.12-.05,.29Zm.47,.71c.12-.08,.12-.25,0-.42-.12-.17-.28-.22-.4-.14-.11,.08-.12,.25,0,.42,.13,.17,.28,.22,.4,.14Z"/>
      <path class="cls-2" d="M7.51,4.3l.7,.33-.32-.55,.11-.06,.44,.76-.18,.1-.68-.32,.32,.54-.11,.06-.44-.76,.17-.1Z"/>
      <path class="cls-2" d="M8.76,3.65l.2-.08,.66,.68-.2,.08-.16-.16-.38,.15v.22s-.12,.05-.12,.05v-.95Zm.42,.44l-.3-.3v.42s.3-.12,.3-.12Z"/>
      <path class="cls-2" d="M9.43,3.4l.19-.06,.22,.74,.39-.11,.03,.11-.58,.17-.25-.85Z"/>
      <path class="cls-2" d="M10.51,3.11l.35-.06c.23-.04,.39,.04,.42,.24,.02,.14-.03,.24-.13,.3l.24,.26-.23,.04-.21-.23-.14,.02,.04,.26-.19,.03-.14-.87Zm.21,.08l.06,.39,.12-.02c.14-.02,.2-.1,.18-.23s-.1-.18-.24-.16l-.12,.02Z"/>
      <path class="cls-2" d="M11.84,2.92c.26-.02,.45,.15,.47,.43,.02,.28-.15,.47-.41,.48-.26,.02-.45-.15-.47-.43-.02-.28,.15-.47,.41-.48Zm.05,.8c.14,0,.23-.15,.21-.36-.01-.21-.12-.34-.26-.33-.14,0-.23,.15-.22,.36,.01,.21,.12,.34,.26,.33Z"/>
      <path class="cls-2" d="M12.74,3.82c-.18,0-.29-.09-.32-.21l.1-.06c.03,.07,.09,.13,.2,.13,.11,0,.18-.06,.19-.2l.02-.54h.19s-.02,.53-.02,.53c0,.23-.13,.36-.37,.35Z"/>
      <path class="cls-2" d="M13.73,2.99c.26,.03,.41,.23,.38,.51s-.23,.43-.49,.4c-.26-.03-.42-.23-.38-.51,.04-.28,.23-.43,.5-.4Zm-.1,.79c.14,.02,.25-.1,.28-.31,.03-.21-.05-.35-.19-.37-.14-.02-.25,.1-.28,.31s.05,.35,.19,.37Z"/>
    </g>
    <g>
      <path class="cls-2" d="M6.16,18.92l-.09-.03c.03-.07,.03-.18-.04-.25-.08-.08-.24-.09-.37,.04-.13,.13-.13,.28-.05,.37,.07,.07,.18,.08,.25,.05l.03,.09c-.07,.03-.23,.05-.36-.09-.16-.16-.16-.38,0-.54,.17-.17,.39-.15,.54,0,.13,.14,.11,.3,.08,.36Z"/>
      <path class="cls-2" d="M6.63,19.07c.17,.15,.18,.36,.03,.54-.16,.18-.37,.2-.54,.05-.17-.15-.19-.36-.03-.54,.16-.18,.37-.2,.54-.05Zm-.45,.51c.09,.08,.23,.05,.34-.09,.12-.14,.13-.28,.04-.35-.09-.08-.23-.05-.34,.09-.12,.14-.13,.28-.04,.35Z"/>
      <path class="cls-2" d="M7.1,19.46l-.02,.66,.32-.44,.09,.06-.44,.61-.14-.1,.02-.64-.31,.43-.09-.06,.44-.6,.13,.1Z"/>
      <path class="cls-2" d="M8.24,20.2l-.05,.08-.32-.19-.12,.2,.25,.15-.05,.08-.25-.15-.12,.2,.32,.19-.05,.08-.47-.27,.38-.65,.47,.27Z"/>
      <path class="cls-2" d="M8.31,20.23l.15,.07-.29,.59,.31,.15-.04,.09-.46-.23,.33-.67Z"/>
      <path class="cls-2" d="M9.1,20.6l.17,.06,.06,.58,.42-.41,.15,.05-.25,.71-.16-.06,.16-.46-.39,.38-.09-.03-.05-.54-.16,.46-.1-.04,.25-.71Z"/>
      <path class="cls-2" d="M10.5,21.04l-.02,.09-.36-.09-.06,.22,.28,.07-.02,.09-.28-.07-.06,.22,.36,.09-.02,.09-.52-.13,.18-.72,.52,.13Z"/>
      <path class="cls-2" d="M10.69,21.85c-.15-.03-.23-.11-.24-.22l.09-.04c.01,.06,.06,.12,.15,.14,.09,.02,.17-.03,.19-.15l.08-.46,.16,.03-.08,.44c-.04,.19-.16,.29-.35,.25Z"/>
      <path class="cls-2" d="M11.58,21.18c.22,.02,.36,.18,.34,.42-.02,.24-.18,.38-.4,.36-.22-.02-.36-.18-.34-.42,.02-.24,.18-.37,.41-.36Zm-.06,.68c.12,0,.21-.09,.23-.27,.01-.18-.06-.3-.18-.31-.12-.01-.21,.09-.23,.27-.02,.18,.06,.3,.18,.31Z"/>
      <path class="cls-2" d="M12.04,21.23h.3c.2,0,.33,.09,.32,.27,0,.12-.06,.2-.16,.24l.17,.25h-.2l-.15-.22h-.12v.22s-.17,0-.17,0v-.75Zm.17,.1v.34s.11,0,.11,0c.12,0,.18-.06,.18-.17,0-.11-.06-.17-.18-.17h-.11Z"/>
      <path class="cls-2" d="M13.4,21.95c-.18,.02-.29-.04-.34-.14l.08-.06c.04,.05,.12,.11,.24,.1,.11,0,.16-.06,.15-.12,0-.05-.05-.07-.11-.08l-.21-.05c-.13-.03-.15-.1-.16-.17-.01-.11,.09-.24,.29-.26,.15-.02,.26,.04,.31,.14l-.07,.05c-.04-.06-.11-.11-.21-.1-.1,0-.14,.06-.13,.1,0,.04,.03,.06,.1,.08l.17,.04c.14,.03,.21,.1,.22,.2,.01,.12-.09,.23-.32,.26Z"/>
      <path class="cls-2" d="M13.98,21.09l.18-.03,.44,.69-.18,.04-.1-.16-.34,.07-.04,.19-.12,.02,.16-.8Zm.28,.44l-.2-.3-.07,.36,.27-.05Z"/>
      <path class="cls-2" d="M14.52,20.99l.32-.09c.16-.04,.29-.04,.33,.11,.02,.08,0,.15-.05,.19,.06,.02,.12,.06,.14,.14,.04,.15-.06,.22-.23,.27l-.32,.09-.2-.72Zm.18,.05l.06,.22,.14-.04c.09-.02,.13-.07,.11-.15-.02-.08-.08-.09-.17-.07l-.14,.04Zm.29,.5c.09-.02,.13-.07,.11-.15-.02-.08-.08-.1-.17-.07l-.14,.04,.06,.22,.14-.04Z"/>
      <path class="cls-2" d="M15.54,20.64c.21-.08,.41,0,.49,.23,.08,.22,0,.42-.21,.5-.21,.08-.41,0-.49-.23-.08-.22,0-.42,.21-.5Zm.24,.64c.11-.04,.15-.18,.09-.35s-.18-.25-.29-.2c-.11,.04-.15,.18-.09,.35,.06,.17,.18,.25,.29,.2Z"/>
      <path class="cls-2" d="M15.95,20.49l.27-.13c.18-.09,.33-.06,.41,.1,.05,.11,.03,.21-.04,.28l.26,.15-.18,.09-.23-.14-.11,.05,.09,.2-.15,.07-.32-.68Zm.19,.02l.15,.3,.1-.05c.11-.05,.14-.13,.09-.23-.05-.1-.13-.13-.24-.07l-.1,.05Z"/>
    </g>
    <path class="cls-17" d="M21.38,11.53s.01,.02,.01,.03c.05,.11,.09,.22,.13,.34,0,.02,.02,.03,.05,.04,.13,0,.25,.02,.38,.02,0,0,0,0,.01,0,0,0-.01,.02-.02,.02-.09,.08-.19,.16-.29,.24-.02,.02-.02,.03-.02,.05,.03,.13,.06,.26,.1,.39-.13-.08-.25-.16-.37-.23-.12,.08-.24,.15-.37,.23,.01-.05,.02-.1,.03-.14,.02-.08,.04-.17,.06-.25,0-.02,0-.04-.02-.05-.1-.08-.19-.16-.29-.24,0,0-.01,0-.02-.02,.05,0,.1,0,.14-.01,.09,0,.18-.01,.27-.02,.02,0,.03-.01,.03-.03,.05-.11,.09-.23,.14-.34,0,0,0-.02,.01-.03Z"/>
    <path class="cls-17" d="M21.56,15c-.05-.03-.1-.06-.14-.09-.07-.04-.14-.08-.2-.13-.02-.01-.03-.01-.05,0-.1,.06-.19,.12-.29,.18-.01,0-.03,.02-.05,.03,0-.01,0-.02,0-.03,.03-.12,.06-.24,.09-.36,0-.02,0-.03-.02-.05-.1-.08-.2-.17-.3-.25,0,0,0,0-.01-.01,.01,0,.02,0,.03,0,.13,0,.25-.02,.38-.02,.02,0,.03-.01,.04-.03,.05-.12,.09-.23,.14-.35,0,0,0-.01,.01-.03,0,.02,.01,.03,.02,.04,.05,.11,.09,.22,.13,.34,0,.02,.02,.03,.04,.03,.13,0,.26,.02,.39,.02,0,0,0,0,.02,0-.11,.09-.22,.19-.33,.28,.03,.14,.07,.28,.11,.42Z"/>
    <path class="cls-17" d="M21.42,10.51c-.06-.04-.12-.07-.17-.11-.06-.04-.11-.07-.17-.11-.02-.01-.03-.01-.05,0-.1,.07-.2,.13-.31,.19-.01,0-.02,.01-.04,.02,.04-.14,.07-.28,.11-.42-.11-.09-.22-.18-.33-.28,.01,0,.02,0,.03,0,.13,0,.25-.02,.38-.02,.02,0,.03,0,.03-.03,.04-.11,.09-.22,.14-.34,0-.01,.01-.03,.02-.04,.03,.08,.06,.15,.09,.22,.02,.05,.04,.11,.06,.16,0,.02,.02,.03,.04,.03,.13,0,.26,.02,.39,.02,0,0,0,0,.02,0-.04,.03-.07,.06-.1,.09-.07,.06-.14,.12-.21,.17-.02,.01-.02,.03-.02,.05,.03,.12,.06,.24,.09,.36,0,0,0,.01,0,.03Z"/>
    <path class="cls-17" d="M20.6,8.48c-.05-.03-.1-.06-.16-.09-.07-.04-.13-.08-.2-.13-.12,.08-.24,.15-.37,.23,0-.02,0-.04,.01-.06,.03-.11,.06-.22,.09-.34,0-.02,0-.03-.02-.05-.09-.08-.18-.15-.27-.23-.01,0-.02-.02-.04-.03,.05,0,.08,0,.12,0,.09,0,.19-.01,.28-.02,.03,0,.04-.01,.05-.03,.04-.11,.09-.22,.13-.32,0-.01,.01-.03,.02-.05,.06,.14,.11,.27,.16,.4,.14,0,.28,.02,.43,.03,0,0-.01,.02-.02,.02-.09,.08-.19,.16-.29,.24-.02,.02-.02,.03-.02,.06,.03,.11,.06,.23,.09,.34,0,.01,0,.02,0,.04h0Z"/>
    <path class="cls-17" d="M3.84,17c.02-.07,.03-.15,.05-.22,.02-.07,.04-.15,.06-.22,0-.03,0-.05-.02-.07-.12-.09-.23-.19-.35-.29,0,0,0,0-.01-.02,.17-.01,.34-.02,.51-.03,.06-.16,.13-.31,.19-.48,.01,.03,.02,.04,.03,.06,.05,.13,.1,.25,.15,.38,.01,.03,.03,.04,.06,.04,.15,0,.31,.02,.47,.03-.02,.02-.03,.03-.04,.04-.11,.09-.22,.18-.32,.27-.02,.02-.02,.03-.02,.06,.04,.14,.07,.29,.11,.43,0,0,0,.01,0,.03-.15-.09-.29-.18-.44-.27-.06,.04-.13,.08-.19,.12-.07,.04-.14,.09-.21,.13-.01,0-.02,.01-.03,.02h0Z"/>
    <g>
      <path class="cls-3" d="M16.99,3.47c.09,.02,.18,.03,.27,.05,.35,.07,.67,.19,.92,.46,.26,.28,.42,.6,.4,.99,0,.1,.02,.17,.08,.25,.18,.24,.29,.5,.29,.81,0,.23-.07,.44-.2,.64-.23,.35-.53,.59-.95,.67-.14,.03-.24,.01-.42-.05-.16,.28-.41,.42-.73,.41,.02,.16,.05,.32,.07,.47,0,.02,.02,.04,.04,.06,.64,.47,.67,1.4,.33,1.91-.07,.11-.17,.21-.25,.32-.02,.03-.04,.06-.04,.1-.02,.13-.04,.25-.11,.37-.12,.19-.27,.22-.46,.1,0,0-.01,0-.02-.01-.03,.06-.05,.12-.08,.18-.05,.08-.09,.16-.16,.22-.16,.16-.32,.13-.45-.06-.02,.04-.04,.08-.06,.12-.05,.08-.11,.15-.19,.2-.14,.08-.27,.04-.34-.11-.02-.05-.04-.1-.06-.15,0,0-.02,0-.02,0-.15,.04-.27,.1-.34,.24-.02,.03-.06,.06-.09,.09-.03,.03-.06,.05-.09,.07,.07,.07,.13,.14,.2,.21,0,0,.02,.01,.04,.01,.2-.05,.4,0,.59,.06,1.14,.33,2.04,1,2.67,2,.37,.59,.71,1.2,1.01,1.82,.02,.03,.04,.06,.07,.08,.39,.36,.74,.75,1.03,1.19,.18,.27,.3,.57,.35,.9,0,0,0,.01,.01,.02v.31c-.02,.05-.04,.11-.06,.16-.05,.12-.15,.17-.28,.17-.03,0-.06,0-.1,0,.06,.17,.09,.34,.08,.51-.02,.36-.25,.67-.61,.71,0,0-.01,0-.02,.01h-.3s-.01-.02-.02-.02c-.11-.03-.21-.08-.28-.17-.14,.1-.26,.12-.42,.09-.31-.05-.58-.19-.85-.35-.15-.09-.28-.2-.38-.35-.01-.02-.05-.03-.07-.04-.24,0-.49,0-.73-.02-.35-.02-.69-.05-1.03-.09-.41-.05-.82-.11-1.23-.16-.14-.02-.29-.05-.43,0-.04,.02-.09,.02-.14,.02-.14,0-.27,.02-.41,.01-.04,0-.06,0-.09,.03-.32,.32-.69,.57-1.09,.77-.61,.29-1.22,.27-1.83-.02-.18-.09-.32-.21-.36-.41-.13,0-.26,.02-.38,.01-.46-.04-.86-.22-1.19-.54-.08-.07-.14-.17-.19-.26-.08-.17-.04-.33,.11-.45,0,0,.02-.01,.03-.02,0-.02-.02-.04-.02-.06-.09-.25-.02-.46,.21-.6,.08-.05,.17-.09,.26-.13,.18-.08,.34-.19,.49-.32,.33-.29,.58-.63,.86-.96,0,0,0,0,.01,0,0,0-.01,0-.02,0-.24,.01-.49,.09-.73-.02-.04,.05-.07,.1-.1,.14-.21,.26-.49,.43-.8,.55-.58,.22-1.17,.27-1.78,.22-.1,0-.21-.03-.31-.04,.02,.07,.04,.13,.06,.2,.04,.19-.03,.36-.17,.44-.15,.09-.33,.08-.48-.05-.07-.06-.13-.15-.2-.22-.02-.03-.04-.06-.05-.07-.05,.1-.08,.21-.14,.3-.06,.1-.11,.1-.21,.04-.14-.09-.23-.22-.27-.38-.05-.17-.08-.35-.1-.53-.02-.11-.01-.23-.02-.34-.13,.05-.19,.03-.25-.09-.03-.05-.04-.11-.06-.16,0-.02-.02-.05-.03-.07,0-.12,0-.23,0-.35,0-.03,.02-.06,.03-.09,.1-.29,.19-.59,.29-.88,.05-.14,.14-.27,.25-.38,.02-.02,.03-.04,.04-.06,.07-.19,.14-.38,.23-.56,.07-.16,.16-.31,.26-.45,.43-.61,.89-1.19,1.43-1.71,.38-.36,.8-.65,1.27-.87,.03-.01,.06-.04,.07-.07,.09-.15,.19-.28,.33-.38,.15-.1,.24-.24,.3-.4,.09-.26,.17-.51,.25-.78,.06-.2,.06-.4,.01-.6-.02-.12-.06-.24-.09-.36-.04-.15-.08-.3-.07-.46,0-.05,0-.1,.02-.15,.06-.23,.24-.35,.48-.33,.2,.02,.38,.09,.55,.2,.57,.34,.92,.85,1.09,1.49,.04,.15,.05,.3,.07,.45,0,.02,0,.05,.01,.08,.1,0,.2,0,.3-.01,.04,0,.07-.02,.07-.07,0-.06,.02-.12,.04-.18-.03,0-.06-.02-.09-.03-.14-.05-.22-.18-.18-.33,.03-.09,.08-.18,.14-.27,.04-.06,.09-.11,.14-.17-.11-.11-.14-.2-.06-.34,.25-.43,.62-.69,1.14-.69,.04,0,.05,0,.07-.04,.15-.26,.36-.46,.6-.63,.06-.04,.09-.08,.09-.16,.06-.51,.27-.95,.6-1.34,.55-.66,1.23-1.13,2.06-1.35,.16-.04,.33-.06,.49-.09,.02,0,.03-.01,.05-.02,.18,0,.36,0,.54,0Zm-2.59,7.98s-.01,.01-.02,.02h0s-.03,.02-.05,.03h0c-.06,.02-.12,.05-.19,.05-.11,0-.23,0-.34,0-.1-.03-.21-.04-.3-.08-.48-.21-.78-.56-.83-1.09,0-.35,.1-.67,.24-.98,.1-.21,.21-.42,.31-.62,.04-.06,.07-.12,.11-.18,.03-.05,.07-.1,.11-.16-.06-.03-.1-.06-.15-.08-.02,0-.05,0-.06,0-.06,.06-.12,.13-.18,.19-.07,.11-.14,.21-.21,.32-.02,.03-.04,.05-.05,.08-.09,.24-.18,.47-.26,.72-.07,.21-.1,.43-.08,.65,.02,.13,.03,.26,.05,.4,0,.02,0,.03,0,.05,.12,.46,.42,.77,.86,.94,.27,.11,.54,.14,.83,.03,.25-.1,.45-.39,.44-.65-.01,0-.02,.02-.04,.02-.04,.02-.09,.05-.13,.07-.02,0-.04,.02-.06,.03-.12,.06-.23,.11-.37,.08-.03,.05-.05,.1-.09,.16,.09-.01,.17-.02,.24-.03,.09-.02,.17-.06,.23-.13,.01-.01,.03-.02,.04-.04,.06,.03,.02,.08,.01,.12h0s-.02,.03-.03,.05h0s-.01,.01-.02,.02h0s-.01,.01-.02,.02h0Zm.9-4.53s.01,.01,.02,.02c.06,.09,.12,.18,.19,.26,0-.04,0-.08,.02-.11,.06-.11,.02-.2-.05-.3-.07-.09-.11-.2-.23-.26-.14-.07-.27-.12-.42-.09-.21,.02-.38,.11-.53,.24-.1,.09-.19,.2-.29,.3-.02,.02-.04,.04-.06,.06,0,0-.01,0-.02-.01,0-.02,0-.03,.01-.05,.03-.05,.07-.11,.11-.16,.2-.25,.44-.43,.77-.49,.14,0,.28,.01,.4,.09,0,0,.02,0,.02,0,0,0,0-.02,0-.03-.06-.08-.11-.16-.17-.23-.01-.02-.03-.04-.05-.04-.11-.03-.22-.05-.33-.07-.03,0-.05-.01-.08-.01-.48-.02-.9,.13-1.29,.41-.26,.18-.48,.39-.66,.65,.03,.02,.06,.03,.08,.05,0,0,0,.02,0,.02-.03,0-.05,0-.08,.01-.09,0-.19,0-.28,0-.06,0-.11,.03-.17,.05-.06,.01-.12,.02-.18,.05-.22,.09-.4,.25-.53,.45-.02,.04-.06,.08-.07,.13-.03,.07,0,.12,.07,.15,.09,.04,.09,.06,.02,.14-.09,.11-.18,.21-.25,.33-.11,.18-.03,.3,.18,.3,.11,0,.12,.03,.07,.12-.08,.16-.08,.32-.03,.48,.04,.11,.09,.13,.2,.09,.03-.01,.06-.02,.09-.03,0,0,0,.01,.01,.02-.02,.03-.05,.07-.07,.1,.01,.03,.03,.06,.04,.1,.03,.07,.07,.13,.1,.2,.01,.03,.04,.06-.02,.07-.07-.11-.14-.22-.21-.32-.22,.01-.26-.16-.3-.31h-.36c-.01,.16-.02,.3-.03,.44-.03,.06-.05,.12-.08,.19,.01,0,.03,.01,.04,.02,.46,.16,.86,.4,1.15,.79,0,0,0,.01,.01,.02h0c.1,.16,.18,.33,.21,.51,.02,.13,.02,.27,.03,.41,0,.04,0,.07,0,.11,.1-.03,.12,0,.11,.09,0,.08,0,.17-.01,.25,0,0,.01,0,.02,0,.05-.05,.09-.11,.14-.16,.13-.1,.27-.19,.34-.36-.21-.17-.36-.37-.47-.6-.02-.09-.05-.17-.12-.23-.05-.07-.1-.13-.14-.2-.04-.07-.08-.14-.07-.22,.02,.01,.05,.02,.07,.04,.05,.06,.09,.12,.15,.2,0-.1,0-.18-.01-.26,.01-.15,.02-.3,.04-.44,.09-.48,.26-.92,.54-1.32,.04-.04,.07-.09,.11-.13,.05-.04,.09-.08,.14-.13-.03,0-.05,0-.06-.01-.04,0-.09-.01-.13-.02-.02,0-.03,0-.05-.01h0s.03-.04,.06-.05c.13-.02,.25,0,.37,.06,.09,.05,.18,.1,.27,.15,.09,.05,.16,.13,.21,.23,.02,.05,.05,.09,.08,.14,.02,.03,.04,.06,.07,.08,.1,.08,.2,.06,.27-.05,.02-.07,.03-.13,.05-.2,.02-.08,0-.16-.04-.22-.19-.32-.46-.52-.84-.57-.02,0-.04,0-.06-.01,0,0,0-.02,0-.03,.16-.03,.31,.04,.46,.09,.02-.12,.04-.24,.06-.36,.05-.1,.09-.2,.16-.29,.21-.29,.48-.47,.83-.55,.25,0,.49,.12,.56,.28-.03-.02-.05-.03-.07-.04,0,0-.01,0-.02-.01-.01,0-.03,0-.04,0,0,0,0,0,0,.01,0,0,.02,0,.03,.01Zm-2.32,3.16h0s.05-.01,.08-.02c.02,.03,0,.05-.02,.07-.08,.06-.13,.14-.15,.24-.02,.07-.03,.15-.03,.23,0,.03,0,.06,0,.09,.07,.16,.17,.31,.31,.42,.16,.17,.37,.26,.6,.32,.04-.07,.08-.14,.12-.21,.05-.09,.06-.2,.05-.3,0-.2-.06-.38-.22-.51-.05-.03-.09-.06-.15-.11,.04,.25,.04,.49-.08,.7-.02,.01-.03,.02-.05,.03,0,0,0,0-.01,0,0-.02,0-.05,.01-.07,.02-.11,.04-.22,.04-.33,0-.21-.03-.41-.15-.59-.07-.1-.15-.17-.28-.18h-.1s-.08-.03-.09,.02c-.04,.16-.07,.32-.07,.5,.03-.07,.05-.11,.08-.16,.03-.03,.06-.07,.09-.1,0,0,.01-.01,.02-.02Zm-.81,2.19c-.05,.1-.11,.2-.21,.25,0,.03,.02,.06,.02,.09,0,.13,0,.26,0,.39-.03,.26-.17,.47-.35,.65-.1,.1-.21,.19-.36,.21,.01,.04,.03,.07,.04,.11,.01,.12,.03,.24,.03,.37,0,.09-.02,.18-.03,.28-.08,.2-.15,.4-.22,.59,.15,.03,.32,.06,.48,.1,.25,.06,.49,.14,.74,.2,.07,.02,.15,.01,.23,.02h.54s.03-.01,.05-.01c.04,0,.09,0,.13-.01,.26-.04,.53-.08,.79-.12,.07-.01,.13-.02,.2-.03,.18-.03,.36-.05,.54-.08h.12c.07-.33,.15-.65,.09-.98-.16,0-.29-.05-.41-.12-.03-.02-.05-.04-.08-.06-.07-.07-.14-.14-.2-.21,.01-.06,.04-.03,.07-.01,.12,.07,.24,.14,.37,.2,.09,.04,.19,.05,.29,.03,.11-.02,.17-.09,.16-.2,0-.07-.03-.14-.05-.21-.04-.14-.12-.25-.2-.36-.1-.13-.2-.25-.3-.37-.05-.06-.09-.13-.14-.2,0,.04,0,.07,0,.1,0,.2-.06,.37-.21,.51-.04,.04-.09,.07-.14,.11-.03,.01-.06,.02-.08,.04-.07,.02-.14,.03-.21,.05-.2-.01-.39-.02-.55-.17-.12,.06-.25,.06-.38,.06-.07-.02-.14-.04-.21-.05-.09-.02-.17-.07-.24-.13-.23-.2-.29-.45-.24-.75,.01-.05,.03-.1,.04-.15,0-.03,.03-.06,.02-.08-.01-.1-.03-.21-.04-.3-.03,.09-.06,.18-.1,.28Zm2.32-1.8c.15-.06,.31-.13,.47-.19-.09,0-.16,0-.23-.01-.15-.04-.27,.01-.39,.09-.08,.05-.16,.1-.23,.16-.12,.11-.1,.07-.06,.21,0,0,0,.01,0,0,.15-.09,.29-.18,.43-.26Zm3.95,8.62s-.01-.02-.02-.03c-.02-.02-.04-.04-.07-.07-.05-.06-.1-.11-.15-.17-.06-.07-.07-.09-.03-.15,.07,.05,.15,.09,.22,.14,.01,.01,.03,.03,.04,.04,.01,0,.02,0,.03,.01,.07,.08,.13,.16,.2,.25,.04,.09,.07,.19,.11,.28v.26c.09,.04,.18,.08,.27,.11,.2,.08,.5-.02,.61-.2,.02-.02,.04-.05,.05-.07,.08-.18,.1-.37,.06-.56-.04-.1-.06-.21-.11-.31-.06-.11-.12-.22-.2-.32-.12-.16-.24-.31-.4-.45-.07-.06-.14-.1-.21-.16,0-.01,0-.02,0-.04,.03,0,.06,0,.09,0,.16,.06,.29,.16,.41,.28,.08,.08,.15,.17,.22,.25,.05,.08,.11,.16,.16,.25,.04,.07,.09,.1,.17,.11,.14,0,.21-.04,.21-.19,0-.11,0-.22,0-.33-.02-.19-.09-.37-.17-.54-.23-.47-.56-.86-.92-1.23,0,0-.02-.01-.04-.03,.02,.09,.05,.18,.06,.26,.02,.11,.03,.22,.04,.33,0,.02-.02,.03-.03,.05-.01-.01-.03-.02-.03-.04-.01-.03-.02-.07-.03-.1-.01-.04-.03-.08-.05-.13,0-.03-.01-.05-.02-.08,0-.02,0-.03-.01-.05-.02-.05-.03-.1-.05-.15-.06-.15-.13-.3-.19-.45-.01-.03-.03-.05-.04-.08,0-.02-.02-.04-.03-.06-.07-.12-.13-.24-.2-.36,0-.01-.02-.03-.02-.04-.01-.02-.03-.05-.04-.07,0-.01-.02-.03-.02-.04-.04-.07-.08-.15-.12-.22,0-.01-.02-.03-.02-.04-.03-.05-.05-.11-.09-.16-.14-.24-.29-.47-.44-.71,0-.01-.02-.02-.02-.04-.14-.18-.27-.35-.41-.53-.02-.02-.03-.04-.05-.06-.5-.55-1.11-.92-1.8-1.17-.07-.03-.14-.04-.21-.06-.17-.06-.35-.08-.54-.07,.02,.13-.03,.22-.11,.31,.05,.07,.09,.13,.14,.2,.08,.11,.15,.22,.23,.33,.08,.1,.17,.2,.25,.3,.1,.12,.17,.25,.22,.4,.05,.17,.05,.33-.08,.46-.04,.03-.09,.06-.13,.08,0,.06,.02,.12,.02,.18,0,.13,0,.27,0,.4-.02,.14-.04,.27-.06,.4,.17,.01,.34,.03,.5,.04,.02,0,.05-.02,.07-.03,.19-.1,.5-.05,.65,.1,0,0,0,.02,.01,.03-.01,0-.03,0-.04,.01-.15-.07-.31-.13-.48-.07,.22,.06,.42,.15,.6,.29,.02,.02,.04,.04,.05,.07-.03,0-.06-.01-.09-.02-.12-.06-.24-.12-.37-.14-.02-.01-.04-.03-.06-.03-.15-.03-.29-.06-.44-.08-.4-.04-.8,.03-1.2,.09-.36,.06-.73,.11-1.09,.17-.08,.01-.16,.01-.24,.02,.15,.06,.29,.1,.44,.14,.29,.09,.58,.19,.85,.35,.03,.02,.06,.04,.09,.06,.01,.01,.01,.04,.01,.06-.02,0-.04,.01-.05,0-.03,0-.05-.02-.08-.03-.27-.1-.54-.21-.81-.29-.61-.18-1.22-.33-1.83-.5-.19-.05-.39-.09-.59-.08-.04,0-.09,.02-.11,.05-.19,.2-.42,.34-.69,.39-.06,.01-.11,.04-.15,.08-.17,.2-.35,.4-.51,.6-.29,.35-.6,.67-1.02,.86-.08,.04-.16,.09-.24,.13-.12,.08-.17,.23-.1,.35,.02,.03,.04,.05,.08,.04,.07-.02,.13-.02,.2-.03,.09-.01,.18-.02,.27-.03,.18,0,.35-.06,.5-.15,.27-.16,.53-.32,.79-.49,.11-.07,.22-.16,.33-.24,.02-.01,.05,0,.07-.01,0,.02,0,.05-.01,.06-.04,.06-.09,.12-.14,.18-.32,.31-.69,.53-1.09,.71-.12,.06-.26,.09-.39,.12-.16,.03-.32,.04-.48,.07-.04,.01-.08,.02-.12,.03-.14,.06-.17,.14-.1,.26,.02,.04,.04,.07,.07,.1,.08,.08,.17,.17,.26,.24,.33,.25,.7,.37,1.11,.32,.1-.01,.18-.05,.22-.15,.15-.16,.33-.27,.51-.37,.11-.06,.23-.12,.35-.17,.25-.11,.46-.28,.61-.51,.04-.06,.09-.12,.15-.18,.05-.05,.11-.1,.17-.14,.02-.01,.06-.01,.08-.02,0,.03-.01,.06-.03,.08-.07,.09-.15,.17-.21,.26-.05,.06-.08,.13-.12,.19-.1,.16-.22,.28-.39,.37-.11,.06-.23,.12-.34,.18-.15,.08-.29,.17-.44,.25-.06,.05-.11,.1-.17,.15-.12,.13-.12,.25,.01,.36,.06,.05,.12,.09,.19,.13,.37,.18,.76,.21,1.17,.15,.26-.04,.51-.14,.73-.29,.39-.22,.73-.48,1.02-.82,.1-.12,.2-.23,.3-.35,.03-.03,.06-.05,.09,0-.03,.05-.05,.11-.08,.16-.02,.03-.04,.07-.06,.1-.06,.08-.12,.17-.18,.25,0,0,0,.01,0,.02,.11,0,.22,0,.33-.03,.33-.05,.64-.13,.88-.37,.01-.01,.04,0,.06,0-.03,.06-.05,.13-.09,.18-.05,.06-.12,.11-.18,.17,.13,.02,.26,.04,.39,.06,.67,.11,1.35,.18,2.03,.23,.32,.02,.64,0,.96-.06,.02,0,.05,.02,.07,.02-.01,.02-.02,.04-.03,.06-.02,.01-.05,.03-.07,.04-.08,.03-.16,.06-.26,.09,.07,.06,.13,.13,.21,.18,.22,.15,.46,.27,.71,.36,.09,.03,.18,.05,.27,.06,.13,.02,.22-.04,.24-.16,0-.06,0-.12,0-.18-.02-.12-.1-.2-.18-.28Zm-4.17-6.86c.04,.06,.09,.11,.13,.17,.12-.07,.12-.23,.02-.34-.07-.07-.14-.14-.2-.2-.08,.02-.16,.04-.24,.06,.07,.14,.18,.22,.29,.31Zm1.91-4.25h.06c.13,.05,.26,.09,.4,.13-.02-.11-.04-.23-.06-.34-.01-.08-.05-.12-.13-.12-.08-.03-.16-.06-.23-.11-.13-.08-.24-.18-.37-.27-.07-.08-.15-.17-.23-.26-.11,.32-.01,.64,.02,.95,0-.13,0-.25,.07-.37h.08c-.08,.15-.05,.24,.07,.24,0,.06,0,.11,.01,.16,.1,0,.2-.01,.31-.02h0ZM5.3,16.78c.02,.06,.05,.12,.07,.17,.07,.12,.16,.23,.28,.31,.14,.09,.33,0,.32-.15,0-.05-.01-.1-.02-.15-.03-.07-.05-.13-.08-.2-.01-.02-.02-.05-.04-.06-.03-.02-.07-.04-.11-.06-.02-.02-.04-.04-.06-.06,0-.04,.03-.07,.07-.06,.09,0,.17,.02,.26,.04,.46,.11,.92,.11,1.38,.04,0,0,.02,0,.02,0,.36-.05,.71-.14,1.03-.32,.2-.11,.37-.25,.48-.45-.1-.09-.19-.19-.23-.32-.05-.14-.02-.26,.07-.38-.08-.02-.14-.04-.21-.06-.26-.09-.49-.23-.64-.48,.03,0,.06,.01,.09,.03,.6,.39,1.27,.49,1.96,.38,.14-.02,.28-.09,.41-.13,.02,0,.04,0,.07,0-.01,.02-.02,.04-.04,.06-.01,.01-.03,.02-.05,.03-.12,.05-.24,.1-.36,.16-.05,.01-.09,.02-.15,.03,.01,.01,.02,.02,.02,.03,.08,.06,.17,.09,.27,.08,.04,0,.07,0,.04,.05-.05,.01-.11,.02-.16,.03-.1-.01-.2-.04-.27-.13-.03-.04-.06-.04-.1-.04-.19,0-.37,.01-.56,0-.08,0-.14,0-.19,.07-.05,.07-.07,.14-.04,.22,.05,.12,.13,.22,.26,.25,.13,.03,.27,.06,.41,.05,.3-.02,.59-.08,.88-.18,.19-.06,.33-.19,.43-.36,.22-.32,.35-.66,.34-1.05,0-.19-.06-.36-.21-.5-.1-.09-.19-.19-.3-.27-.39-.28-.83-.42-1.31-.44-.03,0-.05,0-.08-.01,0,0,0-.02,0-.03,.04,0,.08-.01,.11-.02,.09,0,.19,0,.28,0,.01,0,.03,0,.04,.01,.02,0,.05,0,.07,0,.02,0,.03,0,.05,0,.14,.04,.28,.07,.42,.11h0s0,0,0,0c.05,.02,.09,.04,.14,.06,.09,.05,.18,.09,.27,.14,.19,.13,.39,.27,.52,.47,.11-.01,.2-.05,.27-.12,.21-.19,.35-.42,.37-.7,.04-.44-.2-.75-.51-1.02-.04-.03-.08-.07-.12-.1-.22-.14-.46-.27-.71-.36-.19-.07-.4-.12-.61-.1-.05,0-.1,.01-.15,.02,0-.07,.02-.09,.1-.12,.16-.05,.33-.05,.49,0,.43,.11,.82,.3,1.16,.59,.17,.16,.33,.34,.43,.57,.05-.07,.1-.15,.13-.22,.14-.34,.13-.68,.01-1.01-.09-.26-.26-.48-.49-.63-.15-.09-.29-.19-.45-.26-.4-.17-.81-.3-1.25-.32-.12,0-.25-.03-.37-.03-.19,0-.38,.02-.57,.07-.37,.1-.65,.32-.82,.66-.1,.26-.18,.53-.15,.8,.15-.02,.28-.04,.42-.06,.02,.04,0,.05-.03,.06-.03,0-.06,.01-.1,.03-.38,.15-.66,.41-.85,.78-.04,.08-.05,.18-.07,.28-.04,.22,.08,.39,.16,.57,.09-.03,.18-.06,.27-.08,.03,.04,0,.06-.02,.07-.06,.05-.12,.09-.19,.13-.11,.08-.21,.16-.28,.28-.08,.09-.12,.19-.14,.31-.05,.26,.02,.5,.15,.73,.01,.03,.02,.06,.04,.08,.29,.39,.61,.75,1.05,.98,.04,.02,.08,.05,.12,.07,0,0,0,.02,0,.03-.03,0-.06,.03-.09,.03-.08-.01-.16-.03-.25-.05-.11-.08-.22-.15-.33-.23-.05-.05-.09-.1-.15-.14-.16-.12-.28-.27-.39-.42-.08-.11-.15-.23-.22-.34-.01-.03-.02-.06-.04-.1-.06-.13-.09-.27-.09-.41,0-.1,.02-.19,.04-.29,.04-.21,.17-.36,.32-.51,.03-.02,.06-.04,.09-.07-.14-.11-.16-.27-.21-.42-.14,.12-.27,.24-.4,.36-.18,.17-.36,.34-.53,.51,0,0,0,.03-.01,.05-.04,.04-.08,.08-.11,.12-.17,.23-.29,.49-.41,.75-.01,.02-.03,.04-.05,.06-.06,0-.02-.05-.03-.07,0,0,0-.02,.01-.03,0-.01,0-.02,0-.03,.03-.11,.07-.22,.1-.33,0,0,0,0,0-.01-.02,0-.04,.01-.07,.02,0,0,0,0-.01-.01,.03-.06,.07-.11,.13-.15,.02-.01,.05-.03,.06-.05,.1-.14,.19-.28,.29-.43,.08-.08,.15-.17,.23-.24,.15-.14,.3-.28,.46-.42,.07-.06,.13-.12,.21-.17,.08-.06,.15-.13,.15-.24,0-.02,.01-.05,.02-.07,.08-.28,.26-.49,.47-.68,.06-.04,.13-.08,.19-.13-.13-.26-.03-.52,.03-.79-.3,.16-.57,.33-.81,.55-.18,.16-.36,.31-.53,.49-.21,.22-.4,.46-.6,.69-.06,.08-.12,.16-.18,.23-.13,.16-.25,.33-.38,.49-.12,.16-.21,.33-.28,.51-.05,.12-.1,.23-.14,.35-.07,.19-.13,.37-.19,.56-.01,.03-.01,.08-.07,.06,0-.06,0-.12,0-.18h-.02c-.06,.13-.13,.26-.17,.4-.07,.21-.12,.43-.18,.64-.04,.17-.03,.34,.06,.52,.02-.04,.04-.07,.06-.1,.04-.1,.09-.2,.13-.29,.08-.05,.11-.04,.16,.04,0,.03-.01,.06-.02,.09-.09,.34-.08,.69-.01,1.03,.03,.18,.09,.35,.26,.49,.02-.07,.04-.13,.06-.19,.01-.09,.02-.18,.03-.26,0-.03,0-.07,0-.1,0-.05,0-.09,.06-.12,.07,0,.11,.02,.13,.09,0,.03,.02,.06,.04,.09Zm8.25-4.24c.07,.16,.09,.32,.05,.49-.02,.06-.04,.11-.06,.17-.02,.03-.05,.05-.07,.08-.06,.06-.06,.08,.02,.12,.02,0,.04,.02,.05,.02,.09,0,.19,.01,.28,.02,.11,0,.2-.02,.29-.08,.16-.11,.28-.25,.26-.47,0-.05,0-.11-.02-.16-.02-.07-.05-.15-.07-.22-.02-.04-.03-.09-.06-.12-.06-.07-.13-.13-.2-.2-.03-.03-.07-.05-.07-.08-.04-.14-.14-.17-.27-.18-.14-.01-.29-.06-.43-.09-.06-.03-.12-.06-.18-.09-.03-.02-.06-.05-.1-.08-.03,.06-.05,.1-.07,.14-.1,.1-.21,.2-.31,.3-.05,.05-.08,.13-.12,.19-.02,.04-.05,.08-.07,.12-.05,.12-.09,.25-.06,.39,.07,.31,.39,.54,.71,.51,.2-.02,.34-.12,.39-.3,.07-.16,.07-.31,.02-.47-.01-.04-.01-.08-.02-.12,.02,0,.04,0,.05,.02,.02,.02,.03,.05,.04,.08Zm4.55-7.84c.12,.09,.23,.17,.36,.27,0-.22-.03-.41-.15-.58-.06-.14-.15-.25-.26-.35-.03-.03-.05-.06-.08-.08-.35-.27-.77-.36-1.2-.36-.2,0-.4,.01-.6,.06-.31,.05-.61,.15-.89,.29-.44,.21-.83,.51-1.16,.87-.2,.2-.36,.42-.5,.65-.05,.08-.08,.17-.12,.26-.04,.11-.08,.22-.12,.33-.02,.07-.03,.15-.05,.23,0,0,0,0,0,0,0,0,0,0,0,0,.09-.04,.17-.09,.26-.13,.27-.13,.56-.21,.86-.2,.13,0,.26,.01,.38,.02,0,0,0,0,0,0,0,0,0,0,0,0,0,0,0,0,0,0-.09-.08-.2-.13-.31-.16,0-.01-.02-.03-.02-.04,.02,0,.04-.02,.05-.02,.1,.03,.21,.06,.29,.11,.11,.07,.2,.16,.29,.24,.16,.24,.33,.47,.49,.71,.16,.22,.33,.43,.57,.58,.2,.12,.41,.21,.65,.15,.16-.04,.3-.11,.38-.26,.09-.11,.13-.23,.14-.37,.03-.2,0-.39-.1-.58-.02-.04-.03-.08-.06-.11-.25-.36-.63-.49-1.04-.55-.05,0-.09,0-.12-.06,.09,0,.17,.01,.26,.01,.14,0,.28,.05,.41,.09,.06,.02,.12,.05,.18,.08,.12,.05,.21,.14,.3,.23,.11,.14,.22,.29,.26,.47,.02,.08,.03,.16,.05,.24-.02,.14-.03,.28-.05,.44,.02,0,.04,.02,.07,.03,.13,.04,.26,.03,.39-.01,.27-.09,.48-.26,.66-.47,.08-.1,.16-.21,.18-.34,.02-.07,.05-.14,.06-.22,.02-.13,.02-.26-.03-.39-.03-.24-.17-.43-.33-.6,0,0-.02,0-.03-.01-.17-.2-.39-.33-.63-.45-.25-.13-.52-.2-.81-.17-.16,.01-.3,.07-.44,.12-.02,0-.04,0-.06-.01,0-.02,.01-.04,.03-.05,.04-.03,.09-.05,.13-.08,.27-.14,.55-.13,.83-.07,.07,.02,.13,.04,.2,.05,.14,.07,.28,.13,.41,.2Zm-2.09,5.36c.15,.01,.29,.05,.4,.16,.08,.08,.12,.17,.11,.3,.05-.03,.08-.06,.11-.08,.37-.27,.55-.63,.56-1.09-.01-.1-.01-.2-.03-.3-.08-.33-.23-.62-.55-.79-.06-.03-.13-.05-.19-.08-.21-.08-.42-.09-.63-.02-.24,.07-.43,.22-.59,.4-.12,.13-.22,.28-.33,.42-.04-.02-.02-.05,0-.07,.03-.06,.06-.11,.09-.17,0,0,0,0,0-.01,0,0,0,0-.01,0-.19,.04-.37,.05-.54,0-.06,.09-.12,.17-.18,.25-.05,.02-.11,.03-.16,.05-.07-.02-.15-.04-.22-.07-.05,.11-.06,.18-.03,.37,.06,.36,.26,.62,.61,.76,.3,.11,.61,.1,.92,.07,.19-.02,.38-.05,.57-.08,.02,0,.03,0,.05,0,.01,0,.02,0,.03,0Zm-.54-1.96c.08-.21,.09-.42,.04-.63-.03-.19-.12-.36-.26-.5-.1-.09-.21-.14-.35-.15-.18,0-.35,.06-.49,.17-.21,.14-.35,.34-.42,.58-.01,.08-.03,.16-.04,.24-.01,.09,.02,.15,.1,.21,.18,.13,.31,.3,.35,.53,0,.02,.03,.04,.06,.05,.13,.05,.27,.06,.4,.03,.11-.02,.2-.06,.28-.15,.04-.04,.07-.09,.11-.13,.05-.05,.1-.09,.15-.13,0-.01,.01-.02,.02-.03,.01-.03,.03-.07,.04-.1Zm-6.44,1.04c-.08,.21-.16,.43-.25,.65,.66-.21,1.3-.07,1.96,.08,.02-.13,.04-.26,.06-.39,0-.08,0-.16,0-.25,0-.39-.12-.75-.3-1.09-.21-.39-.52-.7-.93-.89-.1-.05-.21-.08-.31-.1-.15-.02-.26,.05-.29,.2-.02,.09-.02,.19,0,.28,.05,.27,.16,.52,.17,.79,0,.04,0,.08,0,.13,0,.02,0,.05,0,.07,0,.04,0,.08,0,.11-.03,.13-.06,.26-.09,.4Zm5.22,2.02c.08-.04,.15-.08,.23-.12,.07-.03,.13-.07,.2-.1,.07-.03,.1,0,.09,.07,0,.07-.02,.13-.04,.2-.01,.04-.03,.08-.04,.12,.14,.01,.18-.09,.25-.18,.02,.04,.03,.08,.04,.11,.02,.07,.04,.15,.07,.22,.04,.08,.11,.1,.18,.04,.06-.05,.11-.11,.15-.17,.04-.07,.06-.15,.1-.22,.01-.02,.04-.04,.07-.06,.02,.02,.04,.04,.05,.07,.01,.03,.01,.06,.03,.09,.05,.15,.17,.18,.27,.06,.07-.08,.13-.18,.18-.28,.03-.05,.04-.11,.06-.16,.02-.05,.06-.06,.1-.02,.03,.03,.06,.06,.1,.08,.06,.04,.13,.05,.18,0,.11-.09,.15-.21,.18-.34-.24,.09-.27,.09-.34,.03,.08-.18,0-.36-.2-.4-.07-.02-.15-.03-.23-.02-.17,.01-.35,.05-.52,.06-.21,.01-.38,.11-.56,.19-.2,.06-.39,.15-.54,.3-.06,.05-.13,.1-.19,.16-.01,.01-.02,.04-.03,.06-.01,.08-.02,.16-.03,.26,.06-.02,.12-.03,.17-.05Z"/>
      <path class="cls-29" d="M13.35,18.37c.03-.05,.05-.11,.08-.16,.06-.11,.13-.21,.19-.32,.02-.03,.02-.07-.03-.09-.18,.16-.37,.33-.55,.49-.27,.23-.55,.44-.86,.62-.45,.25-.92,.39-1.44,.38-.16,0-.32-.03-.44-.13-.08-.07-.14-.17-.21-.26,.15-.08,.29-.17,.44-.25,.11-.06,.23-.12,.34-.18,.16-.09,.29-.21,.39-.37,.04-.07,.08-.13,.12-.19,.07-.09,.14-.17,.21-.26,.02-.02,.02-.05,.03-.08,.01-.05,.03-.11,.04-.17-.02,0-.03,0-.04,.01-.11,.13-.25,.2-.39,.29-.25,.16-.49,.33-.74,.49-.4,.25-.82,.39-1.3,.35-.35-.03-.65-.16-.9-.4,.16-.02,.32-.03,.48-.07,.13-.03,.27-.06,.39-.12,.4-.18,.77-.4,1.09-.71,.02-.01,.05-.02,.07-.03,.09-.1,.18-.21,.26-.32,.04-.05,.07-.11,.1-.16,.01-.02,0-.05,0-.08-.02,0-.05,0-.07,.01-.03,.01-.05,.03-.07,.05-.09,.07-.17,.15-.27,.21-.29,.18-.61,.33-.94,.42-.27,.07-.54,.12-.82,.08,.42-.19,.74-.51,1.02-.86,.17-.21,.34-.4,.51-.6,.04-.05,.09-.07,.15-.08,.27-.05,.5-.19,.69-.39,.03-.03,.07-.05,.11-.05,.2-.01,.39,.02,.59,.08,.61,.17,1.23,.32,1.83,.5,.28,.08,.54,.19,.81,.29,.03,0,.05,.02,.08,.03,.02,0,.03,0,.05,0,0-.02,0-.05-.01-.06-.03-.02-.06-.04-.09-.06-.26-.16-.56-.26-.85-.35-.15-.05-.29-.09-.44-.14,.08,0,.16,0,.24-.02,.36-.05,.73-.11,1.09-.17,.4-.06,.79-.13,1.2-.09,.15,.02,.29,.05,.44,.08,.02,0,.04,.02,.06,.03-.04,0-.07,0-.04,.06,.02,.03,.03,.06,.03,.09,0,.26,.01,.53,.02,.79,0,.02,0,.04,0,.06-.01,.1-.03,.21-.04,.31,0,.05,0,.1-.01,.15-.02,.09-.07,.18-.08,.28-.02,.14-.09,.26-.13,.38-.02,.05-.02,.1-.05,.15-.07,.15-.16,.28-.21,.44-.02,.05-.05,.1-.08,.14-.04,.04-.06,.09-.06,.15-.29-.04-.58-.1-.87-.19,.02-.03,.05-.05,.08-.08,.09-.09,.16-.2,.2-.32,0-.02,0-.06,0-.08-.03,0-.06,.01-.08,.03-.05,.03-.09,.07-.13,.11-.15,.12-.3,.23-.48,.29-.22,.08-.45,.09-.69,.08Z"/>
      <path class="cls-1" d="M15.32,18.53c0-.06,.02-.1,.06-.15,.04-.04,.07-.09,.08-.14,.05-.16,.14-.29,.21-.44,.02-.05,.03-.1,.05-.15,.04-.13,.11-.25,.13-.38,.01-.09,.06-.18,.08-.28,.01-.05,0-.1,.01-.15,.01-.1,.03-.21,.04-.31,0-.02,0-.04,0-.06,0-.26,0-.53-.02-.79,0-.03-.02-.06-.03-.09-.03-.05,0-.06,.04-.06,.13,.02,.25,.08,.37,.14,.03,.01,.06,.02,.09,.02,.07,.04,.15,.09,.23,.14-.01-.09-.06-.14-.11-.19-.09-.08-.19-.16-.29-.24,.01,0,.03,0,.04-.01,.06,0,.11,.02,.18,.02-.03-.08-.09-.1-.14-.14-.15-.11-.33-.14-.49-.2-.09-.04-.21-.08-.27-.15-.18-.22-.28-.47-.35-.74,.13-.14,.12-.3,.08-.46-.04-.15-.12-.28-.22-.4-.08-.1-.17-.2-.25-.3-.08-.11-.15-.22-.23-.33,.02-.02,.04-.04,.06-.07,.1-.16,.25-.26,.42-.34,.01,0,.02-.02,.03-.03,.07,.02,.14,.04,.21,.06,.69,.25,1.3,.62,1.8,1.17,.02,.02,.03,.04,.05,.06-.04,.02-.03,.04-.02,.07,.03,.06,.07,.12,.09,.18,.07,.16,.13,.32,.19,.48,.03,.09,.06,.19,.09,.28,.03,.11,.07,.22,.09,.33,.04,.18,.06,.36,.09,.54,.03,.19,.05,.37,.06,.56,0,.23,.01,.45-.03,.68-.02,.14-.02,.29-.04,.43-.03,.18-.08,.36-.12,.54-.02,.08-.05,.17-.07,.25-.06,.17-.12,.35-.18,.52-.02,.05-.01,.08,.02,.12-.2,.07-.4,.08-.6,.1-.06,0-.13,0-.19,0-.19,0-.38,0-.57-.01-.05,0-.11,0-.16-.02-.17-.02-.35-.05-.52-.08Z"/>
      <path class="cls-23" d="M10.24,13.04c-.14-.04-.28-.07-.42-.11,0-.02-.01-.04-.02-.06,0,.02-.02,.03-.03,.05-.02,0-.05,0-.07,0,0-.03,0-.06-.04-.06,0,0,0,.03,0,.05h-.28s.03-.04,.06-.07c-.04-.02-.07-.04-.1-.06-.18-.09-.34-.21-.48-.36-.15-.16-.29-.32-.38-.52-.06-.16-.19-.31-.14-.5,.03-.01,.05-.02,.03-.06,.14-.05,.27-.09,.41-.14,0,0,0-.01,0-.02-.04-.01-.08-.03-.13-.04,0-.19-.02-.38,.04-.56,.04-.14,.1-.28,.15-.41,.03-.08,.09-.14,.08-.23,.19-.05,.38-.08,.57-.07,.12,0,.25,.03,.37,.03,.44,.02,.85,.15,1.25,.32,.16,.07,.3,.17,.45,.26,0,.03,0,.05,.02,.08,.1,.25,.16,.5,.13,.77-.02,.18-.08,.34-.23,.45-.34-.29-.73-.48-1.16-.59-.16-.04-.33-.04-.49,0-.08,.03-.1,.05-.1,.12,.05,0,.1-.02,.15-.02,.21-.01,.41,.03,.61,.1,.25,.09,.48,.22,.71,.36,.04,.03,.08,.07,.12,.1,0,.03,0,.06,.02,.1,.02,.07,.05,.14,.05,.21,.02,.29-.08,.55-.25,.78-.07-.03-.13,0-.19,.01-.17,.03-.33,.05-.5,.07-.05,0-.06,.02-.05,.06-.05-.02-.09-.04-.14-.06,0-.01,.01-.03,.02-.04,0,0-.01,0-.02,0,0,.01,0,.03,0,.04Z"/>
      <path class="cls-8" d="M8.34,11.4c-.05,.19,.08,.34,.14,.5,.08,.2,.23,.36,.38,.52,.13,.15,.3,.27,.48,.36,.03,.02,.07,.04,.1,.06-.03,.03-.04,.05-.06,.07-.04,0-.08,.01-.11,.02,0,0,0,.02,0,.03,.03,0,.05,.01,.08,.01,.48,.02,.92,.16,1.31,.44,.11,.08,.2,.18,.3,.27,0,.21-.08,.37-.23,.51-.14,.13-.3,.23-.47,.3-.41,.18-.83,.21-1.26,.14-.26-.04-.52-.12-.77-.21-.32-.1-.6-.28-.84-.52-.07-.07-.1-.15-.1-.24,0-.05,0-.1,0-.16,0-.02-.01-.04-.02-.06,.07-.12,.17-.21,.28-.28,.06-.04,.12-.09,.19-.13,.02-.02,.05-.04,.02-.07,.14-.04,.28-.09,.4-.17-.15-.04-.3-.05-.44-.09-.15-.04-.29-.1-.39-.22,.02-.09,.03-.19,.07-.28,.18-.36,.46-.63,.85-.78,.03-.01,.06-.02,.1-.03Z"/>
      <path class="cls-5" d="M17.37,18.53s-.04-.07-.02-.12c.06-.17,.12-.34,.18-.52,.03-.08,.05-.17,.07-.25,.04-.18,.09-.36,.12-.54,.02-.14,.02-.29,.04-.43,.04-.23,.04-.45,.03-.68,0-.19-.03-.37-.06-.56-.02-.18-.05-.36-.09-.54-.02-.11-.06-.22-.09-.33-.03-.09-.05-.19-.09-.28-.06-.16-.12-.32-.19-.48-.03-.06-.06-.12-.09-.18-.02-.03-.02-.06,.02-.07,.14,.18,.27,.35,.41,.53,0,.01,.02,.02,.02,.04,.15,.24,.29,.47,.44,.71,.03,.05,.06,.11,.09,.16,0,.01,.02,.03,.02,.04,.04,.07,.08,.15,.12,.22,0,.01,.02,.03,.02,.04,.01,.02,.03,.05,.04,.07,0,.01,.02,.03,.02,.04,.07,.12,.13,.24,.2,.36,0,.02,0,.05-.01,.07,.01,0,.03,0,.04,0,.01,.03,.03,.05,.04,.08-.03,.04-.04,.08,0,.12,.01,.01,.01,.03,.02,.04,.04,.1,.08,.19,.12,.29,.01,.04,.03,.03,.05,0,.02,.05,.03,.1,.05,.15-.03,.03-.03,.04,.01,.05,0,.03,.01,.05,.02,.08-.03,.1-.02,.18,.03,.27,0,.01,.01,.03,.01,.04-.02,.16-.04,.31-.06,.47-.01,.06-.02,.12,.02,.18-.04,0-.07,.02-.11,.03,.01,.03,.02,.05,.03,.08,0,.01,0,.02,0,.04-.03,.13-.07,.26-.1,.39-.01,.05-.03,.09-.05,.14,0,.02,.01,.06,0,.07-.08,.08-.06,.18-.1,.27-.04,.09-.06,.2-.14,.28-.01,0-.02,0-.03-.01,0-.03,0-.07-.04-.04-.07-.05-.15-.09-.22-.14-.04,.06-.03,.09,.03,.15,.05,.06,.1,.11,.15,.17-.03,.02-.03,.05,0,.07,.03,.03,.02,.06,0,.1-.03,.07-.04,.14-.06,.21-.06-.01-.12-.02-.18-.04-.22-.07-.44-.15-.57-.36,.01-.02,.02-.04,.03-.06-.02,0-.05-.02-.07-.02,0,0,.01-.01,.02-.02,.24-.08,.44-.22,.61-.4,.11-.12,.18-.25,.22-.4,.01-.03,0-.07,0-.11-.11,.08-.19,.17-.28,.24-.1,.07-.21,.12-.31,.18-.01,0-.02-.02-.03-.03-.01,.02-.02,.03-.04,.05-.11,.03-.22,.07-.33,.1Z"/>
      <path class="cls-24" d="M5.13,16.6c-.05,.02-.05,.07-.06,.12,0,.03,0,.07,0,.1-.02-.01-.04-.02-.05-.04-.04-.07-.08-.14-.11-.21-.11-.27-.1-.56-.07-.84,0-.04,0-.07,0-.12-.03,.02-.06,.04-.08,.06-.05-.08-.08-.08-.16-.04-.02-.31,.02-.63,.08-.93,0-.02,.03-.04,.04-.06,.05,.02,.06-.03,.07-.06,.06-.19,.12-.37,.19-.56,.04-.12,.09-.23,.14-.35,.04,0,.05,.03,.06,.07,.02,.06,.05,.12,.08,.17,.05,.08,.1,.16,.16,.24,.05,.08,.1,.16,.16,.24,.02,.02,.06,.02,.08,.03,0,.01,0,.02,0,.03,0,0,0,.02-.01,.03,0,.02-.03,.07,.03,.07,.05,.06,.11,.12,.16,.18,.02,.03,.04,.07,.06,.09,.06,.06,.12,.12,.18,.18,.18,.18,.35,.37,.56,.51,.09,.06,.17,.13,.26,.19,.07,.05,.15,.09,.22,.14,.07,.05,.12,.11,.19,.17-.01,.01-.02,.02-.03,.03-.29,.19-.62,.25-.95,.28-.14,.01-.28-.03-.41-.07-.1-.03-.2-.06-.31-.09-.08-.02-.11,.01-.09,.09,.03,.11,.07,.23,.14,.32,0,.01,.03,.01,.04,.02,.02,.02,.04,.04,.06,.06,.02,.07,.08,.11,.15,.12,.03,.07,.05,.13,.08,.2-.03,0-.07,.01-.1,0-.27-.04-.45-.2-.57-.43-.03-.05-.05-.1-.08-.15,0,0-.02,0-.03,0-.02,.07-.03,.14-.05,.21Z"/>
      <path class="cls-10" d="M17.26,6.34c.1,.18,.13,.37,.1,.58-.02,.02-.05,.03-.06,.05-.07,.08-.15,.13-.25,.13-.1,0-.21,0-.31-.02-.3-.06-.55-.24-.77-.44-.18-.16-.36-.33-.53-.5-.17-.16-.36-.31-.56-.42-.14-.07-.28-.14-.45-.09-.02,0-.05,0-.07,0-.19-.1-.35-.27-.28-.53,.02-.08,.03-.17,.05-.26,.33-.36,.72-.65,1.16-.87,.02,.06,0,.12-.01,.18-.04,.27-.04,.55,.04,.82,.05,.19,.12,.37,.24,.54,.03,.05,.09,.08,.1,.13,.05,.13,.16,.21,.25,.3,.15,.15,.34,.26,.53,.37,.02,0,.04,0,.07,0,.05,.09,.1,.19,.14,.28,.06,.14,.16,.24,.31,.28,.09,.02,.19,.03,.26-.04,.08-.07,.09-.17,.06-.27-.02-.06-.05-.13-.07-.19,.02,0,.05-.01,.07-.02Z"/>
      <path class="cls-11" d="M7.27,13.45s.02,.04,.02,.06c0,.05,0,.1,0,.16,0,.1,.03,.18,.1,.24,.24,.24,.52,.41,.84,.52,.25,.08,.51,.17,.77,.21,.43,.07,.86,.04,1.26-.14,.17-.08,.33-.18,.47-.3,.15-.14,.24-.3,.23-.51,.14,.14,.2,.31,.21,.5,0,.39-.13,.73-.34,1.05-.02,0-.04,0-.06,.01-.14,.04-.27,.1-.41,.13-.12,.03-.24,.02-.36-.04,.05-.01,.11-.02,.16-.03,.1,.03,.17-.02,.25-.06,.02,0,.04-.03,.06-.05,0,0,0-.01,0-.02-.05,0-.1,0-.15,0-.11-.02-.22-.04-.33-.07,.12-.05,.24-.1,.36-.16,.02,0,.04-.02,.05-.03,.02-.02,.02-.04,.04-.06-.02,0-.05,0-.07,0-.14,.04-.27,.11-.41,.13-.7,.11-1.36,0-1.96-.38-.02-.02-.05-.03-.09-.03,.15,.25,.37,.39,.64,.48-.05,0-.1,.01-.14,0-.09-.01-.17-.03-.25-.06-.32-.1-.6-.25-.83-.5,0-.01-.03-.01-.04-.02-.13-.23-.2-.47-.15-.73,.02-.11,.07-.22,.14-.31Z"/>
      <path class="cls-12" d="M17.26,6.34s-.05,.01-.07,.02c-.27-.41-.8-.55-1.07-.55,.09,.12,.19,.24,.29,.37-.03,.03-.02,.04,.02,.05h0s.02,.02,.03,.03c0,.01,.01,.02,.02,.03-.02,0-.05,.02-.07,0-.19-.11-.38-.21-.53-.37-.09-.09-.2-.17-.25-.3-.02-.05-.07-.09-.1-.13-.11-.16-.19-.35-.24-.54-.07-.27-.08-.55-.04-.82,0-.06,.04-.12,.01-.18,.28-.14,.58-.24,.89-.29,0,.02-.01,.05-.02,.07-.05,.12-.11,.24-.16,.37,0,.02-.01,.04-.01,.06,0,.1-.06,.2-.02,.3,0,0,0,.02,0,.03-.04,.05-.02,.1,0,.15,0,.02,0,.05,.01,.07,.03,.09,.04,.19,.08,.27,.04,.09,.1,.18,.16,.26,.03,.05,.06,.09,.1,.13,.08,.07,.16,.13,.25,.18,.03,.02,.07,.03,.1,.04,.08,.03,.16,.07,.24,.11,.05,.02,.11,.04,.17,.06,.01,0,.03,0,.04,0,.06,0,.13-.02,.19,0,.1,.03,.19,0,.27-.03,.13-.05,.27-.07,.38-.17,.08,.12,.16,.22,.3,.28-.05,.08-.13,.13-.21,.17-.05,.02-.11,.02-.15,.08-.01,.02-.04,.02-.07,.02-.05,0-.11,0-.15,.02-.06,.03-.14,0-.17,.08-.02-.02-.05-.03-.07-.05-.08-.05-.16-.09-.24-.13-.1-.08-.19-.17-.3-.23-.06-.03-.12-.06-.18-.08-.13-.04-.27-.09-.41-.09-.09,0-.17-.01-.26-.01,.03,.05,.07,.05,.12,.06,.41,.06,.79,.19,1.04,.55,.02,.03,.04,.07,.06,.11Z"/>
      <path class="cls-8" d="M12.95,8.27s.09,.01,.13,.02c-.03,.03-.06,.06-.08,.09,0,.01,0,.04,0,.06-.04,.04-.07,.09-.11,.13-.03-.04-.07-.08-.11-.12-.07-.07-.14-.12-.21-.19-.18-.2-.31-.43-.42-.67-.04-.07-.06-.15-.09-.23,.06-.04,.14-.02,.14-.1,.06-.02,.11-.04,.17-.05,.09,0,.19,0,.28,0,.03,0,.05,0,.08-.01,0,0,0-.02,0-.02-.02-.01-.05-.03-.08-.05,.17-.26,.4-.47,.66-.65,.06,0,.06,.05,.06,.09,.01,.14,.01,.29,.09,.42,.04,.07,.09,.14,.12,.22,.04,.09,.11,.14,.17,.2,.04,.04,.09,.06,.1,.12-.02,.12-.04,.24-.06,.36-.15-.05-.3-.12-.46-.09,0,0,0,.02,0,.03,.02,0,.04,0,.06,.01,.38,.05,.65,.25,.84,.57,.04,.07,.06,.14,.04,.22-.11,.01-.22-.01-.31-.07-.16-.1-.31-.21-.47-.31-.12-.08-.26-.15-.4-.17-.08-.02-.17-.01-.23,.06-.02,.02-.04,.07-.04,.1,0,.02,.06,.02,.09,.04h0s.02,.04,.03,.06c0-.02,.02-.03,.02-.05Z"/>
      <path class="cls-13" d="M12.21,7.25c0,.08-.08,.06-.14,.1,.03,.07,.05,.15,.09,.23,.12,.24,.24,.48,.42,.67,.06,.07,.14,.13,.21,.19,.04,.04,.07,.08,.11,.12-.28,.4-.45,.84-.54,1.32-.03,.15-.03,.29-.04,.44-.02-.01-.04-.02-.05-.04-.16-.22-.23-.48-.29-.73-.01-.05,0-.09,.04-.13,.04-.04,.08-.08,.09-.18-.05,.03-.09,.05-.13,.07-.04,.03-.08,.06-.12,.08-.06,.03-.1,.01-.13-.05-.07-.14-.07-.28-.05-.43,0-.08,.05-.1,.11-.12,.03,0,.06-.02,.09-.03-.02-.02-.03-.03-.05-.04-.07-.02-.15-.03-.22-.05-.1-.02-.13-.06-.12-.16,0-.03,0-.06,.02-.09,.07-.16,.1-.34,.29-.41,.02,0,.04-.03,.06-.04,.02-.02,.02-.05,.04-.09-.05,0-.08,0-.12,0-.1,0-.17-.03-.22-.12,0-.01-.03-.02-.04-.03,.14-.2,.31-.35,.53-.45,.06-.02,.12-.03,.18-.05Z"/>
      <path class="cls-5" d="M11.3,14.62c.01-.09,.03-.18,.03-.28,0-.12-.02-.24-.03-.37,.03,.01,.07,.02,.09,.04,.11,.09,.24,.13,.39,.12,.16-.01,.34-.16,.38-.33-.1,.06-.18,.17-.31,.17-.13,0-.22-.07-.31-.13,.03-.07,.06-.13,.08-.19,.18-.19,.32-.39,.35-.65,.02-.13,0-.26,0-.39,.06,.03,.11,0,.16-.03,.04-.02,.07-.05,.11-.07-.05,.29,0,.55,.24,.75-.01,.09-.07-.01-.1,.02-.03,.08-.06,.16-.08,.24-.02,.07-.04,.15-.04,.22,0,.19,0,.38,.01,.57,.01,.12,.07,.24,.11,.35,.08,.2,.19,.39,.35,.54,.04,.04,.09,.09,.13,.13,.04,.04,.09,.07,.14,.1,.04,.02,.05,.04,.05,.08h-.54s-.05-.02-.08-.03c-.31-.1-.59-.25-.82-.49-.1-.1-.18-.23-.27-.35-.01-.02-.03-.03-.04-.04Z"/>
      <path class="cls-18" d="M17.18,9.36c0,.46-.19,.82-.56,1.09,0-.16-.08-.28-.2-.36-.2-.15-.45-.19-.69-.19-.2,0-.39,0-.59,.01,0-.03,0-.06-.02-.09-.09-.14-.16-.3-.2-.46-.03-.12-.04-.25-.06-.37,.11-.14,.22-.28,.33-.42,.16-.18,.35-.33,.59-.4,.21-.07,.43-.05,.63,.02-.01,.03-.03,.07-.04,.1-.03,0-.05-.02-.08-.02-.22-.06-.45-.07-.66,.05-.03,.02-.05,.04-.08,.06,0,0,0,.02,0,.02,.11,0,.21-.01,.32-.02,0,.03,0,.06,0,.09-.07,.15-.14,.31-.12,.48,.02,.15,.07,.3,.16,.41,.11,.13,.24,.24,.41,.28,.08,.02,.16,.04,.25,.04,.09,0,.17-.03,.26-.04-.04,.16-.07,.32-.11,.48,.05-.03,.09-.07,.13-.11,.14-.18,.18-.4,.18-.62,.05-.02,.1-.03,.15-.05Z"/>
      <path class="cls-8" d="M13.06,15.53s-.01-.06-.05-.08c-.05-.02-.09-.06-.14-.1-.05-.04-.09-.09-.13-.13-.16-.16-.27-.34-.35-.54-.05-.11-.1-.23-.11-.35-.02-.19-.01-.38-.01-.57,0-.08,.02-.15,.04-.22,.02-.08,.05-.16,.08-.24,.03-.03,.09,.07,.1-.02,.07,.06,.14,.11,.24,.13,.07,.01,.14,.03,.21,.05,.03,.02,.06,.03,.08,.04-.02,.08-.05,.16-.08,.24-.02,.07-.04,.14-.06,.21-.05-.06-.11-.11-.16-.17-.05-.05-.09-.11-.14-.17-.03-.03-.07-.03-.1,.02-.04,.08-.04,.17,0,.24,.07,.12,.14,.23,.22,.34,.03,.04,.08,.05,.12,.08,.15,.14,.32,.22,.53,.19,0,.02-.01,.05-.01,.07,0,.03,0,.07,.01,.09,.1,.08,.19,.16,.3,.21,.18,.09,.37,.11,.57,.08,.02,0,.04,.02,.06,.03,0,.02-.01,.04-.02,.06-.06,.08-.12,.16-.17,.24-.03,.04-.03,.09-.05,.13-.26,.04-.53,.08-.79,.12-.02-.07-.07-.07-.13-.06,0,.03,0,.05,0,.07-.02,0-.03,0-.05,0Z"/>
      <path class="cls-11" d="M17.76,18.41c.1-.06,.21-.11,.31-.18,.1-.07,.18-.16,.28-.24,0,.04,0,.07,0,.11-.05,.15-.12,.28-.22,.4-.17,.19-.37,.32-.61,.4,0,0-.01,.01-.02,.02-.32,.05-.64,.08-.96,.06-.68-.04-1.36-.12-2.03-.23-.13-.02-.26-.04-.39-.06,.06-.06,.13-.11,.18-.17,.04-.05,.06-.12,.09-.18,.05-.04,.08-.1,.09-.16-.06,.04-.11,.09-.16,.13-.19,.14-.42,.18-.65,.19-.13,0-.26-.02-.39-.03,.02-.03,.04-.07,.06-.1,.23,0,.46,0,.69-.08,.18-.06,.34-.17,.48-.29,.04-.04,.09-.08,.13-.11,.02-.02,.05-.02,.08-.03,0,.03,.01,.06,0,.08-.04,.12-.11,.23-.2,.32-.03,.02-.06,.04-.08,.08,.29,.09,.58,.16,.87,.19,.17,.03,.35,.05,.52,.08,.05,0,.11,.01,.16,.02,.19,0,.38,0,.57,.01,.06,0,.13,0,.19,0,.2-.02,.41-.03,.6-.1,.11-.03,.22-.07,.33-.1,.02,0,.04-.01,.07-.02Z"/>
      <path class="cls-15" d="M17.68,4.51c-.07-.02-.13-.04-.2-.05-.28-.07-.57-.08-.83,.07-.05,.02-.09,.05-.13,.08-.01,0-.02,.03-.03,.05,.02,0,.04,.02,.06,.01,.14-.06,.29-.11,.44-.12,.29-.03,.56,.04,.81,.17-.01,.03-.02,.06-.03,.09-.11-.04-.22-.07-.33-.11-.07-.02-.13-.04-.2-.06,.04,.06,.08,.11,.13,.15,.15,.14,.3,.29,.42,.46-.01,0-.03,0-.04,.01-.25,.16-.52,.2-.8,.09-.31-.12-.53-.34-.61-.68-.02-.09-.04-.18-.03-.27,.02-.13,.04-.26,.12-.38,.04-.06,.08-.13,.12-.19,.07,.03,.14,.05,.21,.08,.17,.06,.33,.14,.46,.27,.14,.15,.34,.18,.53,.1,.15-.06,.18-.2,.07-.31-.09-.1-.21-.15-.34-.19-.23-.06-.47-.07-.72-.07v-.1c.44,0,.85,.09,1.2,.36,.03,.02,.06,.05,.08,.08,0,.03-.01,.05-.02,.08-.04,.13-.09,.25-.21,.32-.04,.02-.09,.04-.13,.06Z"/>
      <path class="cls-13" d="M6.23,13.62s0-.04,.01-.05c.18-.17,.36-.34,.53-.51,.01,0,.02,0,.03,0,.19-.05,.34,.02,.48,.13-.15,.14-.28,.3-.32,.51-.02,.09-.04,.19-.04,.29,0,.14,.03,.28,.09,.41,.01,.03,.03,.06,.04,.1-.06,.02-.03,.06-.02,.09,.02,.04,.03,.07,.06,.11,.07,.1,.14,.19,.22,.29,.06,.07,.11,.16,.2,.2,0,0,0,.01,.01,.02,.07,.1,.15,.19,.27,.22-.04,.07-.09,.13-.13,.2-.01-.02-.02-.05-.04-.06-.06-.04-.13-.08-.19-.12-.08-.05-.17-.1-.25-.17-.12-.09-.23-.18-.34-.28-.16-.15-.33-.29-.47-.45-.13-.14-.23-.29-.35-.44-.01-.01-.02-.04-.01-.06,.07-.11,.13-.22,.2-.32,.02-.03,.06-.06,.01-.1Z"/>
      <path class="cls-29" d="M9.12,8.44c-.01-.27-.12-.53-.17-.79-.02-.09-.01-.19,0-.28,.03-.15,.14-.23,.29-.2,.11,.02,.21,.05,.31,.1,.41,.19,.71,.5,.93,.89-.03-.02-.05,0-.07,.02-.06,.07-.11,.15-.2,.18-.03,0-.05,.04-.07,.06-.05,.05-.1,.07-.17,.07-.04,0-.07,.02-.11,.03-.03,0-.06,.02-.08,.02-.13,0-.26,0-.39,0-.02,0-.04,0-.05-.01-.05-.05-.14-.02-.17-.09,0,0-.03,0-.04,.01Z"/>
      <path class="cls-7" d="M14.12,4.82c-.02,.09-.03,.17-.05,.26-.07,.26,.09,.43,.28,.53,.02,.01,.05,.01,.07,0,.17-.05,.31,.02,.45,.09,.21,.11,.39,.26,.56,.42,.18,.17,.35,.34,.53,.5,.23,.2,.47,.38,.77,.44,.1,.02,.21,.03,.31,.02,.1,0,.18-.05,.25-.13,.02-.02,.04-.03,.06-.05-.01,.14-.05,.26-.14,.37-.02,0-.04,0-.06,.02-.25,.16-.5,.15-.76,.03-.29-.13-.5-.36-.7-.61-.16-.2-.31-.4-.5-.57-.02-.02-.05-.03-.08-.04-.1-.08-.19-.18-.29-.24-.09-.05-.19-.08-.29-.11-.01,0-.03,0-.05,.02,0,.01,.02,.03,.02,.04-.01,0-.02,.01-.04,.01-.15,.02-.3,.04-.45,.05-.19,0-.39,.04-.52-.14,0,0,0,0,0,0,.04-.09,.07-.18,.12-.26,.14-.24,.31-.46,.5-.65Z"/>
      <path class="cls-24" d="M18.47,18.88c.07-.08,.09-.18,.14-.28,.04-.09,.02-.2,.1-.27,.01-.01,0-.05,0-.07,.01-.05,.03-.09,.05-.14,.04-.13,.07-.26,.1-.39,.07,.05,.15,.1,.21,.16,.15,.13,.28,.28,.4,.45,.07,.1,.14,.21,.2,.32,.05,.1,.07,.2,.11,.31,0,.02-.02,.04-.03,.06-.05,.33-.33,.47-.62,.38-.15-.05-.26-.15-.38-.23-.02-.02-.05-.02-.08-.03-.07-.08-.13-.16-.2-.25Z"/>
      <path class="cls-5" d="M6.23,13.62s0,.06-.01,.1c-.07,.11-.14,.21-.2,.32,0,.01,0,.04,.01,.06,.11,.15,.22,.31,.35,.44,.15,.16,.31,.3,.47,.45,.11,.1,.22,.19,.34,.28,.08,.06,.17,.11,.25,.17,.06,.04,.13,.08,.19,.12,.02,.01,.03,.04,.04,.06-.03,.05-.06,.11-.1,.15-.08,.1-.18,.18-.29,.24-.06-.06-.12-.12-.19-.17-.07-.05-.15-.09-.22-.14-.09-.06-.17-.13-.26-.19-.21-.15-.38-.34-.56-.51-.06-.06-.12-.12-.18-.18-.02-.03-.04-.06-.06-.09-.05-.06-.1-.12-.16-.18,.02-.02,.04-.04,.05-.06,.12-.26,.24-.51,.41-.75,.03-.04,.07-.08,.11-.12Z"/>
      <path class="cls-28" d="M16.76,3.61v.1c-.14,0-.28,.01-.43,.02,.08,.04,.15,.07,.22,.1-.04,.06-.08,.13-.12,.19-.07,.12-.1,.25-.12,.38-.01,.09,0,.18,.03,.27,.08,.34,.3,.56,.61,.68,.27,.11,.55,.07,.8-.09,.01,0,.02,0,.04-.01,.08,.1,.15,.2,.17,.33-.11,.1-.25,.12-.38,.17-.08,.03-.17,.06-.27,.03-.06-.01-.12,0-.19,0-.01,0-.03,0-.04,0-.06-.02-.11-.03-.17-.06-.08-.03-.16-.07-.24-.11-.03-.01-.07-.02-.1-.04-.09-.06-.17-.12-.25-.18-.04-.03-.07-.08-.1-.13-.06-.09-.12-.17-.16-.26-.04-.08-.06-.18-.08-.27,0-.02,0-.05-.01-.07-.02-.05-.04-.1,0-.15,0,0,0-.02,0-.03-.04-.1,.02-.2,.02-.3,0-.02,0-.04,.01-.06,.05-.12,.11-.24,.16-.37,.01-.02,.02-.05,.02-.07,.2-.04,.39-.07,.6-.06Z"/>
      <path class="cls-11" d="M7.27,16.01c.12-.06,.21-.14,.29-.24,.04-.05,.07-.1,.1-.15,.04-.07,.09-.13,.13-.2v-.02c.13,.08,.24,.15,.35,.23-.02,.07-.03,.14-.05,.2-.14,.3-.35,.54-.64,.7-.03,.02-.05,.04-.08,.07-.46,.07-.92,.07-1.38-.04-.08-.02-.17-.03-.26-.04-.04,0-.07,.02-.07,.06-.01,0-.03,0-.04-.02-.08-.09-.12-.2-.14-.32-.02-.07,.02-.1,.09-.09,.1,.03,.2,.06,.31,.09,.13,.04,.27,.08,.41,.07,.34-.03,.66-.09,.95-.28,.01,0,.02-.02,.03-.03Z"/>
      <path class="cls-23" d="M13.86,7.52c0-.06-.07-.08-.1-.12-.06-.06-.14-.11-.17-.2-.03-.08-.08-.15-.12-.22-.08-.13-.07-.28-.09-.42,0-.05,0-.09-.06-.09,.38-.28,.81-.43,1.29-.41,.03,0,.05,0,.08,.01,.01,.02,.03,.05,.04,.07,.04,.05,.08,.1,.12,.14-.01,.02-.02,.04-.03,.06-.32,.06-.57,.25-.77,.49-.04,.05-.07,.11-.11,.16,0,.01,0,.03-.01,.05,0,0,.01,0,.02,.01,.02-.02,.04-.04,.06-.06,.1-.1,.19-.21,.29-.3,.15-.14,.33-.23,.53-.24,.08,.07,.07,.15,.02,.23,0,0,0,0,0,0-.35,.07-.62,.26-.83,.55-.06,.09-.1,.19-.16,.29Z"/>
      <path class="cls-11" d="M5.95,12.43c.2-.23,.39-.47,.6-.69,.16-.17,.35-.32,.53-.49,.02,.01,.04,.03,.07,.04,.18,.03,.32,.12,.44,.25,.02,.03,.06,.05,.09,.07-.21,.19-.38,.41-.47,.68,0,.02-.02,.05-.02,.07,0,.11-.06,.18-.15,.24-.07,.05-.14,.12-.21,.17-.05-.1-.1-.2-.2-.26-.19-.12-.39-.14-.6-.09-.03,0-.05,0-.08,0Z"/>
      <path class="cls-13" d="M9.12,8.44s.04-.01,.04-.01c.04,.07,.12,.05,.17,.09,.01,.01,.04,.01,.05,.01,.13,0,.26,0,.39,0,.03,0,.06-.01,.08-.02,.04,0,.07-.03,.11-.03,.07,0,.12-.03,.17-.07,.02-.02,.04-.05,.07-.06,.1-.03,.14-.11,.2-.18,.02-.03,.04-.04,.07-.02,.18,.34,.3,.7,.3,1.09-.08,0-.15,.02-.23,.02-.17,0-.35,.02-.52,0-.34-.05-.62-.21-.86-.45-.02-.02-.05-.03-.07-.05,0-.04,0-.08,0-.11,.03-.02,.03-.04,0-.07,0-.04,0-.08,0-.13Z"/>
      <path class="cls-11" d="M10.08,18.88c.07,.09,.13,.19,.21,.26,.12,.11,.28,.13,.44,.13,.52,.02,.99-.12,1.44-.38,.31-.17,.59-.39,.86-.62,.19-.16,.37-.32,.55-.49,.05,.02,.05,.06,.03,.09-.06,.11-.13,.22-.19,.32-.03-.04-.06-.03-.09,0-.1,.12-.21,.23-.3,.35-.28,.34-.63,.61-1.02,.82-.04,.01-.07,.02-.11,.03-.23,.1-.46,.16-.71,.16-.28,0-.54-.04-.81-.12-.22-.07-.41-.18-.48-.43,.06-.05,.11-.1,.17-.15Z"/>
      <path class="cls-22" d="M7.37,16.6s.05-.05,.08-.07c.29-.16,.51-.4,.64-.7,.03-.06,.04-.14,.05-.2,.08,.02,.16,.04,.25,.05,.03,0,.06-.02,.09-.03,0,0,0-.02,0-.03-.04-.02-.08-.05-.12-.07-.44-.23-.76-.59-1.05-.98-.02-.02-.03-.05-.04-.08,.01,0,.03,.01,.04,.02,.22,.25,.51,.41,.83,.5,.08,.03,.17,.04,.25,.06,.05,0,.1,0,.14,0,.07,.02,.14,.04,.21,.06-.09,.12-.12,.25-.07,.38,.04,.13,.13,.23,.23,.32-.12,.2-.29,.34-.48,.45-.32,.18-.67,.27-1.03,.32,0,0-.02,0-.02,0Z"/>
      <path class="cls-24" d="M18.93,17.59c-.04-.06-.03-.11-.02-.18,.03-.15,.04-.31,.06-.47,0-.01,0-.03-.01-.04-.06-.08-.07-.17-.03-.27,.02,.04,.03,.08,.05,.13,.01,.03,.02,.07,.03,.1,0,.01,.02,.03,.03,.04,0-.02,.03-.03,.03-.05,0-.11-.02-.22-.04-.33-.01-.08-.04-.16-.06-.26,.02,.01,.03,.02,.04,.03,.36,.37,.69,.76,.92,1.23,.08,.17,.15,.35,.17,.54-.07,0-.14,0-.2-.01-.17-.03-.33-.11-.47-.21-.16-.11-.31-.23-.51-.26Z"/>
      <path class="cls-22" d="M14.84,10.45c.18-.07,.36-.17,.56-.19,.17-.01,.35-.05,.52-.06,.08,0,.15,0,.23,.02,.2,.04,.28,.22,.2,.4,.06,.06,.09,.05,.34-.03-.03,.14-.08,.26-.18,.34-.06,.05-.12,.04-.18,0-.04-.02-.07-.06-.1-.08-.04-.04-.08-.03-.1,.02-.02,.05-.03,.11-.06,.16-.06,.1-.11,.2-.18,.28-.1,.12-.22,.08-.27-.06-.01-.03-.01-.07-.03-.09-.01-.02-.03-.04-.05-.07-.02,.02-.06,.03-.07,.06-.04,.07-.06,.15-.1,.22-.04,.06-.09,.12-.15,.17-.07,.06-.14,.04-.18-.04-.03-.07-.05-.15-.07-.22-.01-.04-.02-.07-.04-.11-.06,.09-.11,.19-.25,.18,.01-.04,.03-.08,.04-.12,.08-.07,.16-.13,.24-.19,.05,.08,.08,.15,.13,.22,.07,.1,.15,.1,.24,.02,.02-.02,.04-.03,.05-.06,.05-.07,.09-.15,.13-.22,.02-.03,.05-.05,.08-.08,.06,.12,.12,.23,.24,.28,0-.02,0-.03,0-.04,0-.27-.14-.45-.37-.58-.17-.09-.35-.11-.53-.11-.04,0-.07-.01-.11-.02Z"/>
      <path class="cls-13" d="M5.95,12.43s.05,0,.08,0c.21-.05,.42-.02,.6,.09,.1,.06,.15,.16,.2,.26-.15,.14-.31,.28-.46,.42-.08,.08-.15,.16-.23,.24-.04-.05-.06-.01-.08,.02-.03,.05-.05,.1-.09,.14-.04,.06-.09,.11-.13,.16,0,.01-.02,.02-.03,.03-.11-.19-.21-.37-.32-.56-.03-.05-.03-.1,0-.15,.05-.07,.11-.13,.16-.19,.04-.05,.08-.1,.11-.15,.01-.02,0-.06,0-.09,.06-.08,.12-.16,.18-.23Z"/>
      <path class="cls-11" d="M8.28,18.12c.26,.24,.56,.37,.9,.4,.48,.04,.9-.1,1.3-.35,.25-.16,.49-.33,.74-.49,.13-.09,.28-.16,.39-.29,0,0,.01,0,.04-.01-.01,.06-.03,.12-.04,.17-.03,0-.06,0-.08,.02-.06,.04-.12,.08-.17,.14-.05,.05-.11,.11-.15,.18-.15,.23-.36,.4-.61,.51-.12,.05-.23,.11-.35,.17-.19,.1-.37,.21-.51,.37-.14,0-.29,.01-.43-.02-.41-.09-.77-.26-1.03-.59-.04-.05-.07-.11-.11-.17,.04-.01,.08-.02,.12-.03Z"/>
      <path class="cls-23" d="M14.29,14.96s-.04-.03-.06-.03c-.2,.04-.39,0-.57-.08-.11-.05-.2-.14-.3-.21-.02-.01-.01-.06-.01-.09,0-.02,0-.05,.01-.07,.03,0,.06-.01,.09-.02,.24-.08,.5-.31,.44-.66,.06-.07,.01-.14-.02-.2v-.03c.07-.02,.14-.03,.21-.05,0,.18,.08,.3,.23,.39,.07,.07,.14,.14,.2,.21,0,.03,0,.07,0,.1,.01,.18-.01,.34-.08,.5-.04,.08-.09,.16-.13,.23Z"/>
      <path class="cls-11" d="M11.13,12.96c.16-.24,.26-.49,.25-.78,0-.07-.03-.14-.05-.21,0-.03-.01-.06-.02-.1,.32,.27,.55,.58,.51,1.02-.02,.28-.16,.52-.37,.7-.08,.07-.17,.11-.27,.12-.13-.2-.32-.34-.52-.47,.19-.03,.36-.12,.47-.28Z"/>
      <path class="cls-11" d="M14.84,10.45s.07,.02,.11,.02c.19,0,.37,.01,.53,.11,.23,.13,.36,.31,.37,.58,0,.01,0,.02,0,.04-.13-.05-.18-.16-.24-.28-.03,.03-.06,.05-.08,.08-.05,.07-.09,.14-.13,.22-.01,.02-.03,.04-.05,.06-.09,.08-.17,.08-.24-.02-.05-.06-.08-.14-.13-.22-.07,.06-.15,.13-.24,.19,.01-.07,.03-.13,.04-.2,0-.07-.03-.1-.09-.07-.07,.03-.14,.07-.2,.1-.08,.04-.15,.08-.23,.12,0-.08,0-.17,.02-.25,0-.06,.03-.12,.05-.17,.16-.14,.34-.24,.54-.3Z"/>
      <path class="cls-29" d="M14.4,7c.15-.11,.31-.17,.49-.17,.13,0,.25,.05,.35,.15,.14,.14,.22,.31,.26,.5-.03,.03-.06,.06-.08,.08-.05,.06-.1,.13-.16,.18-.11,.09-.25,.1-.39,.09-.05,0-.1,0-.14,0-.08-.04-.1-.1-.07-.2,0-.02,0-.06-.01-.07-.02-.02-.06-.02-.09-.02-.03,0-.05,.03-.07,.05,0-.01,0-.02,0-.03-.09-.12-.11-.25-.08-.39,.01-.06,.01-.11,.02-.17Z"/>
      <path class="cls-20" d="M14.86,8.98c.02,.12,.03,.25,.06,.37,.04,.17,.11,.32,.2,.46,.01,.02,.01,.06,.02,.09-.16-.02-.32-.02-.48-.05-.34-.06-.53-.27-.59-.6-.01-.05,0-.09,.05-.13,.05-.04,.07-.1,.11-.15,.06-.08,.11-.16,.18-.25,.16,.06,.35,.05,.54,0h0c-.03,.06-.06,.12-.09,.18-.01,.03-.04,.05,0,.07Z"/>
      <path class="cls-22" d="M10.01,15.33c.11,.06,.24,.06,.36,.04,.14-.03,.27-.08,.41-.13,.02,0,.04,0,.06-.01-.1,.18-.24,.3-.43,.36-.28,.1-.58,.16-.88,.18-.13,0-.27-.02-.41-.05-.13-.03-.21-.13-.26-.25-.03-.08-.02-.15,.04-.22,.05-.07,.11-.08,.19-.07,.19,.01,.37,0,.56,0,.04,0,.07,0,.1,.04,.06,.09,.17,.11,.27,.13Z"/>
      <path class="cls-11" d="M8.5,17.41c.28,.05,.55,0,.82-.08,.34-.09,.65-.23,.94-.42,.1-.06,.18-.14,.27-.21,.02-.02,.05-.04,.07-.05,.02-.01,.05-.01,.07-.01,0,.03,0,.06,0,.08-.03,.06-.06,.11-.1,.16-.08,.11-.17,.21-.26,.32-.02,.02-.05,.02-.07,.03,.05-.06,.1-.12,.14-.18,.01-.02,0-.04,.01-.06-.02,0-.05,0-.07,.01-.11,.08-.22,.17-.33,.24-.26,.17-.52,.33-.79,.49-.15,.09-.32,.15-.5,.15-.03-.02-.05-.04-.08-.05-.12-.04-.22-.12-.31-.21-.02-.03-.05-.05-.07-.08,.08-.04,.16-.09,.24-.13Z"/>
      <path class="cls-11" d="M11.48,11.79c.16-.11,.22-.27,.23-.45,.03-.27-.03-.53-.13-.77-.01-.02-.01-.05-.02-.08,.23,.16,.4,.37,.49,.63,.12,.34,.13,.68-.01,1.01-.03,.08-.08,.15-.13,.22-.1-.22-.26-.4-.43-.57Z"/>
      <path class="cls-11" d="M11.49,7.75s.03,.02,.04,.03c.05,.09,.12,.12,.22,.12,.03,0,.06,0,.12,0-.02,.04-.03,.07-.04,.09-.01,.02-.04,.04-.06,.04-.19,.07-.22,.25-.29,.41-.01,.03-.02,.06-.02,.09,0,.1,.02,.14,.12,.16,.07,.02,.15,.03,.22,.05,.02,0,.03,.01,.05,.04-.03,.01-.06,.02-.09,.03-.06,.02-.1,.04-.11,.12-.02,.15-.01,.29,.05,.43,.03,.06,.07,.08,.13,.05,.04-.02,.08-.05,.12-.08,.04-.02,.07-.04,.13-.07,0,.09-.04,.14-.09,.18-.04,.04-.05,.08-.04,.13,.06,.26,.14,.51,.29,.73,.01,.02,.03,.02,.05,.04,0,.08,0,.16,.01,.26-.06-.07-.1-.14-.15-.2-.02-.02-.04-.03-.07-.04-.01,0-.03-.01-.04-.02-.07-.12-.14-.23-.21-.35,0-.01,0-.04,0-.06,.05,0,.03-.04,.02-.07-.03-.07-.07-.13-.1-.2-.02-.03-.03-.06-.04-.1,.02-.04,.05-.07,.07-.1,0,0,0-.01-.01-.02-.03,.01-.06,.02-.09,.03-.11,.04-.16,.02-.2-.09-.05-.16-.05-.32,.03-.48,.05-.09,.03-.12-.07-.12-.21,0-.28-.12-.18-.3,.07-.12,.16-.22,.25-.33,.06-.08,.06-.1-.02-.14-.07-.03-.1-.08-.07-.15,.02-.04,.05-.08,.07-.13Z"/>
      <path class="cls-27" d="M13.06,9.84c.13,0,.21,.08,.28,.18,.12,.18,.16,.38,.15,.59,0,.11-.03,.22-.04,.33,0,.02,0,.05-.01,.07,0,0,0,0,.01,0,.02-.01,.03-.02,.05-.03,.1-.03,.13-.12,.15-.2,.02-.09,.02-.19,.04-.28,0-.04,.03-.08,.05-.11,.16,.13,.22,.31,.22,.51-.02,.04-.05,.08-.07,.12-.04,.06-.11,.1-.18,.11-.36,.05-.76-.31-.67-.71,.02-.09,.05-.18,.07-.28,0-.02,.02-.05,.01-.07,0-.04-.02-.04-.05-.01-.03,0-.05,.01-.08,.02,0-.03,0-.06,.02-.09,.02-.05,.04-.11,.07-.16Zm.27,1.01s.03-.06,.04-.09c.01-.06,.02-.11,.02-.17,0-.05,0-.11-.02-.16,0-.03-.05-.06-.07-.06-.04,0-.05,.05-.04,.09,0,.05,0,.11,0,.16,0,.08-.02,.16,.08,.22Zm.38,.11c.08-.06,.1-.11,.07-.22-.02,.07-.05,.13-.07,.22Z"/>
      <path class="cls-11" d="M9.1,8.75s.05,.03,.07,.05c.24,.24,.53,.4,.86,.45,.17,.03,.35,.01,.52,0,.08,0,.15-.01,.23-.02,0,.08,0,.16,0,.25-.01,0-.02,0-.03,0-.21,.11-.44,.1-.67,.06-.36-.05-.7-.15-.99-.38-.02-.02-.05-.02-.08-.03,.03-.13,.06-.26,.09-.4Z"/>
      <path class="cls-22" d="M9.01,9.15s.06,.02,.08,.03c.29,.23,.63,.33,.99,.38,.23,.03,.45,.04,.67-.06,0,0,.02,0,.03,0-.02,.13-.04,.25-.06,.39-.66-.16-1.3-.29-1.96-.08,.08-.22,.17-.43,.25-.65Z"/>
      <path class="cls-7" d="M17.19,6.03c.08,.04,.16,.09,.24,.13,.03,.01,.05,.03,.07,.05,.05,.03,.1,.07,.15,.1,.18,.11,.38,.17,.59,.13,.24-.05,.4-.18,.48-.41,.03-.09,.05-.18,.07-.27,.05,.13,.04,.26,.03,.39,0,.07-.04,.15-.06,.22,0,0-.02,0-.03,.01-.19,.24-.44,.37-.72,.45-.17,.05-.33,.05-.46-.09,0,0-.02-.01-.04-.01-.02-.08-.03-.16-.05-.24-.04-.18-.15-.33-.26-.47Z"/>
      <path class="cls-10" d="M18.78,5.77c-.02,.09-.04,.18-.07,.27-.07,.23-.24,.36-.48,.41-.22,.05-.41-.02-.59-.13-.05-.03-.1-.07-.15-.1,.03-.08,.11-.05,.17-.08,.04-.02,.1-.01,.15-.02,.02,0,.06,0,.07-.02,.04-.05,.1-.05,.15-.08,.08-.04,.16-.09,.21-.17,.05,0,.1,.02,.15,.01,.19-.02,.24-.17,.21-.32-.03-.14-.11-.24-.19-.35,0-.01,.01-.02,.02-.04,.01,0,.02,0,.03,.01,.16,.17,.3,.36,.33,.6Z"/>
      <path class="cls-7" d="M13.46,12.45s0,.08,.02,.12c.05,.16,.06,.32-.02,.47-.02,0-.04,0-.05,.01-.1,.08-.21,.13-.34,.15-.15,.02-.29-.02-.4-.12-.15-.13-.2-.31-.21-.5,0-.09,.02-.18,.03-.27,.04-.06,.07-.14,.12-.19,.1-.11,.2-.2,.31-.3,.06-.02,.11-.04,.17-.07,.06,.03,.12,.06,.18,.09-.05,.03-.12,.05-.16,.08-.17,.15-.33,.32-.39,.55-.05,.17,0,.34,.14,.43,.06,.04,.13,.06,.2,.09,.04,0,.09,0,.13-.02,.14-.03,.22-.12,.22-.26,0-.1-.01-.19-.02-.3,.03,.01,.06,.02,.09,.03Z"/>
      <path class="cls-5" d="M5.77,12.66s.01,.07,0,.09c-.03,.05-.07,.1-.11,.15-.05,.06-.11,.12-.16,.19-.03,.04-.03,.1,0,.15,.11,.18,.21,.37,.32,.56,.01,0,.02-.02,.03-.03,.05-.05,.09-.1,.13-.16,.03-.05,.06-.1,.09-.14,.02-.03,.04-.07,.08-.02-.1,.14-.19,.29-.29,.43-.01,.02-.04,.03-.06,.05-.06,.04-.1,.09-.13,.15,0,0,0,0,.01,.01,.02,0,.04-.01,.07-.02,0,0,0,0,0,.01-.03,.11-.07,.22-.1,.33-.03-.01-.07-.01-.08-.03-.06-.08-.1-.16-.16-.24-.05-.08-.11-.16-.16-.24-.03-.05-.05-.11-.08-.17-.01-.03-.02-.06-.06-.07,.07-.18,.16-.36,.28-.51,.13-.16,.25-.33,.38-.49Z"/>
      <path class="cls-5" d="M15.39,8.24c-.05,.04-.11,.08-.15,.13-.04,.04-.08,.08-.11,.13-.07,.08-.17,.13-.28,.15-.14,.02-.27,.02-.4-.03-.02,0-.05-.03-.06-.05-.04-.23-.17-.4-.35-.53-.08-.06-.11-.12-.1-.21,.01-.08,.03-.16,.04-.24,.03,0,.05,0,.07,.04,.02,.05,.04,.1,.07,.14,.09,.1,.19,.18,.28,.28,.06,0,.08,.04,.07,.1,0,.06,.02,.09,.08,.07,.02,0,.03-.01,.04-.02,.06,0,.12,.02,.19,.03,.2,.03,.38-.01,.57-.08,.03-.01,.07-.02,.11-.03-.01,.03-.03,.07-.04,.1,0,.01-.01,.02-.02,.03Z"/>
      <path class="cls-11" d="M14.29,14.96c.04-.08,.09-.15,.13-.23,.07-.16,.1-.33,.08-.5,0-.03,0-.07,0-.1,.03,.02,.05,.04,.08,.06,.01,.03,.02,.07,.04,.09,.04,.05,.1,.09,.14,.13,.02,.02,.05,.04,.06,.07,.06,.19,.08,.39,.03,.59-.02,.08-.05,.15-.07,.22-.18,.03-.36,.05-.54,.08-.07,.01-.13,.02-.2,.03,.02-.05,.03-.09,.05-.13,.05-.08,.12-.16,.17-.24,.01-.02,.02-.04,.02-.06Z"/>
      <path class="cls-22" d="M11.84,9.93s0,.04,0,.06c.07,.12,.14,.23,.21,.35,0,.01,.03,.02,.04,.02-.02,.09,.02,.15,.07,.22,.04,.07,.09,.13,.14,.2-.03,0-.06-.01-.08-.03-.15-.09-.28-.21-.38-.35-.05-.07-.11-.15-.17-.22-.06-.06-.12-.12-.18-.18-.15-.16-.3-.3-.55-.26,.01-.14,.02-.28,.03-.44h.36c.04,.15,.08,.32,.3,.31,.07,.11,.14,.22,.21,.32Z"/>
      <path class="cls-30" d="M14.23,8.98s-.06,.11-.11,.15c-.05,.04-.06,.08-.05,.13,.07,.33,.26,.53,.59,.6,.16,.03,.32,.03,.48,.05,.2,0,.39-.02,.59-.01,.24,0,.49,.05,.69,.19,.12,.09,.21,.2,.2,.36-.03,.02-.07,.05-.11,.08,0-.13-.04-.22-.11-.3-.11-.11-.25-.15-.4-.16-.01,0-.02,0-.03,0-.02,0-.03,0-.05,0-.02-.01-.04-.03-.06-.03-.11,0-.23,.01-.34,.01-.18,0-.37,.02-.55,.02-.26,0-.51-.06-.72-.23-.19-.16-.31-.36-.31-.62,0-.07,.01-.13,.1-.15,.01,0,.03-.03,.04-.04,.05-.02,.11-.03,.16-.05Z"/>
      <path class="cls-29" d="M8.92,9.94c0,.09-.06,.15-.08,.23-.05,.14-.11,.27-.15,.41-.05,.18-.03,.37-.04,.56-.05,0-.1,0-.14-.02-.15-.03-.29-.09-.34-.25-.03-.09-.04-.18-.06-.27,.17-.35,.44-.56,.82-.66Z"/>
      <path class="cls-10" d="M13.05,12.99c-.07-.03-.14-.05-.2-.09-.14-.09-.18-.26-.14-.43,.06-.23,.22-.4,.39-.55,.04-.04,.11-.06,.16-.08,.14,.03,.29,.08,.43,.09,.13,.01,.23,.03,.27,.18,0,.03,.05,.06,.07,.08-.02,0-.05,0-.07,0-.02,0-.03,0-.05,.01-.08-.05-.16-.13-.27-.17,.02,.07,.04,.13,.05,.19-.14,0-.27,.03-.38,.12-.02,.02-.05,.02-.08,.03v-.22c-.13,.06-.28,.24-.29,.36-.02,.12,0,.23,.11,.3,0,.06-.01,.11-.02,.17Z"/>
      <path class="cls-8" d="M14.15,13.49s.09-.07,.14-.11c.15-.14,.22-.3,.21-.51,0-.03,0-.06,0-.1,.05,.07,.09,.14,.14,.2,.1,.13,.2,.25,.3,.37,.09,.11,.16,.23,.2,.36-.02,.01-.04,.02-.06,.04-.06,.06-.13,.08-.21,.08-.13,0-.24-.05-.35-.09-.14-.06-.25-.16-.37-.26Z"/>
      <path class="cls-20" d="M13.22,8.79c-.1,.21-.22,.41-.31,.62-.14,.31-.23,.64-.24,.98-.08-.22-.06-.44,0-.66-.11,.18-.16,.38-.13,.6,.02,.13,.06,.25,.09,.38-.02-.03-.05-.06-.07-.1-.04-.09-.08-.19-.12-.28-.01-.22,.02-.44,.08-.65,.08-.24,.17-.48,.26-.72,.01-.03,.03-.06,.05-.08,.02,0,.03,0,.05-.02,.1-.07,.22-.1,.34-.08Z"/>
      <path class="cls-29" d="M13.85,13.57v.03s-.07,.02-.1,.05c-.04,.04-.08,.1-.12,.15-.05,.07-.1,.14-.16,.19-.04,.04-.1,.07-.16,.08-.16,.02-.3-.02-.43-.11,.02-.07,.04-.14,.06-.21,.02-.08,.05-.16,.08-.24-.02-.01-.05-.03-.08-.04,.13,0,.26,0,.38-.06,.15,.16,.35,.16,.55,.17Z"/>
      <path class="cls-22" d="M8.16,18.15c.04,.06,.07,.12,.11,.17,.26,.34,.62,.5,1.03,.59,.14,.03,.29,.02,.43,.02-.04,.1-.12,.14-.22,.15-.42,.05-.79-.08-1.11-.32-.09-.07-.17-.16-.26-.24-.03-.03-.05-.06-.07-.1-.07-.13-.04-.21,.1-.26Z"/>
      <path class="cls-11" d="M15.25,14.19c.07,.27,.17,.53,.35,.74,.06,.07,.17,.11,.27,.15,.17,.06,.34,.09,.49,.2,.05,.04,.11,.06,.14,.14-.07,0-.13-.02-.18-.02,0,0,0-.02-.01-.03-.15-.15-.46-.2-.65-.1-.01,0-.03-.02-.04-.02-.19-.05-.33-.15-.41-.33-.01-.02-.04-.04-.06-.06,0-.13,0-.27,0-.4,0-.06-.01-.12-.02-.18,.04-.03,.09-.06,.13-.08Z"/>
      <path class="cls-14" d="M17.5,6.74s.03,0,.04,.01c.13,.14,.29,.14,.46,.09,.28-.09,.54-.22,.72-.45,0,0,.02,0,.03-.01-.02,.13-.1,.24-.18,.34-.18,.21-.39,.39-.66,.47-.13,.04-.26,.06-.39,.01-.03,0-.05-.02-.07-.03,.02-.15,.03-.3,.05-.44Z"/>
      <path class="cls-1" d="M15.45,8.11s-.07,.02-.11,.03c-.18,.07-.37,.11-.57,.08-.06,0-.12-.02-.19-.03,.09-.1,.11-.23,.12-.36,.05,0,.1,0,.14,0,.14,.02,.28,0,.39-.09,.06-.05,.11-.12,.16-.18,.03-.03,.06-.06,.08-.08,.04,.21,.04,.42-.04,.63Z"/>
      <path class="cls-11" d="M11.3,14.62s.03,.03,.04,.04c.09,.12,.17,.24,.27,.35,.23,.23,.51,.39,.82,.49,.03,0,.05,.03,.08,.04-.08,0-.15,0-.23-.02-.25-.06-.49-.14-.74-.2-.16-.04-.33-.07-.48-.1,.07-.19,.15-.39,.22-.59Z"/>
      <path class="cls-22" d="M7.67,11.61s-.06-.04-.09-.07c-.12-.13-.26-.22-.44-.25-.02,0-.05-.02-.07-.04,.24-.22,.51-.39,.81-.55-.06,.27-.16,.52-.03,.79-.06,.04-.13,.08-.19,.13Z"/>
      <path class="cls-24" d="M12.42,11.01c.11,.23,.26,.44,.47,.6-.07,.16-.21,.25-.34,.36-.03-.07-.05-.15-.08-.22-.04-.09-.07-.1-.17-.08,0-.14,0-.27-.03-.41-.03-.19-.11-.35-.21-.51,.03,.02,.06,.03,.08,.05,.09,.07,.16,.17,.27,.2Z"/>
      <path class="cls-14" d="M15.13,6.11s.06,.02,.08,.04c.19,.17,.34,.37,.5,.57,.19,.25,.4,.48,.7,.61,.26,.12,.51,.13,.76-.03,.02-.01,.04-.01,.06-.02-.08,.15-.22,.22-.38,.26-.24,.06-.45-.03-.65-.15-.24-.15-.41-.35-.57-.58-.17-.23-.33-.47-.49-.71Z"/>
      <path class="cls-11" d="M14.15,13.49c.11,.1,.22,.2,.37,.26,.11,.04,.23,.09,.35,.09,.08,0,.15-.02,.21-.08,.02-.02,.04-.03,.06-.04,.02,.07,.04,.14,.05,.21,0,.11-.06,.18-.16,.2-.1,.02-.2,0-.29-.03-.13-.06-.25-.13-.37-.2-.03-.01-.06-.05-.07,.01-.15-.09-.23-.21-.23-.39,.03-.01,.06-.02,.08-.04Z"/>
      <path class="cls-8" d="M15.85,7.28c.12,.09,.24,.19,.37,.27,.07,.05,.15,.07,.23,.11-.03,.12-.11,.19-.2,.26-.03,.02-.04,.05-.07,.07-.1,0-.2,.01-.31,.02,0-.05,0-.11-.01-.16-.12,0-.14-.09-.07-.24h-.08c-.04-.15,.01-.27,.14-.32Z"/>
      <path class="cls-11" d="M18.93,17.59c.2,.03,.35,.15,.51,.26,.14,.1,.3,.17,.47,.21,.07,.01,.14,0,.2,.01,0,.11,0,.22,0,.33-.18,.02-.35-.02-.49-.15-.01-.01-.03-.01-.05-.02-.07-.08-.14-.17-.22-.25-.12-.12-.25-.23-.41-.28-.03,0-.06,0-.09,0-.01-.03-.02-.05-.03-.08,.04,0,.07-.02,.11-.03Z"/>
      <path class="cls-30" d="M12.44,10.33c.04,.09,.08,.19,.12,.28,.02,.04,.04,.07,.07,.1h0s.01,.02,.02,.03h0s.01,.02,.02,.03c.07,.11,.14,.22,.22,.32,.16,.2,.35,.37,.59,.47,.1,.04,.2,.07,.31,.06,.04,0,.07-.01,.03-.06,.11,0,.23,0,.34,0,.06,0,.13-.03,.19-.05-.02,.03-.04,.07-.06,.09-.11,.08-.23,.13-.37,.14-.33,.03-.62-.08-.87-.29-.22-.19-.39-.42-.51-.69,0-.01-.02-.02-.03-.03-.02-.13-.03-.26-.05-.4Z"/>
      <path class="cls-16" d="M14.07,9.02s-.02,.04-.04,.04c-.08,.02-.09,.08-.1,.15,0,.26,.12,.46,.31,.62,.21,.17,.45,.23,.72,.23,.18,0,.37,0,.55-.02,.11,0,.23-.01,.34-.01,.02,0,.04,.02,.06,.03-.19,.03-.38,.05-.57,.08-.31,.04-.62,.05-.92-.07-.35-.13-.55-.39-.61-.76-.03-.18-.02-.25,.03-.37,.07,.02,.15,.04,.22,.07Z"/>
      <path class="cls-22" d="M9.91,19.03c.07,.24,.25,.36,.48,.43,.26,.08,.53,.13,.81,.12,.25,0,.48-.07,.71-.16,.03-.01,.07-.02,.11-.03-.22,.15-.47,.24-.73,.29-.4,.07-.79,.04-1.17-.15-.07-.03-.13-.08-.19-.13-.13-.12-.13-.23-.01-.36Z"/>
      <path class="cls-11" d="M12.42,11.01c-.11-.04-.18-.13-.27-.2-.03-.02-.06-.04-.08-.05h0s0-.01-.01-.02c-.3-.39-.7-.63-1.15-.79-.01,0-.02-.01-.04-.02,.03-.06,.05-.13,.08-.19,.24-.04,.4,.1,.55,.26,.06,.06,.12,.12,.18,.18,.06,.07,.11,.15,.17,.22,.1,.14,.23,.26,.38,.35,.02,.01,.06,.02,.08,.03,.07,.06,.1,.14,.12,.23Z"/>
      <path class="cls-14" d="M13.49,5.73s0,0,0,0c.14,.18,.34,.15,.52,.14,.15,0,.3-.03,.45-.05,.01,0,.02,0,.04-.01,.12,.03,.22,.08,.31,.16h0c-.13,0-.26-.01-.38-.02-.3,0-.59,.08-.86,.2-.09,.04-.17,.09-.26,.13h0c.02-.08,.03-.16,.05-.23,.03-.11,.08-.22,.12-.33Z"/>
      <path class="cls-11" d="M18.67,19.13s.06,.02,.08,.03c.12,.09,.24,.19,.38,.23,.28,.09,.57-.04,.62-.38,0-.02,.02-.04,.03-.06,.04,.19,.02,.38-.06,.56-.01,.03-.03,.05-.05,.07-.03,0-.06,0-.09,.01-.28,.08-.52,.01-.74-.17-.02-.01-.04-.02-.06-.02-.04-.09-.07-.19-.11-.28Z"/>
      <path class="cls-1" d="M14.39,8.04c-.09-.09-.19-.18-.28-.28-.03-.04-.05-.09-.07-.14-.01-.04-.03-.05-.07-.04,.07-.24,.21-.44,.42-.58,0,.06,0,.11-.02,.17-.03,.14-.01,.28,.08,.39,0,0,0,.02,0,.03-.08,.14-.1,.29-.08,.44Z"/>
      <path class="cls-11" d="M8.11,10.61c.02,.09,.04,.18,.06,.27,.05,.16,.19,.22,.34,.25,.05,.01,.1,.01,.14,.02,.04,.01,.08,.03,.13,.04,0,0,0,.01,0,.02-.14,.05-.27,.09-.41,.14-.13,.02-.27,.04-.42,.06-.03-.27,.04-.54,.15-.8Z"/>
      <path class="cls-9" d="M13.06,10.07s.05-.03,.05,.01c0,.02,0,.05-.01,.07-.02,.09-.05,.18-.07,.28-.09,.4,.32,.76,.67,.71,.08-.01,.14-.05,.18-.11,.03-.04,.05-.08,.07-.12,0,.1,0,.21-.05,.3-.02,0-.04,.02-.06,.03-.06,.02-.13,.06-.19,.05-.15-.01-.29-.05-.42-.15-.02-.01-.04-.02-.07-.03-.14-.11-.24-.26-.31-.42-.01-.03-.01-.06,0-.09,0-.08,.02-.15,.03-.23,.02-.1,.07-.18,.15-.24,.03-.02,.04-.04,.02-.07Z"/>
      <path class="cls-11" d="M4.75,15.66s.04-.03,.08-.06c0,.05,0,.09,0,.12-.03,.29-.03,.57,.07,.84,.03,.07,.07,.14,.11,.21,0,.02,.03,.02,.05,.04-.01,.09-.02,.18-.03,.26-.05-.04-.12-.07-.16-.11-.06-.06-.1-.12-.15-.19-.07-.35-.08-.69,.01-1.03,0-.03,.01-.06,.02-.09Z"/>
      <path class="cls-22" d="M18.62,19.57c-.02,.11-.1,.17-.24,.16-.09-.01-.18-.03-.27-.06-.25-.08-.49-.21-.71-.36-.07-.05-.13-.11-.21-.18,.1-.04,.18-.06,.26-.09,.04,.05,.08,.11,.13,.15,.12,.09,.24,.18,.37,.26,.15,.09,.3,.17,.48,.15,.06,0,.12-.02,.18-.03Z"/>
      <path class="cls-11" d="M12.9,8.26s-.09-.02-.09-.04c0-.03,.01-.07,.04-.1,.06-.07,.14-.07,.23-.06,.15,.03,.28,.09,.4,.17,.16,.1,.32,.21,.47,.31,.1,.06,.2,.09,.31,.07-.02,.07-.03,.13-.05,.2-.11,0-.22,.01-.33-.03-.03-.05-.06-.09-.08-.14-.05-.1-.12-.17-.21-.23-.09-.05-.18-.11-.27-.15-.12-.06-.24-.08-.37-.06-.03,0-.07,0-.06,.05Z"/>
      <path class="cls-7" d="M14.29,12.51c.02,.07,.05,.14,.07,.22,.01,.05,.01,.11,.02,.16-.01,.01-.03,.02-.03,.03-.04,.06-.07,.12-.11,.17-.14,.19-.35,.25-.56,.16-.04-.02-.09-.03-.13-.05,.02-.06,.04-.11,.06-.17,.03,0,.06,.01,.09,.01,.16,.02,.3-.02,.42-.14,.1-.08,.12-.19,.15-.3,0-.03,.03-.07,.04-.1Z"/>
      <path class="cls-4" d="M17.18,9.36s-.1,.03-.15,.05c0-.06,0-.11-.02-.17-.03-.19-.09-.37-.2-.54-.11-.18-.26-.32-.45-.41,.01-.03,.03-.07,.04-.1,.06,.03,.13,.05,.19,.08,.31,.17,.47,.46,.55,.79,.02,.1,.02,.2,.03,.3Z"/>
      <path class="cls-16" d="M12.49,10.73s.03,.02,.03,.03c.12,.27,.29,.5,.51,.69,.25,.21,.54,.32,.87,.29,.14-.01,.26-.06,.37-.14,.03-.02,.04-.06,.06-.09h0s.03-.02,.05-.03h0s.01-.01,.02-.02h0s.01-.01,.02-.02h0s.01-.01,.02-.02h0s.02-.03,.03-.05h0c.1-.06,.11-.15,.12-.25,.01,0,.02-.01,.04-.02,.01,.26-.19,.56-.44,.65-.28,.11-.56,.07-.83-.03-.44-.17-.74-.48-.86-.94,0-.02,0-.03,0-.05Z"/>
      <path class="cls-11" d="M4.71,14.64s-.03,.04-.04,.06c-.06,.31-.1,.62-.08,.93-.04,.1-.09,.2-.13,.29-.06-.12-.1-.24-.09-.38,0-.01-.02-.03-.03-.04,.06-.21,.11-.43,.18-.64,.04-.14,.11-.27,.17-.41h.02c0,.06,0,.13,0,.19Z"/>
      <path class="cls-19" d="M13.8,11.56s0,.06-.03,.06c-.11,0-.21-.01-.31-.06-.24-.1-.43-.27-.59-.47-.08-.1-.15-.21-.22-.32,0-.01-.01-.02-.02-.03h0s-.01-.02-.02-.03h0c-.03-.13-.07-.25-.09-.38-.03-.21,.02-.41,.13-.6-.05,.22-.07,.44,0,.66,.06,.53,.36,.88,.83,1.09,.09,.04,.2,.05,.3,.08Z"/>
      <path class="cls-14" d="M12.48,12.31c-.01,.09-.03,.18-.03,.27,0,.19,.06,.37,.21,.5,.11,.1,.25,.14,.4,.12,.13-.02,.24-.07,.34-.15,.01,0,.03,0,.05-.01-.05,.18-.18,.28-.39,.3-.32,.03-.64-.2-.71-.51-.03-.14,0-.27,.06-.39,.02-.04,.04-.08,.07-.12Z"/>
      <path class="cls-11" d="M7.33,12.48c.11,.12,.24,.18,.39,.22,.14,.04,.29,.05,.44,.09-.13,.08-.26,.13-.4,.17-.09,.03-.18,.06-.27,.08-.08-.18-.2-.35-.16-.57Z"/>
      <path class="cls-22" d="M13.29,18.47c.13,.01,.26,.04,.39,.03,.23-.01,.45-.05,.65-.19,.05-.04,.1-.09,.16-.13-.01,.06-.04,.12-.09,.16-.02,0-.05,0-.06,0-.24,.25-.56,.32-.88,.37-.11,.02-.22,.02-.33,.03,0,0,0-.01,0-.02,.06-.08,.12-.17,.18-.25Z"/>
      <path class="cls-7" d="M17.68,4.51s.09-.04,.13-.06c.13-.07,.18-.19,.21-.32,0-.03,.01-.05,.02-.08,.11,.1,.21,.21,.26,.35,0,0-.02,.02-.02,.02-.03,.11-.08,.21-.19,.27,0,0,0,.01,0,.02-.14-.07-.28-.13-.41-.2Z"/>
      <path class="cls-11" d="M14.84,6.69s0,0,0,0c.05-.08,.07-.16-.02-.23,.15-.03,.29,.02,.42,.09,.11,.06,.16,.17,.23,.26,.07,.09,.11,.18,.05,.3-.02,.03-.02,.07-.02,.11-.06-.09-.12-.18-.19-.26,0,0,0-.01,.01-.02,.02,.01,.04,.02,.07,.04-.06-.16-.31-.27-.56-.28Z"/>
      <path class="cls-28" d="M13.05,12.99c0-.06,.01-.11,.02-.17,0,0,.02,0,.02,0,.17,0,.25-.1,.19-.26-.02-.06-.02-.12-.04-.18,.03,0,.06-.01,.08-.03,.11-.09,.24-.11,.38-.12,.04,.09,.05,.19,.05,.3-.07,0-.14,.01-.21,.02-.01-.03-.02-.06-.04-.08,0-.01-.03-.01-.05-.02-.03-.01-.06-.02-.09-.03,0,.1,.02,.2,.02,.3,0,.14-.08,.24-.22,.26-.04,0-.09,.01-.13,.02Z"/>
      <path class="cls-11" d="M18.62,19.57c-.06,.01-.12,.03-.18,.03-.18,.01-.34-.07-.48-.15-.13-.08-.25-.17-.37-.26-.05-.04-.09-.1-.13-.15,.02-.01,.05-.03,.07-.04,.14,.21,.35,.29,.57,.36,.06,.02,.12,.02,.18,.04,.06,.02,.12,.03,.18,.05,.05,.02,.09,.01,.12-.04,0,0,.02-.01,.03-.02,0,.06,0,.12,0,.18Z"/>
      <path class="cls-11" d="M11.63,13.67c-.03,.06-.05,.12-.08,.19,.09,.06,.18,.13,.31,.13,.13,0,.21-.1,.31-.17-.04,.17-.22,.32-.38,.33-.15,.01-.27-.03-.39-.12-.03-.02-.06-.03-.09-.04-.01-.03-.02-.07-.04-.11,.16-.01,.26-.11,.36-.21Z"/>
      <path class="cls-22" d="M14.78,15.28c.02-.07,.05-.15,.07-.22,.05-.2,.04-.39-.03-.59,0-.03-.04-.05-.06-.07-.05-.04-.1-.09-.14-.13-.02-.02-.03-.06-.04-.09,.13,.07,.25,.13,.41,.12,.06,.33-.01,.65-.09,.98h-.12Z"/>
      <path class="cls-22" d="M18.78,19.41s.04,.01,.06,.02c.22,.18,.46,.25,.74,.17,.03,0,.06,0,.09-.01-.12,.18-.41,.27-.61,.2-.09-.04-.18-.08-.27-.11v-.26Z"/>
      <path class="cls-14" d="M13.54,13.2s.09,.03,.13,.05c.22,.09,.43,.03,.56-.16,.04-.05,.07-.11,.11-.17,0-.01,.02-.02,.03-.03,.02,.22-.1,.35-.26,.47-.09,.06-.19,.09-.29,.08-.09,0-.18-.01-.28-.02-.02,0-.04,0-.05-.02-.08-.04-.08-.05-.02-.12,.02-.03,.05-.05,.07-.08Z"/>
      <path class="cls-15" d="M13.54,12.55c.07,0,.14-.01,.21-.02,0,.03,.01,.07,.01,.1,.01,.18,.16,.28,.3,.21,.01,.02,.02,.04,.03,.07-.11,.12-.26,.16-.42,.14-.03,0-.06,0-.09-.01,.03-.17,.02-.33-.05-.49Z"/>
      <path class="cls-11" d="M15.14,12.25s-.02,.02-.03,.03c-.17,.08-.32,.18-.42,.34-.02,.03-.04,.05-.06,.07-.05-.06-.09-.13-.14-.2,.08-.09,.14-.18,.11-.31,.19,0,.37,.01,.54,.07Z"/>
      <path class="cls-11" d="M5.13,16.6c.02-.07,.03-.14,.05-.21,0,0,.02,0,.03,0,.03,.05,.05,.1,.08,.15,.13,.23,.3,.39,.57,.43,.03,0,.07,0,.1,0,0,.05,.01,.1,.02,.15-.13,.03-.25,.01-.36-.07-.08-.06-.16-.14-.23-.2-.03-.02-.06-.04-.08-.06-.01-.03-.03-.06-.04-.09-.02-.07-.06-.1-.13-.09Z"/>
      <path class="cls-22" d="M8.26,17.54s.05,.05,.07,.08c.08,.1,.18,.17,.31,.21,.03,0,.05,.03,.08,.05-.09,0-.18,.02-.27,.03-.07,0-.14,.01-.2,.03-.05,.01-.07,0-.08-.04-.06-.12-.02-.27,.1-.35Z"/>
      <path class="cls-8" d="M11.13,12.96c-.11,.17-.27,.25-.47,.28-.09-.05-.18-.09-.27-.14,0-.04,0-.06,.05-.06,.17-.02,.34-.04,.5-.07,.06-.01,.12-.04,.19-.01Z"/>
      <path class="cls-11" d="M7.29,13.19c-.14-.12-.29-.18-.48-.13-.01,0-.02,0-.03,0,.13-.12,.26-.23,.4-.36,.05,.15,.07,.31,.21,.42-.03,.02-.06,.05-.09,.07Z"/>
      <path class="cls-24" d="M16.18,7.99s.04-.05,.07-.07c.09-.07,.18-.14,.2-.26,.08,0,.12,.04,.13,.12,.02,.11,.04,.22,.06,.34-.14-.04-.27-.08-.4-.12h-.06s0-.01,0-.01Z"/>
      <path class="cls-24" d="M15.85,7.28c-.13,.05-.18,.17-.14,.32-.07,.11-.06,.24-.07,.37-.03-.31-.13-.63-.02-.95,.08,.09,.15,.17,.23,.26Z"/>
      <path class="cls-22" d="M5.3,16.78s.06,.04,.08,.06c.08,.07,.15,.14,.23,.2,.11,.08,.23,.1,.36,.07,0,.15-.18,.24-.32,.15-.12-.08-.21-.18-.28-.31-.03-.05-.05-.11-.07-.17Z"/>
      <path class="cls-14" d="M18.09,4.71s0-.01,0-.02c.11-.06,.16-.16,.19-.27,0,0,.01-.02,.02-.02,.11,.17,.16,.36,.15,.58-.13-.1-.25-.18-.36-.27Z"/>
      <path class="cls-22" d="M15.14,14.85s.05,.04,.06,.06c.08,.18,.22,.28,.41,.33,.01,0,.03,.01,.04,.02-.02,.01-.05,.03-.07,.03-.17-.01-.33-.03-.5-.04,.02-.13,.04-.27,.06-.4Z"/>
      <path class="cls-12" d="M14.1,12.91s-.02-.04-.03-.07c.06-.08,.07-.15,.05-.25-.03-.15-.11-.26-.2-.37,.02,0,.03,0,.05-.01,.02,0,.05,0,.07,0,.07,.07,.14,.13,.2,.2,.03,.03,.04,.08,.06,.12-.01,.03-.03,.07-.04,.1-.03,.11-.05,.22-.15,.3Z"/>
      <path class="cls-11" d="M16.28,15.41c.1,.08,.2,.15,.29,.24,.05,.04,.1,.09,.11,.19-.09-.05-.16-.1-.23-.14-.02-.02-.03-.05-.05-.07-.18-.14-.38-.23-.6-.29,.17-.06,.33,0,.48,.07Z"/>
      <path class="cls-24" d="M14.27,12.25c-.11-.09-.23-.17-.29-.31,.08-.02,.15-.04,.24-.06,.07,.06,.13,.13,.2,.2-.02,.08-.08,.13-.15,.17Z"/>
      <path class="cls-11" d="M14.81,6.35s.02-.03,.03-.06c-.04-.05-.08-.09-.12-.14-.02-.02-.03-.05-.04-.07,.11,.02,.22,.05,.33,.07,.02,0,.04,.02,.05,.04,.06,.08,.11,.15,.17,.23,0,0,0,.01-.01,.02-.12-.08-.26-.1-.4-.09Z"/>
      <path class="cls-22" d="M19.58,18.23s.04,0,.05,.02c.14,.13,.31,.16,.49,.15,0,.15-.07,.2-.21,.19-.08,0-.13-.04-.17-.11-.05-.09-.11-.17-.16-.25Z"/>
      <path class="cls-24" d="M18.62,19.39s-.03,0-.03,.02c-.03,.05-.07,.05-.12,.04-.06-.02-.12-.04-.18-.05,.02-.07,.04-.14,.06-.21,.01-.04,.02-.06,0-.1-.02-.03-.02-.05,0-.07,.02,.02,.04,.04,.07,.07,0,.01,.01,.02,.02,.03,.07,.09,.15,.16,.18,.28Z"/>
      <path class="cls-30" d="M13.22,8.79c-.12-.01-.24,0-.34,.08-.01,0-.03,.01-.05,.02,.07-.11,.14-.21,.21-.32,.01,0,.03,.01,.04,.01,.08,0,.17-.02,.24,.03-.04,.06-.07,.12-.11,.18Z"/>
      <path class="cls-30" d="M14.5,10.48c-.14,.09-.28,.17-.43,.26,0,0,0,0,0,0-.04-.14-.07-.1,.06-.21,.07-.06,.15-.11,.23-.16,.03,.01,.05,.02,.08,.04,.03,.02,.05,.05,.07,.08Z"/>
      <path class="cls-5" d="M7.82,15.4s0,.01-.01,.02c-.13-.03-.2-.12-.27-.22,0,0,0-.02-.01-.02-.09-.04-.14-.13-.2-.2-.08-.09-.15-.19-.22-.29-.02-.03-.04-.07-.06-.11-.02-.03-.04-.07,.02-.09,.07,.11,.14,.24,.22,.34,.12,.15,.24,.31,.39,.42,.05,.04,.1,.09,.15,.14Z"/>
      <path class="cls-16" d="M14.5,10.48s-.04-.05-.07-.08c-.02-.02-.05-.03-.08-.04,.12-.08,.24-.13,.39-.09,.07,.02,.15,0,.23,.01-.16,.07-.32,.13-.47,.19Z"/>
      <path class="cls-22" d="M9.99,15.11c.11,.02,.22,.05,.33,.07,.05,0,.1,0,.15,0,0,0,0,.01,0,.02-.02,.02-.04,.04-.06,.05-.08,.04-.16,.09-.25,.06,.03-.05,0-.06-.04-.05-.1,.01-.19-.02-.27-.08,0,0,0-.01-.02-.03,.05-.01,.1-.02,.15-.03Z"/>
      <path class="cls-11" d="M12.25,12.53s-.07,.05-.11,.07c-.05,.03-.1,.06-.16,.03,0-.03-.02-.06-.02-.09,.11-.06,.16-.15,.21-.25l.12,.1s-.03,.1-.04,.15Z"/>
      <path class="cls-22" d="M14.3,10.75c-.02,.06-.04,.11-.05,.17-.01,.08-.01,.17-.02,.25-.06,.02-.12,.03-.17,.05,.01-.1,.02-.18,.03-.26,0-.02,.01-.04,.03-.06,.06-.05,.12-.11,.19-.16Z"/>
      <path class="cls-16" d="M14.45,11.26s-.03,.02-.04,.04c-.06,.07-.14,.12-.23,.13-.07,.01-.15,.02-.24,.03,.04-.07,.06-.11,.09-.16,.14,.04,.26-.01,.37-.08,.02-.01,.04-.02,.06-.03,0,.02,0,.04,0,.07Z"/>
      <path class="cls-16" d="M13.18,11.11s.05,.01,.07,.03c.12,.1,.27,.14,.42,.15,.06,0,.12-.03,.19-.05,.02,0,.04-.02,.06-.03-.04,.07-.08,.14-.12,.21-.23-.06-.44-.15-.6-.32Z"/>
      <path class="cls-16" d="M13.33,8.61c-.08-.05-.16-.04-.24-.03-.01,0-.03,0-.04-.01,.06-.06,.12-.13,.18-.19,.01-.01,.04-.02,.06,0,.05,.02,.09,.05,.15,.08-.04,.06-.07,.11-.11,.16Z"/>
      <path class="cls-28" d="M18.42,5.15s-.01,.02-.02,.04c-.15-.14-.32-.24-.5-.33-.05-.02-.1-.05-.15-.07,.01-.03,.02-.06,.03-.09,.24,.11,.45,.25,.63,.45Z"/>
      <path class="cls-11" d="M12.31,11.67c.1-.03,.13-.01,.17,.08,.03,.07,.05,.15,.08,.22l-.14,.16s-.01,0-.02,0c0-.08,0-.17,.01-.25,0-.09-.02-.11-.11-.09,0-.04,0-.08,0-.11Z"/>
      <path class="cls-9" d="M13.74,10.4s-.04,.07-.05,.11c-.02,.09-.02,.19-.04,.28-.02,.08-.05,.17-.15,.2,.12-.22,.12-.45,.08-.7,.06,.04,.1,.07,.15,.11Z"/>
      <path class="cls-22" d="M4.72,16.78c.05,.06,.09,.13,.15,.19,.05,.05,.11,.08,.16,.11-.02,.06-.03,.11-.06,.19-.17-.14-.23-.3-.26-.49Z"/>
      <path class="cls-11" d="M14.27,12.25c.07-.04,.13-.09,.15-.17,.1,.11,.1,.27-.02,.34-.04-.06-.09-.11-.13-.17Z"/>
      <path class="cls-22" d="M4.34,15.5s.03,.03,.03,.04c0,.13,.03,.26,.09,.38-.02,.03-.03,.06-.06,.1-.09-.18-.1-.35-.06-.52Z"/>
      <path class="cls-16" d="M12.88,10.2s-.05,.1-.08,.16c0-.18,.03-.34,.07-.5,.01-.05,.06-.04,.09-.03-.02,.05-.04,.09-.05,.14-.02,.08-.08,.15-.04,.23Z"/>
      <path class="cls-9" d="M12.88,10.2c-.04-.09,.01-.16,.04-.23,.01-.05,.03-.09,.05-.14h.1c-.02,.06-.05,.12-.07,.17,0,.03-.01,.06-.02,.09h0s-.01,0-.02,.01c-.03,.03-.06,.07-.09,.1Z"/>
      <path class="cls-22" d="M12.29,12.38l-.12-.1c.03-.1,.07-.2,.1-.28,.01,.09,.03,.19,.04,.3,0,.03-.01,.06-.02,.08Z"/>
      <path class="cls-24" d="M18.85,16.35s-.04,.03-.05,0c-.04-.1-.08-.19-.12-.29,0-.02-.01-.03-.02-.04-.04-.04-.03-.08,0-.12,.06,.15,.13,.3,.19,.45Z"/>
      <path class="cls-22" d="M13.88,8.79c.11,.04,.22,.03,.33,.03-.06,.11-.17,.13-.27,.05-.03-.02-.04-.05-.07-.08Z"/>
      <path class="cls-30" d="M14.45,11.26s0-.04,0-.07c.04-.02,.09-.05,.13-.07,0,.1-.02,.19-.12,.25,0-.04,.05-.08-.01-.12Z"/>
      <path class="cls-14" d="M13.08,11.75l-.17,.07s.04-.09,.07-.14c.04,.03,.07,.05,.1,.08Z"/>
      <path class="cls-5" d="M13.11,15.53s0-.05,0-.07c.06,0,.11,0,.13,.06-.04,0-.09,0-.13,.01Z"/>
      <path class="cls-13" d="M13,8.44s0-.05,0-.06c.02-.03,.05-.06,.08-.09,.02,0,.03,0,.06,.01-.05,.05-.1,.09-.14,.13Z"/>
      <path class="cls-11" d="M5.87,16.77c-.07-.02-.12-.05-.15-.12,.04,.02,.08,.03,.11,.06,.02,.01,.02,.04,.04,.06Z"/>
      <path class="cls-24" d="M18.63,15.82s-.03,0-.04,0c0-.02,0-.05,.01-.07,0,.02,.02,.04,.03,.06Z"/>
      <path class="cls-13" d="M12.95,8.27s-.02,.03-.02,.05l-.03-.06s.03,0,.05,.01Z"/>
      <path class="cls-8" d="M9.67,12.91s0-.04,0-.05c.05,0,.04,.03,.04,.06-.01,0-.03,0-.04-.01Z"/>
      <path class="cls-8" d="M9.78,12.92s.02-.03,.03-.05c0,.02,.01,.04,.02,.06-.02,0-.03,0-.05,0Z"/>
      <path class="cls-24" d="M18.39,18.83c.05-.03,.05,0,.04,.04-.01-.01-.03-.03-.04-.04Z"/>
      <path class="cls-24" d="M18.92,16.55s-.05-.03-.01-.05c0,.02,0,.03,.01,.05Z"/>
      <path class="cls-8" d="M10.24,13.04s0-.03,0-.04c0,0,.01,0,.02,0,0,.01-.01,.03-.02,.04h0s0,0,0,0Z"/>
      <path class="cls-30" d="M14.38,11.47s-.03,.02-.05,.03c.02-.01,.03-.02,.05-.03Z"/>
      <path class="cls-29" d="M9.12,8.57s.03,.05,0,.07c0-.02,0-.05,0-.07Z"/>
      <path class="cls-30" d="M14.46,11.37s-.02,.03-.03,.05c.01-.02,.02-.03,.03-.05Z"/>
      <path class="cls-8" d="M16.18,7.99h.06s-.04,0-.06,0Z"/>
      <path class="cls-11" d="M15.23,6.42s0,.02,0,.03c0,0-.02,0-.02,0,0,0,0-.01,.01-.02Z"/>
      <path class="cls-1" d="M18.19,15.02s-.02-.03-.02-.04c0,.01,.02,.03,.02,.04Z"/>
      <path class="cls-16" d="M15.97,10.07s.02,0,.03,0c-.01,0-.02,0-.03,0Z"/>
      <path class="cls-1" d="M18.33,15.28s-.02-.03-.02-.04c0,.01,.02,.03,.02,.04Z"/>
      <path class="cls-1" d="M18.4,15.4s-.02-.03-.02-.04c0,.01,.02,.03,.02,.04Z"/>
      <path class="cls-1" d="M15.39,8.24s.01-.02,.02-.03c0,.01-.01,.02-.02,.03Z"/>
      <path class="cls-11" d="M18.44,19.11s-.01-.02-.02-.03c0,.01,.01,.02,.02,.03Z"/>
      <path class="cls-24" d="M12.06,10.73s0,.01,.01,.02c0,0,0-.01-.01-.02Z"/>
      <path class="cls-1" d="M17.64,14.11s-.02-.02-.02-.04c0,.01,.02,.02,.02,.04Z"/>
      <path class="cls-11" d="M15.3,6.93s-.02,0-.03-.01c0,0,0,0,0-.01,.01,0,.03,0,.04,0h-.02Z"/>
      <polygon class="cls-20" points="14.94 8.73 14.95 8.73 14.95 8.74 14.94 8.73"/>
      <path class="cls-27" d="M12.96,10.1s.01-.01,.02-.02c0,0-.01,.01-.02,.02Z"/>
      <path class="cls-30" d="M14.43,11.42s-.01,.01-.02,.02c0,0,.01-.01,.02-.02Z"/>
      <polygon class="cls-14" points="13.33 6.3 13.32 6.3 13.33 6.29 13.33 6.3"/>
      <path class="cls-30" d="M14.41,11.44s-.01,.01-.02,.02c0,0,.01-.01,.02-.02Z"/>
      <path class="cls-11" d="M15.32,6.91s.01,0,.02,.01c0,0,0,.01-.01,.02,0,0-.01-.01-.02-.02h.02Z"/>
      <path class="cls-21" d="M9.79,15.93s.01,0,.02,0c0,0,0,0-.01,0,0,0,0,0,0,0Z"/>
      <polygon class="cls-14" points="14.83 5.98 14.84 5.99 14.83 5.99 14.83 5.98 14.83 5.98"/>
      <path class="cls-30" d="M14.4,11.46s-.01,.01-.02,.02c0,0,.01-.01,.02-.02Z"/>
      <path class="cls-5" d="M5.63,14.47s0-.02,.01-.03c0,0,0,.02-.01,.03Z"/>
      <path class="cls-1" d="M17.76,18.41s-.04,.01-.07,.02c.01-.02,.02-.03,.04-.05,.01,0,.02,.02,.03,.03Z"/>
      <path class="cls-6" d="M16.48,6.29s-.01-.02-.02-.03c-.01-.01-.02-.02-.03-.03h0s-.01-.03-.02-.05c-.1-.12-.2-.25-.29-.37,.27,0,.8,.14,1.07,.55,.02,.06,.05,.13,.07,.19,.03,.1,.02,.2-.06,.27-.08,.07-.17,.06-.26,.04-.15-.04-.24-.14-.31-.28-.04-.1-.1-.19-.14-.28Z"/>
      <path class="cls-6" d="M17.76,4.79s.1,.05,.15,.07c.18,.08,.35,.19,.5,.33,.08,.11,.17,.21,.19,.35,.03,.15-.01,.3-.21,.32-.05,0-.1,0-.15-.01-.13-.06-.22-.16-.3-.28-.02-.13-.09-.23-.17-.33-.12-.17-.26-.32-.42-.46-.05-.04-.09-.09-.13-.15,.07,.02,.13,.04,.2,.06,.11,.04,.22,.07,.33,.11Z"/>
      <path class="cls-10" d="M16.41,6.18s.01,.03,.02,.05c-.04,0-.05-.02-.02-.05Z"/>
      <path class="cls-10" d="M16.43,6.23s.02,.02,.03,.03c-.01-.01-.02-.02-.03-.03Z"/>
      <path class="cls-4" d="M16.84,9.66c-.09,.01-.17,.04-.26,.04-.08,0-.17-.02-.25-.04-.17-.04-.3-.15-.41-.28-.09-.12-.14-.26-.16-.41-.02-.18,.05-.33,.12-.48,.02-.03,.02-.06,0-.09,.24-.02,.45,.07,.62,.24,.29,.28,.37,.64,.32,1.03Z"/>
      <path class="cls-19" d="M16.84,9.66c.05-.39-.03-.75-.32-1.03-.17-.17-.38-.25-.62-.24-.11,0-.21,.01-.32,.02,0,0,0-.02,0-.02,.03-.02,.05-.05,.08-.06,.21-.13,.43-.11,.66-.05,.03,0,.05,.02,.08,.02,.19,.1,.33,.24,.45,.41,.11,.16,.17,.34,.2,.54,0,.06,.01,.11,.02,.17,0,.22-.04,.44-.18,.62-.03,.04-.08,.08-.13,.11,.04-.16,.07-.32,.11-.48Z"/>
      <path class="cls-11" d="M12.88,13.95c.13,.09,.28,.14,.43,.11,.06,0,.12-.04,.16-.08,.06-.06,.11-.13,.16-.19,.04-.05,.07-.1,.12-.15,.02-.02,.07-.03,.1-.05,.04,.06,.08,.13,.02,.2-.01-.01-.03-.02-.04-.04-.01,.02-.03,.03-.03,.05-.04,.1-.07,.21-.12,.3-.1,.18-.3,.26-.51,.22-.21-.04-.35-.17-.45-.35-.02-.03-.03-.05-.05-.08h-.02s0,.05,0,.08c.02,.12,.09,.22,.16,.31-.04-.02-.09-.04-.12-.08-.08-.11-.15-.22-.22-.34-.04-.08-.05-.16,0-.24,.03-.05,.06-.05,.1-.02,.05,.05,.1,.11,.14,.17,.05,.06,.11,.11,.16,.17Z"/>
      <path class="cls-3" d="M12.82,14.29c-.07-.09-.14-.19-.16-.31,0-.02,0-.05,0-.07h.02s.03,.05,.05,.08c.1,.18,.24,.31,.45,.35,.21,.04,.4-.04,.51-.22,.05-.09,.08-.2,.12-.3,0-.02,.02-.03,.03-.05,.01,.01,.03,.02,.04,.04,.06,.35-.2,.58-.44,.66-.03,0-.06,.02-.09,.02-.21,.03-.38-.05-.53-.19Z"/>
      <path class="cls-6" d="M16.54,3.82c-.07-.03-.13-.06-.22-.1,.16,0,.29-.01,.43-.02,.24,0,.48,0,.72,.07,.13,.03,.25,.09,.34,.19,.11,.12,.08,.25-.07,.31-.19,.08-.38,.04-.53-.1-.13-.13-.29-.21-.46-.27-.07-.03-.14-.05-.21-.08Z"/>
      <path class="cls-3" d="M14.39,8.04c-.02-.16,0-.31,.08-.44,.02-.02,.04-.05,.07-.05,.03,0,.06,0,.09,.02,.01,0,.02,.05,.01,.07-.03,.1,0,.16,.07,.2,0,.13-.03,.26-.12,.36-.01,0-.03,.02-.04,.02-.06,.02-.09,0-.08-.07,0-.06-.01-.09-.07-.1Z"/>
      <path class="cls-11" d="M13.34,10.85c-.09-.07-.08-.15-.08-.22,0-.05,0-.11,0-.16,0-.04,0-.09,.04-.09,.02,0,.07,.03,.07,.06,.02,.05,.02,.11,.02,.16,0,.06-.01,.11-.02,.17,0,.03-.02,.05-.04,.09Z"/>
      <path class="cls-11" d="M13.72,10.97c.03-.08,.05-.15,.07-.22,.02,.11,0,.16-.07,.22Z"/>
      <path class="cls-6" d="M13.92,12.22c.09,.11,.18,.22,.2,.37,.02,.1,0,.18-.05,.25-.14,.07-.28-.03-.3-.21,0-.03,0-.07-.01-.1,0-.1,0-.2-.05-.3-.02-.06-.03-.11-.05-.19,.11,.04,.18,.12,.27,.17Z"/>
      <path class="cls-6" d="M13.24,12.38c.01,.06,.02,.12,.04,.18,.05,.17-.02,.27-.19,.26,0,0-.02,0-.02,0-.12-.07-.13-.18-.11-.3,.02-.12,.17-.31,.29-.36v.22Z"/>
      <path class="cls-20" d="M12.63,10.75s.01,.02,.02,.03c0-.01-.01-.02-.02-.03Z"/>
      <path class="cls-20" d="M12.62,10.71s.01,.02,.02,.03c0-.01-.01-.02-.02-.03Z"/>
    </g>
  </g>
</svg>