<?xml version="1.0" encoding="UTF-8"?>
<svg id="Capa_2" data-name="Capa 2" xmlns="http://www.w3.org/2000/svg" viewBox="0 0 24.59 24.59">
  <defs>
    <style>
      .cls-1 {
        fill: #faf6ed;
      }

      .cls-2, .cls-3 {
        fill: #fff;
      }

      .cls-4 {
        fill: #2e1c15;
      }

      .cls-5 {
        fill: #fdbf31;
      }

      .cls-6 {
        fill: #f8f3e8;
      }

      .cls-7 {
        fill: #f36c58;
      }

      .cls-8 {
        fill: #9e1c21;
      }

      .cls-9 {
        fill: #fcf9f4;
      }

      .cls-10 {
        fill: #c15962;
      }

      .cls-11 {
        fill: #d92026;
      }

      .cls-12 {
        fill: #d9ccbd;
      }

      .cls-13 {
        fill: #e12729;
      }

      .cls-14 {
        fill: #f9f5ec;
      }

      .cls-15 {
        fill: #78111c;
      }

      .cls-16 {
        fill: #e3292a;
        stroke-width: .27px;
      }

      .cls-16, .cls-3 {
        stroke: #1d1d1b;
        stroke-miterlimit: 10;
      }

      .cls-17 {
        fill: #e83639;
      }

      .cls-18 {
        fill: #ae4d25;
      }

      .cls-19 {
        fill: #fec302;
      }

      .cls-20 {
        fill: #fbb729;
      }

      .cls-21 {
        fill: #fbe891;
      }

      .cls-22 {
        fill: #f8a31c;
      }

      .cls-3 {
        stroke-width: .25px;
      }

      .cls-23 {
        fill: #fdfdfd;
      }

      .cls-24 {
        fill: #b59f91;
      }

      .cls-25 {
        fill: #fdfdfc;
      }

      .cls-26 {
        fill: #f7f2e6;
      }

      .cls-27 {
        fill: #ec9d95;
      }

      .cls-28 {
        fill: #e42d2f;
      }

      .cls-29 {
        fill: #fcfbf8;
      }

      .cls-30 {
        fill: #ce6e29;
      }
    </style>
  </defs>
  <g id="Capa_1-2" data-name="Capa 1">
    <circle class="cls-3" cx="12.3" cy="12.3" r="12.17"/>
    <path class="cls-16" d="M12.3,2.09C6.66,2.09,2.09,6.66,2.09,12.3s4.57,10.2,10.2,10.2,10.2-4.57,10.2-10.2S17.93,2.09,12.3,2.09Zm0,17.85c-4.23,0-7.65-3.43-7.65-7.65s3.43-7.65,7.65-7.65,7.65,3.43,7.65,7.65-3.43,7.65-7.65,7.65Z"/>
    <circle class="cls-2" cx="12.3" cy="12.3" r="7.83"/>
    <g>
      <path class="cls-2" d="M3.87,13.71l-.87,.1-.04-.35c-.03-.23,.05-.38,.26-.41,.21-.02,.32,.11,.35,.34l.02,.16,.25-.03,.02,.19Zm-.39-.15v-.12c-.03-.14-.11-.2-.23-.19s-.19,.09-.17,.23v.12s.4-.04,.4-.04Z"/>
      <path class="cls-2" d="M2.9,12.7v-.21s.86-.38,.86-.38v.22s-.2,.09-.2,.09v.4s.22,.08,.22,.08v.13s-.88-.33-.88-.33Zm.55-.24l-.38,.17,.39,.15v-.31Z"/>
      <path class="cls-2" d="M2.89,11.98l.02-.35c.02-.23,.13-.37,.33-.35,.14,0,.23,.08,.27,.2l.3-.17-.02,.23-.27,.15v.14s.25,.02,.25,.02v.19s-.89-.06-.89-.06Zm.13-.19l.39,.03v-.12c.02-.14-.05-.21-.17-.22-.12,0-.2,.06-.21,.2v.12Z"/>
      <path class="cls-2" d="M2.97,11.09l.06-.35c.04-.23,.16-.35,.37-.32,.14,.02,.22,.1,.24,.22l.32-.14-.04,.23-.28,.13-.02,.14,.25,.04-.03,.19-.86-.15Zm.14-.17l.39,.06,.02-.12c.02-.14-.03-.22-.16-.24-.12-.02-.2,.04-.23,.17l-.02,.12Z"/>
      <path class="cls-2" d="M4.02,10.23l-.04,.19-.85-.2,.04-.19,.85,.2Z"/>
      <path class="cls-2" d="M3.21,9.87l.06-.19,.73,.22,.12-.38,.11,.03-.17,.57-.84-.25Z"/>
      <path class="cls-2" d="M3.56,8.84l.08-.2h.94s-.08,.21-.08,.21h-.22s-.15,.37-.15,.37l.16,.15-.05,.12-.67-.66Zm.6,0h-.42s.3,.29,.3,.29l.12-.29Z"/>
      <path class="cls-2" d="M4.61,7.27v.12c-.09-.01-.22,.02-.28,.13-.07,.12-.03,.3,.16,.4,.18,.11,.36,.06,.43-.06,.06-.1,.03-.23-.02-.3l.1-.06c.06,.07,.12,.24,0,.44-.13,.22-.38,.3-.62,.16-.24-.14-.29-.39-.16-.62,.11-.19,.3-.22,.39-.2Z"/>
      <path class="cls-2" d="M4.68,6.8l.13-.17,.91,.23-.13,.17-.21-.05-.24,.32,.12,.19-.08,.11-.5-.8Zm.58,.15l-.41-.1,.22,.36,.18-.25Z"/>
      <path class="cls-2" d="M5.14,6.21l.24-.26c.16-.17,.33-.21,.48-.07,.1,.09,.12,.21,.08,.32l.34,.05-.16,.17-.3-.05-.1,.1,.19,.17-.13,.14-.64-.59Zm.21-.07l.29,.26,.08-.09c.09-.1,.09-.2,0-.29s-.19-.08-.28,.02l-.08,.09Z"/>
      <path class="cls-2" d="M5.74,5.56l.29-.26c.15-.13,.29-.19,.41-.05,.07,.07,.07,.16,.05,.23,.08-.01,.16,0,.22,.08,.12,.14,.05,.27-.1,.4l-.29,.26-.58-.65Zm.22-.05l.18,.2,.12-.11c.08-.07,.1-.14,.03-.21-.06-.07-.14-.06-.21,.01l-.12,.11Zm.56,.37c.08-.07,.1-.14,.04-.21-.06-.07-.14-.06-.21,.01l-.12,.11,.18,.2,.12-.11Z"/>
      <path class="cls-2" d="M6.76,4.69c.21-.16,.46-.12,.62,.11,.17,.22,.13,.47-.08,.62-.21,.16-.46,.12-.62-.11-.17-.22-.13-.47,.08-.63Zm0-.06l-.09,.07-.03-.23,.17-.12-.05,.28Zm.47,.7c.11-.08,.11-.24-.01-.42-.13-.17-.28-.22-.39-.13-.11,.08-.11,.25,.01,.42,.12,.17,.28,.22,.39,.13Z"/>
      <path class="cls-2" d="M7.44,4.25l.7,.33-.32-.55,.11-.06,.44,.76-.18,.1-.68-.32,.31,.54-.11,.06-.44-.76,.17-.1Z"/>
      <path class="cls-2" d="M8.69,3.63l.2-.08,.65,.68-.2,.08-.15-.16-.37,.15v.22l-.12,.05v-.94Zm.41,.43l-.29-.3v.42l.29-.12Z"/>
      <path class="cls-2" d="M9.34,3.37l.19-.06,.22,.73,.38-.11,.03,.11-.57,.17-.25-.84Z"/>
      <path class="cls-2" d="M10.41,3.09l.34-.06c.23-.04,.39,.04,.42,.24,.02,.14-.03,.24-.13,.3l.24,.25-.23,.04-.21-.23-.14,.02,.04,.25-.19,.03-.14-.86Zm.21,.08l.06,.38,.12-.02c.14-.02,.19-.1,.17-.23s-.1-.18-.24-.16l-.12,.02Z"/>
      <path class="cls-2" d="M11.73,2.9c.26-.02,.44,.15,.46,.42,.02,.28-.14,.46-.4,.48-.26,.02-.45-.15-.46-.42-.02-.28,.14-.46,.41-.48Zm.05,.79c.14,0,.23-.14,.21-.35-.01-.21-.12-.33-.26-.32-.14,0-.23,.14-.21,.35,.01,.21,.12,.33,.26,.32Z"/>
      <path class="cls-2" d="M12.62,3.79c-.18,0-.29-.09-.31-.21l.1-.06c.02,.07,.09,.13,.2,.13,.11,0,.19-.06,.19-.2l.02-.54h.19s-.02,.53-.02,.53c0,.23-.13,.36-.37,.35Z"/>
      <path class="cls-2" d="M13.6,2.96c.26,.03,.41,.23,.37,.5-.04,.27-.23,.43-.49,.39-.26-.03-.41-.23-.37-.51,.04-.27,.23-.42,.49-.39Zm-.1,.78c.14,.02,.25-.1,.28-.31s-.05-.35-.19-.37c-.14-.02-.25,.1-.28,.31-.03,.21,.05,.35,.19,.37Z"/>
    </g>
    <g>
      <path class="cls-2" d="M6.11,18.75l-.09-.03c.03-.07,.03-.18-.04-.25-.08-.09-.24-.09-.37,.04-.13,.12-.13,.28-.05,.37,.07,.07,.18,.08,.25,.05l.03,.09c-.07,.03-.23,.04-.36-.09-.16-.16-.16-.38,0-.54,.17-.17,.39-.15,.54,0,.13,.14,.12,.3,.08,.36Z"/>
      <path class="cls-2" d="M6.57,18.9c.17,.14,.18,.35,.03,.53s-.36,.19-.53,.05c-.17-.15-.18-.35-.03-.53,.15-.18,.36-.19,.53-.05Zm-.44,.51c.09,.08,.22,.05,.34-.09,.12-.13,.13-.27,.04-.35-.09-.08-.22-.05-.34,.09-.12,.14-.12,.27-.04,.35Z"/>
      <path class="cls-2" d="M7.04,19.28l-.02,.66,.32-.44,.09,.06-.44,.61-.14-.1,.02-.64-.31,.43-.09-.06,.44-.61,.13,.1Z"/>
      <path class="cls-2" d="M8.16,20.01l-.05,.08-.32-.18-.11,.2,.25,.15-.05,.08-.25-.15-.12,.2,.32,.18-.05,.08-.46-.27,.37-.64,.46,.27Z"/>
      <path class="cls-2" d="M8.23,20.05l.15,.07-.28,.58,.31,.15-.04,.08-.45-.22,.33-.67Z"/>
      <path class="cls-2" d="M9.01,20.42l.16,.06,.06,.58,.42-.41,.15,.05-.24,.7-.16-.05,.16-.46-.38,.38-.09-.03-.06-.53-.16,.46-.1-.04,.24-.7Z"/>
      <path class="cls-2" d="M10.41,20.84l-.02,.09-.36-.09-.06,.22,.28,.07-.02,.09-.28-.07-.06,.22,.36,.09-.02,.09-.52-.13,.18-.72,.52,.13Z"/>
      <path class="cls-2" d="M10.62,21.65c-.15-.03-.23-.11-.24-.22l.09-.04c.01,.06,.06,.12,.15,.14,.1,.02,.16-.03,.19-.15l.08-.45,.16,.03-.08,.44c-.04,.19-.16,.29-.36,.25Z"/>
      <path class="cls-2" d="M11.48,20.99c.22,.02,.35,.18,.33,.42-.02,.24-.18,.37-.41,.35-.22-.02-.36-.18-.33-.42,.02-.24,.19-.37,.41-.35Zm-.07,.67c.12,.01,.21-.09,.23-.27s-.05-.3-.17-.31c-.12-.01-.21,.09-.23,.27-.02,.18,.06,.3,.17,.31Z"/>
      <path class="cls-2" d="M11.93,21.04h.3c.2,0,.32,.09,.32,.26,0,.12-.06,.2-.15,.23l.16,.25h-.2l-.14-.22h-.12s0,.22,0,.22h-.16v-.74Zm.17,.1v.33s.1,0,.1,0c.12,0,.18-.06,.18-.17,0-.11-.06-.16-.18-.17h-.1Z"/>
      <path class="cls-2" d="M13.27,21.75c-.18,.02-.29-.04-.34-.13l.08-.06c.04,.05,.12,.11,.24,.1,.11-.01,.16-.06,.15-.12,0-.05-.06-.07-.11-.08l-.21-.05c-.13-.03-.15-.09-.16-.16-.01-.11,.08-.24,.28-.26,.15-.02,.25,.04,.3,.14l-.07,.05c-.04-.06-.11-.11-.21-.09-.1,.01-.14,.06-.13,.1,0,.04,.03,.06,.1,.08l.17,.04c.14,.03,.21,.09,.22,.19,.01,.12-.09,.23-.31,.25Z"/>
      <path class="cls-2" d="M13.85,20.9l.18-.03,.43,.67-.18,.03-.1-.16-.33,.06-.04,.18-.11,.02,.15-.79Zm.28,.43l-.19-.3-.07,.35,.26-.05Z"/>
      <path class="cls-2" d="M14.38,20.8l.31-.09c.16-.05,.29-.04,.33,.11,.02,.08,0,.15-.05,.19,.06,.02,.12,.06,.14,.14,.04,.15-.06,.22-.22,.27l-.31,.09-.21-.71Zm.18,.05l.06,.22,.13-.04c.09-.03,.13-.07,.1-.15-.02-.08-.08-.09-.17-.07l-.14,.04Zm.29,.49c.08-.02,.13-.07,.1-.15-.02-.08-.08-.1-.17-.07l-.13,.04,.06,.22,.14-.04Z"/>
      <path class="cls-2" d="M15.39,20.46c.21-.08,.4,0,.48,.23s0,.41-.21,.49c-.21,.08-.4,0-.48-.22-.08-.22,0-.41,.21-.49Zm.24,.63c.11-.04,.15-.17,.08-.34-.06-.17-.18-.24-.29-.2-.11,.04-.15,.17-.08,.34,.06,.17,.18,.24,.29,.2Z"/>
      <path class="cls-2" d="M15.81,20.32l.27-.13c.18-.09,.32-.06,.4,.1,.05,.11,.04,.2-.04,.28l.25,.15-.18,.08-.22-.13-.11,.05,.1,.2-.15,.07-.32-.67Zm.19,.01l.14,.3,.09-.05c.11-.05,.13-.13,.09-.23-.04-.09-.12-.12-.23-.07l-.09,.05Z"/>
    </g>
    <path class="cls-19" d="M21.19,11.42s.01,.02,.01,.03c.04,.11,.09,.22,.13,.33,0,.02,.02,.03,.05,.04,.13,0,.25,.02,.38,.02,0,0,0,0,.01,0,0,0-.01,.02-.02,.02-.09,.08-.19,.16-.28,.24-.02,.01-.02,.03-.02,.05,.03,.13,.06,.25,.1,.39-.13-.08-.25-.15-.37-.23-.12,.08-.24,.15-.37,.23,.01-.05,.02-.1,.03-.14,.02-.08,.04-.17,.06-.25,0-.02,0-.04-.02-.05-.09-.08-.19-.16-.28-.24,0,0-.01,0-.02-.02,.05,0,.1,0,.14-.01,.09,0,.18-.01,.27-.02,.02,0,.03-.01,.03-.03,.04-.11,.09-.23,.14-.34,0,0,0-.02,.01-.03Z"/>
    <path class="cls-19" d="M21.36,14.87c-.05-.03-.09-.06-.14-.09-.07-.04-.14-.08-.2-.13-.02-.01-.03-.01-.05,0-.1,.06-.19,.12-.29,.18-.01,0-.03,.02-.05,.03,0-.01,0-.02,0-.03,.03-.12,.06-.24,.09-.36,0-.02,0-.03-.02-.05-.1-.08-.2-.16-.29-.25,0,0,0,0-.01-.01,.01,0,.02,0,.03,0,.13,0,.25-.02,.38-.02,.02,0,.03-.01,.04-.03,.05-.11,.09-.23,.14-.34,0,0,0-.01,.01-.03,0,.02,.01,.03,.02,.04,.04,.11,.09,.22,.13,.33,0,.02,.02,.03,.04,.03,.13,0,.25,.02,.38,.02,0,0,0,0,.02,0-.11,.09-.22,.18-.33,.28,.03,.14,.07,.27,.1,.42Z"/>
    <path class="cls-19" d="M21.23,10.41c-.06-.04-.12-.07-.17-.11-.06-.03-.11-.07-.17-.11-.02-.01-.03-.01-.05,0-.1,.06-.2,.13-.3,.19-.01,0-.02,.01-.04,.02,.04-.14,.07-.28,.1-.42-.11-.09-.22-.18-.33-.28,.01,0,.02,0,.03,0,.12,0,.25-.02,.37-.02,.02,0,.03,0,.03-.03,.04-.11,.09-.22,.13-.33,0-.01,.01-.03,.02-.04,.03,.07,.06,.14,.09,.21,.02,.05,.04,.11,.06,.16,0,.02,.02,.03,.04,.03,.13,0,.25,.02,.38,.02,0,0,0,0,.01,0-.04,.03-.07,.06-.1,.08-.07,.06-.14,.12-.21,.17-.02,.01-.02,.03-.01,.05,.03,.12,.06,.24,.09,.36,0,0,0,.01,0,.03Z"/>
    <path class="cls-19" d="M20.41,8.4c-.05-.03-.1-.06-.16-.09-.07-.04-.13-.08-.2-.13-.12,.07-.24,.15-.37,.23,0-.02,0-.04,.01-.06,.03-.11,.06-.22,.08-.33,0-.02,0-.03-.02-.04-.09-.07-.18-.15-.27-.23-.01,0-.02-.02-.04-.03,.05,0,.08,0,.12,0,.09,0,.18-.01,.28-.02,.03,0,.04-.01,.05-.03,.04-.11,.08-.21,.13-.32,0-.01,.01-.03,.02-.05,.06,.14,.11,.27,.16,.4,.14,0,.28,.02,.43,.03,0,0-.01,.02-.02,.02-.09,.08-.19,.16-.28,.24-.02,.02-.02,.03-.02,.06,.03,.11,.06,.22,.09,.34,0,.01,0,.02,0,.04h0Z"/>
    <path class="cls-19" d="M3.8,16.84c.02-.07,.03-.15,.05-.22,.02-.07,.04-.15,.06-.22,0-.03,0-.05-.02-.07-.12-.09-.23-.19-.34-.29,0,0,0,0-.01-.02,.17-.01,.34-.02,.51-.03,.06-.15,.12-.31,.19-.48,.01,.03,.02,.04,.03,.06,.05,.13,.1,.25,.15,.38,.01,.03,.03,.04,.06,.04,.15,0,.3,.02,.47,.03-.02,.02-.03,.03-.04,.04-.11,.09-.21,.18-.32,.27-.02,.02-.02,.03-.02,.06,.04,.14,.07,.29,.11,.43,0,0,0,.01,0,.03-.15-.09-.29-.18-.43-.27-.06,.04-.12,.08-.19,.12-.07,.04-.14,.09-.21,.13,0,0-.02,.01-.03,.02h0Z"/>
    <g>
      <path class="cls-4" d="M16.83,3.44c.09,.02,.18,.03,.27,.05,.34,.07,.66,.19,.91,.46,.26,.28,.42,.6,.4,.99,0,.1,.02,.17,.08,.25,.18,.23,.29,.5,.28,.8,0,.23-.07,.44-.2,.63-.22,.35-.53,.58-.94,.66-.14,.03-.24,.01-.42-.05-.16,.27-.4,.41-.72,.41,.02,.16,.05,.31,.07,.47,0,.02,.02,.04,.04,.06,.63,.46,.66,1.38,.33,1.89-.07,.11-.16,.21-.24,.32-.02,.03-.04,.06-.04,.1-.02,.13-.04,.25-.11,.36-.12,.19-.27,.22-.45,.1,0,0-.01,0-.02-.01-.03,.06-.05,.12-.08,.18-.05,.08-.09,.16-.15,.22-.16,.15-.32,.13-.44-.06-.02,.04-.04,.08-.06,.11-.05,.08-.11,.15-.19,.2-.14,.08-.27,.04-.34-.1-.02-.05-.04-.1-.05-.14,0,0-.02,0-.02,0-.14,.04-.26,.1-.33,.24-.02,.03-.06,.06-.09,.09-.03,.03-.06,.05-.09,.07,.07,.07,.13,.14,.2,.21,0,0,.02,.01,.03,.01,.2-.05,.39,0,.59,.06,1.13,.33,2.02,.99,2.65,1.99,.37,.58,.7,1.18,1,1.8,.01,.03,.04,.06,.07,.08,.38,.35,.73,.74,1.02,1.18,.18,.27,.3,.57,.35,.89,0,0,0,.01,.01,.02v.31c-.02,.05-.04,.1-.06,.16-.05,.12-.15,.17-.27,.17-.03,0-.06,0-.1,0,.06,.17,.09,.33,.08,.5-.02,.35-.25,.66-.6,.71,0,0-.01,0-.02,.01h-.29s-.01-.02-.02-.02c-.11-.03-.21-.08-.28-.17-.14,.1-.25,.12-.42,.09-.31-.05-.58-.19-.84-.35-.15-.09-.28-.2-.38-.34-.01-.02-.05-.03-.07-.04-.24,0-.48,0-.73-.02-.34-.02-.68-.05-1.02-.09-.41-.05-.81-.11-1.21-.16-.14-.02-.28-.05-.43,0-.04,.02-.09,.02-.14,.02-.14,0-.27,.02-.41,.01-.04,0-.06,0-.09,.03-.32,.32-.68,.57-1.08,.76-.61,.29-1.21,.27-1.81-.02-.18-.08-.32-.21-.36-.41-.13,0-.25,.02-.38,.01-.46-.04-.85-.22-1.18-.53-.08-.07-.14-.17-.19-.26-.08-.17-.04-.33,.11-.44,0,0,.02-.01,.02-.02,0-.02-.02-.04-.02-.06-.09-.25-.02-.45,.21-.59,.08-.05,.17-.09,.25-.13,.18-.08,.34-.18,.49-.31,.32-.28,.58-.63,.85-.96,0,0,0,0,.01,0,0,0-.01,0-.02,0-.24,.01-.48,.09-.72-.02-.04,.05-.07,.09-.1,.14-.21,.26-.49,.42-.79,.54-.57,.22-1.16,.26-1.77,.22-.1,0-.2-.02-.3-.04,.02,.07,.04,.13,.06,.2,.04,.18-.03,.35-.17,.43-.15,.09-.33,.07-.48-.05-.07-.06-.13-.14-.19-.22-.02-.03-.04-.06-.05-.07-.04,.1-.08,.21-.14,.3-.06,.1-.11,.1-.21,.04-.14-.09-.23-.22-.27-.37-.05-.17-.08-.35-.1-.53-.02-.11-.01-.22-.02-.34-.13,.05-.19,.03-.25-.09-.03-.05-.04-.11-.06-.16,0-.02-.02-.05-.03-.07,0-.11,0-.23,0-.34,0-.03,.02-.06,.03-.09,.1-.29,.18-.59,.29-.87,.05-.14,.14-.27,.25-.38,.02-.02,.03-.04,.04-.06,.07-.18,.14-.37,.22-.55,.07-.15,.16-.31,.25-.45,.42-.61,.88-1.18,1.42-1.69,.37-.35,.79-.64,1.26-.86,.03-.01,.06-.04,.07-.07,.09-.15,.19-.28,.33-.38,.15-.1,.24-.24,.3-.4,.09-.25,.17-.51,.24-.77,.06-.2,.05-.4,.01-.6-.02-.12-.06-.24-.09-.36-.04-.15-.08-.3-.07-.46,0-.05,0-.1,.02-.15,.06-.22,.24-.35,.47-.32,.2,.02,.38,.09,.55,.19,.56,.34,.91,.84,1.08,1.48,.04,.14,.05,.29,.07,.44,0,.02,0,.05,.01,.08,.1,0,.2,0,.3-.01,.04,0,.07-.02,.07-.07,0-.06,.02-.12,.04-.18-.03,0-.06-.01-.09-.03-.14-.05-.22-.18-.18-.32,.03-.09,.08-.18,.14-.27,.04-.06,.09-.11,.14-.17-.11-.11-.14-.2-.05-.33,.25-.43,.62-.68,1.13-.68,.04,0,.05,0,.07-.04,.15-.26,.35-.46,.59-.62,.06-.04,.09-.08,.09-.16,.06-.51,.27-.94,.6-1.33,.55-.65,1.21-1.12,2.04-1.33,.16-.04,.33-.06,.49-.09,.02,0,.03-.01,.05-.02,.18,0,.36,0,.54,0Zm-2.57,7.91s-.01,.01-.02,.02h0s-.03,.02-.05,.03h0c-.06,.02-.12,.04-.19,.05-.11,0-.23,0-.34,0-.1-.03-.2-.04-.3-.08-.48-.21-.77-.55-.83-1.08,0-.34,.1-.66,.24-.97,.09-.21,.2-.41,.31-.62,.04-.06,.07-.12,.11-.18,.03-.05,.07-.1,.11-.16-.06-.03-.1-.06-.15-.08-.02,0-.05,0-.06,0-.06,.06-.12,.13-.18,.19-.07,.11-.14,.21-.21,.32-.02,.03-.04,.05-.05,.08-.09,.24-.18,.47-.26,.71-.07,.21-.09,.42-.08,.64,.02,.13,.03,.26,.05,.39,0,.02,0,.03,0,.05,.12,.46,.42,.76,.85,.93,.27,.11,.54,.14,.82,.03,.25-.1,.45-.39,.44-.65-.01,0-.02,.02-.03,.02-.04,.02-.09,.05-.13,.07-.02,0-.04,.02-.06,.03-.11,.06-.23,.11-.37,.07-.03,.05-.05,.1-.09,.16,.09-.01,.17-.02,.24-.03,.09-.02,.17-.06,.23-.13,.01-.01,.03-.02,.04-.04,.06,.03,.02,.08,.01,.11h0s-.02,.03-.03,.05h0s-.01,.01-.02,.02h0s-.01,.01-.02,.02h0Zm.89-4.49s.01,.01,.02,.02c.06,.09,.12,.17,.18,.26,0-.04,0-.08,.02-.11,.06-.11,.02-.2-.05-.29-.07-.09-.11-.2-.22-.25-.13-.07-.27-.12-.42-.09-.21,.02-.38,.1-.53,.24-.1,.09-.19,.2-.29,.3-.02,.02-.04,.04-.06,.06,0,0-.01,0-.02-.01,0-.02,0-.03,.01-.05,.03-.05,.07-.11,.11-.16,.2-.25,.44-.43,.76-.49,.14,0,.28,.01,.4,.09,0,0,.02,0,.02,0,0,0,0-.02,0-.03-.06-.08-.11-.15-.17-.23-.01-.02-.03-.04-.05-.04-.11-.03-.22-.05-.32-.07-.03,0-.05-.01-.08-.01-.48-.02-.9,.13-1.28,.41-.26,.17-.48,.39-.65,.64,.03,.02,.05,.03,.08,.05,0,0,0,.02,0,.02-.03,0-.05,0-.08,.01-.09,0-.18,0-.28,0-.06,0-.11,.03-.17,.05-.06,.01-.12,.02-.18,.05-.22,.09-.39,.25-.53,.44-.02,.04-.05,.08-.07,.13-.03,.07,0,.12,.07,.15,.08,.04,.09,.06,.02,.14-.09,.11-.18,.21-.25,.32-.11,.18-.03,.3,.18,.3,.1,0,.12,.03,.07,.12-.08,.15-.08,.31-.03,.47,.04,.11,.09,.13,.2,.09,.03-.01,.06-.02,.09-.03,0,0,0,.01,.01,.02-.02,.03-.04,.07-.07,.1,.01,.03,.03,.06,.04,.09,.03,.07,.07,.13,.1,.2,.01,.03,.04,.06-.02,.07-.07-.11-.14-.21-.21-.32-.22,.01-.26-.16-.3-.31h-.36c-.01,.16-.02,.3-.03,.44-.03,.06-.05,.12-.08,.19,.01,0,.02,.01,.04,.02,.45,.16,.85,.4,1.14,.78,0,0,0,.01,.01,.02h0c.1,.16,.18,.32,.21,.51,.02,.13,.02,.27,.03,.4,0,.04,0,.07,0,.11,.09-.03,.12,0,.11,.09,0,.08,0,.16-.01,.25,0,0,.01,0,.02,0,.04-.05,.09-.1,.13-.16,.13-.1,.27-.19,.34-.35-.21-.16-.36-.37-.47-.6-.02-.09-.05-.17-.12-.23-.05-.07-.1-.13-.14-.2-.04-.07-.08-.13-.07-.22,.02,.01,.05,.02,.07,.04,.05,.06,.09,.12,.15,.19,0-.1,0-.18-.01-.26,.01-.15,.02-.29,.04-.44,.08-.47,.25-.91,.53-1.31,.04-.04,.07-.09,.11-.13,.04-.04,.09-.08,.14-.13-.03,0-.05,0-.06-.01-.04,0-.09-.01-.13-.02-.02,0-.03,0-.05-.01h0s.03-.04,.06-.05c.13-.02,.25,0,.36,.06,.09,.05,.18,.1,.27,.15,.09,.05,.16,.13,.21,.23,.02,.05,.05,.09,.08,.14,.02,.03,.04,.06,.07,.08,.1,.08,.2,.06,.26-.05,.02-.07,.03-.13,.05-.2,.02-.08,0-.15-.04-.22-.19-.31-.46-.52-.83-.56-.02,0-.04,0-.06-.01,0,0,0-.02,0-.03,.16-.03,.31,.04,.45,.09,.02-.12,.04-.24,.06-.35,.05-.1,.09-.2,.15-.28,.21-.28,.48-.47,.82-.54,.25,0,.49,.12,.55,.27-.03-.02-.05-.03-.07-.04,0,0,0,0-.01-.01-.01,0-.02,0-.04,0,0,0,0,0,0,.01,0,0,.02,0,.03,.01Zm-2.3,3.13h0s.05-.01,.08-.02c.02,.03,0,.05-.02,.07-.08,.06-.13,.14-.15,.24-.02,.07-.03,.15-.03,.23,0,.03,0,.06,0,.09,.07,.16,.17,.31,.31,.42,.16,.17,.37,.25,.6,.31,.04-.07,.08-.14,.12-.21,.05-.09,.06-.19,.05-.3,0-.2-.06-.37-.22-.51-.05-.03-.09-.06-.15-.11,.04,.25,.04,.48-.08,.69-.02,.01-.03,.02-.05,.03,0,0,0,0-.01,0,0-.02,0-.05,.01-.07,.02-.11,.04-.22,.04-.33,0-.21-.03-.41-.15-.59-.07-.1-.15-.17-.28-.18h-.1s-.08-.03-.09,.02c-.04,.16-.07,.32-.07,.5,.03-.07,.05-.11,.08-.16,.03-.03,.06-.06,.08-.1,0,0,.01-.01,.02-.02Zm-.8,2.17c-.05,.1-.11,.2-.21,.25,0,.03,.02,.06,.02,.09,0,.13,0,.26,0,.38-.03,.26-.17,.46-.35,.65-.1,.09-.21,.19-.36,.21,.01,.04,.03,.07,.04,.11,.01,.12,.03,.24,.03,.36,0,.09-.02,.18-.03,.27-.08,.2-.15,.4-.22,.59,.15,.03,.32,.06,.48,.1,.24,.06,.48,.14,.73,.2,.07,.02,.15,.01,.22,.02h.54s.03-.01,.05-.01c.04,0,.09,0,.13-.01,.26-.04,.52-.08,.78-.12,.07,0,.13-.02,.2-.03,.18-.03,.36-.05,.54-.08h.12c.07-.32,.14-.64,.09-.97-.16,0-.28-.05-.41-.12-.03-.02-.05-.04-.08-.06-.07-.07-.14-.14-.2-.21,.01-.06,.04-.03,.07-.01,.12,.07,.24,.14,.36,.2,.09,.04,.19,.05,.29,.03,.11-.02,.17-.09,.16-.2,0-.07-.03-.14-.05-.21-.04-.14-.11-.25-.2-.36-.1-.12-.2-.24-.3-.37-.05-.06-.09-.13-.14-.2,0,.04,0,.07,0,.1,0,.2-.06,.37-.21,.5-.04,.04-.09,.07-.13,.1-.03,.01-.06,.02-.08,.04-.07,.02-.14,.03-.21,.05-.19-.01-.39-.02-.54-.17-.12,.06-.24,.06-.37,.06-.07-.02-.14-.04-.2-.05-.09-.02-.17-.06-.23-.13-.23-.2-.29-.45-.24-.74,.01-.05,.03-.1,.04-.15,0-.03,.03-.06,.02-.08-.01-.1-.03-.2-.04-.3-.03,.09-.06,.18-.1,.28Zm2.3-1.78c.15-.06,.31-.12,.47-.19-.09,0-.16,0-.23-.01-.15-.04-.27,.01-.39,.09-.08,.05-.16,.1-.23,.16-.12,.11-.1,.07-.06,.21,0,0,0,.01,0,0,.14-.09,.28-.17,.42-.26Zm3.91,8.55s-.01-.02-.02-.03c-.02-.02-.04-.04-.07-.06-.05-.06-.1-.11-.15-.17-.06-.07-.07-.09-.03-.15,.07,.05,.14,.09,.22,.14,.01,.01,.03,.03,.04,.04,.01,0,.02,0,.03,.01,.06,.08,.13,.16,.19,.24,.04,.09,.07,.19,.11,.28v.26c.09,.04,.18,.08,.27,.11,.2,.08,.49-.02,.61-.19,.02-.02,.04-.05,.05-.07,.08-.18,.1-.36,.05-.55-.04-.1-.06-.21-.11-.3-.05-.11-.12-.21-.19-.32-.11-.16-.24-.31-.39-.44-.07-.06-.14-.1-.21-.15,0-.01,0-.02,0-.04,.03,0,.06,0,.09,0,.16,.06,.29,.16,.41,.28,.08,.08,.15,.17,.22,.25,.05,.08,.11,.16,.16,.24,.04,.07,.09,.1,.17,.11,.14,0,.2-.04,.21-.19,0-.11,0-.22,0-.33-.02-.19-.09-.37-.17-.54-.23-.46-.56-.85-.91-1.22,0,0-.02-.01-.04-.03,.02,.09,.05,.17,.06,.26,.02,.11,.03,.22,.04,.32,0,.02-.02,.03-.03,.05-.01-.01-.03-.02-.03-.04-.01-.03-.02-.07-.03-.1-.01-.04-.03-.08-.05-.12,0-.03-.01-.05-.02-.08,0-.02,0-.03-.01-.05-.02-.05-.03-.1-.05-.15-.06-.15-.13-.3-.19-.45-.01-.03-.03-.05-.04-.08,0-.02-.02-.04-.03-.06-.06-.12-.13-.24-.19-.35,0-.01-.02-.03-.02-.04-.01-.02-.03-.05-.04-.07,0-.01-.02-.03-.02-.04-.04-.07-.08-.15-.12-.22,0-.01-.02-.03-.02-.04-.03-.05-.05-.11-.08-.16-.14-.23-.29-.47-.43-.7,0-.01-.02-.02-.02-.04-.14-.17-.27-.35-.41-.52-.02-.02-.03-.04-.05-.06-.49-.55-1.1-.91-1.78-1.16-.07-.03-.14-.04-.21-.06-.17-.06-.35-.08-.53-.07,.02,.13-.03,.22-.11,.31,.05,.07,.09,.13,.14,.19,.08,.11,.15,.22,.23,.32,.08,.1,.17,.2,.25,.3,.09,.12,.17,.25,.21,.4,.04,.16,.05,.32-.07,.46-.04,.03-.08,.06-.13,.08,0,.06,.02,.12,.02,.18,0,.13,0,.26,0,.4-.02,.14-.04,.27-.06,.4,.17,.01,.34,.03,.5,.04,.02,0,.04-.02,.07-.03,.19-.1,.5-.05,.65,.1,0,0,0,.02,.01,.03-.01,0-.03,0-.04,.01-.15-.07-.31-.13-.48-.07,.21,.06,.41,.15,.59,.29,.02,.02,.03,.04,.05,.07-.03,0-.06,0-.09-.02-.12-.06-.23-.12-.37-.14-.02-.01-.04-.03-.06-.03-.14-.03-.29-.06-.43-.08-.4-.04-.79,.02-1.19,.09-.36,.06-.72,.11-1.08,.16-.08,.01-.16,.01-.24,.02,.15,.06,.29,.1,.44,.14,.29,.09,.58,.19,.84,.35,.03,.02,.06,.04,.09,.06,.01,.01,.01,.04,.01,.06-.02,0-.03,.01-.05,0-.03,0-.05-.02-.08-.02-.27-.1-.53-.21-.81-.28-.6-.17-1.21-.33-1.82-.5-.19-.05-.38-.09-.58-.07-.04,0-.09,.02-.11,.05-.19,.2-.41,.33-.68,.39-.06,.01-.11,.04-.14,.08-.17,.2-.34,.39-.51,.6-.28,.35-.6,.66-1.01,.85-.08,.04-.16,.09-.24,.13-.12,.08-.16,.23-.1,.35,.02,.03,.04,.05,.08,.04,.07-.02,.13-.02,.2-.03,.09-.01,.18-.02,.26-.03,.18,0,.34-.06,.49-.14,.26-.16,.52-.32,.78-.49,.11-.07,.22-.16,.33-.24,.02-.01,.05,0,.07-.01,0,.02,0,.05-.01,.06-.04,.06-.09,.12-.14,.18-.31,.31-.69,.52-1.08,.7-.12,.06-.26,.09-.39,.12-.16,.03-.32,.04-.48,.07-.04,.01-.08,.02-.12,.03-.14,.06-.17,.13-.1,.26,.02,.04,.04,.07,.07,.1,.08,.08,.16,.17,.26,.24,.33,.25,.69,.37,1.1,.32,.1-.01,.18-.05,.22-.15,.15-.15,.32-.26,.51-.36,.11-.06,.23-.12,.34-.17,.25-.11,.45-.27,.6-.51,.04-.06,.09-.12,.15-.18,.05-.05,.11-.09,.17-.13,.02-.01,.06-.01,.08-.02,0,.03-.01,.06-.03,.07-.07,.09-.14,.17-.21,.26-.05,.06-.08,.13-.12,.19-.09,.16-.22,.28-.38,.37-.11,.06-.23,.12-.34,.18-.15,.08-.29,.17-.44,.25-.05,.05-.11,.1-.16,.14-.12,.13-.11,.24,.01,.36,.06,.05,.12,.09,.19,.13,.37,.18,.76,.21,1.15,.14,.26-.04,.5-.14,.72-.28,.38-.21,.73-.47,1.01-.81,.1-.12,.2-.23,.3-.34,.03-.03,.06-.05,.09,0-.02,.05-.05,.11-.07,.16-.02,.03-.04,.07-.06,.1-.06,.08-.12,.17-.18,.25,0,0,0,.01,0,.02,.11,0,.22,0,.33-.03,.32-.05,.63-.12,.88-.37,.01-.01,.04,0,.06,0-.03,.06-.05,.13-.09,.18-.05,.06-.12,.11-.18,.17,.13,.02,.26,.04,.38,.06,.67,.11,1.34,.18,2.01,.23,.32,.02,.63,0,.95-.06,.02,0,.05,.02,.07,.02-.01,.02-.02,.04-.03,.06-.02,.01-.05,.03-.07,.04-.08,.03-.16,.06-.26,.09,.07,.06,.13,.13,.2,.18,.22,.15,.45,.27,.7,.35,.09,.03,.18,.05,.27,.06,.13,.02,.21-.04,.23-.15,0-.06,0-.12,0-.18-.02-.12-.1-.19-.18-.28Zm-4.14-6.8c.04,.06,.09,.11,.13,.17,.12-.07,.12-.22,.02-.34-.07-.07-.14-.14-.2-.2-.08,.02-.16,.04-.23,.06,.07,.13,.18,.21,.29,.31Zm1.89-4.22h.06c.13,.05,.26,.09,.4,.13-.02-.11-.04-.22-.06-.34-.01-.08-.05-.12-.13-.12-.08-.03-.16-.06-.23-.11-.13-.08-.24-.18-.36-.27-.07-.08-.15-.17-.23-.26-.11,.32-.01,.63,.02,.94,0-.12,0-.25,.07-.36h.08c-.08,.15-.05,.24,.07,.24,0,.06,0,.11,.01,.16,.1,0,.2-.01,.3-.02h0ZM5.25,16.63c.02,.06,.04,.12,.07,.17,.07,.12,.15,.23,.27,.31,.14,.09,.32,0,.32-.15,0-.05-.01-.1-.02-.15-.03-.07-.05-.13-.08-.2-.01-.02-.02-.05-.04-.06-.03-.02-.07-.04-.11-.06-.02-.02-.04-.04-.06-.06,0-.04,.03-.06,.07-.06,.09,0,.17,.02,.26,.04,.45,.11,.91,.11,1.37,.04,0,0,.02,0,.02,0,.36-.05,.7-.14,1.02-.32,.19-.11,.36-.25,.48-.44-.1-.09-.18-.19-.23-.31-.04-.14-.02-.26,.07-.38-.08-.02-.14-.04-.21-.06-.26-.09-.48-.23-.63-.47,.03,0,.06,0,.09,.03,.6,.39,1.25,.48,1.95,.38,.14-.02,.27-.09,.41-.13,.02,0,.04,0,.07,0-.01,.02-.02,.04-.04,.06-.01,.01-.03,.02-.05,.03-.12,.05-.24,.1-.36,.15-.05,.01-.09,.02-.15,.03,.01,.01,.02,.02,.02,.02,.08,.06,.17,.09,.27,.08,.04,0,.07,0,.04,.05-.05,.01-.11,.02-.16,.03-.1-.01-.2-.04-.27-.12-.03-.04-.06-.04-.1-.04-.18,0-.37,.01-.55,0-.08,0-.14,0-.19,.07-.05,.07-.07,.14-.04,.22,.05,.12,.13,.22,.26,.25,.13,.03,.27,.06,.4,.05,.3-.02,.59-.08,.87-.17,.19-.06,.33-.18,.43-.36,.21-.31,.34-.66,.34-1.04,0-.19-.06-.36-.2-.5-.1-.09-.19-.19-.3-.27-.39-.28-.82-.42-1.3-.43-.03,0-.05,0-.08-.01,0,0,0-.02,0-.03,.04,0,.07-.01,.11-.02,.09,0,.19,0,.28,0,.01,0,.03,0,.04,.01,.02,0,.05,0,.07,0,.02,0,.03,0,.05,0,.14,.03,.27,.07,.41,.1h0s0,0,0,0c.05,.02,.09,.04,.14,.06,.09,.05,.18,.09,.27,.14,.19,.13,.38,.27,.51,.47,.11-.01,.19-.05,.27-.12,.21-.19,.35-.42,.37-.7,.04-.43-.19-.75-.51-1.01-.04-.03-.08-.07-.12-.1-.22-.14-.45-.27-.7-.36-.19-.07-.39-.12-.6-.1-.05,0-.1,.01-.15,.02,0-.07,.02-.09,.1-.12,.16-.05,.33-.05,.49,0,.42,.11,.81,.3,1.15,.58,.17,.16,.32,.34,.43,.56,.05-.07,.1-.14,.13-.22,.14-.33,.13-.67,.01-1-.09-.26-.25-.47-.48-.63-.15-.09-.29-.19-.44-.26-.4-.17-.81-.29-1.24-.32-.12,0-.24-.03-.37-.03-.19,0-.38,.02-.57,.07-.37,.1-.64,.31-.81,.66-.1,.26-.18,.52-.15,.79,.15-.02,.28-.04,.41-.06,.02,.04,0,.05-.03,.06-.03,0-.06,.01-.09,.03-.38,.15-.66,.41-.84,.77-.04,.08-.05,.18-.07,.27-.04,.22,.08,.39,.16,.56,.09-.03,.18-.06,.27-.08,.03,.04,0,.06-.02,.07-.06,.05-.12,.09-.18,.13-.11,.07-.21,.16-.28,.28-.08,.09-.12,.19-.14,.31-.05,.26,.02,.5,.15,.72,.01,.03,.02,.06,.04,.08,.29,.39,.61,.74,1.04,.97,.04,.02,.08,.05,.12,.07,0,0,0,.02,0,.03-.03,0-.06,.03-.09,.03-.08-.01-.16-.03-.24-.05-.11-.08-.22-.15-.33-.23-.05-.05-.09-.1-.14-.14-.16-.12-.27-.27-.39-.42-.08-.11-.14-.23-.22-.34-.01-.03-.02-.06-.04-.09-.06-.13-.08-.27-.09-.41,0-.09,.02-.19,.04-.29,.04-.21,.17-.36,.32-.5,.03-.02,.06-.04,.09-.07-.14-.11-.16-.27-.2-.42-.14,.12-.27,.24-.4,.35-.18,.17-.35,.34-.53,.51,0,0,0,.03-.01,.05-.04,.04-.08,.07-.11,.12-.17,.23-.29,.48-.41,.74-.01,.02-.03,.04-.05,.06-.06,0-.02-.05-.03-.07,0,0,0-.02,.01-.03,0-.01,0-.02,0-.03,.03-.11,.07-.22,.1-.33,0,0,0,0,0-.01-.02,0-.04,.01-.07,.02,0,0,0,0-.01-.01,.03-.06,.07-.11,.13-.15,.02-.01,.05-.03,.06-.05,.1-.14,.19-.28,.29-.42,.08-.08,.15-.17,.23-.24,.15-.14,.3-.28,.45-.42,.07-.06,.13-.12,.21-.17,.08-.06,.15-.12,.15-.24,0-.02,.01-.05,.02-.07,.08-.27,.25-.49,.46-.68,.06-.04,.13-.08,.19-.12-.13-.26-.03-.51,.03-.78-.3,.16-.57,.33-.8,.55-.17,.16-.36,.31-.52,.48-.21,.22-.4,.45-.59,.68-.06,.08-.12,.15-.18,.23-.13,.16-.25,.33-.38,.49-.12,.15-.21,.33-.28,.51-.05,.12-.1,.23-.14,.35-.07,.18-.12,.37-.19,.55-.01,.03-.01,.08-.07,.06,0-.06,0-.12,0-.18h-.02c-.06,.13-.12,.26-.17,.4-.07,.21-.12,.42-.17,.64-.04,.17-.03,.34,.06,.52,.02-.04,.04-.07,.06-.1,.04-.1,.09-.19,.13-.29,.08-.05,.11-.04,.16,.04,0,.03-.01,.06-.02,.09-.09,.34-.08,.68-.01,1.02,.03,.18,.09,.35,.25,.48,.02-.07,.04-.13,.05-.19,.01-.09,.02-.17,.03-.26,0-.03,0-.06,0-.1,0-.05,0-.09,.06-.12,.07,0,.11,.02,.13,.09,0,.03,.02,.06,.04,.09Zm8.17-4.2c.07,.16,.08,.32,.05,.49-.02,.06-.04,.11-.06,.17-.02,.03-.04,.05-.07,.08-.06,.06-.06,.08,.02,.12,.02,0,.04,.02,.05,.02,.09,0,.18,.01,.27,.02,.11,0,.2-.02,.29-.08,.16-.11,.28-.25,.26-.46,0-.05,0-.11-.02-.16-.02-.07-.05-.14-.07-.22-.02-.04-.03-.08-.05-.12-.06-.07-.13-.13-.2-.19-.03-.03-.06-.05-.07-.08-.04-.14-.14-.17-.27-.18-.14-.01-.28-.06-.43-.09-.06-.03-.12-.06-.18-.09-.03-.02-.06-.05-.1-.08-.03,.06-.05,.1-.07,.14-.1,.1-.21,.2-.3,.3-.05,.05-.08,.13-.12,.19-.02,.04-.05,.08-.07,.12-.05,.12-.09,.25-.06,.39,.07,.31,.38,.54,.7,.51,.2-.02,.34-.11,.38-.29,.07-.15,.07-.31,.02-.47-.01-.04-.01-.08-.02-.12,.02,0,.04,0,.05,.02,.02,.02,.03,.05,.04,.08Zm4.51-7.76c.12,.09,.23,.17,.36,.27,0-.22-.03-.4-.15-.58-.06-.14-.15-.25-.26-.34-.03-.03-.05-.05-.08-.08-.35-.27-.76-.36-1.19-.36-.2,0-.4,.01-.59,.06-.31,.05-.6,.14-.88,.29-.44,.21-.82,.5-1.15,.86-.19,.19-.36,.41-.5,.65-.05,.08-.08,.17-.12,.25-.04,.11-.08,.22-.11,.33-.02,.07-.03,.15-.05,.23,0,0,0,0,0,0,0,0,0,0,0,0,.08-.04,.17-.09,.25-.13,.27-.13,.55-.21,.85-.2,.13,0,.25,.01,.38,.02,0,0,0,0,0,0,0,0,0,0,0,0,0,0,0,0,0,0-.09-.08-.2-.13-.31-.16,0-.01-.02-.03-.02-.04,.02,0,.04-.02,.05-.02,.1,.03,.2,.06,.29,.11,.11,.07,.19,.16,.29,.24,.16,.23,.32,.47,.49,.7,.16,.22,.33,.43,.56,.57,.2,.12,.41,.21,.65,.15,.16-.04,.29-.11,.38-.26,.09-.1,.13-.23,.14-.36,.02-.2,0-.39-.1-.57-.02-.04-.03-.07-.06-.11-.25-.36-.62-.49-1.03-.55-.05,0-.09,0-.12-.06,.09,0,.17,.01,.26,.01,.14,0,.27,.05,.41,.09,.06,.02,.12,.05,.17,.08,.12,.05,.21,.14,.3,.22,.11,.14,.22,.29,.26,.46,.02,.08,.03,.16,.05,.24-.02,.14-.03,.28-.05,.43,.01,0,.04,.02,.07,.03,.13,.04,.26,.03,.39-.01,.27-.08,.48-.25,.65-.47,.08-.1,.16-.21,.18-.34,.02-.07,.05-.14,.06-.22,.02-.13,.02-.26-.03-.39-.03-.24-.17-.43-.33-.6,0,0-.02,0-.03-.01-.17-.2-.39-.33-.62-.44-.25-.13-.52-.19-.8-.17-.15,.01-.29,.07-.44,.12-.02,0-.04,0-.06-.01,0-.02,.01-.04,.03-.05,.04-.03,.09-.05,.13-.08,.27-.14,.54-.13,.83-.07,.07,.02,.13,.04,.19,.05,.14,.07,.27,.13,.41,.2Zm-2.08,5.31c.15,.01,.29,.05,.4,.16,.08,.08,.12,.17,.11,.3,.05-.03,.08-.06,.11-.08,.36-.27,.55-.63,.55-1.08-.01-.1-.01-.2-.03-.29-.08-.33-.23-.62-.54-.79-.06-.03-.13-.05-.19-.08-.21-.08-.42-.09-.63-.02-.24,.07-.42,.22-.58,.4-.12,.13-.22,.27-.33,.41-.04-.02-.02-.05,0-.07,.03-.06,.06-.11,.09-.17,0,0,0,0,0-.01,0,0,0,0-.01,0-.18,.04-.37,.05-.53,0-.06,.09-.12,.17-.17,.25-.05,.02-.11,.03-.16,.05-.07-.02-.15-.04-.22-.07-.04,.11-.06,.18-.02,.36,.06,.36,.26,.62,.6,.75,.29,.11,.6,.1,.91,.07,.19-.02,.38-.05,.56-.08,.02,0,.03,0,.05,0,.01,0,.02,0,.03,0Zm-.54-1.94c.08-.2,.08-.41,.04-.62-.03-.19-.11-.36-.26-.5-.1-.09-.21-.14-.34-.15-.18,0-.35,.06-.49,.17-.21,.14-.34,.34-.42,.58-.01,.08-.03,.16-.04,.24-.01,.09,.02,.15,.1,.21,.18,.13,.31,.29,.35,.52,0,.02,.03,.04,.05,.05,.13,.05,.26,.06,.4,.03,.11-.02,.2-.06,.27-.15,.04-.04,.07-.09,.11-.13,.05-.05,.1-.09,.15-.13,0-.01,.01-.02,.02-.03,.01-.03,.03-.07,.04-.1Zm-6.38,1.03c-.08,.21-.16,.42-.25,.64,.65-.21,1.29-.07,1.94,.08,.02-.13,.04-.26,.06-.38,0-.08,0-.16,0-.24,0-.39-.12-.75-.3-1.08-.21-.39-.51-.69-.92-.88-.1-.05-.2-.08-.31-.09-.15-.02-.26,.05-.29,.2-.02,.09-.02,.19,0,.27,.05,.26,.16,.52,.17,.79,0,.04,0,.08,0,.13,0,.02,0,.05,0,.07,0,.04,0,.07,0,.11-.03,.13-.06,.26-.09,.39Zm5.17,2.01c.08-.04,.15-.08,.23-.12,.07-.03,.13-.07,.2-.1,.07-.03,.1,0,.09,.07,0,.07-.02,.13-.03,.2-.01,.04-.03,.08-.04,.12,.14,.01,.18-.09,.24-.17,.02,.04,.03,.08,.04,.11,.02,.07,.04,.15,.07,.22,.04,.08,.1,.1,.17,.04,.06-.05,.11-.11,.15-.17,.04-.07,.06-.15,.1-.22,.01-.02,.04-.04,.07-.06,.02,.02,.04,.04,.05,.06,.01,.03,.01,.06,.03,.09,.05,.15,.16,.18,.26,.06,.07-.08,.13-.18,.18-.28,.03-.05,.04-.11,.06-.16,.02-.05,.06-.06,.1-.02,.03,.03,.06,.06,.1,.08,.06,.04,.12,.05,.18,0,.11-.09,.15-.21,.18-.34-.24,.09-.27,.09-.33,.03,.08-.18,0-.36-.2-.4-.07-.02-.15-.03-.23-.02-.17,.01-.34,.05-.52,.06-.2,.01-.38,.11-.56,.18-.2,.06-.38,.15-.54,.3-.06,.05-.12,.1-.18,.16-.01,.01-.02,.04-.02,.06-.01,.08-.02,.16-.03,.26,.06-.02,.12-.03,.17-.05Z"/>
      <path class="cls-29" d="M13.23,18.2c.02-.05,.05-.11,.07-.16,.06-.11,.13-.21,.19-.32,.02-.03,.02-.07-.03-.09-.18,.16-.37,.32-.55,.48-.26,.23-.54,.44-.85,.61-.44,.25-.92,.39-1.43,.37-.15,0-.31-.03-.43-.13-.08-.07-.14-.17-.21-.26,.15-.08,.29-.17,.44-.25,.11-.06,.23-.12,.34-.18,.16-.09,.29-.21,.38-.37,.04-.07,.07-.13,.12-.19,.07-.09,.14-.17,.21-.26,.02-.02,.02-.05,.03-.07,.01-.05,.02-.11,.04-.17-.02,0-.03,0-.04,.01-.11,.13-.25,.2-.38,.28-.24,.16-.48,.33-.73,.49-.39,.25-.81,.39-1.29,.35-.34-.03-.64-.16-.9-.39,.16-.02,.32-.03,.48-.07,.13-.03,.27-.06,.39-.12,.39-.18,.77-.4,1.08-.7,.02-.01,.05-.02,.07-.03,.09-.1,.17-.21,.26-.31,.04-.05,.07-.1,.1-.16,.01-.02,0-.05,0-.08-.02,0-.05,0-.07,.01-.03,.01-.05,.03-.07,.05-.09,.07-.17,.15-.27,.21-.29,.18-.6,.33-.93,.41-.27,.07-.53,.12-.81,.08,.42-.19,.73-.5,1.01-.85,.16-.2,.34-.4,.51-.6,.04-.05,.09-.07,.14-.08,.27-.05,.5-.18,.68-.39,.03-.03,.07-.05,.11-.05,.2-.01,.39,.02,.58,.07,.61,.16,1.21,.32,1.82,.5,.27,.08,.54,.19,.81,.28,.03,0,.05,.02,.08,.02,.02,0,.03,0,.05,0,0-.02,0-.05-.01-.06-.03-.02-.06-.04-.09-.06-.26-.16-.55-.26-.84-.35-.14-.04-.29-.09-.44-.14,.08,0,.16,0,.24-.02,.36-.05,.72-.11,1.08-.16,.39-.06,.79-.13,1.19-.09,.15,.01,.29,.05,.43,.08,.02,0,.04,.02,.06,.03-.04,0-.07,0-.04,.06,.02,.03,.03,.06,.03,.09,0,.26,.01,.52,.02,.79,0,.02,0,.04,0,.06-.01,.1-.03,.21-.04,.31,0,.05,0,.1-.01,.15-.02,.09-.07,.18-.08,.27-.02,.14-.09,.25-.13,.38-.02,.05-.02,.1-.05,.14-.07,.14-.16,.28-.21,.44-.02,.05-.05,.1-.08,.14-.04,.04-.06,.09-.05,.15-.29-.04-.58-.1-.86-.19,.02-.03,.05-.05,.08-.08,.09-.09,.16-.2,.2-.32,0-.02,0-.06,0-.08-.03,0-.06,.01-.08,.03-.05,.03-.09,.07-.13,.11-.14,.12-.3,.23-.48,.29-.22,.08-.45,.09-.68,.08Z"/>
      <path class="cls-1" d="M15.18,18.36c0-.06,.02-.1,.05-.15,.04-.04,.07-.09,.08-.14,.05-.16,.14-.29,.21-.44,.02-.04,.03-.1,.05-.14,.04-.13,.11-.24,.13-.38,.01-.09,.06-.18,.08-.27,.01-.05,0-.1,.01-.15,.01-.1,.03-.21,.04-.31,0-.02,0-.04,0-.06,0-.26,0-.52-.02-.79,0-.03-.02-.06-.03-.09-.03-.05,0-.06,.04-.06,.13,.02,.25,.08,.37,.14,.03,.01,.06,.02,.09,.02,.07,.04,.14,.09,.23,.14-.01-.09-.06-.14-.11-.18-.09-.08-.19-.16-.29-.24,.01,0,.03,0,.04-.01,.06,0,.11,.02,.18,.02-.03-.08-.09-.1-.14-.14-.15-.1-.32-.14-.49-.2-.09-.04-.2-.08-.26-.15-.17-.21-.28-.47-.34-.74,.13-.14,.12-.3,.07-.46-.04-.15-.12-.28-.21-.4-.08-.1-.17-.2-.25-.3-.08-.1-.15-.22-.23-.32,.02-.02,.04-.04,.06-.07,.1-.16,.25-.26,.42-.34,.01,0,.02-.02,.03-.03,.07,.02,.14,.04,.21,.06,.68,.25,1.29,.62,1.78,1.16,.02,.02,.03,.04,.05,.06-.04,.02-.03,.04-.02,.07,.03,.06,.07,.12,.09,.18,.06,.16,.13,.32,.19,.48,.03,.09,.06,.19,.09,.28,.03,.11,.07,.22,.09,.33,.03,.18,.06,.36,.09,.53,.02,.18,.05,.37,.06,.55,0,.22,.01,.45-.03,.67-.02,.14-.02,.28-.04,.42-.03,.18-.08,.36-.12,.54-.02,.08-.04,.17-.07,.25-.06,.17-.12,.34-.18,.51-.02,.05-.01,.08,.02,.12-.19,.07-.4,.08-.6,.1-.06,0-.13,0-.19,0-.19,0-.38,0-.57-.01-.05,0-.11,0-.16-.02-.17-.02-.34-.05-.51-.08Z"/>
      <path class="cls-25" d="M10.15,12.92c-.14-.03-.27-.07-.41-.1,0-.02-.01-.04-.02-.05,0,.02-.02,.03-.03,.05-.02,0-.05,0-.07,0,0-.03,0-.06-.04-.06,0,0,0,.03,0,.04h-.28s.03-.04,.06-.07c-.04-.02-.07-.04-.1-.06-.18-.09-.34-.21-.47-.35-.14-.16-.29-.31-.37-.52-.06-.16-.19-.3-.14-.5,.03-.01,.05-.02,.03-.06,.14-.05,.27-.09,.41-.14,0,0,0-.01,0-.02-.04-.01-.08-.03-.13-.04,0-.19-.02-.37,.04-.56,.04-.14,.1-.27,.14-.41,.03-.07,.09-.14,.08-.22,.18-.05,.37-.08,.57-.07,.12,0,.24,.03,.37,.03,.43,.02,.84,.15,1.24,.32,.16,.07,.3,.17,.44,.26,0,.03,0,.05,.02,.08,.1,.25,.16,.5,.13,.77-.02,.18-.08,.34-.23,.45-.34-.28-.72-.47-1.15-.58-.16-.04-.33-.04-.49,0-.08,.03-.1,.04-.1,.12,.05,0,.1-.02,.15-.02,.21-.01,.41,.03,.6,.1,.25,.09,.48,.21,.7,.36,.04,.03,.08,.07,.12,.1,0,.03,0,.06,.02,.1,.02,.07,.05,.14,.05,.2,.01,.29-.08,.54-.24,.78-.07-.03-.12,0-.19,.01-.16,.03-.33,.05-.5,.07-.05,0-.06,.02-.05,.06-.05-.02-.09-.04-.14-.06,0-.01,.01-.03,.02-.04,0,0-.01,0-.02,0,0,.01,0,.03,0,.04Z"/>
      <path class="cls-9" d="M8.27,11.3c-.05,.19,.08,.34,.14,.5,.08,.2,.23,.36,.37,.52,.13,.14,.29,.26,.47,.35,.03,.02,.07,.04,.1,.06-.03,.03-.04,.05-.06,.07-.04,0-.07,.01-.11,.02,0,0,0,.02,0,.03,.03,0,.05,.01,.08,.01,.48,.02,.91,.16,1.3,.43,.11,.08,.2,.18,.3,.27,0,.2-.08,.37-.23,.5-.14,.13-.3,.22-.47,.3-.4,.18-.83,.21-1.25,.14-.26-.04-.52-.12-.77-.2-.32-.1-.59-.28-.83-.51-.07-.07-.1-.15-.1-.24,0-.05,0-.1,0-.16,0-.02-.01-.04-.02-.06,.07-.12,.17-.2,.28-.28,.06-.04,.12-.09,.18-.13,.02-.02,.05-.04,.02-.07,.14-.04,.28-.09,.4-.17-.15-.04-.29-.05-.44-.09-.15-.04-.28-.1-.39-.22,.02-.09,.03-.19,.07-.27,.18-.36,.46-.62,.84-.77,.03-.01,.06-.02,.09-.03Z"/>
      <path class="cls-6" d="M17.21,18.36s-.04-.07-.02-.12c.06-.17,.12-.34,.18-.51,.03-.08,.05-.16,.07-.25,.04-.18,.09-.36,.12-.54,.02-.14,.02-.28,.04-.42,.04-.22,.04-.45,.03-.67,0-.19-.03-.37-.06-.55-.02-.18-.05-.36-.09-.53-.02-.11-.06-.22-.09-.33-.03-.09-.05-.19-.09-.28-.06-.16-.12-.32-.19-.48-.03-.06-.06-.12-.09-.18-.02-.03-.02-.06,.02-.07,.14,.17,.27,.35,.41,.52,0,.01,.02,.02,.02,.04,.14,.23,.29,.47,.43,.7,.03,.05,.06,.1,.08,.16,0,.01,.02,.03,.02,.04,.04,.07,.08,.15,.12,.22,0,.01,.02,.03,.02,.04,.01,.02,.03,.05,.04,.07,0,.01,.02,.03,.02,.04,.06,.12,.13,.24,.19,.35,0,.02,0,.05-.01,.07,.01,0,.03,0,.04,0,.01,.03,.03,.05,.04,.08-.03,.04-.04,.08,0,.12,.01,.01,.01,.03,.02,.04,.04,.09,.08,.19,.12,.28,.01,.04,.03,.03,.05,0,.02,.05,.03,.1,.05,.15-.03,.03-.03,.04,.01,.05,0,.03,.01,.05,.02,.08-.03,.09-.02,.18,.03,.27,0,.01,.01,.03,.01,.04-.02,.15-.04,.31-.06,.46-.01,.06-.02,.12,.02,.18-.04,0-.07,.02-.11,.03,.01,.03,.02,.05,.03,.08,0,.01,0,.02,0,.04-.03,.13-.07,.26-.1,.39-.01,.05-.03,.09-.05,.14,0,.02,.01,.06,0,.07-.07,.07-.06,.18-.1,.27-.04,.09-.06,.2-.14,.28-.01,0-.02,0-.03-.01,0-.03,0-.07-.04-.04-.07-.05-.14-.09-.22-.14-.04,.06-.03,.09,.03,.15,.05,.05,.1,.11,.15,.17-.03,.02-.03,.05,0,.07,.03,.03,.02,.06,0,.1-.03,.07-.04,.14-.06,.21-.06-.01-.12-.02-.18-.04-.22-.07-.43-.15-.57-.36,.01-.02,.02-.04,.03-.06-.02,0-.05-.02-.07-.02,0,0,.01-.01,.02-.02,.24-.08,.43-.21,.6-.4,.1-.11,.18-.25,.22-.39,.01-.03,0-.07,0-.11-.1,.08-.19,.16-.28,.23-.1,.07-.2,.12-.31,.18,0,0-.02-.02-.03-.03-.01,.02-.02,.03-.04,.05-.11,.03-.22,.07-.33,.1Z"/>
      <path class="cls-26" d="M5.08,16.45c-.05,.02-.05,.07-.06,.12,0,.03,0,.06,0,.1-.02-.01-.04-.02-.05-.04-.04-.07-.08-.13-.11-.21-.1-.27-.1-.55-.07-.83,0-.04,0-.07,0-.12-.03,.02-.06,.04-.08,.05-.05-.08-.08-.08-.16-.04-.02-.31,.02-.62,.08-.92,0-.02,.03-.04,.04-.06,.05,.02,.06-.03,.07-.06,.06-.18,.12-.37,.19-.55,.04-.12,.09-.23,.14-.35,.04,0,.05,.03,.06,.06,.02,.06,.04,.11,.08,.17,.05,.08,.1,.16,.16,.24,.05,.08,.1,.16,.16,.24,.02,.02,.06,.02,.08,.03,0,.01,0,.02,0,.03,0,0,0,.02-.01,.03,0,.02-.03,.07,.03,.07,.05,.06,.1,.11,.15,.17,.02,.03,.04,.07,.06,.09,.06,.06,.12,.12,.17,.18,.18,.18,.35,.36,.55,.51,.09,.06,.17,.13,.26,.19,.07,.05,.15,.09,.21,.14,.07,.05,.12,.11,.18,.16-.01,.01-.02,.02-.03,.03-.29,.19-.61,.24-.95,.28-.14,.01-.27-.03-.4-.07-.1-.03-.2-.06-.3-.09-.08-.02-.11,.01-.09,.08,.03,.11,.07,.22,.14,.31,0,.01,.03,.01,.04,.02,.02,.02,.04,.04,.06,.06,.02,.07,.08,.1,.14,.12,.03,.07,.05,.13,.08,.2-.03,0-.07,.01-.1,0-.26-.04-.44-.2-.57-.43-.03-.05-.05-.1-.08-.15,0,0-.02,0-.03,0-.02,.07-.03,.14-.05,.21Z"/>
      <path class="cls-11" d="M17.1,6.28c.09,.18,.13,.37,.1,.57-.02,.02-.05,.03-.06,.05-.06,.08-.14,.13-.24,.13-.1,0-.21,0-.31-.02-.3-.06-.54-.24-.77-.44-.18-.16-.35-.33-.53-.5-.17-.16-.35-.31-.56-.42-.14-.07-.28-.14-.44-.09-.02,0-.05,0-.07,0-.19-.09-.35-.27-.28-.52,.02-.08,.03-.17,.05-.25,.33-.36,.71-.65,1.15-.86,.02,.06,0,.12-.01,.18-.04,.27-.04,.55,.04,.81,.05,.19,.12,.37,.24,.53,.03,.05,.09,.08,.1,.13,.04,.13,.16,.21,.24,.3,.15,.15,.34,.26,.52,.36,.02,0,.04,0,.07,0,.05,.09,.1,.19,.14,.28,.06,.14,.16,.24,.31,.28,.09,.02,.18,.03,.26-.04,.08-.07,.09-.17,.06-.27-.02-.06-.05-.13-.07-.19,.02,0,.05-.01,.07-.02Z"/>
      <path class="cls-12" d="M7.2,13.33s.02,.04,.02,.06c0,.05,0,.1,0,.16,0,.09,.03,.17,.1,.24,.24,.23,.51,.41,.83,.51,.25,.08,.51,.16,.77,.2,.43,.07,.85,.04,1.25-.14,.17-.08,.33-.17,.47-.3,.15-.13,.24-.3,.23-.5,.14,.14,.2,.31,.2,.5,0,.39-.12,.73-.34,1.04-.02,0-.04,0-.05,.01-.14,.04-.27,.1-.41,.13-.12,.03-.24,.02-.35-.04,.05-.01,.11-.02,.16-.03,.09,.03,.17-.02,.25-.05,.02,0,.04-.03,.06-.05,0,0,0-.01,0-.02-.05,0-.1,0-.15,0-.11-.02-.22-.04-.33-.07,.12-.05,.24-.1,.36-.15,.02,0,.04-.02,.05-.03,.02-.02,.02-.04,.04-.06-.02,0-.05,0-.07,0-.14,.04-.27,.11-.41,.13-.69,.11-1.35,0-1.95-.38-.02-.02-.05-.03-.09-.03,.15,.24,.37,.38,.63,.47-.05,0-.1,.01-.14,0-.08-.01-.17-.03-.25-.06-.31-.1-.6-.25-.82-.5,0-.01-.03-.01-.04-.02-.13-.23-.2-.46-.15-.72,.02-.11,.06-.22,.14-.31Z"/>
      <path class="cls-13" d="M17.1,6.28s-.05,.01-.07,.02c-.27-.41-.79-.54-1.06-.54,.09,.12,.19,.24,.29,.36-.03,.03-.02,.04,.02,.05h0s.02,.02,.03,.03c0,.01,.01,.02,.02,.03-.02,0-.05,.02-.07,0-.18-.11-.37-.21-.52-.36-.09-.09-.2-.17-.24-.3-.02-.05-.07-.09-.1-.13-.11-.16-.18-.35-.24-.53-.07-.27-.08-.54-.04-.81,0-.06,.04-.12,.01-.18,.28-.14,.57-.23,.88-.29,0,.02-.01,.05-.02,.07-.05,.12-.11,.24-.16,.36,0,.02-.01,.04-.01,.05,0,.1-.06,.2-.02,.3,0,0,0,.02,0,.03-.04,.05-.02,.1,0,.15,0,.02,0,.05,.01,.07,.03,.09,.04,.18,.08,.27,.04,.09,.1,.18,.16,.26,.03,.05,.06,.09,.1,.13,.08,.07,.16,.12,.25,.18,.03,.02,.07,.03,.1,.04,.08,.03,.16,.07,.24,.1,.05,.02,.11,.04,.17,.05,.01,0,.03,0,.04,0,.06,0,.13-.02,.18,0,.1,.03,.18,0,.27-.03,.13-.04,.27-.07,.38-.17,.07,.12,.16,.22,.29,.28-.05,.08-.12,.13-.21,.16-.05,.02-.11,.02-.15,.08-.01,.02-.04,.02-.07,.02-.05,0-.11,0-.15,.02-.06,.03-.14,0-.17,.08-.02-.02-.05-.03-.07-.05-.08-.04-.16-.09-.24-.13-.1-.08-.19-.17-.3-.22-.06-.03-.11-.06-.17-.08-.13-.04-.26-.09-.41-.09-.08,0-.17-.01-.26-.01,.03,.05,.07,.05,.12,.06,.41,.06,.78,.19,1.03,.55,.02,.03,.04,.07,.06,.11Z"/>
      <path class="cls-9" d="M12.83,8.2s.09,.01,.13,.02c-.03,.03-.06,.06-.08,.09,0,.01,0,.04,0,.06-.04,.04-.07,.09-.11,.13-.03-.04-.07-.08-.1-.12-.07-.07-.14-.12-.2-.19-.18-.19-.31-.43-.42-.66-.04-.07-.06-.15-.09-.22,.06-.04,.14-.02,.14-.1,.06-.02,.11-.04,.17-.05,.09,0,.18,0,.28,0,.03,0,.05,0,.08-.01,0,0,0-.02,0-.02-.02-.01-.05-.03-.08-.05,.17-.26,.39-.47,.65-.64,.06,0,.06,.05,.06,.09,.01,.14,.01,.29,.09,.41,.04,.07,.09,.14,.12,.22,.04,.09,.11,.14,.17,.2,.04,.04,.09,.05,.1,.12-.02,.12-.04,.23-.06,.35-.14-.05-.29-.11-.45-.09,0,0,0,.02,0,.03,.02,0,.04,0,.06,.01,.37,.05,.64,.25,.83,.56,.04,.07,.06,.14,.04,.22-.11,.01-.22-.01-.31-.07-.16-.1-.31-.2-.47-.3-.12-.08-.25-.14-.4-.17-.08-.02-.16-.01-.23,.05-.02,.02-.04,.07-.04,.1,0,.02,.06,.02,.09,.04h0s.02,.04,.03,.06c0-.02,.02-.03,.02-.05Z"/>
      <path class="cls-14" d="M12.09,7.19c0,.08-.08,.06-.14,.1,.03,.07,.05,.15,.09,.22,.11,.24,.24,.47,.42,.66,.06,.07,.14,.13,.2,.19,.04,.04,.07,.08,.1,.12-.28,.39-.45,.84-.53,1.31-.03,.14-.03,.29-.04,.44-.02-.01-.04-.02-.05-.04-.15-.22-.23-.47-.29-.73-.01-.05,0-.09,.04-.12,.04-.04,.08-.08,.08-.17-.05,.03-.09,.05-.12,.07-.04,.03-.08,.06-.12,.08-.06,.03-.1,.01-.13-.05-.07-.14-.07-.28-.05-.43,0-.08,.05-.1,.11-.12,.03,0,.06-.02,.09-.03-.02-.02-.03-.03-.05-.04-.07-.02-.15-.03-.22-.05-.1-.02-.13-.06-.12-.16,0-.03,0-.06,.02-.09,.06-.16,.1-.33,.29-.41,.02,0,.04-.03,.06-.04,.02-.02,.02-.05,.04-.08-.05,0-.08,0-.12,0-.1,0-.17-.03-.22-.12,0-.01-.03-.02-.04-.03,.14-.2,.31-.35,.53-.44,.06-.02,.12-.03,.18-.05Z"/>
      <path class="cls-6" d="M11.2,14.49c.01-.09,.03-.18,.03-.27,0-.12-.02-.24-.03-.36,.03,.01,.07,.02,.09,.04,.11,.09,.24,.13,.38,.12,.16-.01,.34-.16,.37-.33-.1,.06-.18,.16-.31,.17-.13,0-.22-.07-.31-.13,.03-.07,.06-.13,.08-.18,.18-.18,.32-.39,.35-.65,.02-.13,0-.25,0-.38,.06,.03,.11,0,.16-.03,.04-.02,.07-.05,.11-.07-.05,.29,0,.54,.24,.74-.01,.09-.07-.01-.1,.02-.03,.08-.06,.15-.08,.23-.02,.07-.04,.15-.04,.22,0,.19,0,.38,.01,.57,.01,.12,.06,.23,.11,.34,.08,.2,.19,.38,.35,.54,.04,.04,.09,.09,.13,.13,.04,.04,.09,.07,.14,.1,.04,.02,.05,.04,.05,.08h-.54s-.05-.02-.08-.03c-.31-.1-.59-.25-.82-.48-.1-.1-.18-.23-.27-.34-.01-.02-.03-.03-.04-.04Z"/>
      <path class="cls-20" d="M17.03,9.28c0,.45-.19,.81-.55,1.08,0-.16-.08-.27-.2-.36-.2-.15-.44-.18-.68-.19-.19,0-.39,0-.58,.01,0-.03,0-.06-.02-.08-.09-.14-.16-.3-.2-.46-.03-.12-.04-.24-.06-.37,.11-.14,.21-.28,.33-.41,.16-.18,.35-.33,.58-.4,.21-.06,.42-.05,.63,.02-.01,.03-.02,.07-.04,.1-.03,0-.05-.02-.08-.02-.22-.06-.44-.07-.65,.05-.03,.02-.05,.04-.08,.06,0,0,0,.02,0,.02,.11,0,.21-.01,.32-.02,0,.03,0,.06,0,.09-.07,.15-.14,.3-.12,.48,.02,.15,.07,.29,.16,.41,.1,.13,.24,.24,.41,.28,.08,.02,.16,.04,.24,.04,.08,0,.17-.03,.25-.04-.04,.16-.07,.32-.11,.48,.05-.03,.09-.07,.13-.11,.14-.18,.18-.39,.18-.61,.05-.02,.1-.03,.14-.05Z"/>
      <path class="cls-9" d="M12.94,15.39s-.01-.06-.05-.08c-.05-.02-.09-.06-.14-.1-.05-.04-.09-.09-.13-.13-.15-.15-.26-.34-.35-.54-.05-.11-.1-.23-.11-.34-.02-.19-.01-.38-.01-.57,0-.07,.02-.15,.04-.22,.02-.08,.05-.16,.08-.23,.03-.03,.09,.07,.1-.02,.07,.06,.14,.11,.23,.13,.07,.01,.14,.03,.2,.05,.03,.02,.06,.03,.08,.04-.02,.08-.05,.15-.07,.23-.02,.07-.04,.14-.06,.21-.05-.06-.11-.11-.16-.17-.05-.05-.09-.11-.14-.16-.03-.03-.07-.03-.1,.02-.04,.08-.04,.17,0,.24,.07,.12,.14,.23,.22,.34,.03,.03,.08,.05,.12,.08,.15,.14,.32,.22,.53,.19,0,.02-.01,.05-.01,.07,0,.03,0,.07,.01,.09,.1,.07,.19,.16,.3,.21,.18,.09,.37,.11,.57,.08,.02,0,.04,.02,.06,.03,0,.02-.01,.04-.02,.06-.06,.08-.12,.16-.17,.24-.03,.04-.03,.09-.05,.13-.26,.04-.52,.08-.78,.12-.02-.07-.07-.07-.13-.06,0,.03,0,.05,0,.07-.02,0-.03,0-.05,0Z"/>
      <path class="cls-12" d="M17.6,18.25c.1-.06,.21-.11,.31-.18,.09-.07,.18-.16,.28-.23,0,.04,0,.07,0,.11-.05,.15-.12,.28-.22,.39-.17,.18-.37,.32-.6,.4,0,0-.01,.01-.02,.02-.31,.05-.63,.08-.95,.06-.67-.04-1.34-.12-2.01-.23-.13-.02-.26-.04-.38-.06,.06-.06,.13-.11,.18-.17,.04-.05,.06-.12,.09-.18,.05-.04,.08-.09,.09-.16-.06,.04-.1,.09-.16,.13-.19,.14-.42,.18-.64,.19-.13,0-.26-.02-.39-.03,.02-.03,.04-.07,.06-.1,.23,0,.46,0,.68-.08,.18-.06,.33-.17,.48-.29,.04-.04,.08-.08,.13-.11,.02-.02,.05-.02,.08-.03,0,.03,.01,.06,0,.08-.04,.12-.11,.23-.2,.32-.03,.02-.05,.04-.08,.08,.29,.09,.57,.16,.86,.19,.17,.03,.34,.05,.51,.08,.05,0,.11,.01,.16,.02,.19,0,.38,0,.57,.01,.06,0,.13,0,.19,0,.2-.02,.4-.03,.6-.1,.11-.03,.22-.07,.33-.1,.02,0,.04-.01,.07-.02Z"/>
      <path class="cls-17" d="M17.52,4.47c-.06-.02-.13-.04-.19-.05-.28-.07-.56-.08-.83,.07-.05,.02-.09,.05-.13,.08-.01,0-.02,.03-.03,.05,.02,0,.04,.02,.06,.01,.14-.06,.28-.11,.44-.12,.29-.03,.55,.04,.8,.17-.01,.03-.02,.06-.03,.08-.11-.04-.22-.07-.33-.11-.06-.02-.13-.04-.2-.06,.04,.06,.08,.11,.13,.15,.15,.14,.29,.29,.41,.45-.01,0-.03,0-.04,.01-.25,.16-.52,.19-.79,.09-.31-.12-.53-.34-.61-.67-.02-.09-.04-.18-.03-.27,.02-.13,.04-.26,.12-.37,.04-.06,.08-.13,.12-.19,.07,.03,.14,.05,.21,.08,.17,.06,.33,.14,.46,.27,.14,.14,.33,.18,.52,.1,.15-.06,.18-.2,.07-.31-.09-.1-.21-.15-.34-.19-.23-.06-.47-.07-.71-.07v-.09c.43,0,.84,.09,1.19,.36,.03,.02,.06,.05,.08,.08,0,.03-.01,.05-.02,.08-.04,.13-.09,.25-.21,.32-.04,.02-.09,.04-.13,.06Z"/>
      <path class="cls-14" d="M6.17,13.49s0-.04,.01-.05c.18-.17,.35-.34,.53-.51,.01,0,.02,0,.03,0,.18-.05,.34,.02,.48,.13-.15,.14-.27,.29-.32,.5-.02,.09-.04,.19-.04,.29,0,.14,.03,.28,.09,.41,.01,.03,.02,.06,.04,.09-.06,.02-.03,.06-.02,.09,.02,.04,.03,.07,.06,.11,.07,.1,.14,.19,.22,.29,.06,.07,.11,.16,.19,.2,0,0,0,.01,.01,.02,.07,.1,.15,.19,.27,.22-.04,.07-.09,.13-.13,.2-.01-.02-.02-.05-.04-.06-.06-.04-.13-.08-.19-.12-.08-.05-.17-.1-.25-.16-.11-.09-.23-.18-.33-.28-.16-.15-.32-.29-.47-.45-.13-.14-.23-.29-.34-.44-.01-.01-.02-.04-.01-.06,.06-.11,.13-.22,.2-.32,.02-.03,.06-.06,.01-.09Z"/>
      <path class="cls-29" d="M9.04,8.37c-.01-.27-.12-.52-.17-.79-.02-.09-.01-.19,0-.27,.03-.15,.14-.23,.29-.2,.11,.02,.21,.05,.31,.09,.41,.19,.71,.49,.92,.88-.03-.02-.05,0-.07,.02-.06,.07-.11,.15-.2,.18-.03,0-.05,.04-.07,.06-.05,.04-.1,.07-.17,.07-.04,0-.07,.02-.11,.03-.03,0-.06,.02-.08,.02-.13,0-.26,0-.39,0-.02,0-.04,0-.05-.01-.05-.05-.14-.02-.17-.09,0,0-.03,0-.04,.01Z"/>
      <path class="cls-8" d="M13.99,4.78c-.02,.08-.03,.17-.05,.25-.07,.25,.09,.43,.28,.52,.02,.01,.05,.01,.07,0,.16-.05,.31,.02,.44,.09,.21,.11,.39,.26,.56,.42,.18,.17,.35,.33,.53,.5,.22,.2,.47,.38,.77,.44,.1,.02,.2,.03,.31,.02,.1,0,.18-.05,.24-.13,.02-.02,.04-.03,.06-.05-.01,.13-.05,.26-.14,.36-.02,0-.04,0-.06,.02-.24,.16-.5,.15-.75,.03-.29-.13-.5-.36-.69-.6-.16-.2-.31-.4-.5-.57-.02-.02-.05-.03-.08-.04-.1-.08-.18-.17-.29-.24-.09-.05-.19-.08-.29-.11-.01,0-.03,0-.05,.02,0,.01,.02,.03,.02,.04-.01,0-.02,.01-.04,.01-.15,.02-.3,.04-.45,.05-.19,0-.38,.04-.52-.14,0,0,0,0,0,0,.04-.09,.07-.17,.12-.25,.14-.23,.3-.45,.5-.65Z"/>
      <path class="cls-26" d="M18.3,18.71c.07-.08,.09-.18,.14-.28,.04-.09,.02-.19,.1-.27,.01-.01,0-.05,0-.07,.01-.05,.03-.09,.05-.14,.04-.13,.07-.26,.1-.39,.07,.05,.15,.1,.21,.15,.15,.13,.28,.28,.39,.44,.07,.1,.14,.21,.19,.32,.05,.1,.07,.2,.11,.3,0,.02-.02,.04-.03,.06-.05,.33-.33,.47-.61,.37-.14-.05-.26-.14-.38-.23-.02-.02-.05-.02-.08-.03-.06-.08-.13-.16-.19-.24Z"/>
      <path class="cls-6" d="M6.17,13.49s0,.06-.01,.09c-.07,.11-.14,.21-.2,.32,0,.01,0,.04,.01,.06,.11,.15,.22,.3,.34,.44,.15,.16,.31,.3,.47,.45,.11,.1,.22,.19,.33,.28,.08,.06,.17,.11,.25,.16,.06,.04,.13,.08,.19,.12,.02,.01,.03,.04,.04,.06-.03,.05-.06,.11-.1,.15-.08,.1-.17,.18-.29,.24-.06-.05-.12-.11-.18-.16-.07-.05-.14-.09-.21-.14-.09-.06-.17-.13-.26-.19-.21-.15-.38-.33-.55-.51-.06-.06-.12-.12-.17-.18-.02-.03-.04-.06-.06-.09-.05-.06-.1-.12-.15-.17,.02-.02,.04-.04,.05-.06,.12-.26,.24-.51,.41-.74,.03-.04,.07-.08,.11-.12Z"/>
      <path class="cls-28" d="M16.6,3.58v.09c-.14,0-.27,.01-.43,.02,.08,.04,.15,.07,.21,.1-.04,.06-.08,.13-.12,.19-.07,.11-.1,.25-.12,.37-.01,.09,0,.18,.03,.27,.08,.33,.3,.55,.61,.67,.27,.1,.54,.07,.79-.09,.01,0,.02,0,.04-.01,.07,.1,.15,.2,.17,.33-.11,.1-.25,.12-.38,.17-.08,.03-.17,.06-.27,.03-.06-.01-.12,0-.18,0-.01,0-.03,0-.04,0-.06-.02-.11-.03-.17-.05-.08-.03-.16-.07-.24-.1-.03-.01-.07-.02-.1-.04-.08-.06-.17-.12-.25-.18-.04-.03-.07-.08-.1-.13-.06-.09-.12-.17-.16-.26-.04-.08-.05-.18-.08-.27,0-.02,0-.05-.01-.07-.02-.05-.04-.1,0-.15,0,0,0-.02,0-.03-.04-.1,.02-.2,.02-.3,0-.02,0-.04,.01-.05,.05-.12,.11-.24,.16-.36,.01-.02,.02-.05,.02-.07,.19-.04,.39-.07,.59-.06Z"/>
      <path class="cls-12" d="M7.21,15.86c.12-.06,.21-.14,.29-.24,.04-.05,.07-.1,.1-.15,.04-.07,.09-.13,.13-.2v-.02c.12,.08,.23,.15,.34,.23-.02,.07-.03,.14-.05,.2-.14,.3-.35,.53-.64,.69-.03,.02-.05,.04-.08,.07-.46,.07-.91,.07-1.37-.04-.08-.02-.17-.03-.26-.04-.04,0-.07,.02-.07,.06-.01,0-.03,0-.04-.02-.08-.09-.12-.2-.14-.31-.02-.07,.02-.1,.09-.08,.1,.03,.2,.06,.3,.09,.13,.04,.27,.08,.4,.07,.33-.03,.66-.09,.95-.28,.01,0,.02-.02,.03-.03Z"/>
      <path class="cls-25" d="M13.73,7.45c0-.06-.06-.08-.1-.12-.06-.06-.13-.11-.17-.2-.03-.08-.08-.15-.12-.22-.07-.13-.07-.27-.09-.41,0-.05,0-.09-.06-.09,.38-.28,.8-.43,1.28-.41,.03,0,.05,0,.08,.01,.01,.02,.03,.05,.04,.07,.04,.05,.08,.09,.12,.14-.01,.02-.02,.04-.03,.05-.32,.06-.56,.24-.76,.49-.04,.05-.07,.1-.11,.16,0,.01,0,.03-.01,.05,0,0,.01,0,.02,.01,.02-.02,.04-.04,.06-.06,.1-.1,.18-.21,.29-.3,.15-.14,.32-.23,.53-.24,.08,.07,.07,.15,.02,.23,0,0,0,0,0,0-.34,.07-.62,.26-.82,.54-.06,.09-.1,.19-.15,.28Z"/>
      <path class="cls-12" d="M5.89,12.31c.2-.23,.39-.46,.59-.68,.16-.17,.35-.32,.52-.48,.02,.01,.04,.03,.07,.04,.18,.03,.32,.12,.43,.25,.02,.03,.06,.05,.09,.07-.21,.19-.38,.4-.46,.68,0,.02-.02,.05-.02,.07,0,.11-.06,.18-.15,.24-.07,.05-.14,.11-.21,.17-.05-.1-.1-.2-.2-.26-.19-.12-.39-.14-.6-.09-.03,0-.05,0-.08,0Z"/>
      <path class="cls-14" d="M9.04,8.37s.04-.01,.04-.01c.03,.07,.12,.05,.17,.09,.01,.01,.04,.01,.05,.01,.13,0,.26,0,.39,0,.03,0,.06-.01,.08-.02,.04,0,.07-.02,.11-.03,.07,0,.12-.03,.17-.07,.02-.02,.04-.05,.07-.06,.1-.03,.14-.11,.2-.18,.02-.03,.04-.04,.07-.02,.18,.34,.29,.7,.3,1.08-.08,0-.15,.02-.23,.02-.17,0-.35,.02-.52,0-.33-.05-.62-.21-.86-.45-.02-.02-.05-.03-.07-.05,0-.04,0-.07,0-.11,.03-.02,.03-.04,0-.07,0-.04,0-.08,0-.13Z"/>
      <path class="cls-12" d="M9.99,18.71c.07,.09,.13,.18,.21,.26,.12,.11,.28,.13,.43,.13,.51,.02,.98-.12,1.43-.37,.31-.17,.58-.38,.85-.61,.18-.16,.37-.32,.55-.48,.05,.02,.05,.06,.03,.09-.06,.11-.13,.21-.19,.32-.03-.04-.06-.03-.09,0-.1,.11-.2,.23-.3,.34-.28,.34-.63,.6-1.01,.81-.04,.01-.07,.02-.11,.03-.22,.1-.45,.16-.7,.16-.27,0-.54-.04-.8-.12-.22-.07-.41-.18-.48-.42,.05-.05,.11-.1,.16-.14Z"/>
      <path class="cls-24" d="M7.3,16.45s.05-.05,.08-.07c.29-.16,.5-.39,.64-.69,.03-.06,.04-.13,.05-.2,.08,.02,.16,.04,.24,.05,.03,0,.06-.02,.09-.03,0,0,0-.02,0-.03-.04-.02-.08-.05-.12-.07-.44-.23-.76-.58-1.04-.97-.02-.02-.03-.05-.04-.08,.01,0,.03,.01,.04,.02,.22,.25,.51,.4,.82,.5,.08,.03,.17,.04,.25,.06,.05,0,.09,0,.14,0,.07,.02,.13,.04,.21,.06-.09,.12-.12,.24-.07,.38,.04,.13,.13,.23,.23,.31-.12,.2-.29,.34-.48,.44-.32,.18-.66,.27-1.02,.32,0,0-.02,0-.02,0Z"/>
      <path class="cls-26" d="M18.76,17.43c-.04-.06-.03-.11-.02-.18,.03-.15,.04-.31,.06-.46,0-.01,0-.03-.01-.04-.06-.08-.07-.17-.03-.27,.02,.04,.03,.08,.05,.12,.01,.03,.02,.07,.03,.1,0,.01,.02,.03,.03,.04,0-.02,.03-.03,.03-.05,0-.11-.02-.22-.04-.32-.01-.08-.04-.16-.06-.26,.02,.01,.03,.02,.04,.03,.36,.37,.68,.76,.91,1.22,.08,.17,.15,.35,.17,.54-.07,0-.14,0-.2-.01-.17-.03-.32-.11-.46-.2-.16-.11-.31-.23-.51-.26Z"/>
      <path class="cls-24" d="M14.71,10.35c.18-.07,.35-.17,.56-.18,.17-.01,.34-.04,.52-.06,.07,0,.15,0,.23,.02,.19,.04,.28,.22,.2,.4,.06,.06,.09,.05,.33-.03-.03,.14-.08,.26-.18,.34-.06,.05-.12,.04-.18,0-.04-.02-.07-.06-.1-.08-.04-.04-.08-.03-.1,.02-.02,.05-.03,.11-.06,.16-.06,.1-.11,.2-.18,.28-.1,.11-.21,.08-.26-.06-.01-.03-.01-.06-.03-.09-.01-.02-.03-.04-.05-.06-.02,.02-.05,.03-.07,.06-.04,.07-.06,.15-.1,.22-.04,.06-.09,.12-.15,.17-.07,.06-.14,.04-.17-.04-.03-.07-.05-.14-.07-.22-.01-.04-.02-.07-.04-.11-.06,.08-.11,.19-.24,.17,.01-.04,.03-.08,.04-.12,.08-.07,.16-.13,.23-.19,.05,.08,.08,.15,.13,.21,.07,.1,.15,.1,.24,.02,.02-.02,.04-.03,.05-.05,.05-.07,.09-.14,.13-.21,.02-.03,.05-.05,.08-.08,.06,.12,.12,.23,.24,.28,0-.02,0-.03,0-.04,0-.26-.14-.45-.36-.57-.16-.09-.34-.11-.53-.11-.04,0-.07-.01-.11-.02Z"/>
      <path class="cls-14" d="M5.89,12.31s.05,0,.08,0c.21-.05,.41-.02,.6,.09,.1,.06,.15,.16,.2,.26-.15,.14-.3,.28-.45,.42-.08,.08-.15,.16-.23,.24-.04-.05-.06-.01-.08,.02-.03,.05-.05,.1-.09,.14-.04,.06-.09,.11-.13,.16,0,.01-.02,.02-.03,.03-.11-.19-.21-.37-.32-.55-.03-.05-.03-.1,0-.14,.05-.07,.11-.13,.16-.19,.04-.05,.08-.1,.11-.15,.01-.02,0-.06,0-.09,.06-.08,.12-.15,.18-.23Z"/>
      <path class="cls-12" d="M8.21,17.96c.25,.24,.55,.36,.9,.39,.47,.04,.89-.1,1.29-.35,.25-.16,.49-.32,.73-.49,.13-.09,.28-.16,.38-.28,0,0,.01,0,.04-.01-.01,.06-.03,.12-.04,.17-.03,0-.06,0-.08,.02-.06,.04-.12,.08-.17,.13-.05,.05-.1,.11-.15,.18-.15,.23-.35,.39-.6,.51-.12,.05-.23,.11-.34,.17-.19,.1-.36,.21-.51,.36-.14,0-.28,.01-.43-.02-.4-.09-.76-.25-1.02-.59-.04-.05-.07-.11-.11-.17,.04-.01,.08-.02,.12-.03Z"/>
      <path class="cls-25" d="M14.15,14.82s-.04-.03-.06-.03c-.2,.03-.39,0-.57-.08-.11-.05-.2-.13-.3-.21-.02-.01-.01-.06-.01-.09,0-.02,0-.05,.01-.07,.03,0,.06-.01,.09-.02,.24-.08,.49-.31,.43-.65,.05-.07,.01-.14-.02-.2v-.02c.07-.02,.14-.03,.21-.05,0,.18,.08,.3,.23,.39,.07,.07,.14,.14,.2,.21,0,.03,0,.07,0,.1,.01,.17-.01,.34-.08,.5-.04,.08-.09,.15-.13,.23Z"/>
      <path class="cls-12" d="M11.03,12.84c.16-.23,.26-.49,.24-.78,0-.07-.03-.14-.05-.2,0-.03-.01-.06-.02-.1,.31,.27,.54,.58,.51,1.01-.02,.28-.16,.51-.37,.7-.07,.07-.16,.1-.27,.12-.13-.2-.32-.34-.51-.47,.19-.03,.35-.11,.46-.28Z"/>
      <path class="cls-12" d="M14.71,10.35s.07,.02,.11,.02c.18,0,.36,.01,.53,.11,.22,.13,.36,.31,.36,.57,0,.01,0,.02,0,.04-.12-.05-.18-.15-.24-.28-.03,.03-.06,.05-.08,.08-.05,.07-.09,.14-.13,.21-.01,.02-.03,.04-.05,.05-.09,.08-.17,.08-.24-.02-.05-.06-.08-.14-.13-.21-.07,.06-.15,.13-.23,.19,.01-.07,.03-.13,.03-.2,0-.07-.03-.1-.09-.07-.07,.03-.14,.07-.2,.1-.08,.04-.15,.08-.23,.12,0-.08,0-.17,.02-.25,0-.06,.03-.11,.05-.17,.16-.14,.34-.24,.54-.3Z"/>
      <path class="cls-29" d="M14.27,6.93c.14-.11,.31-.17,.49-.17,.13,0,.25,.05,.34,.15,.14,.14,.22,.31,.26,.5-.03,.03-.06,.05-.08,.08-.05,.06-.1,.13-.16,.18-.11,.09-.25,.1-.39,.09-.05,0-.09,0-.14,0-.08-.04-.1-.09-.07-.2,0-.02,0-.06-.01-.07-.02-.02-.06-.02-.09-.02-.03,0-.05,.03-.07,.05,0-.01,0-.02,0-.03-.09-.12-.11-.25-.08-.39,.01-.05,.01-.11,.02-.17Z"/>
      <path class="cls-22" d="M14.72,8.9c.02,.12,.03,.25,.06,.37,.04,.16,.11,.32,.2,.46,.01,.02,.01,.06,.02,.08-.16-.02-.32-.02-.47-.05-.33-.06-.52-.27-.59-.59-.01-.05,0-.09,.05-.13,.05-.04,.07-.1,.11-.15,.06-.08,.11-.16,.17-.25,.16,.06,.35,.05,.53,0h0c-.03,.06-.06,.12-.09,.17-.01,.03-.04,.05,0,.07Z"/>
      <path class="cls-24" d="M9.92,15.19c.11,.06,.24,.06,.35,.04,.14-.03,.27-.08,.41-.13,.02,0,.04,0,.05-.01-.1,.17-.24,.3-.43,.36-.28,.09-.57,.16-.87,.17-.13,0-.27-.02-.4-.05-.13-.03-.21-.13-.26-.25-.03-.08-.02-.15,.04-.22,.05-.07,.11-.08,.19-.07,.18,.01,.37,0,.55,0,.04,0,.07,0,.1,.04,.06,.09,.16,.11,.27,.12Z"/>
      <path class="cls-12" d="M8.42,17.25c.28,.05,.54,0,.81-.08,.33-.09,.64-.23,.93-.41,.1-.06,.18-.14,.27-.21,.02-.02,.05-.04,.07-.05,.02-.01,.05-.01,.07-.01,0,.03,0,.06,0,.08-.03,.06-.06,.11-.1,.16-.08,.11-.17,.21-.26,.31-.02,.02-.05,.02-.07,.03,.05-.06,.09-.12,.14-.18,.01-.02,0-.04,.01-.06-.02,0-.05,0-.07,.01-.11,.08-.21,.17-.33,.24-.26,.17-.52,.33-.78,.49-.15,.09-.31,.15-.49,.14-.02-.02-.05-.04-.07-.04-.12-.04-.22-.12-.3-.21-.02-.03-.05-.05-.07-.07,.08-.04,.16-.09,.24-.13Z"/>
      <path class="cls-12" d="M11.37,11.68c.15-.11,.21-.27,.23-.45,.03-.27-.03-.52-.13-.77-.01-.02-.01-.05-.02-.08,.23,.16,.39,.36,.48,.63,.12,.33,.12,.67-.01,1-.03,.08-.08,.15-.13,.22-.1-.22-.26-.4-.43-.56Z"/>
      <path class="cls-12" d="M11.39,7.67s.03,.02,.04,.03c.05,.09,.12,.12,.22,.12,.03,0,.06,0,.12,0-.02,.04-.02,.06-.04,.08-.01,.02-.04,.03-.06,.04-.19,.07-.22,.25-.29,.41-.01,.03-.02,.06-.02,.09,0,.1,.02,.14,.12,.16,.07,.02,.15,.03,.22,.05,.02,0,.03,.01,.05,.04-.03,.01-.06,.02-.09,.03-.06,.02-.1,.04-.11,.12-.02,.15-.01,.29,.05,.43,.03,.06,.07,.08,.13,.05,.04-.02,.08-.05,.12-.08,.04-.02,.07-.04,.12-.07,0,.09-.04,.13-.08,.17-.04,.04-.05,.08-.04,.12,.06,.26,.14,.51,.29,.73,.01,.02,.03,.02,.05,.04,0,.08,0,.16,.01,.26-.06-.07-.1-.14-.15-.19-.02-.02-.04-.03-.07-.04-.01,0-.03-.01-.04-.02-.07-.11-.14-.23-.21-.35,0-.01,0-.04,0-.05,.05,0,.03-.04,.02-.07-.03-.07-.07-.13-.1-.2-.02-.03-.03-.06-.04-.09,.02-.04,.05-.07,.07-.1,0,0,0-.01-.01-.02-.03,0-.06,.02-.09,.03-.11,.04-.16,.02-.2-.09-.05-.16-.05-.32,.03-.47,.05-.09,.03-.12-.07-.12-.2,0-.28-.12-.18-.3,.07-.12,.16-.22,.25-.32,.06-.08,.06-.1-.02-.14-.07-.03-.09-.08-.07-.15,.02-.04,.05-.08,.07-.13Z"/>
      <path class="cls-27" d="M12.94,9.75c.13,0,.21,.08,.28,.18,.12,.18,.16,.38,.15,.59,0,.11-.03,.22-.04,.33,0,.02,0,.05-.01,.07,0,0,0,0,.01,0,.02-.01,.03-.02,.05-.03,.1-.03,.13-.11,.15-.2,.02-.09,.02-.19,.04-.28,0-.04,.03-.07,.05-.11,.16,.13,.22,.31,.22,.51-.02,.04-.05,.08-.07,.12-.04,.06-.11,.1-.18,.11-.35,.05-.75-.31-.67-.7,.02-.09,.05-.18,.07-.27,0-.02,.01-.05,.01-.07,0-.04-.02-.04-.05-.01-.03,0-.05,.01-.08,.02,0-.03,0-.06,.02-.08,.02-.05,.04-.11,.07-.16Zm.27,1s.03-.06,.04-.09c.01-.06,.02-.11,.02-.17,0-.05,0-.11-.02-.16,0-.03-.05-.06-.07-.06-.04,0-.05,.05-.04,.09,0,.05,0,.11,0,.16,0,.08-.02,.16,.07,.22Zm.38,.11c.08-.06,.1-.11,.07-.22-.02,.07-.05,.13-.07,.22Z"/>
      <path class="cls-12" d="M9.02,8.67s.05,.03,.07,.05c.24,.24,.52,.4,.86,.45,.17,.03,.34,.01,.52,0,.08,0,.15-.01,.23-.02,0,.08,0,.16,0,.24-.01,0-.02,0-.03,0-.21,.1-.44,.1-.66,.06-.35-.05-.69-.15-.98-.38-.02-.02-.05-.02-.08-.03,.03-.13,.06-.26,.09-.39Z"/>
      <path class="cls-24" d="M8.93,9.06s.06,.02,.08,.03c.29,.22,.63,.32,.98,.38,.22,.03,.45,.04,.66-.06,0,0,.02,0,.03,0-.02,.12-.04,.25-.06,.38-.65-.16-1.29-.29-1.94-.08,.08-.22,.16-.43,.25-.64Z"/>
      <path class="cls-8" d="M17.03,5.98c.08,.04,.16,.09,.24,.13,.03,.01,.05,.03,.07,.05,.05,.03,.09,.07,.15,.1,.18,.11,.37,.17,.59,.13,.23-.05,.4-.17,.47-.41,.03-.09,.05-.18,.07-.26,.05,.13,.04,.26,.03,.39,0,.07-.04,.14-.06,.22,0,0-.02,0-.03,.01-.18,.24-.44,.37-.72,.45-.17,.05-.33,.05-.46-.09,0,0-.02,0-.04-.01-.02-.08-.03-.16-.05-.24-.04-.18-.15-.32-.26-.46Z"/>
      <path class="cls-11" d="M18.61,5.71c-.02,.09-.04,.18-.07,.26-.07,.23-.24,.36-.47,.41-.22,.05-.41-.02-.59-.13-.05-.03-.1-.07-.15-.1,.03-.08,.11-.05,.17-.08,.04-.02,.1-.01,.15-.02,.02,0,.06,0,.07-.02,.04-.05,.1-.05,.15-.08,.08-.04,.16-.08,.21-.16,.05,0,.1,.02,.14,.01,.19-.02,.23-.17,.21-.32-.03-.14-.11-.24-.19-.35,0-.01,.01-.02,.02-.04,0,0,.02,0,.03,.01,.16,.17,.29,.36,.33,.6Z"/>
      <path class="cls-8" d="M13.33,12.33s0,.08,.02,.12c.05,.16,.06,.32-.02,.47-.02,0-.03,0-.05,.01-.1,.08-.21,.13-.34,.14-.15,.02-.29-.02-.4-.12-.15-.13-.2-.31-.21-.49,0-.09,.02-.18,.03-.26,.04-.06,.07-.13,.12-.19,.1-.11,.2-.2,.3-.3,.05-.02,.11-.04,.16-.07,.06,.03,.12,.06,.18,.09-.05,.03-.12,.05-.16,.08-.17,.15-.32,.31-.39,.54-.05,.17,0,.34,.13,.43,.06,.04,.13,.06,.2,.08,.04,0,.09,0,.13-.02,.14-.02,.22-.12,.22-.26,0-.1-.01-.19-.02-.29,.03,.01,.06,.02,.09,.03Z"/>
      <path class="cls-6" d="M5.71,12.54s.01,.07,0,.09c-.03,.05-.07,.1-.11,.15-.05,.06-.11,.12-.16,.19-.03,.04-.03,.09,0,.14,.11,.18,.21,.36,.32,.55,0,0,.02-.02,.03-.03,.04-.05,.09-.1,.13-.16,.03-.04,.05-.1,.09-.14,.02-.03,.04-.07,.08-.02-.1,.14-.19,.28-.29,.42-.01,.02-.04,.03-.06,.05-.06,.04-.1,.09-.13,.15,0,0,0,0,.01,.01,.02,0,.04-.01,.07-.02,0,0,0,0,0,.01-.03,.11-.07,.22-.1,.33-.03-.01-.07-.01-.08-.03-.06-.08-.1-.16-.16-.24-.05-.08-.11-.15-.16-.24-.03-.05-.05-.11-.08-.17-.01-.03-.02-.06-.06-.06,.07-.18,.16-.35,.28-.51,.13-.16,.25-.33,.38-.49Z"/>
      <path class="cls-6" d="M15.25,8.17c-.05,.04-.1,.08-.15,.13-.04,.04-.08,.08-.11,.13-.07,.08-.17,.13-.27,.15-.14,.02-.27,.02-.4-.03-.02,0-.05-.03-.05-.05-.04-.23-.17-.39-.35-.52-.08-.06-.11-.12-.1-.21,.01-.08,.03-.16,.04-.24,.03,0,.05,0,.07,.04,.02,.05,.04,.1,.07,.14,.09,.1,.19,.18,.28,.27,.06,0,.08,.04,.07,.1,0,.06,.02,.09,.08,.07,.02,0,.03-.01,.04-.02,.06,0,.12,.02,.18,.03,.2,.03,.38-.01,.56-.08,.03-.01,.07-.02,.11-.03-.01,.03-.03,.07-.04,.1,0,.01-.01,.02-.02,.03Z"/>
      <path class="cls-12" d="M14.15,14.82c.04-.08,.09-.15,.13-.23,.07-.16,.1-.33,.08-.5,0-.03,0-.07,0-.1,.03,.02,.05,.04,.08,.06,.01,.03,.02,.07,.04,.09,.04,.05,.1,.09,.14,.13,.02,.02,.05,.04,.06,.07,.06,.19,.08,.39,.03,.58-.02,.08-.05,.15-.07,.22-.18,.03-.36,.05-.54,.08-.07,0-.13,.02-.2,.03,.02-.04,.03-.09,.05-.13,.05-.08,.12-.16,.17-.24,.01-.02,.02-.04,.02-.06Z"/>
      <path class="cls-24" d="M11.74,9.84s0,.04,0,.05c.07,.12,.14,.23,.21,.35,0,.01,.03,.02,.04,.02-.02,.08,.02,.15,.07,.22,.04,.07,.09,.13,.14,.2-.03,0-.06-.01-.08-.03-.15-.09-.27-.21-.38-.35-.05-.07-.11-.15-.17-.22-.05-.06-.12-.12-.18-.18-.15-.16-.3-.3-.54-.26,0-.14,.02-.28,.03-.44h.36c.04,.14,.08,.32,.3,.31,.07,.11,.14,.21,.21,.32Z"/>
      <path class="cls-30" d="M14.1,8.9s-.06,.11-.11,.15c-.05,.04-.06,.08-.05,.13,.06,.32,.25,.53,.59,.59,.16,.03,.32,.03,.47,.05,.19,0,.39-.02,.58-.01,.24,0,.48,.05,.68,.19,.12,.09,.21,.2,.2,.36-.03,.02-.06,.05-.11,.08,0-.13-.04-.22-.11-.3-.11-.11-.25-.15-.4-.16-.01,0-.02,0-.03,0-.02,0-.03,0-.05,0-.02-.01-.04-.03-.06-.03-.11,0-.23,.01-.34,.01-.18,0-.36,.02-.54,.02-.26,0-.51-.06-.71-.23-.19-.16-.31-.36-.3-.62,0-.07,.01-.13,.1-.15,.01,0,.02-.02,.04-.04,.05-.02,.11-.03,.16-.05Z"/>
      <path class="cls-29" d="M8.84,9.85c0,.09-.06,.15-.08,.22-.05,.14-.11,.27-.14,.41-.05,.18-.03,.37-.04,.56-.05,0-.1,0-.14-.02-.15-.03-.29-.09-.34-.25-.03-.09-.04-.18-.06-.27,.17-.34,.44-.56,.81-.66Z"/>
      <path class="cls-11" d="M12.93,12.87c-.07-.03-.14-.05-.2-.08-.14-.09-.18-.25-.13-.43,.06-.23,.22-.39,.39-.54,.04-.04,.11-.06,.16-.08,.14,.03,.28,.08,.43,.09,.13,.01,.23,.03,.27,.18,0,.03,.05,.06,.07,.08-.02,0-.05,0-.07,0-.02,0-.03,0-.05,.01-.08-.05-.16-.13-.26-.17,.02,.07,.04,.13,.05,.18-.14,0-.26,.03-.38,.12-.02,.02-.05,.02-.08,.03v-.22c-.13,.05-.28,.24-.29,.36-.02,.12,0,.23,.11,.3,0,.05-.01,.11-.02,.16Z"/>
      <path class="cls-9" d="M14.02,13.36s.09-.07,.13-.1c.15-.13,.22-.3,.21-.5,0-.03,0-.06,0-.1,.05,.07,.09,.14,.14,.2,.1,.12,.2,.24,.3,.37,.08,.11,.16,.22,.2,.36-.02,.01-.04,.02-.06,.04-.06,.06-.12,.08-.21,.08-.13,0-.24-.05-.35-.09-.14-.06-.25-.16-.36-.25Z"/>
      <path class="cls-22" d="M13.1,8.71c-.1,.21-.21,.41-.31,.62-.14,.31-.23,.63-.24,.97-.08-.21-.06-.43,0-.65-.11,.18-.16,.38-.13,.59,.02,.13,.06,.25,.09,.38-.02-.03-.05-.06-.06-.1-.04-.09-.08-.18-.12-.28-.01-.22,.02-.44,.08-.64,.08-.24,.17-.47,.26-.71,.01-.03,.03-.06,.05-.08,.02,0,.03,0,.05-.02,.1-.07,.22-.09,.34-.08Z"/>
      <path class="cls-29" d="M13.73,13.45v.02s-.07,.02-.1,.04c-.04,.04-.08,.1-.12,.14-.05,.07-.1,.14-.16,.19-.04,.04-.1,.07-.16,.08-.16,.02-.3-.02-.43-.11,.02-.07,.04-.14,.06-.21,.02-.08,.05-.16,.07-.23-.02-.01-.05-.03-.08-.04,.13,0,.25,0,.37-.06,.15,.16,.35,.16,.54,.17Z"/>
      <path class="cls-24" d="M8.09,17.99c.04,.06,.07,.11,.11,.17,.26,.33,.62,.5,1.02,.59,.14,.03,.28,.02,.43,.02-.04,.1-.12,.14-.22,.15-.41,.05-.78-.08-1.1-.32-.09-.07-.17-.16-.26-.24-.03-.03-.05-.06-.07-.1-.07-.13-.04-.2,.1-.26Z"/>
      <path class="cls-12" d="M15.11,14.06c.07,.27,.17,.52,.34,.74,.06,.07,.17,.11,.26,.15,.16,.06,.34,.09,.49,.2,.05,.04,.11,.06,.14,.14-.07,0-.13-.02-.18-.02,0,0,0-.02-.01-.03-.15-.15-.46-.2-.65-.1-.01,0-.03-.02-.04-.02-.18-.05-.32-.15-.4-.33-.01-.02-.04-.04-.06-.06,0-.13,0-.26,0-.4,0-.06-.01-.12-.02-.18,.04-.03,.08-.06,.13-.08Z"/>
      <path class="cls-15" d="M17.34,6.68s.03,0,.04,.01c.13,.13,.29,.14,.46,.09,.28-.08,.53-.21,.72-.45,0,0,.02,0,.03-.01-.02,.13-.1,.24-.18,.34-.18,.21-.38,.38-.65,.47-.13,.04-.26,.06-.39,.01-.03,0-.05-.02-.07-.03,.02-.15,.03-.29,.05-.43Z"/>
      <path class="cls-1" d="M15.31,8.03s-.07,.02-.11,.03c-.18,.07-.37,.11-.56,.08-.06,0-.12-.02-.18-.03,.09-.1,.11-.23,.12-.36,.05,0,.1,0,.14,0,.14,.02,.28,0,.39-.09,.06-.05,.11-.12,.16-.18,.03-.03,.06-.06,.08-.08,.04,.21,.04,.42-.04,.62Z"/>
      <path class="cls-12" d="M11.2,14.49s.03,.03,.04,.04c.09,.11,.17,.24,.27,.34,.23,.23,.5,.39,.82,.48,.03,0,.05,.03,.08,.04-.08,0-.15,0-.22-.02-.24-.06-.48-.14-.73-.2-.16-.04-.33-.07-.48-.1,.07-.19,.15-.39,.22-.59Z"/>
      <path class="cls-24" d="M7.6,11.5s-.06-.04-.09-.07c-.12-.13-.26-.22-.43-.25-.02,0-.04-.02-.07-.04,.24-.22,.51-.39,.8-.55-.06,.27-.16,.52-.03,.78-.06,.04-.12,.08-.19,.12Z"/>
      <path class="cls-26" d="M12.31,10.91c.11,.23,.26,.43,.47,.6-.07,.16-.21,.25-.34,.35-.03-.07-.05-.15-.08-.22-.04-.09-.07-.1-.16-.08,0-.13,0-.27-.03-.4-.03-.18-.11-.35-.21-.51,.03,.02,.06,.03,.08,.05,.09,.07,.15,.16,.27,.2Z"/>
      <path class="cls-15" d="M14.99,6.06s.06,.02,.08,.04c.19,.17,.34,.37,.5,.57,.19,.24,.4,.47,.69,.6,.25,.12,.51,.13,.75-.03,.02-.01,.04-.01,.06-.02-.08,.15-.22,.22-.38,.26-.24,.06-.45-.03-.65-.15-.23-.14-.4-.35-.56-.57-.16-.23-.33-.47-.49-.7Z"/>
      <path class="cls-12" d="M14.02,13.36c.11,.1,.22,.2,.36,.25,.11,.04,.23,.09,.35,.09,.08,0,.15-.02,.21-.08,.02-.02,.04-.03,.06-.04,.02,.07,.04,.14,.05,.21,0,.11-.06,.18-.16,.2-.1,.02-.2,0-.29-.03-.12-.06-.24-.13-.36-.2-.03-.01-.06-.05-.07,.01-.14-.09-.23-.21-.23-.39,.03-.01,.06-.02,.08-.04Z"/>
      <path class="cls-9" d="M15.7,7.22c.12,.09,.24,.19,.36,.27,.07,.05,.15,.07,.23,.11-.03,.12-.11,.19-.2,.26-.03,.02-.04,.05-.07,.07-.1,0-.2,.01-.3,.02,0-.05,0-.11-.01-.16-.11,0-.14-.09-.07-.24h-.08c-.04-.15,.01-.27,.14-.32Z"/>
      <path class="cls-12" d="M18.76,17.43c.2,.03,.35,.15,.51,.26,.14,.1,.29,.17,.46,.2,.07,.01,.13,0,.2,.01,0,.11,0,.22,0,.33-.18,.02-.35-.02-.48-.15-.01-.01-.03-.01-.05-.02-.07-.08-.14-.17-.22-.25-.12-.12-.25-.22-.41-.28-.03,0-.06,0-.09,0-.01-.03-.02-.05-.03-.08,.04,0,.07-.02,.11-.03Z"/>
      <path class="cls-30" d="M12.32,10.24c.04,.09,.07,.19,.12,.28,.02,.04,.04,.07,.06,.1h0s.01,.02,.02,.03h0s.01,.02,.02,.03c.07,.1,.14,.22,.22,.31,.16,.19,.35,.36,.58,.46,.1,.04,.2,.07,.31,.06,.04,0,.07-.01,.03-.06,.11,0,.23,0,.34,0,.06,0,.12-.03,.19-.05-.02,.03-.04,.07-.06,.09-.11,.08-.23,.13-.37,.14-.33,.03-.61-.07-.86-.29-.22-.19-.39-.41-.51-.68,0-.01-.02-.02-.03-.03-.02-.13-.03-.26-.05-.39Z"/>
      <path class="cls-18" d="M13.94,8.94s-.02,.04-.04,.04c-.08,.02-.09,.08-.1,.15,0,.26,.11,.46,.3,.62,.2,.17,.45,.23,.71,.23,.18,0,.36,0,.54-.02,.11,0,.23-.01,.34-.01,.02,0,.04,.02,.06,.03-.19,.03-.38,.05-.56,.08-.31,.04-.61,.05-.91-.07-.34-.13-.54-.39-.6-.75-.03-.18-.02-.25,.02-.36,.07,.02,.15,.04,.22,.07Z"/>
      <path class="cls-24" d="M9.82,18.85c.07,.24,.25,.36,.48,.42,.26,.08,.53,.13,.8,.12,.25,0,.48-.06,.7-.16,.03-.01,.07-.02,.11-.03-.22,.15-.46,.24-.72,.28-.4,.07-.79,.04-1.15-.14-.07-.03-.13-.08-.19-.13-.13-.11-.13-.23-.01-.36Z"/>
      <path class="cls-12" d="M12.31,10.91c-.11-.04-.18-.13-.27-.2-.03-.02-.06-.04-.08-.05h0s0-.01-.01-.02c-.29-.39-.69-.63-1.14-.78-.01,0-.02-.01-.04-.02,.03-.06,.05-.13,.08-.19,.24-.04,.39,.1,.54,.26,.06,.06,.12,.11,.18,.18,.06,.07,.11,.14,.17,.22,.1,.14,.23,.26,.38,.35,.02,.01,.06,.02,.08,.03,.07,.06,.1,.14,.12,.23Z"/>
      <path class="cls-15" d="M13.37,5.68s0,0,0,0c.14,.18,.33,.15,.52,.14,.15,0,.3-.03,.45-.05,.01,0,.02,0,.04-.01,.12,.03,.22,.08,.31,.16h0c-.13,0-.25-.01-.38-.02-.3,0-.58,.07-.85,.2-.09,.04-.17,.09-.25,.13h0c.02-.08,.03-.16,.05-.23,.03-.11,.08-.22,.11-.33Z"/>
      <path class="cls-12" d="M18.5,18.95s.06,.02,.08,.03c.12,.09,.23,.18,.38,.23,.28,.09,.56-.04,.61-.37,0-.02,.02-.04,.03-.06,.04,.19,.02,.37-.05,.55-.01,.03-.03,.05-.05,.07-.03,0-.06,0-.09,.01-.28,.08-.52,.01-.73-.17-.01-.01-.04-.02-.06-.02-.04-.09-.07-.19-.11-.28Z"/>
      <path class="cls-1" d="M14.26,7.96c-.09-.09-.19-.18-.28-.27-.03-.04-.05-.09-.07-.14-.01-.03-.03-.05-.07-.04,.07-.24,.2-.44,.42-.58,0,.06,0,.11-.02,.17-.03,.14-.01,.27,.08,.39,0,0,0,.02,0,.03-.08,.14-.1,.29-.08,.44Z"/>
      <path class="cls-12" d="M8.03,10.51c.02,.09,.03,.18,.06,.27,.05,.16,.19,.22,.34,.25,.05,.01,.1,.01,.14,.02,.04,.01,.08,.03,.13,.04,0,0,0,.01,0,.02-.14,.05-.27,.09-.41,.14-.13,.02-.27,.04-.41,.06-.03-.27,.04-.53,.15-.79Z"/>
      <path class="cls-10" d="M12.94,9.98s.05-.03,.05,.01c0,.02,0,.05-.01,.07-.02,.09-.05,.18-.07,.27-.09,.4,.31,.75,.67,.7,.08-.01,.14-.05,.18-.11,.03-.04,.05-.08,.07-.12,0,.1,0,.2-.05,.3-.02,0-.04,.02-.06,.03-.06,.02-.12,.05-.18,.05-.15-.01-.29-.05-.41-.15-.02-.01-.04-.02-.06-.03-.14-.11-.23-.26-.31-.42-.01-.03-.01-.06,0-.09,0-.08,.02-.15,.03-.23,.02-.09,.07-.18,.15-.24,.03-.02,.04-.04,.02-.07Z"/>
      <path class="cls-12" d="M4.71,15.52s.04-.03,.08-.05c0,.05,0,.09,0,.12-.03,.28-.03,.56,.07,.83,.03,.07,.07,.14,.11,.21,0,.02,.03,.02,.05,.04-.01,.09-.02,.17-.03,.26-.05-.04-.11-.07-.16-.11-.06-.05-.1-.12-.15-.18-.07-.34-.08-.68,.01-1.02,0-.03,.01-.06,.02-.09Z"/>
      <path class="cls-24" d="M18.45,19.39c-.02,.11-.1,.17-.23,.15-.09-.01-.18-.03-.27-.06-.25-.08-.49-.2-.7-.35-.07-.05-.13-.11-.2-.18,.1-.04,.18-.06,.26-.09,.04,.05,.08,.11,.13,.15,.12,.09,.23,.18,.36,.26,.15,.09,.3,.17,.48,.15,.06,0,.12-.02,.18-.03Z"/>
      <path class="cls-12" d="M12.78,8.18s-.08-.02-.09-.04c0-.03,.01-.07,.04-.1,.06-.07,.14-.07,.23-.05,.15,.03,.28,.09,.4,.17,.16,.1,.31,.2,.47,.3,.09,.06,.2,.09,.31,.07-.02,.07-.03,.13-.05,.2-.11,0-.22,.01-.33-.03-.03-.05-.06-.09-.08-.14-.05-.1-.11-.17-.21-.23-.09-.05-.18-.1-.27-.15-.11-.06-.24-.08-.36-.06-.03,0-.07,0-.06,.05Z"/>
      <path class="cls-8" d="M14.16,12.4c.02,.07,.05,.14,.07,.22,.01,.05,.01,.11,.02,.16-.01,.01-.03,.02-.03,.03-.04,.06-.07,.11-.11,.17-.14,.18-.34,.24-.56,.16-.04-.02-.09-.03-.13-.05,.02-.06,.04-.11,.06-.17,.03,0,.06,0,.09,.01,.16,.02,.3-.02,.41-.14,.09-.08,.12-.18,.15-.29,0-.03,.03-.07,.04-.1Z"/>
      <path class="cls-5" d="M17.03,9.28s-.1,.03-.14,.05c0-.06,0-.11-.02-.17-.03-.19-.09-.37-.19-.53-.11-.18-.26-.31-.44-.41,.01-.03,.02-.07,.04-.1,.06,.03,.13,.05,.19,.08,.31,.17,.46,.46,.54,.79,.02,.1,.02,.2,.03,.29Z"/>
      <path class="cls-18" d="M12.37,10.63s.03,.02,.03,.03c.12,.26,.29,.49,.51,.68,.25,.21,.53,.32,.86,.29,.13-.01,.26-.06,.37-.14,.03-.02,.04-.06,.06-.09h0s.03-.02,.05-.03h0s.01-.01,.02-.02h0s.01-.01,.02-.02h0s.01-.01,.02-.02h0s.02-.03,.03-.05h0c.1-.06,.11-.15,.12-.25,.01,0,.02-.01,.03-.02,.01,.26-.19,.55-.44,.65-.28,.11-.55,.07-.82-.03-.43-.17-.73-.47-.85-.93,0-.02,0-.03,0-.05Z"/>
      <path class="cls-12" d="M4.67,14.5s-.03,.04-.04,.06c-.06,.3-.1,.61-.08,.92-.04,.1-.09,.19-.13,.29-.06-.12-.1-.24-.09-.37,0-.01-.02-.03-.03-.04,.06-.21,.11-.43,.17-.64,.04-.14,.11-.27,.17-.4h.02c0,.06,0,.12,0,.18Z"/>
      <path class="cls-21" d="M13.68,11.45s0,.06-.03,.06c-.11,0-.21-.01-.31-.06-.24-.1-.42-.27-.58-.46-.08-.1-.15-.21-.22-.31,0-.01-.01-.02-.02-.03h0s-.01-.02-.02-.03h0c-.03-.13-.07-.25-.09-.38-.03-.21,.02-.41,.13-.59-.05,.22-.07,.43,0,.65,.06,.53,.35,.87,.83,1.08,.09,.04,.2,.05,.3,.08Z"/>
      <path class="cls-15" d="M12.37,12.2c-.01,.09-.03,.18-.03,.26,0,.19,.06,.36,.21,.49,.11,.1,.25,.14,.4,.12,.13-.02,.24-.07,.34-.14,.01,0,.03,0,.05-.01-.05,.18-.18,.28-.38,.29-.32,.03-.63-.2-.7-.51-.03-.13,0-.26,.06-.39,.02-.04,.04-.08,.07-.12Z"/>
      <path class="cls-12" d="M7.26,12.36c.1,.12,.24,.18,.39,.22,.14,.04,.29,.05,.44,.09-.13,.08-.26,.13-.4,.17-.09,.03-.17,.05-.27,.08-.08-.17-.19-.35-.16-.56Z"/>
      <path class="cls-24" d="M13.17,18.3c.13,.01,.26,.04,.39,.03,.23-.01,.45-.05,.64-.19,.05-.04,.1-.09,.16-.13-.01,.06-.04,.12-.09,.16-.02,0-.05,0-.06,0-.24,.24-.55,.32-.88,.37-.11,.02-.22,.02-.33,.03,0,0,0-.01,0-.02,.06-.08,.12-.17,.18-.25Z"/>
      <path class="cls-8" d="M17.52,4.47s.09-.04,.13-.06c.12-.07,.17-.19,.21-.32,0-.03,.01-.05,.02-.08,.11,.1,.2,.21,.26,.34,0,0-.02,.02-.02,.02-.03,.11-.08,.21-.19,.27,0,0,0,.01,0,.02-.14-.07-.27-.13-.41-.2Z"/>
      <path class="cls-12" d="M14.71,6.63s0,0,0,0c.05-.08,.06-.16-.02-.23,.15-.03,.29,.02,.42,.09,.11,.06,.16,.16,.22,.25,.07,.09,.11,.18,.05,.29-.02,.03-.02,.07-.02,.11-.06-.09-.12-.18-.18-.26,0,0,0-.01,.01-.02,.02,.01,.04,.02,.07,.04-.06-.15-.3-.27-.55-.27Z"/>
      <path class="cls-28" d="M12.93,12.87c0-.05,.01-.11,.02-.16,0,0,.02,0,.02,0,.17,0,.24-.09,.19-.26-.02-.06-.02-.12-.04-.18,.03,0,.06-.01,.08-.03,.11-.09,.24-.11,.38-.12,.04,.09,.05,.19,.05,.29-.07,0-.14,.01-.21,.02-.01-.03-.02-.06-.04-.08,0-.01-.03-.01-.05-.02-.03-.01-.06-.02-.09-.03,0,.1,.02,.2,.02,.29,0,.14-.08,.24-.22,.26-.04,0-.08,.01-.13,.02Z"/>
      <path class="cls-12" d="M18.45,19.39c-.06,.01-.12,.03-.18,.03-.18,.01-.33-.06-.48-.15-.13-.08-.25-.17-.36-.26-.05-.04-.08-.1-.13-.15,.02-.01,.05-.03,.07-.04,.14,.21,.35,.29,.57,.36,.06,.02,.12,.02,.18,.04,.06,.02,.12,.03,.18,.05,.05,.02,.09,.01,.12-.04,0,0,.02-.01,.03-.02,0,.06,0,.12,0,.18Z"/>
      <path class="cls-12" d="M11.52,13.54c-.03,.06-.05,.12-.08,.18,.08,.06,.18,.13,.31,.13,.13,0,.21-.1,.31-.17-.04,.17-.21,.32-.37,.33-.15,.01-.27-.03-.38-.12-.03-.02-.06-.03-.09-.04-.01-.03-.02-.07-.04-.11,.16-.01,.26-.11,.36-.21Z"/>
      <path class="cls-24" d="M14.64,15.14c.02-.07,.05-.15,.07-.22,.05-.2,.04-.39-.03-.58,0-.03-.04-.05-.06-.07-.05-.04-.1-.08-.14-.13-.02-.02-.02-.06-.04-.09,.12,.07,.25,.13,.41,.12,.06,.33-.01,.65-.09,.97h-.12Z"/>
      <path class="cls-24" d="M18.61,19.23s.04,.01,.06,.02c.22,.18,.46,.25,.73,.17,.03,0,.06,0,.09-.01-.12,.18-.41,.27-.61,.19-.09-.03-.18-.07-.27-.11v-.26Z"/>
      <path class="cls-15" d="M13.41,13.08s.09,.03,.13,.05c.22,.08,.42,.03,.56-.16,.04-.05,.07-.11,.11-.17,0-.01,.02-.02,.03-.03,.02,.21-.1,.35-.26,.46-.09,.06-.18,.09-.29,.08-.09,0-.18-.01-.27-.02-.02,0-.04,0-.05-.02-.08-.03-.08-.05-.02-.12,.02-.03,.05-.05,.07-.08Z"/>
      <path class="cls-17" d="M13.42,12.43c.07,0,.14-.01,.21-.02,0,.03,.01,.07,.01,.1,.01,.18,.16,.28,.29,.21,.01,.02,.02,.04,.03,.07-.11,.12-.25,.16-.41,.14-.03,0-.06,0-.09-.01,.03-.17,.02-.33-.05-.49Z"/>
      <path class="cls-12" d="M15,12.14s-.02,.02-.03,.03c-.17,.08-.31,.18-.42,.34-.02,.02-.04,.05-.06,.07-.05-.06-.09-.13-.14-.19,.08-.09,.14-.18,.11-.31,.19,0,.36,.01,.53,.07Z"/>
      <path class="cls-12" d="M5.08,16.45c.02-.07,.03-.14,.05-.21,0,0,.02,0,.03,0,.03,.05,.05,.1,.08,.15,.12,.23,.3,.39,.57,.43,.03,0,.07,0,.1,0,0,.05,.01,.1,.02,.15-.13,.03-.25,.01-.35-.06-.08-.06-.15-.13-.23-.2-.03-.02-.05-.04-.08-.06-.01-.03-.03-.06-.04-.09-.02-.07-.06-.1-.13-.09Z"/>
      <path class="cls-24" d="M8.18,17.38s.05,.05,.07,.07c.08,.09,.18,.17,.3,.21,.03,0,.05,.03,.07,.04-.09,0-.18,.02-.26,.03-.07,0-.14,.01-.2,.03-.05,.01-.07,0-.08-.04-.06-.12-.02-.26,.1-.35Z"/>
      <path class="cls-9" d="M11.03,12.84c-.11,.17-.27,.25-.46,.28-.09-.05-.18-.09-.27-.14,0-.04,0-.06,.05-.06,.17-.02,.33-.04,.5-.07,.06-.01,.12-.04,.19-.01Z"/>
      <path class="cls-12" d="M7.22,13.07c-.14-.11-.29-.18-.48-.13-.01,0-.02,0-.03,0,.13-.12,.26-.23,.4-.35,.05,.15,.07,.31,.2,.42-.03,.02-.06,.05-.09,.07Z"/>
      <path class="cls-26" d="M16.03,7.92s.04-.05,.07-.07c.09-.06,.17-.14,.2-.26,.08,0,.12,.04,.13,.12,.02,.11,.04,.22,.06,.34-.14-.04-.27-.08-.4-.12h-.06s0-.01,0-.01Z"/>
      <path class="cls-26" d="M15.7,7.22c-.13,.05-.18,.17-.14,.32-.07,.11-.06,.24-.07,.36-.03-.31-.12-.62-.02-.94,.08,.09,.15,.17,.23,.26Z"/>
      <path class="cls-24" d="M5.25,16.63s.06,.04,.08,.06c.08,.07,.15,.14,.23,.2,.1,.08,.23,.1,.35,.06,0,.15-.18,.24-.32,.15-.12-.08-.21-.18-.27-.31-.03-.05-.05-.11-.07-.17Z"/>
      <path class="cls-15" d="M17.93,4.67s0-.01,0-.02c.11-.06,.16-.16,.19-.27,0,0,.01-.02,.02-.02,.11,.17,.15,.36,.15,.58-.13-.1-.24-.18-.36-.27Z"/>
      <path class="cls-24" d="M15.01,14.72s.05,.04,.06,.06c.08,.18,.22,.28,.4,.33,.01,0,.03,.01,.04,.02-.02,.01-.05,.03-.07,.03-.17-.01-.33-.03-.5-.04,.02-.13,.04-.27,.06-.4Z"/>
      <path class="cls-13" d="M13.97,12.79s-.02-.04-.03-.07c.06-.08,.07-.15,.05-.25-.03-.15-.11-.26-.2-.37,.02,0,.03,0,.05-.01,.02,0,.05,0,.07,0,.07,.06,.13,.13,.2,.19,.03,.03,.04,.08,.05,.12-.01,.03-.03,.07-.04,.1-.03,.11-.05,.22-.15,.29Z"/>
      <path class="cls-12" d="M16.13,15.27c.1,.08,.2,.15,.29,.24,.05,.04,.1,.09,.11,.18-.09-.05-.16-.09-.23-.14-.02-.02-.03-.05-.05-.07-.18-.14-.38-.23-.59-.29,.17-.06,.33,0,.48,.07Z"/>
      <path class="cls-26" d="M14.14,12.13c-.11-.09-.22-.17-.29-.31,.08-.02,.15-.04,.23-.06,.06,.06,.13,.13,.2,.2-.02,.08-.08,.13-.15,.17Z"/>
      <path class="cls-12" d="M14.68,6.29s.02-.03,.03-.05c-.04-.05-.08-.09-.12-.14-.02-.02-.03-.05-.04-.07,.11,.02,.22,.05,.32,.07,.02,0,.04,.02,.05,.04,.06,.08,.11,.15,.17,.23,0,0,0,.01-.01,.02-.12-.08-.26-.1-.4-.09Z"/>
      <path class="cls-24" d="M19.4,18.07s.04,0,.05,.02c.14,.13,.3,.16,.48,.15,0,.15-.07,.2-.21,.19-.08,0-.13-.04-.17-.11-.04-.09-.1-.16-.16-.24Z"/>
      <path class="cls-26" d="M18.45,19.21s-.03,0-.03,.02c-.03,.05-.07,.05-.12,.04-.06-.02-.12-.04-.18-.05,.02-.07,.04-.14,.06-.21,.01-.04,.02-.06,0-.1-.02-.03-.02-.05,0-.07,.02,.02,.04,.04,.07,.06,0,0,.01,.02,.02,.03,.07,.08,.15,.16,.18,.28Z"/>
      <path class="cls-30" d="M13.1,8.71c-.12-.01-.24,0-.34,.08-.01,0-.03,.01-.05,.02,.07-.11,.14-.21,.21-.32,.01,0,.03,.01,.04,.01,.08,0,.17-.02,.24,.03-.04,.06-.07,.12-.11,.18Z"/>
      <path class="cls-30" d="M14.36,10.39c-.14,.09-.28,.17-.42,.26,0,0,0,0,0,0-.04-.14-.07-.1,.06-.21,.07-.06,.15-.11,.23-.16,.03,.01,.05,.02,.08,.04,.03,.02,.05,.05,.07,.08Z"/>
      <path class="cls-6" d="M7.75,15.26s0,.01-.01,.02c-.13-.03-.2-.12-.27-.22,0,0,0-.02-.01-.02-.09-.04-.14-.13-.19-.2-.07-.09-.15-.19-.22-.29-.02-.03-.04-.07-.06-.11-.02-.03-.04-.07,.02-.09,.07,.11,.13,.23,.22,.34,.12,.15,.23,.3,.39,.42,.05,.04,.1,.09,.14,.14Z"/>
      <path class="cls-18" d="M14.36,10.39s-.04-.05-.07-.08c-.02-.02-.05-.03-.08-.04,.12-.08,.24-.13,.39-.09,.07,.02,.15,0,.23,.01-.16,.07-.32,.13-.47,.19Z"/>
      <path class="cls-24" d="M9.9,14.98c.11,.02,.22,.05,.33,.07,.05,0,.1,0,.15,0,0,0,0,.01,0,.02-.02,.02-.04,.04-.06,.05-.08,.04-.16,.09-.25,.05,.03-.05,0-.06-.04-.05-.1,.01-.19-.02-.27-.08,0,0,0-.01-.02-.02,.05-.01,.1-.02,.15-.03Z"/>
      <path class="cls-12" d="M12.14,12.41s-.07,.05-.11,.07c-.05,.03-.1,.06-.16,.03,0-.03-.01-.06-.02-.09,.1-.05,.16-.15,.21-.25l.12,.1s-.03,.1-.04,.15Z"/>
      <path class="cls-24" d="M14.17,10.65c-.02,.06-.04,.11-.05,.17-.01,.08-.01,.17-.02,.25-.06,.02-.11,.03-.17,.05,.01-.1,.02-.18,.03-.26,0-.02,.01-.04,.02-.06,.06-.05,.12-.1,.18-.16Z"/>
      <path class="cls-18" d="M14.32,11.16s-.03,.02-.04,.04c-.06,.07-.14,.11-.23,.13-.07,.01-.15,.02-.24,.03,.03-.06,.06-.11,.09-.16,.14,.03,.25-.01,.37-.07,.02,0,.04-.02,.06-.03,0,.02,0,.04,0,.06Z"/>
      <path class="cls-18" d="M13.06,11.01s.05,.01,.06,.03c.12,.1,.26,.14,.41,.15,.06,0,.12-.03,.18-.05,.02,0,.04-.02,.06-.03-.04,.07-.08,.14-.12,.21-.23-.06-.43-.14-.6-.31Z"/>
      <path class="cls-18" d="M13.21,8.53c-.08-.05-.16-.04-.24-.03-.01,0-.03,0-.04-.01,.06-.06,.12-.13,.18-.19,.01-.01,.04-.02,.06,0,.05,.02,.09,.05,.15,.08-.04,.06-.07,.11-.11,.16Z"/>
      <path class="cls-28" d="M18.26,5.11s-.01,.02-.02,.04c-.15-.13-.31-.24-.49-.32-.05-.02-.1-.05-.14-.07,.01-.03,.02-.06,.03-.08,.23,.11,.45,.25,.62,.44Z"/>
      <path class="cls-12" d="M12.19,11.56c.1-.03,.13-.01,.16,.08,.03,.07,.05,.15,.08,.22l-.13,.16s-.01,0-.02,0c0-.08,0-.16,.01-.25,0-.09-.02-.11-.11-.09,0-.04,0-.08,0-.11Z"/>
      <path class="cls-10" d="M13.61,10.3s-.04,.07-.05,.11c-.02,.09-.02,.19-.04,.28-.02,.08-.05,.17-.15,.2,.12-.21,.12-.44,.08-.69,.06,.04,.1,.07,.15,.11Z"/>
      <path class="cls-24" d="M4.68,16.63c.05,.06,.09,.13,.15,.18,.05,.05,.11,.08,.16,.11-.02,.06-.03,.11-.05,.19-.17-.13-.23-.3-.25-.48Z"/>
      <path class="cls-12" d="M14.14,12.13c.07-.04,.13-.09,.15-.17,.1,.11,.1,.27-.02,.34-.04-.06-.09-.11-.13-.17Z"/>
      <path class="cls-24" d="M4.3,15.36s.03,.03,.03,.04c0,.13,.03,.26,.09,.37-.02,.03-.03,.06-.06,.1-.09-.17-.1-.34-.06-.52Z"/>
      <path class="cls-18" d="M12.76,10.11s-.05,.1-.08,.16c0-.18,.03-.34,.07-.5,.01-.05,.05-.04,.09-.03-.02,.05-.04,.09-.05,.14-.02,.07-.08,.15-.04,.23Z"/>
      <path class="cls-10" d="M12.76,10.11c-.04-.09,.01-.16,.04-.23,.01-.05,.03-.09,.05-.14h.1c-.02,.06-.05,.12-.07,.17,0,.03-.01,.06-.02,.08h0s-.01,0-.02,.01c-.03,.03-.06,.06-.08,.1Z"/>
      <path class="cls-24" d="M12.18,12.27l-.12-.1c.03-.1,.07-.19,.1-.28,.01,.09,.03,.19,.04,.3,0,.03-.01,.05-.02,.08Z"/>
      <path class="cls-26" d="M18.68,16.2s-.04,.03-.05,0c-.04-.09-.08-.19-.12-.28,0-.01-.01-.03-.02-.04-.04-.04-.03-.08,0-.12,.06,.15,.13,.3,.19,.45Z"/>
      <path class="cls-24" d="M13.76,8.71c.11,.04,.22,.03,.33,.03-.06,.11-.16,.13-.26,.05-.03-.02-.04-.05-.07-.08Z"/>
      <path class="cls-30" d="M14.32,11.16s0-.04,0-.06c.04-.02,.09-.05,.13-.07,0,.1-.02,.19-.12,.25,0-.04,.05-.08-.01-.11Z"/>
      <path class="cls-15" d="M12.96,11.65l-.16,.07s.04-.09,.07-.14c.03,.03,.07,.05,.1,.08Z"/>
      <path class="cls-6" d="M12.99,15.39s0-.05,0-.07c.06,0,.11,0,.13,.06-.04,0-.09,0-.13,.01Z"/>
      <path class="cls-14" d="M12.88,8.36s0-.04,0-.06c.02-.03,.05-.06,.08-.09,.02,0,.03,0,.06,.01-.05,.05-.1,.09-.14,.13Z"/>
      <path class="cls-12" d="M5.82,16.61c-.07-.02-.12-.05-.14-.12,.04,.02,.08,.03,.11,.06,.02,.01,.02,.04,.04,.06Z"/>
      <path class="cls-26" d="M18.46,15.67s-.03,0-.04,0c0-.02,0-.05,.01-.07,0,.02,.02,.04,.03,.06Z"/>
      <path class="cls-14" d="M12.83,8.2s-.02,.03-.02,.05l-.03-.06s.03,0,.05,.01Z"/>
      <path class="cls-9" d="M9.58,12.79s0-.04,0-.04c.05,0,.04,.03,.04,.06-.01,0-.03,0-.04-.01Z"/>
      <path class="cls-9" d="M9.69,12.81s.02-.03,.03-.05c0,.02,.01,.04,.02,.05-.02,0-.03,0-.05,0Z"/>
      <path class="cls-26" d="M18.22,18.66c.05-.03,.05,0,.04,.04-.01-.01-.03-.03-.04-.04Z"/>
      <path class="cls-26" d="M18.75,16.4s-.05-.02-.01-.05c0,.02,0,.03,.01,.05Z"/>
      <path class="cls-9" d="M10.15,12.92s0-.03,0-.04c0,0,.01,0,.02,0,0,.01-.01,.03-.02,.04h0s0,0,0,0Z"/>
      <path class="cls-30" d="M14.25,11.37s-.03,.02-.05,.03c.02-.01,.03-.02,.05-.03Z"/>
      <path class="cls-29" d="M9.04,8.49s.03,.05,0,.07c0-.02,0-.05,0-.07Z"/>
      <path class="cls-30" d="M14.33,11.27s-.02,.03-.03,.05c.01-.02,.02-.03,.03-.05Z"/>
      <path class="cls-9" d="M16.03,7.92h.06s-.04,0-.06,0Z"/>
      <path class="cls-12" d="M15.09,6.36s0,.02,0,.03c0,0-.02,0-.02,0,0,0,0-.01,.01-.02Z"/>
      <path class="cls-1" d="M18.02,14.88s-.02-.03-.02-.04c0,.01,.02,.03,.02,.04Z"/>
      <path class="cls-18" d="M15.82,9.98s.02,0,.03,0c-.01,0-.02,0-.03,0Z"/>
      <path class="cls-1" d="M18.17,15.14s-.02-.03-.02-.04c0,.01,.02,.03,.02,.04Z"/>
      <path class="cls-1" d="M18.23,15.26s-.02-.03-.02-.04c0,.01,.02,.03,.02,.04Z"/>
      <path class="cls-1" d="M15.25,8.17s.01-.02,.02-.03c0,.01-.01,.02-.02,.03Z"/>
      <path class="cls-12" d="M18.27,18.93s-.01-.02-.02-.03c0,0,.01,.02,.02,.03Z"/>
      <path class="cls-26" d="M11.95,10.63s0,.01,.01,.02c0,0,0-.01-.01-.02Z"/>
      <path class="cls-1" d="M17.48,13.98s-.02-.02-.02-.04c0,.01,.02,.02,.02,.04Z"/>
      <path class="cls-12" d="M15.16,6.86s-.02,0-.03-.01c0,0,0,0,0-.01,.01,0,.02,0,.04,0h-.02Z"/>
      <polygon class="cls-22" points="14.81 8.65 14.82 8.65 14.81 8.66 14.81 8.65"/>
      <path class="cls-27" d="M12.85,10.01s.01-.01,.02-.02c0,0-.01,.01-.02,.02Z"/>
      <path class="cls-30" d="M14.3,11.32s-.01,.01-.02,.02c0,0,.01-.01,.02-.02Z"/>
      <polygon class="cls-15" points="13.21 6.24 13.2 6.24 13.2 6.24 13.21 6.24"/>
      <path class="cls-30" d="M14.28,11.33s-.01,.01-.02,.02c0,0,.01-.01,.02-.02Z"/>
      <path class="cls-12" d="M15.18,6.85s0,0,.01,.01c0,0,0,.01-.01,.02,0,0-.01-.01-.02-.02h.02Z"/>
      <path class="cls-23" d="M9.7,15.79s.01,0,.02,0c0,0,0,0-.01,0,0,0,0,0,0,0Z"/>
      <polygon class="cls-15" points="14.69 5.93 14.7 5.93 14.69 5.93 14.69 5.93 14.69 5.93"/>
      <path class="cls-30" d="M14.27,11.35s-.01,.01-.02,.02c0,0,.01-.01,.02-.02Z"/>
      <path class="cls-6" d="M5.58,14.34s0-.02,.01-.03c0,0,0,.02-.01,.03Z"/>
      <path class="cls-1" d="M17.6,18.25s-.04,.01-.07,.02c.01-.02,.02-.03,.04-.05,0,0,.02,.02,.03,.03Z"/>
      <path class="cls-7" d="M16.33,6.24s-.01-.02-.02-.03c-.01-.01-.02-.02-.03-.03h0s-.01-.03-.02-.05c-.1-.12-.19-.25-.29-.36,.26,0,.79,.14,1.06,.54,.02,.06,.05,.12,.07,.19,.03,.1,.02,.2-.06,.27-.08,.07-.17,.06-.26,.04-.15-.04-.24-.14-.31-.28-.04-.09-.09-.19-.14-.28Z"/>
      <path class="cls-7" d="M17.6,4.75s.1,.05,.14,.07c.18,.08,.35,.19,.49,.32,.08,.11,.16,.21,.19,.35,.03,.15-.01,.3-.21,.32-.05,0-.1,0-.14-.01-.13-.06-.22-.16-.29-.28-.02-.13-.09-.23-.17-.33-.12-.17-.26-.32-.41-.45-.05-.04-.09-.09-.13-.15,.07,.02,.13,.04,.2,.06,.11,.03,.22,.07,.33,.11Z"/>
      <path class="cls-11" d="M16.26,6.12s.01,.03,.02,.05c-.04,0-.05-.02-.02-.05Z"/>
      <path class="cls-11" d="M16.28,6.17s.02,.02,.03,.03c-.01-.01-.02-.02-.03-.03Z"/>
      <path class="cls-5" d="M16.69,9.57c-.08,.01-.17,.04-.25,.04-.08,0-.16-.02-.24-.04-.17-.04-.3-.15-.41-.28-.09-.12-.14-.26-.16-.41-.02-.18,.05-.33,.12-.48,.02-.03,.02-.06,0-.09,.24-.02,.45,.07,.62,.23,.29,.28,.37,.63,.32,1.02Z"/>
      <path class="cls-21" d="M16.69,9.57c.05-.39-.03-.74-.32-1.02-.17-.17-.37-.25-.62-.23-.11,0-.21,.01-.32,.02,0,0,0-.02,0-.02,.02-.02,.05-.05,.08-.06,.21-.13,.43-.11,.65-.05,.03,0,.05,.02,.08,.02,.19,.1,.33,.24,.44,.41,.1,.16,.16,.34,.19,.53,0,.06,.01,.11,.02,.17,0,.22-.04,.43-.18,.61-.03,.04-.08,.08-.13,.11,.04-.16,.07-.32,.11-.48Z"/>
      <path class="cls-12" d="M12.76,13.82c.13,.09,.27,.13,.43,.11,.06,0,.12-.04,.16-.08,.06-.06,.11-.13,.16-.19,.04-.05,.07-.1,.12-.14,.02-.02,.07-.03,.1-.04,.04,.06,.08,.13,.02,.2-.01-.01-.03-.02-.04-.04-.01,.02-.03,.03-.03,.05-.04,.1-.06,.2-.12,.29-.1,.18-.3,.26-.5,.22-.21-.04-.35-.17-.45-.35-.02-.03-.03-.05-.05-.08h-.02s0,.05,0,.08c.02,.12,.09,.22,.16,.31-.04-.02-.09-.04-.12-.08-.08-.11-.15-.22-.22-.34-.04-.08-.05-.16,0-.24,.03-.05,.06-.05,.1-.02,.05,.05,.09,.11,.14,.16,.05,.06,.11,.11,.16,.17Z"/>
      <path class="cls-4" d="M12.71,14.16c-.07-.09-.14-.19-.16-.31,0-.02,0-.05,0-.07h.02s.03,.05,.05,.07c.1,.18,.24,.31,.45,.35,.2,.04,.4-.04,.5-.22,.05-.09,.08-.2,.12-.29,0-.02,.02-.03,.03-.05,.01,.01,.03,.02,.04,.04,.06,.34-.19,.57-.43,.65-.03,0-.06,.02-.09,.02-.21,.03-.38-.05-.53-.19Z"/>
      <path class="cls-7" d="M16.39,3.79c-.07-.03-.13-.06-.21-.1,.15,0,.29-.01,.43-.02,.24,0,.48,0,.71,.07,.13,.03,.24,.09,.34,.19,.11,.11,.08,.25-.07,.31-.19,.08-.38,.04-.52-.1-.13-.13-.29-.21-.46-.27-.07-.03-.14-.05-.21-.08Z"/>
      <path class="cls-4" d="M14.26,7.96c-.02-.15,0-.3,.08-.44,.02-.02,.04-.05,.07-.05,.03,0,.06,0,.09,.02,.01,0,.02,.05,.01,.07-.03,.1,0,.16,.07,.2,0,.13-.03,.26-.12,.36-.01,0-.03,.02-.04,.02-.06,.02-.09,0-.08-.07,0-.06-.01-.09-.07-.1Z"/>
      <path class="cls-12" d="M13.22,10.76c-.09-.06-.08-.15-.07-.22,0-.05,0-.11,0-.16,0-.04,0-.09,.04-.09,.02,0,.06,.03,.07,.06,.02,.05,.02,.1,.02,.16,0,.06-.01,.11-.02,.17,0,.03-.02,.05-.04,.09Z"/>
      <path class="cls-12" d="M13.59,10.87c.03-.08,.05-.15,.07-.22,.02,.11,0,.16-.07,.22Z"/>
      <path class="cls-7" d="M13.79,12.11c.09,.11,.17,.22,.2,.37,.02,.1,0,.17-.05,.25-.14,.07-.28-.03-.29-.21,0-.03,0-.07-.01-.1,0-.1,0-.2-.05-.29-.02-.06-.03-.11-.05-.18,.11,.04,.18,.12,.26,.17Z"/>
      <path class="cls-7" d="M13.12,12.27c.01,.06,.02,.12,.04,.18,.05,.17-.02,.26-.19,.26,0,0-.02,0-.02,0-.12-.07-.13-.18-.11-.3,.02-.12,.17-.31,.29-.36v.22Z"/>
      <path class="cls-22" d="M12.52,10.65s.01,.02,.02,.03c0-.01-.01-.02-.02-.03Z"/>
      <path class="cls-22" d="M12.5,10.62s.01,.02,.02,.03c0-.01-.01-.02-.02-.03Z"/>
    </g>
  </g>
</svg>