<?xml version="1.0" encoding="UTF-8"?>
<svg id="Capa_2" data-name="Capa 2" xmlns="http://www.w3.org/2000/svg" viewBox="0 0 34.94 34.94">
  <defs>
    <style>
      .cls-1 {
        fill: #faf6ed;
      }

      .cls-2 {
        fill: #fff;
      }

      .cls-3 {
        fill: #2e1c15;
      }

      .cls-4 {
        fill: #fdbf31;
      }

      .cls-5 {
        fill: #f8f3e8;
      }

      .cls-6 {
        fill: #f36c58;
      }

      .cls-7 {
        fill: #9e1c21;
      }

      .cls-8 {
        fill: #fcf9f4;
      }

      .cls-9 {
        fill: #c15962;
      }

      .cls-10 {
        fill: #d92026;
      }

      .cls-11 {
        fill: #d9ccbd;
      }

      .cls-12 {
        fill: #e12729;
      }

      .cls-13 {
        fill: #f9f5ec;
      }

      .cls-14 {
        fill: #78111c;
      }

      .cls-15 {
        fill: #e83639;
      }

      .cls-16 {
        fill: #ae4d25;
      }

      .cls-17 {
        fill: #fec302;
      }

      .cls-18 {
        fill: #e3292a;
        stroke: #1d1d1b;
        stroke-miterlimit: 10;
        stroke-width: .45px;
      }

      .cls-19 {
        fill: #fbb729;
      }

      .cls-20 {
        fill: #fbe891;
      }

      .cls-21 {
        fill: #f8a31c;
      }

      .cls-22 {
        fill: #fdfdfd;
      }

      .cls-23 {
        fill: #b59f91;
      }

      .cls-24 {
        fill: #fdfdfc;
      }

      .cls-25 {
        fill: #f7f2e6;
      }

      .cls-26 {
        fill: #ec9d95;
      }

      .cls-27 {
        fill: #e42d2f;
      }

      .cls-28 {
        fill: #fcfbf8;
      }

      .cls-29 {
        fill: #ce6e29;
      }
    </style>
  </defs>
  <g id="Capa_1-2" data-name="Capa 1">
    <path class="cls-18" d="M17.47,.23C7.95,.23,.23,7.95,.23,17.47s7.72,17.24,17.24,17.24,17.24-7.72,17.24-17.24S27,.23,17.47,.23Zm0,30.18c-7.14,0-12.93-5.79-12.93-12.93S10.33,4.54,17.47,4.54s12.93,5.79,12.93,12.93-5.79,12.93-12.93,12.93Z"/>
    <circle class="cls-2" cx="17.47" cy="17.47" r="13.24"/>
    <path class="cls-17" d="M32.5,15.99s.02,.04,.02,.05c.08,.19,.15,.38,.23,.56,.02,.04,.04,.06,.08,.06,.21,.01,.43,.03,.64,.04,0,0,0,0,.02,0-.01,.01-.02,.03-.03,.04-.16,.13-.32,.27-.48,.4-.03,.03-.03,.05-.03,.08,.05,.21,.11,.43,.17,.66-.21-.13-.42-.26-.62-.39-.2,.13-.41,.25-.62,.39,.02-.09,.04-.16,.06-.24,.04-.14,.07-.28,.11-.42,.01-.04,0-.06-.03-.09-.16-.13-.32-.27-.48-.4,0,0-.02-.02-.04-.03,.09,0,.16-.01,.23-.02,.15-.01,.3-.02,.45-.03,.03,0,.05-.02,.06-.05,.08-.19,.15-.38,.23-.58,0-.01,.01-.03,.02-.05Z"/>
    <path class="cls-17" d="M32.79,21.82c-.08-.05-.16-.1-.24-.15-.11-.07-.23-.14-.34-.22-.03-.02-.06-.02-.09,0-.16,.1-.32,.21-.49,.31-.02,.01-.05,.03-.08,.05,0-.02,0-.04,0-.05,.05-.2,.1-.4,.15-.6,.01-.04,0-.06-.03-.08-.17-.14-.33-.28-.5-.41,0,0-.01,0-.02-.02,.02,0,.03,0,.05,0,.21-.01,.43-.03,.64-.04,.04,0,.05-.02,.06-.05,.08-.19,.16-.39,.23-.58,0-.01,0-.02,.02-.04,.01,.03,.02,.05,.03,.07,.08,.19,.15,.38,.23,.56,.01,.04,.03,.05,.07,.05,.22,.01,.43,.03,.65,.04,0,0,.01,0,.03,0-.19,.16-.37,.31-.56,.47,.06,.23,.12,.46,.18,.71Z"/>
    <path class="cls-17" d="M32.57,14.29c-.1-.07-.2-.12-.29-.18-.09-.06-.19-.12-.28-.18-.03-.02-.05-.02-.09,0-.17,.11-.34,.22-.52,.32-.02,.01-.04,.02-.06,.04,.06-.24,.12-.47,.18-.71-.18-.15-.37-.31-.56-.47,.02,0,.04,0,.06,0,.21-.01,.42-.03,.63-.04,.03,0,.04-.02,.05-.04,.07-.19,.15-.38,.23-.56,0-.02,.02-.04,.03-.07,.05,.13,.1,.24,.15,.36,.04,.09,.07,.18,.11,.27,.01,.04,.03,.05,.07,.05,.22,.01,.43,.03,.65,.04,0,0,.01,0,.03,0-.06,.05-.11,.1-.17,.14-.12,.1-.23,.2-.35,.29-.03,.02-.04,.04-.03,.08,.05,.2,.1,.4,.15,.6,0,.01,0,.02,0,.05Z"/>
    <path class="cls-17" d="M31.19,10.89c-.09-.05-.18-.1-.26-.16-.11-.07-.22-.14-.34-.21-.2,.13-.4,.25-.62,.39,0-.04,.01-.07,.02-.1,.05-.19,.09-.38,.14-.56,0-.04,0-.05-.03-.08-.15-.13-.31-.25-.46-.38-.02-.02-.04-.03-.07-.06,.08,0,.14-.01,.21-.02,.16-.01,.31-.02,.47-.03,.04,0,.06-.02,.08-.06,.07-.18,.14-.36,.22-.54,0-.02,.02-.05,.04-.08,.09,.23,.18,.45,.27,.68,.24,.02,.48,.03,.72,.05-.01,.02-.02,.03-.03,.03-.16,.13-.32,.27-.48,.4-.03,.03-.04,.05-.03,.09,.05,.19,.1,.38,.14,.57,0,.02,0,.04,.01,.06h0Z"/>
    <g>
      <path class="cls-3" d="M25.14,2.51c.15,.03,.3,.05,.45,.08,.58,.12,1.12,.33,1.54,.77,.44,.47,.71,1.01,.68,1.66,0,.17,.04,.29,.14,.42,.31,.4,.49,.84,.48,1.35-.01,.39-.12,.74-.33,1.07-.38,.59-.89,.99-1.59,1.12-.23,.04-.4,.02-.71-.09-.27,.46-.68,.7-1.22,.69,.04,.27,.08,.53,.12,.79,0,.03,.04,.07,.07,.09,1.07,.78,1.12,2.34,.55,3.19-.12,.19-.28,.35-.41,.53-.04,.05-.07,.11-.07,.16-.03,.22-.07,.43-.19,.61-.2,.32-.45,.37-.77,.16-.01,0-.02-.01-.04-.02-.04,.1-.08,.21-.13,.3-.08,.13-.16,.26-.26,.37-.27,.26-.54,.22-.75-.1-.04,.07-.07,.13-.11,.19-.08,.14-.18,.26-.32,.34-.24,.13-.45,.07-.58-.18-.04-.08-.06-.16-.09-.24-.01,0-.03,0-.04,.01-.24,.06-.45,.17-.57,.41-.03,.06-.09,.1-.14,.15-.05,.04-.11,.08-.16,.12,.11,.12,.22,.24,.34,.35,.01,.01,.04,.02,.06,.02,.34-.08,.67,.01,.99,.11,1.91,.56,3.41,1.67,4.48,3.36,.62,.98,1.18,2,1.7,3.05,.03,.05,.07,.1,.11,.14,.65,.6,1.24,1.25,1.72,1.99,.3,.46,.5,.96,.59,1.5,0,.01,.02,.02,.02,.03v.52c-.03,.09-.07,.18-.1,.26-.09,.2-.25,.28-.46,.28-.05,0-.11,0-.17-.02,.1,.28,.15,.56,.13,.85-.03,.6-.42,1.12-1.02,1.19-.01,0-.02,.01-.03,.02h-.5s-.02-.03-.04-.03c-.19-.05-.35-.13-.48-.28-.23,.16-.43,.2-.71,.16-.52-.09-.97-.32-1.42-.58-.25-.15-.47-.33-.64-.58-.02-.03-.08-.06-.12-.06-.41-.01-.82-.01-1.23-.04-.58-.04-1.16-.09-1.73-.16-.69-.08-1.37-.18-2.05-.27-.24-.03-.48-.09-.72,0-.07,.03-.15,.03-.23,.04-.23,.01-.46,.03-.69,.02-.07,0-.11,0-.15,.05-.54,.54-1.15,.96-1.83,1.28-1.02,.48-2.05,.45-3.06-.03-.3-.14-.53-.36-.6-.69-.22,0-.43,.04-.64,.02-.77-.06-1.44-.37-2-.9-.13-.12-.24-.28-.32-.44-.14-.28-.06-.55,.18-.75,.01-.01,.03-.02,.04-.04-.01-.04-.03-.07-.04-.1-.15-.42-.03-.76,.35-1,.14-.08,.28-.15,.43-.22,.3-.14,.57-.31,.82-.53,.55-.48,.98-1.06,1.44-1.62,0,0,.01,0,.02-.01-.01,0-.02,0-.03,0-.41,.02-.82,.15-1.22-.03-.06,.08-.12,.16-.17,.23-.36,.44-.82,.72-1.34,.91-.96,.37-1.97,.45-2.99,.37-.17-.01-.34-.04-.51-.06,.03,.11,.07,.22,.1,.33,.06,.31-.05,.6-.29,.73-.26,.15-.56,.13-.81-.09-.12-.11-.22-.24-.33-.37-.04-.04-.06-.1-.08-.12-.08,.17-.14,.35-.24,.51-.1,.16-.19,.16-.35,.06-.24-.15-.39-.37-.46-.63-.08-.29-.13-.59-.18-.89-.03-.19-.03-.38-.04-.57-.22,.08-.32,.05-.42-.16-.04-.09-.07-.18-.1-.27-.02-.04-.03-.08-.05-.12,0-.19,0-.39,0-.58,.02-.05,.03-.1,.05-.15,.16-.49,.31-.99,.49-1.48,.09-.24,.23-.46,.42-.64,.03-.03,.05-.07,.06-.1,.13-.31,.24-.63,.38-.93,.12-.26,.26-.52,.43-.75,.72-1.02,1.49-2,2.4-2.86,.63-.6,1.34-1.09,2.13-1.46,.05-.02,.1-.07,.12-.12,.15-.25,.32-.48,.56-.64,.25-.17,.41-.4,.51-.67,.15-.43,.29-.86,.41-1.3,.09-.33,.09-.67,.02-1.01-.04-.2-.1-.4-.15-.6-.07-.25-.13-.51-.12-.77,0-.09,.01-.18,.04-.26,.1-.38,.41-.58,.8-.55,.34,.03,.64,.16,.93,.33,.95,.58,1.55,1.42,1.82,2.5,.06,.24,.08,.5,.12,.75,0,.04,.01,.08,.02,.14,.17,0,.34-.01,.51-.02,.07,0,.11-.04,.12-.12,.01-.1,.04-.2,.06-.31-.04-.01-.1-.03-.15-.04-.23-.08-.37-.31-.3-.55,.05-.16,.14-.31,.23-.45,.07-.1,.16-.19,.24-.29-.19-.18-.23-.33-.09-.57,.42-.73,1.04-1.15,1.91-1.15,.06,0,.09-.02,.12-.07,.25-.43,.6-.77,1-1.05,.1-.07,.14-.14,.16-.26,.1-.85,.46-1.59,1.01-2.24,.92-1.1,2.05-1.89,3.45-2.25,.27-.07,.55-.1,.83-.16,.03,0,.06-.02,.09-.03,.3,0,.61,0,.91,0Zm-4.34,13.37s-.02,.02-.03,.03h0s-.06,.04-.08,.05h0c-.1,.03-.21,.08-.31,.08-.19,.02-.38,0-.57,0-.17-.04-.35-.07-.5-.14-.8-.35-1.3-.93-1.4-1.82,0-.58,.17-1.12,.4-1.64,.16-.35,.35-.7,.52-1.04,.06-.1,.12-.2,.18-.3,.06-.09,.11-.17,.18-.27-.09-.05-.17-.1-.25-.14-.03-.01-.08,0-.1,.01-.11,.1-.21,.22-.31,.32-.12,.18-.24,.36-.36,.53-.03,.05-.06,.09-.08,.14-.15,.4-.31,.79-.44,1.2-.11,.35-.16,.72-.14,1.09,.03,.22,.05,.44,.08,.66,0,.03,0,.05,0,.08,.2,.78,.7,1.29,1.44,1.57,.45,.18,.91,.24,1.38,.06,.42-.16,.76-.66,.74-1.09-.02,.01-.04,.03-.06,.04-.08,.04-.15,.08-.23,.12-.03,.02-.07,.03-.1,.05-.19,.1-.39,.18-.62,.13-.05,.09-.09,.17-.15,.28,.16-.02,.28-.04,.41-.06,.15-.03,.29-.1,.39-.22,.02-.02,.05-.04,.07-.06,.11,.05,.03,.13,.02,.19h0s-.04,.06-.06,.08h0s-.02,.02-.03,.03h0s-.02,.02-.03,.03h0Zm1.51-7.59s.02,.02,.03,.03c.1,.15,.21,.29,.31,.44,.01-.06,.01-.13,.04-.19,.1-.19,.03-.34-.09-.5-.12-.15-.19-.33-.38-.43-.23-.12-.45-.2-.71-.15-.35,.03-.64,.18-.9,.41-.17,.16-.32,.34-.48,.51-.03,.03-.07,.07-.1,.1-.01,0-.02-.01-.03-.02,0-.03,0-.06,.02-.08,.06-.09,.11-.18,.18-.27,.34-.42,.74-.73,1.28-.83,.24-.01,.47,.02,.67,.16,.01,0,.03,.01,.04,.02,0-.01-.01-.03-.02-.04-.09-.13-.19-.26-.28-.39-.02-.03-.05-.06-.08-.07-.18-.05-.36-.08-.55-.13-.04,0-.09-.02-.13-.02-.8-.04-1.51,.22-2.16,.69-.44,.29-.81,.65-1.1,1.09,.05,.03,.09,.06,.13,.08,0,.01,0,.03,0,.04-.04,0-.09,.02-.13,.02-.16,0-.31,0-.47,0-.1,0-.19,.05-.28,.08-.1,.02-.2,.04-.3,.08-.38,.15-.67,.42-.89,.75-.04,.07-.09,.14-.12,.21-.04,.12,0,.2,.11,.26,.14,.07,.15,.1,.04,.23-.14,.18-.3,.35-.42,.55-.18,.3-.05,.5,.3,.5,.18,0,.21,.05,.13,.2-.13,.26-.14,.53-.05,.8,.06,.18,.15,.22,.33,.15,.05-.02,.1-.03,.14-.05,0,.01,.02,.02,.02,.03-.04,.06-.08,.11-.12,.18,.02,.05,.04,.11,.07,.16,.06,.11,.11,.22,.17,.33,.02,.04,.06,.1-.03,.11-.12-.18-.23-.36-.35-.54-.37,.02-.43-.27-.5-.52h-.6c-.02,.26-.04,.5-.05,.74-.04,.1-.09,.21-.14,.31,.02,0,.04,.02,.06,.03,.76,.27,1.44,.67,1.93,1.33,0,.01,.02,.02,.02,.03h0c.17,.26,.31,.54,.35,.86,.03,.23,.03,.46,.04,.68,0,.06,0,.12-.02,.19,.16-.05,.2,0,.19,.15-.01,.14-.02,.28-.02,.42,.01,0,.02,0,.03,.01,.08-.09,.15-.18,.23-.26,.21-.17,.45-.32,.57-.6-.35-.28-.6-.62-.79-1.01-.03-.15-.08-.28-.2-.39-.08-.11-.16-.22-.24-.34-.07-.11-.14-.23-.11-.37,.04,.02,.09,.03,.11,.07,.08,.1,.16,.21,.25,.33,0-.16-.02-.3-.02-.43,.02-.25,.03-.5,.07-.74,.14-.8,.43-1.55,.9-2.21,.06-.07,.12-.15,.19-.22,.08-.07,.15-.14,.24-.22-.05-.01-.08-.02-.11-.02-.07-.01-.15-.02-.22-.03-.03,0-.05-.02-.08-.02h0c-.02-.08,.05-.08,.1-.08,.21-.03,.42,0,.61,.1,.15,.08,.31,.17,.46,.26,.15,.09,.27,.22,.35,.38,.04,.08,.09,.16,.14,.24,.04,.05,.07,.1,.11,.13,.17,.13,.34,.1,.45-.08,.03-.11,.06-.22,.08-.33,.03-.13,0-.26-.06-.37-.33-.53-.77-.88-1.41-.95-.03,0-.07-.01-.1-.02,0-.01,0-.03,0-.04,.27-.04,.52,.06,.77,.15,.04-.2,.07-.4,.11-.6,.09-.16,.15-.33,.26-.48,.35-.48,.81-.79,1.39-.92,.42,.01,.83,.2,.93,.46-.05-.03-.08-.05-.12-.07,0,0-.02-.01-.03-.02-.02,0-.04,0-.06-.01,0,0,0,.01,0,.02,.01,0,.03,.01,.04,.02Zm-3.88,5.29h0s.09-.02,.14-.03c.04,.05,.02,.08-.03,.11-.14,.1-.21,.24-.25,.4-.03,.12-.04,.25-.06,.38,0,.05,0,.1,.01,.14,.12,.27,.28,.52,.52,.7,.27,.28,.62,.43,1.01,.53,.07-.13,.14-.24,.21-.36,.09-.16,.1-.33,.09-.5,0-.34-.1-.63-.37-.86-.08-.05-.15-.11-.25-.18,.06,.42,.06,.81-.14,1.17-.03,.02-.06,.04-.08,.05,0,0-.02-.01-.02-.02,0-.04,.01-.08,.02-.11,.03-.19,.07-.37,.07-.56,.01-.35-.05-.69-.26-.99-.11-.16-.26-.29-.47-.3l-.17-.02c-.06-.01-.13-.04-.16,.05-.07,.27-.12,.53-.12,.84,.05-.11,.09-.19,.13-.27,.05-.05,.1-.11,.14-.16,0,0,.02-.02,.03-.03Zm-1.35,3.68c-.09,.17-.18,.33-.36,.43,.02,.06,.03,.1,.04,.15,0,.22,.02,.43-.01,.64-.05,.44-.29,.78-.59,1.09-.18,.16-.35,.33-.61,.35,.02,.07,.05,.12,.07,.18,.02,.2,.05,.41,.05,.61,0,.15-.04,.31-.05,.46-.13,.34-.26,.67-.38,.99,.26,.05,.54,.1,.81,.17,.41,.11,.82,.24,1.23,.34,.12,.03,.25,.02,.38,.03l.91-.02s.06,0,.08,0c.07,0,.15-.02,.22-.02,.44-.07,.88-.13,1.32-.2,.11-.02,.23-.03,.34-.05,.3-.04,.6-.09,.91-.13h.21c.13-.55,.24-1.08,.15-1.64-.27,.02-.48-.09-.69-.21-.04-.03-.09-.06-.13-.1-.11-.12-.23-.23-.34-.35,.02-.11,.07-.05,.12-.02,.2,.11,.4,.23,.62,.33,.15,.07,.32,.09,.48,.05,.18-.04,.29-.15,.28-.34,0-.12-.05-.24-.08-.36-.06-.23-.19-.42-.34-.61-.16-.21-.34-.41-.5-.62-.08-.11-.15-.22-.23-.34,0,.06,0,.11,0,.16,.01,.34-.11,.62-.36,.85-.07,.06-.15,.12-.23,.18-.05,.02-.09,.04-.14,.06-.12,.03-.24,.06-.36,.08-.33-.02-.66-.03-.92-.29-.2,.1-.41,.1-.63,.09-.11-.03-.23-.07-.34-.09-.16-.03-.28-.11-.4-.21-.39-.34-.49-.76-.4-1.25,.02-.08,.05-.17,.07-.25,.01-.05,.04-.09,.04-.14-.02-.17-.05-.34-.07-.5-.05,.15-.11,.31-.16,.47Zm3.89-3.01c.26-.1,.52-.21,.79-.32-.14,0-.27,0-.39-.02-.25-.06-.45,.02-.65,.15-.13,.09-.27,.16-.38,.27-.21,.18-.16,.12-.09,.36,0,.01,.01,.02,0,0,.24-.15,.48-.3,.72-.44Zm6.61,14.44s-.02-.03-.04-.05c-.04-.04-.07-.07-.11-.11-.09-.09-.17-.19-.26-.28-.1-.11-.11-.16-.05-.26,.12,.08,.24,.15,.36,.23,.03,.02,.05,.04,.08,.07,.02,0,.04,.02,.06,.02,.11,.14,.22,.27,.33,.41,.06,.16,.13,.32,.19,.47v.44c.15,.06,.3,.13,.46,.19,.34,.13,.83-.03,1.03-.33,.03-.04,.06-.08,.08-.12,.13-.3,.16-.61,.09-.93-.06-.17-.1-.35-.18-.51-.09-.19-.21-.36-.33-.53-.19-.27-.41-.53-.66-.75-.11-.1-.24-.17-.36-.26,0-.02,0-.04,0-.06,.05,0,.11-.01,.15,0,.27,.09,.49,.27,.69,.47,.13,.14,.25,.28,.37,.42,.09,.14,.19,.27,.27,.41,.06,.12,.15,.18,.28,.18,.24,.01,.34-.07,.35-.32,0-.18,0-.37,0-.55-.03-.32-.15-.62-.29-.91-.39-.78-.94-1.44-1.54-2.06-.01-.01-.04-.02-.07-.05,.04,.16,.08,.29,.1,.43,.03,.18,.05,.36,.06,.55,0,.03-.03,.06-.05,.08-.02-.02-.05-.04-.06-.06-.02-.05-.03-.11-.05-.17-.02-.07-.05-.14-.08-.21,0-.05-.02-.09-.03-.14,0-.03-.01-.06-.02-.09-.03-.08-.06-.17-.09-.25-.11-.25-.21-.51-.32-.76-.02-.04-.04-.09-.06-.13-.02-.03-.03-.07-.05-.1-.11-.2-.22-.4-.33-.6-.01-.02-.03-.05-.04-.07-.02-.04-.05-.08-.07-.12-.01-.02-.03-.05-.04-.07-.07-.12-.14-.25-.21-.37-.01-.02-.03-.05-.04-.07-.05-.09-.09-.18-.14-.27-.24-.4-.49-.79-.73-1.18-.01-.02-.03-.04-.04-.06-.23-.3-.46-.59-.69-.89-.03-.04-.06-.07-.09-.11-.83-.92-1.86-1.54-3.01-1.96-.12-.04-.24-.07-.36-.1-.29-.1-.59-.13-.9-.11,.04,.22-.06,.38-.19,.52,.08,.11,.16,.22,.23,.33,.13,.18,.25,.37,.39,.55,.13,.17,.29,.34,.42,.51,.16,.2,.29,.42,.36,.67,.08,.28,.09,.54-.13,.78-.07,.05-.14,.09-.21,.14,0,.1,.03,.2,.03,.3,0,.22,0,.45,0,.67-.04,.23-.07,.46-.11,.68,.29,.02,.57,.05,.85,.07,.04,0,.08-.03,.11-.05,.32-.16,.84-.08,1.09,.17,.01,.01,.01,.03,.02,.05-.02,0-.04,.01-.07,.02-.26-.12-.52-.22-.81-.12,.36,.11,.7,.26,1,.49,.04,.03,.06,.07,.09,.11-.05-.01-.1-.02-.15-.04-.2-.1-.4-.21-.62-.24-.03-.02-.06-.05-.1-.06-.24-.05-.49-.11-.73-.13-.68-.07-1.34,.04-2,.15-.61,.1-1.22,.19-1.83,.28-.13,.02-.27,.02-.41,.03,.25,.09,.49,.16,.74,.24,.49,.15,.98,.32,1.42,.59,.05,.03,.11,.06,.15,.1,.02,.02,.02,.06,.02,.1-.03,0-.06,.02-.09,.01-.04,0-.09-.03-.13-.04-.45-.16-.9-.35-1.36-.48-1.02-.29-2.05-.56-3.07-.84-.32-.09-.65-.15-.98-.13-.07,0-.15,.04-.19,.08-.32,.34-.7,.56-1.16,.65-.1,.02-.18,.06-.24,.14-.29,.34-.58,.67-.86,1.01-.48,.59-1.01,1.12-1.71,1.44-.14,.07-.27,.15-.41,.22-.21,.14-.28,.39-.17,.58,.03,.06,.07,.09,.14,.07,.11-.03,.23-.03,.34-.05,.15-.02,.3-.03,.45-.05,.31,.01,.58-.09,.83-.24,.45-.26,.88-.54,1.32-.82,.19-.12,.37-.27,.56-.41,.03-.02,.08-.01,.12-.02,0,.04,0,.08-.02,.11-.07,.1-.16,.2-.23,.3-.53,.52-1.16,.88-1.83,1.19-.21,.09-.43,.15-.66,.19-.27,.05-.54,.07-.81,.11-.06,.02-.13,.03-.19,.05-.23,.1-.28,.23-.16,.44,.03,.06,.07,.12,.12,.17,.14,.14,.28,.28,.43,.4,.55,.42,1.17,.62,1.87,.54,.17-.02,.31-.08,.37-.25,.25-.26,.55-.45,.86-.61,.19-.1,.38-.2,.58-.29,.42-.19,.77-.46,1.02-.86,.07-.11,.15-.21,.25-.3,.09-.09,.19-.16,.29-.23,.04-.02,.09-.02,.14-.03-.01,.04-.02,.09-.04,.13-.12,.15-.24,.29-.36,.43-.08,.1-.14,.22-.2,.33-.16,.27-.37,.47-.65,.62-.19,.1-.38,.2-.57,.3-.25,.14-.49,.28-.74,.42-.09,.08-.19,.16-.28,.24-.2,.22-.19,.41,.02,.61,.09,.08,.2,.16,.32,.21,.62,.31,1.28,.36,1.95,.24,.44-.07,.85-.23,1.22-.48,.65-.36,1.23-.8,1.7-1.38,.16-.2,.34-.39,.51-.58,.05-.06,.1-.08,.16-.01-.04,.09-.08,.18-.13,.27-.03,.06-.07,.11-.1,.17-.1,.14-.2,.28-.3,.42,0,0,0,.02,.01,.03,.19-.01,.37-.02,.56-.04,.55-.08,1.07-.21,1.48-.62,.02-.02,.07,0,.11,0-.05,.1-.09,.21-.15,.3-.08,.11-.2,.19-.3,.28,.22,.04,.43,.07,.65,.11,1.13,.18,2.26,.31,3.4,.38,.54,.03,1.07,0,1.6-.1,.04,.01,.08,.03,.12,.04-.02,.03-.04,.06-.06,.1-.04,.02-.08,.05-.11,.07-.14,.05-.27,.1-.44,.16,.13,.11,.23,.22,.34,.3,.37,.25,.76,.46,1.19,.59,.15,.05,.3,.08,.45,.11,.22,.03,.36-.07,.4-.26,0-.1,0-.21,0-.31-.04-.2-.18-.33-.3-.47Zm-6.99-11.49c.07,.1,.15,.19,.22,.29,.2-.12,.2-.38,.03-.57-.12-.12-.23-.23-.34-.34-.14,.04-.27,.07-.4,.11,.11,.23,.31,.36,.49,.52Zm3.19-7.12l.09,.02c.22,.06,.44,.13,.68,.2-.03-.19-.07-.38-.1-.57-.02-.13-.08-.2-.22-.2-.13-.06-.27-.1-.38-.18-.21-.14-.41-.3-.61-.46-.12-.14-.25-.28-.38-.43-.18,.54-.02,1.06,.03,1.59,.01-.21,0-.42,.12-.61h.14c-.13,.25-.08,.4,.11,.4,0,.09,.01,.19,.02,.28,.17-.01,.34-.02,.51-.03h0ZM5.56,24.8c.04,.1,.08,.2,.13,.29,.11,.21,.26,.39,.46,.52,.24,.15,.55,0,.54-.25,0-.08-.02-.17-.03-.25-.05-.11-.09-.22-.14-.33-.02-.04-.03-.09-.06-.11-.05-.04-.12-.06-.18-.09-.03-.04-.07-.07-.1-.11,0-.07,.05-.11,.12-.1,.15,.02,.29,.03,.43,.06,.77,.18,1.53,.19,2.31,.07,.01,0,.03,0,.04,0,.61-.08,1.19-.24,1.73-.54,.33-.18,.61-.41,.81-.75-.17-.15-.31-.31-.38-.53-.08-.23-.03-.44,.12-.64-.13-.04-.24-.07-.36-.1-.44-.15-.82-.39-1.06-.8,.06,0,.11,.02,.15,.04,1.01,.65,2.12,.82,3.29,.64,.24-.04,.46-.15,.69-.22,.03-.01,.07,0,.11,0-.02,.04-.03,.07-.06,.11-.02,.02-.05,.04-.08,.05-.2,.09-.4,.17-.61,.26-.08,.02-.16,.03-.25,.05,.02,.02,.03,.04,.04,.04,.13,.1,.28,.16,.45,.13,.07,0,.12,0,.07,.08-.09,.02-.18,.04-.27,.06-.17-.02-.34-.07-.45-.21-.05-.07-.09-.06-.16-.06-.31,0-.63,.02-.94,0-.14,0-.24,.01-.33,.12-.09,.12-.12,.24-.06,.37,.09,.2,.22,.37,.44,.42,.22,.05,.45,.1,.68,.08,.5-.03,.99-.14,1.47-.3,.32-.11,.56-.31,.72-.6,.36-.53,.58-1.11,.57-1.76,0-.32-.11-.61-.35-.84-.17-.15-.32-.33-.51-.46-.66-.47-1.39-.71-2.2-.74-.04,0-.09-.01-.13-.02,0-.01,0-.03,0-.04,.06-.01,.13-.03,.19-.04,.16,0,.32,0,.47,0,.02,0,.05,.01,.07,.02,.04,0,.08,0,.12,0,.03,0,.05,.01,.08,.02,.23,.06,.46,.12,.7,.18h0s.01,0,.01,0c.08,.03,.16,.07,.24,.1,.15,.08,.3,.16,.45,.23,.33,.22,.65,.45,.86,.79,.18-.02,.33-.09,.46-.2,.35-.31,.59-.71,.62-1.18,.06-.73-.33-1.26-.86-1.71-.07-.06-.13-.12-.21-.17-.37-.24-.76-.45-1.18-.6-.33-.12-.66-.2-1.01-.17-.08,0-.17,.02-.26,.03,0-.12,.03-.15,.17-.2,.27-.09,.55-.09,.83-.02,.72,.18,1.37,.5,1.94,.98,.29,.28,.55,.57,.72,.95,.08-.13,.16-.24,.22-.37,.23-.56,.21-1.13,.02-1.7-.15-.44-.43-.8-.82-1.06-.25-.15-.49-.32-.75-.43-.67-.29-1.36-.5-2.1-.54-.21-.01-.41-.05-.62-.05-.32-.01-.64,.03-.96,.12-.62,.17-1.08,.53-1.37,1.11-.17,.44-.3,.88-.25,1.34,.25-.04,.47-.07,.7-.11,.03,.06,0,.08-.05,.1-.05,.01-.11,.02-.16,.04-.64,.25-1.11,.69-1.42,1.3-.07,.14-.08,.31-.12,.46-.06,.37,.14,.66,.27,.95,.15-.05,.3-.09,.45-.14,.04,.06,0,.1-.04,.12-.1,.08-.2,.15-.31,.22-.19,.13-.35,.28-.47,.47-.13,.15-.2,.33-.24,.52-.08,.44,.03,.84,.25,1.23,.02,.04,.04,.09,.06,.13,.48,.66,1.02,1.26,1.76,1.64,.07,.04,.14,.08,.2,.12,0,.01,0,.03,0,.04-.05,.02-.1,.05-.15,.04-.14-.02-.28-.05-.41-.08-.18-.13-.37-.26-.55-.38-.08-.08-.15-.17-.24-.24-.26-.2-.46-.45-.66-.71-.14-.18-.24-.38-.36-.57-.02-.05-.04-.11-.06-.16-.1-.22-.14-.46-.15-.69,0-.16,.03-.32,.07-.48,.07-.35,.28-.61,.54-.85,.05-.04,.1-.07,.15-.11-.23-.18-.26-.45-.35-.71-.23,.21-.45,.4-.67,.6-.3,.29-.6,.57-.9,.86-.02,.02-.01,.05-.02,.08-.06,.07-.14,.13-.19,.2-.28,.39-.49,.82-.69,1.25-.02,.04-.06,.07-.09,.11-.1-.01-.03-.08-.04-.12,0-.02,.01-.03,.02-.05,0-.02,0-.04,0-.05,.06-.19,.11-.37,.17-.56,0,0-.01-.01-.02-.02-.04,0-.08,.02-.11,.03,0,0-.01-.02-.02-.02,.06-.1,.13-.18,.23-.25,.04-.02,.08-.05,.1-.08,.16-.24,.32-.48,.48-.71,.13-.14,.25-.28,.39-.41,.25-.24,.51-.47,.77-.71,.12-.1,.22-.2,.35-.29,.14-.1,.25-.21,.25-.4,0-.04,.02-.08,.03-.12,.14-.46,.43-.82,.78-1.15,.11-.07,.21-.14,.32-.21-.22-.44-.05-.87,.05-1.31-.5,.27-.96,.56-1.36,.93-.3,.27-.61,.52-.88,.81-.35,.37-.67,.77-1.01,1.15-.1,.13-.2,.26-.3,.39-.21,.28-.42,.55-.64,.83-.21,.26-.35,.55-.48,.86-.08,.2-.16,.39-.23,.59-.11,.31-.21,.62-.32,.94-.02,.05-.02,.13-.11,.1,0-.1,0-.2-.01-.3h-.03c-.1,.22-.21,.44-.28,.67-.11,.35-.2,.72-.29,1.07-.07,.29-.06,.58,.1,.87,.04-.07,.07-.12,.1-.17,.07-.16,.15-.33,.22-.49,.13-.08,.18-.07,.27,.06-.01,.05-.02,.1-.03,.15-.16,.58-.13,1.15-.02,1.73,.04,.31,.15,.59,.43,.81,.04-.13,.06-.22,.09-.31,.02-.15,.03-.3,.05-.44,0-.05,0-.11,.02-.16,0-.08,.01-.16,.1-.2,.12-.01,.19,.04,.22,.15,.01,.05,.04,.1,.06,.15Zm13.81-7.1c.11,.27,.14,.54,.09,.82-.03,.09-.06,.19-.1,.28-.04,.04-.08,.09-.12,.13-.1,.11-.09,.14,.03,.2,.03,.01,.06,.03,.09,.03,.15,.01,.31,.02,.46,.03,.18,.02,.34-.03,.49-.14,.27-.19,.47-.42,.44-.78,0-.09,0-.18-.03-.27-.03-.12-.08-.24-.12-.37-.03-.07-.05-.14-.09-.19-.1-.12-.22-.22-.33-.33-.04-.05-.11-.09-.12-.14-.07-.24-.23-.28-.46-.3-.24-.02-.48-.1-.72-.15-.1-.05-.2-.1-.31-.15-.05-.04-.1-.08-.16-.13-.05,.09-.08,.17-.12,.24-.17,.17-.35,.33-.51,.51-.08,.09-.14,.21-.21,.32-.04,.07-.08,.13-.11,.2-.09,.21-.15,.43-.1,.65,.12,.52,.65,.91,1.19,.86,.34-.03,.57-.19,.65-.5,.12-.26,.11-.53,.03-.79-.02-.06-.02-.13-.03-.2,.03,.01,.07,.01,.08,.03,.03,.04,.04,.09,.06,.13Zm7.62-13.12c.2,.15,.39,.29,.61,.45,.01-.36-.06-.68-.25-.97-.09-.23-.25-.42-.44-.58-.05-.04-.09-.09-.14-.13-.59-.46-1.28-.61-2.02-.61-.34-.01-.67,.02-1,.1-.52,.09-1.02,.24-1.49,.49-.74,.36-1.38,.85-1.94,1.45-.33,.33-.6,.7-.84,1.09-.08,.13-.13,.29-.2,.43-.06,.18-.14,.37-.19,.55-.04,.13-.06,.26-.09,.39,0,0,0,0-.01,.01,0,0,0,0,.01-.01,.14-.07,.28-.15,.43-.22,.46-.21,.93-.35,1.44-.34,.21,0,.43,.02,.64,.03,0,0,0,0,0,.01,0,0,0,0,0,0,0,0,0,0-.01-.01-.15-.14-.33-.22-.53-.27-.01-.02-.03-.05-.04-.07,.03,0,.06-.03,.08-.03,.17,.06,.35,.1,.49,.19,.18,.11,.33,.27,.49,.41,.27,.39,.55,.79,.83,1.18,.26,.37,.55,.72,.95,.97,.33,.21,.69,.35,1.09,.25,.26-.07,.5-.19,.64-.44,.15-.18,.22-.38,.24-.61,.04-.34-.01-.66-.17-.96-.03-.06-.06-.13-.1-.18-.42-.61-1.05-.82-1.75-.92-.08-.01-.15-.02-.2-.1,.15,0,.29,.02,.43,.02,.24,0,.46,.09,.69,.15,.1,.03,.2,.09,.3,.13,.2,.09,.35,.24,.51,.38,.18,.24,.36,.48,.44,.79,.03,.13,.06,.27,.08,.4-.03,.24-.05,.48-.08,.73,.03,.01,.07,.03,.12,.05,.22,.07,.44,.05,.66-.02,.45-.14,.8-.43,1.1-.79,.14-.17,.26-.35,.3-.58,.03-.12,.08-.24,.1-.37,.03-.22,.04-.44-.04-.65-.05-.41-.28-.72-.55-1.01-.01-.01-.03-.01-.05-.02-.29-.33-.66-.56-1.05-.75-.43-.22-.87-.33-1.35-.28-.26,.02-.5,.11-.74,.21-.03,.01-.07-.01-.1-.02,.01-.03,.02-.07,.04-.08,.07-.05,.15-.09,.23-.13,.45-.24,.92-.22,1.4-.11,.11,.03,.22,.06,.33,.09,.23,.11,.46,.22,.69,.33Zm-3.51,8.98c.25,.02,.49,.08,.67,.27,.13,.13,.2,.29,.19,.5,.08-.06,.13-.09,.19-.13,.62-.45,.93-1.06,.93-1.82-.02-.17-.02-.34-.06-.5-.13-.56-.39-1.04-.91-1.33-.1-.06-.21-.09-.32-.14-.35-.13-.7-.15-1.06-.04-.4,.12-.71,.37-.98,.68-.2,.22-.37,.46-.56,.7-.07-.04-.03-.08,0-.12,.05-.1,.1-.19,.15-.29,0,0,0-.01,0-.02,0,0-.01,0-.02,.01-.31,.07-.62,.09-.9-.02-.11,.15-.2,.29-.29,.42-.09,.03-.18,.05-.27,.08-.12-.04-.25-.08-.38-.11-.08,.19-.1,.31-.04,.61,.11,.61,.44,1.04,1.02,1.27,.5,.19,1.02,.18,1.54,.11,.32-.04,.64-.09,.95-.13,.03,0,.05,0,.08,0,.02,0,.04,0,.06,0Zm-.91-3.29c.14-.34,.14-.7,.07-1.05-.06-.33-.19-.61-.43-.84-.16-.16-.36-.24-.58-.25-.31,0-.58,.09-.83,.28-.36,.24-.58,.57-.7,.97-.02,.14-.05,.27-.07,.41-.02,.15,.03,.26,.16,.36,.3,.22,.53,.5,.59,.88,0,.03,.06,.07,.09,.08,.22,.08,.45,.1,.68,.06,.18-.03,.34-.1,.46-.25,.06-.07,.12-.15,.19-.21,.08-.08,.17-.15,.26-.22,.01-.02,.02-.04,.04-.06,.02-.06,.05-.11,.07-.17Zm-10.79,1.74c-.14,.36-.27,.72-.42,1.08,1.1-.35,2.18-.12,3.29,.14,.03-.22,.07-.43,.1-.65,0-.14,0-.27,0-.41-.01-.65-.2-1.26-.51-1.83-.36-.66-.87-1.17-1.55-1.49-.16-.08-.34-.13-.52-.16-.25-.04-.43,.09-.48,.34-.03,.15-.04,.31,0,.46,.08,.45,.26,.87,.28,1.33,0,.07,0,.14,0,.21,0,.04,0,.08,0,.12,0,.06,0,.13-.01,.19-.05,.22-.1,.44-.15,.66Zm8.75,3.39c.13-.07,.26-.13,.39-.2,.11-.06,.22-.12,.34-.17,.11-.04,.17,0,.16,.12-.01,.11-.04,.22-.06,.34-.02,.07-.04,.13-.07,.2,.23,.02,.31-.15,.41-.3,.03,.07,.05,.13,.07,.19,.04,.12,.06,.25,.11,.37,.06,.14,.18,.17,.29,.07,.1-.08,.19-.18,.25-.29,.07-.12,.11-.25,.17-.38,.02-.04,.07-.07,.11-.1,.03,.04,.07,.07,.08,.11,.02,.05,.02,.11,.04,.16,.09,.25,.28,.3,.45,.11,.12-.14,.21-.31,.31-.47,.05-.08,.07-.18,.1-.27,.04-.09,.1-.1,.17-.04,.06,.05,.11,.1,.17,.14,.1,.07,.21,.08,.31,0,.18-.15,.25-.35,.31-.58-.41,.15-.46,.15-.56,.06,.14-.31,0-.6-.34-.68-.12-.03-.26-.04-.38-.03-.29,.02-.58,.08-.88,.1-.35,.02-.64,.19-.95,.31-.34,.1-.65,.26-.91,.5-.1,.09-.21,.17-.31,.26-.02,.02-.04,.06-.04,.09-.02,.13-.03,.27-.05,.44,.1-.03,.2-.06,.29-.08Z"/>
      <path class="cls-28" d="M19.05,27.45c.04-.09,.08-.18,.13-.27,.11-.18,.22-.36,.32-.54,.03-.05,.03-.12-.06-.15-.31,.27-.62,.54-.93,.82-.45,.39-.92,.74-1.44,1.04-.75,.42-1.55,.66-2.41,.63-.26,0-.53-.05-.74-.23-.14-.12-.24-.29-.36-.43,.25-.14,.49-.28,.74-.42,.19-.1,.38-.2,.57-.3,.27-.15,.49-.36,.65-.62,.07-.11,.13-.22,.2-.33,.11-.15,.24-.29,.36-.43,.03-.03,.03-.08,.04-.13,.02-.09,.04-.18,.07-.28-.04,.01-.06,.01-.06,.02-.18,.21-.42,.33-.65,.48-.41,.27-.82,.56-1.24,.82-.66,.42-1.38,.65-2.17,.59-.58-.05-1.09-.26-1.52-.66,.27-.04,.54-.06,.81-.11,.22-.04,.45-.1,.66-.19,.67-.31,1.3-.67,1.83-1.19,.04-.02,.09-.03,.12-.06,.15-.17,.29-.35,.43-.53,.06-.08,.12-.18,.16-.27,.02-.04,0-.09,.01-.14-.04,0-.09,0-.12,.03-.04,.02-.08,.06-.12,.09-.15,.12-.29,.25-.45,.35-.49,.31-1.01,.55-1.58,.7-.45,.12-.9,.21-1.37,.13,.71-.32,1.24-.85,1.71-1.44,.28-.34,.57-.67,.86-1.01,.07-.08,.14-.12,.24-.14,.46-.09,.84-.31,1.16-.65,.04-.05,.12-.08,.19-.08,.33-.02,.66,.04,.98,.13,1.02,.28,2.05,.54,3.07,.84,.46,.13,.91,.32,1.36,.48,.04,.02,.09,.03,.13,.04,.03,0,.06,0,.09-.01,0-.03,0-.08-.02-.1-.04-.04-.1-.07-.15-.1-.44-.27-.93-.44-1.42-.59-.24-.08-.49-.15-.74-.24,.14,0,.27,0,.41-.03,.61-.09,1.22-.18,1.83-.28,.66-.11,1.33-.22,2-.15,.25,.03,.49,.08,.73,.13,.04,0,.07,.04,.1,.06-.07,0-.11,.01-.06,.1,.03,.05,.05,.1,.06,.15,.01,.44,.02,.89,.03,1.33,0,.04,0,.07-.01,.11-.02,.18-.05,.35-.07,.53,0,.08,0,.17-.02,.25-.04,.16-.12,.31-.14,.46-.03,.23-.15,.43-.22,.64-.03,.08-.04,.17-.08,.24-.12,.24-.28,.47-.36,.74-.03,.08-.08,.16-.14,.23-.07,.07-.1,.15-.09,.25-.49-.06-.97-.17-1.46-.33,.04-.05,.09-.09,.13-.13,.16-.15,.27-.33,.34-.54,.01-.04,0-.09,0-.14-.04,.01-.1,.02-.13,.04-.08,.06-.15,.12-.22,.19-.24,.2-.5,.38-.81,.49-.37,.13-.76,.16-1.15,.14Z"/>
      <path class="cls-1" d="M22.35,27.72c-.01-.1,.03-.17,.09-.25,.06-.07,.12-.15,.14-.23,.08-.26,.24-.49,.36-.74,.04-.08,.05-.16,.08-.24,.07-.21,.19-.41,.22-.64,.02-.16,.1-.31,.14-.46,.02-.08,0-.17,.02-.25,.02-.18,.05-.35,.07-.53,0-.04,.01-.07,.01-.11,0-.44-.02-.89-.03-1.33,0-.05-.03-.1-.06-.15-.05-.08,0-.09,.06-.1,.22,.03,.42,.13,.62,.24,.04,.02,.1,.03,.15,.04,.12,.07,.24,.15,.39,.23-.02-.15-.11-.24-.18-.31-.15-.14-.32-.27-.48-.4,.02,0,.04-.01,.07-.02,.1,.01,.19,.03,.31,.04-.04-.13-.15-.18-.24-.24-.25-.18-.55-.23-.82-.33-.16-.06-.34-.13-.45-.25-.29-.36-.47-.79-.58-1.24,.21-.23,.2-.5,.13-.78-.07-.25-.2-.47-.36-.67-.14-.17-.29-.33-.42-.51-.14-.18-.26-.36-.39-.55,.03-.04,.07-.07,.1-.12,.17-.27,.42-.44,.7-.57,.02-.01,.04-.03,.06-.05,.12,.03,.24,.06,.36,.1,1.15,.42,2.18,1.04,3.01,1.96,.03,.03,.06,.07,.09,.11-.07,.03-.06,.07-.03,.12,.05,.1,.11,.2,.15,.31,.11,.27,.21,.54,.31,.81,.06,.15,.1,.31,.15,.47,.05,.18,.11,.37,.15,.55,.06,.3,.11,.6,.15,.9,.04,.31,.09,.62,.1,.94,.01,.38,.02,.76-.05,1.14-.04,.23-.03,.48-.07,.71-.05,.3-.13,.61-.2,.91-.03,.14-.08,.28-.12,.42-.1,.29-.19,.58-.3,.87-.03,.08-.02,.14,.03,.2-.33,.11-.67,.13-1.01,.16-.1,.01-.21,0-.32,0-.32,0-.64,0-.96-.02-.09,0-.18-.01-.27-.03-.29-.04-.58-.09-.87-.13Z"/>
      <path class="cls-24" d="M13.84,18.53c-.23-.06-.46-.12-.7-.18,0-.03-.02-.06-.03-.09-.02,.03-.03,.05-.05,.08-.04,0-.08,0-.12,0,0-.05,.02-.1-.06-.09,0,0,0,.05-.01,.08h-.47s.05-.07,.1-.12c-.06-.04-.12-.07-.18-.1-.3-.15-.57-.35-.8-.6-.24-.26-.49-.53-.63-.87-.11-.27-.32-.51-.24-.84,.04-.02,.09-.04,.05-.1,.23-.08,.46-.15,.69-.23,0-.01,0-.02,0-.03-.07-.02-.14-.05-.21-.07,0-.31-.03-.63,.06-.94,.07-.24,.16-.46,.24-.69,.04-.13,.15-.23,.14-.38,.31-.09,.63-.13,.96-.12,.21,0,.41,.04,.62,.05,.73,.04,1.43,.25,2.1,.54,.26,.11,.5,.29,.75,.43,.01,.04,.02,.09,.03,.13,.17,.42,.26,.84,.22,1.3-.03,.3-.13,.57-.39,.75-.57-.48-1.22-.8-1.94-.98-.27-.07-.55-.07-.83,.02-.14,.05-.16,.08-.17,.2,.09-.01,.17-.03,.26-.03,.35-.02,.69,.05,1.01,.17,.42,.15,.81,.36,1.18,.6,.07,.05,.14,.11,.21,.17,0,.05,.01,.11,.03,.16,.03,.12,.08,.23,.08,.34,.03,.49-.14,.92-.41,1.31-.11-.05-.21,0-.32,.02-.28,.05-.56,.08-.84,.12-.08,0-.09,.04-.08,.11-.08-.03-.16-.07-.24-.1,0-.02,.02-.04,.03-.07-.01,0-.02,0-.03-.01,0,.02,0,.05-.01,.07Z"/>
      <path class="cls-8" d="M10.66,15.78c-.08,.33,.13,.57,.24,.84,.14,.34,.39,.61,.63,.87,.23,.24,.49,.45,.8,.6,.06,.03,.11,.07,.18,.1-.04,.05-.07,.08-.1,.11-.06,.01-.13,.03-.19,.04,0,.01,0,.03,0,.04,.04,0,.09,.02,.13,.02,.81,.03,1.54,.27,2.2,.74,.19,.13,.34,.3,.51,.46,.01,.35-.14,.62-.39,.85-.24,.22-.5,.38-.79,.51-.68,.31-1.4,.35-2.11,.24-.44-.07-.87-.21-1.3-.35-.53-.17-1-.47-1.4-.87-.11-.11-.17-.25-.17-.41,0-.09,0-.17,0-.26,0-.03-.02-.06-.04-.09,.12-.2,.28-.35,.47-.47,.11-.07,.21-.15,.31-.22,.04-.03,.09-.06,.04-.12,.24-.06,.47-.15,.68-.29-.25-.06-.5-.09-.74-.15-.25-.06-.48-.17-.66-.37,.04-.15,.05-.32,.12-.46,.31-.61,.77-1.05,1.42-1.3,.05-.02,.11-.03,.16-.04Z"/>
      <path class="cls-5" d="M25.78,27.73c-.05-.06-.06-.12-.03-.2,.11-.29,.21-.58,.3-.87,.05-.14,.09-.28,.12-.42,.07-.3,.15-.6,.2-.91,.04-.24,.03-.48,.07-.71,.07-.38,.06-.76,.05-1.14-.01-.31-.06-.63-.1-.94-.04-.3-.09-.6-.15-.9-.04-.19-.1-.37-.15-.55-.05-.16-.09-.32-.15-.47-.1-.27-.21-.54-.31-.81-.04-.11-.1-.21-.15-.31-.03-.05-.04-.1,.03-.12,.23,.3,.46,.59,.69,.89,.01,.02,.03,.04,.04,.06,.24,.39,.49,.79,.73,1.18,.05,.09,.1,.18,.14,.27,.01,.02,.03,.05,.04,.07,.07,.12,.14,.25,.21,.37,.01,.02,.03,.05,.04,.07,.02,.04,.05,.08,.07,.12,.01,.02,.03,.05,.04,.07,.11,.2,.22,.4,.33,.6,0,.04-.02,.08-.02,.11,.02,0,.05-.01,.07-.02,.02,.04,.04,.09,.06,.13-.05,.07-.06,.13,0,.2,.02,.02,.02,.05,.04,.07,.07,.16,.13,.32,.2,.48,.02,.06,.06,.05,.09,0,.03,.08,.06,.17,.09,.25-.06,.04-.05,.07,.02,.09,0,.05,.02,.09,.03,.14-.06,.16-.04,.31,.05,.45,.01,.02,.02,.05,.02,.07-.03,.26-.06,.52-.11,.78-.02,.11-.03,.2,.03,.3-.06,.01-.12,.03-.19,.04,.02,.04,.04,.09,.05,.13,0,.02,0,.04,0,.06-.06,.22-.11,.44-.17,.66-.02,.08-.06,.15-.08,.23,0,.04,.02,.1,0,.11-.13,.13-.09,.31-.16,.45-.07,.16-.11,.33-.23,.47-.02,0-.04-.02-.06-.02,0-.06,.01-.11-.08-.07-.12-.08-.24-.15-.36-.23-.07,.1-.06,.15,.05,.26,.09,.09,.17,.19,.26,.28-.06,.04-.06,.08-.02,.12,.05,.05,.04,.1,.01,.16-.04,.11-.07,.23-.11,.35-.1-.02-.21-.03-.31-.06-.38-.11-.73-.25-.96-.6,.02-.03,.04-.06,.06-.1-.04-.01-.08-.03-.12-.04,0,0,.02-.02,.03-.03,.4-.13,.73-.36,1.02-.67,.18-.19,.3-.42,.38-.66,.02-.06,0-.12,.01-.18-.18,.13-.31,.28-.48,.4-.16,.12-.34,.21-.52,.31-.02-.02-.03-.03-.05-.05-.02,.03-.04,.05-.06,.08-.18,.06-.37,.11-.55,.17Z"/>
      <path class="cls-25" d="M5.28,24.49c-.08,.04-.09,.12-.1,.2,0,.05-.01,.11-.02,.16-.03-.02-.07-.03-.08-.06-.07-.11-.14-.23-.19-.35-.18-.46-.17-.93-.12-1.41,0-.06,0-.12,0-.21-.06,.04-.09,.07-.13,.09-.09-.13-.14-.14-.27-.06-.03-.53,.03-1.05,.13-1.56,0-.03,.04-.06,.07-.09,.09,.03,.1-.05,.11-.1,.11-.31,.21-.63,.32-.94,.07-.2,.15-.39,.23-.59,.07,0,.08,.06,.1,.11,.04,.1,.08,.19,.13,.28,.08,.14,.18,.26,.26,.4,.09,.13,.17,.27,.26,.4,.03,.04,.09,.04,.14,.06,0,.02,0,.04,0,.05,0,.02-.01,.03-.02,.05,.01,.04-.06,.11,.04,.12,.09,.1,.18,.19,.26,.29,.04,.05,.06,.11,.1,.16,.09,.1,.2,.2,.3,.3,.3,.3,.59,.61,.94,.86,.15,.1,.29,.22,.44,.33,.12,.08,.25,.15,.36,.24,.11,.08,.21,.18,.31,.28-.02,.02-.04,.04-.06,.06-.49,.31-1.04,.41-1.6,.47-.24,.02-.46-.05-.68-.12-.17-.05-.34-.11-.51-.15-.13-.03-.18,.02-.16,.14,.05,.19,.11,.38,.24,.53,.01,.02,.04,.02,.07,.03,.03,.04,.07,.07,.1,.11,.04,.12,.13,.18,.24,.2,.05,.11,.09,.22,.14,.33-.06,0-.12,.02-.17,0-.45-.07-.75-.34-.96-.72-.04-.08-.09-.17-.13-.25-.01,0-.03,0-.04,0-.03,.12-.05,.23-.08,.35Z"/>
      <path class="cls-10" d="M25.59,7.31c.16,.3,.22,.63,.17,.96-.04,.03-.08,.05-.11,.08-.11,.13-.24,.22-.41,.22-.17,0-.35,0-.52-.04-.51-.11-.92-.4-1.3-.74-.3-.27-.6-.56-.89-.84-.29-.27-.6-.52-.94-.71-.23-.13-.47-.23-.75-.16-.04,.01-.09,0-.12-.01-.32-.16-.59-.46-.48-.89,.04-.14,.05-.29,.08-.43,.56-.6,1.2-1.09,1.94-1.45,.04,.11,0,.2-.02,.3-.07,.46-.06,.92,.06,1.37,.09,.32,.21,.63,.4,.9,.05,.08,.14,.14,.17,.22,.08,.22,.26,.35,.41,.51,.25,.26,.57,.43,.89,.62,.03,.02,.08,0,.11-.01,.08,.16,.17,.31,.24,.47,.11,.23,.26,.41,.52,.47,.15,.04,.31,.06,.44-.06,.13-.12,.16-.29,.1-.45-.03-.11-.08-.21-.12-.32,.04-.01,.08-.02,.12-.03Z"/>
      <path class="cls-11" d="M8.86,19.22s.03,.06,.04,.09c0,.09,0,.17,0,.26,0,.16,.05,.29,.17,.41,.4,.4,.87,.69,1.4,.87,.43,.14,.86,.28,1.3,.35,.72,.11,1.44,.07,2.11-.24,.29-.13,.56-.29,.79-.51,.25-.23,.4-.5,.39-.85,.24,.23,.34,.52,.35,.84,0,.65-.21,1.23-.57,1.76-.03,0-.06,.01-.09,.02-.23,.07-.45,.16-.69,.21-.2,.04-.41,.04-.6-.06,.09-.02,.18-.04,.27-.06,.16,.05,.29-.03,.42-.09,.04-.02,.07-.05,.1-.08,0,0,0-.02-.01-.03-.09,0-.17,.01-.26,0-.19-.03-.37-.08-.56-.11,.2-.09,.4-.17,.61-.26,.03-.01,.06-.03,.08-.05,.03-.03,.04-.07,.06-.11-.04,0-.08,0-.11,0-.23,.07-.46,.18-.69,.22-1.17,.18-2.28,.01-3.29-.64-.04-.03-.09-.04-.15-.04,.25,.41,.62,.65,1.06,.8-.08,0-.16,.02-.24,0-.14-.02-.29-.05-.43-.1-.53-.17-1.01-.42-1.39-.85-.02-.02-.05-.02-.07-.04-.22-.38-.33-.78-.25-1.23,.04-.19,.11-.37,.24-.52Z"/>
      <path class="cls-12" d="M25.59,7.31s-.08,.02-.12,.03c-.45-.69-1.34-.92-1.79-.92,.16,.2,.32,.41,.49,.61-.05,.05-.03,.07,.03,.08h0s.04,.04,.06,.06c0,.02,.02,.04,.03,.05-.04,0-.09,.03-.11,.01-.31-.18-.63-.36-.89-.62-.15-.15-.34-.28-.41-.51-.03-.08-.12-.15-.17-.22-.19-.27-.31-.58-.4-.9-.12-.45-.13-.91-.06-1.37,.02-.1,.06-.2,.02-.3,.47-.24,.97-.4,1.49-.49-.01,.04-.02,.09-.04,.13-.09,.2-.18,.41-.27,.61-.01,.03-.02,.06-.02,.09,0,.17-.1,.33-.03,.51,0,.02,0,.04,0,.05-.06,.09-.03,.17,0,.26,.02,.04,.01,.08,.02,.12,.04,.15,.07,.31,.14,.45,.07,.16,.17,.3,.27,.44,.05,.08,.1,.16,.17,.22,.13,.11,.28,.21,.42,.31,.05,.03,.12,.05,.18,.07,.14,.06,.27,.12,.41,.18,.09,.04,.19,.06,.28,.09,.02,0,.04,0,.07,0,.1,0,.22-.04,.31-.01,.16,.04,.31,0,.45-.06,.22-.08,.46-.12,.63-.28,.13,.2,.28,.37,.5,.47-.08,.13-.21,.22-.35,.28-.09,.04-.18,.04-.25,.13-.02,.03-.07,.03-.11,.04-.08,.01-.18,0-.25,.04-.09,.04-.23,0-.28,.13-.04-.03-.08-.06-.12-.08-.13-.08-.27-.15-.4-.22-.16-.14-.31-.29-.51-.38-.1-.05-.19-.1-.3-.13-.23-.06-.44-.16-.69-.15-.14,0-.29-.02-.43-.02,.05,.09,.12,.09,.2,.1,.69,.1,1.32,.32,1.75,.92,.04,.06,.06,.12,.1,.18Z"/>
      <path class="cls-8" d="M18.37,10.54c.07,.01,.15,.02,.22,.03-.04,.05-.09,.09-.13,.15-.02,.02,0,.07,0,.1-.06,.07-.12,.15-.19,.22-.06-.07-.11-.14-.18-.21-.11-.11-.24-.21-.35-.32-.31-.33-.52-.72-.71-1.12-.06-.12-.1-.26-.15-.38,.09-.07,.23-.04,.24-.18,.09-.03,.19-.07,.28-.08,.15-.01,.31,0,.47,0,.04,0,.09-.01,.13-.02,0-.01,0-.03,0-.04-.04-.02-.08-.05-.13-.08,.29-.44,.66-.79,1.1-1.09,.1,0,.1,.08,.11,.16,.02,.24,.02,.48,.14,.7,.07,.12,.15,.24,.2,.37,.06,.15,.18,.23,.29,.34,.06,.06,.16,.09,.17,.2-.04,.2-.07,.39-.11,.6-.24-.09-.49-.19-.77-.15,0,.01,0,.03,0,.04,.03,0,.07,.02,.1,.02,.63,.08,1.08,.43,1.41,.95,.07,.11,.09,.24,.06,.37-.19,.02-.36-.02-.52-.12-.27-.17-.53-.35-.79-.51-.21-.13-.43-.24-.68-.29-.14-.03-.28-.02-.38,.09-.04,.04-.07,.11-.06,.16,0,.03,.09,.04,.15,.06h0s.03,.07,.04,.11c.01-.03,.03-.06,.04-.08Z"/>
      <path class="cls-13" d="M17.13,8.84c0,.14-.14,.1-.24,.18,.05,.12,.09,.26,.15,.38,.19,.4,.4,.8,.71,1.12,.11,.11,.23,.21,.35,.32,.06,.06,.12,.14,.18,.21-.47,.67-.76,1.41-.9,2.21-.04,.24-.05,.49-.07,.74-.03-.02-.06-.03-.08-.06-.26-.37-.39-.8-.49-1.23-.02-.08,0-.15,.07-.21,.07-.07,.14-.14,.14-.29-.09,.05-.15,.08-.21,.12-.07,.04-.14,.09-.21,.13-.1,.05-.17,.02-.22-.09-.11-.23-.12-.47-.09-.72,.02-.13,.08-.17,.18-.2,.05-.02,.11-.04,.16-.06-.03-.04-.06-.06-.08-.06-.12-.03-.25-.05-.37-.08-.17-.04-.21-.1-.2-.27,0-.05,.01-.1,.03-.15,.11-.27,.17-.57,.48-.69,.04-.01,.07-.04,.1-.07,.03-.03,.04-.08,.07-.14-.09,0-.14,0-.2,0-.16,0-.28-.05-.36-.2-.01-.02-.05-.04-.07-.05,.23-.33,.52-.59,.89-.75,.09-.04,.2-.05,.3-.08Z"/>
      <path class="cls-5" d="M15.61,21.18c.02-.15,.06-.31,.05-.46,0-.2-.03-.41-.05-.61,.05,.02,.11,.04,.16,.07,.19,.15,.4,.22,.65,.2,.27-.02,.57-.27,.63-.56-.17,.11-.3,.28-.52,.28-.22,0-.37-.11-.52-.22,.05-.12,.1-.21,.14-.31,.3-.31,.53-.66,.59-1.09,.03-.21,0-.43,.01-.64,.1,.05,.18,0,.26-.05,.06-.04,.12-.08,.18-.11-.09,.49,.01,.91,.4,1.25-.03,.15-.12-.02-.18,.03-.05,.13-.1,.26-.13,.4-.03,.12-.06,.25-.06,.38,0,.32-.02,.64,.02,.96,.02,.2,.11,.39,.19,.58,.14,.34,.33,.65,.59,.91,.08,.07,.15,.15,.23,.22,.07,.06,.15,.12,.23,.16,.06,.03,.09,.07,.08,.14l-.91,.02s-.09-.06-.14-.07c-.52-.16-.99-.42-1.38-.81-.17-.17-.3-.39-.46-.58-.02-.03-.05-.05-.07-.07Z"/>
      <path class="cls-19" d="M25.47,12.37c0,.76-.32,1.37-.93,1.82,0-.27-.14-.46-.34-.61-.34-.25-.75-.31-1.16-.33-.33-.01-.66,.01-.99,.02,0-.05,0-.1-.03-.14-.15-.24-.27-.5-.34-.78-.05-.2-.07-.41-.11-.62,.19-.23,.36-.47,.56-.7,.27-.31,.59-.55,.98-.68,.36-.11,.71-.09,1.06,.04-.02,.06-.04,.11-.06,.17-.04-.01-.09-.03-.13-.04-.38-.1-.75-.12-1.1,.09-.05,.03-.08,.07-.13,.11,0,.01,.01,.03,.02,.04,.18,0,.36-.02,.54-.03,.02,.05,.01,.09-.02,.15-.12,.25-.24,.51-.21,.81,.03,.26,.11,.49,.27,.69,.18,.22,.4,.4,.69,.47,.13,.03,.28,.07,.41,.06,.14,0,.29-.04,.43-.07-.06,.27-.12,.54-.18,.81,.08-.05,.16-.11,.21-.19,.24-.3,.3-.66,.3-1.04,.08-.03,.16-.06,.24-.08Z"/>
      <path class="cls-8" d="M18.57,22.7c0-.07-.02-.1-.08-.14-.08-.04-.16-.1-.23-.16-.08-.07-.15-.15-.23-.22-.26-.26-.45-.57-.59-.91-.08-.19-.17-.38-.19-.58-.03-.32-.02-.64-.02-.96,0-.13,.03-.25,.06-.38,.03-.14,.08-.27,.13-.4,.06-.05,.15,.12,.18-.03,.11,.11,.24,.19,.4,.21,.12,.02,.23,.06,.34,.09,.05,.03,.1,.05,.14,.07-.04,.13-.09,.26-.13,.39-.03,.12-.06,.24-.1,.35-.09-.1-.18-.19-.27-.29-.08-.09-.15-.19-.24-.28-.06-.06-.12-.05-.16,.03-.07,.14-.06,.28,0,.41,.11,.2,.24,.39,.37,.57,.04,.06,.13,.09,.2,.13,.25,.24,.54,.37,.89,.32,0,.04-.02,.08-.02,.12,0,.05,0,.12,.02,.14,.16,.13,.32,.26,.5,.35,.3,.15,.63,.19,.96,.13,.03,0,.06,.03,.1,.05-.01,.03-.02,.07-.04,.1-.1,.14-.2,.27-.29,.41-.04,.07-.06,.15-.09,.22-.44,.07-.88,.13-1.32,.2-.03-.11-.11-.12-.21-.1,0,.04,0,.08,0,.12-.03,0-.06,0-.08,0Z"/>
      <path class="cls-11" d="M26.44,27.53c.17-.1,.36-.19,.52-.31,.16-.12,.3-.27,.48-.4,0,.06,0,.12-.01,.18-.08,.25-.2,.47-.38,.66-.28,.31-.62,.54-1.02,.67-.01,0-.02,.02-.03,.03-.53,.09-1.06,.13-1.6,.1-1.14-.07-2.27-.2-3.4-.38-.22-.03-.43-.07-.65-.11,.11-.1,.22-.18,.3-.28,.07-.09,.1-.2,.15-.3,.08-.07,.13-.16,.15-.26-.1,.07-.18,.15-.27,.21-.32,.23-.7,.3-1.09,.32-.22,.01-.43-.03-.65-.05,.03-.06,.07-.11,.1-.17,.39,.02,.78,0,1.15-.14,.3-.11,.56-.29,.81-.49,.07-.06,.14-.13,.22-.19,.04-.03,.09-.03,.13-.04,0,.05,.02,.1,0,.14-.07,.21-.19,.39-.34,.54-.04,.04-.09,.07-.13,.13,.48,.16,.97,.26,1.46,.33,.29,.04,.58,.09,.87,.13,.09,.01,.18,.02,.27,.03,.32,0,.64,.01,.96,.02,.11,0,.21,0,.32,0,.34-.03,.68-.05,1.01-.16,.18-.06,.37-.11,.55-.17,.04-.01,.07-.02,.11-.03Z"/>
      <path class="cls-15" d="M26.3,4.25c-.11-.03-.22-.06-.33-.09-.48-.11-.95-.13-1.4,.11-.08,.04-.15,.08-.23,.13-.02,.02-.03,.05-.04,.08,.03,0,.07,.03,.1,.02,.24-.09,.48-.18,.74-.21,.48-.04,.93,.06,1.35,.28-.02,.05-.04,.1-.06,.14-.19-.06-.37-.12-.56-.18-.11-.03-.22-.06-.33-.1,.07,.1,.14,.18,.22,.25,.26,.23,.49,.48,.7,.77-.02,0-.04,.01-.06,.02-.42,.27-.88,.33-1.33,.15-.52-.2-.89-.57-1.03-1.14-.04-.15-.07-.31-.05-.46,.03-.22,.07-.44,.2-.63,.07-.11,.13-.21,.2-.32,.12,.04,.24,.09,.36,.13,.29,.1,.55,.24,.77,.46,.24,.24,.56,.31,.88,.17,.25-.1,.3-.33,.11-.53-.16-.16-.35-.26-.57-.32-.39-.1-.79-.12-1.2-.11v-.16c.73,0,1.42,.15,2.02,.61,.05,.04,.09,.09,.14,.13-.01,.04-.02,.09-.03,.13-.06,.22-.15,.42-.36,.54-.07,.04-.15,.07-.22,.1Z"/>
      <path class="cls-13" d="M7.12,19.49s0-.06,.02-.08c.3-.29,.6-.57,.9-.86,.02,0,.04,0,.05,0,.31-.08,.57,.03,.81,.23-.25,.24-.46,.5-.54,.85-.03,.16-.07,.32-.07,.48,.01,.24,.06,.47,.15,.69,.02,.05,.04,.11,.06,.16-.1,.03-.06,.09-.03,.15,.03,.06,.06,.12,.1,.18,.12,.16,.24,.33,.37,.48,.1,.12,.18,.26,.33,.34,0,0,.01,.02,.02,.04,.12,.16,.25,.32,.46,.36-.07,.11-.15,.22-.22,.33-.02-.03-.04-.08-.07-.1-.1-.07-.21-.14-.32-.21-.14-.09-.29-.17-.42-.28-.19-.15-.38-.3-.57-.47-.27-.25-.55-.49-.79-.76-.21-.23-.39-.49-.58-.74-.02-.02-.03-.07-.02-.1,.11-.18,.22-.36,.34-.54,.04-.05,.1-.09,.02-.16Z"/>
      <path class="cls-28" d="M11.96,10.83c-.02-.46-.2-.88-.28-1.33-.03-.15-.02-.31,0-.46,.05-.25,.23-.38,.48-.34,.18,.03,.36,.08,.52,.16,.69,.32,1.19,.83,1.55,1.49-.05-.03-.08,0-.12,.04-.1,.11-.18,.25-.34,.3-.04,.01-.08,.06-.11,.1-.08,.08-.17,.12-.28,.12-.06,0-.12,.03-.18,.04-.05,.01-.09,.04-.14,.04-.22,0-.44,0-.65,0-.03,0-.07,0-.09-.02-.08-.08-.23-.04-.29-.16,0,0-.05,.01-.07,.02Z"/>
      <path class="cls-7" d="M20.33,4.77c-.03,.14-.04,.29-.08,.43-.12,.43,.16,.73,.48,.89,.03,.02,.08,.02,.12,.01,.28-.08,.52,.03,.75,.16,.35,.19,.65,.44,.94,.71,.3,.28,.59,.56,.89,.84,.38,.34,.79,.64,1.3,.74,.17,.04,.35,.04,.52,.04,.17,0,.3-.09,.41-.22,.03-.03,.07-.06,.11-.08-.02,.23-.09,.44-.24,.61-.03,.01-.07,.01-.1,.03-.41,.27-.84,.25-1.27,.05-.49-.22-.84-.61-1.17-1.02-.26-.34-.52-.67-.84-.96-.03-.03-.09-.04-.13-.07-.16-.14-.31-.29-.49-.41-.15-.09-.33-.13-.49-.19-.02,0-.05,.02-.08,.03,.01,.02,.03,.05,.04,.07-.02,0-.04,.02-.06,.02-.25,.03-.5,.07-.76,.08-.31,.01-.65,.07-.88-.24,0,0,0,0-.01,0,.07-.14,.12-.3,.2-.43,.24-.4,.51-.77,.84-1.09Z"/>
      <path class="cls-25" d="M27.62,28.31c.13-.13,.16-.31,.23-.47,.07-.15,.04-.33,.16-.45,.02-.02-.01-.08,0-.11,.02-.08,.06-.15,.08-.23,.06-.22,.11-.44,.17-.66,.12,.09,.25,.16,.36,.26,.25,.22,.47,.47,.66,.75,.12,.17,.24,.35,.33,.53,.08,.16,.12,.34,.18,.51-.02,.03-.04,.07-.05,.1-.08,.56-.56,.79-1.03,.63-.24-.08-.44-.24-.64-.39-.04-.03-.09-.04-.13-.06-.11-.14-.22-.27-.33-.41Z"/>
      <path class="cls-5" d="M7.12,19.49c.07,.07,.01,.11-.02,.16-.12,.18-.23,.36-.34,.54-.01,.02,0,.07,.02,.1,.19,.25,.37,.51,.58,.74,.25,.27,.52,.51,.79,.76,.18,.16,.37,.32,.57,.47,.13,.1,.28,.19,.42,.28,.11,.07,.22,.13,.32,.21,.03,.02,.05,.06,.07,.1-.06,.09-.11,.18-.17,.26-.14,.17-.29,.31-.49,.41-.1-.09-.2-.19-.31-.28-.11-.09-.24-.16-.36-.24-.15-.11-.29-.22-.44-.33-.35-.25-.64-.56-.94-.86-.1-.1-.2-.2-.3-.3-.04-.05-.06-.11-.1-.16-.08-.1-.17-.2-.26-.29,.03-.03,.07-.07,.09-.11,.2-.43,.4-.86,.69-1.25,.05-.07,.13-.13,.19-.2Z"/>
      <path class="cls-27" d="M24.75,2.73v.16c-.23,.01-.46,.02-.72,.03,.14,.06,.25,.11,.36,.16-.07,.11-.13,.21-.2,.32-.12,.19-.17,.41-.2,.63-.02,.15,.01,.31,.05,.46,.13,.56,.5,.94,1.03,1.14,.46,.18,.91,.12,1.33-.15,.02-.01,.04-.02,.06-.02,.13,.17,.25,.34,.28,.55-.18,.17-.42,.21-.63,.28-.14,.05-.29,.1-.45,.06-.1-.03-.21,0-.31,.01-.02,0-.05,0-.07,0-.09-.03-.19-.06-.28-.09-.14-.05-.27-.12-.41-.18-.06-.02-.12-.04-.18-.07-.14-.1-.29-.2-.42-.31-.07-.06-.12-.14-.17-.22-.09-.14-.2-.29-.27-.44-.06-.14-.09-.3-.14-.45-.01-.04,0-.08-.02-.12-.04-.09-.07-.17,0-.26,0-.01,.01-.04,0-.05-.07-.17,.03-.34,.03-.51,0-.03,0-.06,.02-.09,.09-.2,.18-.41,.27-.61,.02-.04,.03-.08,.04-.13,.33-.07,.66-.11,1-.1Z"/>
      <path class="cls-11" d="M8.87,23.5c.2-.1,.35-.24,.49-.41,.07-.08,.12-.17,.17-.26,.07-.11,.15-.22,.22-.33l.02-.03c.18,.13,.37,.26,.55,.38-.03,.11-.04,.24-.09,.34-.23,.51-.59,.9-1.08,1.17-.05,.03-.09,.07-.13,.11-.77,.12-1.54,.11-2.31-.07-.14-.03-.29-.04-.43-.06-.07,0-.11,.03-.12,.1-.02-.01-.05-.01-.07-.03-.13-.15-.2-.34-.24-.53-.03-.12,.03-.17,.16-.14,.17,.04,.34,.1,.51,.15,.22,.07,.45,.14,.68,.12,.56-.05,1.11-.15,1.6-.47,.02-.01,.04-.04,.06-.06Z"/>
      <path class="cls-24" d="M19.9,9.29c-.01-.1-.11-.14-.17-.2-.11-.1-.23-.19-.29-.34-.05-.13-.13-.25-.2-.37-.13-.22-.12-.46-.14-.7,0-.08,0-.15-.11-.16,.64-.47,1.35-.73,2.16-.69,.05,0,.09,.02,.13,.02,.02,.04,.05,.09,.08,.12,.06,.08,.13,.16,.2,.24-.02,.04-.04,.07-.06,.09-.54,.1-.95,.41-1.28,.83-.07,.08-.12,.18-.18,.27-.01,.02-.02,.05-.02,.08,.01,0,.02,.01,.03,.02,.03-.03,.07-.07,.1-.1,.16-.17,.31-.35,.48-.51,.25-.23,.55-.38,.9-.41,.14,.12,.12,.25,.03,.38,0,0,0,0,0,.01-.58,.13-1.04,.44-1.39,.92-.11,.15-.17,.32-.26,.48Z"/>
      <path class="cls-11" d="M6.65,17.5c.33-.39,.65-.78,1.01-1.15,.27-.29,.59-.54,.88-.81,.04,.02,.07,.06,.11,.06,.3,.05,.54,.2,.73,.42,.04,.05,.1,.08,.15,.12-.35,.32-.64,.68-.78,1.15-.01,.04-.03,.08-.03,.12,0,.19-.11,.3-.25,.4-.12,.09-.23,.19-.35,.29-.09-.17-.17-.34-.33-.44-.31-.2-.65-.24-1.01-.16-.04,.01-.09,0-.13,.01Z"/>
      <path class="cls-13" d="M11.96,10.83s.07-.02,.07-.02c.06,.12,.21,.08,.29,.16,.02,.02,.06,.02,.09,.02,.22,0,.44,0,.65,0,.05,0,.09-.02,.14-.04,.06-.02,.12-.04,.18-.04,.11,0,.2-.05,.28-.12,.04-.03,.07-.08,.11-.1,.16-.05,.24-.19,.34-.3,.04-.04,.07-.07,.12-.04,.31,.57,.5,1.18,.51,1.83-.13,0-.25,.03-.38,.03-.29,0-.59,.03-.87-.02-.56-.08-1.04-.36-1.45-.76-.03-.03-.08-.06-.12-.08,0-.06,0-.13,.01-.19,.05-.03,.06-.07,0-.12,0-.07,0-.14,0-.21Z"/>
      <path class="cls-11" d="M13.57,28.31c.12,.15,.22,.31,.36,.43,.2,.18,.47,.22,.74,.23,.87,.03,1.66-.21,2.41-.63,.52-.29,.99-.65,1.44-1.04,.31-.27,.62-.54,.93-.82,.09,.03,.08,.1,.06,.15-.1,.18-.21,.36-.32,.54-.06-.07-.11-.05-.16,.01-.17,.19-.35,.38-.51,.58-.47,.57-1.06,1.01-1.7,1.38-.06,.02-.12,.03-.18,.05-.38,.17-.77,.26-1.18,.27-.46,.01-.91-.07-1.35-.2-.38-.11-.69-.3-.8-.71,.09-.08,.19-.16,.28-.24Z"/>
      <path class="cls-23" d="M9.03,24.49s.08-.08,.13-.11c.49-.27,.85-.66,1.08-1.17,.05-.11,.06-.23,.09-.34,.14,.03,.27,.06,.41,.08,.05,0,.1-.03,.15-.04,0-.01,0-.03,0-.04-.07-.04-.13-.08-.2-.12-.74-.39-1.28-.98-1.76-1.64-.03-.04-.04-.09-.06-.13,.02,.01,.05,.02,.07,.04,.37,.43,.86,.68,1.39,.85,.14,.04,.28,.07,.43,.1,.08,.01,.16,0,.24,0,.11,.03,.23,.06,.36,.1-.15,.2-.2,.41-.12,.64,.07,.22,.22,.38,.38,.53-.2,.34-.48,.57-.81,.75-.54,.3-1.12,.46-1.73,.54-.01,0-.03,0-.04,0Z"/>
      <path class="cls-25" d="M28.4,26.15c-.06-.09-.05-.19-.03-.3,.04-.26,.07-.52,.11-.78,0-.02,0-.05-.02-.07-.1-.14-.11-.29-.05-.45,.03,.07,.06,.14,.08,.21,.02,.05,.03,.11,.05,.17,0,.03,.04,.04,.06,.06,.02-.03,.05-.06,.05-.08-.02-.18-.03-.37-.06-.55-.02-.14-.06-.27-.1-.43,.04,.02,.06,.03,.07,.05,.6,.62,1.16,1.28,1.54,2.06,.14,.29,.26,.59,.29,.91-.11,0-.23,0-.34-.02-.29-.06-.55-.18-.78-.35-.27-.19-.53-.38-.86-.43Z"/>
      <path class="cls-23" d="M21.55,14.19c.31-.12,.6-.29,.95-.31,.29-.02,.58-.08,.88-.1,.13-.01,.26,0,.38,.03,.33,.07,.47,.37,.34,.68,.11,.1,.16,.09,.56-.06-.05,.23-.13,.43-.31,.58-.1,.08-.21,.06-.31,0-.06-.04-.11-.09-.17-.14-.08-.06-.13-.05-.17,.04-.04,.09-.06,.19-.1,.27-.09,.16-.18,.33-.31,.47-.17,.19-.36,.14-.45-.11-.02-.05-.02-.11-.04-.16-.02-.04-.06-.07-.08-.11-.04,.03-.09,.06-.11,.1-.06,.12-.1,.26-.17,.38-.07,.11-.15,.21-.25,.29-.12,.09-.23,.06-.29-.07-.05-.12-.08-.24-.11-.37-.02-.06-.03-.12-.07-.19-.11,.14-.18,.32-.41,.3,.02-.07,.04-.14,.07-.2,.14-.11,.27-.23,.39-.32,.08,.13,.14,.26,.22,.36,.12,.16,.26,.17,.41,.03,.03-.03,.06-.06,.08-.09,.08-.12,.15-.24,.22-.36,.03-.05,.08-.08,.13-.14,.1,.21,.2,.38,.41,.47,0-.04,.01-.05,0-.07,0-.45-.23-.76-.61-.97-.28-.16-.58-.19-.89-.18-.06,0-.12-.02-.18-.03Z"/>
      <path class="cls-13" d="M6.65,17.5s.09,0,.13-.01c.36-.08,.7-.04,1.01,.16,.17,.1,.25,.28,.33,.44-.26,.24-.51,.47-.77,.71-.14,.13-.26,.27-.39,.41-.06-.09-.1-.02-.13,.03-.05,.08-.09,.17-.14,.24-.07,.09-.15,.18-.22,.27-.02,.02-.04,.03-.05,.05-.18-.32-.36-.62-.53-.93-.05-.08-.05-.17,0-.24,.08-.11,.18-.21,.27-.32,.07-.08,.14-.16,.19-.25,.02-.04,0-.1,0-.16,.1-.13,.2-.26,.3-.39Z"/>
      <path class="cls-11" d="M10.56,27.04c.43,.4,.93,.61,1.52,.66,.8,.06,1.51-.17,2.17-.59,.42-.26,.82-.55,1.24-.82,.23-.15,.47-.27,.65-.48,0,0,.02,0,.06-.02-.02,.11-.05,.2-.07,.28-.05,0-.1,0-.14,.03-.1,.07-.2,.14-.29,.23-.09,.09-.18,.19-.25,.3-.25,.39-.6,.67-1.02,.86-.2,.09-.39,.19-.58,.29-.31,.17-.61,.35-.86,.61-.24,.01-.48,.02-.72-.03-.68-.15-1.28-.43-1.72-.99-.07-.09-.12-.19-.19-.28,.06-.02,.13-.03,.19-.05Z"/>
      <path class="cls-24" d="M20.61,21.74s-.07-.06-.1-.05c-.33,.06-.66,.02-.96-.13-.18-.09-.34-.23-.5-.35-.03-.02-.02-.1-.02-.14,0-.04,.02-.08,.02-.12,.05-.01,.1-.02,.15-.04,.4-.13,.83-.52,.73-1.1,.09-.12,.02-.23-.04-.34,0-.01,0-.03,0-.04,.12-.03,.24-.06,.36-.08,0,.3,.14,.51,.38,.66,.11,.12,.23,.23,.34,.35,0,.05,0,.11,0,.16,.02,.29-.02,.58-.14,.84-.06,.13-.14,.26-.22,.39Z"/>
      <path class="cls-11" d="M15.33,18.39c.27-.4,.44-.83,.41-1.31,0-.12-.06-.23-.08-.34-.01-.05-.02-.11-.03-.16,.53,.45,.92,.98,.86,1.71-.04,.47-.27,.86-.62,1.18-.13,.11-.28,.18-.46,.2-.21-.34-.54-.57-.86-.79,.32-.06,.6-.19,.78-.48Z"/>
      <path class="cls-11" d="M21.55,14.19c.06,0,.12,.03,.18,.03,.31-.01,.61,.02,.89,.18,.38,.21,.61,.52,.61,.97,0,.02,0,.04,0,.07-.21-.09-.3-.26-.41-.47-.05,.05-.1,.09-.13,.14-.08,.12-.15,.24-.22,.36-.02,.03-.05,.06-.08,.09-.15,.14-.29,.13-.41-.03-.08-.11-.14-.23-.22-.36-.12,.1-.26,.21-.39,.32,.02-.11,.05-.22,.06-.34,.01-.12-.05-.17-.16-.12-.12,.05-.23,.11-.34,.17-.13,.07-.26,.13-.39,.2,0-.14,.01-.28,.03-.42,.01-.1,.05-.19,.08-.29,.26-.24,.57-.4,.91-.5Z"/>
      <path class="cls-28" d="M20.8,8.41c.24-.19,.52-.29,.83-.28,.22,0,.42,.09,.58,.25,.24,.23,.38,.52,.43,.84-.05,.05-.1,.09-.14,.14-.09,.1-.17,.21-.27,.3-.19,.16-.42,.17-.66,.15-.08,0-.16,0-.24,0-.14-.06-.17-.16-.13-.34,0-.04,0-.1-.02-.11-.04-.03-.1-.04-.15-.03-.04,0-.08,.06-.12,.09,0-.02,0-.04-.02-.05-.15-.2-.19-.42-.14-.66,.02-.09,.02-.19,.03-.28Z"/>
      <path class="cls-21" d="M21.58,11.73c.03,.21,.06,.42,.11,.62,.07,.28,.18,.54,.34,.78,.02,.04,.02,.1,.03,.14-.27-.03-.54-.03-.8-.08-.56-.11-.88-.45-.99-1-.02-.09,0-.16,.09-.22,.08-.06,.12-.16,.18-.25,.09-.14,.19-.27,.29-.42,.28,.1,.59,.09,.9,.02h0c-.05,.1-.1,.2-.15,.29-.02,.04-.06,.09,0,.12Z"/>
      <path class="cls-23" d="M13.46,22.37c.19,.1,.4,.1,.6,.06,.23-.05,.46-.14,.69-.21,.03,0,.06-.01,.09-.02-.16,.29-.41,.5-.72,.6-.48,.16-.97,.27-1.47,.3-.22,.01-.46-.04-.68-.08-.22-.05-.36-.22-.44-.42-.06-.14-.03-.25,.06-.37,.09-.11,.18-.13,.33-.12,.31,.02,.62,0,.94,0,.07,0,.11,0,.16,.06,.11,.14,.28,.19,.45,.21Z"/>
      <path class="cls-11" d="M10.93,25.84c.47,.08,.92-.01,1.37-.13,.56-.15,1.09-.39,1.58-.7,.16-.1,.3-.24,.45-.35,.04-.03,.08-.07,.12-.09,.04-.02,.08-.02,.12-.03,0,.05,0,.1-.01,.14-.05,.09-.1,.19-.16,.27-.14,.18-.28,.36-.43,.53-.03,.03-.08,.04-.12,.06,.08-.1,.16-.2,.23-.3,.02-.03,.01-.07,.02-.11-.04,0-.09,0-.12,.02-.19,.13-.36,.28-.56,.41-.44,.28-.87,.56-1.32,.82-.25,.15-.53,.26-.83,.24-.04-.03-.08-.06-.13-.08-.2-.07-.37-.2-.51-.36-.04-.04-.08-.08-.12-.13,.14-.07,.27-.15,.41-.22Z"/>
      <path class="cls-11" d="M15.91,16.43c.26-.18,.36-.45,.39-.75,.04-.45-.05-.88-.22-1.3-.02-.04-.02-.09-.03-.13,.39,.26,.67,.62,.82,1.06,.19,.57,.21,1.14-.02,1.7-.05,.13-.13,.25-.22,.37-.18-.37-.44-.67-.72-.95Z"/>
      <path class="cls-11" d="M15.94,9.66s.06,.03,.07,.05c.08,.14,.2,.21,.36,.2,.05,0,.11,0,.2,0-.03,.06-.04,.11-.07,.14-.02,.03-.06,.06-.1,.07-.31,.12-.38,.42-.48,.69-.02,.05-.03,.1-.03,.15-.01,.17,.03,.23,.2,.27,.12,.03,.25,.05,.37,.08,.03,0,.05,.02,.08,.06-.05,.02-.1,.04-.16,.06-.1,.03-.16,.07-.18,.2-.03,.25-.02,.49,.09,.72,.05,.11,.11,.14,.22,.09,.07-.04,.14-.09,.21-.13,.06-.04,.12-.07,.21-.12,0,.15-.07,.23-.14,.29-.07,.06-.09,.13-.07,.21,.1,.43,.23,.86,.49,1.23,.02,.03,.05,.04,.08,.06,0,.13,.01,.27,.02,.43-.09-.12-.17-.23-.25-.33-.03-.03-.08-.04-.11-.07-.02-.01-.05-.02-.07-.04-.12-.19-.23-.39-.35-.58-.01-.02,0-.06-.01-.09,.09-.01,.05-.07,.03-.11-.06-.11-.11-.22-.17-.33-.03-.05-.05-.11-.07-.16,.04-.06,.08-.12,.12-.18,0-.01-.02-.02-.02-.03-.05,.02-.1,.03-.14,.05-.18,.07-.27,.03-.33-.15-.09-.27-.09-.54,.05-.8,.08-.16,.05-.2-.13-.2-.35,0-.48-.2-.3-.5,.12-.2,.27-.37,.42-.55,.1-.13,.1-.16-.04-.23-.12-.06-.16-.14-.11-.26,.03-.08,.08-.14,.12-.21Z"/>
      <path class="cls-26" d="M18.57,13.17c.21,.01,.35,.14,.47,.3,.21,.3,.27,.64,.26,.99,0,.19-.05,.37-.07,.56,0,.04-.01,.08-.02,.11,0,0,.02,.01,.02,.02,.03-.02,.06-.04,.08-.05,.17-.05,.21-.19,.25-.33,.04-.15,.04-.32,.06-.47,.01-.07,.05-.13,.08-.19,.26,.23,.37,.52,.37,.86-.04,.07-.08,.13-.12,.2-.07,.11-.18,.17-.31,.19-.6,.09-1.28-.52-1.13-1.19,.03-.16,.08-.31,.12-.46,0-.04,.03-.08,.02-.12,0-.06-.04-.06-.08-.02-.05,.01-.09,.02-.14,.03,0-.05,0-.1,.03-.14,.03-.09,.08-.18,.11-.27Zm.46,1.7c.03-.06,.05-.11,.06-.16,.02-.09,.03-.19,.03-.28,0-.09,0-.18-.03-.26-.01-.04-.09-.1-.12-.1-.07,.01-.08,.08-.07,.16,0,.09,0,.18,0,.27,0,.13-.03,.27,.13,.38Zm.64,.19c.14-.1,.16-.18,.12-.37-.04,.11-.08,.23-.12,.37Z"/>
      <path class="cls-11" d="M11.94,11.35s.09,.05,.12,.08c.41,.4,.88,.68,1.45,.76,.29,.04,.58,.02,.87,.02,.13,0,.25-.02,.38-.03,0,.14,0,.27,0,.41-.02,0-.04,0-.05,0-.36,.18-.74,.16-1.12,.11-.6-.09-1.17-.26-1.66-.64-.04-.03-.09-.04-.14-.06,.05-.22,.1-.44,.15-.66Z"/>
      <path class="cls-23" d="M11.78,12.01s.1,.03,.14,.06c.49,.38,1.06,.55,1.66,.64,.38,.06,.76,.07,1.12-.11,.02,0,.04,0,.05,0-.03,.21-.06,.42-.1,.65-1.11-.26-2.18-.49-3.29-.14,.14-.37,.28-.73,.42-1.08Z"/>
      <path class="cls-7" d="M25.47,6.79c.13,.07,.27,.15,.4,.22,.04,.02,.08,.05,.12,.08,.08,.06,.16,.12,.25,.17,.31,.18,.63,.29,.99,.21,.39-.08,.67-.3,.8-.69,.05-.15,.08-.3,.11-.45,.08,.21,.07,.44,.04,.65-.01,.12-.06,.24-.1,.37-.02,0-.04,0-.05,.02-.31,.4-.74,.62-1.21,.76-.28,.09-.55,.08-.78-.15-.01-.01-.04-.02-.06-.02-.03-.13-.05-.27-.08-.4-.08-.3-.26-.55-.44-.79Z"/>
      <path class="cls-10" d="M28.15,6.35c-.04,.15-.07,.3-.11,.45-.12,.39-.4,.6-.8,.69-.37,.08-.69-.04-.99-.21-.09-.05-.16-.11-.25-.17,.05-.13,.19-.09,.28-.13,.07-.03,.17-.02,.25-.04,.04,0,.09-.01,.11-.04,.06-.09,.16-.09,.25-.13,.14-.06,.27-.14,.35-.28,.08,0,.16,.03,.24,.02,.33-.04,.4-.28,.35-.54-.04-.23-.19-.4-.32-.58,.01-.02,.02-.04,.03-.06,.02,0,.04,0,.05,.02,.27,.29,.5,.6,.55,1.01Z"/>
      <path class="cls-7" d="M19.23,17.53c0,.07,.01,.14,.03,.2,.08,.27,.1,.53-.03,.79-.03,0-.06,0-.08,.02-.17,.13-.36,.21-.57,.24-.26,.03-.48-.03-.67-.2-.25-.22-.34-.52-.35-.84,0-.15,.03-.3,.05-.45,.07-.11,.12-.23,.21-.32,.16-.18,.34-.34,.51-.51,.09-.04,.18-.07,.28-.11,.1,.05,.2,.1,.31,.15-.09,.05-.2,.08-.27,.14-.29,.25-.55,.53-.65,.91-.08,.29,0,.57,.23,.72,.1,.06,.22,.1,.34,.14,.07,0,.14-.01,.22-.03,.23-.04,.37-.21,.36-.44,0-.16-.02-.32-.04-.5,.05,.02,.1,.04,.14,.05Z"/>
      <path class="cls-5" d="M6.35,17.89c0,.05,.02,.12,0,.16-.05,.09-.12,.17-.19,.25-.09,.11-.19,.21-.27,.32-.05,.07-.05,.16,0,.24,.18,.31,.35,.61,.53,.93,.02-.02,.04-.03,.05-.05,.08-.09,.16-.18,.22-.27,.05-.08,.09-.16,.14-.24,.03-.05,.07-.12,.13-.03-.16,.24-.32,.48-.48,.71-.02,.03-.07,.06-.1,.08-.1,.06-.17,.15-.23,.25,0,0,.01,.02,.02,.02,.04,0,.07-.02,.11-.03,0,0,.02,.01,.02,.02-.06,.19-.11,.37-.17,.56-.05-.02-.12-.02-.14-.06-.09-.13-.18-.27-.26-.4-.09-.13-.18-.26-.26-.4-.05-.09-.09-.19-.13-.28-.02-.05-.03-.11-.1-.11,.12-.31,.27-.6,.48-.86,.22-.27,.42-.55,.64-.83Z"/>
      <path class="cls-5" d="M22.46,10.49c-.09,.07-.18,.14-.26,.22-.07,.07-.13,.14-.19,.21-.12,.14-.28,.21-.46,.25-.23,.04-.46,.03-.68-.06-.04-.01-.09-.05-.09-.08-.06-.39-.29-.67-.59-.88-.14-.1-.18-.2-.16-.36,.02-.14,.04-.27,.07-.41,.06,0,.09,.02,.11,.07,.03,.08,.06,.17,.12,.23,.15,.16,.31,.31,.47,.46,.1,.01,.13,.07,.12,.17-.01,.11,.04,.15,.14,.12,.03,0,.05-.02,.07-.03,.1,.01,.21,.03,.31,.04,.33,.05,.64-.02,.95-.13,.06-.02,.12-.03,.18-.05-.02,.06-.05,.11-.07,.17-.01,.02-.02,.04-.04,.06Z"/>
      <path class="cls-11" d="M20.61,21.74c.07-.13,.15-.25,.22-.39,.12-.27,.16-.55,.14-.84,0-.05,0-.11,0-.16,.04,.03,.09,.06,.13,.1,.02,.05,.03,.11,.06,.15,.07,.08,.16,.15,.24,.22,.04,.04,.09,.07,.11,.12,.1,.32,.13,.65,.04,.98-.03,.13-.08,.25-.12,.38-.3,.04-.6,.09-.91,.13-.11,.02-.23,.03-.34,.05,.03-.08,.04-.16,.09-.22,.09-.14,.2-.27,.29-.41,.02-.03,.03-.06,.04-.1Z"/>
      <path class="cls-23" d="M16.52,13.32s0,.07,.01,.09c.11,.2,.23,.39,.35,.58,.01,.02,.04,.03,.07,.04-.03,.14,.04,.26,.11,.37,.07,.11,.16,.22,.24,.34-.05-.01-.1-.02-.14-.04-.25-.15-.46-.36-.64-.59-.09-.12-.18-.25-.28-.37-.09-.11-.2-.2-.3-.3-.25-.27-.51-.51-.92-.44,.02-.24,.03-.48,.05-.74h.6c.07,.24,.13,.53,.5,.52,.12,.18,.23,.36,.35,.54Z"/>
      <path class="cls-29" d="M20.52,11.72c-.06,.08-.1,.19-.18,.25-.08,.07-.11,.13-.09,.22,.11,.55,.43,.9,.99,1,.26,.05,.53,.05,.8,.08,.33,0,.66-.03,.99-.02,.41,.01,.81,.08,1.16,.33,.2,.15,.35,.34,.34,.61-.05,.04-.11,.08-.19,.13,0-.21-.07-.37-.19-.5-.18-.19-.42-.25-.67-.27-.02,0-.04,0-.06,0-.03,0-.05,0-.08,0-.04-.02-.07-.05-.11-.05-.19,0-.38,.02-.57,.02-.31,.01-.61,.03-.92,.03-.44,0-.85-.1-1.2-.39-.32-.27-.52-.61-.51-1.04,0-.12,.02-.22,.16-.25,.02,0,.04-.04,.06-.06,.09-.03,.18-.05,.27-.08Z"/>
      <path class="cls-28" d="M11.63,13.34c.02,.15-.09,.25-.14,.38-.08,.23-.18,.46-.24,.69-.09,.31-.06,.62-.06,.94-.08,0-.16-.01-.24-.03-.25-.06-.49-.15-.58-.42-.05-.15-.07-.3-.11-.45,.28-.58,.74-.94,1.37-1.11Z"/>
      <path class="cls-10" d="M18.54,18.44c-.11-.05-.24-.08-.34-.14-.23-.15-.31-.43-.23-.72,.11-.39,.36-.66,.65-.91,.08-.07,.18-.1,.27-.14,.24,.05,.48,.13,.72,.15,.22,.02,.39,.06,.46,.3,.02,.05,.08,.1,.12,.14-.04,0-.08,0-.12,.02-.03,0-.05,.01-.08,.02-.14-.09-.26-.21-.45-.29,.03,.12,.06,.22,.09,.31-.23,.02-.45,.06-.64,.2-.04,.03-.09,.03-.14,.05v-.37c-.21,.09-.47,.4-.49,.61-.03,.2,0,.39,.19,.51,0,.09-.02,.19-.03,.28Z"/>
      <path class="cls-8" d="M20.39,19.27c.08-.06,.16-.11,.23-.18,.25-.23,.37-.51,.36-.85,0-.05,0-.1,0-.16,.08,.12,.15,.24,.23,.34,.16,.21,.34,.41,.5,.62,.14,.18,.27,.38,.34,.61-.03,.02-.07,.04-.1,.07-.1,.1-.21,.13-.35,.13-.21,0-.4-.08-.59-.15-.24-.09-.42-.26-.61-.43Z"/>
      <path class="cls-21" d="M18.83,11.4c-.17,.35-.36,.69-.52,1.04-.23,.52-.39,1.06-.4,1.64-.13-.36-.1-.73-.02-1.1-.19,.31-.27,.64-.21,1,.03,.22,.1,.43,.15,.64-.04-.05-.08-.11-.11-.17-.07-.15-.13-.31-.2-.47-.02-.37,.03-.74,.14-1.09,.13-.41,.29-.8,.44-1.2,.02-.05,.05-.09,.08-.14,.03,0,.06-.01,.08-.03,.17-.12,.36-.16,.57-.14Z"/>
      <path class="cls-28" d="M19.89,19.42s0,.03,0,.04c-.06,.02-.13,.04-.17,.08-.07,.07-.13,.16-.2,.24-.09,.11-.17,.23-.27,.33-.07,.06-.17,.11-.27,.13-.26,.04-.51-.04-.73-.19,.03-.12,.06-.24,.1-.35,.04-.13,.08-.27,.13-.39-.04-.02-.09-.05-.14-.07,.22,0,.43,0,.63-.09,.26,.26,.59,.27,.92,.29Z"/>
      <path class="cls-23" d="M10.36,27.09c.06,.09,.12,.19,.19,.28,.44,.56,1.04,.84,1.72,.99,.24,.05,.48,.04,.72,.03-.06,.17-.2,.23-.37,.25-.7,.08-1.32-.13-1.87-.54-.16-.12-.29-.26-.43-.4-.05-.05-.08-.11-.12-.17-.12-.21-.07-.34,.16-.44Z"/>
      <path class="cls-11" d="M22.23,20.45c.12,.45,.29,.88,.58,1.24,.1,.12,.29,.19,.45,.25,.28,.11,.58,.16,.82,.33,.08,.06,.19,.11,.24,.24-.12-.02-.21-.03-.31-.04,0-.02,0-.04-.02-.05-.25-.26-.77-.34-1.09-.17-.02-.01-.04-.03-.07-.04-.31-.08-.55-.25-.68-.55-.02-.04-.07-.07-.1-.1,0-.22,0-.45,0-.67,0-.1-.02-.2-.03-.3,.07-.05,.14-.09,.21-.14Z"/>
      <path class="cls-14" d="M26,7.98s.05,.01,.06,.02c.23,.23,.49,.24,.78,.15,.47-.14,.9-.36,1.21-.76,0-.01,.03-.01,.05-.02-.04,.22-.16,.41-.3,.58-.3,.36-.65,.65-1.1,.79-.22,.07-.44,.1-.66,.02-.05-.02-.09-.04-.12-.05,.03-.26,.05-.49,.08-.73Z"/>
      <path class="cls-1" d="M22.57,10.27c-.06,.02-.12,.03-.18,.05-.31,.11-.62,.18-.95,.13-.1-.02-.21-.03-.31-.04,.15-.18,.19-.39,.2-.61,.08,0,.16,0,.24,0,.24,.03,.47,0,.66-.15,.1-.08,.18-.2,.27-.3,.05-.05,.09-.09,.14-.14,.07,.36,.06,.71-.07,1.05Z"/>
      <path class="cls-11" d="M15.61,21.18s.05,.04,.07,.07c.15,.19,.29,.41,.46,.58,.38,.39,.85,.65,1.38,.81,.05,.01,.09,.05,.14,.07-.13-.01-.26,0-.38-.03-.41-.11-.82-.24-1.23-.34-.27-.07-.55-.12-.81-.17,.12-.32,.25-.65,.38-.99Z"/>
      <path class="cls-23" d="M9.53,16.13s-.11-.07-.15-.12c-.2-.22-.43-.37-.73-.42-.04,0-.08-.04-.11-.06,.4-.37,.86-.65,1.36-.93-.1,.45-.27,.87-.05,1.31-.1,.07-.21,.14-.32,.21Z"/>
      <path class="cls-25" d="M17.49,15.13c.19,.39,.43,.73,.79,1.01-.12,.28-.36,.43-.57,.6-.04-.12-.08-.25-.13-.37-.06-.15-.11-.17-.28-.13-.01-.23-.01-.46-.04-.68-.05-.31-.18-.59-.35-.86,.05,.03,.1,.05,.14,.09,.14,.12,.26,.28,.45,.34Z"/>
      <path class="cls-14" d="M22.02,6.92s.09,.03,.13,.07c.32,.29,.58,.62,.84,.96,.32,.41,.68,.8,1.17,1.02,.43,.2,.86,.22,1.27-.05,.03-.02,.07-.02,.1-.03-.14,.25-.37,.37-.64,.44-.4,.1-.76-.05-1.09-.25-.39-.24-.68-.59-.95-.97-.28-.39-.55-.79-.83-1.18Z"/>
      <path class="cls-11" d="M20.39,19.27c.19,.17,.37,.34,.61,.43,.19,.08,.38,.15,.59,.15,.14,0,.25-.03,.35-.13,.03-.03,.07-.04,.1-.07,.03,.12,.07,.24,.08,.36,.01,.19-.09,.3-.28,.34-.17,.04-.33,.02-.48-.05-.21-.1-.41-.22-.62-.33-.04-.02-.1-.09-.12,.02-.24-.15-.39-.36-.38-.66,.05-.02,.09-.04,.14-.06Z"/>
      <path class="cls-8" d="M23.23,8.89c.2,.15,.4,.31,.61,.46,.12,.08,.25,.12,.38,.18-.04,.2-.18,.32-.34,.43-.04,.03-.07,.08-.11,.12-.17,.01-.34,.02-.51,.03,0-.09-.01-.18-.02-.28-.19,0-.24-.15-.11-.4h-.14c-.07-.25,.02-.45,.24-.54Z"/>
      <path class="cls-11" d="M28.4,26.15c.33,.05,.59,.25,.86,.43,.24,.17,.5,.29,.78,.35,.11,.02,.23,.01,.34,.02,0,.18,0,.37,0,.55-.31,.03-.59-.03-.82-.25-.02-.02-.06-.02-.09-.03-.12-.14-.24-.29-.37-.42-.2-.21-.42-.38-.69-.47-.05-.02-.1,0-.15,0-.02-.04-.04-.09-.05-.13,.06-.01,.12-.03,.19-.04Z"/>
      <path class="cls-29" d="M17.52,14c.06,.16,.13,.31,.2,.47,.03,.06,.07,.11,.11,.17h0s.02,.04,.03,.06h0s.02,.04,.03,.06c.12,.18,.23,.36,.37,.53,.27,.33,.58,.61,.99,.78,.17,.07,.34,.11,.52,.09,.06,0,.12-.02,.05-.1,.19,0,.38,0,.57,0,.11,0,.21-.06,.31-.09-.03,.05-.06,.11-.11,.15-.18,.13-.39,.22-.62,.24-.56,.05-1.04-.13-1.45-.49-.37-.32-.66-.7-.86-1.15,0-.02-.04-.03-.05-.05-.03-.22-.05-.44-.08-.66Z"/>
      <path class="cls-16" d="M20.25,11.8s-.04,.06-.06,.06c-.14,.03-.16,.13-.16,.25,0,.44,.19,.77,.51,1.04,.34,.29,.76,.39,1.2,.39,.31,0,.61-.02,.92-.03,.19,0,.38-.02,.57-.02,.04,0,.07,.03,.11,.05-.32,.04-.63,.09-.95,.13-.52,.06-1.04,.08-1.54-.11-.58-.22-.91-.66-1.02-1.27-.05-.31-.03-.42,.04-.61,.13,.04,.25,.08,.38,.11Z"/>
      <path class="cls-23" d="M13.29,28.55c.11,.41,.43,.6,.8,.71,.44,.13,.89,.21,1.35,.2,.41-.01,.8-.11,1.18-.27,.06-.02,.12-.04,.18-.05-.37,.25-.78,.41-1.22,.48-.67,.11-1.33,.06-1.95-.24-.11-.06-.22-.13-.32-.21-.22-.19-.22-.39-.02-.61Z"/>
      <path class="cls-11" d="M17.49,15.13c-.19-.07-.3-.22-.45-.34-.04-.04-.09-.06-.14-.09h0s-.02-.02-.02-.03c-.5-.66-1.17-1.06-1.93-1.33-.02,0-.04-.02-.06-.03,.05-.11,.09-.21,.14-.31,.41-.07,.67,.17,.92,.44,.1,.1,.21,.19,.3,.3,.1,.12,.19,.24,.28,.37,.18,.24,.39,.44,.64,.59,.04,.02,.09,.03,.14,.04,.11,.11,.16,.24,.2,.39Z"/>
      <path class="cls-14" d="M19.29,6.29s.01,0,.01,0c.23,.31,.56,.26,.88,.24,.25-.01,.51-.05,.76-.08,.02,0,.04-.02,.06-.02,.2,.05,.38,.13,.53,.27h0c-.21,0-.43-.02-.64-.03-.51-.01-.98,.13-1.44,.34-.14,.07-.29,.14-.43,.22h0c.03-.13,.05-.26,.09-.39,.06-.19,.13-.37,.19-.55Z"/>
      <path class="cls-11" d="M27.95,28.72s.09,.03,.13,.06c.2,.15,.4,.31,.64,.39,.47,.16,.95-.07,1.03-.63,0-.04,.03-.07,.05-.1,.07,.32,.04,.63-.09,.93-.02,.04-.05,.08-.08,.12-.05,0-.1,0-.15,.02-.47,.14-.88,.02-1.24-.29-.03-.02-.06-.03-.1-.04-.06-.16-.13-.32-.19-.47Z"/>
      <path class="cls-1" d="M20.79,10.15c-.16-.15-.32-.3-.47-.46-.06-.06-.09-.15-.12-.23-.02-.06-.05-.08-.11-.07,.12-.41,.34-.74,.7-.97,0,.1,0,.19-.03,.28-.05,.24-.02,.46,.14,.66,.01,.01,.01,.03,.02,.05-.13,.23-.16,.48-.13,.74Z"/>
      <path class="cls-11" d="M10.27,14.45c.03,.15,.06,.3,.11,.45,.09,.27,.32,.37,.58,.42,.08,.02,.16,.02,.24,.03,.07,.02,.14,.05,.21,.07,0,.01,0,.02,0,.03-.23,.08-.46,.15-.69,.23-.23,.03-.45,.07-.7,.11-.05-.46,.07-.9,.25-1.34Z"/>
      <path class="cls-9" d="M18.56,13.55s.08-.04,.08,.02c0,.04-.01,.08-.02,.12-.04,.15-.08,.31-.12,.46-.15,.67,.53,1.27,1.13,1.19,.13-.02,.23-.08,.31-.19,.04-.06,.08-.13,.12-.2,.01,.18,0,.35-.09,.5-.03,.01-.06,.03-.1,.04-.1,.03-.21,.09-.31,.09-.25-.02-.49-.09-.7-.25-.03-.02-.07-.03-.11-.04-.24-.19-.4-.43-.52-.7-.02-.04-.02-.1-.01-.14,.01-.13,.03-.26,.06-.38,.04-.16,.11-.3,.25-.4,.04-.03,.07-.06,.03-.11Z"/>
      <path class="cls-11" d="M4.65,22.92s.07-.05,.13-.09c0,.08,0,.14,0,.21-.05,.48-.05,.95,.12,1.41,.05,.12,.12,.24,.19,.35,.02,.03,.05,.04,.08,.06-.02,.15-.03,.3-.05,.44-.09-.06-.19-.11-.27-.19-.09-.09-.17-.21-.25-.31-.11-.58-.14-1.16,.02-1.73,.01-.05,.02-.1,.03-.15Z"/>
      <path class="cls-23" d="M27.88,29.47c-.03,.19-.18,.29-.4,.26-.15-.02-.31-.06-.45-.11-.43-.14-.82-.34-1.19-.59-.12-.08-.22-.19-.34-.3,.17-.06,.31-.11,.44-.16,.07,.08,.13,.18,.21,.25,.2,.16,.4,.31,.61,.44,.25,.15,.51,.28,.81,.26,.1,0,.21-.03,.31-.05Z"/>
      <path class="cls-11" d="M18.29,10.51c-.05-.02-.14-.04-.15-.06,0-.05,.02-.12,.06-.16,.1-.11,.24-.12,.38-.09,.25,.05,.47,.16,.68,.29,.27,.17,.53,.34,.79,.51,.16,.1,.33,.15,.52,.12-.03,.11-.06,.22-.08,.33-.19,0-.38,.02-.56-.05-.05-.08-.1-.15-.14-.24-.08-.16-.19-.29-.35-.38-.15-.09-.3-.18-.46-.26-.19-.1-.4-.13-.61-.1-.05,0-.11,0-.1,.08Z"/>
      <path class="cls-7" d="M20.62,17.64c.04,.12,.09,.24,.12,.37,.02,.09,.02,.18,.03,.27-.02,.02-.04,.03-.06,.05-.06,.09-.12,.19-.19,.29-.23,.31-.58,.41-.95,.27-.07-.03-.14-.05-.22-.08,.03-.09,.06-.19,.1-.28,.05,0,.1,.02,.15,.02,.27,.04,.51-.04,.7-.24,.16-.13,.2-.31,.25-.5,.01-.06,.04-.11,.07-.17Z"/>
      <path class="cls-4" d="M25.47,12.37c-.08,.03-.16,.06-.24,.08-.01-.1-.02-.19-.03-.29-.05-.32-.15-.62-.33-.9-.19-.3-.44-.53-.75-.69,.02-.06,.04-.11,.06-.17,.11,.05,.22,.08,.32,.14,.53,.29,.78,.77,.91,1.33,.04,.16,.04,.33,.06,.5Z"/>
      <path class="cls-16" d="M17.6,14.66s.04,.03,.05,.05c.2,.45,.49,.83,.86,1.15,.42,.36,.9,.54,1.45,.49,.23-.02,.43-.11,.62-.24,.05-.03,.07-.1,.11-.15h0s.06-.03,.08-.05h0s.02-.02,.03-.03h0s.02-.02,.03-.03h0s.02-.02,.03-.03h0s.04-.05,.06-.08h0c.16-.09,.18-.26,.2-.42,.02-.01,.04-.02,.06-.04,.02,.43-.32,.93-.74,1.09-.47,.18-.93,.12-1.38-.06-.73-.29-1.23-.8-1.44-1.57,0-.03,0-.05,0-.08Z"/>
      <path class="cls-11" d="M4.57,21.2s-.06,.06-.07,.09c-.11,.52-.16,1.04-.13,1.56-.07,.16-.15,.33-.22,.49-.1-.2-.16-.4-.15-.63,0-.02-.03-.05-.05-.07,.1-.36,.18-.72,.29-1.07,.07-.23,.19-.45,.28-.68h.03c0,.11,0,.21,.01,.31Z"/>
      <path class="cls-20" d="M19.8,16.05c.07,.08,0,.09-.05,.1-.18,.02-.36-.02-.52-.09-.4-.17-.71-.45-.99-.78-.14-.16-.25-.35-.37-.53,0-.02-.02-.04-.03-.06h0s-.02-.04-.03-.06h0c-.05-.21-.12-.43-.15-.64-.05-.36,.03-.69,.21-1-.09,.37-.11,.73,.02,1.1,.1,.89,.6,1.48,1.4,1.82,.16,.07,.34,.09,.5,.14Z"/>
      <path class="cls-14" d="M17.6,17.31c-.02,.15-.06,.3-.05,.45,.01,.32,.1,.62,.35,.84,.19,.17,.42,.23,.67,.2,.22-.03,.4-.11,.57-.24,.02-.02,.05-.01,.08-.02-.08,.3-.31,.47-.65,.5-.54,.05-1.07-.33-1.19-.86-.05-.23,0-.45,.1-.65,.03-.07,.07-.13,.11-.2Z"/>
      <path class="cls-11" d="M8.96,17.59c.18,.2,.41,.31,.66,.37,.24,.06,.49,.09,.74,.15-.21,.14-.44,.23-.68,.29-.15,.05-.29,.09-.45,.14-.13-.29-.33-.58-.27-.95Z"/>
      <path class="cls-23" d="M18.94,27.61c.22,.02,.44,.06,.65,.05,.38-.02,.76-.09,1.09-.32,.09-.07,.17-.15,.27-.21-.02,.1-.07,.19-.15,.26-.04,0-.09-.01-.11,0-.41,.41-.94,.54-1.48,.62-.18,.03-.37,.03-.56,.04,0,0,0-.02-.01-.03,.1-.14,.2-.28,.3-.42Z"/>
      <path class="cls-7" d="M26.3,4.25c.07-.03,.15-.06,.22-.1,.21-.12,.3-.32,.36-.54,.01-.04,.02-.09,.03-.13,.19,.16,.34,.35,.44,.58-.01,.01-.03,.03-.03,.04-.05,.19-.14,.36-.32,.46,0,0,0,.02,0,.03-.23-.11-.46-.22-.69-.33Z"/>
      <path class="cls-11" d="M21.55,7.89s0-.01,0-.01c.09-.14,.11-.26-.03-.38,.26-.05,.48,.04,.71,.15,.19,.1,.26,.28,.38,.43,.12,.15,.19,.31,.09,.5-.03,.05-.03,.12-.04,.19-.1-.15-.21-.3-.31-.44,0-.01,.02-.02,.02-.03,.03,.02,.06,.04,.12,.07-.11-.26-.51-.45-.93-.46Z"/>
      <path class="cls-27" d="M18.54,18.44c0-.09,.02-.19,.03-.28,.01,0,.03,0,.04,0,.29,0,.41-.16,.32-.44-.03-.1-.04-.2-.06-.31,.05-.02,.1-.02,.14-.05,.19-.15,.41-.19,.64-.2,.07,.16,.09,.33,.08,.5-.12,0-.24,.02-.36,.03-.02-.05-.04-.09-.06-.13-.01-.02-.05-.02-.08-.03-.05-.02-.09-.04-.14-.05,.01,.17,.03,.34,.04,.5,0,.24-.13,.4-.36,.44-.07,.01-.14,.02-.22,.03Z"/>
      <path class="cls-11" d="M27.88,29.47c-.1,.02-.2,.04-.31,.05-.3,.02-.56-.11-.81-.26-.21-.13-.41-.28-.61-.44-.08-.07-.14-.16-.21-.25,.04-.02,.08-.05,.11-.07,.23,.35,.59,.49,.96,.6,.1,.03,.2,.04,.31,.06,.1,.03,.2,.06,.3,.09,.08,.03,.15,.02,.2-.06,.01-.02,.04-.02,.05-.03,0,.1,0,.21,0,.31Z"/>
      <path class="cls-11" d="M16.16,19.58c-.04,.1-.09,.19-.14,.31,.14,.1,.3,.22,.52,.22,.22,0,.35-.17,.52-.28-.06,.29-.36,.54-.63,.56-.25,.02-.46-.05-.65-.2-.04-.03-.1-.05-.16-.07-.02-.06-.04-.11-.07-.18,.26-.02,.43-.19,.61-.35Z"/>
      <path class="cls-23" d="M21.44,22.29c.04-.13,.08-.25,.12-.38,.08-.33,.06-.66-.04-.98-.01-.05-.07-.08-.11-.12-.08-.08-.17-.14-.24-.22-.03-.04-.04-.1-.06-.15,.21,.12,.42,.22,.69,.21,.1,.56-.02,1.09-.15,1.64h-.21Z"/>
      <path class="cls-23" d="M28.14,29.2s.07,.02,.1,.04c.37,.31,.77,.42,1.24,.29,.05-.01,.1-.01,.15-.02-.19,.3-.69,.46-1.03,.33-.15-.06-.3-.13-.46-.19v-.44Z"/>
      <path class="cls-14" d="M19.36,18.8c.07,.03,.15,.05,.22,.08,.37,.14,.71,.04,.95-.27,.07-.09,.12-.19,.19-.29,.01-.02,.04-.04,.06-.05,.03,.36-.17,.59-.44,.78-.15,.1-.31,.15-.49,.14-.15-.01-.31-.02-.46-.03-.03,0-.06-.02-.09-.03-.13-.06-.13-.09-.03-.2,.04-.04,.08-.09,.12-.13Z"/>
      <path class="cls-15" d="M19.37,17.7c.12,0,.24-.02,.36-.03,0,.06,.02,.12,.02,.17,.02,.3,.26,.47,.5,.35,.02,.04,.04,.07,.05,.11-.19,.2-.43,.28-.7,.24-.05,0-.1-.02-.15-.02,.06-.28,.03-.56-.09-.82Z"/>
      <path class="cls-11" d="M22.05,17.21s-.04,.04-.06,.05c-.28,.13-.53,.31-.7,.57-.03,.04-.06,.08-.1,.12-.08-.11-.15-.22-.23-.33,.13-.15,.23-.3,.19-.52,.32-.01,.61,.02,.9,.11Z"/>
      <path class="cls-11" d="M5.28,24.49c.03-.12,.05-.23,.08-.35,.01,0,.03,0,.04,0,.04,.08,.08,.17,.13,.25,.21,.38,.51,.65,.96,.72,.06,0,.12,0,.17,0,0,.08,.02,.17,.03,.25-.22,.06-.42,.02-.6-.11-.14-.1-.26-.23-.39-.34-.04-.04-.09-.07-.14-.1-.02-.05-.05-.1-.06-.15-.03-.12-.1-.17-.22-.15Z"/>
      <path class="cls-23" d="M10.52,26.06s.08,.08,.12,.13c.14,.16,.31,.28,.51,.36,.05,.02,.08,.05,.13,.08-.15,.02-.3,.03-.45,.05-.11,.01-.23,.02-.34,.05-.08,.02-.11-.01-.14-.07-.11-.19-.03-.45,.17-.58Z"/>
      <path class="cls-8" d="M15.33,18.39c-.18,.28-.46,.42-.78,.48-.15-.08-.3-.16-.45-.23-.01-.07,0-.1,.08-.11,.28-.03,.56-.06,.84-.12,.11-.02,.21-.07,.32-.02Z"/>
      <path class="cls-11" d="M8.9,18.78c-.24-.19-.49-.31-.81-.23-.02,0-.04,0-.05,0,.22-.2,.44-.39,.67-.6,.08,.26,.11,.52,.35,.71-.05,.04-.1,.08-.15,.11Z"/>
      <path class="cls-25" d="M23.78,10.08s.07-.09,.11-.12c.16-.11,.29-.24,.34-.43,.14,0,.2,.07,.22,.2,.03,.19,.07,.38,.1,.57-.24-.07-.46-.13-.68-.2l-.09-.02h0Z"/>
      <path class="cls-25" d="M23.23,8.89c-.22,.09-.31,.29-.24,.54-.12,.19-.1,.4-.12,.61-.05-.53-.21-1.05-.03-1.59,.13,.15,.26,.29,.38,.43Z"/>
      <path class="cls-23" d="M5.56,24.8s.1,.07,.14,.1c.13,.11,.25,.24,.39,.34,.18,.13,.38,.17,.6,.11,0,.25-.3,.4-.54,.25-.2-.13-.35-.31-.46-.52-.05-.09-.08-.19-.13-.29Z"/>
      <path class="cls-14" d="M26.99,4.58s0-.02,0-.03c.18-.1,.27-.27,.32-.46,0-.02,.02-.03,.03-.04,.19,.29,.26,.61,.25,.97-.22-.16-.41-.31-.61-.45Z"/>
      <path class="cls-23" d="M22.05,21.56s.08,.06,.1,.1c.14,.3,.37,.47,.68,.55,.02,0,.05,.02,.07,.04-.04,.02-.08,.05-.11,.05-.28-.02-.56-.04-.85-.07,.03-.22,.07-.45,.11-.68Z"/>
      <path class="cls-12" d="M20.31,18.31s-.04-.07-.05-.11c.09-.13,.12-.26,.09-.42-.05-.25-.18-.44-.34-.63,.03,0,.05-.01,.08-.02,.04,0,.08-.01,.12-.02,.11,.11,.23,.21,.33,.33,.05,.05,.06,.13,.09,.19-.02,.06-.05,.11-.07,.17-.05,.19-.09,.37-.25,.5Z"/>
      <path class="cls-11" d="M23.95,22.5c.16,.13,.33,.26,.48,.4,.08,.07,.16,.16,.18,.31-.15-.09-.27-.16-.39-.23-.03-.04-.05-.08-.09-.11-.3-.23-.64-.38-1-.49,.29-.09,.55,0,.81,.12Z"/>
      <path class="cls-25" d="M20.59,17.2c-.18-.15-.38-.29-.49-.52,.13-.04,.25-.07,.4-.11,.11,.11,.23,.22,.34,.34-.03,.14-.13,.22-.25,.28Z"/>
      <path class="cls-11" d="M21.49,7.32s.03-.05,.06-.09c-.07-.08-.13-.16-.2-.24-.03-.04-.05-.08-.08-.12,.18,.04,.37,.08,.55,.13,.03,0,.06,.04,.08,.07,.1,.13,.19,.26,.28,.39,0,0-.02,.02-.02,.03-.21-.13-.43-.17-.67-.16Z"/>
      <path class="cls-23" d="M29.48,27.23s.07,0,.09,.03c.23,.22,.51,.27,.82,.25-.01,.25-.12,.33-.35,.32-.14,0-.22-.06-.28-.18-.08-.14-.18-.28-.27-.41Z"/>
      <path class="cls-25" d="M27.87,29.16s-.04,.02-.05,.03c-.05,.08-.12,.09-.2,.06-.1-.03-.2-.06-.3-.09,.04-.12,.06-.24,.11-.35,.02-.06,.04-.11-.01-.16-.04-.04-.04-.09,.02-.12,.04,.04,.07,.07,.11,.11,.01,.02,.02,.03,.04,.05,.12,.14,.26,.28,.3,.47Z"/>
      <path class="cls-29" d="M18.83,11.4c-.21-.02-.4,.02-.57,.14-.02,.01-.05,.02-.08,.03,.12-.18,.24-.36,.36-.53,.02,0,.05,.02,.07,.02,.14-.01,.28-.03,.41,.05-.06,.1-.12,.2-.18,.3Z"/>
      <path class="cls-29" d="M20.97,14.25c-.24,.15-.48,.29-.72,.44,0,.01,0,0,0,0-.07-.24-.11-.17,.09-.36,.12-.1,.25-.18,.38-.27,.04,.02,.09,.04,.13,.06,.05,.04,.08,.08,.12,.13Z"/>
      <path class="cls-5" d="M9.78,22.48s-.02,.02-.02,.03c-.21-.04-.34-.2-.46-.36,0-.01,0-.03-.02-.04-.15-.07-.23-.21-.33-.34-.13-.16-.25-.32-.37-.48-.04-.05-.07-.12-.1-.18-.03-.06-.07-.12,.03-.15,.12,.19,.23,.39,.36,.57,.2,.26,.4,.51,.66,.71,.09,.07,.16,.16,.24,.24Z"/>
      <path class="cls-16" d="M20.97,14.25s-.08-.09-.12-.13c-.04-.03-.08-.04-.13-.06,.2-.13,.4-.21,.65-.15,.12,.03,.25,.02,.39,.02-.28,.11-.53,.22-.79,.32Z"/>
      <path class="cls-23" d="M13.42,22c.19,.04,.37,.08,.56,.11,.08,.01,.17,0,.26,0,0,0,0,.02,.01,.03-.03,.03-.06,.06-.1,.08-.13,.06-.26,.15-.42,.09,.04-.09,0-.09-.07-.08-.17,.02-.32-.03-.45-.13,0,0-.02-.02-.04-.04,.09-.02,.17-.04,.25-.05Z"/>
      <path class="cls-11" d="M17.2,17.67c-.06,.04-.12,.08-.18,.11-.08,.05-.16,.1-.26,.05-.01-.05-.03-.1-.04-.15,.18-.09,.27-.26,.36-.43l.2,.17c-.02,.08-.05,.17-.07,.25Z"/>
      <path class="cls-23" d="M20.64,14.69c-.03,.1-.07,.19-.08,.29-.02,.14-.02,.28-.03,.42-.1,.03-.19,.05-.29,.08,.02-.17,.03-.3,.05-.44,0-.03,.02-.07,.04-.09,.1-.09,.21-.18,.31-.26Z"/>
      <path class="cls-16" d="M20.89,15.54s-.05,.04-.07,.06c-.1,.12-.23,.19-.39,.22-.13,.02-.25,.04-.41,.06,.06-.11,.1-.19,.15-.28,.23,.06,.43-.02,.62-.13,.03-.02,.07-.03,.1-.05,0,.04,0,.07,0,.11Z"/>
      <path class="cls-16" d="M18.76,15.3s.08,.02,.11,.04c.2,.16,.45,.23,.7,.25,.1,0,.21-.05,.31-.09,.03-.01,.06-.03,.1-.04-.07,.12-.13,.23-.21,.36-.39-.1-.73-.24-1.01-.53Z"/>
      <path class="cls-16" d="M19.01,11.1c-.13-.08-.27-.06-.41-.05-.02,0-.04-.01-.07-.02,.1-.11,.2-.22,.31-.32,.02-.02,.07-.03,.1-.01,.08,.04,.16,.08,.25,.14-.07,.1-.12,.18-.18,.27Z"/>
      <path class="cls-27" d="M27.54,5.32s-.02,.04-.03,.06c-.25-.23-.53-.4-.83-.54-.08-.04-.16-.08-.24-.12,.02-.05,.04-.1,.06-.14,.39,.19,.76,.42,1.05,.75Z"/>
      <path class="cls-11" d="M17.3,16.23c.16-.04,.22-.02,.28,.13,.05,.12,.09,.25,.13,.37l-.23,.26s-.02,0-.03-.01c0-.14,0-.28,.02-.42,.01-.15-.03-.19-.19-.15,0-.07,.01-.13,.02-.19Z"/>
      <path class="cls-9" d="M19.7,14.11c-.03,.06-.07,.12-.08,.19-.03,.16-.03,.32-.06,.47-.03,.14-.08,.28-.25,.33,.2-.36,.2-.75,.14-1.17,.1,.07,.18,.12,.25,.18Z"/>
      <path class="cls-23" d="M4.59,24.8c.08,.1,.16,.22,.25,.31,.08,.08,.18,.13,.27,.19-.03,.09-.06,.19-.09,.31-.28-.23-.38-.5-.43-.81Z"/>
      <path class="cls-11" d="M20.59,17.2c.12-.06,.22-.15,.25-.28,.17,.19,.17,.45-.03,.57-.07-.1-.15-.19-.22-.29Z"/>
      <path class="cls-23" d="M3.95,22.64s.05,.05,.05,.07c-.02,.23,.04,.43,.15,.63-.03,.05-.06,.1-.1,.17-.15-.29-.17-.58-.1-.87Z"/>
      <path class="cls-16" d="M18.26,13.78c-.04,.08-.08,.16-.13,.27,0-.31,.05-.58,.12-.84,.02-.09,.09-.07,.16-.05-.03,.08-.06,.15-.08,.23-.04,.13-.13,.25-.06,.39Z"/>
      <path class="cls-9" d="M18.26,13.78c-.07-.14,.02-.26,.06-.39,.02-.08,.06-.15,.08-.23l.17,.02c-.04,.09-.08,.18-.11,.27-.02,.04-.02,.1-.03,.14h0s-.02,.02-.03,.02c-.05,.05-.1,.11-.14,.16Z"/>
      <path class="cls-23" d="M17.28,17.42l-.2-.17c.06-.16,.11-.33,.16-.47,.02,.15,.05,.33,.07,.5,0,.04-.02,.09-.04,.14Z"/>
      <path class="cls-25" d="M28.27,24.07s-.06,.05-.09,0c-.07-.16-.13-.32-.2-.48-.01-.03-.02-.05-.04-.07-.06-.07-.05-.13,0-.2,.11,.25,.21,.51,.32,.76Z"/>
      <path class="cls-23" d="M19.94,11.4c.18,.07,.37,.05,.56,.05-.1,.18-.28,.22-.45,.08-.04-.04-.07-.09-.11-.13Z"/>
      <path class="cls-29" d="M20.89,15.54s0-.07,0-.11c.08-.04,.15-.08,.23-.12-.02,.16-.04,.32-.2,.42,0-.07,.08-.14-.02-.19Z"/>
      <path class="cls-14" d="M18.59,16.37l-.28,.11c.04-.07,.07-.15,.12-.24,.06,.05,.11,.09,.16,.13Z"/>
      <path class="cls-5" d="M18.65,22.69s0-.08,0-.12c.1-.02,.18-.01,.21,.1-.07,0-.15,.02-.22,.02Z"/>
      <path class="cls-13" d="M18.46,10.82s-.01-.08,0-.1c.04-.05,.09-.1,.13-.15,.03,0,.06,.01,.11,.02-.09,.08-.17,.15-.24,.22Z"/>
      <path class="cls-11" d="M6.52,24.77c-.12-.03-.21-.08-.24-.2,.06,.03,.13,.05,.18,.09,.03,.02,.04,.07,.06,.11Z"/>
      <path class="cls-25" d="M27.88,23.18s-.05,.01-.07,.02c0-.04,.02-.08,.02-.11,.02,.03,.03,.07,.05,.1Z"/>
      <path class="cls-13" d="M18.37,10.54s-.03,.06-.04,.08l-.04-.11s.05,.02,.08,.02Z"/>
      <path class="cls-8" d="M12.88,18.31s0-.07,.01-.08c.08-.01,.07,.04,.06,.09-.02,0-.05-.01-.07-.02Z"/>
      <path class="cls-8" d="M13.07,18.33s.03-.05,.05-.08c0,.03,.02,.06,.03,.09-.03,0-.05-.01-.08-.02Z"/>
      <path class="cls-25" d="M27.49,28.22c.09-.05,.08,.01,.08,.07-.03-.02-.05-.04-.08-.07Z"/>
      <path class="cls-25" d="M28.37,24.41c-.07-.01-.08-.04-.02-.09,0,.03,.01,.06,.02,.09Z"/>
      <path class="cls-8" d="M13.84,18.53s0-.05,.01-.07c.01,0,.02,0,.03,.01,0,.02-.02,.04-.03,.07h-.01s0,0,0,0Z"/>
      <path class="cls-29" d="M20.77,15.9s-.06,.04-.08,.06c.03-.02,.06-.04,.08-.06Z"/>
      <path class="cls-28" d="M11.96,11.04s.05,.08,0,.12c0-.04,0-.08,0-.12Z"/>
      <path class="cls-29" d="M20.91,15.74s-.04,.06-.06,.08c.02-.03,.04-.06,.06-.08Z"/>
      <path class="cls-8" d="M23.78,10.07l.09,.02-.09-.02Z"/>
      <path class="cls-11" d="M22.19,7.44s.01,.03,.02,.04c-.01,0-.03-.01-.04-.02,0,0,.02-.02,.02-.03Z"/>
      <path class="cls-1" d="M27.15,21.84s-.03-.05-.04-.07c.01,.02,.03,.05,.04,.07Z"/>
      <path class="cls-16" d="M23.43,13.55s.04,0,.06,0c-.02,0-.04,0-.06,0Z"/>
      <path class="cls-1" d="M27.39,22.29s-.03-.05-.04-.07c.01,.02,.03,.05,.04,.07Z"/>
      <path class="cls-1" d="M27.5,22.48s-.03-.05-.04-.07c.01,.02,.03,.05,.04,.07Z"/>
      <path class="cls-1" d="M22.46,10.49s.02-.04,.04-.06c-.01,.02-.02,.04-.04,.06Z"/>
      <path class="cls-11" d="M27.58,28.69s-.02-.03-.04-.05c.01,.02,.02,.03,.04,.05Z"/>
      <path class="cls-25" d="M16.88,14.66s.02,.02,.02,.03c0-.01-.02-.02-.02-.03Z"/>
      <path class="cls-1" d="M26.23,20.33s-.03-.04-.04-.06c.01,.02,.03,.04,.04,.06Z"/>
      <path class="cls-11" d="M22.31,8.29s-.03-.01-.04-.02c0,0,0-.01,0-.02,.02,0,.04,0,.06,.01l-.03,.02Z"/>
      <path class="cls-21" d="M21.71,11.32s.01,0,.02-.01c0,0,0,.01,0,.02h0Z"/>
      <path class="cls-26" d="M18.4,13.61s.02-.02,.03-.03c0,0-.02,.02-.03,.03Z"/>
      <path class="cls-29" d="M20.86,15.82s-.02,.02-.03,.03c0,0,.02-.02,.03-.03Z"/>
      <path class="cls-14" d="M19.01,7.23s0,0-.01,.01c0,0,0,0,.01-.01h0Z"/>
      <path class="cls-29" d="M20.83,15.85s-.02,.02-.03,.03c0,0,.02-.02,.03-.03Z"/>
      <path class="cls-11" d="M22.34,8.27s.02,.01,.03,.02c0,.01-.02,.02-.02,.03,0,0-.02-.02-.03-.03l.03-.02Z"/>
      <path class="cls-22" d="M13.08,23.38s.02,0,.03,0c0,0-.01,0-.02,.01,0,0-.01,0-.01-.01Z"/>
      <path class="cls-14" d="M21.52,6.71s0,0,.01,.01c0,0,0,0,0,0,0,0,0,0,0-.01h0Z"/>
      <path class="cls-29" d="M20.8,15.87s-.02,.02-.03,.03c0,0,.02-.02,.03-.03Z"/>
      <path class="cls-5" d="M6.12,20.92s.01-.03,.02-.05c0,.02-.01,.03-.02,.05Z"/>
      <path class="cls-1" d="M26.44,27.53s-.07,.02-.11,.03c.02-.03,.04-.05,.06-.08,.02,.02,.03,.03,.05,.05Z"/>
      <path class="cls-6" d="M24.29,7.23s-.02-.04-.03-.05c-.02-.02-.04-.04-.06-.06h0s-.02-.05-.03-.08c-.16-.21-.33-.42-.49-.61,.45,0,1.34,.23,1.79,.92,.04,.11,.08,.21,.12,.32,.05,.17,.03,.33-.1,.45-.13,.12-.29,.1-.44,.06-.25-.07-.41-.24-.52-.47-.07-.16-.16-.32-.24-.47Z"/>
      <path class="cls-6" d="M26.44,4.72c.08,.04,.16,.08,.24,.12,.31,.14,.59,.32,.83,.54,.13,.18,.28,.36,.32,.58,.05,.26-.02,.5-.35,.54-.08,0-.16-.01-.24-.02-.22-.1-.37-.27-.5-.47-.03-.21-.15-.38-.28-.55-.2-.28-.44-.54-.7-.77-.08-.07-.15-.15-.22-.25,.11,.03,.22,.06,.33,.1,.19,.06,.37,.12,.56,.18Z"/>
      <path class="cls-10" d="M24.17,7.04s.02,.05,.03,.08c-.06,0-.08-.03-.03-.08Z"/>
      <path class="cls-10" d="M24.2,7.12s.04,.04,.06,.06c-.02-.02-.04-.04-.06-.06Z"/>
      <path class="cls-4" d="M24.89,12.86c-.14,.02-.29,.07-.43,.07-.14,0-.28-.03-.41-.06-.29-.07-.51-.25-.69-.47-.16-.2-.24-.44-.27-.69-.04-.3,.08-.56,.21-.81,.03-.06,.03-.1,.02-.15,.41-.03,.76,.11,1.04,.39,.48,.48,.62,1.07,.53,1.73Z"/>
      <path class="cls-20" d="M24.89,12.86c.08-.66-.05-1.25-.53-1.73-.28-.28-.63-.43-1.04-.39-.18,0-.36,.02-.54,.03,0-.01-.01-.03-.02-.04,.04-.04,.08-.08,.13-.11,.35-.22,.72-.19,1.1-.09,.04,.01,.09,.03,.13,.04,.31,.16,.56,.4,.75,.69,.18,.28,.28,.58,.33,.9,.01,.09,.02,.19,.03,.29,0,.37-.06,.73-.3,1.04-.06,.07-.13,.14-.21,.19,.06-.27,.12-.54,.18-.81Z"/>
      <path class="cls-11" d="M18.26,20.04c.22,.15,.46,.23,.73,.19,.09-.01,.2-.06,.27-.13,.1-.09,.18-.21,.27-.33,.07-.08,.12-.17,.2-.24,.04-.04,.11-.05,.17-.08,.06,.11,.13,.21,.04,.34-.02-.02-.04-.04-.07-.06-.02,.03-.04,.05-.05,.08-.07,.17-.11,.34-.2,.5-.18,.31-.51,.44-.85,.37-.35-.07-.58-.29-.76-.59-.03-.05-.05-.09-.08-.13h-.03s0,.09,0,.13c.03,.2,.15,.36,.26,.52-.07-.04-.15-.07-.2-.13-.13-.18-.26-.38-.37-.57-.07-.13-.08-.27,0-.41,.04-.09,.11-.09,.16-.03,.09,.09,.16,.19,.24,.28,.09,.1,.18,.19,.27,.29Z"/>
      <path class="cls-3" d="M18.16,20.62c-.12-.16-.23-.32-.26-.52,0-.04,0-.08,0-.12h.03s.05,.08,.08,.13c.17,.3,.41,.52,.76,.59,.34,.07,.67-.06,.85-.37,.09-.15,.13-.33,.2-.5,.01-.03,.04-.06,.05-.08,.02,.02,.04,.04,.07,.06,.11,.58-.33,.97-.73,1.1-.05,.02-.1,.03-.15,.04-.35,.05-.64-.09-.89-.32Z"/>
      <path class="cls-6" d="M24.39,3.09c-.11-.05-.22-.1-.36-.16,.26-.01,.49-.02,.72-.03,.4,0,.81,.01,1.2,.11,.22,.06,.41,.15,.57,.32,.19,.19,.13,.42-.11,.53-.32,.13-.64,.07-.88-.17-.22-.22-.48-.35-.77-.46-.12-.04-.24-.09-.36-.13Z"/>
      <path class="cls-3" d="M20.79,10.15c-.04-.26,0-.51,.13-.74,.04-.03,.07-.08,.12-.09,.05,0,.11,0,.15,.03,.02,.01,.03,.08,.02,.11-.05,.18-.01,.27,.13,.34-.01,.22-.05,.43-.2,.61-.02,.01-.05,.03-.07,.03-.1,.03-.15-.01-.14-.12,0-.1-.02-.16-.12-.17Z"/>
      <path class="cls-11" d="M19.03,14.87c-.16-.11-.13-.25-.13-.38,0-.09,0-.18,0-.27,0-.07,0-.14,.07-.16,.04,0,.11,.05,.12,.1,.03,.08,.03,.18,.03,.26,0,.1-.02,.19-.03,.28,0,.05-.03,.09-.06,.16Z"/>
      <path class="cls-11" d="M19.67,15.06c.05-.14,.09-.25,.12-.37,.04,.19,.01,.27-.12,.37Z"/>
      <path class="cls-6" d="M20,17.15c.16,.18,.29,.38,.34,.63,.03,.16,0,.29-.09,.42-.23,.12-.48-.05-.5-.35,0-.06-.02-.12-.02-.17,0-.17-.01-.34-.08-.5-.03-.09-.05-.19-.09-.31,.18,.07,.31,.19,.45,.29Z"/>
      <path class="cls-6" d="M18.87,17.42c.02,.1,.03,.21,.06,.31,.09,.28-.03,.45-.32,.44-.01,0-.03,0-.04,0-.2-.12-.22-.31-.19-.51,.03-.21,.28-.52,.49-.61v.37Z"/>
      <path class="cls-21" d="M17.85,14.69s.02,.04,.03,.06c0-.02-.02-.04-.03-.06Z"/>
      <path class="cls-21" d="M17.82,14.63s.02,.04,.03,.06c0-.02-.02-.04-.03-.06Z"/>
    </g>
  </g>
</svg>