<?xml version="1.0" encoding="UTF-8"?>
<svg id="Capa_2" data-name="Capa 2" xmlns="http://www.w3.org/2000/svg" xmlns:xlink="http://www.w3.org/1999/xlink" viewBox="0 0 192 108">
  <defs>
    <style>
      .cls-1 {
        fill: #faf6ed;
      }

      .cls-2 {
        fill: #2e1c15;
      }

      .cls-3 {
        fill: #fdbf31;
      }

      .cls-4 {
        fill: #f8f3e8;
      }

      .cls-5 {
        fill: #f36c58;
      }

      .cls-6 {
        fill: #9e1c21;
      }

      .cls-7 {
        fill: #fcf9f4;
      }

      .cls-8 {
        fill: #c15962;
      }

      .cls-9 {
        fill: #d92026;
      }

      .cls-10 {
        fill: #d9ccbd;
      }

      .cls-11 {
        fill: #e12729;
      }

      .cls-12 {
        fill: #f9f5ec;
      }

      .cls-13 {
        opacity: .07;
      }

      .cls-14 {
        fill: #78111c;
      }

      .cls-15 {
        fill: #e83639;
      }

      .cls-16 {
        fill: #ae4d25;
      }

      .cls-17 {
        fill: #fbb729;
      }

      .cls-18 {
        fill: #fbe891;
      }

      .cls-19 {
        fill: #f8a31c;
      }

      .cls-20 {
        fill: #b59f91;
      }

      .cls-21 {
        fill: #fdfdfc;
      }

      .cls-22 {
        fill: #f7f2e6;
      }

      .cls-23 {
        clip-path: url(#clippath);
      }

      .cls-24 {
        fill: none;
      }

      .cls-25 {
        fill: #ec9d95;
      }

      .cls-26 {
        fill: #e42d2f;
      }

      .cls-27 {
        fill: #fcfbf8;
      }

      .cls-28 {
        fill: #ce6e29;
      }
    </style>
    <clipPath id="clippath">
      <rect class="cls-24" width="192" height="108"/>
    </clipPath>
  </defs>
  <g id="Capa_1-2" data-name="Capa 1">
    <g class="cls-13">
      <g class="cls-23">
        <g>
          <path class="cls-2" d="M86.26,7.27c.76,.14,1.52,.26,2.27,.42,2.91,.62,5.63,1.63,7.72,3.86,2.2,2.34,3.54,5.07,3.39,8.34-.04,.85,.18,1.44,.69,2.09,1.53,1.98,2.47,4.2,2.39,6.77-.06,1.93-.62,3.73-1.66,5.35-1.89,2.93-4.46,4.94-7.95,5.61-1.15,.22-2.02,.09-3.55-.45-1.38,2.33-3.43,3.5-6.11,3.46,.2,1.33,.38,2.65,.6,3.96,.03,.17,.19,.36,.33,.47,5.36,3.91,5.62,11.71,2.78,15.99-.62,.94-1.39,1.77-2.06,2.68-.18,.24-.34,.54-.37,.82-.13,1.09-.37,2.13-.96,3.07-1.01,1.6-2.25,1.87-3.84,.82-.05-.04-.12-.06-.21-.1-.22,.51-.39,1.04-.66,1.5-.39,.65-.78,1.32-1.31,1.84-1.33,1.3-2.7,1.1-3.77-.51-.19,.34-.36,.66-.54,.97-.4,.69-.89,1.29-1.6,1.68-1.2,.66-2.28,.34-2.89-.88-.19-.39-.31-.81-.46-1.22-.07,.02-.13,.04-.2,.06-1.22,.3-2.23,.86-2.84,2.04-.15,.29-.47,.51-.73,.73-.26,.22-.54,.42-.78,.6,.57,.59,1.12,1.18,1.69,1.76,.07,.07,.21,.12,.3,.09,1.72-.42,3.34,.06,4.96,.53,9.57,2.8,17.09,8.37,22.43,16.82,3.12,4.93,5.93,10.03,8.51,15.26,.13,.26,.34,.48,.55,.68,3.26,2.99,6.2,6.26,8.62,9.96,1.5,2.3,2.53,4.8,2.96,7.53,0,.05,.08,.1,.11,.15v2.63c-.17,.44-.33,.88-.51,1.32-.44,1.02-1.26,1.41-2.32,1.41-.27,0-.53-.05-.85-.08,.52,1.43,.73,2.83,.66,4.27-.16,2.98-2.09,5.59-5.11,5.99-.06,0-.11,.07-.16,.11h-2.49c-.06-.05-.12-.14-.19-.16-.93-.24-1.75-.67-2.38-1.4-1.18,.82-2.15,1.03-3.56,.79-2.6-.43-4.87-1.62-7.11-2.93-1.27-.74-2.37-1.67-3.2-2.9-.11-.16-.39-.29-.6-.3-2.05-.07-4.1-.05-6.15-.19-2.9-.2-5.79-.45-8.67-.78-3.43-.39-6.85-.91-10.28-1.34-1.2-.15-2.4-.45-3.61-.03-.36,.13-.77,.17-1.16,.19-1.15,.07-2.3,.14-3.45,.12-.33,0-.53,0-.77,.24-2.68,2.68-5.76,4.82-9.18,6.43-5.13,2.43-10.25,2.25-15.34-.16-1.52-.72-2.67-1.79-3.03-3.45-1.09,.05-2.15,.2-3.2,.12-3.87-.3-7.2-1.87-10-4.52-.65-.62-1.21-1.41-1.61-2.21-.7-1.42-.32-2.75,.91-3.76,.07-.06,.14-.12,.21-.19-.07-.18-.14-.34-.2-.52-.74-2.1-.15-3.83,1.75-5,.68-.42,1.42-.76,2.15-1.09,1.5-.69,2.88-1.56,4.11-2.64,2.73-2.4,4.89-5.31,7.19-8.09,.03-.02,.06-.05,.1-.07-.06,0-.11,0-.17,0-2.05,.12-4.1,.74-6.1-.13-.32,.42-.58,.8-.86,1.16-1.78,2.19-4.11,3.59-6.71,4.58-4.83,1.83-9.85,2.24-14.96,1.86-.86-.06-1.72-.21-2.57-.32,.17,.57,.37,1.11,.48,1.67,.31,1.57-.27,3-1.44,3.68-1.3,.75-2.81,.63-4.04-.44-.62-.54-1.11-1.22-1.64-1.86-.19-.22-.32-.48-.41-.62-.38,.85-.68,1.76-1.18,2.56-.5,.81-.93,.82-1.75,.32-1.21-.74-1.95-1.86-2.31-3.17-.4-1.46-.65-2.96-.88-4.46-.14-.93-.13-1.89-.18-2.86-1.09,.41-1.59,.23-2.11-.79-.21-.43-.34-.9-.51-1.35-.08-.2-.17-.4-.26-.6,0-.97,0-1.94,0-2.91,.08-.25,.17-.49,.25-.74,.81-2.47,1.56-4.96,2.44-7.4,.43-1.22,1.17-2.29,2.09-3.23,.14-.14,.23-.34,.31-.52,.63-1.56,1.18-3.15,1.89-4.67,.61-1.31,1.32-2.59,2.14-3.77,3.59-5.12,7.47-10.02,12.04-14.33,3.17-2.99,6.72-5.45,10.69-7.29,.25-.11,.48-.35,.62-.59,.74-1.24,1.62-2.39,2.8-3.21,1.24-.86,2.05-2.01,2.53-3.36,.77-2.14,1.45-4.32,2.07-6.51,.47-1.66,.46-3.38,.12-5.07-.21-1.01-.48-2.01-.75-3.01-.34-1.27-.67-2.54-.61-3.88,.02-.43,.07-.88,.19-1.3,.5-1.89,2.05-2.93,4.01-2.73,1.69,.17,3.23,.78,4.65,1.64,4.78,2.89,7.75,7.13,9.11,12.51,.31,1.22,.41,2.5,.6,3.75,.03,.2,.05,.4,.09,.7,.87-.04,1.72-.06,2.56-.12,.35-.02,.56-.2,.6-.61,.05-.5,.2-.99,.32-1.53-.22-.06-.48-.13-.73-.21-1.18-.41-1.87-1.55-1.51-2.74,.24-.79,.7-1.54,1.15-2.25,.33-.52,.79-.96,1.19-1.43-.96-.92-1.15-1.65-.46-2.83,2.13-3.64,5.21-5.77,9.55-5.75,.3,0,.45-.08,.59-.33,1.24-2.16,2.98-3.86,5-5.28,.49-.35,.73-.71,.79-1.32,.48-4.28,2.3-7.96,5.05-11.24,4.63-5.52,10.28-9.46,17.31-11.29,1.36-.35,2.76-.53,4.14-.79,.15-.03,.29-.09,.43-.14,1.52,0,3.04,0,4.57,0Zm-21.73,66.97s-.1,.1-.15,.15c0,0,0,0,0,0-.14,.09-.28,.19-.42,.28v-.02c-.53,.15-1.05,.4-1.58,.44-.95,.08-1.91,.03-2.86,.04-.84-.22-1.73-.34-2.52-.68-4.02-1.74-6.52-4.68-7.01-9.14,.05-2.9,.84-5.62,2.02-8.23,.8-1.77,1.73-3.49,2.61-5.23,.31-.5,.62-1.01,.92-1.51,.29-.43,.58-.86,.91-1.35-.47-.26-.85-.5-1.26-.68-.13-.06-.39-.03-.49,.07-.53,.52-1.03,1.08-1.54,1.62-.59,.89-1.19,1.79-1.78,2.68-.14,.24-.32,.46-.41,.71-.75,2-1.55,3.98-2.2,6.02-.56,1.76-.8,3.59-.69,5.45,.14,1.11,.28,2.21,.41,3.32,.02,.14,.02,.28,.05,.41,1.01,3.9,3.52,6.44,7.19,7.89,2.26,.89,4.57,1.2,6.93,.29,2.1-.81,3.81-3.31,3.72-5.48-.1,.07-.2,.13-.29,.19-.38,.19-.75,.39-1.13,.58-.16,.08-.33,.15-.49,.23-.97,.51-1.95,.93-3.11,.63-.23,.43-.45,.83-.75,1.38,.79-.11,1.42-.18,2.05-.29,.77-.13,1.43-.48,1.93-1.1,.1-.12,.24-.2,.37-.3,.53,.26,.13,.64,.12,.97,0,0,0,0,0,0-.09,.14-.19,.28-.28,.42h0s-.1,.09-.15,.14h0s-.1,.09-.15,.14h0Zm7.57-38.01s.09,.09,.14,.14c.52,.74,1.04,1.47,1.56,2.22,.06-.31,.05-.66,.2-.93,.5-.96,.17-1.71-.43-2.49-.59-.76-.95-1.67-1.9-2.16-1.14-.58-2.26-1.01-3.55-.77-1.74,.14-3.23,.89-4.49,2.05-.86,.79-1.62,1.69-2.42,2.54-.16,.17-.33,.33-.49,.5-.05-.03-.1-.07-.15-.1,.04-.13,.04-.28,.11-.39,.29-.46,.56-.93,.89-1.34,1.69-2.09,3.72-3.64,6.44-4.15,1.2-.05,2.34,.12,3.37,.78,.07,.03,.13,.05,.2,.08-.03-.07-.05-.14-.08-.22-.47-.65-.94-1.3-1.42-1.94-.11-.14-.26-.3-.42-.34-.91-.23-1.83-.42-2.74-.63-.22-.04-.45-.11-.67-.12-4.03-.21-7.58,1.09-10.8,3.43-2.19,1.48-4.05,3.28-5.51,5.46,.26,.16,.46,.28,.66,.4-.01,.07-.02,.13-.03,.2-.22,.03-.44,.08-.67,.09-.78,0-1.57-.05-2.34,.02-.48,.04-.94,.27-1.41,.41-.5,.12-1.03,.19-1.5,.38-1.88,.77-3.33,2.08-4.48,3.75-.2,.35-.46,.68-.6,1.06-.22,.61-.02,1,.58,1.29,.72,.35,.73,.52,.21,1.16-.72,.89-1.5,1.76-2.08,2.74-.89,1.5-.24,2.52,1.5,2.5,.88-.01,1.03,.23,.63,1.01-.67,1.3-.7,2.66-.24,4.02,.31,.92,.74,1.08,1.65,.75,.24-.09,.48-.17,.73-.25,.04,.05,.08,.1,.12,.16-.19,.28-.38,.57-.59,.88,.11,.25,.21,.53,.35,.8,.28,.56,.57,1.1,.85,1.66,.11,.22,.3,.48-.15,.56-.58-.9-1.16-1.81-1.75-2.72-1.87,.09-2.17-1.37-2.5-2.59h-3.01c-.09,1.32-.18,2.52-.26,3.71-.22,.52-.45,1.03-.68,1.58,.11,.05,.21,.09,.31,.13,3.82,1.35,7.2,3.35,9.68,6.64,.04,.05,.08,.11,.12,.16h0c.85,1.32,1.54,2.73,1.77,4.29,.16,1.13,.16,2.28,.22,3.42-.02,.31-.05,.62-.08,.96,.8-.23,1.02-.02,.95,.74-.07,.69-.08,1.39-.11,2.09,.05,.02,.11,.04,.16,.06,.38-.44,.76-.88,1.14-1.32,1.07-.87,2.27-1.63,2.85-3-1.77-1.39-3.01-3.11-3.94-5.06-.16-.73-.43-1.4-.98-1.93-.4-.56-.81-1.11-1.18-1.68-.37-.56-.69-1.14-.56-1.86,.19,.11,.44,.17,.57,.33,.42,.5,.8,1.03,1.26,1.64-.04-.82-.08-1.49-.11-2.17,.12-1.24,.16-2.49,.37-3.71,.72-4.01,2.16-7.75,4.53-11.09,.31-.37,.62-.74,.93-1.11,.38-.35,.76-.71,1.21-1.12-.23-.05-.38-.08-.53-.11-.37-.06-.74-.11-1.11-.17-.14-.04-.27-.08-.41-.12h0c-.08-.42,.24-.38,.48-.41,1.08-.16,2.11,0,3.08,.49,.78,.4,1.53,.84,2.28,1.28,.77,.45,1.34,1.1,1.74,1.91,.2,.41,.46,.79,.69,1.18,.18,.23,.34,.49,.56,.67,.85,.67,1.71,.5,2.23-.41,.14-.55,.28-1.11,.42-1.66,.15-.66,.02-1.3-.32-1.86-1.63-2.65-3.88-4.39-7.05-4.78-.17-.02-.33-.07-.49-.1,.01-.07,.03-.15,.04-.22,1.37-.22,2.63,.31,3.85,.75,.18-1.02,.36-2.01,.54-3,.43-.81,.77-1.68,1.31-2.41,1.74-2.39,4.05-3.96,6.97-4.59,2.1,.06,4.14,1.02,4.68,2.32-.26-.15-.43-.24-.59-.33-.04-.03-.08-.07-.13-.1-.11-.02-.21-.04-.32-.06,0,.03-.02,.06-.02,.09,.07,.03,.14,.06,.21,.09Zm-19.46,26.53v.02c.22-.05,.45-.11,.68-.16,.19,.25,.08,.4-.14,.56-.69,.49-1.07,1.21-1.25,2.01-.14,.63-.21,1.27-.28,1.91-.03,.24-.02,.51,.07,.73,.6,1.37,1.4,2.59,2.59,3.53,1.38,1.43,3.12,2.14,5.05,2.64,.36-.63,.7-1.22,1.03-1.8,.44-.79,.52-1.64,.45-2.52,.03-1.71-.53-3.16-1.84-4.29-.38-.27-.77-.54-1.26-.9,.31,2.13,.32,4.07-.7,5.88-.14,.09-.28,.18-.41,.27-.04-.03-.08-.05-.12-.08,.03-.19,.07-.38,.1-.58,.13-.93,.33-1.86,.37-2.79,.07-1.78-.26-3.48-1.3-4.98-.57-.82-1.28-1.44-2.34-1.5l-.84-.08c-.32-.07-.66-.18-.78,.27-.35,1.33-.6,2.67-.6,4.21,.27-.56,.46-.96,.66-1.37,.24-.28,.48-.55,.72-.83,.05-.05,.1-.09,.14-.14Zm-6.76,18.41c-.44,.84-.91,1.67-1.79,2.14,.08,.29,.14,.52,.2,.76-.01,1.08,.08,2.17-.05,3.23-.27,2.19-1.46,3.93-2.95,5.49-.88,.8-1.74,1.64-3.05,1.74,.12,.34,.23,.62,.33,.89,.09,1.02,.23,2.05,.24,3.07,0,.77-.18,1.54-.27,2.32-.64,1.69-1.28,3.37-1.88,4.96,1.28,.27,2.68,.5,4.05,.86,2.07,.54,4.11,1.18,6.17,1.72,.61,.16,1.27,.12,1.9,.17l4.56-.1c.14,0,.28-.01,.41-.02,.37-.04,.74-.08,1.11-.12,2.21-.33,4.42-.66,6.63-1,.56-.08,1.13-.17,1.69-.25,1.52-.23,3.03-.45,4.55-.68h1.04c.63-2.75,1.22-5.42,.75-8.21-1.34,.08-2.41-.46-3.46-1.04-.22-.16-.43-.32-.65-.49-.57-.58-1.15-1.16-1.72-1.74,.1-.53,.35-.23,.58-.11,1.03,.56,2.03,1.16,3.08,1.66,.75,.35,1.59,.46,2.43,.27,.91-.2,1.43-.76,1.38-1.7-.03-.6-.25-1.2-.39-1.79-.32-1.15-.97-2.13-1.69-3.05-.82-1.05-1.69-2.06-2.51-3.11-.41-.53-.76-1.11-1.17-1.71,0,.33,0,.58,0,.83,.05,1.69-.53,3.11-1.78,4.24-.36,.32-.76,.59-1.14,.88-.23,.1-.47,.21-.7,.31-.6,.14-1.2,.28-1.79,.42-1.65-.1-3.31-.14-4.59-1.47-1,.51-2.07,.52-3.16,.47-.58-.15-1.14-.34-1.73-.43-.79-.13-1.41-.55-1.98-1.07-1.93-1.68-2.46-3.81-2.01-6.26,.12-.41,.24-.83,.36-1.24,.07-.23,.21-.47,.19-.7-.09-.87-.24-1.72-.36-2.5-.25,.73-.54,1.55-.82,2.37Zm19.48-15.1c1.3-.53,2.59-1.05,3.98-1.61-.72-.03-1.37,.03-1.95-.11-1.25-.31-2.28,.1-3.27,.77-.64,.44-1.33,.82-1.91,1.34-1.03,.92-.82,.6-.47,1.79,.02,.05,.07,.1,.03,.04,1.22-.75,2.41-1.48,3.6-2.21Zm33.11,72.37c-.06-.08-.12-.17-.18-.25-.19-.18-.37-.37-.56-.55-.43-.47-.86-.93-1.3-1.4-.52-.56-.57-.8-.23-1.3,.61,.38,1.22,.77,1.83,1.15,.13,.11,.25,.22,.38,.33,.09,.04,.19,.08,.28,.11,.55,.69,1.1,1.37,1.65,2.06,.31,.79,.63,1.58,.94,2.37v2.22c.76,.32,1.51,.66,2.28,.95,1.71,.65,4.18-.14,5.16-1.64,.14-.21,.31-.4,.41-.62,.67-1.51,.81-3.07,.46-4.68-.3-.86-.52-1.76-.92-2.58-.46-.93-1.05-1.82-1.65-2.67-.97-1.37-2.05-2.64-3.32-3.74-.56-.48-1.2-.87-1.8-1.31,0-.1,0-.2,0-.31,.26,0,.54-.05,.77,.03,1.36,.47,2.47,1.33,3.44,2.36,.65,.68,1.25,1.42,1.87,2.13,.45,.69,.96,1.35,1.34,2.07,.32,.62,.73,.88,1.43,.92,1.2,.07,1.73-.36,1.78-1.6,0-.92-.02-1.85-.03-2.77-.17-1.62-.74-3.12-1.45-4.57-1.93-3.93-4.7-7.23-7.73-10.35-.07-.07-.18-.11-.36-.23,.19,.79,.39,1.47,.5,2.16,.15,.91,.23,1.82,.31,2.74,.01,.13-.15,.28-.24,.42-.1-.11-.24-.2-.29-.32-.1-.27-.15-.56-.24-.83-.12-.36-.27-.7-.41-1.06-.05-.23-.1-.46-.14-.69-.04-.14-.07-.29-.11-.43-.14-.43-.29-.85-.43-1.28-.53-1.27-1.07-2.53-1.6-3.8-.11-.22-.21-.44-.32-.67-.08-.17-.16-.33-.24-.5-.55-1-1.1-2-1.65-3-.07-.12-.14-.23-.21-.35-.11-.21-.23-.42-.34-.63-.07-.12-.14-.23-.21-.35-.35-.62-.69-1.24-1.04-1.86-.07-.12-.14-.23-.21-.35-.24-.44-.45-.9-.71-1.33-1.21-1.98-2.44-3.95-3.66-5.93-.07-.1-.14-.2-.21-.3-1.14-1.48-2.29-2.96-3.43-4.43-.14-.18-.28-.36-.43-.53-4.16-4.62-9.32-7.71-15.1-9.83-.58-.21-1.19-.35-1.78-.52-1.45-.48-2.94-.64-4.52-.57,.2,1.1-.28,1.89-.95,2.62,.4,.57,.79,1.11,1.17,1.65,.65,.92,1.26,1.86,1.95,2.74,.67,.87,1.43,1.68,2.11,2.55,.8,1.02,1.47,2.12,1.81,3.38,.38,1.38,.43,2.73-.63,3.88-.36,.24-.71,.47-1.08,.71,.05,.51,.13,1.01,.14,1.5,.02,1.12,.01,2.23,.01,3.35-.18,1.15-.36,2.29-.54,3.4,1.44,.12,2.84,.25,4.24,.34,.18,.01,.38-.17,.57-.26,1.6-.83,4.2-.42,5.47,.86,.06,.06,.07,.16,.1,.25-.11,.03-.22,.06-.33,.09-1.29-.58-2.6-1.08-4.05-.61,1.81,.53,3.51,1.3,5.01,2.45,.18,.14,.3,.37,.44,.56-.25-.06-.52-.08-.74-.2-.99-.53-1.98-1.03-3.11-1.19-.17-.1-.32-.25-.5-.29-1.22-.24-2.43-.54-3.67-.66-3.38-.35-6.71,.21-10.04,.74-3.05,.49-6.1,.94-9.15,1.39-.67,.1-1.36,.09-2.04,.13,1.23,.47,2.46,.82,3.69,1.2,2.47,.76,4.9,1.6,7.12,2.96,.26,.16,.53,.3,.74,.5,.1,.1,.09,.32,.12,.48-.14,.03-.3,.1-.43,.07-.22-.04-.44-.13-.66-.21-2.28-.81-4.52-1.74-6.84-2.41-5.11-1.47-10.26-2.81-15.39-4.19-1.61-.43-3.24-.74-4.91-.63-.33,.02-.73,.18-.95,.42-1.59,1.72-3.5,2.83-5.79,3.28-.5,.1-.89,.31-1.22,.7-1.43,1.69-2.91,3.34-4.3,5.06-2.4,2.97-5.05,5.62-8.58,7.23-.68,.37-1.37,.74-2.05,1.11-1.03,.69-1.39,1.96-.85,2.93,.16,.29,.33,.44,.71,.35,.55-.13,1.13-.17,1.7-.24,.75-.09,1.49-.16,2.24-.24,1.53,.06,2.91-.47,4.18-1.22,2.23-1.32,4.43-2.71,6.61-4.11,.96-.62,1.84-1.37,2.78-2.04,.14-.1,.39-.07,.59-.1-.03,.18,0,.41-.11,.54-.37,.52-.78,1.02-1.17,1.52-2.65,2.6-5.82,4.42-9.15,5.96-1.03,.47-2.17,.75-3.29,.98-1.33,.27-2.69,.37-4.03,.55-.33,.09-.65,.17-.98,.26-1.17,.48-1.41,1.14-.81,2.2,.17,.3,.35,.61,.59,.84,.7,.69,1.39,1.42,2.17,2.01,2.76,2.09,5.85,3.13,9.35,2.73,.87-.1,1.54-.4,1.85-1.27,1.24-1.31,2.74-2.24,4.32-3.07,.96-.51,1.91-1.02,2.9-1.46,2.12-.95,3.85-2.32,5.11-4.29,.34-.54,.77-1.04,1.23-1.49,.44-.43,.95-.8,1.47-1.14,.18-.12,.47-.09,.71-.13-.07,.21-.09,.47-.22,.63-.58,.74-1.22,1.43-1.78,2.18-.39,.51-.69,1.08-1.02,1.64-.8,1.33-1.88,2.38-3.24,3.12-.95,.52-1.92,.99-2.86,1.51-1.24,.69-2.47,1.4-3.71,2.1-.46,.41-.93,.82-1.39,1.23-.98,1.12-.97,2.07,.12,3.05,.47,.42,1.03,.79,1.6,1.07,3.11,1.53,6.41,1.79,9.78,1.22,2.2-.37,4.25-1.17,6.12-2.4,3.23-1.81,6.15-4.02,8.53-6.9,.82-.99,1.71-1.93,2.55-2.9,.26-.29,.5-.4,.79-.06-.21,.46-.42,.92-.63,1.37-.17,.28-.34,.56-.52,.83-.5,.7-.99,1.41-1.49,2.11,.02,.05,.04,.1,.06,.15,.93-.07,1.86-.08,2.78-.22,2.73-.4,5.37-1.06,7.42-3.12,.09-.09,.35-.02,.53-.03-.25,.5-.43,1.07-.77,1.5-.42,.53-.99,.94-1.52,1.43,1.08,.18,2.16,.36,3.25,.53,5.64,.89,11.31,1.55,17.01,1.91,2.7,.17,5.38-.05,8.04-.49,.2,.07,.39,.13,.59,.2-.1,.16-.19,.32-.29,.48-.19,.13-.38,.25-.57,.38-.69,.24-1.37,.48-2.22,.78,.63,.54,1.13,1.08,1.73,1.48,1.85,1.26,3.83,2.29,5.97,2.98,.74,.24,1.51,.42,2.28,.53,1.1,.16,1.81-.35,1.98-1.31-.01-.51-.02-1.03-.03-1.54-.19-.98-.88-1.64-1.49-2.36Zm-35.02-57.58c.37,.48,.73,.96,1.1,1.44,.98-.62,.99-1.9,.15-2.87-.58-.58-1.17-1.15-1.71-1.7-.71,.19-1.33,.36-1.99,.53,.55,1.14,1.55,1.82,2.45,2.58Zm15.99-35.7l.47,.09c1.1,.32,2.2,.64,3.38,.99-.17-.96-.37-1.89-.51-2.84-.1-.66-.4-1.03-1.1-1-.64-.29-1.34-.51-1.92-.89-1.06-.71-2.05-1.52-3.08-2.28-.62-.71-1.24-1.41-1.92-2.17-.92,2.71-.1,5.33,.13,7.97,.06-1.06,0-2.12,.59-3.08h.71c-.65,1.24-.4,2.01,.57,2,.03,.47,.07,.95,.1,1.38,.87-.05,1.72-.1,2.56-.15h0ZM-11.84,118.95c.21,.48,.38,.98,.63,1.43,.57,1.04,1.31,1.94,2.32,2.58,1.21,.77,2.73,.01,2.71-1.24-.05-.42-.1-.83-.14-1.25-.23-.55-.46-1.11-.68-1.66-.1-.18-.16-.43-.31-.54-.27-.2-.6-.32-.91-.47-.17-.18-.35-.36-.52-.54,.02-.37,.24-.55,.59-.51,.73,.08,1.46,.13,2.17,.3,3.83,.93,7.69,.95,11.57,.35,.07,0,.14,.03,.2,.02,3.03-.42,5.95-1.21,8.65-2.7,1.65-.91,3.08-2.08,4.06-3.76-.84-.74-1.56-1.57-1.92-2.65-.38-1.15-.16-2.21,.6-3.22-.65-.18-1.22-.34-1.78-.5-2.21-.76-4.1-1.93-5.33-4.01,.29,0,.53,.08,.73,.22,5.07,3.26,10.63,4.09,16.49,3.2,1.18-.18,2.31-.73,3.47-1.09,.17-.05,.37-.03,.56-.05-.1,.18-.17,.38-.3,.53-.1,.12-.26,.2-.4,.26-1.01,.44-2.02,.87-3.03,1.3-.4,.09-.79,.17-1.24,.27,.1,.12,.13,.18,.18,.21,.67,.5,1.4,.78,2.25,.66,.34-.05,.58,0,.36,.43-.46,.1-.92,.19-1.38,.29-.86-.12-1.71-.33-2.25-1.05-.25-.33-.47-.32-.81-.31-1.56,.03-3.13,.09-4.69,0-.71-.04-1.19,.05-1.63,.62-.45,.59-.61,1.19-.32,1.87,.44,1.02,1.11,1.86,2.22,2.11,1.11,.25,2.28,.49,3.4,.43,2.51-.14,4.97-.68,7.36-1.48,1.58-.53,2.8-1.55,3.62-3.03,1.81-2.67,2.9-5.57,2.87-8.83-.02-1.63-.54-3.06-1.74-4.21-.85-.77-1.63-1.64-2.55-2.29-3.29-2.34-6.98-3.55-11.03-3.68-.22,0-.45-.06-.67-.1,0-.07,0-.15,0-.22,.32-.06,.63-.13,.95-.19,.79,0,1.58,0,2.37,.01,.12,.03,.24,.06,.36,.09,.19,.02,.39,.03,.58,.05,.13,.03,.26,.05,.39,.08,1.16,.3,2.32,.59,3.49,.89l.04,.04h.05c.4,.16,.79,.32,1.19,.49,.76,.39,1.52,.78,2.27,1.17,1.63,1.12,3.25,2.26,4.32,3.96,.9-.1,1.65-.43,2.28-.99,1.77-1.58,2.93-3.55,3.12-5.9,.3-3.66-1.64-6.32-4.29-8.57-.34-.28-.66-.61-1.04-.85-1.87-1.2-3.83-2.25-5.92-3.02-1.64-.61-3.32-.98-5.08-.86-.43,.03-.85,.11-1.29,.17,.05-.61,.17-.76,.86-.99,1.37-.45,2.76-.43,4.14-.08,3.6,.92,6.86,2.51,9.71,4.91,1.44,1.38,2.74,2.87,3.62,4.74,.42-.63,.82-1.22,1.08-1.87,1.15-2.81,1.07-5.67,.1-8.5-.76-2.22-2.15-3.99-4.11-5.3-1.24-.73-2.43-1.6-3.75-2.17-3.35-1.45-6.82-2.49-10.5-2.69-1.04-.06-2.07-.23-3.1-.27-1.62-.07-3.22,.15-4.79,.59-3.11,.83-5.42,2.65-6.85,5.56-.87,2.19-1.5,4.43-1.24,6.71,1.24-.19,2.36-.37,3.49-.54,.17,.31-.05,.4-.27,.49-.27,.07-.54,.12-.8,.21-3.23,1.23-5.56,3.46-7.1,6.52-.35,.7-.42,1.54-.62,2.31-.3,1.83,.7,3.29,1.35,4.76,.77-.24,1.51-.47,2.25-.71,.22,.3-.01,.48-.2,.62-.51,.39-1.02,.77-1.56,1.12-.95,.63-1.76,1.38-2.35,2.37-.65,.75-1.02,1.63-1.2,2.59-.42,2.21,.14,4.23,1.25,6.14,.11,.22,.18,.47,.32,.67,2.42,3.3,5.13,6.3,8.84,8.23,.35,.18,.68,.4,1.02,.61-.01,.07-.03,.14-.04,.22-.24,.08-.5,.24-.73,.21-.69-.09-1.38-.26-2.07-.4-.93-.64-1.85-1.28-2.78-1.92-.41-.4-.77-.85-1.22-1.19-1.33-.98-2.32-2.27-3.31-3.56-.69-.9-1.22-1.92-1.82-2.88-.1-.27-.2-.54-.31-.8-.48-1.1-.72-2.28-.77-3.46-.04-.8,.17-1.62,.33-2.42,.37-1.74,1.42-3.06,2.69-4.24,.25-.19,.5-.37,.76-.57-1.16-.93-1.32-2.27-1.73-3.56-1.16,1.04-2.25,2.02-3.35,3-1.5,1.44-3,2.87-4.49,4.32-.08,.08-.07,.25-.1,.38-.32,.33-.68,.63-.95,1-1.41,1.94-2.44,4.09-3.43,6.26-.09,.2-.28,.35-.43,.53-.5-.05-.14-.41-.21-.61,.03-.08,.06-.16,.09-.24-.01-.09-.02-.18-.03-.27,.28-.93,.57-1.87,.85-2.8,0-.02-.05-.06-.08-.09-.19,.04-.38,.09-.56,.13-.03-.04-.06-.08-.09-.12,.29-.48,.63-.92,1.13-1.23,.19-.12,.4-.23,.52-.41,.82-1.18,1.62-2.38,2.43-3.58,.65-.68,1.26-1.4,1.94-2.05,1.26-1.21,2.56-2.37,3.84-3.56,.58-.49,1.13-1.02,1.74-1.46,.7-.5,1.25-1.05,1.24-1.99,0-.2,.1-.4,.16-.6,.71-2.32,2.16-4.13,3.9-5.74,.53-.35,1.06-.71,1.58-1.05-1.1-2.22-.27-4.34,.25-6.59-2.5,1.37-4.79,2.81-6.81,4.64-1.48,1.35-3.04,2.62-4.42,4.07-1.76,1.85-3.36,3.85-5.04,5.78-.5,.65-1.01,1.3-1.51,1.95-1.06,1.38-2.1,2.77-3.18,4.14-1.04,1.31-1.78,2.77-2.39,4.31-.39,.98-.81,1.95-1.16,2.94-.55,1.56-1.06,3.13-1.59,4.69-.09,.26-.11,.64-.57,.51-.02-.51-.05-1.01-.07-1.52l-.14-.04c-.48,1.14-1.05,2.24-1.42,3.41-.56,1.77-.99,3.58-1.47,5.38-.34,1.46-.28,2.88,.49,4.36,.2-.34,.35-.59,.49-.84,.37-.82,.75-1.64,1.12-2.46,.67-.39,.91-.33,1.37,.32-.05,.25-.1,.49-.16,.74-.79,2.88-.65,5.77-.1,8.67,.22,1.54,.73,2.93,2.14,4.07,.19-.63,.33-1.1,.47-1.57,.09-.74,.17-1.48,.26-2.22,.03-.27,.05-.55,.08-.82,.05-.38,.06-.79,.48-.99,.59-.06,.95,.18,1.1,.77,.06,.26,.2,.5,.31,.76ZM57.36,83.39c.56,1.33,.72,2.71,.44,4.13-.16,.47-.32,.94-.48,1.4-.19,.22-.38,.45-.58,.67-.49,.53-.47,.69,.17,.98,.14,.07,.3,.13,.45,.15,.78,.06,1.55,.09,2.33,.15,.91,.08,1.72-.16,2.46-.68,1.37-.95,2.38-2.09,2.21-3.91-.04-.45-.03-.91-.14-1.34-.15-.62-.39-1.23-.6-1.84-.15-.33-.23-.72-.46-.98-.51-.58-1.1-1.1-1.66-1.65-.21-.24-.55-.44-.62-.71-.33-1.2-1.17-1.4-2.28-1.49-1.22-.1-2.41-.49-3.61-.76-.51-.25-1.02-.51-1.53-.76-.26-.2-.51-.41-.81-.64-.23,.47-.4,.83-.58,1.2-.86,.84-1.76,1.66-2.57,2.55-.42,.46-.69,1.06-1.03,1.6-.19,.33-.4,.66-.55,1-.46,1.05-.74,2.14-.48,3.28,.6,2.63,3.24,4.54,5.95,4.3,1.7-.15,2.86-.97,3.25-2.49,.62-1.31,.55-2.63,.14-3.98-.1-.32-.1-.67-.15-1,.14,.05,.33,.07,.4,.17,.14,.2,.22,.44,.32,.67ZM95.53,17.64c.98,.73,1.96,1.46,3.04,2.26,.07-1.83-.29-3.43-1.24-4.88-.47-1.17-1.27-2.1-2.2-2.92-.23-.22-.45-.46-.7-.66-2.98-2.31-6.43-3.05-10.11-3.04-1.69-.06-3.35,.12-4.99,.49-2.6,.45-5.1,1.22-7.46,2.43-3.71,1.8-6.92,4.25-9.72,7.27-1.64,1.64-3.02,3.5-4.22,5.48-.41,.68-.68,1.43-1.01,2.15-.33,.92-.68,1.83-.97,2.77-.19,.63-.29,1.29-.43,1.93-.02,.02-.04,.05-.06,.07,.02-.02,.05-.04,.07-.06,.71-.36,1.42-.74,2.14-1.08,2.29-1.07,4.67-1.76,7.22-1.7,1.08,.03,2.15,.09,3.22,.14,0,.02,.01,.04,.02,.05,0,0,.03,0,.04,0-.02-.02-.04-.04-.06-.06-.75-.7-1.66-1.11-2.64-1.38-.07-.12-.13-.25-.2-.37,.14-.05,.3-.17,.41-.13,.84,.29,1.74,.48,2.47,.94,.89,.56,1.64,1.35,2.46,2.03,1.38,1.98,2.74,3.97,4.14,5.93,1.32,1.86,2.77,3.62,4.75,4.84,1.68,1.03,3.46,1.77,5.48,1.26,1.32-.33,2.5-.94,3.2-2.2,.75-.88,1.1-1.93,1.18-3.07,.21-1.7-.07-3.31-.87-4.83-.16-.3-.29-.63-.48-.91-2.12-3.04-5.28-4.13-8.75-4.62-.41-.06-.77-.08-1.01-.51,.73-.02,1.45,.1,2.17,.09,1.22-.01,2.31,.45,3.44,.77,.52,.15,.99,.44,1.48,.67,.98,.46,1.75,1.2,2.56,1.9,.92,1.21,1.83,2.43,2.2,3.94,.17,.67,.29,1.34,.43,2.01-.13,1.2-.26,2.39-.41,3.67,.13,.05,.35,.15,.59,.23,1.11,.38,2.21,.24,3.3-.11,2.27-.72,4.03-2.16,5.51-3.96,.7-.85,1.32-1.76,1.52-2.88,.17-.61,.41-1.21,.48-1.84,.13-1.1,.2-2.21-.22-3.28-.28-2.04-1.4-3.61-2.77-5.05-.06-.06-.17-.07-.25-.1-1.46-1.66-3.28-2.81-5.26-3.74-2.13-1.11-4.37-1.64-6.79-1.42-1.3,.12-2.5,.56-3.69,1.03-.13,.05-.33-.06-.49-.1,.07-.14,.1-.34,.22-.41,.36-.24,.75-.45,1.13-.66,2.25-1.19,4.61-1.12,6.99-.55,.55,.13,1.1,.3,1.65,.45,1.15,.55,2.31,1.11,3.46,1.66Zm-17.57,44.98c1.26,.1,2.43,.39,3.36,1.35,.64,.66,1,1.43,.96,2.5,.39-.28,.67-.47,.94-.66,3.09-2.26,4.65-5.3,4.68-9.13-.09-.83-.09-1.68-.28-2.49-.65-2.81-1.94-5.21-4.58-6.67-.5-.28-1.06-.46-1.59-.69-1.75-.66-3.53-.75-5.32-.2-2,.61-3.58,1.85-4.93,3.39-.98,1.12-1.87,2.32-2.79,3.49-.36-.18-.15-.41-.04-.62,.25-.48,.51-.96,.76-1.43,.02-.03,.03-.06,.05-.09-.03,.02-.06,.04-.09,.05-1.56,.36-3.11,.45-4.49-.08-.53,.76-1,1.44-1.48,2.12-.45,.13-.89,.26-1.34,.39-.63-.19-1.25-.38-1.88-.57-.38,.96-.48,1.54-.21,3.08,.53,3.04,2.2,5.23,5.11,6.34,2.49,.95,5.09,.88,7.69,.57,1.59-.19,3.18-.43,4.77-.65,.14,0,.27,0,.41,0,.09,0,.19,0,.28,.01Zm-4.57-16.46c.69-1.72,.72-3.49,.37-5.28-.29-1.63-.97-3.06-2.18-4.21-.82-.78-1.8-1.21-2.92-1.24-1.55-.04-2.93,.47-4.15,1.42-1.79,1.18-2.92,2.84-3.52,4.88-.11,.68-.24,1.35-.33,2.03-.11,.76,.14,1.3,.82,1.79,1.51,1.09,2.64,2.49,2.94,4.42,.03,.16,.28,.34,.46,.41,1.1,.42,2.24,.49,3.4,.29,.91-.16,1.7-.52,2.31-1.23,.31-.36,.61-.74,.95-1.06,.41-.39,.86-.73,1.3-1.09,.06-.09,.12-.18,.18-.28,.12-.28,.25-.56,.37-.84Zm-54.05,8.72c-.69,1.79-1.37,3.59-2.08,5.43,5.52-1.76,10.92-.62,16.46,.7,.17-1.12,.33-2.18,.49-3.23,.02-.69,.03-1.37,.05-2.06-.06-3.28-1-6.31-2.56-9.18-1.8-3.31-4.35-5.87-7.78-7.47-.82-.38-1.73-.66-2.62-.8-1.27-.2-2.17,.44-2.42,1.71-.15,.75-.18,1.57-.05,2.32,.38,2.24,1.32,4.36,1.41,6.67,0,.35,0,.71-.01,1.06-.02,.19-.03,.39-.05,.58-.02,.32-.05,.63-.07,.95-.26,1.11-.52,2.21-.77,3.32Zm43.82,16.99c.64-.34,1.29-.68,1.93-1.01,.57-.29,1.12-.61,1.72-.85,.55-.22,.85,.03,.78,.62-.06,.57-.19,1.12-.29,1.68-.11,.34-.22,.68-.34,1.03,1.15,.1,1.53-.77,2.06-1.48,.17,.34,.25,.64,.34,.94,.18,.62,.3,1.26,.56,1.84,.31,.69,.88,.84,1.47,.37,.49-.39,.93-.9,1.26-1.43,.36-.58,.54-1.27,.86-1.88,.11-.21,.37-.33,.57-.49,.14,.18,.33,.34,.42,.55,.11,.25,.13,.54,.22,.8,.43,1.23,1.39,1.5,2.24,.53,.61-.7,1.07-1.54,1.54-2.35,.24-.41,.33-.91,.52-1.35,.19-.45,.49-.5,.87-.19,.28,.23,.54,.5,.85,.7,.5,.33,1.05,.41,1.54,0,.89-.73,1.27-1.75,1.54-2.89-2.03,.74-2.29,.76-2.83,.28,.68-1.54-.03-3.02-1.68-3.39-.62-.14-1.29-.22-1.92-.16-1.47,.12-2.92,.41-4.39,.5-1.73,.11-3.19,.96-4.74,1.57-1.71,.49-3.25,1.3-4.56,2.51-.52,.44-1.06,.87-1.56,1.32-.12,.11-.19,.31-.21,.47-.09,.67-.15,1.35-.24,2.18,.5-.14,.98-.28,1.47-.41Z"/>
          <path class="cls-27" d="M55.74,132.23c.21-.46,.42-.92,.63-1.37,.54-.9,1.09-1.8,1.6-2.71,.14-.25,.15-.59-.29-.73-1.55,1.36-3.1,2.73-4.66,4.08-2.24,1.95-4.6,3.73-7.19,5.19-3.76,2.12-7.76,3.3-12.1,3.15-1.31-.04-2.66-.23-3.68-1.13-.69-.61-1.19-1.43-1.78-2.16,1.23-.7,2.46-1.42,3.71-2.1,.94-.52,1.91-.99,2.86-1.51,1.36-.74,2.44-1.79,3.24-3.12,.33-.55,.63-1.13,1.02-1.64,.56-.75,1.2-1.44,1.78-2.18,.13-.17,.15-.42,.22-.63,.11-.45,.21-.9,.33-1.43-.2,.06-.28,.06-.32,.1-.89,1.06-2.13,1.66-3.26,2.41-2.07,1.37-4.1,2.79-6.2,4.12-3.31,2.1-6.89,3.26-10.88,2.94-2.92-.24-5.45-1.33-7.59-3.32,1.35-.18,2.71-.29,4.03-.55,1.12-.22,2.26-.5,3.29-.98,3.34-1.53,6.5-3.36,9.15-5.96,.2-.09,.46-.13,.59-.28,.74-.87,1.47-1.75,2.17-2.66,.32-.42,.58-.89,.81-1.36,.09-.19,.04-.46,.05-.69-.2,.04-.43,.04-.61,.13-.22,.11-.41,.29-.61,.44-.76,.59-1.46,1.27-2.28,1.77-2.46,1.54-5.08,2.76-7.9,3.5-2.25,.59-4.51,1.03-6.85,.65,3.53-1.61,6.19-4.26,8.58-7.23,1.39-1.72,2.87-3.37,4.3-5.06,.33-.39,.72-.6,1.22-.7,2.29-.45,4.21-1.56,5.79-3.28,.22-.24,.62-.39,.95-.42,1.67-.11,3.3,.19,4.91,.63,5.13,1.39,10.28,2.72,15.39,4.19,2.32,.67,4.56,1.6,6.84,2.41,.22,.08,.43,.17,.66,.21,.14,.02,.29-.05,.43-.07-.04-.16-.02-.38-.12-.48-.21-.2-.49-.35-.74-.5-2.22-1.36-4.66-2.19-7.12-2.96-1.23-.38-2.46-.73-3.69-1.2,.68-.04,1.37-.04,2.04-.13,3.05-.45,6.11-.9,9.15-1.39,3.33-.53,6.65-1.09,10.04-.74,1.23,.13,2.45,.42,3.67,.66,.18,.04,.33,.19,.5,.29-.34,.01-.56,.07-.32,.49,.14,.23,.27,.5,.28,.75,.07,2.22,.11,4.43,.15,6.65,0,.18-.04,.36-.06,.54-.12,.88-.24,1.76-.35,2.64-.05,.42,0,.86-.1,1.27-.2,.78-.59,1.53-.71,2.32-.17,1.16-.74,2.15-1.1,3.23-.13,.41-.21,.84-.39,1.22-.61,1.23-1.38,2.36-1.79,3.69-.13,.42-.41,.82-.71,1.15-.33,.37-.52,.75-.46,1.24-2.46-.31-4.88-.85-7.31-1.63,.2-.27,.45-.44,.66-.65,.78-.77,1.36-1.68,1.72-2.71,.07-.21-.02-.47-.04-.71-.22,.07-.48,.09-.66,.21-.39,.28-.73,.63-1.1,.93-1.22,1.02-2.52,1.93-4.04,2.46-1.88,.66-3.81,.78-5.78,.7Z"/>
          <path class="cls-1" d="M72.28,133.62c-.05-.49,.13-.87,.46-1.24,.3-.33,.58-.73,.71-1.15,.41-1.33,1.19-2.46,1.79-3.69,.19-.38,.26-.81,.39-1.22,.36-1.08,.93-2.07,1.1-3.23,.11-.79,.5-1.54,.71-2.32,.1-.4,.05-.85,.1-1.27,.1-.88,.23-1.76,.35-2.64,.02-.18,.06-.36,.06-.54-.04-2.22-.08-4.43-.15-6.65,0-.26-.14-.53-.28-.75-.25-.42-.02-.48,.32-.49,1.13,.16,2.12,.66,3.11,1.19,.22,.12,.49,.14,.74,.2,.61,.36,1.22,.73,1.95,1.16-.1-.77-.53-1.19-.93-1.55-.77-.71-1.61-1.34-2.43-2,.11-.03,.22-.06,.33-.09,.48,.07,.96,.13,1.54,.21-.23-.66-.76-.88-1.18-1.18-1.24-.89-2.73-1.14-4.12-1.68-.8-.31-1.73-.64-2.23-1.26-1.48-1.81-2.33-3.98-2.92-6.24,1.06-1.16,1.01-2.5,.63-3.88-.35-1.26-1.01-2.36-1.81-3.38-.68-.87-1.44-1.67-2.11-2.55-.68-.89-1.3-1.83-1.95-2.74,.16-.19,.34-.37,.48-.59,.87-1.34,2.11-2.21,3.53-2.87,.11-.05,.19-.16,.29-.25,.59,.17,1.2,.31,1.78,.52,5.78,2.13,10.94,5.22,15.1,9.83,.15,.17,.29,.35,.43,.53-.34,.13-.29,.35-.15,.61,.27,.51,.55,1.01,.77,1.53,.55,1.35,1.08,2.7,1.58,4.07,.28,.77,.51,1.57,.74,2.36,.27,.92,.57,1.83,.76,2.77,.3,1.5,.54,3.01,.74,4.52,.21,1.56,.44,3.13,.5,4.7,.07,1.9,.1,3.8-.23,5.7-.21,1.18-.16,2.4-.36,3.58-.26,1.53-.64,3.03-1,4.54-.17,.71-.38,1.41-.61,2.1-.49,1.45-.97,2.91-1.52,4.34-.16,.41-.1,.7,.15,1-1.64,.55-3.36,.65-5.06,.81-.53,.05-1.06,.04-1.59,.03-1.6-.02-3.2-.04-4.81-.09-.46-.01-.91-.07-1.37-.13-1.45-.21-2.9-.43-4.35-.64Z"/>
          <path class="cls-21" d="M29.66,87.54c-1.16-.3-2.32-.59-3.49-.89-.05-.16-.1-.31-.14-.47-.08,.13-.16,.26-.25,.39-.19-.02-.39-.03-.58-.05,.02-.24,.08-.52-.31-.47-.03,0-.03,.25-.05,.38h-2.37c.14-.17,.27-.33,.49-.58-.31-.18-.59-.36-.88-.51-1.52-.75-2.86-1.76-4-2.99-1.22-1.32-2.47-2.65-3.15-4.37-.54-1.36-1.61-2.57-1.2-4.2,.22-.09,.44-.18,.27-.49,1.15-.38,2.31-.77,3.46-1.15,0-.05-.01-.1-.02-.16-.35-.12-.71-.24-1.06-.36,0-1.57-.13-3.17,.3-4.7,.33-1.18,.82-2.31,1.23-3.47,.22-.64,.77-1.15,.69-1.9,1.57-.44,3.16-.66,4.79-.59,1.04,.05,2.07,.22,3.1,.27,3.68,.2,7.15,1.24,10.5,2.69,1.32,.57,2.5,1.44,3.75,2.17,.05,.22,.08,.45,.16,.66,.87,2.08,1.32,4.23,1.1,6.49-.15,1.53-.65,2.86-1.95,3.78-2.85-2.41-6.11-3.99-9.71-4.91-1.38-.35-2.77-.37-4.14,.08-.69,.23-.82,.38-.86,.99,.44-.06,.86-.14,1.29-.17,1.76-.12,3.45,.26,5.08,.86,2.09,.77,4.05,1.81,5.92,3.02,.37,.24,.69,.56,1.04,.85,.04,.27,.07,.54,.13,.81,.13,.58,.38,1.15,.41,1.73,.13,2.44-.71,4.59-2.07,6.57-.55-.24-1.05,0-1.59,.11-1.39,.26-2.8,.42-4.2,.58-.39,.04-.47,.2-.4,.53-.4-.17-.79-.33-1.19-.5,.05-.11,.1-.22,.15-.33-.05-.02-.11-.04-.16-.06-.02,.12-.05,.24-.07,.36Z"/>
          <path class="cls-7" d="M13.73,73.78c-.41,1.63,.66,2.84,1.2,4.2,.68,1.72,1.93,3.05,3.15,4.37,1.13,1.23,2.48,2.24,4,2.99,.29,.14,.57,.33,.88,.51-.22,.25-.35,.41-.49,.57-.32,.06-.63,.13-.95,.19,0,.07,0,.15,0,.22,.22,.03,.44,.09,.67,.1,4.04,.13,7.73,1.35,11.03,3.68,.93,.66,1.71,1.52,2.55,2.29,.05,1.73-.69,3.1-1.94,4.24-1.18,1.08-2.52,1.9-3.98,2.56-3.4,1.54-6.99,1.76-10.6,1.19-2.2-.35-4.37-1.04-6.5-1.74-2.68-.87-5.02-2.35-7.04-4.34-.57-.57-.85-1.24-.84-2.04,0-.44,.02-.88,0-1.31,0-.16-.12-.31-.18-.47,.58-.99,1.4-1.74,2.35-2.37,.53-.35,1.05-.73,1.56-1.12,.19-.15,.43-.32,.2-.62,1.19-.32,2.33-.75,3.39-1.44-1.24-.3-2.49-.44-3.7-.75-1.25-.31-2.41-.87-3.29-1.86,.2-.77,.27-1.61,.62-2.31,1.54-3.05,3.87-5.28,7.1-6.52,.26-.1,.53-.14,.8-.21Z"/>
          <path class="cls-4" d="M89.45,133.64c-.25-.31-.31-.59-.15-1,.54-1.43,1.03-2.89,1.52-4.34,.23-.69,.44-1.39,.61-2.1,.36-1.51,.74-3.01,1-4.54,.2-1.18,.15-2.4,.36-3.58,.33-1.9,.3-3.8,.23-5.7-.06-1.57-.28-3.14-.5-4.7-.2-1.51-.45-3.02-.74-4.52-.18-.94-.49-1.85-.76-2.77-.23-.79-.46-1.59-.74-2.36-.5-1.36-1.03-2.72-1.58-4.07-.21-.53-.5-1.03-.77-1.53-.13-.26-.19-.48,.15-.61,1.14,1.48,2.29,2.96,3.43,4.43,.07,.1,.14,.2,.21,.3,1.22,1.97,2.45,3.95,3.66,5.93,.26,.43,.48,.89,.71,1.33,.07,.12,.14,.23,.21,.35,.35,.62,.69,1.24,1.04,1.86,.07,.12,.14,.23,.21,.35,.11,.21,.23,.42,.34,.63,.07,.12,.14,.23,.21,.35,.55,1,1.1,2,1.65,3-.04,.19-.08,.38-.12,.58,.12-.03,.24-.05,.36-.08,.11,.22,.21,.44,.32,.67-.25,.33-.31,.65,0,.99,.09,.1,.12,.24,.18,.37,.33,.8,.66,1.6,.99,2.41,.13,.3,.28,.27,.44,.03,.14,.43,.29,.85,.43,1.28-.28,.22-.23,.36,.11,.43,.05,.23,.1,.46,.14,.69-.29,.8-.21,1.55,.27,2.26,.07,.1,.12,.25,.1,.37-.17,1.31-.32,2.62-.54,3.92-.09,.53-.15,1.02,.15,1.49-.31,.07-.62,.15-.93,.22,.09,.22,.18,.43,.27,.65,0,.1,0,.2,0,.31-.28,1.1-.56,2.2-.85,3.3-.11,.4-.29,.77-.4,1.16-.05,.18,.11,.48,.02,.57-.63,.63-.47,1.54-.82,2.27-.37,.78-.53,1.67-1.16,2.33-.09-.04-.19-.08-.28-.11,.02-.28,.06-.57-.38-.33-.61-.38-1.22-.77-1.83-1.15-.34,.5-.29,.74,.23,1.3,.43,.47,.86,.93,1.3,1.4-.28,.18-.28,.41-.08,.62,.25,.27,.18,.5,.07,.81-.22,.57-.36,1.16-.54,1.75-.51-.1-1.04-.15-1.54-.3-1.88-.56-3.68-1.27-4.82-3.01,.1-.16,.19-.32,.29-.48-.2-.07-.39-.13-.59-.2,.05-.05,.09-.12,.14-.14,2.01-.66,3.68-1.82,5.11-3.37,.89-.97,1.49-2.08,1.88-3.32,.09-.28,.05-.59,.06-.89-.88,.65-1.58,1.39-2.38,1.98-.81,.59-1.72,1.04-2.59,1.55-.08-.08-.17-.16-.25-.24-.1,.13-.2,.27-.3,.4-.92,.28-1.84,.56-2.76,.84Z"/>
          <path class="cls-22" d="M-13.24,117.42c-.43,.2-.43,.61-.48,.99-.04,.27-.06,.55-.08,.82-.14-.1-.33-.17-.41-.31-.33-.57-.69-1.14-.93-1.75-.89-2.29-.84-4.67-.61-7.06,.03-.3,0-.61,0-1.03-.29,.21-.47,.34-.65,.47-.46-.65-.7-.71-1.37-.32-.15-2.64,.14-5.25,.68-7.83,.04-.17,.21-.31,.33-.47,.46,.13,.48-.24,.57-.51,.53-1.56,1.04-3.14,1.59-4.69,.35-.99,.77-1.96,1.16-2.94,.35,.02,.41,.28,.51,.55,.18,.49,.38,.97,.64,1.42,.41,.68,.88,1.33,1.32,1.99,.44,.67,.84,1.36,1.32,2,.13,.18,.47,.2,.71,.29,.01,.09,.02,.18,.03,.27-.03,.08-.06,.16-.09,.24,.07,.2-.29,.56,.21,.61,.44,.49,.89,.97,1.31,1.47,.2,.24,.31,.55,.51,.78,.47,.52,.98,1.02,1.48,1.51,1.51,1.5,2.95,3.08,4.7,4.31,.74,.53,1.45,1.11,2.19,1.63,.59,.42,1.24,.76,1.81,1.2,.55,.42,1.04,.92,1.56,1.39-.1,.09-.18,.21-.29,.28-2.44,1.57-5.19,2.07-8.01,2.34-1.18,.11-2.31-.24-3.43-.59-.85-.27-1.7-.54-2.56-.75-.64-.16-.93,.11-.78,.72,.23,.96,.55,1.9,1.22,2.67,.07,.09,.23,.11,.34,.16,.17,.18,.35,.36,.52,.54,.19,.6,.64,.88,1.22,1.01,.23,.55,.46,1.11,.68,1.66-.29,.02-.59,.09-.87,.05-2.24-.35-3.74-1.7-4.79-3.62-.22-.41-.43-.83-.64-1.25-.07,0-.14,.01-.22,.02-.13,.59-.27,1.17-.4,1.76Z"/>
          <path class="cls-9" d="M88.52,31.34c.8,1.52,1.08,3.13,.87,4.83-.18,.14-.39,.25-.53,.42-.55,.65-1.22,1.09-2.07,1.1-.87,0-1.75-.03-2.6-.2-2.56-.54-4.6-2.02-6.49-3.72-1.52-1.37-2.99-2.79-4.48-4.2-1.44-1.36-2.98-2.6-4.72-3.55-1.15-.63-2.36-1.17-3.75-.78-.18,.05-.43,.03-.6-.06-1.6-.8-2.96-2.28-2.38-4.44,.19-.7,.27-1.43,.4-2.15,2.79-3.02,6.01-5.47,9.72-7.27,.21,.53-.03,1.01-.11,1.53-.34,2.31-.32,4.63,.3,6.88,.43,1.58,1.04,3.13,2,4.5,.27,.39,.72,.7,.86,1.12,.38,1.12,1.32,1.77,2.07,2.53,1.26,1.29,2.88,2.17,4.43,3.09,.13,.08,.38-.03,.57-.05,.4,.79,.83,1.57,1.2,2.37,.53,1.16,1.32,2.04,2.59,2.37,.77,.2,1.56,.29,2.21-.31,.67-.62,.78-1.43,.52-2.28-.17-.54-.39-1.06-.58-1.59,.2-.05,.4-.11,.59-.16Z"/>
          <path class="cls-10" d="M4.7,90.99c.06,.16,.17,.31,.18,.47,.02,.44,.01,.88,0,1.31-.01,.8,.26,1.48,.84,2.04,2.01,1.99,4.36,3.47,7.04,4.34,2.13,.69,4.3,1.39,6.5,1.74,3.6,.57,7.19,.36,10.6-1.19,1.45-.66,2.8-1.48,3.98-2.56,1.25-1.14,1.99-2.51,1.94-4.24,1.19,1.15,1.72,2.58,1.74,4.21,.04,3.26-1.05,6.17-2.87,8.83-.15,.03-.31,.05-.46,.1-1.15,.36-2.28,.81-3.45,1.06-.99,.21-2.04,.19-2.99-.31,.46-.1,.92-.19,1.38-.29,.8,.27,1.45-.16,2.12-.46,.18-.08,.33-.25,.49-.38-.02-.04-.05-.09-.07-.13-.43,0-.88,.06-1.3-.01-.93-.16-1.86-.38-2.79-.57,1.01-.43,2.02-.86,3.03-1.3,.15-.06,.3-.14,.4-.26,.13-.15,.2-.35,.3-.53-.19,.01-.38,0-.56,.05-1.16,.37-2.29,.91-3.47,1.09-5.86,.89-11.42,.06-16.49-3.2-.21-.13-.45-.22-.73-.22,1.23,2.07,3.13,3.25,5.33,4.01-.4,.02-.81,.09-1.2,.03-.72-.12-1.44-.27-2.14-.49-2.67-.83-5.08-2.1-6.95-4.24-.08-.09-.23-.12-.35-.18-1.1-1.91-1.66-3.93-1.25-6.14,.18-.96,.55-1.84,1.2-2.59Z"/>
          <path class="cls-11" d="M88.52,31.34c-.2,.05-.4,.11-.59,.16-2.25-3.44-6.71-4.61-8.94-4.61,.79,1,1.61,2.04,2.44,3.08-.23,.24-.16,.37,.15,.4h0c.09,.09,.19,.19,.28,.28,.05,.09,.1,.18,.15,.27-.19,.02-.44,.13-.57,.05-1.56-.92-3.17-1.8-4.43-3.09-.75-.76-1.69-1.42-2.07-2.53-.14-.42-.59-.73-.86-1.12-.95-1.37-1.57-2.92-2-4.5-.61-2.25-.64-4.57-.3-6.88,.08-.51,.31-1,.11-1.53,2.36-1.21,4.86-1.98,7.46-2.43-.07,.21-.12,.43-.21,.63-.44,1.02-.89,2.04-1.33,3.07-.06,.14-.1,.31-.1,.46,0,.85-.49,1.67-.15,2.54,.03,.08,.02,.2-.02,.27-.31,.45-.15,.86,.05,1.29,.08,.18,.07,.4,.12,.6,.21,.76,.35,1.56,.68,2.27,.36,.78,.87,1.49,1.34,2.22,.25,.38,.49,.79,.83,1.08,.66,.56,1.38,1.06,2.1,1.54,.26,.17,.59,.24,.88,.36,.68,.29,1.36,.61,2.05,.88,.46,.18,.94,.32,1.41,.46,.1,.03,.22,.04,.33,.04,.52-.03,1.08-.19,1.57-.07,.82,.21,1.57-.04,2.26-.28,1.09-.38,2.28-.58,3.18-1.41,.63,1,1.38,1.86,2.49,2.35-.43,.67-1.06,1.09-1.77,1.39-.43,.18-.93,.19-1.24,.64-.09,.13-.37,.15-.57,.19-.43,.07-.9,.02-1.27,.19-.47,.21-1.15-.01-1.4,.65-.21-.14-.41-.29-.63-.41-.66-.38-1.33-.75-2-1.12-.81-.69-1.57-1.44-2.56-1.9-.49-.23-.97-.52-1.48-.67-1.13-.32-2.23-.78-3.44-.77-.72,0-1.44-.11-2.17-.09,.24,.43,.6,.45,1.01,.51,3.47,.49,6.63,1.58,8.75,4.62,.2,.28,.32,.61,.48,.91Z"/>
          <path class="cls-7" d="M52.36,47.52c.37,.06,.74,.11,1.11,.17-.22,.25-.47,.47-.66,.74-.08,.12-.02,.33-.02,.5-.31,.37-.62,.74-.93,1.11-.29-.34-.56-.71-.89-1.03-.56-.56-1.19-1.05-1.73-1.62-1.55-1.64-2.59-3.62-3.55-5.63-.3-.62-.5-1.3-.73-1.9,.47-.37,1.16-.18,1.18-.88,.47-.14,.93-.37,1.41-.41,.78-.07,1.56,0,2.34-.02,.22,0,.44-.06,.67-.09,.01-.07,.02-.13,.03-.2-.2-.12-.4-.24-.66-.4,1.46-2.18,3.32-3.98,5.51-5.46,.5,.05,.5,.39,.54,.79,.11,1.19,.09,2.42,.72,3.51,.35,.61,.74,1.21,1,1.86,.3,.74,.9,1.18,1.44,1.69,.32,.31,.79,.46,.86,.98-.18,.99-.36,1.98-.54,3-1.22-.44-2.48-.97-3.85-.75-.01,.07-.03,.15-.04,.22,.16,.03,.33,.08,.49,.1,3.17,.39,5.42,2.14,7.05,4.78,.34,.56,.47,1.2,.32,1.86-.95,.12-1.83-.11-2.63-.62-1.33-.85-2.64-1.73-3.98-2.58-1.05-.66-2.15-1.22-3.39-1.45-.71-.13-1.4-.1-1.91,.46-.19,.21-.33,.56-.3,.82,.02,.13,.47,.21,.73,.31h0c.07,.18,.14,.36,.21,.54,.07-.14,.13-.28,.2-.42Z"/>
          <path class="cls-12" d="M46.13,38.98c-.03,.7-.71,.51-1.18,.88,.23,.61,.43,1.28,.73,1.9,.97,2.01,2,3.99,3.55,5.63,.54,.57,1.17,1.07,1.73,1.62,.32,.32,.59,.68,.89,1.03-2.37,3.34-3.81,7.08-4.53,11.09-.22,1.22-.25,2.47-.37,3.71-.14-.1-.32-.17-.41-.3-1.31-1.86-1.95-3.99-2.47-6.16-.09-.39,.02-.74,.35-1.05,.35-.33,.7-.71,.71-1.47-.43,.24-.75,.41-1.05,.6-.35,.21-.68,.47-1.05,.65-.52,.25-.83,.09-1.08-.45-.56-1.16-.6-2.36-.44-3.63,.08-.66,.38-.86,.9-1,.27-.08,.53-.19,.79-.28-.15-.21-.28-.29-.42-.32-.62-.15-1.25-.27-1.88-.42-.84-.2-1.07-.5-1.01-1.36,.02-.25,.05-.51,.14-.74,.55-1.33,.85-2.84,2.43-3.46,.19-.07,.37-.21,.49-.37,.13-.17,.2-.4,.35-.72-.44,0-.71-.01-.98,0-.82,.05-1.42-.27-1.83-.99-.07-.12-.23-.18-.35-.27,1.15-1.66,2.6-2.97,4.48-3.75,.47-.19,1-.26,1.5-.38Z"/>
          <path class="cls-4" d="M38.52,100.82c.1-.77,.28-1.54,.27-2.32,0-1.03-.15-2.05-.24-3.07,.26,.12,.57,.2,.79,.37,.96,.76,2.03,1.1,3.26,1.02,1.36-.1,2.86-1.35,3.17-2.78-.87,.53-1.52,1.39-2.62,1.4-1.09,.01-1.87-.57-2.59-1.08,.27-.59,.49-1.07,.71-1.56,1.49-1.56,2.68-3.3,2.95-5.49,.13-1.06,.04-2.15,.05-3.23,.5,.23,.91-.01,1.32-.25,.3-.18,.6-.38,.9-.57-.46,2.45,.07,4.58,2.01,6.26-.13,.77-.6-.09-.88,.16-.26,.65-.5,1.31-.66,1.99-.15,.62-.3,1.25-.31,1.88-.03,1.6-.08,3.21,.09,4.79,.11,1,.55,1.98,.94,2.92,.71,1.69,1.63,3.25,2.95,4.55,.38,.37,.73,.77,1.13,1.12,.35,.31,.73,.6,1.15,.81,.32,.16,.46,.34,.42,.69l-4.56,.1c-.23-.13-.44-.3-.68-.37-2.63-.81-4.97-2.12-6.9-4.08-.86-.87-1.53-1.93-2.29-2.9-.1-.13-.25-.24-.37-.35Z"/>
          <path class="cls-17" d="M87.9,56.68c-.04,3.82-1.59,6.87-4.68,9.13,.03-1.35-.7-2.32-1.71-3.04-1.72-1.23-3.74-1.57-5.79-1.63-1.65-.05-3.3,.05-4.95,.09-.05-.24-.03-.53-.15-.72-.77-1.21-1.34-2.51-1.68-3.89-.25-1.01-.36-2.06-.53-3.09,.93-1.17,1.81-2.37,2.79-3.49,1.35-1.54,2.93-2.78,4.93-3.39,1.8-.55,3.57-.46,5.32,.2-.11,.28-.21,.57-.32,.85-.22-.06-.44-.13-.66-.19-1.89-.51-3.75-.63-5.5,.45-.23,.14-.42,.35-.64,.53,.03,.07,.05,.13,.08,.2,.9-.05,1.8-.09,2.7-.14,.08,.26,.06,.47-.08,.75-.63,1.27-1.21,2.57-1.03,4.06,.16,1.28,.57,2.48,1.36,3.47,.89,1.12,2,2.02,3.44,2.38,.68,.17,1.38,.33,2.07,.32,.72,0,1.43-.22,2.15-.35-.31,1.35-.62,2.71-.92,4.06,.42-.26,.78-.57,1.07-.94,1.2-1.52,1.49-3.32,1.51-5.2,.41-.14,.81-.28,1.22-.42Z"/>
          <path class="cls-7" d="M53.33,108.43c.04-.34-.09-.52-.42-.69-.42-.21-.79-.51-1.15-.81-.4-.35-.75-.74-1.13-1.12-1.31-1.3-2.24-2.86-2.95-4.55-.39-.94-.83-1.92-.94-2.92-.17-1.58-.11-3.19-.09-4.79,.01-.63,.16-1.27,.31-1.88,.16-.68,.4-1.34,.66-1.99,.28-.25,.76,.61,.88-.16,.57,.53,1.19,.94,1.98,1.07,.58,.1,1.15,.29,1.73,.43,.25,.13,.5,.27,.7,.37-.21,.65-.43,1.31-.63,1.97-.17,.59-.32,1.18-.48,1.77-.45-.48-.91-.95-1.35-1.44-.41-.46-.77-.96-1.21-1.39-.29-.28-.59-.27-.81,.17-.35,.7-.32,1.4,.04,2.04,.56,.99,1.19,1.95,1.85,2.87,.21,.3,.65,.43,.98,.64,1.26,1.19,2.71,1.85,4.48,1.62-.04,.19-.12,.39-.12,.58,0,.25-.03,.61,.11,.73,.81,.63,1.6,1.32,2.51,1.77,1.5,.73,3.13,.95,4.81,.65,.14-.02,.32,.17,.48,.27-.07,.16-.11,.34-.21,.49-.48,.69-1.01,1.35-1.47,2.06-.21,.33-.29,.75-.43,1.13-2.21,.33-4.42,.66-6.63,1-.15-.57-.56-.58-1.06-.5-.02,.22-.03,.42-.04,.62-.14,0-.28,.01-.41,.02Z"/>
          <path class="cls-15" d="M92.07,15.98c-.55-.15-1.09-.32-1.65-.45-2.39-.57-4.74-.64-6.99,.55-.39,.2-.77,.41-1.13,.66-.11,.08-.15,.27-.22,.41,.17,.04,.36,.15,.49,.1,1.2-.47,2.39-.91,3.69-1.03,2.41-.22,4.66,.31,6.79,1.42-.1,.24-.19,.48-.29,.72-.93-.31-1.86-.62-2.8-.91-.55-.17-1.1-.32-1.65-.48,.33,.5,.7,.91,1.11,1.28,1.29,1.17,2.48,2.43,3.48,3.85-.11,.04-.22,.06-.31,.12-2.1,1.37-4.39,1.65-6.68,.77-2.62-1.01-4.47-2.88-5.14-5.71-.18-.75-.34-1.55-.24-2.3,.14-1.09,.37-2.2,.99-3.17,.34-.53,.67-1.07,1.01-1.6,.6,.22,1.2,.45,1.8,.66,1.43,.51,2.77,1.18,3.86,2.28,1.2,1.22,2.82,1.53,4.43,.86,1.24-.51,1.5-1.67,.57-2.64-.78-.82-1.78-1.3-2.85-1.58-1.97-.51-3.98-.58-6-.57,0-.27,0-.53,0-.8,3.68,0,7.13,.73,10.11,3.04,.25,.2,.47,.44,.7,.66-.06,.22-.11,.44-.17,.66-.31,1.1-.74,2.12-1.79,2.72-.35,.2-.74,.33-1.11,.5Z"/>
          <path class="cls-12" d="M-4,92.37c.03-.13,.02-.3,.1-.38,1.49-1.45,2.99-2.88,4.49-4.32,.09,0,.19,.02,.27,0,1.57-.4,2.86,.16,4.04,1.13-1.27,1.18-2.32,2.5-2.69,4.24-.17,.8-.37,1.62-.33,2.42,.05,1.18,.29,2.36,.77,3.46,.11,.26,.21,.53,.31,.8-.49,.16-.29,.47-.15,.75,.15,.3,.29,.62,.49,.89,.6,.82,1.21,1.63,1.84,2.43,.49,.61,.89,1.33,1.65,1.68,.05,.02,.06,.12,.1,.18,.61,.81,1.23,1.6,2.3,1.82-.37,.55-.74,1.11-1.11,1.66-.11-.17-.19-.38-.34-.49-.52-.37-1.07-.69-1.6-1.03-.71-.46-1.46-.87-2.13-1.39-.97-.74-1.92-1.53-2.83-2.35-1.36-1.23-2.74-2.45-3.98-3.79-1.07-1.15-1.96-2.47-2.92-3.72-.09-.12-.17-.37-.11-.48,.55-.92,1.12-1.82,1.71-2.72,.18-.27,.48-.47,.12-.8Z"/>
          <path class="cls-27" d="M20.24,48.97c-.09-2.3-1.02-4.43-1.41-6.67-.13-.75-.1-1.57,.05-2.32,.25-1.27,1.15-1.91,2.42-1.71,.9,.14,1.8,.42,2.62,.8,3.43,1.6,5.98,4.16,7.78,7.47-.27-.13-.42-.02-.63,.2-.51,.56-.89,1.27-1.7,1.51-.22,.07-.39,.31-.57,.49-.39,.38-.84,.61-1.41,.61-.31,0-.62,.14-.92,.21-.24,.06-.47,.18-.71,.18-1.09,.02-2.18,.01-3.27,0-.15,0-.35-.01-.45-.1-.42-.39-1.16-.18-1.45-.79,0-.02-.23,.07-.35,.11Z"/>
          <path class="cls-6" d="M62.16,18.6c-.13,.72-.21,1.45-.4,2.15-.58,2.16,.78,3.64,2.38,4.44,.17,.09,.42,.11,.6,.06,1.39-.39,2.6,.15,3.75,.78,1.74,.95,3.28,2.19,4.72,3.55,1.49,1.4,2.96,2.83,4.48,4.2,1.89,1.7,3.94,3.19,6.49,3.72,.84,.18,1.73,.21,2.6,.2,.84,0,1.52-.46,2.07-1.1,.14-.17,.35-.28,.53-.42-.09,1.14-.43,2.18-1.18,3.07-.17,.05-.36,.07-.51,.17-2.07,1.35-4.21,1.25-6.36,.26-2.45-1.12-4.22-3.05-5.84-5.12-1.32-1.68-2.63-3.37-4.21-4.81-.17-.16-.43-.22-.64-.33-.81-.69-1.56-1.48-2.46-2.03-.73-.46-1.63-.66-2.47-.94-.11-.04-.28,.08-.41,.13,.07,.12,.13,.25,.2,.37-.1,.04-.2,.11-.3,.12-1.27,.14-2.53,.34-3.8,.4-1.58,.07-3.25,.33-4.4-1.21,0-.01-.04,0-.07-.01,.33-.72,.6-1.48,1.01-2.15,1.19-1.98,2.57-3.84,4.22-5.48Z"/>
          <path class="cls-4" d="M-4,92.37c.36,.33,.06,.53-.12,.8-.59,.89-1.16,1.8-1.71,2.72-.06,.1,.02,.35,.11,.48,.96,1.25,1.85,2.57,2.92,3.72,1.24,1.34,2.62,2.56,3.98,3.79,.91,.82,1.86,1.6,2.83,2.35,.67,.51,1.41,.93,2.13,1.39,.53,.34,1.08,.67,1.6,1.03,.15,.11,.23,.32,.34,.49-.29,.43-.54,.89-.87,1.29-.69,.83-1.47,1.55-2.45,2.03-.52-.47-1.01-.97-1.56-1.39-.58-.44-1.22-.78-1.81-1.2-.74-.53-1.45-1.11-2.19-1.63-1.75-1.24-3.19-2.81-4.7-4.31-.5-.5-1.01-.99-1.48-1.51-.21-.23-.32-.54-.51-.78-.42-.5-.87-.98-1.31-1.47,.15-.17,.34-.33,.43-.53,.99-2.17,2.02-4.32,3.43-6.26,.27-.37,.63-.67,.95-1Z"/>
          <path class="cls-26" d="M84.33,8.4c0,.27,0,.53,0,.8-1.15,.05-2.31,.11-3.61,.17,.71,.32,1.26,.56,1.81,.81-.34,.53-.67,1.07-1.01,1.6-.62,.97-.84,2.08-.99,3.17-.1,.74,.06,1.55,.24,2.3,.67,2.83,2.52,4.7,5.14,5.71,2.29,.88,4.58,.61,6.68-.77,.09-.06,.21-.08,.31-.12,.63,.84,1.24,1.68,1.4,2.76-.9,.83-2.09,1.03-3.18,1.41-.69,.24-1.44,.5-2.26,.28-.48-.13-1.04,.04-1.57,.07-.11,0-.23,0-.33-.04-.47-.15-.95-.28-1.41-.46-.69-.28-1.37-.59-2.05-.88-.29-.12-.62-.19-.88-.36-.72-.49-1.43-.99-2.1-1.54-.34-.29-.58-.7-.83-1.08-.47-.73-.99-1.44-1.34-2.22-.32-.71-.46-1.51-.68-2.27-.05-.2-.04-.42-.12-.6-.19-.43-.36-.84-.05-1.29,.05-.07,.05-.19,.02-.27-.34-.87,.14-1.69,.15-2.54,0-.16,.04-.32,.1-.46,.44-1.03,.89-2.04,1.33-3.07,.09-.2,.14-.42,.21-.63,1.64-.37,3.31-.55,4.99-.49Z"/>
          <path class="cls-10" d="M4.76,112.45c.98-.48,1.77-1.2,2.45-2.03,.33-.4,.58-.86,.87-1.29,.37-.55,.74-1.11,1.11-1.66l.12-.13c.93,.64,1.85,1.28,2.78,1.92-.15,.57-.22,1.18-.46,1.71-1.14,2.56-2.96,4.51-5.41,5.88-.24,.14-.44,.37-.65,.56-3.88,.6-7.73,.58-11.57-.35-.71-.17-1.45-.22-2.17-.3-.35-.04-.57,.14-.59,.51-.12-.05-.27-.07-.34-.16-.66-.77-.98-1.71-1.22-2.67-.15-.6,.14-.87,.78-.72,.86,.21,1.71,.49,2.56,.75,1.12,.35,2.25,.7,3.43,.59,2.81-.27,5.57-.77,8.01-2.34,.11-.07,.19-.18,.29-.28Z"/>
          <path class="cls-21" d="M59.99,41.24c-.07-.52-.55-.68-.86-.98-.53-.51-1.13-.95-1.44-1.69-.26-.65-.65-1.25-1-1.86-.63-1.09-.61-2.31-.72-3.51-.04-.4-.04-.74-.54-.79,3.22-2.34,6.77-3.64,10.8-3.43,.23,.01,.45,.08,.67,.12,.12,.21,.23,.43,.38,.62,.32,.41,.67,.8,1,1.19-.12,.19-.2,.33-.28,.46-2.71,.5-4.75,2.06-6.44,4.15-.34,.42-.61,.89-.89,1.34-.07,.11-.08,.26-.11,.39,.05,.03,.1,.07,.15,.1,.16-.16,.33-.33,.49-.5,.81-.85,1.56-1.75,2.42-2.54,1.26-1.16,2.74-1.91,4.49-2.05,.71,.58,.6,1.23,.16,1.91-.01,.02,0,.04,0,.07-2.92,.63-5.23,2.2-6.97,4.59-.53,.73-.88,1.6-1.31,2.41Z"/>
          <path class="cls-10" d="M-6.38,82.39c1.67-1.93,3.28-3.93,5.04-5.78,1.38-1.45,2.94-2.72,4.42-4.07,.19,.11,.37,.28,.57,.31,1.5,.23,2.69,.98,3.67,2.1,.2,.23,.49,.39,.74,.59-1.75,1.61-3.2,3.42-3.9,5.74-.06,.2-.16,.4-.16,.6,.02,.94-.53,1.49-1.24,1.99-.61,.44-1.16,.97-1.74,1.46-.43-.83-.84-1.69-1.67-2.21-1.57-.99-3.26-1.21-5.06-.79-.22,.05-.45,.04-.67,.06Z"/>
          <path class="cls-12" d="M20.24,48.97c.12-.04,.34-.12,.35-.11,.3,.61,1.03,.41,1.45,.79,.1,.09,.3,.1,.45,.1,1.09,0,2.18,.02,3.27,0,.24,0,.47-.12,.71-.18,.31-.08,.62-.21,.92-.21,.57,0,1.01-.23,1.41-.61,.18-.17,.35-.42,.57-.49,.81-.25,1.19-.96,1.7-1.51,.21-.23,.35-.33,.63-.2,1.55,2.86,2.49,5.9,2.56,9.18-.64,.05-1.28,.14-1.91,.14-1.46,0-2.95,.13-4.38-.08-2.83-.42-5.22-1.8-7.25-3.8-.17-.17-.4-.28-.6-.42,.02-.32,.05-.63,.07-.95,.27-.17,.28-.37,.05-.58,0-.35,0-.71,.01-1.06Z"/>
          <path class="cls-20" d="M5.57,117.41c.22-.19,.41-.42,.65-.56,2.46-1.36,4.27-3.32,5.41-5.88,.24-.53,.31-1.14,.46-1.71,.69,.14,1.37,.31,2.07,.4,.23,.03,.49-.14,.73-.21,.01-.07,.03-.14,.04-.22-.34-.2-.67-.42-1.02-.61-3.71-1.93-6.41-4.93-8.84-8.23-.14-.2-.22-.45-.32-.67,.12,.06,.27,.09,.35,.18,1.88,2.14,4.29,3.4,6.95,4.24,.7,.22,1.42,.37,2.14,.49,.39,.06,.8-.02,1.2-.03,.57,.16,1.14,.32,1.78,.5-.77,1-.98,2.06-.6,3.22,.36,1.08,1.08,1.91,1.92,2.65-.98,1.68-2.41,2.85-4.06,3.76-2.7,1.49-5.61,2.28-8.65,2.7-.07,0-.14-.01-.2-.02Z"/>
          <path class="cls-20" d="M68.27,65.81c1.55-.6,3.01-1.46,4.74-1.57,1.47-.09,2.92-.38,4.39-.5,.63-.05,1.3,.03,1.92,.16,1.65,.37,2.36,1.86,1.68,3.39,.54,.48,.79,.46,2.83-.28-.27,1.15-.65,2.16-1.54,2.89-.49,.4-1.04,.32-1.54,0-.31-.2-.56-.47-.85-.7-.38-.31-.68-.25-.87,.19-.19,.44-.28,.94-.52,1.35-.47,.81-.92,1.65-1.54,2.35-.85,.97-1.81,.7-2.24-.53-.09-.26-.1-.55-.22-.8-.09-.2-.28-.37-.42-.55-.19,.16-.46,.28-.57,.49-.31,.61-.5,1.3-.86,1.88-.33,.54-.77,1.04-1.26,1.43-.59,.47-1.16,.32-1.47-.37-.26-.58-.38-1.22-.56-1.84-.09-.3-.17-.6-.34-.94-.53,.71-.91,1.58-2.06,1.48,.11-.35,.23-.69,.34-1.03,.69-.57,1.37-1.13,1.97-1.63,.39,.66,.69,1.28,1.09,1.82,.61,.82,1.29,.85,2.05,.15,.15-.14,.3-.29,.41-.46,.38-.6,.73-1.22,1.12-1.81,.16-.24,.41-.42,.68-.7,.52,1.04,.99,1.93,2.04,2.35,.03-.18,.05-.27,.05-.36-.04-2.24-1.16-3.79-3.07-4.86-1.39-.78-2.9-.95-4.46-.9-.3,.01-.61-.08-.91-.13Z"/>
          <path class="cls-12" d="M-6.38,82.39c.22-.02,.45-.01,.67-.06,1.79-.42,3.49-.2,5.06,.79,.83,.52,1.24,1.38,1.67,2.21-1.28,1.18-2.58,2.35-3.84,3.56-.68,.65-1.3,1.36-1.94,2.05-.32-.44-.52-.09-.67,.14-.26,.39-.45,.83-.73,1.21-.34,.47-.74,.91-1.12,1.35-.08,.09-.18,.17-.26,.25-.91-1.58-1.79-3.13-2.68-4.66-.24-.42-.26-.86,.01-1.22,.42-.56,.92-1.06,1.37-1.61,.33-.4,.68-.81,.93-1.27,.11-.2,.02-.52,.03-.79,.5-.65,1.01-1.3,1.51-1.95Z"/>
          <path class="cls-21" d="M63.58,103.63c-.16-.09-.34-.29-.48-.27-1.68,.3-3.31,.08-4.81-.65-.91-.44-1.7-1.14-2.51-1.77-.14-.11-.11-.48-.11-.73,0-.19,.08-.39,.12-.58,.24-.07,.49-.12,.73-.2,2.01-.67,4.18-2.62,3.65-5.52,.46-.62,.11-1.15-.2-1.69,0-.07,0-.14,0-.21,.6-.14,1.2-.28,1.79-.42-.03,1.48,.69,2.53,1.92,3.29,.57,.58,1.15,1.16,1.72,1.74,0,.28-.04,.55-.02,.83,.11,1.47-.09,2.89-.71,4.23-.31,.67-.72,1.3-1.09,1.95Z"/>
          <path class="cls-10" d="M37.13,86.85c1.36-1.98,2.2-4.13,2.07-6.57-.03-.58-.28-1.15-.41-1.73-.06-.27-.09-.54-.13-.81,2.65,2.25,4.58,4.91,4.29,8.57-.19,2.35-1.35,4.32-3.12,5.9-.63,.56-1.39,.89-2.28,.99-1.07-1.71-2.69-2.84-4.32-3.96,1.62-.29,2.99-.97,3.92-2.39Z"/>
          <path class="cls-10" d="M68.27,65.81c.3,.05,.61,.14,.91,.13,1.56-.05,3.07,.12,4.46,.9,1.91,1.07,3.03,2.62,3.07,4.86,0,.09-.02,.18-.05,.36-1.05-.43-1.52-1.31-2.04-2.35-.27,.27-.51,.45-.68,.7-.39,.59-.74,1.21-1.12,1.81-.11,.17-.26,.33-.41,.46-.77,.69-1.44,.67-2.05-.15-.4-.54-.7-1.15-1.09-1.82-.6,.49-1.29,1.06-1.97,1.63,.1-.56,.23-1.12,.29-1.68,.06-.6-.23-.84-.78-.62-.59,.23-1.15,.56-1.72,.85-.65,.33-1.29,.67-1.93,1.01,.05-.7,.05-1.41,.15-2.11,.07-.49,.26-.97,.4-1.45,1.32-1.21,2.85-2.01,4.56-2.51Z"/>
          <path class="cls-27" d="M64.52,36.85c1.22-.94,2.6-1.46,4.15-1.42,1.12,.03,2.1,.46,2.92,1.24,1.21,1.15,1.89,2.58,2.18,4.21-.24,.24-.48,.46-.71,.71-.46,.5-.86,1.06-1.37,1.49-.96,.79-2.11,.88-3.3,.74-.4-.05-.8,0-1.2,0-.69-.32-.86-.8-.63-1.68,.05-.18,.02-.5-.09-.57-.2-.13-.51-.21-.73-.16-.22,.05-.39,.29-.59,.44-.02-.09-.02-.2-.08-.26-.77-.99-.95-2.09-.68-3.3,.1-.46,.09-.95,.14-1.43Z"/>
          <path class="cls-19" d="M68.41,53.51c.17,1.03,.28,2.08,.53,3.09,.34,1.38,.91,2.68,1.68,3.89,.12,.19,.1,.48,.15,.72-1.34-.13-2.69-.16-4.01-.4-2.82-.53-4.42-2.27-4.97-5.01-.09-.45,.01-.79,.44-1.12,.39-.3,.61-.81,.9-1.23,.47-.68,.95-1.36,1.48-2.12,1.38,.52,2.93,.44,4.49,.08l.04,.04c-.25,.48-.51,.95-.76,1.43-.11,.21-.31,.44,.04,.62Z"/>
          <path class="cls-20" d="M27.73,106.8c.96,.5,2,.52,2.99,.31,1.17-.25,2.3-.7,3.45-1.06,.15-.05,.31-.07,.46-.1-.81,1.48-2.03,2.5-3.62,3.03-2.39,.8-4.85,1.34-7.36,1.48-1.12,.06-2.29-.18-3.4-.43-1.11-.25-1.79-1.09-2.22-2.11-.29-.68-.14-1.28,.32-1.87,.44-.57,.92-.66,1.63-.62,1.56,.09,3.13,.03,4.69,0,.33,0,.56-.02,.81,.31,.54,.73,1.39,.94,2.25,1.05Z"/>
          <path class="cls-10" d="M40.03,77.03c1.3-.92,1.81-2.25,1.95-3.78,.22-2.27-.23-4.41-1.1-6.49-.09-.21-.11-.44-.16-.66,1.95,1.31,3.34,3.08,4.11,5.3,.98,2.83,1.05,5.69-.1,8.5-.27,.65-.66,1.25-1.08,1.87-.88-1.87-2.18-3.36-3.62-4.74Z"/>
          <path class="cls-10" d="M40.15,43.11c.12,.09,.29,.15,.35,.27,.4,.72,1.01,1.04,1.83,.99,.27-.02,.54,0,.98,0-.15,.32-.21,.55-.35,.72-.12,.16-.31,.3-.49,.37-1.57,.62-1.88,2.12-2.43,3.46-.09,.23-.13,.49-.14,.74-.06,.86,.17,1.16,1.01,1.36,.62,.15,1.25,.27,1.88,.42,.14,.03,.27,.12,.42,.32-.26,.1-.52,.21-.79,.28-.52,.15-.82,.35-.9,1-.16,1.27-.12,2.46,.44,3.63,.26,.53,.57,.7,1.08,.45,.37-.18,.69-.44,1.05-.65,.31-.19,.63-.36,1.05-.6-.01,.76-.36,1.14-.71,1.47-.33,.31-.44,.66-.35,1.05,.52,2.17,1.16,4.3,2.47,6.16,.09,.13,.27,.2,.41,.3,.04,.68,.07,1.35,.11,2.17-.47-.61-.84-1.15-1.26-1.64-.13-.16-.38-.22-.57-.33-.11-.07-.27-.11-.33-.21-.59-.97-1.17-1.94-1.74-2.93-.07-.12-.04-.31-.06-.46,.45-.07,.26-.34,.15-.56-.28-.56-.57-1.1-.85-1.66-.13-.27-.24-.54-.35-.8,.21-.31,.4-.6,.59-.88-.04-.05-.08-.1-.12-.16-.24,.08-.49,.17-.73,.25-.91,.33-1.35,.17-1.65-.75-.45-1.36-.43-2.72,.24-4.02,.4-.78,.26-1.02-.63-1.01-1.73,.02-2.39-.99-1.5-2.5,.58-.98,1.36-1.85,2.08-2.74,.52-.65,.51-.81-.21-1.16-.59-.29-.8-.68-.58-1.29,.14-.38,.4-.71,.6-1.06Z"/>
          <path class="cls-25" d="M53.34,60.71c1.06,.06,1.77,.68,2.34,1.5,1.03,1.5,1.37,3.2,1.3,4.98-.04,.93-.24,1.86-.37,2.79-.03,.19-.06,.38-.1,.58,.04,.03,.08,.05,.12,.08,.14-.09,.28-.18,.41-.27,.83-.24,1.07-.97,1.23-1.67,.18-.77,.18-1.58,.32-2.37,.06-.33,.27-.63,.41-.95,1.31,1.13,1.87,2.59,1.84,4.29-.2,.33-.39,.67-.61,1-.37,.54-.9,.86-1.54,.95-3,.43-6.39-2.61-5.66-5.96,.17-.78,.4-1.55,.59-2.33,.05-.2,.13-.41,.11-.6-.03-.33-.21-.32-.41-.11-.23,.05-.45,.11-.68,.16,.04-.24,.05-.49,.13-.72,.17-.46,.38-.91,.57-1.36Zm2.3,8.49c.13-.32,.26-.54,.3-.78,.09-.47,.16-.95,.17-1.43,.01-.44,0-.91-.13-1.33-.07-.22-.43-.51-.62-.48-.36,.06-.39,.42-.36,.78,.04,.45,.01,.9,0,1.35-.01,.65-.15,1.33,.63,1.88Zm3.2,.95c.7-.48,.81-.9,.62-1.83-.19,.56-.38,1.13-.62,1.83Z"/>
          <path class="cls-10" d="M20.11,51.56c.2,.14,.43,.25,.6,.42,2.03,2.01,4.42,3.38,7.25,3.8,1.43,.21,2.92,.09,4.38,.08,.64,0,1.28-.09,1.91-.14-.02,.69-.03,1.37-.05,2.06-.09,0-.2,0-.27,.03-1.8,.88-3.7,.81-5.6,.53-3.01-.44-5.86-1.29-8.32-3.19-.19-.14-.45-.19-.68-.28,.26-1.11,.52-2.21,.77-3.32Z"/>
          <path class="cls-20" d="M19.34,54.88c.23,.09,.5,.13,.68,.28,2.46,1.89,5.31,2.75,8.32,3.19,1.9,.28,3.8,.35,5.6-.53,.08-.04,.18-.02,.27-.03-.16,1.06-.32,2.12-.49,3.23-5.54-1.31-10.94-2.46-16.46-.7,.71-1.85,1.39-3.64,2.08-5.43Z"/>
          <path class="cls-6" d="M87.93,28.72c.67,.37,1.34,.74,2,1.12,.22,.12,.42,.27,.63,.41,.41,.29,.8,.61,1.23,.87,1.54,.9,3.15,1.46,4.98,1.08,1.98-.42,3.38-1.48,4-3.44,.23-.73,.38-1.49,.57-2.24,.42,1.07,.35,2.18,.22,3.28-.07,.62-.32,1.22-.48,1.84-.08,.03-.19,.05-.24,.11-1.57,2-3.71,3.09-6.08,3.81-1.42,.43-2.76,.38-3.89-.75-.07-.07-.2-.08-.31-.12-.14-.67-.26-1.35-.43-2.01-.38-1.51-1.28-2.73-2.2-3.94Z"/>
          <path class="cls-9" d="M101.33,26.51c-.19,.75-.34,1.51-.57,2.24-.62,1.96-2.02,3.02-4,3.44-1.83,.39-3.44-.18-4.98-1.08-.43-.25-.82-.58-1.23-.87,.25-.66,.93-.44,1.4-.65,.37-.17,.85-.12,1.27-.19,.2-.03,.47-.05,.57-.19,.31-.45,.81-.46,1.24-.64,.71-.3,1.34-.72,1.77-1.39,.41,.04,.82,.15,1.22,.11,1.63-.18,1.99-1.42,1.74-2.7-.22-1.15-.95-2.02-1.61-2.93,.05-.1,.1-.21,.16-.31,.08,.03,.19,.04,.25,.1,1.37,1.44,2.49,3.01,2.77,5.05Z"/>
          <path class="cls-6" d="M56.63,82.55c.05,.33,.05,.68,.15,1,.41,1.35,.48,2.68-.14,3.98-.13,.03-.3,.02-.39,.09-.85,.66-1.79,1.08-2.87,1.22-1.29,.17-2.42-.13-3.38-.98-1.26-1.1-1.7-2.59-1.77-4.19-.03-.74,.16-1.49,.25-2.24,.34-.54,.61-1.14,1.03-1.6,.81-.89,1.71-1.7,2.57-2.55,.46-.18,.93-.37,1.39-.55,.51,.25,1.02,.51,1.53,.76-.46,.23-.99,.38-1.37,.71-1.44,1.26-2.74,2.65-3.27,4.58-.4,1.47-.02,2.87,1.14,3.61,.51,.32,1.12,.48,1.69,.71,.36-.04,.72-.07,1.08-.14,1.15-.21,1.85-1.03,1.82-2.21-.02-.81-.12-1.61-.19-2.49,.25,.09,.49,.18,.73,.27Z"/>
          <path class="cls-4" d="M72.84,47.28c-.43,.36-.89,.71-1.3,1.09-.34,.33-.64,.7-.95,1.06-.61,.71-1.4,1.07-2.31,1.23-1.16,.2-2.3,.13-3.4-.29-.19-.07-.44-.25-.46-.41-.31-1.93-1.43-3.33-2.94-4.42-.68-.49-.93-1.02-.82-1.79,.1-.68,.22-1.35,.33-2.03,.29-.03,.45,.08,.55,.37,.15,.4,.3,.85,.58,1.15,.75,.81,1.57,1.55,2.36,2.31,.5,.07,.67,.36,.62,.85-.05,.54,.19,.73,.71,.61,.13-.03,.25-.11,.37-.17,.52,.07,1.04,.14,1.55,.22,1.65,.25,3.22-.1,4.76-.67,.29-.11,.6-.16,.9-.24-.12,.28-.25,.56-.37,.84-.06,.09-.12,.18-.18,.28Z"/>
          <path class="cls-10" d="M63.58,103.63c.37-.65,.77-1.28,1.09-1.95,.62-1.34,.82-2.76,.71-4.23-.02-.27,.01-.55,.02-.83,.22,.16,.43,.32,.65,.49,.1,.25,.14,.55,.31,.74,.37,.4,.81,.74,1.21,1.12,.19,.18,.45,.37,.53,.6,.51,1.62,.64,3.27,.22,4.93-.16,.64-.39,1.26-.59,1.88-1.52,.23-3.03,.45-4.55,.68-.56,.08-1.13,.17-1.69,.25,.14-.38,.22-.79,.43-1.13,.45-.71,.98-1.37,1.47-2.06,.1-.14,.14-.32,.21-.49Z"/>
          <path class="cls-20" d="M43.1,61.44c.02,.16-.01,.34,.06,.46,.57,.98,1.15,1.96,1.74,2.93,.06,.1,.22,.14,.33,.21-.13,.71,.2,1.3,.56,1.86,.38,.57,.79,1.12,1.18,1.68-.24-.07-.5-.1-.7-.22-1.27-.77-2.32-1.78-3.2-2.97-.46-.62-.91-1.26-1.42-1.85-.46-.53-1.02-.99-1.5-1.5-1.25-1.33-2.54-2.54-4.59-2.2,.08-1.19,.17-2.38,.26-3.71h3.01c.34,1.22,.64,2.68,2.5,2.59,.59,.92,1.17,1.82,1.75,2.72Z"/>
          <path class="cls-28" d="M63.12,53.45c-.29,.42-.51,.93-.9,1.23-.43,.33-.53,.67-.44,1.12,.55,2.75,2.16,4.49,4.97,5.01,1.32,.25,2.67,.27,4.01,.4,1.65-.04,3.3-.14,4.95-.09,2.05,.07,4.08,.4,5.79,1.63,1.01,.73,1.74,1.69,1.71,3.04-.27,.19-.55,.39-.94,.66,.04-1.07-.33-1.84-.96-2.5-.92-.96-2.1-1.25-3.36-1.35-.09,0-.19,0-.28-.01-.14,0-.27,0-.41,0-.18-.09-.36-.25-.55-.25-.96,.02-1.92,.09-2.88,.12-1.53,.05-3.07,.14-4.6,.13-2.21,0-4.28-.52-6.01-1.97-1.61-1.35-2.63-3.04-2.58-5.23,.01-.58,.11-1.1,.81-1.25,.12-.03,.21-.21,.32-.32,.45-.13,.89-.26,1.34-.39Z"/>
          <path class="cls-27" d="M18.59,61.56c.08,.74-.47,1.26-.69,1.9-.41,1.16-.9,2.29-1.23,3.47-.43,1.53-.29,3.13-.3,4.7-.41-.05-.82-.06-1.22-.15-1.27-.28-2.44-.74-2.88-2.11-.24-.73-.36-1.5-.53-2.24,1.42-2.91,3.73-4.73,6.85-5.56Z"/>
          <path class="cls-9" d="M53.19,87.12c-.57-.23-1.18-.39-1.69-.71-1.15-.74-1.54-2.14-1.14-3.61,.53-1.93,1.82-3.32,3.27-4.58,.38-.33,.91-.48,1.37-.71,1.2,.27,2.39,.66,3.61,.76,1.11,.09,1.95,.29,2.28,1.49,.08,.27,.41,.48,.62,.71-.19,.02-.39,.05-.58,.08-.14,.02-.27,.06-.41,.09-.71-.46-1.32-1.07-2.24-1.44,.17,.61,.31,1.09,.44,1.56-1.14,.08-2.24,.28-3.19,1.01-.18,.14-.46,.16-.69,.24v-1.86c-1.07,.46-2.34,2.02-2.47,3.05-.13,1-.02,1.94,.96,2.53-.05,.46-.1,.93-.14,1.39Z"/>
          <path class="cls-7" d="M62.46,91.28c.38-.29,.79-.56,1.14-.88,1.25-1.13,1.84-2.55,1.78-4.24,0-.25,0-.5,0-.83,.41,.6,.75,1.18,1.17,1.71,.82,1.05,1.7,2.06,2.51,3.11,.72,.93,1.37,1.9,1.69,3.05-.17,.11-.37,.19-.52,.33-.48,.49-1.05,.66-1.74,.65-1.06-.01-2.01-.39-2.97-.76-1.2-.47-2.12-1.33-3.07-2.15Z"/>
          <path class="cls-19" d="M54.63,51.84c-.87,1.74-1.81,3.45-2.61,5.23-1.18,2.61-1.97,5.33-2.02,8.23-.66-1.82-.52-3.65-.08-5.5-.94,1.55-1.35,3.22-1.08,5,.17,1.08,.5,2.14,.76,3.2-.19-.28-.42-.53-.55-.83-.35-.77-.66-1.56-.98-2.34-.11-1.86,.14-3.69,.69-5.45,.64-2.03,1.45-4.02,2.2-6.02,.09-.25,.27-.47,.41-.71,.13-.04,.28-.05,.38-.13,.86-.62,1.83-.8,2.86-.7Z"/>
          <path class="cls-27" d="M59.97,92.02c0,.07,0,.14,0,.21-.28,.12-.63,.18-.83,.38-.37,.36-.66,.81-.99,1.22-.44,.55-.84,1.16-1.36,1.63-.35,.32-.87,.57-1.34,.64-1.32,.18-2.54-.21-3.64-.96,.16-.59,.31-1.19,.48-1.77,.2-.67,.42-1.33,.63-1.97-.19-.1-.45-.24-.7-.37,1.08,.05,2.16,.04,3.16-.47,1.28,1.32,2.94,1.37,4.59,1.47Z"/>
          <path class="cls-10" d="M71.71,97.19c.59,2.26,1.44,4.42,2.92,6.24,.51,.62,1.44,.95,2.23,1.26,1.39,.53,2.88,.79,4.12,1.68,.42,.3,.96,.53,1.18,1.18-.58-.08-1.06-.14-1.54-.21-.03-.08-.04-.19-.1-.25-1.27-1.28-3.87-1.69-5.47-.86-.12-.06-.23-.15-.35-.18-1.56-.41-2.75-1.26-3.42-2.77-.09-.21-.33-.35-.5-.52,0-1.12,0-2.23-.01-3.35-.01-.5-.09-1-.14-1.5,.36-.24,.72-.48,1.08-.71Z"/>
          <path class="cls-14" d="M90.56,34.67c.1,.04,.24,.05,.31,.12,1.13,1.13,2.47,1.18,3.89,.75,2.37-.72,4.51-1.81,6.08-3.81,.05-.06,.16-.07,.24-.11-.2,1.12-.82,2.03-1.52,2.88-1.48,1.8-3.24,3.24-5.51,3.96-1.09,.34-2.19,.48-3.3,.11-.23-.08-.46-.18-.59-.23,.14-1.28,.27-2.48,.41-3.67Z"/>
          <path class="cls-1" d="M73.4,46.16c-.3,.08-.61,.13-.9,.24-1.54,.57-3.11,.92-4.76,.67-.52-.08-1.04-.15-1.55-.22,.75-.88,.93-1.94,.99-3.04,.4,0,.81-.04,1.2,0,1.19,.14,2.34,.05,3.3-.74,.52-.42,.91-.99,1.37-1.49,.23-.25,.47-.47,.71-.71,.35,1.79,.32,3.56-.37,5.28Z"/>
          <path class="cls-10" d="M38.52,100.82c.13,.12,.27,.22,.37,.35,.76,.97,1.43,2.03,2.29,2.9,1.93,1.96,4.27,3.27,6.9,4.08,.24,.07,.45,.25,.68,.37-.64-.05-1.3,0-1.9-.17-2.07-.54-4.11-1.18-6.17-1.72-1.37-.35-2.77-.59-4.05-.86,.6-1.59,1.24-3.27,1.88-4.96Z"/>
          <path class="cls-20" d="M8.06,75.53c-.25-.19-.53-.36-.74-.59-.99-1.12-2.17-1.88-3.67-2.1-.2-.03-.38-.2-.57-.31,2.02-1.83,4.31-3.27,6.81-4.64-.52,2.25-1.35,4.37-.25,6.59-.52,.35-1.05,.7-1.58,1.05Z"/>
          <path class="cls-22" d="M47.95,70.51c.93,1.95,2.17,3.67,3.94,5.06-.59,1.38-1.79,2.13-2.85,3-.22-.63-.42-1.26-.66-1.87-.31-.76-.57-.87-1.39-.65-.07-1.14-.06-2.29-.22-3.42-.23-1.56-.91-2.97-1.77-4.29,.24,.15,.5,.27,.71,.45,.73,.61,1.31,1.39,2.25,1.72Z"/>
          <path class="cls-14" d="M70.64,29.41c.22,.11,.47,.17,.64,.33,1.59,1.44,2.89,3.13,4.21,4.81,1.62,2.07,3.39,4,5.84,5.12,2.15,.98,4.29,1.09,6.36-.26,.14-.09,.34-.11,.51-.17-.7,1.26-1.88,1.87-3.2,2.2-2.02,.5-3.81-.23-5.48-1.26-1.98-1.22-3.43-2.97-4.75-4.84-1.4-1.97-2.76-3.95-4.14-5.93Z"/>
          <path class="cls-10" d="M62.46,91.28c.95,.83,1.88,1.68,3.07,2.15,.96,.38,1.91,.75,2.97,.76,.69,0,1.25-.17,1.74-.65,.14-.14,.34-.22,.52-.33,.14,.6,.36,1.19,.39,1.79,.05,.93-.47,1.5-1.38,1.7-.84,.19-1.67,.08-2.43-.27-1.06-.49-2.06-1.1-3.08-1.66-.22-.12-.48-.43-.58,.11-1.22-.75-1.94-1.8-1.92-3.29,.23-.1,.47-.21,.7-.31Z"/>
          <path class="cls-7" d="M76.7,39.25c1.02,.77,2.02,1.58,3.08,2.28,.58,.39,1.28,.6,1.92,.89-.22,.99-.9,1.62-1.69,2.17-.22,.15-.37,.39-.56,.6-.84,.05-1.69,.1-2.56,.15-.03-.43-.06-.91-.1-1.38-.97,0-1.22-.76-.57-2h-.71c-.35-1.26,.09-2.28,1.19-2.72Z"/>
          <path class="cls-28" d="M48.08,64.84c.32,.78,.63,1.57,.98,2.34,.14,.3,.36,.55,.55,.83h-.01c.05,.1,.09,.2,.14,.29h0c.04,.09,.09,.19,.13,.29,.61,.89,1.15,1.82,1.84,2.65,1.37,1.64,2.93,3.07,4.94,3.91,.84,.35,1.71,.55,2.62,.47,.3-.03,.6-.11,.26-.5,.95,0,1.91,.04,2.86-.04,.53-.04,1.05-.29,1.57-.44-.17,.25-.3,.57-.53,.75-.92,.67-1.96,1.1-3.1,1.21-2.78,.27-5.21-.63-7.29-2.43-1.84-1.59-3.29-3.51-4.29-5.75-.05-.1-.18-.17-.27-.26-.14-1.11-.28-2.21-.41-3.32Z"/>
          <path class="cls-16" d="M61.78,53.84c-.1,.11-.19,.3-.32,.32-.7,.15-.79,.67-.81,1.25-.05,2.19,.97,3.88,2.58,5.23,1.72,1.45,3.8,1.96,6.01,1.97,1.53,0,3.07-.08,4.6-.13,.96-.03,1.92-.1,2.88-.12,.18,0,.36,.16,.55,.25-1.59,.22-3.18,.46-4.77,.65-2.6,.31-5.2,.39-7.69-.57-2.91-1.11-4.58-3.3-5.11-6.34-.27-1.53-.17-2.12,.21-3.08,.63,.19,1.25,.38,1.88,.57Z"/>
          <path class="cls-10" d="M47.95,70.51c-.94-.33-1.52-1.11-2.25-1.72-.21-.18-.47-.3-.71-.45h0c-.04-.06-.08-.11-.12-.16-2.49-3.29-5.86-5.29-9.68-6.64-.1-.04-.21-.09-.31-.13,.24-.54,.46-1.06,.68-1.58,2.05-.35,3.34,.86,4.59,2.2,.48,.52,1.04,.97,1.5,1.5,.51,.58,.96,1.22,1.42,1.85,.88,1.19,1.93,2.21,3.2,2.97,.2,.12,.47,.15,.7,.22,.55,.53,.82,1.21,.98,1.93Z"/>
          <path class="cls-14" d="M56.93,26.23s.06,0,.07,.01c1.15,1.54,2.82,1.28,4.4,1.21,1.27-.06,2.53-.25,3.8-.4,.1-.01,.2-.08,.3-.12,.98,.27,1.89,.67,2.64,1.38h0c-1.07-.05-2.15-.11-3.22-.14-2.55-.07-4.93,.63-7.22,1.7-.73,.34-1.43,.72-2.14,1.08h-.01c.14-.66,.24-1.32,.43-1.94,.29-.93,.64-1.85,.97-2.77Z"/>
          <path class="cls-1" d="M64.49,45.56c-.79-.77-1.61-1.51-2.36-2.31-.28-.3-.44-.75-.58-1.15-.11-.29-.26-.4-.55-.37,.6-2.04,1.73-3.7,3.52-4.88-.04,.48-.03,.96-.14,1.43-.27,1.21-.09,2.31,.68,3.3,.05,.07,.05,.17,.08,.26-.67,1.16-.82,2.42-.64,3.73Z"/>
          <path class="cls-10" d="M11.74,67.12c.17,.75,.3,1.52,.53,2.24,.45,1.37,1.62,1.83,2.88,2.11,.4,.09,.81,.1,1.22,.15,.35,.12,.71,.24,1.06,.36,0,.05,.01,.1,.02,.16-1.15,.38-2.31,.77-3.46,1.15-1.13,.17-2.26,.35-3.49,.54-.26-2.29,.37-4.52,1.24-6.71Z"/>
          <path class="cls-8" d="M53.32,62.63c.21-.21,.38-.22,.41,.11,.02,.2-.06,.4-.11,.6-.2,.78-.42,1.54-.59,2.33-.73,3.35,2.66,6.38,5.66,5.96,.64-.09,1.17-.41,1.54-.95,.22-.32,.41-.66,.61-1,.07,.88-.01,1.73-.45,2.52-.16,.07-.32,.17-.49,.22-.52,.16-1.05,.46-1.56,.43-1.26-.09-2.47-.44-3.49-1.26-.15-.12-.36-.15-.55-.22-1.18-.94-1.99-2.16-2.59-3.53-.09-.21-.1-.49-.07-.73,.07-.64,.14-1.28,.28-1.91,.18-.8,.55-1.52,1.25-2.01,.22-.16,.33-.31,.14-.56Z"/>
          <path class="cls-10" d="M51.95,47.4c-.26-.1-.72-.18-.73-.31-.03-.26,.11-.62,.3-.82,.52-.56,1.2-.59,1.91-.46,1.24,.23,2.34,.79,3.39,1.45,1.34,.84,2.65,1.73,3.98,2.58,.8,.51,1.67,.74,2.63,.62-.14,.55-.28,1.11-.42,1.66-.94,0-1.89,.09-2.79-.26-.23-.39-.48-.78-.69-1.18-.4-.81-.97-1.45-1.74-1.91-.75-.44-1.51-.88-2.28-1.28-.97-.5-2-.64-3.08-.49-.23,.03-.55-.01-.48,.4Z"/>
          <path class="cls-6" d="M63.62,83.1c.2,.61,.44,1.21,.6,1.84,.11,.43,.1,.89,.14,1.34-.1,.09-.22,.16-.29,.26-.32,.47-.6,.97-.94,1.43-1.16,1.56-2.9,2.06-4.74,1.35-.36-.14-.73-.27-1.09-.4,.16-.47,.32-.94,.48-1.4,.25,.04,.49,.08,.74,.12,1.37,.18,2.55-.19,3.51-1.2,.8-.64,1.02-1.56,1.25-2.49,.07-.29,.22-.56,.33-.84Z"/>
          <path class="cls-3" d="M87.9,56.68c-.41,.14-.81,.28-1.22,.42-.05-.48-.08-.96-.15-1.44-.25-1.61-.75-3.12-1.64-4.5-.96-1.49-2.18-2.66-3.75-3.48,.11-.28,.21-.57,.32-.85,.53,.23,1.09,.41,1.59,.69,2.63,1.46,3.92,3.86,4.58,6.67,.19,.81,.19,1.66,.28,2.49Z"/>
          <path class="cls-16" d="M48.49,68.16c.09,.08,.22,.15,.27,.26,1,2.24,2.44,4.15,4.29,5.75,2.08,1.8,4.51,2.7,7.29,2.43,1.14-.11,2.18-.53,3.1-1.21,.23-.17,.36-.49,.53-.75v.02c.14-.09,.28-.19,.42-.28h0s.1-.09,.15-.14h0s.1-.09,.15-.14h0s.1-.09,.15-.14c0,0,0,0,0,0,.09-.14,.19-.28,.28-.42,0,0,0,0,0,0,.81-.47,.92-1.28,1.01-2.1,.09-.06,.19-.12,.29-.19,.09,2.18-1.62,4.67-3.72,5.48-2.36,.91-4.67,.6-6.93-.29-3.67-1.45-6.18-3.99-7.19-7.89-.03-.13-.03-.27-.05-.41Z"/>
          <path class="cls-18" d="M59.53,75.12c.34,.39,.04,.47-.26,.5-.91,.08-1.79-.12-2.62-.47-2.01-.84-3.57-2.27-4.94-3.91-.68-.82-1.23-1.76-1.84-2.65-.04-.1-.09-.2-.13-.29h0c-.05-.09-.09-.18-.14-.28h.01c-.26-1.08-.6-2.13-.76-3.21-.27-1.78,.13-3.46,1.08-5-.43,1.84-.58,3.68,.08,5.5,.49,4.46,2.98,7.41,7.01,9.14,.79,.34,1.68,.46,2.52,.68Z"/>
          <path class="cls-14" d="M48.47,81.44c-.09,.75-.28,1.5-.25,2.24,.07,1.6,.51,3.09,1.77,4.19,.96,.84,2.09,1.15,3.38,.98,1.08-.14,2.02-.56,2.87-1.22,.1-.08,.26-.06,.39-.09-.39,1.52-1.55,2.33-3.25,2.49-2.71,.24-5.35-1.67-5.95-4.3-.26-1.14,.02-2.23,.48-3.28,.15-.35,.37-.67,.55-1Z"/>
          <path class="cls-10" d="M5.21,82.82c.88,.99,2.04,1.55,3.29,1.86,1.21,.3,2.46,.44,3.7,.75-1.06,.69-2.2,1.13-3.39,1.44-.74,.23-1.48,.46-2.25,.71-.65-1.47-1.65-2.93-1.35-4.76Z"/>
          <path class="cls-6" d="M92.07,15.98c.37-.16,.76-.3,1.11-.5,1.05-.6,1.48-1.62,1.79-2.72,.06-.22,.11-.44,.17-.66,.93,.82,1.73,1.75,2.2,2.92-.06,.07-.14,.13-.17,.21-.26,.95-.68,1.79-1.6,2.28-.03,.01-.02,.09-.03,.13-1.15-.55-2.31-1.11-3.46-1.66Z"/>
          <path class="cls-10" d="M68.26,34.23s0-.05,0-.07c.44-.68,.55-1.32-.16-1.91,1.29-.24,2.42,.19,3.55,.77,.95,.49,1.31,1.39,1.9,2.16,.6,.78,.93,1.53,.43,2.49-.14,.27-.14,.62-.2,.93-.52-.74-1.04-1.48-1.56-2.22,.04-.05,.08-.1,.11-.15,.16,.09,.33,.18,.59,.33-.54-1.3-2.58-2.26-4.68-2.32Z"/>
          <path class="cls-26" d="M53.19,87.12c.05-.46,.1-.93,.14-1.39,.07,0,.14,0,.21,.01,1.45,.04,2.06-.8,1.62-2.2-.16-.49-.21-1.02-.31-1.53,.23-.08,.51-.1,.69-.24,.94-.73,2.04-.93,3.19-1.01,.36,.79,.46,1.63,.42,2.49-.6,.05-1.19,.09-1.79,.14-.1-.23-.18-.47-.32-.67-.07-.1-.26-.12-.4-.17-.24-.09-.48-.18-.73-.27,.07,.88,.17,1.68,.19,2.49,.02,1.18-.67,2-1.82,2.21-.36,.07-.72,.09-1.08,.14Z"/>
          <path class="cls-10" d="M41.29,92.8c-.22,.49-.44,.98-.71,1.56,.72,.51,1.5,1.09,2.59,1.08,1.1-.01,1.75-.87,2.62-1.4-.31,1.43-1.81,2.68-3.17,2.78-1.23,.09-2.3-.26-3.26-1.02-.22-.18-.52-.25-.79-.37-.1-.28-.2-.55-.33-.89,1.31-.11,2.17-.95,3.05-1.74Z"/>
          <path class="cls-20" d="M67.72,106.37c.2-.63,.42-1.25,.59-1.88,.42-1.66,.3-3.31-.22-4.93-.07-.23-.33-.41-.53-.6-.4-.38-.84-.71-1.21-1.12-.17-.19-.21-.49-.31-.74,1.05,.58,2.11,1.12,3.46,1.04,.48,2.79-.12,5.46-.75,8.21h-1.04Z"/>
          <path class="cls-14" d="M57.31,88.92c.36,.13,.73,.26,1.09,.4,1.84,.71,3.58,.21,4.74-1.35,.34-.46,.62-.96,.94-1.43,.07-.1,.19-.18,.29-.26,.17,1.81-.84,2.96-2.21,3.91-.75,.52-1.55,.76-2.46,.68-.77-.07-1.55-.09-2.33-.15-.15-.01-.31-.08-.45-.15-.64-.29-.67-.45-.17-.98,.2-.22,.39-.45,.58-.67Z"/>
          <path class="cls-15" d="M57.36,83.39c.6-.05,1.19-.09,1.79-.14,.04,.29,.1,.58,.12,.87,.11,1.49,1.32,2.34,2.5,1.76,.09,.18,.18,.37,.27,.55-.96,1.02-2.14,1.38-3.51,1.2-.25-.03-.49-.08-.74-.12,.28-1.42,.13-2.8-.44-4.13Z"/>
          <path class="cls-10" d="M70.77,80.94c-.1,.08-.18,.19-.29,.25-1.42,.66-2.66,1.53-3.53,2.87-.14,.21-.32,.39-.48,.59-.38-.54-.77-1.08-1.17-1.65,.67-.74,1.16-1.53,.95-2.62,1.58-.07,3.07,.09,4.52,.57Z"/>
          <path class="cls-7" d="M37.13,86.85c-.92,1.42-2.3,2.1-3.92,2.39-.76-.39-1.52-.78-2.27-1.17-.07-.33,0-.49,.4-.53,1.4-.16,2.81-.32,4.2-.58,.54-.1,1.04-.34,1.59-.11Z"/>
          <path class="cls-10" d="M4.9,88.8c-1.18-.97-2.47-1.53-4.04-1.13-.09,.02-.18,0-.27,0,1.09-.98,2.19-1.96,3.35-3,.41,1.29,.57,2.63,1.73,3.56-.27,.2-.52,.39-.76,.57Z"/>
          <path class="cls-22" d="M79.45,45.19c.18-.2,.34-.45,.56-.6,.8-.55,1.47-1.18,1.69-2.17,.69-.02,1,.34,1.1,1,.14,.95,.33,1.88,.51,2.84-1.19-.35-2.28-.67-3.38-.99l-.47-.09h0Z"/>
          <path class="cls-22" d="M76.7,39.25c-1.1,.44-1.55,1.46-1.19,2.72-.58,.96-.53,2.02-.59,3.08-.24-2.63-1.05-5.26-.13-7.97,.67,.76,1.29,1.47,1.92,2.17Z"/>
          <path class="cls-14" d="M95.53,17.64s0-.12,.03-.13c.92-.49,1.34-1.33,1.6-2.28,.02-.08,.11-.14,.17-.21,.95,1.46,1.31,3.06,1.24,4.88-1.08-.81-2.06-1.53-3.04-2.26Z"/>
          <path class="cls-20" d="M70.79,102.76c.17,.17,.4,.31,.5,.52,.68,1.51,1.86,2.36,3.42,2.77,.12,.03,.23,.12,.35,.18-.19,.09-.39,.27-.57,.26-1.4-.09-2.79-.22-4.24-.34,.17-1.11,.36-2.25,.54-3.4Z"/>
          <path class="cls-11" d="M62.04,86.43c-.09-.18-.18-.37-.27-.55,.47-.64,.62-1.3,.46-2.11-.24-1.25-.92-2.21-1.71-3.13,.14-.03,.27-.06,.41-.09,.19-.03,.38-.05,.58-.08,.56,.55,1.14,1.07,1.66,1.65,.23,.26,.31,.65,.46,.98-.11,.28-.26,.55-.33,.84-.23,.93-.45,1.85-1.25,2.49Z"/>
          <path class="cls-10" d="M80.29,107.43c.81,.66,1.66,1.29,2.43,2,.4,.37,.82,.78,.93,1.55-.73-.43-1.34-.8-1.95-1.16-.15-.19-.26-.42-.44-.56-1.5-1.15-3.19-1.91-5.01-2.45,1.45-.47,2.75,.03,4.05,.61Z"/>
          <path class="cls-22" d="M63.46,80.88c-.9-.77-1.9-1.44-2.45-2.58,.66-.18,1.27-.34,1.99-.53,.55,.54,1.13,1.12,1.71,1.7-.17,.69-.64,1.11-1.25,1.42Z"/>
          <path class="cls-10" d="M68,31.37c.08-.14,.17-.27,.28-.46-.33-.39-.67-.78-1-1.19-.15-.19-.25-.41-.38-.62,.92,.21,1.83,.4,2.74,.63,.16,.04,.31,.2,.42,.34,.48,.64,.95,1.29,1.42,1.94-.04,.05-.08,.09-.12,.14-1.03-.66-2.18-.83-3.37-.78Z"/>
          <path class="cls-28" d="M54.63,51.84c-1.04-.1-2,.08-2.86,.7-.1,.08-.25,.09-.38,.13,.59-.89,1.19-1.79,1.78-2.68,.11,.04,.23,.11,.34,.1,.7-.07,1.4-.14,2.05,.24-.31,.5-.62,1.01-.92,1.51Z"/>
          <path class="cls-28" d="M65.36,66.09c-1.19,.73-2.38,1.46-3.6,2.21,.04,.06-.01,.01-.03-.04-.35-1.19-.56-.87,.47-1.79,.58-.51,1.27-.9,1.91-1.34,.22,.1,.46,.18,.64,.32,.23,.18,.4,.42,.6,.64Z"/>
          <path class="cls-4" d="M9.31,107.34s-.08,.09-.12,.13c-1.07-.22-1.69-1.01-2.3-1.82-.04-.05-.05-.15-.1-.18-.76-.36-1.16-1.07-1.65-1.68-.63-.79-1.24-1.61-1.84-2.43-.2-.27-.33-.59-.49-.89-.15-.28-.34-.59,.15-.75,.6,.96,1.14,1.98,1.82,2.88,.98,1.29,1.98,2.58,3.31,3.56,.45,.34,.82,.79,1.22,1.19Z"/>
          <path class="cls-16" d="M65.36,66.09c-.2-.21-.38-.46-.6-.64-.18-.15-.42-.22-.64-.32,.99-.67,2.02-1.07,3.27-.77,.59,.15,1.23,.08,1.95,.11-1.38,.56-2.68,1.09-3.98,1.61Z"/>
          <path class="cls-20" d="M27.56,104.95c.93,.19,1.85,.42,2.79,.57,.42,.07,.86,.01,1.3,.01,.02,.04,.05,.09,.07,.13-.16,.13-.31,.3-.49,.38-.67,.3-1.32,.73-2.12,.46,.22-.43-.02-.47-.36-.43-.85,.12-1.58-.16-2.25-.66-.05-.04-.08-.09-.18-.21,.45-.1,.84-.18,1.24-.27Z"/>
          <path class="cls-10" d="M46.5,83.26c-.3,.19-.59,.39-.9,.57-.41,.24-.82,.49-1.32,.25-.06-.24-.13-.48-.2-.76,.89-.46,1.35-1.29,1.79-2.14l.99,.83c-.12,.41-.24,.83-.36,1.24Z"/>
          <path class="cls-20" d="M63.71,68.31c-.14,.48-.33,.96-.4,1.45-.1,.7-.11,1.41-.15,2.11-.48,.14-.97,.27-1.47,.41,.09-.83,.15-1.51,.24-2.18,.02-.17,.09-.36,.21-.47,.51-.46,1.04-.88,1.56-1.32Z"/>
          <path class="cls-16" d="M64.95,72.59c-.12,.1-.27,.18-.37,.3-.5,.62-1.16,.97-1.93,1.1-.63,.11-1.26,.18-2.05,.29,.3-.55,.51-.95,.75-1.38,1.16,.29,2.14-.12,3.11-.63,.16-.08,.33-.15,.49-.23,0,.18,0,.37,0,.55Z"/>
          <path class="cls-16" d="M54.3,71.36c.18,.07,.4,.11,.55,.22,1.02,.82,2.23,1.17,3.49,1.26,.51,.04,1.04-.27,1.56-.43,.17-.05,.32-.14,.49-.22-.34,.59-.67,1.17-1.03,1.8-1.94-.5-3.68-1.22-5.05-2.64Z"/>
          <path class="cls-16" d="M55.55,50.33c-.65-.38-1.35-.31-2.05-.24-.11,.01-.22-.06-.34-.1,.51-.55,1.01-1.1,1.54-1.62,.1-.1,.36-.13,.49-.07,.41,.18,.79,.42,1.26,.68-.33,.5-.62,.93-.91,1.35Z"/>
          <path class="cls-26" d="M98.31,21.37c-.05,.1-.1,.21-.16,.31-1.24-1.14-2.65-2.03-4.18-2.73-.41-.19-.81-.4-1.22-.6,.1-.24,.19-.48,.29-.72,1.98,.93,3.8,2.08,5.26,3.74Z"/>
          <path class="cls-10" d="M46.99,76.05c.82-.22,1.08-.11,1.39,.65,.25,.61,.44,1.25,.66,1.87l-1.14,1.32c-.05-.02-.11-.04-.16-.06,.04-.7,.05-1.39,.11-2.09,.07-.76-.14-.96-.95-.74,.03-.34,.05-.65,.08-.96Z"/>
          <path class="cls-8" d="M59.01,65.39c-.14,.32-.35,.62-.41,.95-.14,.78-.14,1.59-.32,2.37-.16,.7-.4,1.43-1.23,1.67,1.02-1.81,1.01-3.75,.7-5.88,.49,.35,.88,.62,1.26,.9Z"/>
          <path class="cls-10" d="M63.46,80.88c.6-.31,1.08-.73,1.25-1.42,.84,.96,.83,2.25-.15,2.87-.36-.48-.73-.96-1.1-1.44Z"/>
          <path class="cls-16" d="M51.78,63.74c-.2,.41-.39,.82-.66,1.37,0-1.54,.24-2.88,.6-4.21,.12-.45,.46-.34,.78-.27-.14,.39-.3,.77-.42,1.16-.2,.63-.66,1.23-.3,1.95Z"/>
          <path class="cls-8" d="M51.78,63.74c-.36-.72,.11-1.32,.3-1.95,.12-.39,.28-.77,.42-1.16l.84,.08c-.19,.45-.4,.9-.57,1.36-.08,.22-.09,.48-.13,.72v-.02s-.09,.09-.14,.14c-.24,.28-.48,.55-.72,.83Z"/>
          <path class="cls-20" d="M46.87,82.01l-.99-.83c.28-.82,.57-1.64,.82-2.37,.11,.77,.26,1.63,.36,2.5,.02,.22-.12,.46-.19,.7Z"/>
          <path class="cls-20" d="M60.22,51.85c.91,.35,1.85,.26,2.79,.26-.52,.91-1.39,1.08-2.23,.41-.22-.18-.37-.45-.56-.67Z"/>
          <path class="cls-28" d="M64.95,72.59c0-.18,0-.37,0-.55,.38-.19,.75-.39,1.13-.58-.08,.82-.2,1.63-1.01,2.1,.01-.33,.41-.71-.12-.97Z"/>
          <path class="cls-14" d="M53.47,76.75l-1.39,.55c.18-.36,.35-.73,.58-1.2,.3,.24,.55,.44,.81,.64Z"/>
          <path class="cls-4" d="M53.74,108.41c.01-.2,.03-.4,.04-.62,.51-.08,.92-.06,1.06,.5-.37,.04-.74,.08-1.11,.12Z"/>
          <path class="cls-12" d="M52.78,48.93c0-.17-.05-.38,.02-.5,.18-.27,.43-.5,.66-.74,.15,.03,.29,.06,.53,.11-.45,.42-.83,.77-1.21,1.12Z"/>
          <path class="cls-12" d="M52.36,47.52c-.07,.14-.13,.28-.2,.42l-.21-.53c.14,.04,.27,.08,.41,.12Z"/>
          <path class="cls-7" d="M24.84,86.43c.02-.13,.02-.37,.05-.38,.39-.05,.34,.22,.31,.47-.12-.03-.24-.06-.36-.09Z"/>
          <path class="cls-7" d="M25.79,86.57c.08-.13,.16-.26,.25-.39,.05,.16,.1,.31,.14,.47-.13-.03-.26-.05-.39-.08Z"/>
          <path class="cls-7" d="M29.66,87.54c.02-.12,.05-.24,.07-.36,.05,.02,.11,.04,.16,.06-.05,.11-.1,.22-.15,.33h-.05s-.04-.03-.04-.03Z"/>
          <path class="cls-28" d="M64.39,74.38c-.14,.09-.28,.19-.42,.28,.14-.09,.28-.19,.42-.28Z"/>
          <path class="cls-27" d="M20.23,50.03c.23,.21,.23,.41-.05,.58,.02-.19,.03-.39,.05-.58Z"/>
          <path class="cls-28" d="M65.08,73.55c-.09,.14-.19,.28-.28,.42,.09-.14,.19-.28,.28-.42Z"/>
          <path class="cls-7" d="M79.44,45.19l.47,.09-.47-.09Z"/>
          <path class="cls-10" d="M71.49,32.01c.03,.07,.05,.14,.08,.22-.07-.03-.13-.05-.2-.08,.04-.05,.08-.09,.12-.14Z"/>
          <path class="cls-1" d="M96.31,104.16c-.07-.12-.14-.23-.21-.35,.07,.12,.14,.23,.21,.35Z"/>
          <path class="cls-16" d="M77.68,62.61c.09,0,.19,0,.28,.01-.09,0-.19,0-.28-.01Z"/>
          <path class="cls-1" d="M97.56,106.37c-.07-.12-.14-.23-.21-.35,.07,.12,.14,.23,.21,.35Z"/>
          <path class="cls-1" d="M98.11,107.34c-.07-.12-.14-.23-.21-.35,.07,.12,.14,.23,.21,.35Z"/>
          <path class="cls-1" d="M72.84,47.28c.06-.09,.12-.18,.18-.28-.06,.09-.12,.18-.18,.28Z"/>
          <path class="cls-22" d="M44.88,68.18c.04,.05,.08,.11,.12,.16-.04-.05-.08-.11-.12-.16Z"/>
          <path class="cls-1" d="M91.73,96.55c-.07-.1-.14-.2-.21-.3,.07,.1,.14,.2,.21,.3Z"/>
          <path class="cls-10" d="M72.1,36.24c-.07-.03-.14-.06-.21-.09,0-.03,.02-.06,.02-.09,.11,.02,.21,.04,.32,.06l-.13,.12Z"/>
          <path class="cls-19" d="M69.09,51.41s.06-.04,.09-.05c-.02,.03-.03,.06-.05,.09l-.04-.04Z"/>
          <path class="cls-25" d="M52.5,62.91s.1-.09,.14-.14c-.05,.05-.1,.09-.14,.14Z"/>
          <path class="cls-28" d="M64.81,73.97s-.1,.1-.15,.15c.05-.05,.1-.1,.15-.15Z"/>
          <path class="cls-14" d="M55.55,30.94s-.05,.04-.07,.06c.02-.02,.04-.05,.06-.07h.01Z"/>
          <path class="cls-28" d="M64.67,74.1s-.1,.1-.15,.15c.05-.05,.1-.1,.15-.15Z"/>
          <path class="cls-10" d="M72.23,36.13s.08,.07,.13,.1c-.04,.05-.08,.1-.11,.15-.05-.05-.09-.09-.14-.14l.13-.12Z"/>
          <path class="cls-14" d="M68.13,28.31s.04,.04,.06,.06c-.01,0-.03,0-.04,0-.01-.01-.02-.03-.02-.05h0Z"/>
          <path class="cls-28" d="M64.53,74.24s-.1,.1-.15,.15c.05-.05,.1-.1,.15-.15Z"/>
          <path class="cls-5" d="M82,30.93c-.05-.09-.1-.18-.15-.27-.09-.09-.19-.19-.28-.28h0c-.05-.13-.1-.27-.15-.4-.82-1.04-1.65-2.08-2.44-3.08,2.24,0,6.7,1.17,8.94,4.61,.2,.53,.42,1.05,.58,1.59,.26,.85,.15,1.65-.52,2.28-.64,.6-1.44,.51-2.21,.31-1.27-.33-2.05-1.21-2.59-2.37-.37-.8-.8-1.58-1.2-2.37Z"/>
          <path class="cls-5" d="M92.76,18.35c.41,.2,.81,.41,1.22,.6,1.53,.7,2.94,1.59,4.18,2.73,.66,.91,1.39,1.78,1.61,2.93,.24,1.28-.12,2.52-1.74,2.7-.4,.04-.82-.07-1.22-.11-1.11-.49-1.86-1.36-2.49-2.35-.16-1.08-.77-1.92-1.4-2.76-1.01-1.42-2.19-2.69-3.48-3.85-.41-.36-.77-.77-1.11-1.28,.55,.16,1.11,.3,1.65,.48,.93,.3,1.86,.61,2.8,.91Z"/>
          <path class="cls-9" d="M81.41,29.97c.05,.13,.1,.27,.15,.4-.31-.03-.38-.16-.15-.4Z"/>
          <path class="cls-9" d="M81.57,30.37c.09,.09,.19,.19,.28,.28-.09-.09-.19-.19-.28-.28Z"/>
          <path class="cls-3" d="M85.03,59.17c-.72,.12-1.43,.34-2.15,.35-.69,0-1.39-.15-2.07-.32-1.43-.36-2.55-1.26-3.44-2.38-.79-.99-1.2-2.19-1.36-3.47-.18-1.49,.4-2.79,1.03-4.06,.14-.28,.16-.49,.08-.75,2.05-.16,3.8,.57,5.23,1.97,2.42,2.39,3.1,5.37,2.68,8.66Z"/>
          <path class="cls-18" d="M85.03,59.17c.42-3.29-.25-6.27-2.68-8.66-1.42-1.41-3.18-2.13-5.23-1.97-.9,.05-1.8,.09-2.7,.14-.03-.07-.05-.13-.08-.2,.21-.18,.4-.39,.64-.53,1.75-1.08,3.61-.96,5.5-.45,.22,.06,.44,.13,.66,.19,1.57,.82,2.8,1.99,3.75,3.48,.89,1.38,1.39,2.89,1.64,4.5,.07,.48,.1,.96,.15,1.44-.01,1.87-.3,3.67-1.51,5.2-.29,.37-.66,.68-1.07,.94,.31-1.35,.62-2.71,.92-4.06Z"/>
          <path class="cls-10" d="M51.8,95.14c1.1,.76,2.32,1.14,3.64,.96,.47-.06,.98-.32,1.34-.64,.52-.47,.92-1.08,1.36-1.63,.33-.41,.62-.86,.99-1.22,.21-.2,.55-.26,.83-.38,.31,.53,.66,1.06,.2,1.69-.11-.1-.22-.21-.33-.31-.09,.14-.21,.27-.27,.42-.33,.83-.55,1.72-.98,2.49-.88,1.53-2.53,2.21-4.26,1.86-1.75-.35-2.93-1.46-3.8-2.96-.13-.23-.26-.45-.4-.67l-.15,.04c0,.21-.03,.42,0,.62,.17,1.01,.73,1.82,1.33,2.62-.33-.21-.77-.34-.98-.64-.67-.92-1.29-1.88-1.85-2.87-.36-.64-.4-1.34-.04-2.04,.22-.44,.53-.45,.81-.17,.44,.43,.8,.93,1.21,1.39,.44,.49,.9,.96,1.35,1.44Z"/>
          <path class="cls-2" d="M51.31,98.02c-.59-.8-1.16-1.61-1.33-2.62-.03-.2,0-.41,0-.62l.15-.04c.13,.22,.27,.45,.4,.67,.87,1.5,2.04,2.6,3.8,2.96,1.73,.35,3.38-.33,4.26-1.86,.44-.77,.66-1.66,.98-2.49,.06-.15,.18-.28,.27-.42,.11,.1,.22,.21,.33,.31,.53,2.9-1.64,4.85-3.65,5.52-.24,.08-.49,.14-.73,.2-1.77,.23-3.22-.43-4.48-1.62Z"/>
          <path class="cls-5" d="M82.52,10.19c-.55-.25-1.1-.49-1.81-.81,1.3-.06,2.46-.12,3.61-.17,2.02,0,4.03,.05,6,.57,1.08,.28,2.07,.76,2.85,1.58,.93,.97,.67,2.13-.57,2.64-1.61,.67-3.22,.36-4.43-.86-1.09-1.11-2.42-1.77-3.86-2.28-.6-.21-1.2-.44-1.8-.66Z"/>
          <path class="cls-2" d="M64.49,45.56c-.18-1.31-.02-2.56,.64-3.73,.19-.15,.37-.39,.59-.44,.23-.05,.54,.03,.73,.16,.11,.07,.14,.39,.09,.57-.23,.88-.07,1.36,.63,1.68-.06,1.1-.24,2.16-.99,3.04-.12,.06-.24,.13-.37,.17-.52,.13-.76-.07-.71-.61,.05-.49-.12-.78-.62-.85Z"/>
          <path class="cls-10" d="M55.64,69.2c-.78-.55-.64-1.23-.63-1.88,0-.45,.03-.9,0-1.35-.03-.36,0-.72,.36-.78,.19-.03,.55,.27,.62,.48,.13,.42,.14,.88,.13,1.33-.01,.48-.09,.96-.17,1.43-.04,.23-.17,.45-.3,.78Z"/>
          <path class="cls-10" d="M58.84,70.15c.24-.71,.43-1.27,.62-1.83,.19,.93,.07,1.35-.62,1.83Z"/>
          <path class="cls-5" d="M60.52,80.64c.79,.92,1.47,1.88,1.71,3.13,.16,.81,.01,1.48-.46,2.11-1.18,.58-2.38-.27-2.5-1.76-.02-.29-.08-.58-.12-.87,.04-.86-.06-1.7-.42-2.49-.13-.47-.27-.95-.44-1.56,.91,.37,1.53,.98,2.24,1.44Z"/>
          <path class="cls-5" d="M54.85,82c.1,.51,.15,1.04,.31,1.53,.44,1.4-.16,2.24-1.62,2.2-.07,0-.14,0-.21-.01-.98-.59-1.09-1.53-.96-2.53,.13-1.03,1.41-2.59,2.47-3.05v1.86Z"/>
          <path class="cls-19" d="M49.73,68.3c.04,.1,.09,.2,.13,.29-.04-.1-.09-.2-.13-.29Z"/>
          <path class="cls-19" d="M49.6,68.02c.05,.09,.09,.19,.14,.28-.05-.09-.09-.19-.14-.28Z"/>
        </g>
      </g>
    </g>
  </g>
</svg>