<?xml version="1.0" encoding="UTF-8"?>
<svg id="Capa_2" data-name="Capa 2" xmlns="http://www.w3.org/2000/svg" viewBox="0 0 54.67 54.67">
  <defs>
    <style>
      .cls-1 {
        fill: #fff;
      }
    </style>
  </defs>
  <g id="Capa_1-2" data-name="Capa 1">
    <g>
      <path class="cls-1" d="M0,42.26c.2,.07,.39,.13,.59,.2,.39,.14,.77,.27,1.16,.41,.05,.02,.1,.04,.14,.09-.56,0-1.03-.31-1.58-.45,.07,.26,.24,.41,.42,.54,.43,.29,.9,.47,1.42,.53,.25,.03,.5,.06,.75,.1,.07,.01,.12,.1,.18,.16,.17,.16,.33,.33,.5,.5,.1,.1,.22,.1,.33,.04,.21-.11,.4-.25,.49-.51-.16-.08-.35-.13-.35-.36,0-.03-.06-.06-.1-.08-.22-.12-.45-.23-.67-.36-.08-.04-.16-.1-.21-.17-.16-.24-.4-.37-.65-.4-.19-.03-.3-.12-.44-.21-.33-.19-.53-.48-.74-.78-.19-.28-.18-.56-.14-.86,.02-.13,.05-.25,.1-.37,.06-.18,.09-.37,.05-.56-.04-.23,.07-.42,.17-.63,0,.04,.01,.07,.01,.11,0,.04-.01,.07-.03,.1-.1,.23-.05,.48,0,.7,.03,.12,.09,.22,.01,.36-.02-.06-.03-.1-.06-.18-.06,.23-.13,.42-.15,.61-.03,.22-.01,.44,.14,.62,.06,.08,.11,.17,.16,.25,.14,.22,.32,.4,.56,.51,.37,.16,.75,.32,1.13,.47,.29,.12,.59,.22,.94,.35-.16,.08-.15,.15-.09,.24,.05,.07,.1,.15,.12,.24,.02,.12,.04,.22,.18,.23,.15,.01,.14-.13,.17-.23,.2,.17,.29,.16,.4-.05,.05-.09,.09-.17,.16-.29-.18-.22-.37-.45-.56-.68-.2,.05-.35-.04-.39-.24-.02-.09-.02-.18,0-.27,.07-.28,0-.54-.08-.8-.04-.13-.15-.25-.23-.36-.06-.09-.14-.16-.18-.27,.13,.06,.26,.15,.35,.26,.09,.12,.16,.26,.21,.4,.05,.14,.06,.29,.09,.44,.33-.11,.57-.44,.54-.76-.02-.3-.06-.6-.14-.88-.04-.15-.16-.31-.29-.42-.31-.26-.65-.49-.98-.74-.14-.1-.28-.16-.46-.12-.18,.04-.34-.04-.49-.13-.13-.07-.25-.14-.38-.21-.06,.06-.11,.1-.15,.14-.23,.17-.48,.27-.76,.2-.1-.02-.18,0-.28,.04-.12,.05-.26,.05-.39,.07,.08,.21,.18,.43,.35,.62,.12,.14,.16,.36,.2,.55,.03,.17,.04,.35,.01,.51-.04,.18-.12,.36-.2,.53-.06,.12-.23,.15-.32,.04-.09-.11-.16-.24-.22-.37-.08-.18-.12-.38-.3-.5v-.22c.18,.15,.29,.34,.37,.56,.04,.11,.08,.22,.13,.33,.03,.08,.08,.14,.22,.12,.04-.24,.21-.43,.2-.72-.02-.35-.04-.67-.32-.92-.04-.04-.08-.11-.09-.16-.05-.21-.15-.38-.34-.49,.03-.01,.04-.02,.05-.02,.24,.03,.47,.1,.69-.07,.05-.04,.14-.03,.21-.01,.26,.07,.48,0,.69-.16,.21-.16,.24-.33,.07-.53-.14-.17-.32-.27-.52-.34C.91,37.39,.45,37.23,0,37.07c0-.04,0-.07,0-.11,.52,.17,1.04,.33,1.55,.52,.33,.12,.59,.34,.56,.77,.19,.09,.38,.2,.58,.28,.08,.03,.18,.04,.27,.02,.19-.03,.34,.02,.49,.12,.32,.23,.64,.45,.95,.69,.2,.16,.38,.35,.44,.63,.26,.02,.47,.15,.65,.34,.07,.07,.16,.11,.25,.16,.06,.04,.13,.07,.18,.11,.09,.09,.1,.22,0,.28-.24,.13-.39,.38-.66,.48-.22,.08-.22,.1-.44,.03-.17,.11-.33,.2-.53,.33-.02,.12-.04,.3-.07,.48,.12,.04,.25,.04,.3,.1,.23,.23,.43,.48,.64,.73,.03,.04,.02,.13,0,.18-.06,.13-.14,.26-.22,.37-.03,.04-.1,.06-.16,.08-.06,.02-.12,.02-.21,.03-.01,.35-.29,.51-.5,.71-.17,.16-.37,.16-.57,0-.17-.14-.35-.3-.48-.47-.09-.11-.18-.16-.31-.18-.22-.03-.43-.05-.65-.08-.53-.08-1.02-.26-1.45-.58-.18-.13-.32-.3-.38-.52-.03-.12-.09-.19-.21-.22C0,42.33,0,42.3,0,42.26Zm4.81-.93c.51,0,.73-.35,1.05-.58-.03-.04-.05-.07-.07-.08-.24-.1-.44-.25-.62-.44-.07-.08-.17-.14-.32-.1,0,.08-.02,.17,0,.25,.09,.29,.12,.58-.05,.93Zm-.98,1.91s.04-.03,.06-.05c-.03-.08-.04-.19-.1-.22-.2-.12-.42-.19-.71-.21,.24,.25,.54,.28,.74,.48Z"/>
      <path class="cls-1" d="M0,14.87c.16,.07,.33,.16,.5,.22,.43,.16,.85,.31,1.28,.46,.04,.01,.08,.04,.11,.08-.56,0-1.03-.31-1.57-.45,0,.13,.07,.23,.15,.3,.17,.15,.34,.31,.54,.41,.36,.18,.73,.33,1.14,.36,.24,.02,.49,.05,.72,.1,.07,.01,.13,.09,.18,.14,.17,.16,.33,.33,.5,.5,.12,.12,.26,.11,.4,.02,.18-.12,.37-.24,.43-.49-.19-.05-.36-.15-.35-.37-.27-.14-.53-.28-.78-.42-.08-.05-.17-.12-.22-.2-.16-.23-.4-.35-.64-.38-.21-.02-.33-.13-.48-.23-.29-.19-.48-.46-.67-.74-.2-.28-.2-.58-.15-.89,.02-.13,.06-.27,.1-.4,.05-.17,.08-.34,.05-.51-.05-.24,.06-.44,.17-.65,0,.05,0,.11-.02,.16-.1,.24-.06,.49-.02,.73,.02,.1,.11,.2,.05,.32,0,.02-.02,.03-.04,.06-.02-.05-.03-.09-.06-.16-.06,.21-.12,.4-.15,.59-.03,.23-.02,.46,.15,.65,.04,.04,.06,.09,.09,.14,.17,.33,.44,.56,.77,.7,.39,.16,.8,.3,1.2,.45,.23,.09,.45,.19,.71,.3-.14,.07-.13,.14-.07,.23,.05,.07,.1,.15,.11,.24,.02,.12,.05,.22,.18,.23,.15,0,.14-.13,.17-.23,.2,.17,.29,.15,.4-.06,.02-.05,.05-.1,.08-.14,.02-.04,.05-.08,.08-.13-.19-.23-.38-.46-.57-.69-.2,.05-.35-.04-.39-.24-.02-.09-.02-.18,0-.27,.07-.28,0-.54-.08-.8-.04-.13-.15-.25-.23-.36-.06-.09-.13-.16-.23-.28,.27,.12,.47,.28,.54,.47,.08,.21,.12,.43,.18,.65,.32-.11,.56-.43,.53-.76-.02-.3-.06-.6-.14-.88-.04-.15-.16-.31-.29-.42-.31-.26-.65-.49-.98-.74-.14-.1-.28-.16-.46-.12-.18,.04-.34-.04-.49-.13-.13-.07-.25-.14-.38-.21-.06,.06-.11,.1-.16,.14-.23,.17-.48,.27-.76,.2-.1-.02-.18,0-.28,.04-.12,.05-.26,.05-.39,.07,.08,.21,.18,.43,.35,.62,.12,.14,.16,.36,.2,.55,.03,.17,.04,.35,.01,.51-.04,.18-.12,.36-.2,.53-.06,.12-.23,.15-.32,.04-.09-.11-.16-.24-.22-.37C.22,13.17,.18,12.97,0,12.85v-.22c.19,.16,.3,.36,.38,.59,.04,.11,.08,.22,.13,.33,.03,.05,.1,.09,.2,.17,.05-.31,.22-.5,.21-.79-.02-.35-.04-.67-.32-.92-.04-.04-.08-.11-.09-.16-.05-.21-.15-.38-.33-.5,.27,.02,.52,.09,.76-.1,.04-.03,.12-.02,.18,0,.26,.08,.48,0,.69-.16,.21-.16,.24-.33,.07-.53-.13-.16-.3-.26-.49-.33C.92,10.06,.46,9.89,0,9.73c0-.04,0-.07,0-.11,.51,.17,1.02,.33,1.52,.51,.32,.12,.58,.31,.6,.7,0,.05,.06,.11,.11,.14,.27,.13,.51,.31,.84,.24,.1-.02,.24,.04,.33,.1,.35,.24,.7,.49,1.03,.76,.19,.15,.34,.33,.4,.59,.25,.01,.46,.13,.63,.32,.07,.08,.18,.12,.27,.18,.06,.04,.13,.07,.18,.12,.09,.09,.09,.2-.01,.28-.21,.16-.43,.3-.64,.46-.16,.11-.32,.13-.45,.04-.18,.11-.34,.21-.54,.33-.02,.13-.04,.3-.07,.51,.32,.01,.49,.18,.62,.42,.05,.08,.14,.14,.21,.21,.17,.17,.17,.28,.04,.48,0,.02-.03,.03-.03,.04-.06,.22-.2,.34-.45,.3-.02,.06-.05,.11-.06,.15-.1,.32-.37,.49-.62,.65-.13,.08-.29,.05-.41-.05-.18-.16-.36-.33-.52-.52-.07-.08-.14-.13-.24-.15-.15-.02-.31-.06-.46-.06-.38,0-.74-.12-1.08-.26-.26-.11-.5-.26-.72-.43-.13-.1-.21-.27-.27-.43-.05-.11-.09-.19-.21-.21C0,14.98,0,14.93,0,14.87Zm4.9-2.12c-.12,.26,.04,.44,.03,.64-.01,.19-.03,.39-.05,.61,.45-.01,.68-.36,.99-.59-.04-.04-.06-.06-.08-.07-.23-.09-.42-.24-.6-.42-.07-.07-.18-.1-.29-.16Zm-1.72,2.66c.09,.17,.48,.4,.69,.46,.05-.15,0-.24-.15-.29-.18-.06-.36-.11-.54-.17Z"/>
      <path class="cls-1" d="M34.56,.99c.01-.11-.05-.18-.13-.26-.08-.08-.13-.19-.08-.3,.05-.13,.18-.14,.3-.14,.07,0,.15,.01,.21,.03,.41,.15,.83,.07,1.24,.04,.05,0,.13-.02,.15-.05,.09-.18,.28-.22,.43-.31C36.96,0,37.23,0,37.5,0c.05,.03,.11,.07,.16,.1,.22,.15,.37,.34,.42,.61,.02,.12,.04,.23,.07,.35,.07,.26,.1,.28,.35,.3-.21,.11-.33,.08-.4-.12-.06-.15-.08-.32-.12-.48-.09-.36-.31-.59-.67-.68-.29-.07-.56,.02-.81,.16-.13,.08-.13,.21,.02,.27,.12,.05,.26,.06,.39,.08,.05,0,.1,0,.19-.02-.3,.19-.59,.14-.85-.13-.16,.02-.33,.04-.5,.07-.29,.05-.58,.04-.86-.06-.14-.05-.3-.1-.44,.03,.22,.49,.58,.8,1.09,.88,.28,.05,.57,.03,.86,.08,.07,.01,.16-.04,.26-.06-.08,.11-.14,.22-.22,.3-.08,.09-.13,.18-.12,.31,0,.08-.05,.18-.11,.24-.21,.17-.26,.39-.25,.63,0,.27,.18,.43,.44,.38,.15-.03,.3-.09,.43-.17,.44-.32,.88-.65,1.31-.99,.24-.19,.42-.44,.51-.75,.04-.14,.14-.27,.23-.4,.2-.29,.27-.59,.17-.93C39.09,0,39.14,0,39.2,0c0,.1,0,.2,0,.3-.02,.26-.1,.49-.26,.71-.09,.12-.17,.26-.22,.4-.12,.37-.35,.66-.65,.89-.39,.3-.78,.6-1.18,.87-.31,.21-.65,.3-.99,.05-.17,.09-.34,.16-.49,.26-.09,.06-.19,.15-.24,.25-.08,.17-.21,.27-.38,.33-.35,.13-.7,.25-1.06,.37-.26,.09-.53,.1-.82,.04-.14,.19-.35,.26-.58,.3-.14,.03-.26,.12-.4,.17-.07,.03-.16,.06-.23,.06-.09,0-.15-.08-.14-.17,.01-.28-.07-.56-.01-.84,.03-.16,.07-.3,.24-.34,.05-.13-.1-.25,.02-.36h0s.04,.09,.06,.15c.09,.32,.26,.55,.59,.66,.12,.04,.24,.09,.34,.16,.24,.17,.49,.2,.75,.11,.41-.13,.81-.28,1.21-.42,.12-.04,.22-.11,.27-.24,.07-.18,.22-.28,.39-.36,.14-.07,.27-.13,.41-.2-.08-.4-.02-.74,.28-1.01,.04-.03,.06-.09,.08-.14,.05-.15,.1-.29,.15-.44-.23-.03-.48-.1-.74-.04-.07,.02-.16-.02-.24-.04-.33-.08-.58-.29-.84-.49h.01Zm-2.88,3.91c.09-.01,.13,0,.15-.02,.19-.13,.41-.19,.63-.23,.13-.02,.27-.06,.33-.22-.13-.17-.36-.16-.52-.28-.16-.11-.3-.25-.46-.38-.12,.08-.14,.08-.14,.21,0,.3,0,.59,0,.92Z"/>
      <path class="cls-1" d="M7.22,.98c.02-.11-.05-.18-.12-.26-.08-.08-.13-.19-.08-.3,.05-.13,.18-.14,.3-.14,.07,0,.15,0,.21,.03,.41,.15,.82,.08,1.23,.05,.05,0,.13-.01,.15-.05C8.99,.16,9.17,.12,9.29,0,9.59,0,9.88,0,10.17,0c.05,.03,.11,.07,.16,.1,.22,.15,.37,.34,.42,.61,.02,.12,.04,.23,.07,.35,.07,.26,.1,.28,.35,.3-.21,.11-.33,.09-.4-.12-.06-.15-.08-.32-.12-.48-.09-.36-.31-.59-.67-.68-.29-.07-.56,.02-.81,.16-.14,.08-.13,.21,.02,.27,.12,.05,.26,.06,.39,.08,.05,0,.1,0,.19-.02-.3,.19-.59,.14-.85-.13-.16,.02-.33,.04-.5,.07-.29,.05-.58,.04-.86-.06-.22-.07-.26-.06-.44,.04,.22,.48,.6,.77,1.11,.89,.06,.01,.13,0,.19,0,.15-.03,.28,0,.43,.03,.14,.03,.3,0,.44,0-.04,.06-.09,.14-.16,.22-.09,.11-.18,.21-.16,.39,0,.08-.08,.18-.15,.24-.22,.21-.24,.46-.2,.73,.02,.17,.22,.29,.43,.24,.15-.03,.3-.09,.43-.17,.44-.32,.88-.65,1.31-.99,.24-.19,.42-.44,.51-.75,.04-.14,.14-.27,.23-.4C11.72,.64,11.79,.34,11.7,0h.11c.12,.37,0,.69-.21,1-.09,.13-.17,.26-.22,.4-.12,.37-.35,.66-.65,.89-.39,.3-.78,.59-1.18,.87-.35,.24-.61,.25-1,.06-.16,.08-.32,.16-.48,.26-.09,.06-.19,.15-.24,.25-.08,.17-.21,.27-.38,.33-.35,.13-.7,.25-1.06,.37-.26,.09-.53,.1-.82,.04-.14,.18-.34,.25-.56,.3-.15,.03-.29,.11-.42,.18-.25,.12-.37,.06-.37-.21,0-.24,0-.49,0-.73,0-.17,.05-.33,.25-.37-.02-.12-.03-.23-.05-.33,.01,0,.02,0,.03-.01,.02,.04,.06,.07,.07,.12,.09,.34,.29,.58,.63,.69,.13,.04,.25,.11,.37,.18,.17,.11,.35,.15,.55,.11,.12-.03,.25-.06,.37-.1,.28-.09,.55-.2,.82-.29,.22-.07,.4-.16,.49-.39,.06-.15,.21-.22,.35-.28,.13-.06,.26-.13,.37-.18,0-.16,0-.29,0-.43,.01-.22,.1-.41,.26-.55,.08-.08,.13-.16,.15-.28,.02-.12,.09-.23,.14-.34-.24-.04-.48-.06-.74-.05-.21,0-.44-.1-.64-.2-.16-.08-.29-.21-.44-.32Zm-2.86,3.89c.07,0,.13,0,.16-.02,.19-.14,.41-.18,.63-.23,.13-.03,.27-.06,.32-.24-.09-.05-.17-.11-.26-.14-.28-.1-.53-.23-.67-.51-.15,.02-.19,.12-.19,.23,0,.29,0,.59,0,.9Z"/>
      <path class="cls-1" d="M4.32,0c-.16,.19-.33,.39-.49,.58-.14,.17-.29,.26-.52,.27-.19,0-.37,.07-.56,.11-.17,.04-.25,.16-.25,.32,0,.21-.02,.44,.15,.63,.14-.12,.31-.18,.49-.11,.03,.01,.07,0,.1-.01,.2-.09,.4-.18,.59-.29,.14-.08,.28-.13,.44-.13,.29,0,.47-.21,.7-.34-.02-.18,.14-.14,.23-.18,.04-.02,.09-.01,.13-.03,.31-.15,.65-.16,.99-.16,.28,0,.52,.06,.74,.23,.05,.04,.1,.07,.16,.1,.13,.26,.31,.5,.57,.63,.29,.15,.44,.39,.6,.66-.08,0-.14,.02-.22,.03,0,.07,0,.15-.02,.28-.08-.18-.13-.32-.19-.48,.1,.02,.18,.05,.3,.07-.21-.29-.43-.51-.79-.56-.08-.01-.23-.05-.15-.22,.01-.02,0-.07-.02-.1-.26-.33-.56-.56-1.03-.56-.41,0-.77,.1-1.11,.32-.33,.22-.65,.46-.98,.69-.2,.14-.41,.26-.64,.41,.03-.14,0-.22-.12-.19-.13,.02-.23-.01-.34-.07-.09-.05-.18-.03-.24,.05-.06,.09-.05,.17,.03,.21-.05,.07-.14,.13-.15,.2-.01,.08,.03,.17,.07,.25,.05,.09,.02,.24,.16,.26,.09,.01,.2-.03,.29-.04,.13-.01,.25-.01,.38-.02,.08,0,.16-.03,.24-.04-.02-.04-.04-.06-.05-.08,.22-.15,.38-.15,.57,.04,.19,.19,.41,.3,.64,.4,.16,.06,.33,.09,.51,.05,.11-.03,.23-.02,.35-.01-.31,.14-.63,.22-.95,.05q-.07,.18,.1,.61c-.22-.18-.26-.3-.21-.63-.09-.06-.18-.16-.31,0,0-.28-.24-.36-.39-.53-.2,.23-.43,.28-.7,.27-.14,0-.29,.03-.43,.05-.13,.01-.23-.04-.27-.18-.01-.04-.02-.09-.05-.13-.14-.19-.14-.37,.02-.53-.08-.15-.17-.27-.22-.41-.04-.14-.05-.29-.06-.43-.03-.26,.07-.42,.32-.49,.23-.06,.46-.09,.69-.14,.07-.02,.16-.04,.21-.09C3.81,.42,3.98,.21,4.16,0c.05,0,.11,0,.16,0Zm-.02,1.5c-.19,0-.7,.23-.84,.37,.17,.14,.32,.08,.46-.04,.13-.1,.25-.21,.38-.33Z"/>
      <path class="cls-1" d="M31.65,0c-.18,.21-.37,.42-.54,.64-.11,.14-.24,.18-.41,.2-.21,.02-.42,.08-.64,.13-.12,.03-.2,.11-.21,.22-.03,.25-.04,.5,.15,.73,.12-.15,.27-.18,.45-.14,.05,.01,.11,0,.16-.02,.21-.1,.42-.21,.63-.31,.1-.05,.22-.1,.33-.09,.3,0,.49-.21,.73-.34,0-.2,.17-.15,.28-.2,.03,0,.05,0,.08-.02,.32-.16,.66-.17,1.01-.17,.27,0,.5,.06,.71,.22,.06,.04,.12,.08,.18,.11h-.01c.13,.26,.31,.49,.57,.63,.28,.15,.44,.37,.58,.63,0,0,0,.03-.01,.04-.06,0-.12,.02-.18,.03,0,.08-.02,.15-.03,.26-.07-.17-.12-.3-.19-.45,.09,.02,.17,.03,.29,.05-.21-.28-.43-.5-.78-.55-.08-.01-.23-.05-.15-.22,0-.02,0-.06,0-.07-.18-.21-.34-.45-.62-.52-.41-.1-.84-.13-1.22,.09-.42,.24-.81,.52-1.21,.78-.23,.15-.46,.31-.71,.48,0-.13,0-.23-.13-.2-.11,.03-.21,.01-.31-.05-.09-.06-.19-.06-.27,.03-.08,.1-.03,.18,.05,.25-.24,.16-.25,.17-.12,.41,.02,.05,.04,.1,.06,.15,.03,.11,.11,.15,.21,.12,.22-.05,.44-.09,.67-.07,.04,0,.08-.03,.13-.04-.02-.04-.03-.07-.04-.09,0,0,.01-.02,.02-.02,.21-.11,.39-.07,.57,.09,.35,.32,.73,.54,1.23,.42,.08-.02,.16,0,.24,0-.32,.15-.64,.23-.96,.07-.13,.17,.03,.31,0,.48-.15-.16-.14-.33-.09-.51-.08-.04-.15-.07-.23-.1-.04,.07-.08,.12-.11,.17h0v-.25c-.12-.11-.25-.22-.39-.34-.19,.23-.41,.28-.67,.27-.14,0-.29,.03-.43,.05-.14,.01-.25-.04-.29-.19,0-.03-.02-.07-.04-.1-.14-.19-.16-.38,0-.54-.08-.15-.17-.28-.22-.42-.04-.14-.05-.29-.06-.43-.02-.26,.07-.42,.33-.49,.23-.06,.46-.08,.69-.13,.07-.02,.16-.04,.21-.09C31.15,.42,31.32,.21,31.49,0c.05,0,.11,0,.16,0Zm0,1.48c-.22,.03-.73,.27-.87,.38,.16,.14,.32,.09,.46-.03,.13-.1,.25-.21,.41-.35Z"/>
      <path class="cls-1" d="M11.7,54.67c-.08-.27-.24-.46-.47-.61-.14-.09-.26-.2-.39-.29-.27-.19-.53-.39-.81-.56-.27-.17-.58-.21-.89-.17-.25,.03-.51,.04-.76,.08-.17,.02-.34,.06-.49,.13-.31,.15-.61,.32-.91,.49-.03,.02-.07,.05-.09,.05-.26-.06-.41,.13-.6,.24-.27,.16-.53,.35-.79,.54-.03,.02-.05,.07-.08,.1h-.22c.08-.07,.15-.15,.24-.21,.22-.16,.44-.31,.69-.48-.33-.09-.61-.01-.87,.11-.33,.14-.59,.37-.87,.59h-.16c.34-.34,.72-.63,1.19-.78,.23-.08,.46-.1,.7-.02,.11,.03,.19,.02,.28-.04,.17-.13,.36-.21,.57-.22,.07,0,.13-.05,.2-.08,.23-.13,.45-.27,.69-.38,.15-.07,.33-.1,.49-.13,.25-.04,.5-.05,.76-.08,.41-.04,.8,.01,1.14,.25,.42,.29,.83,.58,1.23,.89,.19,.14,.32,.34,.35,.59h-.11Z"/>
      <path class="cls-1" d="M39.04,54.67c-.08-.27-.24-.46-.47-.61-.14-.09-.26-.2-.39-.29-.27-.19-.53-.39-.81-.56-.27-.17-.58-.21-.89-.17-.25,.03-.51,.05-.76,.07-.18,.01-.36,.05-.52,.14-.29,.16-.59,.32-.88,.48-.03,.02-.07,.05-.09,.05-.26-.06-.41,.13-.6,.24-.27,.16-.53,.35-.79,.54-.03,.02-.05,.07-.08,.1h-.22c.08-.07,.15-.15,.24-.21,.22-.16,.44-.31,.68-.48-.32-.1-.6-.01-.86,.1-.33,.14-.59,.37-.87,.59h-.16c.34-.34,.72-.63,1.19-.78,.23-.08,.46-.1,.7-.02,.11,.03,.19,.02,.28-.04,.17-.13,.36-.21,.57-.22,.07,0,.13-.05,.2-.08,.23-.13,.45-.27,.69-.38,.16-.07,.34-.11,.52-.13,.23-.03,.47-.04,.7-.07,.43-.06,.83,0,1.19,.26,.41,.29,.82,.57,1.21,.88,.19,.15,.32,.34,.35,.59h-.11Z"/>
      <path class="cls-1" d="M54.67,9.73c-.35-.07-.69-.09-1.05,.01-.19,.05-.4,.02-.59,.04-.54,.07-.89,.5-.9,1.05,0,.38-.03,.76-.05,1.14-.03,.55,.16,1.01,.56,1.39,.12,.12,.21,.27,.33,.4,.1,.11,.21,.23,.34,.31,.31,.18,.63,.33,.94,.49,.09,.05,.2,.07,.23,.2,.01,.05,.13,.07,.2,.1v.11c-.2,0-.34-.1-.46-.25-.06-.06-.13-.12-.21-.16-.23-.12-.45-.23-.68-.34-.2-.1-.35-.25-.49-.43-.13-.17-.27-.34-.42-.5-.22-.24-.38-.52-.42-.84-.03-.33-.03-.67-.03-1,0-.2,.02-.4,.03-.6,0-.72,.51-1.21,1.23-1.2,.16,0,.33-.01,.48-.05,.33-.08,.65-.08,.97,0v.11Z"/>
      <path class="cls-1" d="M54.67,37.07c-.16-.02-.32-.04-.48-.06-.05,0-.11-.02-.16,0-.33,.1-.66,.08-1,.13-.54,.07-.89,.5-.9,1.05,0,.38-.03,.76-.05,1.14-.03,.55,.16,1.01,.56,1.39,.12,.12,.21,.27,.33,.4,.1,.11,.21,.23,.34,.31,.31,.18,.63,.33,.94,.49,.09,.05,.2,.07,.23,.2,.01,.05,.13,.07,.2,.1v.11c-.2,0-.34-.1-.46-.25-.06-.06-.13-.12-.21-.16-.23-.12-.45-.23-.68-.34-.2-.1-.35-.25-.49-.43-.13-.17-.27-.34-.42-.5-.22-.24-.38-.52-.42-.84-.03-.33-.03-.67-.03-1,0-.2,.02-.4,.03-.6,0-.72,.51-1.21,1.23-1.2,.15,0,.31-.01,.45-.05,.33-.09,.66-.08,.99,0v.11Z"/>
      <path class="cls-1" d="M54.67,12.74c-.15-.15-.3-.31-.45-.47-.39,.07-1.02-.52-.99-1.02,.02-.32,.1-.61,.37-.81,.08-.06,.14-.14,.2-.22,.12-.16,.12-.16,0-.35,.18,.05,.25,.16,.15,.32-.08,.14-.19,.27-.31,.38-.15,.14-.24,.31-.28,.52-.04,.19-.01,.36,.08,.53,.12,.21,.3,.37,.5,.49,.06,.03,.17,.05,.22,.01,.08-.05,.08-.15,.03-.24-.07-.13-.15-.27-.24-.42,.15,.02,.2,.13,.26,.22,.06,.1,.14,.23,.11,.32-.05,.21,.05,.33,.18,.45,.05,.05,.11,.1,.16,.15v.16Z"/>
      <path class="cls-1" d="M54.67,40.07c-.15-.15-.3-.31-.46-.47-.58,0-1.09-.62-.97-1.24,.05-.24,.14-.45,.35-.6,.08-.06,.14-.14,.2-.22,.12-.15,.11-.17,0-.35,.18,.05,.25,.16,.15,.32-.08,.14-.19,.27-.31,.38-.15,.14-.24,.31-.28,.52-.04,.19-.01,.36,.08,.53,.12,.21,.3,.37,.5,.49,.06,.03,.17,.05,.22,.01,.08-.05,.08-.15,.03-.24-.07-.13-.15-.27-.24-.42,.15,.02,.2,.13,.26,.22,.06,.1,.14,.23,.11,.32-.05,.21,.05,.33,.18,.45,.05,.05,.11,.1,.16,.15v.16Z"/>
      <path class="cls-1" d="M5.8,54.67c.23-.14,.47-.27,.7-.41,.33-.19,.66-.38,.99-.57,.24-.13,.49-.22,.77-.21-.79,.29-1.46,.79-2.19,1.19h-.27Z"/>
      <path class="cls-1" d="M33.13,54.67c.23-.13,.45-.26,.68-.39,.34-.19,.67-.39,1.01-.58,.24-.13,.49-.22,.77-.21-.79,.29-1.46,.78-2.19,1.19h-.27Z"/>
      <path class="cls-1" d="M0,41.71c.7,.37,1.41,.74,2.16,1.14-.27,0-.46-.09-.64-.19-.48-.26-.96-.51-1.45-.76-.02-.01-.05-.02-.08-.03,0-.05,0-.11,0-.16Z"/>
      <path class="cls-1" d="M0,14.38c.7,.37,1.41,.74,2.17,1.14-.31,0-.51-.12-.72-.23C.97,15.03,.48,14.79,0,14.54c0-.05,0-.11,0-.16Z"/>
      <path class="cls-1" d="M54.67,41.82c-.5-.17-.98-.37-1.34-.78,0,0,0-.01,.01-.04,.22,.13,.42,.27,.64,.39,.22,.12,.46,.22,.69,.32v.11Z"/>
      <path class="cls-1" d="M54.67,14.49c-.5-.16-.98-.38-1.34-.78,0,0,0-.01,.01-.04,.22,.13,.42,.27,.64,.39,.22,.12,.46,.22,.69,.32v.11Z"/>
      <path class="cls-1" d="M33.29,0c-.1,.06-.19,.13-.29,.18-.27,.13-.55,.26-.86,.41,.04-.06,.06-.11,.09-.13,.16-.1,.33-.19,.49-.29,.1-.06,.2-.12,.3-.18,.09,0,.18,0,.27,0Z"/>
      <path class="cls-1" d="M5.96,0c-.1,.06-.19,.13-.29,.18-.27,.13-.55,.26-.86,.41,.04-.06,.06-.11,.09-.13,.16-.1,.33-.19,.49-.29C5.49,.12,5.59,.06,5.69,0c.09,0,.18,0,.27,0Z"/>
      <path class="cls-1" d="M4.47,30.63v-.27c-.11-.1-.23-.21-.37-.33-.19,.23-.43,.28-.7,.27-.12,0-.25,.04-.38,.05-.22,.01-.24-.01-.33-.21-.01-.03-.01-.05-.03-.08-.13-.19-.2-.38,.01-.54-.09-.16-.18-.29-.22-.43-.04-.14-.05-.29-.06-.43-.02-.26,.07-.42,.33-.49,.22-.06,.44-.1,.67-.12,.11-.01,.19-.04,.26-.12,.06-.07,.13-.13,.18-.2,.28-.36,.62-.67,1.01-.91,.39-.25,.81-.43,1.29-.28,.09,.03,.16,0,.23-.04,.18-.13,.37-.22,.6-.24,.06,0,.12-.04,.17-.07,.23-.13,.45-.27,.69-.38,.16-.07,.34-.11,.52-.14,.24-.04,.49-.04,.73-.07,.42-.05,.82,.01,1.17,.26,.41,.29,.82,.57,1.21,.88,.41,.32,.54,.95,.25,1.41-.17,.28-.3,.58-.45,.87-.11,.22-.29,.43-.48,.58-.4,.33-.83,.62-1.25,.93,0,0-.02,0-.02,.01-.36,.21-.58,.22-.96,.03-.16,.09-.34,.17-.5,.27-.09,.06-.18,.14-.22,.23-.08,.17-.2,.28-.37,.34-.35,.13-.7,.25-1.06,.37-.26,.09-.53,.11-.82,.04-.15,.19-.37,.26-.61,.31-.11,.02-.22,.08-.33,.13-.05,.02-.09,.06-.15,.07-.15,.06-.27,0-.27-.16,0-.28-.08-.56-.02-.84,.04-.16,.07-.3,.23-.35,.06-.13-.1-.25,.02-.37,.02,.04,.04,.08,.05,.12,.09,.34,.28,.58,.62,.69,.11,.04,.23,.08,.32,.15,.23,.17,.49,.2,.75,.11,.41-.13,.81-.28,1.21-.42,.12-.04,.23-.11,.27-.24,.07-.18,.22-.28,.39-.36,.14-.07,.27-.13,.41-.2-.09-.41-.02-.76,.3-1.03,.04-.03,.06-.09,.07-.14,.05-.14,.09-.28,.14-.42-.16-.02-.34-.07-.51-.05-.21,.03-.39,0-.58-.06-.28-.08-.48-.29-.71-.44,.02-.11-.06-.18-.13-.26-.08-.08-.12-.19-.08-.3,.05-.12,.17-.13,.28-.14,.07,0,.15,0,.21,.03,.41,.15,.83,.08,1.24,.05,.07,0,.15-.03,.19-.08,.2-.27,.5-.31,.8-.34,.46-.06,.96,.33,1.02,.83,.01,.11,.03,.22,.06,.32,.02,.08,.05,.17,.11,.21,.06,.04,.15,.04,.23,.06-.22,.11-.34,.08-.42-.15-.06-.16-.07-.34-.12-.5-.24-.72-.95-.79-1.49-.45-.11,.07-.1,.19,.02,.24,.14,.05,.29,.06,.44,.08,.04,0,.09,0,.2,.02-.44,.14-.61,.11-.91-.16-.49,.09-.98,.17-1.47-.02-.1-.04-.22-.03-.31,.08,.18,.2,.26,.45,.51,.6,.29,.17,.56,.32,.91,.26,.06-.01,.13-.02,.19,0,.2,.08,.39,.1,.62-.02-.11,.15-.17,.27-.26,.35-.12,.1-.08,.23-.1,.35-.02,.07-.05,.14-.11,.18-.21,.16-.26,.39-.25,.63,0,.27,.18,.43,.44,.37,.14-.03,.29-.08,.4-.16,.46-.33,.93-.68,1.37-1.04,.22-.18,.39-.41,.46-.7,.02-.08,.06-.15,.11-.22,.07-.12,.15-.23,.22-.34,.24-.42,.14-1-.24-1.29-.4-.3-.81-.59-1.21-.88-.33-.23-.69-.3-1.09-.24-.22,.04-.45,.04-.68,.07-.16,.02-.33,.04-.47,.11-.32,.15-.63,.33-.94,.5-.06,.03-.13,.09-.17,.07-.13-.07-.21,.02-.29,.08-.53,.37-1.06,.74-1.59,1.11-.06,.04-.12,.07-.18,.11,.35-.49,.88-.74,1.32-1.13-.13-.02-.26-.04-.38-.02-.33,.05-.62,.2-.89,.39-.47,.31-.79,.77-1.16,1.11-.33,.07-.62,.13-.91,.2-.12,.03-.19,.11-.21,.23-.03,.25-.04,.5,.16,.74,.12-.17,.27-.18,.44-.14,.04,0,.09,0,.13,0,.2-.09,.4-.18,.59-.29,.14-.08,.28-.14,.44-.13,.29,0,.47-.21,.7-.34-.02-.18,.13-.14,.23-.18,.09-.04,.19-.06,.28-.09,.18-.07,.36-.1,.56-.1,.65,0,.65,0,1.17,.33,.13,.26,.31,.5,.57,.63,.29,.15,.44,.38,.59,.66-.09,.01-.15,.02-.22,.03,0,.09-.02,.15-.03,.26-.07-.18-.12-.31-.18-.45,.09,.02,.18,.03,.28,.05-.22-.28-.43-.5-.79-.54-.07,0-.23-.06-.14-.23,0-.02,0-.05-.02-.07-.17-.22-.34-.45-.62-.51-.41-.09-.83-.11-1.23,.09-.44,.22-.84,.5-1.23,.81-.21,.17-.44,.31-.72,.43,.07-.14,0-.19-.09-.17-.13,.02-.23,0-.34-.06-.09-.05-.18-.04-.25,.04-.08,.1-.04,.18,.05,.25-.24,.16-.24,.17-.12,.41,.02,.03,.03,.07,.05,.1,.08,.19,.1,.21,.3,.17,.18-.04,.35-.09,.54-.05,.06,.01,.13-.04,.19-.06-.02-.04-.05-.08-.04-.08,.02-.03,.05-.05,.09-.06,.2-.07,.36,0,.52,.14,.34,.3,.72,.53,1.21,.4,.08-.02,.17,0,.25,0-.32,.15-.64,.23-.97,.06-.12,.26,.08,.42,.11,.62-.2-.18-.27-.4-.2-.66-.08-.04-.14-.06-.22-.1-.05,.07-.08,.13-.12,.19Zm-.13,1.58c.08,0,.11,.01,.13,0,.21-.14,.44-.2,.68-.25,.12-.03,.25-.07,.3-.21-.14-.16-.36-.16-.52-.27-.16-.11-.3-.25-.46-.38-.1,.02-.14,.11-.14,.22,0,.3,0,.59,0,.9Zm-.03-3.39c-.21,.02-.7,.24-.86,.37,.16,.14,.31,.09,.46-.02,.13-.1,.25-.21,.41-.35Z"/>
      <path class="cls-1" d="M31.81,30.63v-.27c-.11-.1-.23-.21-.37-.33-.19,.23-.43,.28-.7,.27-.12,0-.25,.04-.38,.05-.22,.01-.24-.01-.33-.21-.01-.03-.01-.05-.03-.08-.13-.19-.2-.38,.01-.53-.09-.16-.18-.29-.22-.43-.04-.14-.05-.29-.06-.43-.02-.26,.07-.42,.33-.49,.23-.06,.46-.08,.69-.13,.07-.02,.15-.05,.21-.1,.08-.06,.14-.14,.21-.22,.28-.36,.62-.67,1.01-.91,.39-.25,.81-.43,1.29-.28,.09,.03,.16,0,.23-.04,.18-.13,.37-.22,.6-.24,.06,0,.12-.04,.17-.07,.23-.13,.45-.27,.69-.38,.16-.07,.34-.11,.52-.14,.24-.04,.49-.04,.73-.07,.42-.05,.82,.01,1.17,.26,.41,.29,.82,.57,1.21,.88,.43,.33,.54,1,.23,1.45-.16,.24-.29,.5-.39,.77-.1,.26-.3,.46-.51,.63-.41,.32-.83,.62-1.25,.92-.09,.07-.21,.12-.32,.15-.23,.07-.45,.05-.65-.11-.18,.09-.35,.17-.51,.28-.09,.06-.17,.14-.22,.23-.08,.17-.2,.28-.37,.34-.35,.13-.7,.25-1.06,.37-.26,.09-.53,.1-.82,.05-.15,.19-.37,.26-.6,.31-.11,.02-.22,.08-.33,.13-.05,.02-.09,.05-.15,.07-.15,.06-.27,0-.27-.15,0-.28-.08-.56-.02-.84,.04-.16,.07-.3,.23-.35,.06-.13-.09-.25,.02-.37,.02,.04,.04,.08,.05,.12,.09,.34,.28,.58,.62,.69,.11,.04,.23,.08,.32,.15,.23,.17,.49,.2,.75,.11,.41-.13,.81-.28,1.21-.42,.12-.04,.23-.11,.27-.24,.07-.18,.22-.28,.39-.36,.14-.07,.27-.13,.41-.2-.06-.52-.03-.61,.31-1.03,.03-.04,.05-.09,.07-.14,.05-.14,.09-.28,.14-.42-.16-.02-.34-.07-.51-.05-.21,.03-.39,0-.58-.06-.28-.08-.47-.29-.71-.44,.02-.12-.05-.18-.12-.26-.08-.08-.12-.19-.08-.3,.05-.12,.17-.13,.28-.14,.07,0,.15,0,.21,.03,.41,.15,.83,.08,1.24,.05,.07,0,.16-.03,.19-.08,.18-.26,.47-.3,.75-.34,.53-.08,1.02,.33,1.08,.85,.01,.1,.03,.2,.06,.29,.02,.08,.05,.17,.11,.21,.06,.04,.15,.04,.23,.06-.22,.11-.34,.07-.42-.15-.06-.16-.07-.34-.12-.5-.23-.71-.94-.8-1.49-.45-.11,.07-.1,.19,.02,.24,.14,.05,.29,.06,.44,.09,.04,0,.09,0,.2,.01-.41,.14-.54,.11-.83-.11-.04-.03-.1-.05-.15-.04-.48,.09-.95,.13-1.43-.04-.09-.03-.2-.02-.29,.1,.19,.17,.25,.44,.51,.59,.29,.17,.56,.32,.91,.26,.06-.01,.13,0,.19,0,.1,.02,.19,.07,.29,.07,.1,0,.2-.03,.31-.05-.01,.02-.01,.03-.02,.04-.14,.19-.36,.34-.33,.62,0,.06-.05,.14-.1,.18-.21,.16-.26,.39-.25,.63,0,.27,.18,.43,.44,.37,.14-.03,.29-.08,.4-.16,.4-.27,.79-.56,1.17-.85,.24-.19,.49-.4,.59-.7,.09-.26,.24-.48,.38-.72,.26-.42,.16-1.02-.22-1.31-.39-.3-.79-.58-1.19-.86-.34-.25-.72-.32-1.14-.25-.21,.03-.43,.03-.65,.06-.16,.02-.33,.04-.47,.11-.32,.15-.63,.33-.94,.5-.06,.03-.13,.09-.17,.07-.14-.08-.23,.03-.31,.09-.52,.36-1.04,.73-1.56,1.1-.06,.04-.12,.07-.19,.11,.35-.49,.89-.74,1.34-1.12-.2-.07-.39-.07-.56,0-.26,.11-.51,.23-.75,.37-.48,.28-.77,.76-1.15,1.09-.32,.07-.61,.13-.9,.19-.12,.03-.2,.11-.21,.23-.03,.25-.04,.5,.15,.73,.13-.15,.28-.18,.45-.13,.04,.01,.09,0,.13,0,.2-.09,.4-.18,.59-.29,.14-.08,.28-.14,.44-.13,.29,0,.47-.21,.7-.34-.02-.18,.13-.14,.23-.18,.09-.04,.19-.06,.28-.09,.18-.07,.36-.1,.56-.1,.65,0,.65,0,1.17,.33,.13,.26,.31,.5,.57,.63,.29,.15,.44,.38,.59,.66-.09,.01-.15,.02-.22,.03,0,.09-.02,.15-.03,.26-.07-.18-.12-.31-.18-.45,.09,.02,.18,.03,.28,.05-.21-.28-.43-.5-.79-.54-.06,0-.17-.13-.16-.15,.1-.2-.09-.27-.18-.35-.13-.13-.29-.27-.46-.32-.42-.1-.86-.12-1.25,.12-.4,.25-.8,.51-1.18,.79-.22,.16-.44,.31-.7,.42,.02-.1,.03-.19-.1-.17-.12,.02-.23,.02-.34-.06-.08-.06-.18-.05-.25,.03-.09,.09-.06,.19,.05,.27-.11,.06-.24,.12-.2,.25,.05,.15,.15,.28,.23,.42,.01,.02,.07,.02,.1,.01,.24-.02,.48-.05,.72-.08,.03,0,.06-.03,.07-.03,0-.05,0-.11,0-.12,.16-.08,.31-.09,.46,.02,.06,.04,.1,.1,.16,.15,.33,.25,.68,.47,1.13,.36,.09-.02,.19,0,.29,0-.16,.08-.32,.14-.49,.15-.16,0-.33-.04-.53-.07,.02,.16,.04,.3,.06,.46-.16-.16-.14-.34-.1-.51-.08-.03-.14-.06-.21-.09-.05,.07-.08,.13-.12,.19Zm.04,.39c-.07,.1-.14,.16-.16,.23-.08,.32,.01,.64,.02,.97,.06,0,.1,0,.12-.02,.19-.14,.41-.18,.63-.23,.13-.03,.27-.06,.34-.24-.09-.05-.18-.11-.28-.15-.27-.1-.52-.22-.68-.56Zm-1.07-1.83c.18,.16,.34,.09,.48-.03,.12-.1,.24-.21,.38-.33-.22,.02-.58,.17-.86,.36Z"/>
      <path class="cls-1" d="M32.15,14.07c-.19,.12-.35,.21-.54,.32,.01,.14-.11,.31-.03,.51,.26,.02,.43,.16,.55,.38,.05,.09,.15,.16,.23,.23,.18,.18,.19,.28,.05,.5,0,0-.01,.01-.02,.02-.07,.23-.21,.35-.49,.31-.02,.33-.27,.51-.48,.7-.2,.18-.41,.2-.61,.03-.17-.14-.34-.3-.48-.48-.08-.11-.17-.15-.29-.17-.22-.03-.45-.05-.68-.08-.52-.08-1-.25-1.43-.57-.19-.14-.33-.31-.39-.54-.02-.1-.07-.16-.16-.2-.22-.09-.44-.17-.57-.4-.02-.03-.08-.04-.12-.06-.23-.11-.46-.22-.69-.33-.21-.1-.37-.26-.51-.44-.12-.16-.24-.32-.38-.46-.32-.32-.48-.71-.48-1.15,0-.49,0-.98,.03-1.47,.03-.58,.52-1.04,1.1-1.04,.27,0,.52-.03,.78-.09,.36-.08,.73,0,1.07,.11,.42,.14,.84,.28,1.26,.45,.31,.12,.56,.31,.58,.69,0,.06,.07,.13,.12,.16,.26,.14,.51,.3,.85,.24,.11-.02,.25,.06,.35,.12,.32,.22,.64,.45,.95,.69,.21,.16,.38,.36,.45,.64,.26,0,.45,.13,.62,.3,.08,.08,.19,.13,.29,.19,.06,.04,.13,.07,.18,.12,.08,.09,.09,.2-.01,.26-.24,.14-.41,.38-.68,.49-.16,.06-.29,.09-.42,.02Zm-4.36-2.64c.09,.18,.13,.37,.25,.48,.19,.18,.27,.4,.31,.62,.04,.21,.05,.44,.02,.65-.02,.16-.11,.32-.18,.48-.07,.14-.24,.17-.34,.06-.09-.1-.14-.23-.21-.34-.1-.19-.19-.39-.31-.57-.13-.19-.3-.36-.44-.54-.33,.05-.53-.16-.72-.35-.41-.4-.37-1.08,.05-1.46,.07-.06,.13-.12,.19-.2,.16-.2,.16-.2,.05-.41,.18,.1,.23,.2,.13,.36-.1,.15-.23,.28-.35,.42-.31,.33-.33,.8-.03,1.14,.08,.09,.18,.18,.28,.26,.1,.08,.2,.18,.34,.1,.09-.05,.08-.19-.03-.37-.05-.1-.12-.19-.17-.28,.24,.14,.4,.32,.36,.61-.02,.12,.02,.19,.09,.27,.32,.31,.6,.65,.72,1.11,.03,.1,.07,.21,.25,.21,.04-.23,.21-.42,.21-.7,0-.37-.04-.7-.33-.97-.04-.03-.06-.09-.08-.14-.04-.21-.15-.38-.34-.5,.04-.01,.06-.02,.07-.02,.23,.04,.45,.09,.67-.07,.05-.04,.16-.03,.23-.01,.25,.06,.47-.02,.66-.16,.21-.16,.24-.33,.07-.53-.12-.15-.28-.26-.47-.32-.24-.08-.48-.18-.72-.26-.29-.09-.59-.19-.89-.26-.2-.05-.41-.06-.62-.02-.19,.04-.39,.05-.59,.07-.11,.01-.22,.02-.32,.04-.48,.11-.81,.53-.81,1.03,0,.1,0,.2,0,.3-.01,.34-.04,.67-.04,1.01,0,.43,.15,.8,.44,1.11,.16,.17,.3,.37,.46,.54,.1,.11,.2,.22,.32,.29,.31,.18,.63,.33,.94,.49,.08,.04,.19,.09,.21,.15,.03,.1,.09,.12,.17,.15,.6,.22,1.19,.44,1.79,.66,.05,.02,.11,.05,.16,.08-.29,.04-.54-.06-.79-.15-.26-.09-.51-.21-.79-.25,.06,.12,.12,.23,.21,.32,.2,.22,.46,.36,.73,.47,.48,.21,1,.27,1.51,.34,.17,.02,.25,.08,.35,.19,.15,.17,.32,.32,.48,.48,.08,.07,.18,.1,.28,.05,.23-.12,.44-.25,.53-.54-.21-.05-.36-.15-.36-.37-.04-.02-.08-.04-.11-.06-.35-.2-.74-.34-1-.68-.14-.18-.38-.2-.58-.29-.17,.09-.25-.04-.35-.14-.03-.02-.05-.06-.08-.08-.29-.16-.46-.42-.64-.69-.24-.33-.24-.67-.15-1.04,.07-.3,.18-.59,.12-.91-.03-.17,.05-.35,.2-.57-.03,.13-.04,.21-.07,.28-.08,.23,0,.45,0,.68,.15,.1,.08,.21,.03,.36-.03-.07-.04-.11-.07-.17-.05,.21-.12,.39-.15,.59-.03,.22-.02,.44,.13,.62,.06,.07,.1,.15,.15,.23,.14,.23,.32,.42,.57,.54,.28,.13,.56,.25,.85,.37,.39,.16,.83,.21,1.17,.48-.02,.05-.06,.13-.05,.15,.12,.13,.14,.29,.19,.44,.05,.13,.2,.14,.28,.02,.02-.04,.02-.09,.04-.15,.21,.17,.29,.16,.4-.06,.02-.05,.04-.1,.08-.14,.09-.1,.06-.18-.01-.27-.16-.18-.32-.36-.49-.55-.18,.05-.34-.04-.37-.25-.02-.1,0-.22,.02-.32,.03-.42-.02-.81-.34-1.13-.07-.07-.16-.14-.15-.33,.19,.21,.37,.36,.48,.55,.1,.19,.12,.42,.18,.64,.4-.15,.6-.55,.51-.98-.03-.15-.06-.3-.07-.45-.03-.27-.14-.48-.36-.65-.32-.24-.64-.48-.96-.72-.12-.09-.25-.16-.41-.12-.2,.05-.37-.03-.54-.13-.12-.07-.25-.14-.38-.21-.29,.29-.61,.43-1,.33-.03,0-.08-.01-.1,0-.15,.12-.32,.11-.51,.09Zm5.4,1.99s-.03-.07-.05-.07c-.25-.1-.45-.26-.64-.45-.07-.08-.17-.13-.29-.09-.05,.14-.02,.26,.02,.38,.06,.21,.08,.43,0,.64-.02,.04-.01,.09-.02,.12,.1,.1,.18,.05,.28,0,.29-.11,.47-.36,.71-.53Zm-1.99,2.52c.02-.27,.02-.28-.09-.33-.19-.09-.4-.16-.67-.19,.22,.26,.53,.29,.76,.52Z"/>
      <path class="cls-1" d="M31.89,43.72c-.01,.33-.28,.49-.5,.69-.17,.15-.38,.16-.57,0-.17-.14-.34-.3-.48-.47-.09-.11-.18-.16-.31-.18-.22-.03-.43-.05-.65-.08-.54-.08-1.04-.26-1.47-.59-.17-.13-.31-.29-.35-.5-.03-.12-.1-.19-.21-.23-.2-.08-.4-.16-.52-.37-.02-.04-.09-.05-.14-.08-.23-.11-.46-.22-.69-.34-.2-.1-.36-.25-.49-.42-.14-.18-.29-.35-.44-.52-.21-.24-.37-.51-.4-.82-.03-.31-.04-.63-.04-.95,0-.23,.03-.45,.03-.68,.01-.7,.51-1.18,1.2-1.17,.16,0,.33,0,.48-.05,.46-.13,.9-.05,1.34,.09,.39,.13,.77,.26,1.16,.41,.33,.13,.6,.31,.62,.71,0,.05,.06,.11,.11,.14,.26,.13,.51,.31,.84,.24,.11-.02,.25,.05,.35,.12,.34,.23,.67,.47,.99,.72,.19,.15,.36,.34,.42,.61,.25,.01,.46,.13,.63,.32,.07,.08,.18,.12,.27,.18,.06,.04,.13,.07,.18,.12,.1,.1,.1,.21-.01,.28-.24,.13-.39,.38-.66,.48-.22,.08-.22,.1-.44,.03-.17,.11-.33,.2-.53,.33-.02,.12-.04,.3-.07,.48,.09,.02,.15,.04,.21,.06,.13,.03,.22,.11,.3,.22,.09,.12,.19,.24,.3,.35,.19,.19,.2,.28,.05,.52-.02,.03-.04,.06-.05,.1-.06,.17-.17,.25-.35,.23-.02,0-.05,.02-.1,.03Zm-3.22-3.55c-.05,.21-.12,.39-.15,.59-.03,.22-.02,.44,.13,.62,.06,.08,.11,.17,.16,.25,.14,.23,.33,.41,.58,.53,.27,.12,.55,.25,.82,.36,.39,.16,.83,.22,1.16,.47-.02,.06-.06,.13-.04,.16,.1,.13,.15,.26,.18,.42,0,.05,.1,.1,.16,.11,.04,0,.1-.06,.13-.11,.02-.03,.02-.07,.03-.12,.21,.17,.29,.15,.39-.04,.05-.1,.1-.19,.16-.3-.19-.23-.38-.45-.57-.68-.19,.06-.35-.04-.38-.25-.01-.11,.01-.22,.02-.32,.03-.42-.02-.81-.35-1.13-.07-.07-.16-.13-.14-.32,.18,.21,.37,.36,.47,.55,.1,.19,.12,.42,.18,.64,.4-.16,.59-.55,.51-.96-.03-.17-.07-.34-.08-.51-.02-.24-.13-.44-.31-.58-.33-.26-.67-.5-1.01-.75-.11-.08-.24-.15-.38-.12-.22,.05-.41-.03-.59-.14-.12-.07-.24-.13-.35-.19-.29,.29-.59,.43-.98,.33-.04-.01-.1-.01-.13,0-.14,.12-.31,.1-.49,.09,.09,.26,.18,.48,.38,.65,.05,.04,.06,.13,.09,.19,.18,.46,.12,.9-.07,1.34-.08,.18-.26,.22-.39,.07-.08-.09-.12-.2-.17-.3-.11-.2-.19-.41-.32-.6-.13-.19-.29-.35-.43-.52-.26,0-.32-.02-.59-.23-.55-.44-.57-1.13-.05-1.6,.05-.05,.1-.1,.15-.16,.05-.06,.11-.13,.12-.21,.01-.07-.04-.15-.06-.23,.19,.12,.23,.22,.12,.38-.1,.15-.23,.28-.35,.41-.21,.23-.29,.51-.2,.81,.1,.33,.34,.55,.65,.69,.13,.06,.24-.06,.19-.2-.03-.11-.1-.21-.16-.32-.03-.05-.07-.1-.12-.17,.26,.12,.43,.38,.39,.59-.03,.15,.01,.24,.11,.34,.3,.29,.57,.61,.68,1.04,.03,.11,.07,.23,.21,.25,.02,0,.05-.01,.05-.02,.08-.23,.22-.42,.21-.69,0-.36-.04-.69-.32-.94-.04-.03-.07-.09-.08-.14-.05-.21-.15-.39-.37-.54,.08,0,.11,.01,.13,.01,.21,0,.42,.09,.62-.07,.05-.04,.16-.04,.23-.02,.25,.07,.47,0,.67-.15,.24-.17,.26-.35,.06-.57-.13-.15-.29-.24-.48-.3-.22-.08-.44-.17-.67-.24-.29-.09-.59-.19-.89-.26-.18-.04-.38-.05-.57-.03-.23,.03-.46,.07-.7,.08-.7,.03-1.09,.45-1.09,1.16,0,.06,0,.13,0,.19-.02,.33-.04,.65-.05,.98-.01,.45,.14,.83,.45,1.17,.15,.17,.29,.35,.44,.52,.11,.12,.22,.24,.36,.32,.3,.17,.61,.32,.92,.48,.07,.04,.18,.08,.19,.14,.03,.12,.12,.14,.21,.18,.59,.22,1.18,.44,1.76,.65,.05,.02,.1,.04,.14,.06-.57,.02-1.04-.29-1.64-.44,.11,.15,.17,.26,.25,.35,.19,.21,.44,.35,.7,.47,.5,.22,1.03,.28,1.56,.35,.15,.02,.22,.07,.31,.17,.16,.17,.32,.34,.5,.5,.05,.05,.15,.07,.22,.07,.22-.02,.51-.31,.57-.56-.13-.04-.28-.08-.3-.23-.02-.14-.11-.16-.21-.22-.32-.2-.69-.32-.93-.64-.14-.18-.38-.2-.57-.29-.14,.1-.2-.02-.28-.09-.04-.04-.08-.08-.12-.11-.3-.16-.48-.43-.67-.7-.23-.33-.24-.67-.15-1.04,.08-.3,.18-.59,.12-.91-.03-.17,.05-.35,.21-.58-.03,.14-.05,.23-.08,.31-.07,.22,.01,.43,0,.65,.14,.1,.08,.21,.03,.35-.03-.06-.04-.1-.07-.17Zm4.58,.55c-.35-.12-.57-.31-.79-.52-.05-.05-.15-.06-.24-.09-.1,.24,.04,.42,.03,.62,0,.19-.03,.39-.04,.61,.45,0,.66-.36,1.04-.61Zm-2.08,2.52s.04-.03,.07-.05c-.03-.08-.04-.19-.09-.22-.2-.12-.42-.19-.71-.21,.23,.25,.53,.28,.73,.48Z"/>
      <path class="cls-1" d="M18.38,41.66c.12,.15,.28,.24,.5,.38,.03-.06,.05-.13,.1-.17,.07-.06,.15-.12,.23-.14,.2-.06,.41-.09,.61-.13,.25-.05,.3-.02,.43,.21,.01,.02,.02,.05,.04,.07,.15,.15,.17,.31,.05,.49,0,.01,0,.03,0,.07,.31,.19,.31,.54,.37,.85,.03,.19-.06,.34-.25,.41-.22,.08-.45,.16-.68,.2-.12,.02-.2,.07-.26,.16-.1,.15-.21,.3-.31,.45-.29,.43-.66,.77-1.1,1.03-.27,.15-.55,.25-.86,.18-.1-.02-.17,.02-.25,.08-.16,.14-.33,.26-.55,.28-.05,0-.1,.04-.14,.07-.19,.14-.38,.28-.57,.42-.19,.15-.4,.24-.64,.27-.32,.05-.64,.12-.96,.19-.29,.06-.57,0-.82-.12-.49-.26-.97-.53-1.45-.81-.37-.22-.57-.82-.4-1.24,.15-.37,.29-.74,.43-1.11,.12-.32,.37-.56,.61-.79,.27-.26,.55-.51,.83-.75,.11-.09,.24-.17,.36-.24,.22-.12,.44-.08,.66,.04,.16-.11,.32-.21,.47-.33,.09-.07,.17-.17,.21-.28,.06-.18,.18-.29,.34-.37,.31-.15,.62-.3,.93-.45,.28-.13,.56-.22,.88-.15,.12-.22,.32-.32,.55-.39,.09-.03,.18-.09,.26-.13,.08-.04,.15-.11,.23-.14,.11-.05,.21,0,.23,.11,.06,.32,.19,.63,.12,.96-.02,.11-.1,.2-.17,.29,0,.18,.11,.36-.02,.54-.03-.53-.28-.82-.78-.94-.1-.02-.2-.05-.28-.1-.26-.15-.52-.14-.79-.02-.36,.17-.72,.34-1.08,.51-.13,.06-.25,.14-.3,.3-.05,.19-.19,.31-.34,.41-.13,.08-.26,.16-.39,.24,.01,.05,.02,.09,.03,.12,.06,.32,.06,.63-.19,.9-.04,.04-.08,.1-.07,.14,.04,.17-.04,.31-.12,.47,.18,.01,.35,.06,.49,.02,.4-.13,.75-.03,1.08,.18,.07,.05,.18,.06,.24,.12,.11,.11,.2,.23,.29,.35,.11,.14,.07,.29-.1,.35-.09,.03-.2,.06-.29,.04-.43-.1-.85-.02-1.27,.08-.07,.02-.16,.04-.19,.09-.13,.26-.38,.33-.62,.41-.56,.19-1.13-.16-1.26-.68-.03-.11-.05-.21-.1-.31-.09-.21-.13-.24-.36-.22,.19-.13,.3-.12,.4,.05,.07,.13,.11,.29,.17,.43,.05,.12,.11,.26,.19,.35,.33,.38,.8,.39,1.26,.12,.08-.05,.18-.09,.16-.2-.02-.11-.12-.16-.22-.17-.07,0-.14,0-.21,0-.1,0-.19,.03-.31,.05,.27-.19,.55-.22,.79-.06,.09,.06,.17,.07,.28,.04,.42-.11,.84-.23,1.29-.11,.11,.03,.24,.02,.32-.12-.18-.2-.31-.43-.57-.55-.3-.14-.58-.26-.91-.14-.07,.02-.15,.03-.22,0-.22-.07-.42-.05-.61,.09,.02-.05,.05-.08,.07-.12,.08-.16,.24-.29,.22-.49-.02-.15,.03-.27,.13-.37,.18-.2,.17-.43,.13-.67-.03-.18-.12-.24-.3-.26-.2-.02-.38,.05-.53,.19-.39,.35-.78,.71-1.16,1.08-.21,.21-.4,.45-.47,.76-.04,.19-.11,.36-.21,.53-.05,.08-.08,.16-.11,.25-.15,.41,.03,.95,.4,1.18,.42,.25,.85,.49,1.28,.73,.35,.2,.72,.22,1.11,.13,.25-.06,.5-.09,.75-.16,.16-.04,.32-.09,.45-.18,.28-.18,.55-.38,.83-.57,.06-.04,.15-.11,.21-.09,.1,.02,.16-.03,.21-.08,.51-.45,1.02-.91,1.53-1.36,.03-.03,.08-.04,.16-.09-.34,.53-.83,.83-1.23,1.25,.17,.07,.31,.05,.43,0,.21-.1,.43-.2,.62-.34,.46-.34,.78-.81,1.11-1.27,.08-.11,.15-.15,.27-.18,.22-.05,.44-.12,.65-.19,.12-.04,.21-.12,.22-.25,.01-.26,0-.51-.23-.71-.11,.16-.26,.2-.43,.17-.04,0-.09,0-.13,.02-.2,.12-.4,.26-.6,.38-.08,.05-.17,.11-.27,.12-.35,.06-.62,.23-.79,.55-.02,.04-.09,.06-.13,.08-.07,.03-.15,.03-.2,.07-.36,.26-.79,.25-1.21,.28-.1,0-.21-.04-.31-.08-.25-.09-.42-.28-.6-.47-.13-.14-.27-.24-.45-.3-.24-.07-.37-.26-.5-.47,.25,.25,.56,.39,.89,.49,.04,.01,.08,.07,.11,.11,.29,.39,.64,.64,1.17,.57,.39-.05,.74-.15,1.04-.42,.29-.26,.59-.52,.88-.77,.18-.16,.38-.31,.56-.46,.07,.05,.12,.12,.16,.11,.16-.02,.3-.01,.45,.05,.05,.02,.15-.05,.19-.11,.05-.07,0-.14-.07-.18-.02-.01-.04-.03-.07-.05,.25-.13,.26-.19,.12-.41-.05-.08-.1-.17-.15-.26-.29,.05-.56,.1-.83,.15-.03,0-.07,.05-.07,.07,.06,.14-.06,.15-.13,.17-.16,.05-.31,0-.44-.09-.4-.3-.83-.45-1.33-.28-.05,.02-.12,0-.21,0,.37-.23,.73-.24,1.1-.11,.08,.03,.17,.04,.26,.05Zm-.09-.62c.15-.13,.15-.13,.16-.25,.03-.31-.09-.6-.13-.91-.04,.01-.07,.01-.09,.03-.2,.17-.43,.25-.68,.33-.12,.04-.23,.1-.26,.26,.33,.19,.79,.14,.99,.55Zm1.29,1.78s.01-.02,.01-.03c0,0,0-.01-.01-.02-.14-.08-.28-.08-.4,.05-.13,.13-.26,.26-.39,.39,.07,.03,.12,.03,.15,0,.22-.13,.43-.27,.64-.4Z"/>
      <path class="cls-1" d="M18.38,14.32c.12,.15,.28,.25,.51,.37,.02-.05,.04-.11,.09-.15,.07-.06,.15-.12,.23-.14,.2-.05,.41-.09,.61-.13,.25-.05,.3-.02,.43,.21,.01,.02,.02,.05,.04,.07,.15,.15,.17,.31,.05,.49,0,.01,0,.03,0,.07,.31,.19,.31,.54,.37,.85,.03,.19-.06,.34-.25,.41-.22,.08-.45,.16-.68,.2-.12,.02-.2,.07-.26,.16-.1,.15-.21,.3-.31,.45-.28,.42-.64,.76-1.08,1.02-.27,.16-.56,.27-.88,.19-.1-.02-.17,.02-.25,.08-.16,.14-.33,.26-.55,.28-.05,0-.1,.04-.14,.07-.19,.14-.38,.28-.57,.42-.19,.15-.4,.24-.64,.27-.32,.05-.64,.12-.96,.19-.29,.06-.56-.01-.82-.12-.52-.21-.97-.54-1.44-.82-.41-.24-.58-.88-.37-1.34,.14-.3,.25-.6,.35-.91,.12-.37,.4-.64,.68-.91,.26-.25,.52-.48,.79-.71,.1-.09,.22-.16,.33-.23,.23-.14,.47-.12,.71,.01,.16-.11,.32-.21,.47-.33,.09-.07,.17-.17,.21-.28,.06-.18,.18-.29,.34-.37,.31-.15,.62-.3,.93-.45,.28-.13,.56-.21,.88-.15,.12-.22,.32-.31,.54-.38,.09-.03,.18-.09,.26-.13,.08-.04,.15-.11,.23-.14,.11-.05,.21,0,.23,.11,.06,.32,.19,.63,.12,.96-.02,.11-.1,.2-.17,.3,0,.18,.11,.36-.02,.54-.03-.53-.28-.82-.78-.94-.09-.02-.18-.04-.26-.09-.29-.18-.57-.15-.86-.01-.35,.16-.69,.32-1.03,.49-.13,.06-.26,.14-.3,.3-.05,.19-.18,.31-.34,.41-.13,.08-.26,.16-.38,.24,0,.04,0,.06,0,.07,.09,.35,.09,.69-.19,.97-.03,.03-.07,.08-.06,.12,.04,.17-.04,.31-.13,.47,.21,0,.4,.04,.57,0,.31-.08,.58,0,.85,.11,.14,.05,.28,.13,.39,.23,.11,.1,.2,.23,.29,.35,.11,.14,.07,.29-.09,.35-.1,.03-.22,.06-.32,.03-.44-.12-.86,0-1.29,.1-.06,.01-.13,.05-.15,.09-.16,.29-.45,.35-.73,.42-.53,.13-1.04-.28-1.12-.68-.02-.09-.04-.18-.08-.26-.04-.09-.07-.2-.14-.26-.05-.05-.16-.04-.25-.06,.25-.11,.35-.09,.44,.13,.06,.13,.1,.27,.15,.41,.2,.64,.94,.82,1.54,.36,.09-.07,.09-.17-.01-.22-.1-.05-.22-.06-.33-.08-.07,0-.15,0-.22,0,.23-.13,.45-.17,.67-.01,.09,.07,.17,.07,.28,.04,.42-.11,.84-.23,1.29-.11,.11,.03,.24,.02,.32-.11-.17-.25-.35-.47-.64-.59-.26-.11-.52-.21-.81-.11-.07,.02-.17,.04-.24,.01-.22-.07-.42-.05-.61,.09,.02-.05,.05-.08,.07-.12,.08-.16,.25-.29,.22-.48-.02-.15,.03-.27,.12-.37,.18-.2,.17-.43,.13-.67-.03-.18-.12-.24-.3-.26-.2-.02-.38,.05-.53,.18-.39,.35-.78,.71-1.16,1.08-.2,.2-.38,.42-.45,.7-.05,.22-.13,.43-.25,.63-.04,.06-.06,.13-.09,.2-.15,.41,.03,.95,.4,1.18,.42,.26,.85,.49,1.28,.73,.35,.2,.72,.22,1.11,.13,.26-.06,.52-.1,.77-.16,.15-.04,.3-.09,.43-.17,.28-.18,.55-.38,.83-.57,.07-.04,.15-.11,.21-.1,.1,.02,.16-.03,.22-.08,.5-.44,1.01-.89,1.51-1.34,.04-.04,.09-.06,.14-.09-.28,.51-.77,.81-1.17,1.22,.16,.08,.3,.06,.42,0,.22-.1,.45-.21,.64-.35,.45-.33,.77-.8,1.09-1.25,.09-.12,.17-.16,.3-.19,.21-.05,.42-.11,.62-.19,.08-.03,.17-.11,.21-.2,.1-.2-.03-.59-.23-.76-.08,.15-.22,.17-.37,.16-.05,0-.12,0-.16,.01-.2,.11-.38,.24-.58,.36-.1,.06-.2,.14-.31,.15-.27,.03-.51,.16-.65,.36-.15,.22-.37,.28-.57,.4-.19,.11-.4,.16-.62,.19-.1,.01-.2,0-.3,.02-.21,.04-.4,0-.57-.11-.14-.09-.27-.19-.38-.3-.19-.19-.37-.36-.64-.45-.21-.07-.33-.24-.43-.44,.25,.22,.52,.39,.85,.48,.06,.02,.11,.09,.15,.14,.29,.34,.6,.61,1.1,.56,.42-.04,.8-.14,1.12-.43,.29-.26,.58-.52,.88-.77,.18-.16,.38-.31,.55-.45,.08,.05,.14,.11,.18,.11,.15-.03,.28,0,.42,.04,.05,.02,.15-.05,.2-.1,.02-.02,0-.11-.03-.16-.02-.03-.07-.05-.11-.07,.26-.12,.28-.18,.14-.39-.03-.05-.06-.09-.08-.14-.05-.14-.15-.14-.27-.11-.19,.05-.39,.08-.58,.12-.05,.01-.13,.06-.13,.07,.05,.19-.1,.17-.2,.19-.14,.03-.27-.03-.38-.11-.39-.28-.81-.44-1.3-.27-.06,.02-.15,.06-.22-.02q.59-.21,1.2-.04c.05,.01,.11,0,.16,.01Zm-.06-.64c.26-.39,.04-.77,0-1.14-.3,.13-.57,.24-.84,.36-.1,.04-.19,.1-.19,.24,.34,.17,.77,.14,1.02,.53Zm1.27,1.77c-.12-.05-.21-.14-.33-.04-.17,.14-.33,.29-.5,.5,.37-.07,.56-.35,.83-.46Z"/>
      <path class="cls-1" d="M45.71,41.66c.12,.15,.28,.25,.51,.37,.02-.05,.04-.11,.09-.15,.07-.06,.15-.12,.23-.14,.2-.05,.41-.09,.61-.13,.25-.05,.3-.02,.43,.21,.01,.02,.02,.05,.04,.07,.16,.15,.16,.31,.04,.49,0,.01,0,.04,0,.07,.31,.19,.31,.54,.36,.86,.03,.19-.06,.34-.25,.41-.22,.08-.45,.15-.68,.2-.11,.02-.19,.06-.25,.14-.08,.12-.18,.23-.25,.36-.19,.32-.45,.57-.72,.82-.23,.22-.5,.37-.79,.47-.13,.04-.28,.07-.4,.04-.19-.04-.32,.02-.47,.13-.12,.09-.27,.14-.41,.2-.06,.03-.14,.05-.2,.09-.19,.14-.38,.28-.57,.42-.19,.14-.41,.23-.65,.27-.31,.05-.62,.12-.93,.18-.27,.05-.53,.01-.77-.1-.3-.13-.58-.3-.87-.46-.17-.09-.32-.22-.49-.29-.5-.21-.78-.98-.49-1.5,.14-.25,.23-.51,.3-.78,.06-.24,.2-.43,.36-.6,.26-.27,.53-.52,.8-.78,.09-.09,.19-.17,.28-.26,.06-.05,.12-.11,.19-.16,.28-.19,.56-.31,.9-.1,.17-.12,.35-.23,.51-.37,.07-.06,.14-.15,.17-.24,.05-.17,.16-.28,.31-.36,.38-.18,.75-.36,1.14-.54,.11-.05,.22-.08,.34-.09,.12-.02,.24,0,.37,0,.12-.19,.31-.3,.53-.37,.1-.03,.19-.1,.29-.15,.07-.04,.14-.09,.21-.12,.11-.05,.21,0,.23,.11,.06,.32,.19,.63,.12,.96-.03,.11-.11,.22-.18,.35,.02,.14,.12,.31,0,.48-.03-.53-.28-.82-.78-.94-.09-.02-.18-.04-.26-.09-.29-.18-.57-.15-.86-.01-.35,.16-.69,.32-1.03,.49-.13,.06-.25,.14-.3,.3-.05,.19-.19,.31-.34,.41-.13,.08-.26,.16-.39,.24,.01,.05,.02,.09,.03,.12,.06,.32,.06,.63-.19,.9-.04,.04-.08,.1-.07,.14,.04,.17-.04,.31-.12,.47,.21,0,.4,.04,.57,0,.31-.08,.58,0,.85,.11,.14,.05,.28,.13,.39,.23,.11,.1,.2,.23,.29,.35,.11,.14,.07,.29-.09,.35-.09,.03-.2,.06-.29,.04-.44-.11-.87-.02-1.29,.09-.06,.01-.14,.04-.16,.08-.15,.29-.44,.37-.72,.44-.55,.14-1.05-.27-1.15-.68-.03-.11-.06-.23-.11-.34-.09-.21-.13-.24-.36-.22,.2-.13,.32-.12,.41,.07,.07,.15,.12,.3,.17,.46,.22,.66,.98,.8,1.54,.34,.09-.07,.08-.17-.02-.22-.1-.05-.22-.05-.34-.07-.03,0-.07,.01-.11,0-.03,0-.07-.01-.1-.02,.23-.11,.46-.15,.67,0,.08,.06,.16,.07,.25,.04,.43-.12,.86-.23,1.31-.11,.11,.03,.24,.02,.31-.13-.18-.18-.3-.41-.55-.53-.3-.14-.59-.27-.93-.15-.06,.02-.13,.01-.19,0-.11-.01-.22-.05-.32-.04-.11,.01-.2,.08-.35,.14,.06-.07,.1-.1,.12-.14,.07-.16,.25-.29,.22-.49-.02-.16,.04-.26,.13-.37,.18-.2,.17-.44,.13-.67-.03-.18-.13-.24-.31-.26-.2-.02-.38,.06-.53,.19-.39,.35-.77,.69-1.14,1.06-.22,.22-.42,.46-.48,.78-.04,.18-.1,.35-.19,.51-.05,.09-.09,.18-.12,.27-.15,.41,.03,.95,.4,1.18,.42,.25,.85,.49,1.28,.73,.35,.19,.72,.22,1.11,.13,.26-.06,.52-.1,.77-.16,.11-.03,.23-.06,.33-.12,.26-.16,.52-.34,.77-.51,.14-.09,.23-.26,.44-.21,.04,0,.09-.05,.13-.09,.51-.45,1.02-.91,1.53-1.36,.03-.03,.08-.04,.16-.09-.34,.53-.83,.83-1.23,1.26,.17,.05,.32,.05,.44,0,.21-.1,.43-.2,.62-.34,.46-.34,.79-.81,1.11-1.27,.08-.11,.15-.15,.27-.18,.22-.05,.44-.12,.65-.19,.13-.04,.22-.14,.22-.28,0-.24-.01-.49-.23-.69-.11,.15-.26,.2-.43,.17-.04,0-.09,0-.13,.02-.2,.12-.4,.26-.6,.38-.09,.06-.19,.11-.29,.13-.34,.06-.6,.23-.76,.54-.02,.04-.08,.06-.13,.09-.07,.03-.15,.03-.2,.07-.36,.26-.79,.25-1.21,.28-.1,0-.21-.04-.31-.08-.25-.09-.42-.28-.6-.47-.13-.14-.27-.24-.45-.3-.24-.07-.37-.26-.5-.47,.25,.25,.56,.39,.89,.49,.04,.01,.08,.07,.11,.11,.29,.38,.62,.63,1.15,.58,.4-.04,.76-.15,1.07-.42,.31-.27,.62-.54,.92-.81,.17-.16,.35-.31,.53-.4,.05,.04,.09,.09,.12,.09,.17-.02,.34,0,.5,.05,.12,.03,.22-.12,.16-.23-.02-.04-.08-.07-.12-.11,.24-.14,.25-.18,.11-.4-.05-.08-.1-.17-.15-.26-.29,.05-.56,.1-.83,.15-.03,0-.07,.05-.07,.07,.06,.14-.06,.15-.13,.17-.16,.05-.31,0-.44-.09-.4-.3-.83-.45-1.33-.28-.05,.02-.12,0-.21,0,.47-.23,.66-.25,1.1-.11,.08,.03,.17,.04,.26,.05Zm-.04-1.78c-.31,.14-.59,.25-.87,.38-.09,.04-.18,.1-.17,.25,.18,.06,.37,.09,.53,.17,.17,.08,.33,.21,.5,.33,.11-.04,.12-.15,.11-.26-.03-.29-.07-.57-.11-.87Zm.45,3.32s.02,.03,.03,.05c.31-.06,.5-.33,.8-.44-.19-.13-.33-.1-.46,.03-.12,.12-.25,.24-.37,.36Z"/>
      <path class="cls-1" d="M45.71,14.32c.14,.16,.26,.24,.51,.35,.02-.03,.04-.1,.08-.14,.07-.06,.15-.12,.23-.14,.2-.05,.41-.09,.61-.13,.25-.05,.31-.02,.43,.21,.01,.02,.02,.05,.04,.07,.15,.15,.17,.31,.05,.49,0,.01,0,.03,0,.07,.31,.19,.31,.54,.37,.85,.03,.19-.06,.34-.25,.41-.22,.08-.45,.16-.68,.2-.12,.02-.2,.07-.26,.16-.1,.15-.21,.3-.31,.45-.29,.43-.66,.77-1.1,1.03-.27,.15-.55,.25-.86,.18-.1-.02-.17,.02-.25,.08-.16,.14-.33,.26-.55,.28-.06,0-.11,.05-.17,.09-.07,.05-.13,.09-.19,.15-.58,.55-1.34,.6-2.07,.72-.2,.04-.44-.03-.63-.11-.31-.13-.6-.3-.89-.46-.16-.09-.3-.21-.47-.28-.54-.23-.78-1.01-.51-1.49,.15-.27,.22-.55,.32-.83,.07-.21,.21-.41,.36-.57,.25-.28,.53-.52,.8-.78,.09-.08,.18-.16,.26-.24,.05-.05,.1-.1,.16-.15,.29-.21,.59-.35,.94-.12,.16-.11,.33-.21,.47-.33,.09-.07,.17-.17,.21-.28,.06-.17,.17-.28,.32-.35,.37-.18,.74-.35,1.11-.53,.23-.11,.47-.12,.73-.09,.12-.22,.32-.31,.54-.38,.09-.03,.18-.08,.26-.13,.08-.04,.15-.11,.23-.14,.11-.05,.21,0,.23,.11,.06,.33,.2,.65,.11,.99-.03,.11-.11,.2-.18,.31,.02,.15,.12,.32,0,.49-.03-.53-.28-.82-.78-.94-.09-.02-.18-.04-.26-.09-.29-.18-.57-.15-.86-.01-.35,.16-.69,.32-1.03,.49-.13,.06-.25,.14-.3,.3-.05,.19-.19,.31-.34,.41-.13,.08-.26,.16-.39,.24,.01,.05,.02,.09,.03,.12,.06,.32,.06,.63-.19,.9-.04,.04-.08,.1-.07,.14,.04,.17-.04,.31-.12,.47,.18,.01,.35,.06,.49,.02,.4-.13,.75-.03,1.08,.18,.07,.05,.18,.06,.24,.12,.11,.11,.2,.23,.29,.35,.11,.14,.07,.29-.1,.35-.09,.03-.2,.06-.29,.03-.44-.12-.87,0-1.29,.09-.06,.01-.14,.04-.16,.08-.15,.29-.44,.37-.72,.44-.56,.14-1.06-.28-1.15-.68-.03-.11-.06-.23-.11-.34-.09-.21-.13-.24-.36-.22,.19-.13,.3-.13,.4,.05,.07,.13,.11,.29,.17,.43,.05,.12,.11,.26,.19,.36,.34,.39,.83,.39,1.28,.1,.06-.04,.15-.14,.13-.18-.03-.07-.11-.13-.19-.16-.07-.03-.16-.01-.24-.01-.04,0-.07,0-.11,0-.03,0-.05-.01-.13-.03,.29-.1,.51-.14,.73,.02,.08,.06,.16,.07,.25,.04,.43-.12,.86-.23,1.31-.11,.11,.03,.24,.02,.31-.12-.1-.13-.19-.26-.29-.39,0,0-.01-.02-.02-.02-.1-.06-.21-.11-.31-.17-.26-.13-.53-.23-.83-.12-.07,.03-.17,.03-.24,.01-.21-.07-.4-.04-.59,.08,.07-.14,.16-.26,.22-.39,.03-.06,.06-.14,.05-.2-.03-.15,.03-.27,.13-.37,.18-.2,.17-.43,.13-.67-.03-.19-.13-.25-.33-.26-.19,0-.36,.06-.5,.19-.39,.35-.79,.71-1.16,1.08-.26,.26-.46,.56-.51,.94-.01,.08-.06,.15-.1,.22-.05,.12-.12,.23-.16,.34-.16,.43,0,.97,.39,1.2,.42,.26,.85,.49,1.28,.73,.35,.2,.72,.22,1.11,.13,.26-.06,.52-.1,.77-.16,.15-.04,.3-.09,.42-.17,.28-.18,.55-.38,.83-.57,.06-.04,.15-.11,.21-.09,.1,.02,.16-.03,.21-.08,.51-.45,1.02-.91,1.53-1.36,.03-.03,.08-.04,.16-.09-.34,.53-.83,.83-1.22,1.25,.16,.07,.31,.05,.43,0,.22-.1,.45-.21,.64-.36,.45-.33,.77-.8,1.09-1.25,.08-.11,.15-.15,.27-.18,.22-.05,.44-.12,.65-.19,.13-.04,.22-.14,.22-.28,0-.24-.01-.49-.24-.69-.1,.17-.25,.19-.43,.17-.04,0-.09,0-.13,.02-.2,.12-.4,.26-.6,.38-.09,.06-.19,.11-.29,.13-.34,.06-.6,.23-.76,.54-.02,.04-.08,.06-.13,.09-.07,.03-.15,.03-.2,.07-.36,.26-.79,.25-1.21,.28-.1,0-.21-.04-.31-.08-.25-.09-.42-.28-.6-.47-.13-.14-.27-.24-.45-.3-.24-.07-.37-.26-.53-.46,.05,0,.07,0,.08,0,.23,.22,.49,.38,.79,.46,.06,.02,.12,.08,.16,.13,.3,.39,.64,.64,1.17,.57,.4-.05,.76-.16,1.06-.43,.3-.26,.6-.53,.9-.8,.17-.16,.35-.31,.56-.41,.03,.04,.05,.09,.07,.09,.18,0,.36,0,.53,.06,.04,.01,.13-.06,.17-.11,.05-.07,0-.14-.07-.18-.02-.01-.04-.03-.07-.05,.25-.13,.26-.19,.12-.41-.02-.04-.05-.08-.07-.12-.05-.13-.13-.16-.26-.12-.2,.05-.41,.08-.61,.13-.04,.01-.12,.07-.12,.08,.06,.14-.06,.15-.13,.17-.16,.05-.31,0-.44-.09-.39-.29-.81-.45-1.3-.28-.06,.02-.14,.01-.26,.02,.49-.24,.69-.26,1.12-.12,.08,.03,.17,.04,.26,.05Zm-.07-.58c.29-.45,.03-.83,.02-1.2-.3,.13-.58,.25-.86,.38-.09,.04-.17,.1-.17,.24,.34,.16,.77,.14,1.01,.58Zm.48,2.12c.34-.03,.54-.28,.82-.4-.19-.14-.33-.08-.46,.04-.12,.12-.24,.24-.36,.36Z"/>
      <path class="cls-1" d="M50.85,51.45c-.1,.08-.18,.15-.26,.22-.5,.39-1.26,.41-1.76-.04-.09-.08-.2-.15-.3-.23-.06-.05-.13-.1-.18-.16-.12-.15-.07-.28,.12-.34,.03,0,.05-.02,.08-.02-.09-.32-.28-.57-.5-.8-.11-.12-.24-.23-.34-.35-.2-.24-.13-.47,.17-.57,.24-.08,.47-.03,.68,.1,.25,.14,.45,.33,.62,.56,.12,.17,.24,.34,.37,.52,.15-.12,.2-.29,.28-.44,.11-.21,.22-.42,.33-.62,.11-.2,.22-.4,.34-.59,.07-.12,.15-.25,.24-.36,.28-.3,.68-.31,.99-.04,.18,.16,.3,.35,.33,.58,.09,.7,.28,1.37,.44,2.05,.03,.13,.04,.27,.04,.41,0,.43-.24,.67-.67,.69-.09,0-.18,.03-.26,.06-.27,.12-.45,.07-.59-.19-.06-.12-.1-.25-.16-.41Zm.89,.38c.2,.1,.31,.09,.46-.05,.15-.14,.22-.31,.2-.52,0-.09-.03-.18-.05-.27-.14-.67-.37-1.31-.43-1.99-.01-.14-.07-.29-.15-.4-.28-.42-.75-.56-1.07,.01-.19,.33-.37,.66-.59,.98-.06,.08-.1,.17-.14,.27-.1,.27-.25,.5-.47,.69-.07,.06-.14,.12-.1,.25,.02,.09-.05,.21-.09,.33-.19-.3-.01-.5,.13-.72-.16-.2-.32-.41-.48-.6-.18-.21-.38-.4-.65-.49-.12-.04-.25-.06-.37-.03-.23,.05-.27,.2-.1,.37,.07,.07,.12,.21,.26,.12,.13,.13,.26,.26,.38,.39,.02,.02,.02,.09,0,.1-.09,.07-.02,.13,0,.19q.17,.38,.46,.6c-.17,.07-.37-.13-.54,.03,.03,.04,.04,.07,.07,.09,.17,.13,.35,.25,.54,.39,0-.1,0-.18,.01-.26,.01,0,.03,0,.04,0,.05,.13,.1,.26,.16,.4,.46,.19,.91,.14,1.29-.19,.32-.28,.63-.56,.87-.91-.01,.22-.14,.38-.27,.55-.05,.06-.12,.14-.11,.2,.03,.25,.08,.51,.36,.63,.12-.05,.25-.11,.37-.16Z"/>
      <path class="cls-1" d="M23.51,24.11c-.1,.08-.17,.14-.25,.2-.54,.43-1.26,.42-1.78-.03-.1-.08-.2-.15-.3-.23-.06-.05-.13-.1-.18-.16-.12-.15-.07-.28,.12-.34,.03,0,.05-.02,.08-.02-.09-.32-.28-.57-.5-.8-.11-.12-.24-.23-.34-.35-.2-.24-.12-.47,.17-.57,.24-.08,.47-.02,.68,.1,.25,.14,.45,.33,.62,.57,.12,.17,.24,.34,.37,.52,.15-.12,.2-.29,.28-.44,.11-.21,.22-.42,.33-.62,.11-.2,.22-.4,.34-.59,.07-.12,.15-.25,.24-.36,.27-.3,.66-.31,.97-.06,.19,.16,.32,.36,.35,.6,.09,.7,.28,1.37,.44,2.05,.03,.13,.04,.27,.04,.41,0,.43-.24,.67-.67,.69-.09,0-.18,.03-.26,.06-.26,.12-.46,.07-.59-.19-.06-.12-.09-.25-.15-.42Zm.88,.38c.14,.12,.28,.09,.41-.01,.19-.15,.29-.35,.24-.6-.06-.29-.1-.59-.19-.88-.1-.31-.16-.61-.2-.93-.03-.24-.08-.49-.16-.71-.1-.26-.3-.45-.59-.47-.28-.02-.44,.19-.57,.4-.18,.3-.36,.59-.53,.89-.07,.13-.15,.25-.2,.39-.09,.22-.21,.42-.39,.58-.1,.09-.18,.17-.16,.33,.01,.09-.04,.18-.07,.28-.06-.09-.12-.2-.1-.27,.04-.15,.13-.29,.22-.46-.23-.26-.45-.54-.7-.78-.13-.13-.32-.21-.49-.29-.13-.06-.27-.05-.39,.03-.14,.08-.17,.18-.06,.28,.08,.07,.11,.28,.3,.17,0,0,.04,.03,.06,.05,.05,.04,.1,.08,.13,.14,.08,.12,.31,.18,.16,.39,.15,.22,.13,.57,.47,.66,.02,0,.03,.03,.04,.05-.18,.05-.36-.12-.53,.01,.09,.15,.37,.37,.61,.48v-.23h.04c.05,.12,.1,.25,.15,.38,.44,.2,.91,.15,1.28-.17,.32-.28,.64-.56,.88-.93,0,.06,0,.11-.01,.15-.08,.14-.17,.27-.26,.41-.04,.06-.1,.12-.11,.18-.03,.23,.15,.52,.37,.64,.12-.05,.23-.1,.35-.15Z"/>
      <path class="cls-1" d="M49.55,23.03c.1-.19,.18-.34,.26-.49,.11-.2,.21-.4,.32-.6,.11-.2,.22-.4,.34-.59,.07-.12,.15-.25,.24-.36,.28-.31,.68-.32,1-.05,.18,.15,.31,.35,.33,.58,.09,.7,.28,1.37,.44,2.05,.03,.13,.04,.27,.04,.41,0,.43-.24,.67-.67,.69-.09,0-.19,.04-.28,.08-.23,.1-.42,.05-.54-.16-.07-.13-.12-.28-.18-.45-.07,.05-.14,.1-.2,.16-.57,.47-1.29,.46-1.84-.02-.08-.07-.16-.12-.24-.18-.05-.04-.11-.07-.15-.11-.09-.07-.17-.17-.12-.28,.04-.07,.13-.12,.23-.2-.07-.28-.27-.53-.5-.77-.11-.11-.23-.21-.33-.33-.21-.25-.14-.49,.17-.59,.24-.08,.47-.02,.68,.11,.24,.14,.44,.32,.6,.55,.12,.17,.24,.34,.4,.57Zm-.35,1.33c.21,.08,.4,.13,.61,.12,.37-.03,.65-.21,.9-.46,.23-.24,.46-.49,.7-.75-.03,.23-.17,.39-.3,.56-.05,.06-.12,.14-.11,.2,.04,.25,.08,.51,.36,.63,.18-.06,.34-.2,.55-.08,.05,.03,.16-.03,.22-.08,.18-.13,.27-.31,.26-.54,0-.1-.03-.2-.05-.3-.14-.67-.37-1.31-.43-2-.01-.14-.08-.28-.15-.4-.3-.48-.8-.48-1.08,.02-.18,.34-.37,.66-.59,.98-.06,.08-.1,.17-.14,.27-.1,.27-.25,.5-.47,.69-.07,.06-.13,.12-.1,.25,.02,.09-.05,.21-.08,.31-.06-.1-.11-.21-.09-.29,.04-.14,.13-.27,.21-.43-.15-.19-.31-.39-.47-.58-.18-.21-.38-.4-.65-.48-.12-.04-.25-.06-.37-.03-.23,.05-.27,.19-.1,.37,.07,.07,.13,.2,.27,.12,.13,.13,.26,.26,.38,.39,.02,.02,.02,.08,0,.1-.08,.06-.02,.11,0,.17,.05,.13,.09,.26,.17,.37,.07,.1,.19,.17,.29,.25-.17,.07-.36-.13-.56,.05,.21,.16,.41,.31,.63,.47,0-.1,.01-.18,.02-.32,.07,.15,.11,.24,.15,.33,.01,.03,0,.07,0,.12Z"/>
      <path class="cls-1" d="M22.19,50.33c.15-.13,.2-.29,.28-.45,.11-.21,.22-.42,.33-.62,.1-.19,.22-.38,.32-.57,.05-.09,.1-.18,.15-.26,.41-.6,1.03-.36,1.28,.05,.08,.13,.14,.28,.16,.43,.09,.64,.25,1.26,.41,1.89,.04,.17,.06,.36,.06,.54,0,.39-.26,.64-.65,.65-.1,0-.21,.04-.31,.08-.23,.09-.41,.05-.54-.17-.08-.13-.11-.28-.18-.45-.07,.05-.14,.11-.21,.16-.57,.47-1.29,.46-1.84-.02-.08-.07-.18-.13-.26-.19-.06-.05-.14-.09-.19-.16-.14-.16-.09-.29,.11-.36,.02,0,.05-.02,.07-.03-.09-.32-.29-.57-.51-.8-.11-.11-.22-.21-.33-.33-.22-.25-.14-.5,.18-.6,.24-.07,.45,0,.65,.11,.25,.14,.45,.33,.62,.57,.12,.17,.24,.33,.37,.51Zm-1.1,.73c.09,.15,.37,.37,.61,.48v-.23s.03,0,.04-.01c.05,.13,.1,.26,.15,.39,.44,.2,.91,.15,1.28-.17,.32-.28,.64-.56,.88-.93,0,.06,0,.11-.01,.15-.08,.14-.17,.27-.26,.41-.04,.06-.1,.12-.11,.18-.03,.23,.14,.52,.37,.64,.12-.05,.23-.1,.35-.15,.18,.1,.29,.1,.44-.03,.18-.15,.27-.35,.22-.58-.06-.29-.1-.59-.19-.88-.1-.31-.16-.61-.2-.93-.03-.24-.08-.49-.16-.71-.1-.27-.32-.46-.61-.47-.26,0-.42,.19-.54,.4-.18,.3-.35,.59-.53,.89-.07,.13-.15,.25-.2,.39-.09,.23-.21,.42-.39,.58-.1,.09-.18,.17-.16,.33,.01,.09-.04,.18-.07,.28-.06-.09-.12-.2-.1-.27,.04-.15,.13-.29,.22-.46-.23-.26-.45-.54-.7-.78-.13-.13-.32-.21-.49-.29-.13-.06-.27-.05-.39,.03-.14,.08-.17,.18-.06,.28,.08,.07,.11,.28,.3,.17,0,0,.04,.03,.06,.05,.05,.04,.1,.08,.13,.14,.08,.12,.3,.18,.16,.39,.15,.22,.13,.57,.47,.66,.02,0,.03,.03,.04,.06-.18,.04-.36-.12-.54,0Z"/>
      <path class="cls-1" d="M41.2,6.97c.14,.04,.27,.07,.39,.1,.57,.18,1.01,.83,.91,1.45-.02,.13,0,.27-.02,.41,0,.07,0,.15-.03,.21-.07,.19-.18,.22-.35,.11-.02-.01-.04-.03-.07-.04-.25,.32-.35,.7-.42,1.08-.02,.12-.04,.23-.09,.34-.08,.18-.21,.24-.4,.16-.29-.12-.4-.36-.42-.65-.02-.33,.01-.65,.15-.96,.06-.15,.11-.31,.18-.48-.07-.02-.13-.06-.18-.05-.59,.15-1.19,.1-1.79,.18-.11,.01-.22,.02-.32,0-.48-.06-.75-.45-.61-.92,.05-.18,.16-.34,.28-.49,.15-.18,.34-.32,.51-.5,.24-.26,.46-.54,.71-.79,.16-.17,.33-.34,.52-.48,.33-.25,.73-.16,.97,.18,.05,.08,.14,.14,.22,.19,.14,.07,.19,.17,.19,.33,0,.22-.05,.3-.32,.61Zm-.16-.03c.11-.15,.22-.29,.31-.45,.09-.17,.06-.23-.1-.34-.05-.03-.11-.06-.16-.1-.03-.02-.06-.05-.07-.08-.09-.25-.22-.36-.45-.34-.11,.01-.24,.05-.32,.12-.19,.16-.39,.33-.55,.53-.27,.33-.54,.66-.87,.94-.12,.1-.23,.21-.33,.33-.09,.13-.19,.27-.23,.43-.1,.38,.14,.69,.53,.71,.09,0,.18,0,.27,0,.29-.02,.58-.03,.87-.05,.13,0,.26,0,.38-.04,.31-.08,.61-.1,.92-.01,.09,.03,.16,.01,.25-.05,.08-.07,.21-.09,.33-.14-.15,.35-.44,.3-.69,.31-.09,.32-.18,.62-.25,.92-.05,.23-.06,.47,.01,.7,.05,.14,.12,.27,.27,.32,.05,.02,.13,.01,.18-.01,.08-.04,.16-.29,.11-.37-.15-.25,0-.45,.06-.73,.04,.11,.06,.14,.08,.19,.07-.14,.12-.28,.21-.39,.15-.17,.2-.35,.13-.57,0,0,.02-.02,.03-.03,.11,.14,.13,.34,.33,.48,.03-.12,.06-.19,.06-.27,.01-.19,.02-.38,.02-.57,0-.05,0-.09,0-.14-.08-.53-.38-.88-.88-1.04-.28-.09-.58-.13-.88-.19-.06-.01-.13,0-.19,0-.06,0-.13,0-.24-.01,.3-.15,.57-.08,.87-.05Z"/>
      <path class="cls-1" d="M13.87,34.29c.18,.06,.33,.09,.47,.15,.5,.19,.91,.8,.82,1.4-.02,.13-.01,.25-.02,.38,0,.07,0,.15-.02,.22-.05,.22-.18,.26-.38,.14-.02-.01-.05-.02-.07-.03-.24,.33-.35,.7-.41,1.09-.02,.09-.03,.18-.06,.27-.09,.26-.27,.33-.51,.19-.23-.14-.32-.36-.34-.62-.02-.33,.02-.65,.15-.96,.06-.15,.11-.3,.17-.47-.07-.02-.12-.06-.16-.05-.57,.16-1.16,.1-1.73,.18-.12,.02-.25,.02-.38,0-.5-.06-.77-.46-.62-.94,.06-.18,.17-.34,.29-.48,.14-.17,.33-.31,.49-.48,.24-.25,.45-.52,.69-.77,.16-.17,.33-.34,.51-.49,.35-.28,.75-.2,1.01,.17,.05,.07,.12,.13,.2,.17,.16,.07,.21,.18,.2,.35,0,.16-.06,.3-.16,.42-.05,.05-.09,.11-.15,.17Zm-.08,1.73c-.09,.32-.18,.62-.25,.92-.05,.23-.06,.47,.01,.7,.05,.15,.12,.27,.27,.32,.06,.02,.16,.01,.19-.02,.1-.1,.14-.25,.08-.37-.11-.24,0-.43,.08-.69,.04,.09,.05,.13,.07,.16,.09-.16,.17-.33,.28-.47,.09-.12,.13-.23,.08-.37-.01-.04,0-.09,0-.18,.11,.2,.2,.35,.3,.52,.11-.1,.12-.2,.12-.3,0-.14-.02-.27,0-.4,.12-.59-.35-1.12-.74-1.26-.4-.14-.82-.24-1.25-.24-.04,0-.09,0-.18-.01,.31-.16,.58-.07,.87-.06,.1-.15,.22-.28,.31-.44,.09-.16,.05-.24-.1-.34-.08-.05-.15-.09-.23-.14,.06-.18-.07-.25-.18-.31-.2-.1-.41-.09-.59,.06-.19,.17-.39,.34-.55,.53-.27,.33-.54,.66-.87,.94-.12,.1-.22,.22-.33,.33-.12,.13-.21,.28-.24,.45-.07,.38,.16,.67,.54,.69,.1,0,.2,0,.3,0,.24-.01,.47-.03,.71-.05,.22-.02,.43-.03,.65-.07,.24-.04,.47-.06,.7,0,.12,.03,.23,.06,.35-.05,.07-.07,.19-.08,.31-.13-.14,.33-.4,.31-.69,.3Z"/>
      <path class="cls-1" d="M41.19,34.31c.4,.07,.72,.19,.97,.48,.25,.28,.36,.61,.35,.98,0,.17-.02,.34-.03,.52,0,.02,0,.04,0,.05-.03,.32-.18,.39-.45,.21-.24,.32-.35,.69-.42,1.07-.02,.11-.04,.22-.07,.32-.08,.22-.25,.28-.46,.18-.26-.13-.36-.36-.38-.62-.02-.33,.01-.65,.14-.96,.07-.16,.12-.32,.19-.52-.09,0-.16-.03-.22-.01-.6,.15-1.21,.09-1.82,.18-.08,.01-.16,0-.24,0-.53-.07-.79-.48-.61-.98,.06-.16,.16-.31,.27-.44,.15-.17,.33-.31,.49-.48,.24-.25,.45-.52,.69-.77,.16-.17,.33-.34,.51-.49,.35-.28,.76-.2,1.01,.17,.05,.07,.12,.13,.2,.17,.16,.07,.23,.19,.2,.35-.03,.13-.07,.26-.13,.38-.04,.08-.11,.14-.19,.23Zm-.19-.97c.09-.19-.06-.25-.17-.31-.2-.11-.41-.09-.59,.06-.19,.17-.37,.34-.55,.53-.25,.27-.49,.56-.75,.83-.14,.15-.3,.27-.43,.42-.1,.12-.2,.27-.24,.42-.12,.38,.13,.72,.53,.74,.1,0,.2,0,.3,0,.24-.01,.47-.03,.71-.05,.22-.02,.43-.03,.65-.07,.24-.04,.47-.06,.7,0,.12,.03,.23,.05,.35-.05,.07-.07,.19-.08,.31-.13-.14,.35-.43,.3-.69,.3-.09,.32-.18,.61-.25,.91-.05,.23-.06,.47,.01,.7,.05,.14,.12,.27,.27,.32,.06,.02,.16,.01,.19-.03,.09-.1,.14-.24,.08-.38-.11-.24,0-.43,.08-.69,.04,.09,.05,.13,.07,.16,.09-.16,.17-.33,.28-.47,.09-.12,.13-.23,.08-.37-.01-.04,0-.09,0-.18,.11,.2,.2,.35,.3,.53,.1-.11,.11-.2,.11-.3,0-.14-.02-.27,0-.4,.12-.58-.35-1.12-.74-1.26-.4-.14-.82-.24-1.25-.24-.04,0-.09,0-.18-.01,.31-.16,.59-.08,.88-.06,.1-.15,.22-.29,.31-.44,.09-.16,.05-.24-.1-.34-.07-.04-.14-.08-.24-.15Z"/>
      <path class="cls-1" d="M13.87,6.96c.12,.03,.23,.06,.33,.09,.61,.16,1.08,.87,.96,1.49-.02,.12,0,.25-.01,.38,0,.07,0,.15-.03,.21-.06,.19-.18,.22-.35,.11-.02-.01-.04-.03-.07-.04-.25,.32-.35,.7-.42,1.08-.02,.12-.04,.23-.09,.34-.08,.18-.21,.24-.4,.16-.29-.12-.4-.36-.42-.65-.02-.33,.01-.65,.15-.96,.07-.16,.12-.32,.19-.51-.09,0-.17-.02-.23,0-.61,.16-1.25,.1-1.87,.18-.61,.08-1.01-.45-.78-1.03,.06-.15,.16-.29,.27-.41,.15-.17,.33-.31,.49-.48,.24-.26,.46-.54,.71-.79,.17-.18,.34-.35,.54-.5,.32-.24,.73-.14,.95,.19,.05,.08,.13,.15,.22,.19,.14,.07,.2,.17,.19,.33,0,.15-.04,.29-.14,.4-.06,.07-.11,.14-.18,.22Zm-.98,.02c.27-.16,.54-.07,.82-.05,.1-.14,.21-.27,.3-.42,.1-.17,.07-.25-.1-.36-.08-.05-.15-.09-.22-.13,0-.07,0-.13-.02-.17-.05-.06-.11-.12-.18-.16-.2-.1-.4-.09-.57,.06-.2,.17-.4,.35-.57,.55-.28,.33-.54,.66-.87,.94-.11,.09-.22,.19-.31,.31-.1,.13-.19,.27-.24,.42-.12,.39,.13,.71,.54,.73,.09,0,.18,0,.27,0,.27-.01,.54-.03,.82-.05,.16-.01,.33-.02,.49-.05,.27-.05,.54-.08,.81,0,.1,.03,.2,.03,.3-.05,.08-.07,.2-.08,.3-.12-.07,.12-.15,.23-.26,.27-.12,.04-.27,.02-.42,.03-.09,.33-.18,.65-.26,.98-.05,.21-.05,.43,.03,.65,.05,.14,.13,.27,.28,.31,.06,.02,.17,0,.19-.04,.05-.11,.11-.26,.07-.35-.1-.25,0-.44,.08-.71,.04,.09,.05,.13,.07,.18,.07-.13,.12-.28,.21-.38,.15-.17,.21-.35,.13-.57,0,0,.02-.02,.03-.04,.11,.14,.14,.34,.33,.49,.02-.13,.05-.21,.05-.3,.01-.17,.02-.34,.02-.51,0-.06,0-.13,0-.19-.1-.52-.4-.88-.91-1.02-.4-.12-.81-.22-1.23-.21Z"/>
      <path class="cls-1" d="M23.74,1.77c.09,.03,.17,.05,.24,.08,.11,.06,.13,.16,.13,.28,0,.12-.09,.17-.19,.2-.03,0-.05,.01-.08,0-.22,0-.37,.12-.51,.28-.16,.19-.31,.38-.46,.55,.03,.07,.09,.15,.07,.2-.06,.14,0,.27,0,.4,.05,.51,.04,1.02-.28,1.46-.12,.17-.23,.35-.34,.52-.16,.25-.4,.37-.68,.41-.43,.05-.83-.03-1.2-.27-.03-.02-.07-.03-.09-.06-.31-.31-.5-.67-.51-1.11,0-.05,0-.1,.01-.13,.17-.36,.34-.73,.72-.93,.24-.13,.49-.23,.74-.34,.3-.12,.63-.2,.87-.44,.02-.02,.05-.05,.07-.04,.21,.04,.28-.14,.38-.25,.16-.17,.3-.34,.46-.5,.1-.11,.15-.24,.15-.4,0-.2,.08-.28,.24-.29,.15,0,.21,.06,.25,.26,0,.03,.01,.07,.02,.1Zm-.84,.96c.09-.05,.21-.08,.27-.16,.17-.22,.37-.37,.66-.38,.05,0,.12-.07,.13-.11,0-.05-.05-.12-.1-.14-.08-.04-.17-.05-.26-.08,0-.05,.02-.1,.02-.14,0-.09-.04-.17-.14-.16-.1,0-.1,.08-.09,.16,.02,.16-.05,.3-.14,.43-.07,.09-.21,.18-.21,.28,0,.19-.19,.1-.23,.2-.02,.03-.04,.06-.06,.09-.18,.04-.06,.28-.23,.34,0,0,0,.07,0,.1,0,0,.01,.01,.01,.02,.18-.05,.3-.17,.39-.32,.02-.03-.01-.09-.02-.13Zm-.18,2.01c.11-.25,.14-.52,.1-.78-.05,.01-.09,.02-.15,.04v-.34s.08,0,.12,0c0-.11,.02-.23,.03-.32-.13-.03-.25-.05-.33-.07-.07-.14,0-.29-.17-.35-.3,.33-.71,.43-1.11,.59-.2,.08-.41,.17-.58,.3-.51,.4-.89,.92-.42,1.58,.02,.02,.02,.05,.04,.07,.08,.1,.15,.21,.25,.28,.3,.2,.64,.31,1,.29,.28-.02,.53-.12,.7-.37,.04-.07,.09-.13,.14-.2,.04-.06,.06-.14,.12-.18,.12-.09-.07-.1-.03-.18,.1-.21,.19-.42,.3-.65v.29Z"/>
      <path class="cls-1" d="M51.07,29.11c.1,.03,.18,.05,.25,.09,.11,.06,.13,.16,.12,.28,0,.11-.08,.19-.17,.19-.48-.02-.65,.39-.91,.65-.06,.06-.1,.13-.17,.21,.04,.06,.12,.12,.07,.24-.04,.08,0,.19,0,.29,.04,.35,.08,.72-.05,1.05-.11,.28-.28,.53-.43,.79-.37,.63-.77,.65-1.37,.59-.27-.03-.53-.14-.74-.32-.29-.24-.42-.59-.5-.95-.04-.17,.02-.33,.1-.5,.25-.54,.69-.83,1.22-1.02,.24-.08,.48-.18,.71-.27,.07-.03,.15-.07,.21-.12,.17-.13,.17-.13,.34-.16,.19-.2,.37-.39,.55-.59,.15-.16,.28-.33,.26-.57-.01-.17,.06-.24,.22-.25,.15-.01,.23,.05,.27,.21,.01,.04,0,.09,.01,.15Zm-.99,.96c-.18,.04-.06,.28-.23,.34,0,0,0,.07,0,.1,0,0,.01,.01,.02,.03,.03-.02,.07-.06,.1-.07,.17-.03,.21-.18,.3-.29,.01-.02-.02-.07-.04-.11,.09-.05,.21-.08,.27-.16,.17-.22,.37-.37,.66-.38,.05,0,.12-.07,.13-.11,0-.05-.05-.12-.1-.14-.08-.04-.17-.05-.26-.08,.01-.04,.02-.06,.02-.08,0-.15-.05-.23-.14-.21-.12,.02-.08,.11-.09,.19-.02,.13-.07,.26-.13,.38-.05,.1-.2,.18-.21,.28-.02,.18-.18,.14-.24,.22-.02,.03-.04,.06-.06,.09Zm-.39,.21s-.06,0-.07,.02c-.22,.25-.52,.35-.82,.47-.29,.12-.61,.22-.85,.41-.52,.41-.86,.91-.41,1.56,.02,.02,.02,.05,.04,.07,.1,.11,.18,.24,.3,.31,.16,.1,.34,.18,.52,.22,.57,.12,.95,.02,1.24-.47,.06-.11,.13-.21,.2-.32-.04-.01-.07-.02-.08-.03,.1-.24,.19-.47,.28-.7h.03c0,.1-.01,.2-.02,.31,.12-.27,.14-.54,.12-.84-.06,.02-.1,.03-.16,.06v-.34s.08,0,.11,0c.01-.12,.02-.23,.03-.32-.13-.03-.25-.05-.35-.08q-.03-.2-.11-.34Z"/>
      <path class="cls-1" d="M51.08,1.78c.09,.03,.17,.05,.24,.08,.11,.06,.13,.16,.13,.28,0,.12-.09,.17-.19,.21-.03,0-.05,.01-.08,0-.22,0-.37,.12-.51,.28-.16,.19-.31,.38-.47,.56,.03,.05,.09,.1,.08,.13-.09,.27,.02,.54,.02,.81,0,.42-.09,.79-.32,1.13-.11,.17-.22,.33-.33,.5-.16,.25-.4,.37-.68,.41-.43,.05-.83-.03-1.2-.27-.03-.02-.07-.03-.09-.06-.31-.31-.5-.67-.51-1.11,0-.05,0-.1,.01-.13,.17-.36,.34-.73,.72-.93,.24-.13,.49-.23,.74-.34,.3-.12,.63-.19,.87-.44,.02-.02,.05-.05,.07-.04,.21,.04,.28-.14,.38-.25,.16-.17,.3-.34,.46-.5,.1-.11,.15-.24,.15-.4,0-.2,.08-.28,.24-.29,.15,0,.21,.06,.25,.26,0,.03,.01,.07,.01,.1Zm-1,.96c-.18,.04-.06,.28-.23,.34,0,0,0,.07,0,.1,0,0,.01,.01,.02,.03,.03-.02,.07-.06,.1-.07,.17-.03,.21-.18,.3-.29,.01-.02-.02-.07-.04-.11,.09-.05,.21-.08,.27-.16,.17-.22,.36-.38,.65-.38,.05,0,.13-.06,.13-.1,0-.05-.05-.12-.09-.14-.08-.04-.17-.05-.27-.08,.01-.04,.03-.07,.03-.1,0-.09-.02-.2-.14-.19-.11,0-.09,.09-.1,.18-.02,.13-.06,.26-.12,.38-.05,.1-.19,.17-.21,.27-.03,.16-.18,.15-.25,.23-.02,.03-.04,.06-.06,.09Zm-.35,.2s-.05,0-.07-.01c-.29,.32-.69,.43-1.06,.58-.23,.09-.47,.18-.65,.33-.51,.42-.86,.91-.41,1.56,.02,.02,.02,.05,.04,.07,.1,.11,.2,.24,.32,.32,.15,.1,.33,.17,.5,.21,.61,.16,1.12-.1,1.37-.68,.01-.03,.04-.08,.02-.1-.07-.09,.02-.15,.04-.22,.05-.13,.1-.25,.15-.38,.02-.05,.04-.1,.06-.15h.04c0,.11-.02,.21-.03,.31,.13-.27,.14-.55,.13-.83-.07,.02-.11,.03-.17,.05v-.33s.08,0,.12,0c0-.12,.02-.23,.03-.32-.13-.03-.25-.05-.34-.07-.03-.14-.05-.24-.08-.34Z"/>
      <path class="cls-1" d="M22.43,30.16c.19-.2,.36-.38,.53-.57,.16-.17,.3-.34,.28-.6-.01-.16,.06-.22,.2-.24,.16-.02,.24,.04,.28,.19,.01,.05,.01,.11,.02,.16,.08,.03,.16,.05,.23,.08,.11,.05,.16,.16,.14,.3-.01,.12-.1,.19-.2,.19-.33-.01-.51,.2-.69,.42-.11,.14-.23,.28-.35,.42,.03,.05,.09,.11,.08,.15-.09,.33,.05,.65,.02,.97-.02,.25-.05,.49-.18,.71-.16,.27-.32,.53-.5,.78-.18,.26-.44,.36-.75,.38-.4,.03-.76-.05-1.09-.27-.14-.09-.27-.22-.35-.37-.14-.24-.29-.49-.26-.79,0-.05,0-.11,.02-.16,.17-.37,.36-.74,.75-.94,.22-.11,.44-.21,.67-.3,.32-.12,.66-.21,.92-.45,.06-.05,.17-.05,.23-.06Zm.31-.09c-.18,.04-.06,.28-.23,.34,0,0,0,.07,0,.1,0,0,.01,.01,.02,.03,.03-.02,.07-.06,.1-.07,.17-.03,.21-.18,.3-.29,.01-.02-.02-.07-.04-.11,.09-.05,.21-.08,.27-.16,.17-.22,.37-.37,.66-.38,.05,0,.12-.07,.13-.11,0-.05-.05-.12-.1-.14-.08-.04-.17-.05-.26-.08,0-.05,.02-.1,.02-.14,0-.09-.04-.17-.14-.16-.1,0-.1,.08-.09,.16,.02,.16-.05,.3-.14,.43-.07,.09-.21,.18-.21,.28,0,.19-.19,.1-.23,.2-.02,.03-.04,.06-.06,.09Zm-.35,.2s-.05-.01-.07-.02c-.31,.35-.76,.45-1.16,.62-.19,.08-.4,.16-.55,.29-.52,.43-.86,.91-.41,1.56,.02,.03,.03,.07,.05,.1,.08,.09,.15,.21,.26,.27,.3,.19,.62,.3,.98,.28,.24-.01,.46-.08,.63-.27,.15-.16,.19-.29,.31-.64,.07-.22,.19-.43,.3-.68v.31c.12-.27,.13-.53,.11-.81-.06,.02-.1,.03-.14,.05-.07-.28-.06-.31,.09-.33,0-.11,.02-.23,.03-.31-.13-.03-.25-.05-.34-.07-.03-.14-.05-.24-.08-.34Z"/>
      <path class="cls-1" d="M8.87,49.42c-.09,.05-.15,.09-.21,.1-.12,.03-.25,.03-.37,.07-.54,.17-1.07,.19-1.59-.06-.11-.06-.23-.11-.35-.15-.57-.22-.75-.69-.73-1.24,0-.18,.06-.36,.1-.53,.05-.22,.17-.4,.36-.53,.13-.08,.25-.18,.38-.27,.2-.13,.42-.14,.66-.08,.52,.14,.91,.44,1.17,.91,.15,.26,.3,.52,.46,.77,.05,.08,.11,.15,.18,.2,.09,.07,.17,.13,.19,.25,0,.05,.07,.1,.12,.13,.23,.15,.46,.29,.69,.44,.13,.08,.26,.12,.41,.09,.22-.04,.32,.02,.36,.18,.03,.13-.04,.24-.23,.31-.02,0-.05,.01-.09,.02,0,.07,0,.14-.02,.21-.03,.12-.1,.19-.23,.21-.12,.02-.21-.05-.27-.15,0,0-.01-.02-.01-.02-.03-.35-.3-.47-.56-.62-.15-.09-.3-.18-.42-.25Zm-.12-.39c.11,.23,.28,.37,.53,.39,.03,0,.08,.02,.08,.02,0,.11,.09,.13,.15,.17,.23,.13,.42,.28,.47,.56,0,.04,.08,.1,.13,.11,.08,0,.12-.06,.13-.14,0-.08,.01-.16,.02-.23,.08-.01,.15,0,.2-.04,.04-.03,.09-.1,.09-.14,0-.07-.07-.1-.14-.07-.24,.08-.44-.02-.64-.15-.07-.05-.13-.1-.24-.09-.05,0-.09-.13-.16-.18-.1-.07-.18-.19-.33-.11-.07-.1-.18-.1-.29-.09,.09-.06,.19-.11,.28-.17-.15-.15-.29-.28-.4-.43-.17-.24-.31-.49-.46-.74-.26-.44-.63-.71-1.12-.85-.17-.05-.33-.03-.47,.06-.16,.1-.32,.21-.47,.33-.08,.07-.15,.16-.19,.26-.13,.32-.18,.65-.12,.99,.05,.31,.21,.55,.49,.68,.18,.08,.33,.19,.57,.15,.22-.03,.46,.09,.7,.15-.07,.03-.14,.05-.25,.1,.51,.05,.94-.12,1.38-.2-.02-.12-.09-.25,.06-.34Z"/>
      <path class="cls-1" d="M37.71,50.05c0,.08,0,.15-.02,.21-.03,.12-.1,.19-.23,.21-.13,.02-.21-.05-.27-.15,0,0-.01-.02-.01-.02-.03-.33-.29-.46-.53-.6-.16-.09-.31-.18-.46-.27-.06,.04-.11,.09-.17,.11-.12,.03-.25,.02-.37,.06-.56,.18-1.1,.2-1.64-.07-.11-.05-.21-.1-.33-.14-.57-.22-.75-.69-.73-1.24,0-.19,.06-.38,.11-.56,.05-.21,.17-.38,.35-.5,.13-.08,.25-.18,.38-.26,.2-.13,.42-.14,.66-.08,.52,.14,.91,.44,1.17,.91,.15,.26,.3,.52,.46,.77,.05,.08,.11,.15,.18,.2,.09,.07,.17,.13,.19,.25,0,.05,.07,.1,.12,.13,.23,.15,.46,.29,.69,.44,.13,.08,.26,.12,.41,.09,.22-.04,.32,.02,.36,.18,.03,.13-.04,.24-.23,.31-.02,0-.05,.01-.1,.03Zm-1.62-1.01c.05,.14,.14,.25,.27,.31,.09,.04,.15,.12,.27,.09,.12-.03,.09,.15,.2,.19,.25,.1,.44,.28,.49,.57,0,.04,.09,.1,.13,.09,.05,0,.1-.07,.12-.12,.02-.07,.01-.16,.02-.24,.08-.02,.15-.01,.21-.05,.04-.03,.08-.1,.08-.14,0-.07-.07-.09-.15-.07-.23,.07-.43-.02-.61-.14-.08-.05-.14-.12-.27-.1-.05,0-.11-.14-.18-.19-.09-.07-.17-.17-.31-.09-.07-.1-.18-.1-.29-.09,.09-.06,.19-.11,.28-.17-.15-.15-.29-.28-.4-.43-.17-.24-.31-.49-.46-.74-.26-.44-.63-.71-1.12-.85-.17-.05-.33-.03-.47,.06-.16,.1-.32,.21-.47,.33-.08,.07-.15,.16-.19,.26-.13,.31-.17,.63-.12,.96,.05,.33,.22,.58,.52,.72,.17,.08,.32,.17,.55,.14,.22-.03,.46,.09,.7,.15-.07,.03-.14,.05-.21,.08,.23,.02,.46,0,.68-.03,.22-.04,.43-.1,.66-.16-.02-.11-.08-.24,.06-.33Z"/>
      <path class="cls-1" d="M10.37,22.71c0,.07,0,.13-.01,.19-.03,.13-.12,.21-.24,.22-.13,.01-.24-.06-.26-.16-.06-.38-.35-.5-.63-.66-.13-.07-.25-.15-.38-.23-.05,.04-.11,.12-.15,.11-.18-.04-.34,.05-.5,.1-.5,.15-.98,.15-1.46-.07-.12-.06-.25-.11-.38-.16-.58-.22-.75-.67-.75-1.23,0-.2,.06-.39,.11-.59,.05-.2,.16-.36,.34-.48,.13-.09,.25-.18,.38-.27,.21-.13,.44-.15,.68-.08,.51,.14,.89,.44,1.16,.89,.15,.25,.29,.51,.44,.75,.07,.1,.17,.19,.25,.28,.04,.04,.1,.08,.1,.12,.02,.17,.15,.22,.26,.29,.19,.12,.38,.24,.58,.37,.13,.09,.27,.13,.44,.1,.2-.04,.3,.02,.35,.17,.04,.14-.03,.25-.22,.32-.03,.01-.07,.02-.11,.03Zm-1.62-1.01c.11,.23,.28,.37,.53,.39,.03,0,.08,.02,.08,.02,0,.11,.09,.13,.15,.17,.23,.13,.42,.28,.47,.56,0,.04,.1,.12,.12,.11,.06-.02,.11-.08,.13-.14,.03-.07,.02-.16,.02-.23,.08-.01,.15,0,.2-.04,.04-.03,.09-.1,.08-.14,0-.07-.07-.1-.14-.07-.24,.08-.44-.02-.64-.15-.05-.03-.11-.09-.16-.09-.08,0-.14,.02-.15-.09,0-.03-.05-.07-.09-.09-.1-.06-.18-.19-.33-.11-.07-.1-.18-.1-.29-.09,.09-.06,.19-.11,.28-.17-.15-.15-.29-.28-.4-.43-.17-.24-.31-.49-.46-.74-.26-.44-.63-.72-1.12-.84-.12-.03-.27-.04-.37,0-.47,.22-.86,.52-.88,1.11,0,.1-.02,.2-.02,.3,.01,.55,.38,.98,.91,1.07,.03,0,.07,.01,.08,0,.08-.08,.15-.02,.22,0,.11,.03,.23,.05,.34,.08,.04,0,.07,.03,.15,.07-.06,.04-.09,.05-.14,.08,.47,.05,.9-.12,1.35-.2-.02-.12-.09-.25,.06-.34Z"/>
      <path class="cls-1" d="M37.71,22.71c0,.07,0,.13-.01,.19-.03,.13-.12,.21-.24,.22-.13,.01-.24-.06-.26-.16-.06-.38-.35-.5-.63-.66-.13-.07-.25-.15-.38-.23-.05,.04-.11,.12-.15,.11-.18-.03-.32,.04-.48,.09-.51,.15-1.02,.16-1.51-.08-.11-.05-.23-.11-.35-.15-.58-.22-.75-.68-.75-1.23,0-.2,.06-.39,.11-.59,.05-.2,.16-.36,.34-.48,.13-.09,.25-.18,.38-.27,.21-.13,.44-.15,.68-.08,.51,.14,.89,.44,1.16,.89,.15,.25,.29,.51,.44,.75,.07,.1,.17,.19,.25,.28,.04,.04,.1,.08,.1,.12,.02,.17,.15,.22,.26,.29,.19,.12,.38,.24,.58,.37,.13,.09,.27,.13,.44,.1,.2-.04,.3,.02,.35,.17,.04,.14-.03,.25-.22,.32-.03,.01-.07,.02-.11,.03Zm-1.62-1.01c.11,.23,.28,.37,.53,.39,.03,0,.08,.02,.08,.02,0,.11,.09,.13,.15,.17,.23,.13,.42,.28,.47,.56,0,.04,.08,.1,.13,.11,.08,0,.12-.06,.13-.14,0-.08,.01-.16,.02-.23,.08-.01,.15,0,.2-.04,.04-.03,.09-.1,.08-.14,0-.07-.07-.1-.14-.07-.24,.08-.44-.02-.64-.15-.05-.03-.11-.09-.16-.09-.08,0-.14,.02-.15-.09,0-.03-.05-.07-.09-.09-.1-.06-.18-.19-.33-.11-.07-.1-.18-.1-.29-.09,.09-.06,.19-.11,.28-.17-.15-.15-.29-.28-.4-.43-.17-.24-.31-.49-.46-.74-.26-.44-.63-.72-1.12-.84-.12-.03-.27-.04-.37,0-.47,.22-.86,.52-.88,1.11,0,.1-.02,.2-.02,.3,.01,.55,.38,.98,.91,1.07,.03,0,.07,.01,.08,0,.08-.08,.15-.02,.22,0,.11,.03,.23,.05,.34,.08,.04,0,.07,.03,.13,.06-.05,.04-.08,.06-.12,.09,.48,.03,.91-.13,1.35-.21-.02-.12-.09-.25,.06-.34Z"/>
      <path class="cls-1" d="M52.32,39.49c.1,.25,.16,.52,.3,.75,.13,.22,.33,.39,.5,.58-.41-.04-.81-.65-.8-1.33Z"/>
      <path class="cls-1" d="M53.14,13.49c-.44-.05-.83-.66-.86-1.34,.09,.08,.12,.17,.14,.25,.09,.41,.29,.74,.63,.98,.03,.02,.05,.06,.09,.11Z"/>
      <path class="cls-1" d="M35.84,53.41c.43-.32,1.19-.27,1.63,.12-.31-.08-.56-.19-.82-.21-.26-.02-.53,.05-.8,.09Z"/>
      <path class="cls-1" d="M8.51,53.4c.39-.3,1.11-.27,1.6,.1-.14,0-.26-.03-.37-.07-.33-.14-.66-.17-1-.04-.05,.02-.11,.02-.16,.03-.02,0-.03,0-.07-.02Z"/>
      <path class="cls-1" d="M31.69,.85c.06-.18,.13-.36,.19-.54,.01,0,.02,0,.04,0-.01,.1-.02,.2-.04,.3,0,0,.02,.02,.03,.02,.03-.06,.05-.11,.08-.17,.02,.02,.04,.04,.06,.06-.06,.07,0,.25-.21,.2-.02,0-.07,.1-.11,.16-.02-.01-.03-.03-.05-.04Z"/>
      <path class="cls-1" d="M4.58,.34c-.01,.1-.03,.19-.05,.33,.07-.08,.11-.12,.15-.17-.02,.11,.04,.27-.17,.23-.04,0-.09,.09-.16,.11,.07-.18,.13-.36,.2-.54,.01,0,.02,.02,.03,.03Z"/>
      <path d="M50.08,30.07c.05,0,.11,0,.16,0,.01,.04,.05,.09,.04,.11-.09,.11-.13,.26-.3,.29-.04,0-.07,.04-.1,.07,0-.01-.02-.02-.02-.03,0-.04-.01-.1,0-.1,.17-.05,.04-.3,.23-.34Z"/>
      <path class="cls-1" d="M8.25,26.15c-.65,.21-1.18,.63-1.78,.94-.38,.2-.76,.38-1.14,.57-.16,.08-.32,.17-.54,.28,.06-.08,.08-.13,.11-.16,.09-.06,.18-.13,.27-.18,.76-.41,1.52-.82,2.27-1.24,.25-.14,.51-.23,.8-.23Z"/>
      <path class="cls-1" d="M10.09,26.18c-.27-.07-.53-.18-.79-.2-.25-.02-.51,.05-.79,.09,.06-.11,.17-.13,.26-.15,.46-.15,.89-.04,1.3,.19,.01,0,.01,.03,.02,.07Z"/>
      <path class="cls-1" d="M4.34,28.2c.07-.2,.14-.38,.2-.56,.01,0,.02,0,.04,0-.01,.1-.03,.2-.05,.35,.07-.07,.11-.12,.15-.16q0,.1-.34,.36Z"/>
      <path class="cls-1" d="M35.58,26.15c-.88,.33-1.61,.92-2.45,1.31-.32,.15-.64,.31-.99,.48,.04-.06,.06-.11,.09-.13,.09-.06,.18-.13,.27-.18,.79-.38,1.55-.81,2.3-1.25,.24-.14,.49-.22,.77-.22Z"/>
      <path class="cls-1" d="M37.47,26.2c-.31-.08-.56-.19-.82-.21-.26-.02-.53,.05-.8,.09,.43-.32,1.2-.27,1.63,.12Z"/>
      <path class="cls-1" d="M31.87,28.01c.07-.09,.11-.13,.15-.17-.02,.1,.04,.28-.17,.23-.03,0-.09,.09-.16,.12,.06-.18,.13-.36,.19-.54,.01,0,.02,0,.04,0-.01,.1-.02,.19-.04,.36Z"/>
      <path class="cls-1" d="M29.42,15.54c-.15-.05-.32-.08-.45-.16-.77-.45-1.58-.83-2.38-1.21-.23-.11-.42-.28-.59-.48,.04,.01,.1,.02,.13,.04,.37,.32,.84,.47,1.26,.69,.51,.27,1.03,.54,1.54,.81,.17,.09,.34,.17,.5,.26,0,.02-.01,.03-.02,.05Z"/>
      <path class="cls-1" d="M24.98,12.16c.1,.25,.16,.52,.3,.75,.13,.22,.33,.39,.5,.58-.42-.04-.81-.66-.8-1.33Z"/>
      <path class="cls-1" d="M29.42,42.88c-.15-.05-.32-.08-.45-.16-.77-.45-1.58-.83-2.38-1.21-.23-.11-.41-.29-.59-.49,.04,.01,.1,.02,.13,.04,.37,.32,.84,.47,1.26,.69,.51,.27,1.03,.54,1.54,.81,.17,.09,.34,.17,.5,.26,0,.02-.01,.03-.02,.05Z"/>
      <path class="cls-1" d="M24.98,39.49c.1,.25,.16,.52,.3,.75,.13,.22,.33,.39,.5,.58-.41-.04-.81-.64-.8-1.33Z"/>
      <path class="cls-1" d="M15.14,46.32c.14-.07,.28-.12,.41-.21,.29-.2,.57-.41,.87-.61,.51-.35,1.02-.69,1.53-1.03,.13-.09,.26-.18,.41-.25-.05,.12-.15,.21-.26,.28-.17,.12-.35,.22-.52,.34-.57,.4-1.14,.81-1.71,1.22-.22,.15-.45,.25-.71,.31,0-.02-.02-.03-.02-.05Z"/>
      <path class="cls-1" d="M14.9,46.44c-.31,.37-1.04,.41-1.62,.08,.15,.01,.25,0,.34,.03,.38,.13,.75,.09,1.11-.08,.04-.02,.08-.03,.13-.04,.01,0,.03,0,.05,.01Z"/>
      <path class="cls-1" d="M18.34,16.86c-.04,.17-.16,.26-.29,.34-.76,.46-1.47,1-2.19,1.53-.21,.15-.45,.26-.74,.26,.02-.01,.05-.02,.07-.03,.53-.21,.94-.61,1.4-.93,.44-.3,.89-.59,1.34-.89,.14-.09,.27-.18,.41-.27Z"/>
      <path class="cls-1" d="M13.3,19.2c.12,0,.21-.02,.29,0,.42,.15,.82,.09,1.21-.1,.02-.01,.05-.01,.08-.02,0,0,.02,0,.02,.01-.33,.4-1.09,.38-1.59,.11Z"/>
      <path class="cls-1" d="M45.71,44.24c-.11,.1-.21,.22-.34,.29-.75,.46-1.46,.99-2.16,1.51-.21,.16-.46,.24-.73,.29,.03-.02,.05-.06,.08-.07,.37-.14,.67-.39,.98-.62,.58-.43,1.15-.85,1.78-1.21,.12-.07,.24-.16,.35-.24,.01,.02,.03,.03,.04,.05Z"/>
      <path class="cls-1" d="M40.67,46.53c.09,0,.19,0,.28,.02,.39,.13,.77,.09,1.13-.09,.05-.02,.1-.03,.18-.05-.34,.42-1.09,.42-1.59,.12Z"/>
      <path class="cls-1" d="M42.48,19s.02-.03,.03-.04c.62-.27,1.1-.74,1.64-1.1,.36-.24,.73-.48,1.09-.71,.14-.09,.28-.19,.48-.32-.1,.2-.23,.29-.35,.38-.25,.17-.51,.32-.75,.49-.47,.33-.94,.68-1.41,1.02-.09,.06-.18,.12-.28,.16-.14,.06-.28,.11-.43,.17,0-.01-.02-.03-.03-.04Z"/>
      <path class="cls-1" d="M42.22,19.08c-.47,.44-1,.37-1.6,.15,.14-.05,.24-.05,.32-.02,.4,.14,.78,.09,1.16-.09,.04-.02,.08-.03,.12-.04Z"/>
      <path class="cls-1" d="M11.57,34.75c-.22,.2-.28,.41-.26,.67-.15-.15-.09-.29-.05-.42,.04-.11,.08-.24,.3-.25Z"/>
      <path class="cls-1" d="M11.51,7.43c-.16,.18-.23,.39-.2,.67-.15-.16-.09-.3-.05-.43,.04-.12,.1-.22,.25-.24Z"/>
      <path class="cls-1" d="M20.97,4.31c-.03,.09-.05,.16-.07,.23-.04,.16-.09,.33-.13,.5-.02,.08-.05,.15-.13,.14-.06,0-.13-.06-.16-.11-.1-.18-.06-.37,0-.55,.04-.11,.09-.22,.17-.3,.04-.05,.15-.07,.21-.06,.05,.01,.08,.1,.11,.15Zm-.11-.09c-.22,.05-.23,.2-.27,.32-.05,.17-.12,.34,.03,.51,.08-.27,.15-.53,.23-.83Z"/>
      <path class="cls-1" d="M21.64,5.44c.12-.1,.23-.17,.32-.26,.09-.09,.16-.21,.26-.35-.02,.37-.27,.61-.58,.61Z"/>
      <path class="cls-1" d="M48.31,31.67c-.04,.12-.07,.2-.1,.29-.04,.13-.08,.26-.1,.39-.02,.09-.04,.16-.14,.17-.1,.01-.14-.06-.18-.14-.08-.19-.03-.38,.03-.56,.03-.09,.09-.18,.14-.26,.06-.08,.15-.13,.23-.08,.06,.04,.08,.13,.11,.17Zm-.13-.12c-.2,.07-.23,.21-.26,.33-.04,.17-.12,.34,.07,.54-.03-.32,.16-.56,.19-.88Z"/>
      <path class="cls-1" d="M49.53,32.2c-.02,.36-.24,.57-.55,.58,.12-.09,.23-.17,.32-.26,.09-.09,.16-.21,.23-.32Z"/>
      <path class="cls-1" d="M47.75,4.87c.02-.25,.08-.45,.22-.63,.06-.08,.14-.13,.24-.08,.1,.04,.11,.14,.08,.23-.02,.08-.05,.15-.07,.23-.04,.13-.08,.26-.1,.39-.02,.09-.04,.16-.13,.18-.1,.02-.15-.06-.18-.13-.03-.07-.04-.14-.05-.18Zm.43-.6s-.04-.02-.06-.03c-.16,.06-.18,.22-.21,.36-.03,.15-.1,.31,.05,.44,.08-.26,.15-.52,.22-.77Z"/>
      <path class="cls-1" d="M49.53,4.86c-.03,.37-.24,.58-.55,.58,.12-.09,.23-.17,.32-.26,.09-.09,.16-.21,.23-.32Z"/>
      <path class="cls-1" d="M20.39,32.12c.06-.16,.14-.34,.22-.52,.05-.1,.14-.16,.24-.12,.12,.04,.11,.15,.09,.25-.01,.06-.04,.12-.06,.18-.04,.15-.08,.29-.11,.44-.02,.08-.04,.14-.12,.16-.1,.02-.15-.04-.18-.12-.03-.07-.04-.16-.07-.28Zm.26,.29c-.03-.32,.16-.55,.19-.86-.21,.06-.23,.22-.26,.35-.04,.16-.11,.33,.07,.51Z"/>
      <path class="cls-1" d="M21.68,32.78c.18-.19,.36-.38,.54-.57,.01,.28-.24,.55-.54,.57Z"/>
      <path class="cls-1" d="M6.94,47.23c.18,.05,.34,.1,.5,.16,.09,.03,.15,.11,.12,.22-.03,.09-.11,.12-.19,.12-.04,0-.07,0-.11,0-.21-.03-.41-.05-.62-.09-.05,0-.13-.05-.14-.09-.01-.05,.03-.13,.07-.16,.12-.06,.25-.1,.37-.15Zm-.33,.26c.26,.04,.49,.09,.72,.12,.04,0,.08-.04,.12-.07-.03-.03-.05-.08-.08-.09-.2-.07-.4-.1-.61-.04-.05,.01-.09,.05-.15,.08Z"/>
      <path class="cls-1" d="M7.09,49.04c-.39,.03-.61-.13-.66-.45,.11,.1,.2,.2,.31,.27,.11,.07,.23,.12,.35,.18Z"/>
      <path class="cls-1" d="M34.66,47.71c-.24-.03-.48-.05-.73-.08-.1-.01-.14-.12-.07-.21,.02-.03,.05-.05,.08-.07,.21-.14,.72-.1,.9,.08,.04,.04,.07,.15,.05,.19-.05,.06-.14,.09-.21,.13,0-.01,0-.03-.01-.04Zm-.72-.21c.27,.04,.51,.08,.74,.12,0,0,.02,0,.03,0,.03-.02,.07-.04,.07-.07,0-.03-.02-.08-.04-.08-.26-.08-.51-.15-.8,.03Z"/>
      <path class="cls-1" d="M33.76,48.59c.11,.1,.2,.2,.31,.27,.11,.07,.24,.12,.38,.19-.34,.06-.63-.13-.69-.46Z"/>
      <path class="cls-1" d="M6.94,19.9c.17,.05,.33,.09,.49,.15,.09,.03,.15,.1,.13,.21-.03,.11-.11,.13-.21,.13-.04,0-.07,0-.11,0-.2-.03-.39-.05-.59-.08-.05,0-.14-.05-.15-.08,0-.06,.03-.15,.07-.18,.11-.06,.23-.09,.36-.14Zm-.34,.26c.27,.04,.5,.08,.72,.11,.04,0,.08-.04,.12-.07-.03-.03-.05-.08-.08-.09-.2-.07-.4-.1-.61-.04-.05,.01-.09,.05-.16,.09Z"/>
      <path class="cls-1" d="M7.09,21.7c-.39,.03-.61-.12-.67-.45,.11,.1,.2,.2,.31,.27,.11,.07,.24,.12,.35,.18Z"/>
      <path class="cls-1" d="M34.27,19.9c.17,.05,.32,.08,.48,.13,.1,.03,.18,.1,.16,.22-.02,.1-.11,.15-.26,.13-.09,0-.18-.04-.27-.05-.13-.02-.25-.02-.38-.04-.05,0-.14-.05-.15-.08,0-.06,.03-.15,.07-.18,.11-.06,.23-.09,.35-.14Zm-.33,.25c.27,.05,.49,.08,.71,.12,.02,0,.04,0,.05,0,.03-.02,.07-.05,.09-.08,0-.01-.03-.07-.06-.08-.25-.08-.5-.13-.79,.03Z"/>
      <path class="cls-1" d="M34.43,21.7c-.36,.04-.59-.12-.67-.45,.12,.1,.21,.2,.31,.27,.11,.07,.24,.12,.36,.18Z"/>
    </g>
  </g>
</svg>