<?xml version="1.0" encoding="utf-8"?>
<!-- Generator: Adobe Illustrator 26.5.0, SVG Export Plug-In . SVG Version: 6.00 Build 0)  -->
<svg version="1.1" id="Capa_2_00000072269375445438700280000007072662277749872518_"
	 xmlns="http://www.w3.org/2000/svg" xmlns:xlink="http://www.w3.org/1999/xlink" x="0px" y="0px" viewBox="0 0 54.7 54.7"
	 style="enable-background:new 0 0 54.7 54.7;" xml:space="preserve">
<style type="text/css">
	.st0{opacity:0.12;}
	.st1{fill:#FFFFFF;}
</style>
<g id="Capa_1-2" class="st0">
	<g>
		<path class="st1" d="M0,42.3c0.2,0.1,0.4,0.1,0.6,0.2c0.4,0.1,0.8,0.3,1.2,0.4c0,0,0.1,0,0.1,0.1c-0.6,0-1-0.3-1.6-0.5
			c0.1,0.3,0.2,0.4,0.4,0.5c0.4,0.3,0.9,0.5,1.4,0.5c0.2,0,0.5,0.1,0.8,0.1c0.1,0,0.1,0.1,0.2,0.2c0.2,0.2,0.3,0.3,0.5,0.5
			c0.1,0.1,0.2,0.1,0.3,0c0.2-0.1,0.4-0.2,0.5-0.5C4.2,43.8,4,43.7,4,43.5c0,0-0.1-0.1-0.1-0.1c-0.2-0.1-0.5-0.2-0.7-0.4
			c-0.1,0-0.2-0.1-0.2-0.2c-0.2-0.2-0.4-0.4-0.7-0.4c-0.2,0-0.3-0.1-0.4-0.2c-0.3-0.2-0.5-0.5-0.7-0.8c-0.2-0.3-0.2-0.6-0.1-0.9
			c0-0.1,0-0.2,0.1-0.4c0.1-0.2,0.1-0.4,0-0.6c0-0.2,0.1-0.4,0.2-0.6c0,0,0,0.1,0,0.1s0,0.1,0,0.1c-0.1,0.2,0,0.5,0,0.7
			c0,0.1,0.1,0.2,0,0.4c0-0.1,0-0.1-0.1-0.2c-0.1,0.2-0.1,0.4-0.1,0.6c0,0.2,0,0.4,0.1,0.6c0.1,0.1,0.1,0.2,0.2,0.2
			c0.1,0.2,0.3,0.4,0.6,0.5c0.4,0.2,0.8,0.3,1.1,0.5c0.3,0.1,0.6,0.2,0.9,0.3C4,43.1,4,43.1,4,43.2c0.1,0.1,0.1,0.2,0.1,0.2
			c0,0.1,0,0.2,0.2,0.2c0.2,0,0.1-0.1,0.2-0.2c0.2,0.2,0.3,0.2,0.4,0C5,43.3,5,43.2,5.1,43.1c-0.2-0.2-0.4-0.5-0.6-0.7
			c-0.2,0-0.3,0-0.4-0.2c0-0.1,0-0.2,0-0.3c0.1-0.3,0-0.5-0.1-0.8c0-0.1-0.2-0.2-0.2-0.4c-0.1-0.1-0.1-0.2-0.2-0.3
			c0.1,0.1,0.3,0.2,0.3,0.3c0.1,0.1,0.2,0.3,0.2,0.4c0.1,0.1,0.1,0.3,0.1,0.4c0.3-0.1,0.6-0.4,0.5-0.8c0-0.3-0.1-0.6-0.1-0.9
			c0-0.2-0.2-0.3-0.3-0.4c-0.3-0.3-0.7-0.5-1-0.7c-0.1-0.1-0.3-0.2-0.5-0.1s-0.3,0-0.5-0.1c-0.1-0.1-0.2-0.1-0.4-0.2
			C2,38.4,2,38.4,1.9,38.5c-0.2,0.2-0.5,0.3-0.8,0.2c-0.1,0-0.2,0-0.3,0c-0.1,0-0.3,0-0.4,0.1c0.1,0.2,0.2,0.4,0.4,0.6
			C1,39.6,1,39.8,1,40c0,0.2,0,0.3,0,0.5c0,0.2-0.1,0.4-0.2,0.5c-0.1,0.1-0.2,0.2-0.3,0s-0.2-0.2-0.2-0.4c-0.1-0.2-0.1-0.4-0.3-0.5
			V40c0.2,0.2,0.3,0.3,0.4,0.6c0,0.1,0.1,0.2,0.1,0.3c0,0.1,0.1,0.1,0.2,0.1c0-0.2,0.2-0.4,0.2-0.7c0-0.3,0-0.7-0.3-0.9
			c0,0-0.1-0.1-0.1-0.2c-0.1-0.2-0.2-0.4-0.3-0.5c0,0,0,0,0,0c0.2,0,0.5,0.1,0.7-0.1c0.1,0,0.1,0,0.2,0c0.3,0.1,0.5,0,0.7-0.2
			s0.2-0.3,0.1-0.5c-0.1-0.2-0.3-0.3-0.5-0.3c-0.5-0.2-0.9-0.3-1.4-0.5C0,37,0,37,0,37c0.5,0.2,1,0.3,1.5,0.5
			c0.3,0.1,0.6,0.3,0.6,0.8c0.2,0.1,0.4,0.2,0.6,0.3c0.1,0,0.2,0,0.3,0c0.2,0,0.3,0,0.5,0.1c0.3,0.2,0.6,0.5,0.9,0.7
			c0.2,0.2,0.4,0.3,0.4,0.6c0.3,0,0.5,0.2,0.7,0.3c0.1,0.1,0.2,0.1,0.2,0.2c0.1,0,0.1,0.1,0.2,0.1c0.1,0.1,0.1,0.2,0,0.3
			c-0.2,0.1-0.4,0.4-0.7,0.5c-0.2,0.1-0.2,0.1-0.4,0c-0.2,0.1-0.3,0.2-0.5,0.3c0,0.1,0,0.3-0.1,0.5c0.1,0,0.2,0,0.3,0.1
			c0.2,0.2,0.4,0.5,0.6,0.7c0,0,0,0.1,0,0.2c-0.1,0.1-0.1,0.3-0.2,0.4c0,0-0.1,0.1-0.2,0.1s-0.1,0-0.2,0c0,0.3-0.3,0.5-0.5,0.7
			c-0.2,0.2-0.4,0.2-0.6,0c-0.2-0.1-0.3-0.3-0.5-0.5c-0.1-0.1-0.2-0.2-0.3-0.2c-0.2,0-0.4,0-0.6-0.1c-0.5-0.1-1-0.3-1.5-0.6
			c-0.2-0.1-0.3-0.3-0.4-0.5C0.2,42.4,0.1,42.4,0,42.3C0,42.3,0,42.3,0,42.3z M4.8,41.3c0.5,0,0.7-0.3,1-0.6c0,0-0.1-0.1-0.1-0.1
			c-0.2-0.1-0.4-0.2-0.6-0.4c-0.1-0.1-0.2-0.1-0.3-0.1c0,0.1,0,0.2,0,0.2C4.9,40.7,5,41,4.8,41.3L4.8,41.3z M3.8,43.2
			C3.8,43.2,3.9,43.2,3.8,43.2c0-0.1,0-0.2,0-0.3c-0.2-0.1-0.4-0.2-0.7-0.2C3.3,43,3.6,43,3.8,43.2L3.8,43.2z"/>
		<path class="st1" d="M0,14.9c0.2,0.1,0.3,0.2,0.5,0.2c0.4,0.2,0.9,0.3,1.3,0.5c0,0,0.1,0,0.1,0.1c-0.6,0-1-0.3-1.6-0.4
			c0,0.1,0.1,0.2,0.2,0.3c0.2,0.1,0.3,0.3,0.5,0.4c0.4,0.2,0.7,0.3,1.1,0.4c0.2,0,0.5,0,0.7,0.1c0.1,0,0.1,0.1,0.2,0.1
			c0.2,0.2,0.3,0.3,0.5,0.5c0.1,0.1,0.3,0.1,0.4,0c0.2-0.1,0.4-0.2,0.4-0.5c-0.2,0-0.4-0.1-0.3-0.4c-0.3-0.1-0.5-0.3-0.8-0.4
			c-0.1-0.1-0.2-0.1-0.2-0.2c-0.2-0.2-0.4-0.4-0.6-0.4c-0.2,0-0.3-0.1-0.5-0.2c-0.3-0.2-0.5-0.5-0.7-0.7C1,13.9,1,13.6,1.1,13.3
			c0-0.1,0.1-0.3,0.1-0.4c0-0.2,0.1-0.3,0-0.5c0-0.2,0.1-0.4,0.2-0.6c0,0.1,0,0.1,0,0.2c-0.1,0.2-0.1,0.5,0,0.7c0,0.1,0.1,0.2,0,0.3
			c0,0,0,0,0,0.1c0-0.1,0-0.1-0.1-0.2c-0.1,0.2-0.1,0.4-0.1,0.6c0,0.2,0,0.5,0.1,0.6c0,0,0.1,0.1,0.1,0.1c0.2,0.3,0.4,0.6,0.8,0.7
			c0.4,0.2,0.8,0.3,1.2,0.4c0.2,0.1,0.5,0.2,0.7,0.3C4,15.7,4,15.8,4,15.9c0.1,0.1,0.1,0.2,0.1,0.2c0,0.1,0.1,0.2,0.2,0.2
			c0.2,0,0.1-0.1,0.2-0.2c0.2,0.2,0.3,0.1,0.4-0.1c0,0,0.1-0.1,0.1-0.1c0,0,0.1-0.1,0.1-0.1c-0.2-0.2-0.4-0.5-0.6-0.7
			c-0.2,0.1-0.3,0-0.4-0.2c0-0.1,0-0.2,0-0.3c0.1-0.3,0-0.5-0.1-0.8c0-0.1-0.2-0.2-0.2-0.4c-0.1-0.1-0.1-0.2-0.2-0.3
			c0.3,0.1,0.5,0.3,0.5,0.5c0.1,0.2,0.1,0.4,0.2,0.6c0.3-0.1,0.6-0.4,0.5-0.8c0-0.3-0.1-0.6-0.1-0.9c0-0.1-0.2-0.3-0.3-0.4
			c-0.3-0.3-0.7-0.5-1-0.7c-0.1-0.1-0.3-0.2-0.5-0.1s-0.3,0-0.5-0.1c-0.1-0.1-0.2-0.1-0.4-0.2c-0.1,0.1-0.1,0.1-0.2,0.1
			c-0.2,0.2-0.5,0.3-0.8,0.2c-0.1,0-0.2,0-0.3,0c-0.1,0.1-0.3,0.1-0.4,0.1c0.1,0.2,0.2,0.4,0.4,0.6C0.9,12.2,1,12.5,1,12.7
			c0,0.2,0,0.4,0,0.5c0,0.2-0.1,0.4-0.2,0.5c-0.1,0.1-0.2,0.1-0.3,0s-0.2-0.2-0.2-0.4C0.2,13.2,0.2,13,0,12.9v-0.2
			c0.2,0.2,0.3,0.4,0.4,0.6c0,0.1,0.1,0.2,0.1,0.3c0,0.1,0.1,0.1,0.2,0.2c0.1-0.3,0.2-0.5,0.2-0.8c0-0.4,0-0.7-0.3-0.9
			c0,0-0.1-0.1-0.1-0.2c-0.1-0.2-0.2-0.4-0.3-0.5c0.3,0,0.5,0.1,0.8-0.1c0,0,0.1,0,0.2,0c0.3,0.1,0.5,0,0.7-0.2s0.2-0.3,0.1-0.5
			c-0.1-0.2-0.3-0.3-0.5-0.3C0.9,10.1,0.5,9.9,0,9.7c0,0,0-0.1,0-0.1c0.5,0.2,1,0.3,1.5,0.5c0.3,0.1,0.6,0.3,0.6,0.7
			c0,0.1,0.1,0.1,0.1,0.1c0.3,0.1,0.5,0.3,0.8,0.2c0.1,0,0.2,0,0.3,0.1c0.3,0.2,0.7,0.5,1,0.8c0.2,0.1,0.3,0.3,0.4,0.6
			c0.2,0,0.5,0.1,0.6,0.3c0.1,0.1,0.2,0.1,0.3,0.2c0.1,0,0.1,0.1,0.2,0.1c0.1,0.1,0.1,0.2,0,0.3c-0.2,0.2-0.4,0.3-0.6,0.5
			c-0.2,0.1-0.3,0.1-0.4,0c-0.2,0.1-0.3,0.2-0.5,0.3c0,0.1,0,0.3-0.1,0.5c0.3,0,0.5,0.2,0.6,0.4C4.9,15.4,5,15.5,5,15.5
			c0.2,0.2,0.2,0.3,0,0.5c0,0,0,0,0,0c-0.1,0.2-0.2,0.3-0.4,0.3c0,0.1-0.1,0.1-0.1,0.1c-0.1,0.3-0.4,0.5-0.6,0.6
			c-0.1,0.1-0.3,0-0.4,0c-0.2-0.2-0.4-0.3-0.5-0.5c-0.1-0.1-0.1-0.1-0.2-0.1c-0.2,0-0.3-0.1-0.5-0.1c-0.4,0-0.7-0.1-1.1-0.3
			c-0.3-0.1-0.5-0.3-0.7-0.4c-0.1-0.1-0.2-0.3-0.3-0.4c0-0.1-0.1-0.2-0.2-0.2C0,15,0,14.9,0,14.9z M4.9,12.8c-0.1,0.3,0,0.4,0,0.6
			c0,0.2,0,0.4-0.1,0.6c0.4,0,0.7-0.4,1-0.6c0,0-0.1-0.1-0.1-0.1c-0.2-0.1-0.4-0.2-0.6-0.4C5.1,12.9,5,12.8,4.9,12.8L4.9,12.8z
			 M3.2,15.4c0.1,0.2,0.5,0.4,0.7,0.5c0-0.1,0-0.2-0.2-0.3C3.5,15.5,3.4,15.5,3.2,15.4z"/>
		<path class="st1" d="M34.6,1c0-0.1,0-0.2-0.1-0.3s-0.1-0.2-0.1-0.3c0-0.1,0.2-0.1,0.3-0.1c0.1,0,0.2,0,0.2,0
			c0.4,0.2,0.8,0.1,1.2,0c0,0,0.1,0,0.2-0.1c0.1-0.2,0.3-0.2,0.4-0.3c0.3,0,0.5,0,0.8,0c0,0,0.1,0.1,0.2,0.1
			c0.2,0.2,0.4,0.3,0.4,0.6c0,0.1,0,0.2,0.1,0.4c0.1,0.3,0.1,0.3,0.3,0.3c-0.2,0.1-0.3,0.1-0.4-0.1C38,1.1,38,0.9,38,0.8
			c-0.1-0.4-0.3-0.6-0.7-0.7c-0.3-0.1-0.6,0-0.8,0.2c-0.1,0.1-0.1,0.2,0,0.3c0.1,0.1,0.3,0.1,0.4,0.1c0,0,0.1,0,0.2,0
			c-0.3,0.2-0.6,0.1-0.8-0.1c-0.2,0-0.3,0-0.5,0.1c-0.3,0.1-0.6,0-0.9-0.1c-0.1-0.1-0.3-0.1-0.4,0C34.7,1,35,1.3,35.5,1.4
			c0.3,0,0.6,0,0.9,0.1c0.1,0,0.2,0,0.3-0.1c-0.1,0.1-0.1,0.2-0.2,0.3c-0.1,0.1-0.1,0.2-0.1,0.3c0,0.1,0,0.2-0.1,0.2
			C36,2.4,35.9,2.6,36,2.9c0,0.3,0.2,0.4,0.4,0.4c0.2,0,0.3-0.1,0.4-0.2c0.4-0.3,0.9-0.7,1.3-1c0.2-0.2,0.4-0.4,0.5-0.8
			c0-0.1,0.1-0.3,0.2-0.4C39.1,0.6,39.1,0.3,39,0c0,0,0.1,0,0.2,0c0,0.1,0,0.2,0,0.3c0,0.3-0.1,0.5-0.3,0.7
			c-0.1,0.1-0.2,0.3-0.2,0.4c-0.1,0.4-0.3,0.7-0.7,0.9c-0.4,0.3-0.8,0.6-1.2,0.9c-0.3,0.2-0.7,0.3-1,0c-0.2,0.1-0.3,0.2-0.5,0.3
			c-0.1,0.1-0.2,0.2-0.2,0.2C35.1,3.9,35,4,34.8,4.1c-0.3,0.1-0.7,0.2-1.1,0.4c-0.3,0.1-0.5,0.1-0.8,0c-0.1,0.2-0.3,0.3-0.6,0.3
			c-0.1,0-0.3,0.1-0.4,0.2C31.9,5,31.8,5,31.7,5c-0.1,0-0.1-0.1-0.1-0.2c0-0.3-0.1-0.6,0-0.8c0-0.2,0.1-0.3,0.2-0.3
			c0-0.1-0.1-0.2,0-0.4l0,0c0,0,0,0.1,0.1,0.2C32,3.8,32.1,4,32.5,4.1c0.1,0,0.2,0.1,0.3,0.2c0.2,0.2,0.5,0.2,0.8,0.1
			c0.4-0.1,0.8-0.3,1.2-0.4c0.1,0,0.2-0.1,0.3-0.2c0.1-0.2,0.2-0.3,0.4-0.4c0.1-0.1,0.3-0.1,0.4-0.2c-0.1-0.4,0-0.7,0.3-1
			c0,0,0.1-0.1,0.1-0.1c0-0.1,0.1-0.3,0.2-0.4c-0.2,0-0.5-0.1-0.7,0c-0.1,0-0.2,0-0.2,0C35,1.4,34.8,1.2,34.6,1L34.6,1L34.6,1z
			 M31.7,4.9c0.1,0,0.1,0,0.1,0c0.2-0.1,0.4-0.2,0.6-0.2c0.1,0,0.3-0.1,0.3-0.2c-0.1-0.2-0.4-0.2-0.5-0.3C32.1,4,32,3.9,31.8,3.8
			c-0.1,0.1-0.1,0.1-0.1,0.2C31.7,4.3,31.7,4.6,31.7,4.9L31.7,4.9z"/>
		<path class="st1" d="M7.2,1c0-0.1-0.1-0.2-0.1-0.3C7,0.6,7,0.5,7,0.4c0.1-0.1,0.2-0.1,0.3-0.1c0.1,0,0.2,0,0.2,0
			c0.4,0.2,0.8,0.1,1.2,0.1c0.1,0,0.1,0,0.1-0.1C9,0.2,9.2,0.1,9.3,0c0.3,0,0.6,0,0.9,0c0.1,0,0.1,0.1,0.2,0.1
			c0.2,0.2,0.4,0.3,0.4,0.6c0,0.1,0,0.2,0.1,0.4c0.1,0.3,0.1,0.3,0.4,0.3c-0.2,0.1-0.3,0.1-0.4-0.1c-0.1-0.1-0.1-0.3-0.1-0.5
			c-0.1-0.4-0.3-0.6-0.7-0.7C9.7,0,9.4,0.1,9.2,0.2C9,0.3,9,0.5,9.2,0.5c0.1,0.1,0.3,0.1,0.4,0.1c0.1,0,0.1,0,0.2,0
			C9.5,0.8,9.2,0.7,8.9,0.4c-0.2,0-0.3,0-0.5,0.1c-0.3,0.1-0.6,0-0.9-0.1c-0.2-0.1-0.3-0.1-0.4,0C7.3,1,7.7,1.3,8.2,1.4
			c0.1,0,0.1,0,0.2,0c0.1,0,0.3,0,0.4,0c0.1,0,0.3,0,0.4,0c0,0.1-0.1,0.1-0.2,0.2C9,1.7,8.9,1.8,9,2c0,0.1-0.1,0.2-0.1,0.2
			C8.6,2.5,8.6,2.7,8.6,3c0,0.2,0.2,0.3,0.4,0.2c0.1,0,0.3-0.1,0.4-0.2c0.4-0.3,0.9-0.7,1.3-1c0.2-0.2,0.4-0.4,0.5-0.8
			c0-0.1,0.1-0.3,0.2-0.4c0.2-0.3,0.3-0.6,0.2-0.9h0.1c0.1,0.4,0,0.7-0.2,1c-0.1,0.1-0.2,0.3-0.2,0.4c-0.1,0.4-0.4,0.7-0.6,0.9
			c-0.4,0.3-0.8,0.6-1.2,0.9c-0.4,0.2-0.6,0.2-1,0.1C8.4,3.3,8.2,3.4,8.1,3.5C8,3.5,7.9,3.6,7.8,3.7C7.8,3.9,7.6,4,7.4,4.1
			C7.1,4.2,6.8,4.3,6.4,4.4c-0.3,0.1-0.5,0.1-0.8,0C5.4,4.6,5.2,4.7,5,4.8c-0.2,0-0.3,0.1-0.4,0.2C4.3,5.1,4.2,5,4.2,4.7
			c0-0.2,0-0.5,0-0.7c0-0.2,0.1-0.3,0.2-0.4c0-0.1,0-0.2-0.1-0.3c0,0,0,0,0,0c0,0,0.1,0.1,0.1,0.1C4.6,3.8,4.8,4,5.2,4.1
			c0.1,0,0.2,0.1,0.4,0.2c0.2,0.1,0.3,0.2,0.6,0.1c0.1,0,0.2-0.1,0.4-0.1C6.7,4.2,7,4.1,7.3,4c0.2-0.1,0.4-0.2,0.5-0.4
			C7.8,3.5,8,3.4,8.1,3.3c0.1-0.1,0.3-0.1,0.4-0.2c0-0.2,0-0.3,0-0.4c0-0.2,0.1-0.4,0.3-0.5C8.8,2.1,8.9,2,8.9,1.9
			C8.9,1.8,9,1.7,9,1.6c-0.2,0-0.5-0.1-0.7,0c-0.2,0-0.4-0.1-0.6-0.2C7.5,1.2,7.4,1.1,7.2,1L7.2,1z M4.4,4.9c0.1,0,0.1,0,0.2,0
			c0.2-0.1,0.4-0.2,0.6-0.2c0.1,0,0.3-0.1,0.3-0.2C5.4,4.3,5.3,4.3,5.2,4.2C4.9,4.1,4.7,4,4.5,3.7C4.4,3.8,4.3,3.9,4.3,4
			C4.3,4.3,4.3,4.6,4.4,4.9L4.4,4.9z"/>
		<path class="st1" d="M4.3,0C4.2,0.2,4,0.4,3.8,0.6C3.7,0.8,3.5,0.8,3.3,0.9C3.1,0.9,2.9,0.9,2.8,1C2.6,1,2.5,1.1,2.5,1.3
			c0,0.2,0,0.4,0.2,0.6C2.8,1.8,3,1.7,3.1,1.8c0,0,0.1,0,0.1,0c0.2-0.1,0.4-0.2,0.6-0.3C4,1.4,4.1,1.4,4.3,1.4C4.6,1.4,4.7,1.2,5,1
			c0-0.2,0.1-0.1,0.2-0.2c0,0,0.1,0,0.1,0c0.3-0.2,0.7-0.2,1-0.2c0.3,0,0.5,0.1,0.7,0.2C7.1,0.9,7.2,1,7.2,1
			c0.1,0.3,0.3,0.5,0.6,0.6C8.1,1.8,8.2,2,8.4,2.3c-0.1,0-0.1,0-0.2,0c0,0.1,0,0.2,0,0.3C8.1,2.4,8,2.3,8,2.1c0.1,0,0.2,0,0.3,0.1
			C8,1.9,7.8,1.7,7.5,1.6c-0.1,0-0.2,0-0.2-0.2c0,0,0-0.1,0-0.1C7,1,6.7,0.7,6.3,0.7c-0.4,0-0.8,0.1-1.1,0.3c-0.3,0.2-0.7,0.5-1,0.7
			C4,1.9,3.8,2,3.5,2.2c0-0.1,0-0.2-0.1-0.2C3.3,2,3.2,2,3.1,1.9c-0.1,0-0.2,0-0.2,0c-0.1,0.1,0,0.2,0,0.2c0,0.1-0.1,0.1-0.2,0.2
			c0,0.1,0,0.2,0.1,0.2c0,0.1,0,0.2,0.2,0.3c0.1,0,0.2,0,0.3,0c0.1,0,0.2,0,0.4,0c0.1,0,0.2,0,0.2,0c0,0,0-0.1,0-0.1
			c0.2-0.2,0.4-0.2,0.6,0S4.8,3,5,3.1c0.2,0.1,0.3,0.1,0.5,0c0.1,0,0.2,0,0.3,0c-0.3,0.1-0.6,0.2-0.9,0c0,0.1,0,0.3,0.1,0.6
			C4.8,3.6,4.8,3.5,4.8,3.2C4.7,3.1,4.6,3,4.5,3.2c0-0.3-0.2-0.4-0.4-0.5C3.9,2.9,3.7,2.9,3.4,2.9C3.3,2.9,3.1,3,3,3
			c-0.1,0-0.2,0-0.3-0.2c0,0,0-0.1,0-0.1c-0.1-0.2-0.1-0.4,0-0.5C2.6,2,2.5,1.9,2.5,1.7c0-0.1,0-0.3-0.1-0.4c0-0.3,0.1-0.4,0.3-0.5
			C3,0.8,3.2,0.7,3.4,0.7c0.1,0,0.2,0,0.2-0.1C3.8,0.4,4,0.2,4.2,0C4.2,0,4.3,0,4.3,0z M4.3,1.5c-0.2,0-0.7,0.2-0.8,0.4
			C3.6,2,3.8,2,3.9,1.8C4.1,1.7,4.2,1.6,4.3,1.5z"/>
		<path class="st1" d="M31.6,0c-0.2,0.2-0.4,0.4-0.5,0.6c-0.1,0.1-0.2,0.2-0.4,0.2c-0.2,0-0.4,0.1-0.6,0.1c-0.1,0-0.2,0.1-0.2,0.2
			c0,0.2,0,0.5,0.1,0.7c0.1-0.1,0.3-0.2,0.5-0.1c0,0,0.1,0,0.2,0c0.2-0.1,0.4-0.2,0.6-0.3c0.1,0,0.2-0.1,0.3-0.1
			c0.3,0,0.5-0.2,0.7-0.3c0-0.2,0.2-0.1,0.3-0.2c0,0,0,0,0.1,0c0.3-0.2,0.7-0.2,1-0.2c0.3,0,0.5,0.1,0.7,0.2c0.1,0,0.1,0.1,0.2,0.1
			h0c0.1,0.3,0.3,0.5,0.6,0.6c0.3,0.1,0.4,0.4,0.6,0.6c0,0,0,0,0,0c-0.1,0-0.1,0-0.2,0c0,0.1,0,0.2,0,0.3c-0.1-0.2-0.1-0.3-0.2-0.5
			c0.1,0,0.2,0,0.3,0c-0.2-0.3-0.4-0.5-0.8-0.5c-0.1,0-0.2,0-0.2-0.2c0,0,0-0.1,0-0.1c-0.2-0.2-0.3-0.4-0.6-0.5
			c-0.4-0.1-0.8-0.1-1.2,0.1c-0.4,0.2-0.8,0.5-1.2,0.8c-0.2,0.1-0.5,0.3-0.7,0.5c0-0.1,0-0.2-0.1-0.2c-0.1,0-0.2,0-0.3,0
			c-0.1-0.1-0.2-0.1-0.3,0c-0.1,0.1,0,0.2,0,0.2C30,2.3,30,2.3,30.1,2.6c0,0,0,0.1,0.1,0.2c0,0.1,0.1,0.2,0.2,0.1
			c0.2,0,0.4-0.1,0.7-0.1c0,0,0.1,0,0.1,0c0,0,0-0.1,0-0.1c0,0,0,0,0,0c0.2-0.1,0.4-0.1,0.6,0.1C32.1,3,32.5,3.3,33,3.1
			c0.1,0,0.2,0,0.2,0c-0.3,0.2-0.6,0.2-1,0.1c-0.1,0.2,0,0.3,0,0.5c-0.2-0.2-0.1-0.3-0.1-0.5c-0.1,0-0.2-0.1-0.2-0.1
			c0,0.1-0.1,0.1-0.1,0.2l0,0V3c-0.1-0.1-0.2-0.2-0.4-0.3c-0.2,0.2-0.4,0.3-0.7,0.3c-0.1,0-0.3,0-0.4,0c-0.1,0-0.2,0-0.3-0.2
			c0,0,0-0.1,0-0.1c-0.1-0.2-0.2-0.4,0-0.5c-0.1-0.2-0.2-0.3-0.2-0.4c0-0.1,0-0.3-0.1-0.4c0-0.3,0.1-0.4,0.3-0.5
			c0.2-0.1,0.5-0.1,0.7-0.1c0.1,0,0.2,0,0.2-0.1c0.2-0.2,0.4-0.4,0.5-0.6C31.5,0,31.6,0,31.6,0z M31.6,1.5c-0.2,0-0.7,0.3-0.9,0.4
			c0.2,0.1,0.3,0.1,0.5,0C31.4,1.7,31.5,1.6,31.6,1.5z"/>
		<path class="st1" d="M11.7,54.7c-0.1-0.3-0.2-0.5-0.5-0.6c-0.1-0.1-0.3-0.2-0.4-0.3c-0.3-0.2-0.5-0.4-0.8-0.6
			C9.8,53,9.4,53,9.1,53c-0.2,0-0.5,0-0.8,0.1c-0.2,0-0.3,0.1-0.5,0.1c-0.3,0.2-0.6,0.3-0.9,0.5c0,0-0.1,0-0.1,0
			c-0.3-0.1-0.4,0.1-0.6,0.2c-0.3,0.2-0.5,0.3-0.8,0.5c0,0-0.1,0.1-0.1,0.1H5.2c0.1-0.1,0.2-0.2,0.2-0.2c0.2-0.2,0.4-0.3,0.7-0.5
			c-0.3-0.1-0.6,0-0.9,0.1c-0.3,0.1-0.6,0.4-0.9,0.6H4.2c0.3-0.3,0.7-0.6,1.2-0.8c0.2-0.1,0.5-0.1,0.7,0c0.1,0,0.2,0,0.3,0
			c0.2-0.1,0.4-0.2,0.6-0.2c0.1,0,0.1,0,0.2-0.1c0.2-0.1,0.4-0.3,0.7-0.4C8,53.1,8.2,53.1,8.3,53c0.2,0,0.5,0,0.8-0.1
			c0.4,0,0.8,0,1.1,0.2c0.4,0.3,0.8,0.6,1.2,0.9c0.2,0.1,0.3,0.3,0.4,0.6L11.7,54.7L11.7,54.7z"/>
		<path class="st1" d="M39,54.7c-0.1-0.3-0.2-0.5-0.5-0.6c-0.1-0.1-0.3-0.2-0.4-0.3c-0.3-0.2-0.5-0.4-0.8-0.6
			C37.1,53,36.8,53,36.5,53c-0.2,0-0.5,0-0.8,0.1c-0.2,0-0.4,0-0.5,0.1c-0.3,0.2-0.6,0.3-0.9,0.5c0,0-0.1,0-0.1,0
			c-0.3-0.1-0.4,0.1-0.6,0.2c-0.3,0.2-0.5,0.3-0.8,0.5c0,0,0,0.1-0.1,0.1h-0.2c0.1-0.1,0.2-0.2,0.2-0.2c0.2-0.2,0.4-0.3,0.7-0.5
			c-0.3-0.1-0.6,0-0.9,0.1c-0.3,0.1-0.6,0.4-0.9,0.6h-0.2c0.3-0.3,0.7-0.6,1.2-0.8c0.2-0.1,0.5-0.1,0.7,0c0.1,0,0.2,0,0.3,0
			c0.2-0.1,0.4-0.2,0.6-0.2c0.1,0,0.1,0,0.2-0.1c0.2-0.1,0.5-0.3,0.7-0.4c0.2-0.1,0.3-0.1,0.5-0.1c0.2,0,0.5,0,0.7-0.1
			c0.4-0.1,0.8,0,1.2,0.3c0.4,0.3,0.8,0.6,1.2,0.9c0.2,0.2,0.3,0.3,0.3,0.6L39,54.7L39,54.7z"/>
		<path class="st1" d="M54.7,9.7c-0.3-0.1-0.7-0.1-1,0c-0.2,0.1-0.4,0-0.6,0c-0.5,0.1-0.9,0.5-0.9,1.1c0,0.4,0,0.8,0,1.1
			c0,0.6,0.2,1,0.6,1.4c0.1,0.1,0.2,0.3,0.3,0.4c0.1,0.1,0.2,0.2,0.3,0.3c0.3,0.2,0.6,0.3,0.9,0.5c0.1,0.1,0.2,0.1,0.2,0.2
			c0,0.1,0.1,0.1,0.2,0.1V15c-0.2,0-0.3-0.1-0.5-0.2c-0.1-0.1-0.1-0.1-0.2-0.2c-0.2-0.1-0.5-0.2-0.7-0.3c-0.2-0.1-0.3-0.2-0.5-0.4
			c-0.1-0.2-0.3-0.3-0.4-0.5c-0.2-0.2-0.4-0.5-0.4-0.8c0-0.3,0-0.7,0-1c0-0.2,0-0.4,0-0.6c0-0.7,0.5-1.2,1.2-1.2
			c0.2,0,0.3,0,0.5-0.1c0.3-0.1,0.7-0.1,1,0L54.7,9.7L54.7,9.7z"/>
		<path class="st1" d="M54.7,37.1c-0.2,0-0.3,0-0.5-0.1c0,0-0.1,0-0.2,0c-0.3,0.1-0.7,0.1-1,0.1c-0.5,0.1-0.9,0.5-0.9,1
			c0,0.4,0,0.8,0,1.1c0,0.5,0.2,1,0.6,1.4c0.1,0.1,0.2,0.3,0.3,0.4c0.1,0.1,0.2,0.2,0.3,0.3c0.3,0.2,0.6,0.3,0.9,0.5
			c0.1,0,0.2,0.1,0.2,0.2c0,0,0.1,0.1,0.2,0.1v0.1c-0.2,0-0.3-0.1-0.5-0.2C54.2,42,54.1,42,54,41.9c-0.2-0.1-0.5-0.2-0.7-0.3
			c-0.2-0.1-0.3-0.2-0.5-0.4c-0.1-0.2-0.3-0.3-0.4-0.5c-0.2-0.2-0.4-0.5-0.4-0.8c0-0.3,0-0.7,0-1c0-0.2,0-0.4,0-0.6
			c0-0.7,0.5-1.2,1.2-1.2c0.2,0,0.3,0,0.5,0c0.3-0.1,0.7-0.1,1,0C54.7,37,54.7,37.1,54.7,37.1z"/>
		<path class="st1" d="M54.7,12.7c-0.2-0.1-0.3-0.3-0.5-0.5c-0.4,0.1-1-0.5-1-1c0-0.3,0.1-0.6,0.4-0.8c0.1-0.1,0.1-0.1,0.2-0.2
			c0.1-0.2,0.1-0.2,0-0.4C54,9.9,54,10,53.9,10.2c-0.1,0.1-0.2,0.3-0.3,0.4c-0.2,0.1-0.2,0.3-0.3,0.5c0,0.2,0,0.4,0.1,0.5
			c0.1,0.2,0.3,0.4,0.5,0.5c0.1,0,0.2,0.1,0.2,0c0.1-0.1,0.1-0.1,0-0.2c-0.1-0.1-0.2-0.3-0.2-0.4c0.2,0,0.2,0.1,0.3,0.2
			c0.1,0.1,0.1,0.2,0.1,0.3c0,0.2,0,0.3,0.2,0.4c0,0.1,0.1,0.1,0.2,0.1L54.7,12.7L54.7,12.7z"/>
		<path class="st1" d="M54.7,40.1c-0.2-0.2-0.3-0.3-0.5-0.5c-0.6,0-1.1-0.6-1-1.2c0-0.2,0.1-0.5,0.3-0.6c0.1-0.1,0.1-0.1,0.2-0.2
			c0.1-0.2,0.1-0.2,0-0.3c0.2,0,0.2,0.2,0.2,0.3c-0.1,0.1-0.2,0.3-0.3,0.4c-0.2,0.1-0.2,0.3-0.3,0.5c0,0.2,0,0.4,0.1,0.5
			c0.1,0.2,0.3,0.4,0.5,0.5c0.1,0,0.2,0,0.2,0c0.1,0,0.1-0.2,0-0.2c-0.1-0.1-0.2-0.3-0.2-0.4c0.2,0,0.2,0.1,0.3,0.2
			c0.1,0.1,0.1,0.2,0.1,0.3c0,0.2,0,0.3,0.2,0.5c0,0,0.1,0.1,0.2,0.2L54.7,40.1L54.7,40.1z"/>
		<path class="st1" d="M5.8,54.7c0.2-0.1,0.5-0.3,0.7-0.4c0.3-0.2,0.7-0.4,1-0.6c0.2-0.1,0.5-0.2,0.8-0.2c-0.8,0.3-1.5,0.8-2.2,1.2
			H5.8z"/>
		<path class="st1" d="M33.1,54.7c0.2-0.1,0.5-0.3,0.7-0.4c0.3-0.2,0.7-0.4,1-0.6c0.2-0.1,0.5-0.2,0.8-0.2c-0.8,0.3-1.5,0.8-2.2,1.2
			L33.1,54.7L33.1,54.7z"/>
		<path class="st1" d="M0,41.7c0.7,0.4,1.4,0.7,2.2,1.1c-0.3,0-0.5-0.1-0.6-0.2c-0.5-0.3-1-0.5-1.5-0.8c0,0-0.1,0-0.1,0
			C0,41.8,0,41.8,0,41.7L0,41.7z"/>
		<path class="st1" d="M0,14.4c0.7,0.4,1.4,0.7,2.2,1.1c-0.3,0-0.5-0.1-0.7-0.2C1,15,0.5,14.8,0,14.5C0,14.5,0,14.4,0,14.4z"/>
		<path class="st1" d="M54.7,41.8c-0.5-0.2-1-0.4-1.3-0.8c0,0,0,0,0,0c0.2,0.1,0.4,0.3,0.6,0.4s0.5,0.2,0.7,0.3
			C54.7,41.7,54.7,41.8,54.7,41.8z"/>
		<path class="st1" d="M54.7,14.5c-0.5-0.2-1-0.4-1.3-0.8c0,0,0,0,0,0c0.2,0.1,0.4,0.3,0.6,0.4s0.5,0.2,0.7,0.3
			C54.7,14.4,54.7,14.5,54.7,14.5z"/>
		<path class="st1" d="M33.3,0c-0.1,0.1-0.2,0.1-0.3,0.2c-0.3,0.1-0.5,0.3-0.9,0.4c0-0.1,0.1-0.1,0.1-0.1c0.2-0.1,0.3-0.2,0.5-0.3
			C32.8,0.1,32.9,0.1,33,0C33.1,0,33.2,0,33.3,0L33.3,0z"/>
		<path class="st1" d="M6,0C5.9,0.1,5.8,0.1,5.7,0.2C5.4,0.3,5.1,0.4,4.8,0.6c0-0.1,0.1-0.1,0.1-0.1c0.2-0.1,0.3-0.2,0.5-0.3
			C5.5,0.1,5.6,0.1,5.7,0C5.8,0,5.9,0,6,0z"/>
		<path class="st1" d="M4.5,30.6v-0.3c-0.1-0.1-0.2-0.2-0.4-0.3c-0.2,0.2-0.4,0.3-0.7,0.3c-0.1,0-0.2,0-0.4,0c-0.2,0-0.2,0-0.3-0.2
			c0,0,0,0,0-0.1c-0.1-0.2-0.2-0.4,0-0.5c-0.1-0.2-0.2-0.3-0.2-0.4s0-0.3-0.1-0.4c0-0.3,0.1-0.4,0.3-0.5c0.2-0.1,0.4-0.1,0.7-0.1
			c0.1,0,0.2,0,0.3-0.1c0.1-0.1,0.1-0.1,0.2-0.2c0.3-0.4,0.6-0.7,1-0.9c0.4-0.2,0.8-0.4,1.3-0.3c0.1,0,0.2,0,0.2,0
			c0.2-0.1,0.4-0.2,0.6-0.2c0.1,0,0.1,0,0.2-0.1c0.2-0.1,0.4-0.3,0.7-0.4c0.2-0.1,0.3-0.1,0.5-0.1c0.2,0,0.5,0,0.7-0.1
			c0.4,0,0.8,0,1.2,0.3c0.4,0.3,0.8,0.6,1.2,0.9c0.4,0.3,0.5,1,0.2,1.4c-0.2,0.3-0.3,0.6-0.4,0.9c-0.1,0.2-0.3,0.4-0.5,0.6
			c-0.4,0.3-0.8,0.6-1.2,0.9c0,0,0,0,0,0c-0.4,0.2-0.6,0.2-1,0c-0.2,0.1-0.3,0.2-0.5,0.3c-0.1,0.1-0.2,0.1-0.2,0.2
			c-0.1,0.2-0.2,0.3-0.4,0.3c-0.3,0.1-0.7,0.2-1.1,0.4c-0.3,0.1-0.5,0.1-0.8,0C5.4,32,5.2,32.1,5,32.1c-0.1,0-0.2,0.1-0.3,0.1
			c-0.1,0-0.1,0.1-0.2,0.1c-0.2,0.1-0.3,0-0.3-0.2c0-0.3-0.1-0.6,0-0.8c0-0.2,0.1-0.3,0.2-0.4C4.5,30.9,4.3,30.7,4.5,30.6
			c0,0,0,0.1,0,0.1c0.1,0.3,0.3,0.6,0.6,0.7c0.1,0,0.2,0.1,0.3,0.1c0.2,0.2,0.5,0.2,0.8,0.1c0.4-0.1,0.8-0.3,1.2-0.4
			c0.1,0,0.2-0.1,0.3-0.2c0.1-0.2,0.2-0.3,0.4-0.4c0.1-0.1,0.3-0.1,0.4-0.2c-0.1-0.4,0-0.8,0.3-1c0,0,0.1-0.1,0.1-0.1
			C8.9,29.2,8.9,29,9,28.9c-0.2,0-0.3-0.1-0.5,0c-0.2,0-0.4,0-0.6-0.1c-0.3-0.1-0.5-0.3-0.7-0.4c0-0.1-0.1-0.2-0.1-0.3
			C7,28,6.9,27.9,7,27.8c0.1-0.1,0.2-0.1,0.3-0.1c0.1,0,0.2,0,0.2,0c0.4,0.1,0.8,0.1,1.2,0c0.1,0,0.1,0,0.2-0.1
			c0.2-0.3,0.5-0.3,0.8-0.3c0.5-0.1,1,0.3,1,0.8c0,0.1,0,0.2,0.1,0.3c0,0.1,0.1,0.2,0.1,0.2c0.1,0,0.1,0,0.2,0.1
			c-0.2,0.1-0.3,0.1-0.4-0.1c-0.1-0.2-0.1-0.3-0.1-0.5c-0.2-0.7-0.9-0.8-1.5-0.5c-0.1,0.1-0.1,0.2,0,0.2c0.1,0,0.3,0.1,0.4,0.1
			c0,0,0.1,0,0.2,0c-0.4,0.1-0.6,0.1-0.9-0.2c-0.5,0.1-1,0.2-1.5,0c-0.1,0-0.2,0-0.3,0.1c0.2,0.2,0.3,0.5,0.5,0.6
			c0.3,0.2,0.6,0.3,0.9,0.3c0.1,0,0.1,0,0.2,0c0.2,0.1,0.4,0.1,0.6,0C9.2,28.8,9.1,29,9,29c-0.1,0.1-0.1,0.2-0.1,0.4
			c0,0.1-0.1,0.1-0.1,0.2c-0.2,0.2-0.3,0.4-0.2,0.6c0,0.3,0.2,0.4,0.4,0.4c0.1,0,0.3-0.1,0.4-0.2c0.5-0.3,0.9-0.7,1.4-1
			c0.2-0.2,0.4-0.4,0.5-0.7c0-0.1,0.1-0.1,0.1-0.2c0.1-0.1,0.1-0.2,0.2-0.3c0.2-0.4,0.1-1-0.2-1.3c-0.4-0.3-0.8-0.6-1.2-0.9
			c-0.3-0.2-0.7-0.3-1.1-0.2c-0.2,0-0.4,0-0.7,0.1c-0.2,0-0.3,0-0.5,0.1c-0.3,0.1-0.6,0.3-0.9,0.5c-0.1,0-0.1,0.1-0.2,0.1
			c-0.1-0.1-0.2,0-0.3,0.1c-0.5,0.4-1.1,0.7-1.6,1.1c-0.1,0-0.1,0.1-0.2,0.1C5,27.3,5.6,27,6,26.6c-0.1,0-0.3,0-0.4,0
			c-0.3,0-0.6,0.2-0.9,0.4c-0.5,0.3-0.8,0.8-1.2,1.1c-0.3,0.1-0.6,0.1-0.9,0.2c-0.1,0-0.2,0.1-0.2,0.2c0,0.2,0,0.5,0.2,0.7
			c0.1-0.2,0.3-0.2,0.4-0.1c0,0,0.1,0,0.1,0c0.2-0.1,0.4-0.2,0.6-0.3c0.1-0.1,0.3-0.1,0.4-0.1c0.3,0,0.5-0.2,0.7-0.3
			c0-0.2,0.1-0.1,0.2-0.2c0.1,0,0.2-0.1,0.3-0.1C5.6,28,5.8,28,6,28c0.7,0,0.7,0,1.2,0.3c0.1,0.3,0.3,0.5,0.6,0.6
			c0.3,0.1,0.4,0.4,0.6,0.7c-0.1,0-0.1,0-0.2,0c0,0.1,0,0.1,0,0.3c-0.1-0.2-0.1-0.3-0.2-0.5c0.1,0,0.2,0,0.3,0
			C7.9,29.2,7.7,29,7.4,29c-0.1,0-0.2-0.1-0.1-0.2c0,0,0,0,0-0.1c-0.2-0.2-0.3-0.5-0.6-0.5c-0.4-0.1-0.8-0.1-1.2,0.1
			c-0.4,0.2-0.8,0.5-1.2,0.8c-0.2,0.2-0.4,0.3-0.7,0.4c0.1-0.1,0-0.2-0.1-0.2c-0.1,0-0.2,0-0.3-0.1c-0.1,0-0.2,0-0.2,0
			c-0.1,0.1,0,0.2,0,0.2c-0.2,0.2-0.2,0.2-0.1,0.4c0,0,0,0.1,0,0.1c0.1,0.2,0.1,0.2,0.3,0.2c0.2,0,0.3-0.1,0.5,0
			c0.1,0,0.1,0,0.2-0.1c0,0,0-0.1,0-0.1c0,0,0,0,0.1-0.1c0.2-0.1,0.4,0,0.5,0.1c0.3,0.3,0.7,0.5,1.2,0.4c0.1,0,0.2,0,0.2,0
			c-0.3,0.1-0.6,0.2-1,0.1c-0.1,0.3,0.1,0.4,0.1,0.6c-0.2-0.2-0.3-0.4-0.2-0.7c-0.1,0-0.1-0.1-0.2-0.1C4.4,30.5,4.4,30.6,4.5,30.6
			L4.5,30.6z M4.3,32.2c0.1,0,0.1,0,0.1,0C4.7,32.1,4.9,32,5.1,32c0.1,0,0.2-0.1,0.3-0.2c-0.1-0.2-0.4-0.2-0.5-0.3s-0.3-0.2-0.5-0.4
			c-0.1,0-0.1,0.1-0.1,0.2C4.3,31.6,4.3,31.9,4.3,32.2L4.3,32.2z M4.3,28.8c-0.2,0-0.7,0.2-0.9,0.4c0.2,0.1,0.3,0.1,0.5,0
			C4,29.1,4.2,29,4.3,28.8L4.3,28.8z"/>
		<path class="st1" d="M31.8,30.6v-0.3c-0.1-0.1-0.2-0.2-0.4-0.3c-0.2,0.2-0.4,0.3-0.7,0.3c-0.1,0-0.2,0-0.4,0c-0.2,0-0.2,0-0.3-0.2
			c0,0,0,0,0-0.1c-0.1-0.2-0.2-0.4,0-0.5c-0.1-0.2-0.2-0.3-0.2-0.4c0-0.1,0-0.3-0.1-0.4c0-0.3,0.1-0.4,0.3-0.5
			c0.2-0.1,0.5-0.1,0.7-0.1c0.1,0,0.1,0,0.2-0.1c0.1-0.1,0.1-0.1,0.2-0.2c0.3-0.4,0.6-0.7,1-0.9c0.4-0.2,0.8-0.4,1.3-0.3
			c0.1,0,0.2,0,0.2,0c0.2-0.1,0.4-0.2,0.6-0.2c0.1,0,0.1,0,0.2-0.1c0.2-0.1,0.5-0.3,0.7-0.4c0.2-0.1,0.3-0.1,0.5-0.1
			c0.2,0,0.5,0,0.7-0.1c0.4,0,0.8,0,1.2,0.3c0.4,0.3,0.8,0.6,1.2,0.9c0.4,0.3,0.5,1,0.2,1.5c-0.2,0.2-0.3,0.5-0.4,0.8
			c-0.1,0.3-0.3,0.5-0.5,0.6c-0.4,0.3-0.8,0.6-1.2,0.9c-0.1,0.1-0.2,0.1-0.3,0.1c-0.2,0.1-0.5,0-0.7-0.1c-0.2,0.1-0.3,0.2-0.5,0.3
			c-0.1,0.1-0.2,0.1-0.2,0.2c-0.1,0.2-0.2,0.3-0.4,0.3c-0.3,0.1-0.7,0.2-1.1,0.4c-0.3,0.1-0.5,0.1-0.8,0c-0.2,0.2-0.4,0.3-0.6,0.3
			c-0.1,0-0.2,0.1-0.3,0.1c0,0-0.1,0-0.1,0.1c-0.1,0.1-0.3,0-0.3-0.2c0-0.3-0.1-0.6,0-0.8c0-0.2,0.1-0.3,0.2-0.4
			C31.8,30.9,31.7,30.7,31.8,30.6c0,0,0,0.1,0,0.1c0.1,0.3,0.3,0.6,0.6,0.7c0.1,0,0.2,0.1,0.3,0.1c0.2,0.2,0.5,0.2,0.8,0.1
			c0.4-0.1,0.8-0.3,1.2-0.4c0.1,0,0.2-0.1,0.3-0.2c0.1-0.2,0.2-0.3,0.4-0.4c0.1-0.1,0.3-0.1,0.4-0.2c-0.1-0.5,0-0.6,0.3-1
			c0,0,0-0.1,0.1-0.1c0-0.1,0.1-0.3,0.1-0.4c-0.2,0-0.3-0.1-0.5,0c-0.2,0-0.4,0-0.6-0.1c-0.3-0.1-0.5-0.3-0.7-0.4
			c0-0.1,0-0.2-0.1-0.3c-0.1-0.1-0.1-0.2-0.1-0.3c0-0.1,0.2-0.1,0.3-0.1c0.1,0,0.2,0,0.2,0c0.4,0.1,0.8,0.1,1.2,0
			c0.1,0,0.2,0,0.2-0.1c0.2-0.3,0.5-0.3,0.8-0.3c0.5-0.1,1,0.3,1.1,0.9c0,0.1,0,0.2,0.1,0.3c0,0.1,0,0.2,0.1,0.2
			c0.1,0,0.2,0,0.2,0.1c-0.2,0.1-0.3,0.1-0.4-0.1c-0.1-0.2-0.1-0.3-0.1-0.5c-0.2-0.7-0.9-0.8-1.5-0.5c-0.1,0.1-0.1,0.2,0,0.2
			c0.1,0,0.3,0.1,0.4,0.1c0,0,0.1,0,0.2,0c-0.4,0.1-0.5,0.1-0.8-0.1c0,0-0.1,0-0.2,0c-0.5,0.1-1,0.1-1.4,0c-0.1,0-0.2,0-0.3,0.1
			c0.2,0.2,0.2,0.4,0.5,0.6c0.3,0.2,0.6,0.3,0.9,0.3c0.1,0,0.1,0,0.2,0c0.1,0,0.2,0.1,0.3,0.1c0.1,0,0.2,0,0.3,0c0,0,0,0,0,0
			c-0.1,0.2-0.4,0.3-0.3,0.6c0,0.1,0,0.1-0.1,0.2c-0.2,0.2-0.3,0.4-0.2,0.6c0,0.3,0.2,0.4,0.4,0.4c0.1,0,0.3-0.1,0.4-0.2
			c0.4-0.3,0.8-0.6,1.2-0.9c0.2-0.2,0.5-0.4,0.6-0.7c0.1-0.3,0.2-0.5,0.4-0.7c0.3-0.4,0.2-1-0.2-1.3c-0.4-0.3-0.8-0.6-1.2-0.9
			c-0.3-0.2-0.7-0.3-1.1-0.2c-0.2,0-0.4,0-0.7,0.1c-0.2,0-0.3,0-0.5,0.1c-0.3,0.1-0.6,0.3-0.9,0.5c-0.1,0-0.1,0.1-0.2,0.1
			c-0.1-0.1-0.2,0-0.3,0.1c-0.5,0.4-1,0.7-1.6,1.1c-0.1,0-0.1,0.1-0.2,0.1c0.3-0.5,0.9-0.7,1.3-1.1c-0.2-0.1-0.4-0.1-0.6,0
			c-0.3,0.1-0.5,0.2-0.8,0.4c-0.5,0.3-0.8,0.8-1.1,1.1c-0.3,0.1-0.6,0.1-0.9,0.2c-0.1,0-0.2,0.1-0.2,0.2c0,0.2,0,0.5,0.1,0.7
			c0.1-0.1,0.3-0.2,0.5-0.1c0,0,0.1,0,0.1,0c0.2-0.1,0.4-0.2,0.6-0.3c0.1-0.1,0.3-0.1,0.4-0.1c0.3,0,0.5-0.2,0.7-0.3
			c0-0.2,0.1-0.1,0.2-0.2c0.1,0,0.2-0.1,0.3-0.1C33,28,33.2,28,33.4,28c0.7,0,0.7,0,1.2,0.3c0.1,0.3,0.3,0.5,0.6,0.6
			c0.3,0.1,0.4,0.4,0.6,0.7c-0.1,0-0.2,0-0.2,0c0,0.1,0,0.1,0,0.3c-0.1-0.2-0.1-0.3-0.2-0.5c0.1,0,0.2,0,0.3,0
			c-0.2-0.3-0.4-0.5-0.8-0.5c-0.1,0-0.2-0.1-0.2-0.1c0.1-0.2-0.1-0.3-0.2-0.4c-0.1-0.1-0.3-0.3-0.5-0.3c-0.4-0.1-0.9-0.1-1.2,0.1
			c-0.4,0.2-0.8,0.5-1.2,0.8c-0.2,0.2-0.4,0.3-0.7,0.4c0-0.1,0-0.2-0.1-0.2c-0.1,0-0.2,0-0.3-0.1c-0.1-0.1-0.2,0-0.2,0
			c-0.1,0.1-0.1,0.2,0,0.3c-0.1,0.1-0.2,0.1-0.2,0.2c0,0.1,0.1,0.3,0.2,0.4c0,0,0.1,0,0.1,0c0.2,0,0.5,0,0.7-0.1c0,0,0.1,0,0.1,0
			c0,0,0-0.1,0-0.1c0.2-0.1,0.3-0.1,0.5,0c0.1,0,0.1,0.1,0.2,0.1c0.3,0.2,0.7,0.5,1.1,0.4c0.1,0,0.2,0,0.3,0
			c-0.2,0.1-0.3,0.1-0.5,0.1c-0.2,0-0.3,0-0.5-0.1c0,0.2,0,0.3,0.1,0.5c-0.2-0.2-0.1-0.3-0.1-0.5c-0.1,0-0.1-0.1-0.2-0.1
			C31.8,30.5,31.8,30.6,31.8,30.6L31.8,30.6z M31.9,31c-0.1,0.1-0.1,0.2-0.2,0.2c-0.1,0.3,0,0.6,0,1c0.1,0,0.1,0,0.1,0
			c0.2-0.1,0.4-0.2,0.6-0.2c0.1,0,0.3-0.1,0.3-0.2c-0.1,0-0.2-0.1-0.3-0.1C32.3,31.5,32,31.4,31.9,31L31.9,31z M30.8,29.2
			c0.2,0.2,0.3,0.1,0.5,0c0.1-0.1,0.2-0.2,0.4-0.3C31.4,28.8,31.1,29,30.8,29.2z"/>
		<path class="st1" d="M32.2,14.1c-0.2,0.1-0.4,0.2-0.5,0.3c0,0.1-0.1,0.3,0,0.5c0.3,0,0.4,0.2,0.6,0.4c0,0.1,0.2,0.2,0.2,0.2
			c0.2,0.2,0.2,0.3,0,0.5c0,0,0,0,0,0c-0.1,0.2-0.2,0.4-0.5,0.3c0,0.3-0.3,0.5-0.5,0.7c-0.2,0.2-0.4,0.2-0.6,0
			c-0.2-0.1-0.3-0.3-0.5-0.5c-0.1-0.1-0.2-0.1-0.3-0.2c-0.2,0-0.5,0-0.7-0.1c-0.5-0.1-1-0.2-1.4-0.6c-0.2-0.1-0.3-0.3-0.4-0.5
			c0-0.1-0.1-0.2-0.2-0.2c-0.2-0.1-0.4-0.2-0.6-0.4c0,0-0.1,0-0.1-0.1c-0.2-0.1-0.5-0.2-0.7-0.3c-0.2-0.1-0.4-0.3-0.5-0.4
			c-0.1-0.2-0.2-0.3-0.4-0.5c-0.3-0.3-0.5-0.7-0.5-1.1c0-0.5,0-1,0-1.5c0-0.6,0.5-1,1.1-1c0.3,0,0.5,0,0.8-0.1
			c0.4-0.1,0.7,0,1.1,0.1c0.4,0.1,0.8,0.3,1.3,0.4c0.3,0.1,0.6,0.3,0.6,0.7c0,0.1,0.1,0.1,0.1,0.2c0.3,0.1,0.5,0.3,0.9,0.2
			c0.1,0,0.2,0.1,0.4,0.1c0.3,0.2,0.6,0.4,1,0.7c0.2,0.2,0.4,0.4,0.4,0.6c0.3,0,0.5,0.1,0.6,0.3c0.1,0.1,0.2,0.1,0.3,0.2
			c0.1,0,0.1,0.1,0.2,0.1c0.1,0.1,0.1,0.2,0,0.3c-0.2,0.1-0.4,0.4-0.7,0.5C32.4,14.1,32.3,14.1,32.2,14.1z M27.8,11.4
			c0.1,0.2,0.1,0.4,0.2,0.5c0.2,0.2,0.3,0.4,0.3,0.6c0,0.2,0,0.4,0,0.6c0,0.2-0.1,0.3-0.2,0.5c-0.1,0.1-0.2,0.2-0.3,0.1
			c-0.1-0.1-0.1-0.2-0.2-0.3c-0.1-0.2-0.2-0.4-0.3-0.6c-0.1-0.2-0.3-0.4-0.4-0.5c-0.3,0.1-0.5-0.2-0.7-0.4c-0.4-0.4-0.4-1.1,0-1.5
			c0.1-0.1,0.1-0.1,0.2-0.2c0.2-0.2,0.2-0.2,0-0.4c0.2,0.1,0.2,0.2,0.1,0.4c-0.1,0.1-0.2,0.3-0.4,0.4c-0.3,0.3-0.3,0.8,0,1.1
			c0.1,0.1,0.2,0.2,0.3,0.3s0.2,0.2,0.3,0.1c0.1-0.1,0.1-0.2,0-0.4c0-0.1-0.1-0.2-0.2-0.3c0.2,0.1,0.4,0.3,0.4,0.6
			c0,0.1,0,0.2,0.1,0.3c0.3,0.3,0.6,0.6,0.7,1.1c0,0.1,0.1,0.2,0.2,0.2c0-0.2,0.2-0.4,0.2-0.7c0-0.4,0-0.7-0.3-1
			c0,0-0.1-0.1-0.1-0.1c0-0.2-0.1-0.4-0.3-0.5c0,0,0.1,0,0.1,0c0.2,0,0.5,0.1,0.7-0.1c0,0,0.2,0,0.2,0c0.2,0.1,0.5,0,0.7-0.2
			c0.2-0.2,0.2-0.3,0.1-0.5c-0.1-0.1-0.3-0.3-0.5-0.3c-0.2-0.1-0.5-0.2-0.7-0.3c-0.3-0.1-0.6-0.2-0.9-0.3c-0.2-0.1-0.4-0.1-0.6,0
			c-0.2,0-0.4,0.1-0.6,0.1c-0.1,0-0.2,0-0.3,0c-0.5,0.1-0.8,0.5-0.8,1c0,0.1,0,0.2,0,0.3c0,0.3,0,0.7,0,1c0,0.4,0.1,0.8,0.4,1.1
			c0.2,0.2,0.3,0.4,0.5,0.5c0.1,0.1,0.2,0.2,0.3,0.3c0.3,0.2,0.6,0.3,0.9,0.5c0.1,0,0.2,0.1,0.2,0.1c0,0.1,0.1,0.1,0.2,0.1
			c0.6,0.2,1.2,0.4,1.8,0.7c0,0,0.1,0.1,0.2,0.1c-0.3,0-0.5-0.1-0.8-0.1c-0.3-0.1-0.5-0.2-0.8-0.2c0.1,0.1,0.1,0.2,0.2,0.3
			c0.2,0.2,0.5,0.4,0.7,0.5c0.5,0.2,1,0.3,1.5,0.3c0.2,0,0.2,0.1,0.4,0.2c0.1,0.2,0.3,0.3,0.5,0.5c0.1,0.1,0.2,0.1,0.3,0
			c0.2-0.1,0.4-0.2,0.5-0.5c-0.2,0-0.4-0.1-0.4-0.4c0,0-0.1,0-0.1-0.1c-0.4-0.2-0.7-0.3-1-0.7c-0.1-0.2-0.4-0.2-0.6-0.3
			c-0.2,0.1-0.2,0-0.4-0.1c0,0,0-0.1-0.1-0.1c-0.3-0.2-0.5-0.4-0.6-0.7c-0.2-0.3-0.2-0.7-0.1-1c0.1-0.3,0.2-0.6,0.1-0.9
			c0-0.2,0-0.4,0.2-0.6c0,0.1,0,0.2-0.1,0.3c-0.1,0.2,0,0.4,0,0.7c0.1,0.1,0.1,0.2,0,0.4c0-0.1,0-0.1-0.1-0.2c0,0.2-0.1,0.4-0.1,0.6
			c0,0.2,0,0.4,0.1,0.6c0.1,0.1,0.1,0.1,0.1,0.2c0.1,0.2,0.3,0.4,0.6,0.5c0.3,0.1,0.6,0.2,0.9,0.4c0.4,0.2,0.8,0.2,1.2,0.5
			c0,0.1-0.1,0.1,0,0.1c0.1,0.1,0.1,0.3,0.2,0.4c0,0.1,0.2,0.1,0.3,0c0,0,0-0.1,0-0.1c0.2,0.2,0.3,0.2,0.4-0.1c0,0,0-0.1,0.1-0.1
			c0.1-0.1,0.1-0.2,0-0.3c-0.2-0.2-0.3-0.4-0.5-0.6c-0.2,0.1-0.3,0-0.4-0.2c0-0.1,0-0.2,0-0.3c0-0.4,0-0.8-0.3-1.1
			c-0.1-0.1-0.2-0.1-0.1-0.3c0.2,0.2,0.4,0.4,0.5,0.6c0.1,0.2,0.1,0.4,0.2,0.6c0.4-0.1,0.6-0.6,0.5-1c0-0.1-0.1-0.3-0.1-0.4
			c0-0.3-0.1-0.5-0.4-0.6c-0.3-0.2-0.6-0.5-1-0.7c-0.1-0.1-0.2-0.2-0.4-0.1c-0.2,0.1-0.4,0-0.5-0.1c-0.1-0.1-0.2-0.1-0.4-0.2
			c-0.3,0.3-0.6,0.4-1,0.3c0,0-0.1,0-0.1,0C28.2,11.5,28,11.5,27.8,11.4L27.8,11.4z M33.2,13.4C33.2,13.4,33.2,13.3,33.2,13.4
			c-0.3-0.2-0.5-0.3-0.7-0.5c-0.1-0.1-0.2-0.1-0.3-0.1c0,0.1,0,0.3,0,0.4c0.1,0.2,0.1,0.4,0,0.6c0,0,0,0.1,0,0.1
			c0.1,0.1,0.2,0.1,0.3,0C32.8,13.8,33,13.6,33.2,13.4L33.2,13.4z M31.2,15.9c0-0.3,0-0.3-0.1-0.3c-0.2-0.1-0.4-0.2-0.7-0.2
			C30.7,15.7,31,15.7,31.2,15.9z"/>
		<path class="st1" d="M31.9,43.7c0,0.3-0.3,0.5-0.5,0.7c-0.2,0.2-0.4,0.2-0.6,0c-0.2-0.1-0.3-0.3-0.5-0.5c-0.1-0.1-0.2-0.2-0.3-0.2
			c-0.2,0-0.4,0-0.6-0.1c-0.5-0.1-1-0.3-1.5-0.6c-0.2-0.1-0.3-0.3-0.4-0.5c0-0.1-0.1-0.2-0.2-0.2c-0.2-0.1-0.4-0.2-0.5-0.4
			c0,0-0.1,0-0.1-0.1c-0.2-0.1-0.5-0.2-0.7-0.3c-0.2-0.1-0.4-0.2-0.5-0.4c-0.1-0.2-0.3-0.3-0.4-0.5c-0.2-0.2-0.4-0.5-0.4-0.8
			c0-0.3,0-0.6,0-1c0-0.2,0-0.5,0-0.7c0-0.7,0.5-1.2,1.2-1.2c0.2,0,0.3,0,0.5,0c0.5-0.1,0.9,0,1.3,0.1c0.4,0.1,0.8,0.3,1.2,0.4
			c0.3,0.1,0.6,0.3,0.6,0.7c0,0,0.1,0.1,0.1,0.1c0.3,0.1,0.5,0.3,0.8,0.2c0.1,0,0.2,0,0.4,0.1c0.3,0.2,0.7,0.5,1,0.7
			c0.2,0.2,0.4,0.3,0.4,0.6c0.2,0,0.5,0.1,0.6,0.3c0.1,0.1,0.2,0.1,0.3,0.2c0.1,0,0.1,0.1,0.2,0.1c0.1,0.1,0.1,0.2,0,0.3
			c-0.2,0.1-0.4,0.4-0.7,0.5c-0.2,0.1-0.2,0.1-0.4,0c-0.2,0.1-0.3,0.2-0.5,0.3c0,0.1,0,0.3-0.1,0.5c0.1,0,0.1,0,0.2,0.1
			c0.1,0,0.2,0.1,0.3,0.2c0.1,0.1,0.2,0.2,0.3,0.3c0.2,0.2,0.2,0.3,0,0.5c0,0,0,0.1,0,0.1c-0.1,0.2-0.2,0.2-0.3,0.2
			C32,43.7,32,43.7,31.9,43.7L31.9,43.7z M28.7,40.2c0,0.2-0.1,0.4-0.1,0.6c0,0.2,0,0.4,0.1,0.6c0.1,0.1,0.1,0.2,0.2,0.2
			c0.1,0.2,0.3,0.4,0.6,0.5c0.3,0.1,0.5,0.2,0.8,0.4c0.4,0.2,0.8,0.2,1.2,0.5c0,0.1-0.1,0.1,0,0.2c0.1,0.1,0.1,0.3,0.2,0.4
			c0,0,0.1,0.1,0.2,0.1c0,0,0.1-0.1,0.1-0.1c0,0,0-0.1,0-0.1c0.2,0.2,0.3,0.2,0.4,0c0-0.1,0.1-0.2,0.2-0.3c-0.2-0.2-0.4-0.5-0.6-0.7
			c-0.2,0.1-0.4,0-0.4-0.2c0-0.1,0-0.2,0-0.3c0-0.4,0-0.8-0.4-1.1c-0.1-0.1-0.2-0.1-0.1-0.3c0.2,0.2,0.4,0.4,0.5,0.5
			c0.1,0.2,0.1,0.4,0.2,0.6c0.4-0.2,0.6-0.5,0.5-1c0-0.2-0.1-0.3-0.1-0.5c0-0.2-0.1-0.4-0.3-0.6c-0.3-0.3-0.7-0.5-1-0.8
			c-0.1-0.1-0.2-0.2-0.4-0.1c-0.2,0-0.4,0-0.6-0.1c-0.1-0.1-0.2-0.1-0.4-0.2c-0.3,0.3-0.6,0.4-1,0.3c0,0-0.1,0-0.1,0
			c-0.1,0.1-0.3,0.1-0.5,0.1c0.1,0.3,0.2,0.5,0.4,0.7c0,0,0.1,0.1,0.1,0.2c0.2,0.5,0.1,0.9-0.1,1.3c-0.1,0.2-0.3,0.2-0.4,0.1
			c-0.1-0.1-0.1-0.2-0.2-0.3c-0.1-0.2-0.2-0.4-0.3-0.6s-0.3-0.3-0.4-0.5c-0.3,0-0.3,0-0.6-0.2c-0.5-0.4-0.6-1.1,0-1.6
			c0,0,0.1-0.1,0.1-0.2s0.1-0.1,0.1-0.2c0-0.1,0-0.2-0.1-0.2c0.2,0.1,0.2,0.2,0.1,0.4c-0.1,0.2-0.2,0.3-0.4,0.4
			c-0.2,0.2-0.3,0.5-0.2,0.8c0.1,0.3,0.3,0.5,0.6,0.7c0.1,0.1,0.2-0.1,0.2-0.2c0-0.1-0.1-0.2-0.2-0.3c0,0-0.1-0.1-0.1-0.2
			c0.3,0.1,0.4,0.4,0.4,0.6c0,0.2,0,0.2,0.1,0.3c0.3,0.3,0.6,0.6,0.7,1c0,0.1,0.1,0.2,0.2,0.2c0,0,0,0,0,0c0.1-0.2,0.2-0.4,0.2-0.7
			c0-0.4,0-0.7-0.3-0.9c0,0-0.1-0.1-0.1-0.1c0-0.2-0.1-0.4-0.4-0.5c0.1,0,0.1,0,0.1,0c0.2,0,0.4,0.1,0.6-0.1c0,0,0.2,0,0.2,0
			c0.2,0.1,0.5,0,0.7-0.2c0.2-0.2,0.3-0.3,0.1-0.6c-0.1-0.2-0.3-0.2-0.5-0.3c-0.2-0.1-0.4-0.2-0.7-0.2c-0.3-0.1-0.6-0.2-0.9-0.3
			c-0.2,0-0.4,0-0.6,0c-0.2,0-0.5,0.1-0.7,0.1c-0.7,0-1.1,0.5-1.1,1.2c0,0.1,0,0.1,0,0.2c0,0.3,0,0.7,0,1c0,0.5,0.1,0.8,0.5,1.2
			c0.1,0.2,0.3,0.3,0.4,0.5c0.1,0.1,0.2,0.2,0.4,0.3c0.3,0.2,0.6,0.3,0.9,0.5c0.1,0,0.2,0.1,0.2,0.1c0,0.1,0.1,0.1,0.2,0.2
			c0.6,0.2,1.2,0.4,1.8,0.7c0,0,0.1,0,0.1,0.1c-0.6,0-1-0.3-1.6-0.4c0.1,0.2,0.2,0.3,0.2,0.3c0.2,0.2,0.4,0.3,0.7,0.5
			c0.5,0.2,1,0.3,1.6,0.3c0.1,0,0.2,0.1,0.3,0.2c0.2,0.2,0.3,0.3,0.5,0.5c0,0,0.1,0.1,0.2,0.1c0.2,0,0.5-0.3,0.6-0.6
			c-0.1,0-0.3-0.1-0.3-0.2c0-0.1-0.1-0.2-0.2-0.2c-0.3-0.2-0.7-0.3-0.9-0.6c-0.1-0.2-0.4-0.2-0.6-0.3c-0.1,0.1-0.2,0-0.3-0.1
			c0,0-0.1-0.1-0.1-0.1c-0.3-0.2-0.5-0.4-0.7-0.7c-0.2-0.3-0.2-0.7-0.1-1c0.1-0.3,0.2-0.6,0.1-0.9c0-0.2,0-0.3,0.2-0.6
			c0,0.1,0,0.2-0.1,0.3c-0.1,0.2,0,0.4,0,0.7c0.1,0.1,0.1,0.2,0,0.3C28.7,40.3,28.7,40.3,28.7,40.2L28.7,40.2z M33.2,40.7
			c-0.3-0.1-0.6-0.3-0.8-0.5c0,0-0.2-0.1-0.2-0.1c-0.1,0.2,0,0.4,0,0.6c0,0.2,0,0.4,0,0.6C32.7,41.3,32.9,41,33.2,40.7L33.2,40.7z
			 M31.2,43.2C31.2,43.2,31.2,43.2,31.2,43.2c0-0.1,0-0.2,0-0.3c-0.2-0.1-0.4-0.2-0.7-0.2C30.7,43,31,43,31.2,43.2z"/>
		<path class="st1" d="M18.4,41.7c0.1,0.2,0.3,0.2,0.5,0.4c0-0.1,0-0.1,0.1-0.2c0.1-0.1,0.1-0.1,0.2-0.1c0.2-0.1,0.4-0.1,0.6-0.1
			c0.2,0,0.3,0,0.4,0.2c0,0,0,0,0,0.1c0.1,0.2,0.2,0.3,0,0.5c0,0,0,0,0,0.1c0.3,0.2,0.3,0.5,0.4,0.8c0,0.2-0.1,0.3-0.2,0.4
			c-0.2,0.1-0.5,0.2-0.7,0.2c-0.1,0-0.2,0.1-0.3,0.2c-0.1,0.2-0.2,0.3-0.3,0.5c-0.3,0.4-0.7,0.8-1.1,1c-0.3,0.2-0.5,0.2-0.9,0.2
			c-0.1,0-0.2,0-0.2,0.1c-0.2,0.1-0.3,0.3-0.5,0.3c0,0-0.1,0-0.1,0.1c-0.2,0.1-0.4,0.3-0.6,0.4c-0.2,0.2-0.4,0.2-0.6,0.3
			c-0.3,0-0.6,0.1-1,0.2c-0.3,0.1-0.6,0-0.8-0.1c-0.5-0.3-1-0.5-1.4-0.8c-0.4-0.2-0.6-0.8-0.4-1.2c0.1-0.4,0.3-0.7,0.4-1.1
			c0.1-0.3,0.4-0.6,0.6-0.8c0.3-0.3,0.6-0.5,0.8-0.8c0.1-0.1,0.2-0.2,0.4-0.2c0.2-0.1,0.4-0.1,0.7,0c0.2-0.1,0.3-0.2,0.5-0.3
			c0.1-0.1,0.2-0.2,0.2-0.3c0.1-0.2,0.2-0.3,0.3-0.4c0.3-0.2,0.6-0.3,0.9-0.5c0.3-0.1,0.6-0.2,0.9-0.2c0.1-0.2,0.3-0.3,0.5-0.4
			c0.1,0,0.2-0.1,0.3-0.1s0.1-0.1,0.2-0.1c0.1,0,0.2,0,0.2,0.1c0.1,0.3,0.2,0.6,0.1,1c0,0.1-0.1,0.2-0.2,0.3
			C18.4,41.3,18.5,41.5,18.4,41.7c0-0.5-0.3-0.8-0.8-0.9c-0.1,0-0.2,0-0.3-0.1c-0.3-0.2-0.5-0.1-0.8,0c-0.4,0.2-0.7,0.3-1.1,0.5
			c-0.1,0.1-0.2,0.1-0.3,0.3c-0.1,0.2-0.2,0.3-0.3,0.4c-0.1,0.1-0.3,0.2-0.4,0.2c0,0,0,0.1,0,0.1c0.1,0.3,0.1,0.6-0.2,0.9
			c0,0-0.1,0.1-0.1,0.1c0,0.2,0,0.3-0.1,0.5c0.2,0,0.4,0.1,0.5,0c0.4-0.1,0.8,0,1.1,0.2c0.1,0,0.2,0.1,0.2,0.1
			c0.1,0.1,0.2,0.2,0.3,0.3c0.1,0.1,0.1,0.3-0.1,0.3c-0.1,0-0.2,0.1-0.3,0c-0.4-0.1-0.9,0-1.3,0.1c-0.1,0-0.2,0-0.2,0.1
			c-0.1,0.3-0.4,0.3-0.6,0.4c-0.6,0.2-1.1-0.2-1.3-0.7c0-0.1-0.1-0.2-0.1-0.3c-0.1-0.2-0.1-0.2-0.4-0.2c0.2-0.1,0.3-0.1,0.4,0
			c0.1,0.1,0.1,0.3,0.2,0.4c0.1,0.1,0.1,0.3,0.2,0.3c0.3,0.4,0.8,0.4,1.3,0.1c0.1,0,0.2-0.1,0.2-0.2s-0.1-0.2-0.2-0.2
			c-0.1,0-0.1,0-0.2,0c-0.1,0-0.2,0-0.3,0c0.3-0.2,0.6-0.2,0.8-0.1c0.1,0.1,0.2,0.1,0.3,0c0.4-0.1,0.8-0.2,1.3-0.1
			c0.1,0,0.2,0,0.3-0.1c-0.2-0.2-0.3-0.4-0.6-0.5c-0.3-0.1-0.6-0.3-0.9-0.1c-0.1,0-0.1,0-0.2,0c-0.2-0.1-0.4,0-0.6,0.1
			c0,0,0.1-0.1,0.1-0.1c0.1-0.2,0.2-0.3,0.2-0.5c0-0.2,0-0.3,0.1-0.4c0.2-0.2,0.2-0.4,0.1-0.7c0-0.2-0.1-0.2-0.3-0.3
			c-0.2,0-0.4,0-0.5,0.2c-0.4,0.3-0.8,0.7-1.2,1.1c-0.2,0.2-0.4,0.5-0.5,0.8c0,0.2-0.1,0.4-0.2,0.5c-0.1,0.1-0.1,0.2-0.1,0.2
			c-0.1,0.4,0,1,0.4,1.2c0.4,0.2,0.9,0.5,1.3,0.7c0.4,0.2,0.7,0.2,1.1,0.1c0.2-0.1,0.5-0.1,0.8-0.2c0.2,0,0.3-0.1,0.4-0.2
			c0.3-0.2,0.6-0.4,0.8-0.6c0.1,0,0.1-0.1,0.2-0.1c0.1,0,0.2,0,0.2-0.1c0.5-0.5,1-0.9,1.5-1.4c0,0,0.1,0,0.2-0.1
			c-0.3,0.5-0.8,0.8-1.2,1.2c0.2,0.1,0.3,0,0.4,0c0.2-0.1,0.4-0.2,0.6-0.3c0.5-0.3,0.8-0.8,1.1-1.3c0.1-0.1,0.1-0.2,0.3-0.2
			c0.2,0,0.4-0.1,0.6-0.2c0.1,0,0.2-0.1,0.2-0.2c0-0.3,0-0.5-0.2-0.7c-0.1,0.2-0.3,0.2-0.4,0.2c0,0-0.1,0-0.1,0
			c-0.2,0.1-0.4,0.3-0.6,0.4c-0.1,0-0.2,0.1-0.3,0.1c-0.4,0.1-0.6,0.2-0.8,0.5c0,0-0.1,0.1-0.1,0.1c-0.1,0-0.1,0-0.2,0.1
			c-0.4,0.3-0.8,0.2-1.2,0.3c-0.1,0-0.2,0-0.3-0.1c-0.2-0.1-0.4-0.3-0.6-0.5c-0.1-0.1-0.3-0.2-0.4-0.3c-0.2-0.1-0.4-0.3-0.5-0.5
			c0.2,0.2,0.6,0.4,0.9,0.5c0,0,0.1,0.1,0.1,0.1c0.3,0.4,0.6,0.6,1.2,0.6c0.4,0,0.7-0.2,1-0.4c0.3-0.3,0.6-0.5,0.9-0.8
			c0.2-0.2,0.4-0.3,0.6-0.5c0.1,0,0.1,0.1,0.2,0.1c0.2,0,0.3,0,0.5,0c0,0,0.1,0,0.2-0.1c0-0.1,0-0.1-0.1-0.2c0,0,0,0-0.1,0
			c0.2-0.1,0.3-0.2,0.1-0.4c0-0.1-0.1-0.2-0.1-0.3c-0.3,0-0.6,0.1-0.8,0.2c0,0-0.1,0-0.1,0.1C19.2,42,19,42,19,42
			c-0.2,0-0.3,0-0.4-0.1c-0.4-0.3-0.8-0.5-1.3-0.3c0,0-0.1,0-0.2,0c0.4-0.2,0.7-0.2,1.1-0.1C18.2,41.6,18.3,41.6,18.4,41.7
			L18.4,41.7z M18.3,41c0.1-0.1,0.1-0.1,0.2-0.2c0-0.3-0.1-0.6-0.1-0.9c0,0-0.1,0-0.1,0c-0.2,0.2-0.4,0.2-0.7,0.3
			c-0.1,0-0.2,0.1-0.3,0.3C17.6,40.7,18.1,40.6,18.3,41L18.3,41z M19.6,42.8C19.6,42.8,19.6,42.8,19.6,42.8
			C19.6,42.8,19.6,42.8,19.6,42.8c-0.1-0.1-0.3-0.1-0.4,0c-0.1,0.1-0.3,0.3-0.4,0.4c0.1,0,0.1,0,0.1,0
			C19.2,43.1,19.4,42.9,19.6,42.8L19.6,42.8z"/>
		<path class="st1" d="M18.4,14.3c0.1,0.1,0.3,0.2,0.5,0.4c0-0.1,0-0.1,0.1-0.1c0.1-0.1,0.1-0.1,0.2-0.1c0.2-0.1,0.4-0.1,0.6-0.1
			c0.2-0.1,0.3,0,0.4,0.2c0,0,0,0.1,0,0.1c0.1,0.1,0.2,0.3,0,0.5c0,0,0,0,0,0.1c0.3,0.2,0.3,0.5,0.4,0.9c0,0.2-0.1,0.3-0.2,0.4
			c-0.2,0.1-0.5,0.2-0.7,0.2c-0.1,0-0.2,0.1-0.3,0.2c-0.1,0.1-0.2,0.3-0.3,0.5c-0.3,0.4-0.6,0.8-1.1,1c-0.3,0.2-0.6,0.3-0.9,0.2
			c-0.1,0-0.2,0-0.2,0.1c-0.2,0.1-0.3,0.3-0.5,0.3c0,0-0.1,0-0.1,0.1c-0.2,0.1-0.4,0.3-0.6,0.4c-0.2,0.1-0.4,0.2-0.6,0.3
			c-0.3,0-0.6,0.1-1,0.2c-0.3,0.1-0.6,0-0.8-0.1c-0.5-0.2-1-0.5-1.4-0.8c-0.4-0.2-0.6-0.9-0.4-1.3c0.1-0.3,0.2-0.6,0.4-0.9
			c0.1-0.4,0.4-0.6,0.7-0.9c0.3-0.2,0.5-0.5,0.8-0.7c0.1-0.1,0.2-0.2,0.3-0.2c0.2-0.1,0.5-0.1,0.7,0c0.2-0.1,0.3-0.2,0.5-0.3
			c0.1-0.1,0.2-0.2,0.2-0.3c0.1-0.2,0.2-0.3,0.3-0.4c0.3-0.1,0.6-0.3,0.9-0.4c0.3-0.1,0.6-0.2,0.9-0.1c0.1-0.2,0.3-0.3,0.5-0.4
			c0.1,0,0.2-0.1,0.3-0.1s0.1-0.1,0.2-0.1c0.1-0.1,0.2,0,0.2,0.1c0.1,0.3,0.2,0.6,0.1,1c0,0.1-0.1,0.2-0.2,0.3
			C18.4,14,18.5,14.2,18.4,14.3c0-0.5-0.3-0.8-0.8-0.9c-0.1,0-0.2,0-0.3-0.1c-0.3-0.2-0.6-0.1-0.9,0c-0.4,0.2-0.7,0.3-1,0.5
			c-0.1,0.1-0.3,0.1-0.3,0.3c-0.1,0.2-0.2,0.3-0.3,0.4c-0.1,0.1-0.3,0.2-0.4,0.2c0,0,0,0.1,0,0.1c0.1,0.4,0.1,0.7-0.2,1
			c0,0-0.1,0.1-0.1,0.1c0,0.2,0,0.3-0.1,0.5c0.2,0,0.4,0,0.6,0c0.3-0.1,0.6,0,0.9,0.1c0.1,0,0.3,0.1,0.4,0.2
			c0.1,0.1,0.2,0.2,0.3,0.4c0.1,0.1,0.1,0.3-0.1,0.4c-0.1,0-0.2,0.1-0.3,0c-0.4-0.1-0.9,0-1.3,0.1c-0.1,0-0.1,0-0.1,0.1
			c-0.2,0.3-0.4,0.4-0.7,0.4c-0.5,0.1-1-0.3-1.1-0.7c0-0.1,0-0.2-0.1-0.3c0-0.1-0.1-0.2-0.1-0.3c-0.1,0-0.2,0-0.2-0.1
			c0.2-0.1,0.4-0.1,0.4,0.1c0.1,0.1,0.1,0.3,0.1,0.4c0.2,0.6,0.9,0.8,1.5,0.4c0.1-0.1,0.1-0.2,0-0.2s-0.2-0.1-0.3-0.1
			c-0.1,0-0.1,0-0.2,0c0.2-0.1,0.4-0.2,0.7,0c0.1,0.1,0.2,0.1,0.3,0c0.4-0.1,0.8-0.2,1.3-0.1c0.1,0,0.2,0,0.3-0.1
			c-0.2-0.2-0.4-0.5-0.6-0.6c-0.3-0.1-0.5-0.2-0.8-0.1c-0.1,0-0.2,0-0.2,0c-0.2-0.1-0.4,0-0.6,0.1c0,0,0.1-0.1,0.1-0.1
			c0.1-0.2,0.2-0.3,0.2-0.5c0-0.1,0-0.3,0.1-0.4c0.2-0.2,0.2-0.4,0.1-0.7c0-0.2-0.1-0.2-0.3-0.3c-0.2,0-0.4,0.1-0.5,0.2
			c-0.4,0.4-0.8,0.7-1.2,1.1c-0.2,0.2-0.4,0.4-0.4,0.7c-0.1,0.2-0.1,0.4-0.2,0.6c0,0.1-0.1,0.1-0.1,0.2c-0.1,0.4,0,1,0.4,1.2
			c0.4,0.3,0.9,0.5,1.3,0.7c0.4,0.2,0.7,0.2,1.1,0.1c0.3-0.1,0.5-0.1,0.8-0.2c0.1,0,0.3-0.1,0.4-0.2c0.3-0.2,0.5-0.4,0.8-0.6
			c0.1,0,0.1-0.1,0.2-0.1c0.1,0,0.2,0,0.2-0.1c0.5-0.4,1-0.9,1.5-1.3c0,0,0.1-0.1,0.1-0.1c-0.3,0.5-0.8,0.8-1.2,1.2
			c0.2,0.1,0.3,0.1,0.4,0c0.2-0.1,0.5-0.2,0.6-0.4c0.5-0.3,0.8-0.8,1.1-1.2c0.1-0.1,0.2-0.2,0.3-0.2c0.2,0,0.4-0.1,0.6-0.2
			c0.1,0,0.2-0.1,0.2-0.2c0.1-0.2,0-0.6-0.2-0.8c-0.1,0.1-0.2,0.2-0.4,0.2c0,0-0.1,0-0.2,0c-0.2,0.1-0.4,0.2-0.6,0.4
			C19.1,15.9,19,16,18.9,16c-0.3,0-0.5,0.2-0.6,0.4c-0.1,0.2-0.4,0.3-0.6,0.4c-0.2,0.1-0.4,0.2-0.6,0.2c-0.1,0-0.2,0-0.3,0
			c-0.2,0-0.4,0-0.6-0.1c-0.1-0.1-0.3-0.2-0.4-0.3c-0.2-0.2-0.4-0.4-0.6-0.5c-0.2-0.1-0.3-0.2-0.4-0.4c0.2,0.2,0.5,0.4,0.9,0.5
			c0.1,0,0.1,0.1,0.1,0.1c0.3,0.3,0.6,0.6,1.1,0.6c0.4,0,0.8-0.1,1.1-0.4c0.3-0.3,0.6-0.5,0.9-0.8c0.2-0.2,0.4-0.3,0.5-0.4
			c0.1,0.1,0.1,0.1,0.2,0.1c0.1,0,0.3,0,0.4,0c0,0,0.1-0.1,0.2-0.1c0,0,0-0.1,0-0.2c0,0-0.1-0.1-0.1-0.1c0.3-0.1,0.3-0.2,0.1-0.4
			c0-0.1-0.1-0.1-0.1-0.1c0-0.1-0.1-0.1-0.3-0.1c-0.2,0.1-0.4,0.1-0.6,0.1c0,0-0.1,0.1-0.1,0.1c0,0.2-0.1,0.2-0.2,0.2
			c-0.1,0-0.3,0-0.4-0.1c-0.4-0.3-0.8-0.4-1.3-0.3c-0.1,0-0.1,0.1-0.2,0c0.4-0.1,0.8-0.2,1.2,0C18.3,14.3,18.4,14.3,18.4,14.3
			L18.4,14.3z M18.3,13.7c0.3-0.4,0-0.8,0-1.1c-0.3,0.1-0.6,0.2-0.8,0.4c-0.1,0-0.2,0.1-0.2,0.2C17.6,13.3,18.1,13.3,18.3,13.7
			L18.3,13.7z M19.6,15.4c-0.1-0.1-0.2-0.1-0.3,0c-0.2,0.1-0.3,0.3-0.5,0.5C19.1,15.8,19.3,15.6,19.6,15.4z"/>
		<path class="st1" d="M45.7,41.7c0.1,0.2,0.3,0.2,0.5,0.4c0,0,0-0.1,0.1-0.2c0.1-0.1,0.2-0.1,0.2-0.1c0.2,0,0.4-0.1,0.6-0.1
			c0.2,0,0.3,0,0.4,0.2c0,0,0,0,0,0.1c0.2,0.2,0.2,0.3,0,0.5c0,0,0,0,0,0.1C48,42.6,48,43,48,43.3c0,0.2-0.1,0.3-0.2,0.4
			c-0.2,0.1-0.5,0.2-0.7,0.2c-0.1,0-0.2,0.1-0.2,0.1c-0.1,0.1-0.2,0.2-0.2,0.4c-0.2,0.3-0.5,0.6-0.7,0.8c-0.2,0.2-0.5,0.4-0.8,0.5
			c-0.1,0-0.3,0.1-0.4,0c-0.2,0-0.3,0-0.5,0.1c-0.1,0.1-0.3,0.1-0.4,0.2c-0.1,0-0.1,0-0.2,0.1c-0.2,0.1-0.4,0.3-0.6,0.4
			s-0.4,0.2-0.7,0.3c-0.3,0-0.6,0.1-0.9,0.2c-0.3,0-0.5,0-0.8-0.1c-0.3-0.1-0.6-0.3-0.9-0.5c-0.2-0.1-0.3-0.2-0.5-0.3
			c-0.5-0.2-0.8-1-0.5-1.5c0.1-0.2,0.2-0.5,0.3-0.8c0.1-0.2,0.2-0.4,0.4-0.6c0.3-0.3,0.5-0.5,0.8-0.8c0.1-0.1,0.2-0.2,0.3-0.3
			c0.1,0,0.1-0.1,0.2-0.2c0.3-0.2,0.6-0.3,0.9-0.1c0.2-0.1,0.3-0.2,0.5-0.4c0.1-0.1,0.1-0.2,0.2-0.2c0-0.2,0.2-0.3,0.3-0.4
			c0.4-0.2,0.8-0.4,1.1-0.5c0.1,0,0.2-0.1,0.3-0.1c0.1,0,0.2,0,0.4,0c0.1-0.2,0.3-0.3,0.5-0.4c0.1,0,0.2-0.1,0.3-0.2
			c0.1,0,0.1-0.1,0.2-0.1c0.1,0,0.2,0,0.2,0.1c0.1,0.3,0.2,0.6,0.1,1c0,0.1-0.1,0.2-0.2,0.3C45.7,41.3,45.8,41.5,45.7,41.7
			c0-0.5-0.3-0.8-0.8-0.9c-0.1,0-0.2,0-0.3-0.1c-0.3-0.2-0.6-0.2-0.9,0c-0.3,0.2-0.7,0.3-1,0.5c-0.1,0.1-0.2,0.1-0.3,0.3
			c0,0.2-0.2,0.3-0.3,0.4c-0.1,0.1-0.3,0.2-0.4,0.2c0,0,0,0.1,0,0.1c0.1,0.3,0.1,0.6-0.2,0.9c0,0-0.1,0.1-0.1,0.1
			c0,0.2,0,0.3-0.1,0.5c0.2,0,0.4,0,0.6,0c0.3-0.1,0.6,0,0.8,0.1c0.1,0,0.3,0.1,0.4,0.2s0.2,0.2,0.3,0.3c0.1,0.1,0.1,0.3-0.1,0.3
			c-0.1,0-0.2,0.1-0.3,0c-0.4-0.1-0.9,0-1.3,0.1c-0.1,0-0.1,0-0.2,0.1c-0.2,0.3-0.4,0.4-0.7,0.4c-0.5,0.1-1-0.3-1.2-0.7
			c0-0.1-0.1-0.2-0.1-0.3c-0.1-0.2-0.1-0.2-0.4-0.2c0.2-0.1,0.3-0.1,0.4,0.1c0.1,0.2,0.1,0.3,0.2,0.5c0.2,0.7,1,0.8,1.5,0.3
			c0.1-0.1,0.1-0.2,0-0.2c-0.1,0-0.2,0-0.3-0.1c0,0-0.1,0-0.1,0c0,0-0.1,0-0.1,0c0.2-0.1,0.5-0.2,0.7,0c0.1,0.1,0.2,0.1,0.2,0
			c0.4-0.1,0.9-0.2,1.3-0.1c0.1,0,0.2,0,0.3-0.1c-0.2-0.2-0.3-0.4-0.5-0.5c-0.3-0.1-0.6-0.3-0.9-0.2c-0.1,0-0.1,0-0.2,0
			c-0.1,0-0.2,0-0.3,0c-0.1,0-0.2,0.1-0.3,0.1c0.1-0.1,0.1-0.1,0.1-0.1c0.1-0.2,0.2-0.3,0.2-0.5c0-0.2,0-0.3,0.1-0.4
			c0.2-0.2,0.2-0.4,0.1-0.7c0-0.2-0.1-0.2-0.3-0.3c-0.2,0-0.4,0.1-0.5,0.2c-0.4,0.3-0.8,0.7-1.1,1.1c-0.2,0.2-0.4,0.5-0.5,0.8
			c0,0.2-0.1,0.3-0.2,0.5c0,0.1-0.1,0.2-0.1,0.3c-0.2,0.4,0,1,0.4,1.2c0.4,0.2,0.8,0.5,1.3,0.7c0.3,0.2,0.7,0.2,1.1,0.1
			c0.3-0.1,0.5-0.1,0.8-0.2c0.1,0,0.2-0.1,0.3-0.1c0.3-0.2,0.5-0.3,0.8-0.5c0.1-0.1,0.2-0.3,0.4-0.2c0,0,0.1,0,0.1-0.1
			c0.5-0.5,1-0.9,1.5-1.4c0,0,0.1,0,0.2-0.1c-0.3,0.5-0.8,0.8-1.2,1.3c0.2,0,0.3,0,0.4,0c0.2-0.1,0.4-0.2,0.6-0.3
			c0.5-0.3,0.8-0.8,1.1-1.3c0.1-0.1,0.2-0.2,0.3-0.2c0.2,0,0.4-0.1,0.7-0.2c0.1,0,0.2-0.1,0.2-0.3c0-0.2,0-0.5-0.2-0.7
			c-0.1,0.2-0.3,0.2-0.4,0.2c0,0-0.1,0-0.1,0c-0.2,0.1-0.4,0.3-0.6,0.4c-0.1,0.1-0.2,0.1-0.3,0.1c-0.3,0.1-0.6,0.2-0.8,0.5
			c0,0-0.1,0.1-0.1,0.1c-0.1,0-0.2,0-0.2,0.1c-0.4,0.3-0.8,0.2-1.2,0.3c-0.1,0-0.2,0-0.3-0.1c-0.2-0.1-0.4-0.3-0.6-0.5
			c-0.1-0.1-0.3-0.2-0.5-0.3c-0.2-0.1-0.4-0.3-0.5-0.5c0.2,0.2,0.6,0.4,0.9,0.5c0,0,0.1,0.1,0.1,0.1c0.3,0.4,0.6,0.6,1.2,0.6
			c0.4,0,0.8-0.2,1.1-0.4c0.3-0.3,0.6-0.5,0.9-0.8c0.2-0.2,0.3-0.3,0.5-0.4c0,0,0.1,0.1,0.1,0.1c0.2,0,0.3,0,0.5,0
			c0.1,0,0.2-0.1,0.2-0.2c0,0-0.1-0.1-0.1-0.1c0.2-0.1,0.2-0.2,0.1-0.4c0-0.1-0.1-0.2-0.2-0.3c-0.3,0-0.6,0.1-0.8,0.2
			c0,0-0.1,0-0.1,0.1c0.1,0.1-0.1,0.2-0.1,0.2c-0.2,0-0.3,0-0.4-0.1c-0.4-0.3-0.8-0.5-1.3-0.3c0,0-0.1,0-0.2,0
			c0.5-0.2,0.7-0.2,1.1-0.1C45.5,41.6,45.6,41.6,45.7,41.7L45.7,41.7z M45.7,39.9c-0.3,0.1-0.6,0.2-0.9,0.4c-0.1,0-0.2,0.1-0.2,0.2
			c0.2,0.1,0.4,0.1,0.5,0.2c0.2,0.1,0.3,0.2,0.5,0.3c0.1,0,0.1-0.2,0.1-0.3C45.7,40.5,45.7,40.2,45.7,39.9L45.7,39.9z M46.1,43.2
			C46.1,43.2,46.1,43.2,46.1,43.2c0.3,0,0.5-0.3,0.8-0.4c-0.2-0.1-0.3-0.1-0.5,0C46.4,43,46.2,43.1,46.1,43.2z"/>
		<path class="st1" d="M45.7,14.3c0.1,0.2,0.3,0.2,0.5,0.4c0,0,0-0.1,0.1-0.1c0.1-0.1,0.2-0.1,0.2-0.1c0.2-0.1,0.4-0.1,0.6-0.1
			c0.2-0.1,0.3,0,0.4,0.2c0,0,0,0.1,0,0.1c0.2,0.1,0.2,0.3,0,0.5c0,0,0,0,0,0.1c0.3,0.2,0.3,0.5,0.4,0.9c0,0.2-0.1,0.3-0.2,0.4
			c-0.2,0.1-0.5,0.2-0.7,0.2c-0.1,0-0.2,0.1-0.3,0.2c-0.1,0.1-0.2,0.3-0.3,0.5c-0.3,0.4-0.7,0.8-1.1,1c-0.3,0.1-0.5,0.2-0.9,0.2
			c-0.1,0-0.2,0-0.2,0.1c-0.2,0.1-0.3,0.3-0.5,0.3c-0.1,0-0.1,0-0.2,0.1c-0.1,0-0.1,0.1-0.2,0.1c-0.6,0.5-1.3,0.6-2.1,0.7
			c-0.2,0-0.4,0-0.6-0.1c-0.3-0.1-0.6-0.3-0.9-0.5c-0.2-0.1-0.3-0.2-0.5-0.3c-0.5-0.2-0.8-1-0.5-1.5c0.2-0.3,0.2-0.5,0.3-0.8
			c0.1-0.2,0.2-0.4,0.4-0.6c0.2-0.3,0.5-0.5,0.8-0.8c0.1-0.1,0.2-0.2,0.3-0.2c0-0.1,0.1-0.1,0.2-0.1c0.3-0.2,0.6-0.4,0.9-0.1
			c0.2-0.1,0.3-0.2,0.5-0.3c0.1-0.1,0.2-0.2,0.2-0.3c0.1-0.2,0.2-0.3,0.3-0.4c0.4-0.2,0.7-0.4,1.1-0.5c0.2-0.1,0.5-0.1,0.7-0.1
			c0.1-0.2,0.3-0.3,0.5-0.4c0.1,0,0.2-0.1,0.3-0.1c0.1,0,0.2-0.1,0.2-0.1c0.1-0.1,0.2,0,0.2,0.1c0.1,0.3,0.2,0.6,0.1,1
			c0,0.1-0.1,0.2-0.2,0.3C45.7,14,45.8,14.2,45.7,14.3c0-0.5-0.3-0.8-0.8-0.9c-0.1,0-0.2,0-0.3-0.1c-0.3-0.2-0.6-0.1-0.9,0
			c-0.3,0.2-0.7,0.3-1,0.5c-0.1,0.1-0.2,0.1-0.3,0.3c0,0.2-0.2,0.3-0.3,0.4c-0.1,0.1-0.3,0.2-0.4,0.2c0,0.1,0,0.1,0,0.1
			c0.1,0.3,0.1,0.6-0.2,0.9c0,0-0.1,0.1-0.1,0.1c0,0.2,0,0.3-0.1,0.5c0.2,0,0.3,0.1,0.5,0c0.4-0.1,0.8,0,1.1,0.2
			c0.1,0,0.2,0.1,0.2,0.1c0.1,0.1,0.2,0.2,0.3,0.4c0.1,0.1,0.1,0.3-0.1,0.4c-0.1,0-0.2,0.1-0.3,0c-0.4-0.1-0.9,0-1.3,0.1
			c-0.1,0-0.1,0-0.2,0.1c-0.2,0.3-0.4,0.4-0.7,0.4c-0.6,0.1-1.1-0.3-1.2-0.7c0-0.1-0.1-0.2-0.1-0.3c-0.1-0.2-0.1-0.2-0.4-0.2
			c0.2-0.1,0.3-0.1,0.4,0c0.1,0.1,0.1,0.3,0.2,0.4c0,0.1,0.1,0.3,0.2,0.4c0.3,0.4,0.8,0.4,1.3,0.1c0.1,0,0.2-0.1,0.1-0.2
			c0-0.1-0.1-0.1-0.2-0.2c-0.1,0-0.2,0-0.2,0c0,0-0.1,0-0.1,0c0,0,0,0-0.1,0c0.3-0.1,0.5-0.1,0.7,0c0.1,0.1,0.2,0.1,0.2,0
			c0.4-0.1,0.9-0.2,1.3-0.1c0.1,0,0.2,0,0.3-0.1c-0.1-0.1-0.2-0.3-0.3-0.4c0,0,0,0,0,0c-0.1-0.1-0.2-0.1-0.3-0.2
			c-0.3-0.1-0.5-0.2-0.8-0.1c-0.1,0-0.2,0-0.2,0c-0.2-0.1-0.4,0-0.6,0.1c0.1-0.1,0.2-0.3,0.2-0.4c0-0.1,0.1-0.1,0-0.2
			c0-0.1,0-0.3,0.1-0.4c0.2-0.2,0.2-0.4,0.1-0.7c0-0.2-0.1-0.2-0.3-0.3c-0.2,0-0.4,0.1-0.5,0.2c-0.4,0.4-0.8,0.7-1.2,1.1
			c-0.3,0.3-0.5,0.6-0.5,0.9c0,0.1-0.1,0.1-0.1,0.2c0,0.1-0.1,0.2-0.2,0.3c-0.2,0.4,0,1,0.4,1.2c0.4,0.3,0.8,0.5,1.3,0.7
			c0.3,0.2,0.7,0.2,1.1,0.1c0.3-0.1,0.5-0.1,0.8-0.2c0.2,0,0.3-0.1,0.4-0.2c0.3-0.2,0.5-0.4,0.8-0.6c0.1,0,0.2-0.1,0.2-0.1
			c0.1,0,0.2,0,0.2-0.1c0.5-0.5,1-0.9,1.5-1.4c0,0,0.1,0,0.2-0.1c-0.3,0.5-0.8,0.8-1.2,1.2c0.2,0.1,0.3,0,0.4,0
			c0.2-0.1,0.5-0.2,0.6-0.4c0.5-0.3,0.8-0.8,1.1-1.2c0.1-0.1,0.2-0.1,0.3-0.2c0.2,0,0.4-0.1,0.7-0.2c0.1,0,0.2-0.1,0.2-0.3
			c0-0.2,0-0.5-0.2-0.7c-0.1,0.2-0.2,0.2-0.4,0.2c0,0-0.1,0-0.1,0c-0.2,0.1-0.4,0.3-0.6,0.4c-0.1,0.1-0.2,0.1-0.3,0.1
			c-0.3,0.1-0.6,0.2-0.8,0.5c0,0-0.1,0.1-0.1,0.1c-0.1,0-0.2,0-0.2,0.1c-0.4,0.3-0.8,0.2-1.2,0.3c-0.1,0-0.2,0-0.3-0.1
			c-0.2-0.1-0.4-0.3-0.6-0.5c-0.1-0.1-0.3-0.2-0.5-0.3c-0.2-0.1-0.4-0.3-0.5-0.5c0,0,0.1,0,0.1,0c0.2,0.2,0.5,0.4,0.8,0.5
			c0.1,0,0.1,0.1,0.2,0.1c0.3,0.4,0.6,0.6,1.2,0.6c0.4,0,0.8-0.2,1.1-0.4c0.3-0.3,0.6-0.5,0.9-0.8c0.2-0.2,0.3-0.3,0.6-0.4
			c0,0,0,0.1,0.1,0.1c0.2,0,0.4,0,0.5,0.1c0,0,0.1-0.1,0.2-0.1c0-0.1,0-0.1-0.1-0.2c0,0,0,0-0.1-0.1c0.2-0.1,0.3-0.2,0.1-0.4
			c0,0,0-0.1-0.1-0.1c0-0.1-0.1-0.2-0.3-0.1c-0.2,0.1-0.4,0.1-0.6,0.1c0,0-0.1,0.1-0.1,0.1c0.1,0.1-0.1,0.1-0.1,0.2
			c-0.2,0.1-0.3,0-0.4-0.1c-0.4-0.3-0.8-0.4-1.3-0.3c-0.1,0-0.1,0-0.3,0c0.5-0.2,0.7-0.3,1.1-0.1C45.5,14.3,45.6,14.3,45.7,14.3
			L45.7,14.3z M45.6,13.7c0.3-0.4,0-0.8,0-1.2c-0.3,0.1-0.6,0.2-0.9,0.4c-0.1,0-0.2,0.1-0.2,0.2C45,13.3,45.4,13.3,45.6,13.7z
			 M46.1,15.9c0.3,0,0.5-0.3,0.8-0.4c-0.2-0.1-0.3-0.1-0.5,0C46.4,15.6,46.2,15.7,46.1,15.9z"/>
		<path class="st1" d="M50.8,51.5c-0.1,0.1-0.2,0.2-0.3,0.2c-0.5,0.4-1.3,0.4-1.8,0c-0.1-0.1-0.2-0.2-0.3-0.2
			c-0.1,0-0.1-0.1-0.2-0.2c-0.1-0.2-0.1-0.3,0.1-0.3c0,0,0,0,0.1,0c-0.1-0.3-0.3-0.6-0.5-0.8c-0.1-0.1-0.2-0.2-0.3-0.3
			c-0.2-0.2-0.1-0.5,0.2-0.6c0.2-0.1,0.5,0,0.7,0.1c0.2,0.1,0.5,0.3,0.6,0.6c0.1,0.2,0.2,0.3,0.4,0.5c0.2-0.1,0.2-0.3,0.3-0.4
			c0.1-0.2,0.2-0.4,0.3-0.6s0.2-0.4,0.3-0.6c0.1-0.1,0.2-0.2,0.2-0.4c0.3-0.3,0.7-0.3,1,0c0.2,0.2,0.3,0.3,0.3,0.6
			c0.1,0.7,0.3,1.4,0.4,2c0,0.1,0,0.3,0,0.4c0,0.4-0.2,0.7-0.7,0.7c-0.1,0-0.2,0-0.3,0.1c-0.3,0.1-0.5,0.1-0.6-0.2
			C51,51.8,50.9,51.6,50.8,51.5L50.8,51.5z M51.7,51.8c0.2,0.1,0.3,0.1,0.5,0c0.2-0.1,0.2-0.3,0.2-0.5c0-0.1,0-0.2,0-0.3
			c-0.1-0.7-0.4-1.3-0.4-2c0-0.1-0.1-0.3-0.2-0.4c-0.3-0.4-0.8-0.6-1.1,0c-0.2,0.3-0.4,0.7-0.6,1C50,49.7,50,49.8,50,49.9
			c-0.1,0.3-0.2,0.5-0.5,0.7c-0.1,0.1-0.1,0.1-0.1,0.2c0,0.1,0,0.2-0.1,0.3c-0.2-0.3,0-0.5,0.1-0.7c-0.2-0.2-0.3-0.4-0.5-0.6
			c-0.2-0.2-0.4-0.4-0.7-0.5c-0.1,0-0.2-0.1-0.4,0c-0.2,0-0.3,0.2-0.1,0.4c0.1,0.1,0.1,0.2,0.3,0.1c0.1,0.1,0.3,0.3,0.4,0.4
			c0,0,0,0.1,0,0.1c-0.1,0.1,0,0.1,0,0.2c0.1,0.3,0.3,0.5,0.5,0.6c-0.2,0.1-0.4-0.1-0.5,0c0,0,0,0.1,0.1,0.1
			c0.2,0.1,0.3,0.2,0.5,0.4c0-0.1,0-0.2,0-0.3c0,0,0,0,0,0c0,0.1,0.1,0.3,0.2,0.4c0.5,0.2,0.9,0.1,1.3-0.2c0.3-0.3,0.6-0.6,0.9-0.9
			c0,0.2-0.1,0.4-0.3,0.5c0,0.1-0.1,0.1-0.1,0.2c0,0.2,0.1,0.5,0.4,0.6C51.5,51.9,51.6,51.9,51.7,51.8L51.7,51.8z"/>
		<path class="st1" d="M23.5,24.1c-0.1,0.1-0.2,0.1-0.2,0.2c-0.5,0.4-1.3,0.4-1.8,0c-0.1-0.1-0.2-0.1-0.3-0.2
			c-0.1,0-0.1-0.1-0.2-0.2c-0.1-0.1-0.1-0.3,0.1-0.3c0,0,0,0,0.1,0c-0.1-0.3-0.3-0.6-0.5-0.8c-0.1-0.1-0.2-0.2-0.3-0.4
			c-0.2-0.2-0.1-0.5,0.2-0.6c0.2-0.1,0.5,0,0.7,0.1c0.2,0.1,0.5,0.3,0.6,0.6c0.1,0.2,0.2,0.3,0.4,0.5c0.1-0.1,0.2-0.3,0.3-0.4
			c0.1-0.2,0.2-0.4,0.3-0.6s0.2-0.4,0.3-0.6c0.1-0.1,0.1-0.2,0.2-0.4c0.3-0.3,0.7-0.3,1-0.1c0.2,0.2,0.3,0.4,0.4,0.6
			c0.1,0.7,0.3,1.4,0.4,2c0,0.1,0,0.3,0,0.4c0,0.4-0.2,0.7-0.7,0.7c-0.1,0-0.2,0-0.3,0.1c-0.3,0.1-0.5,0.1-0.6-0.2
			C23.6,24.4,23.6,24.3,23.5,24.1L23.5,24.1z M24.4,24.5c0.1,0.1,0.3,0.1,0.4,0c0.2-0.1,0.3-0.4,0.2-0.6c-0.1-0.3-0.1-0.6-0.2-0.9
			c-0.1-0.3-0.2-0.6-0.2-0.9c0-0.2-0.1-0.5-0.2-0.7c-0.1-0.3-0.3-0.5-0.6-0.5c-0.3,0-0.4,0.2-0.6,0.4c-0.2,0.3-0.4,0.6-0.5,0.9
			c-0.1,0.1-0.1,0.2-0.2,0.4c-0.1,0.2-0.2,0.4-0.4,0.6c-0.1,0.1-0.2,0.2-0.2,0.3c0,0.1,0,0.2-0.1,0.3c-0.1-0.1-0.1-0.2-0.1-0.3
			c0-0.1,0.1-0.3,0.2-0.5c-0.2-0.3-0.5-0.5-0.7-0.8c-0.1-0.1-0.3-0.2-0.5-0.3c-0.1-0.1-0.3,0-0.4,0c-0.1,0.1-0.2,0.2-0.1,0.3
			c0.1,0.1,0.1,0.3,0.3,0.2c0,0,0,0,0.1,0c0,0,0.1,0.1,0.1,0.1c0.1,0.1,0.3,0.2,0.2,0.4c0.1,0.2,0.1,0.6,0.5,0.7c0,0,0,0,0,0
			c-0.2,0-0.4-0.1-0.5,0c0.1,0.1,0.4,0.4,0.6,0.5V24h0c0,0.1,0.1,0.2,0.1,0.4c0.4,0.2,0.9,0.1,1.3-0.2c0.3-0.3,0.6-0.6,0.9-0.9
			c0,0.1,0,0.1,0,0.1c-0.1,0.1-0.2,0.3-0.3,0.4c0,0.1-0.1,0.1-0.1,0.2c0,0.2,0.1,0.5,0.4,0.6C24.2,24.6,24.3,24.5,24.4,24.5
			L24.4,24.5z"/>
		<path class="st1" d="M49.5,23c0.1-0.2,0.2-0.3,0.3-0.5c0.1-0.2,0.2-0.4,0.3-0.6s0.2-0.4,0.3-0.6c0.1-0.1,0.2-0.2,0.2-0.4
			c0.3-0.3,0.7-0.3,1,0c0.2,0.1,0.3,0.4,0.3,0.6c0.1,0.7,0.3,1.4,0.4,2c0,0.1,0,0.3,0,0.4c0,0.4-0.2,0.7-0.7,0.7
			c-0.1,0-0.2,0-0.3,0.1c-0.2,0.1-0.4,0-0.5-0.2c-0.1-0.1-0.1-0.3-0.2-0.5c-0.1,0-0.1,0.1-0.2,0.2c-0.6,0.5-1.3,0.5-1.8,0
			c-0.1-0.1-0.2-0.1-0.2-0.2c0,0-0.1-0.1-0.2-0.1c-0.1-0.1-0.2-0.2-0.1-0.3c0-0.1,0.1-0.1,0.2-0.2c-0.1-0.3-0.3-0.5-0.5-0.8
			c-0.1-0.1-0.2-0.2-0.3-0.3c-0.2-0.2-0.1-0.5,0.2-0.6c0.2-0.1,0.5,0,0.7,0.1c0.2,0.1,0.4,0.3,0.6,0.5C49.3,22.6,49.4,22.8,49.5,23
			L49.5,23z M49.2,24.4c0.2,0.1,0.4,0.1,0.6,0.1c0.4,0,0.7-0.2,0.9-0.5c0.2-0.2,0.5-0.5,0.7-0.8c0,0.2-0.2,0.4-0.3,0.6
			c0,0.1-0.1,0.1-0.1,0.2c0,0.2,0.1,0.5,0.4,0.6c0.2-0.1,0.3-0.2,0.5-0.1c0,0,0.2,0,0.2-0.1c0.2-0.1,0.3-0.3,0.3-0.5
			c0-0.1,0-0.2,0-0.3c-0.1-0.7-0.4-1.3-0.4-2c0-0.1-0.1-0.3-0.2-0.4c-0.3-0.5-0.8-0.5-1.1,0c-0.2,0.3-0.4,0.7-0.6,1
			C50,22.3,50,22.4,50,22.5c-0.1,0.3-0.2,0.5-0.5,0.7c-0.1,0.1-0.1,0.1-0.1,0.2c0,0.1,0,0.2-0.1,0.3c-0.1-0.1-0.1-0.2-0.1-0.3
			c0-0.1,0.1-0.3,0.2-0.4c-0.2-0.2-0.3-0.4-0.5-0.6c-0.2-0.2-0.4-0.4-0.7-0.5c-0.1,0-0.2-0.1-0.4,0c-0.2,0-0.3,0.2-0.1,0.4
			c0.1,0.1,0.1,0.2,0.3,0.1c0.1,0.1,0.3,0.3,0.4,0.4c0,0,0,0.1,0,0.1c-0.1,0.1,0,0.1,0,0.2c0,0.1,0.1,0.3,0.2,0.4
			c0.1,0.1,0.2,0.2,0.3,0.2c-0.2,0.1-0.4-0.1-0.6,0c0.2,0.2,0.4,0.3,0.6,0.5c0-0.1,0-0.2,0-0.3C49.1,24.1,49.1,24.2,49.2,24.4
			C49.2,24.3,49.2,24.3,49.2,24.4L49.2,24.4z"/>
		<path class="st1" d="M22.2,50.3c0.1-0.1,0.2-0.3,0.3-0.5c0.1-0.2,0.2-0.4,0.3-0.6c0.1-0.2,0.2-0.4,0.3-0.6c0-0.1,0.1-0.2,0.1-0.3
			c0.4-0.6,1-0.4,1.3,0c0.1,0.1,0.1,0.3,0.2,0.4c0.1,0.6,0.2,1.3,0.4,1.9c0,0.2,0.1,0.4,0.1,0.5c0,0.4-0.3,0.6-0.6,0.7
			c-0.1,0-0.2,0-0.3,0.1c-0.2,0.1-0.4,0-0.5-0.2c-0.1-0.1-0.1-0.3-0.2-0.5c-0.1,0-0.1,0.1-0.2,0.2c-0.6,0.5-1.3,0.5-1.8,0
			c-0.1-0.1-0.2-0.1-0.3-0.2c-0.1,0-0.1-0.1-0.2-0.2c-0.1-0.2-0.1-0.3,0.1-0.4c0,0,0,0,0.1,0c-0.1-0.3-0.3-0.6-0.5-0.8
			c-0.1-0.1-0.2-0.2-0.3-0.3c-0.2-0.2-0.1-0.5,0.2-0.6c0.2-0.1,0.5,0,0.6,0.1c0.2,0.1,0.5,0.3,0.6,0.6C21.9,50,22,50.1,22.2,50.3
			L22.2,50.3z M21.1,51.1c0.1,0.2,0.4,0.4,0.6,0.5v-0.2c0,0,0,0,0,0c0,0.1,0.1,0.3,0.1,0.4c0.4,0.2,0.9,0.2,1.3-0.2
			c0.3-0.3,0.6-0.6,0.9-0.9c0,0.1,0,0.1,0,0.2c-0.1,0.1-0.2,0.3-0.3,0.4c0,0.1-0.1,0.1-0.1,0.2c0,0.2,0.1,0.5,0.4,0.6
			c0.1,0,0.2-0.1,0.4-0.2c0.2,0.1,0.3,0.1,0.4,0c0.2-0.2,0.3-0.3,0.2-0.6c-0.1-0.3-0.1-0.6-0.2-0.9c-0.1-0.3-0.2-0.6-0.2-0.9
			c0-0.2-0.1-0.5-0.2-0.7c-0.1-0.3-0.3-0.5-0.6-0.5c-0.3,0-0.4,0.2-0.5,0.4c-0.2,0.3-0.4,0.6-0.5,0.9c-0.1,0.1-0.1,0.2-0.2,0.4
			c-0.1,0.2-0.2,0.4-0.4,0.6c-0.1,0.1-0.2,0.2-0.2,0.3c0,0.1,0,0.2-0.1,0.3c-0.1-0.1-0.1-0.2-0.1-0.3c0-0.2,0.1-0.3,0.2-0.5
			c-0.2-0.3-0.5-0.5-0.7-0.8c-0.1-0.1-0.3-0.2-0.5-0.3c-0.1-0.1-0.3,0-0.4,0c-0.1,0.1-0.2,0.2-0.1,0.3c0.1,0.1,0.1,0.3,0.3,0.2
			c0,0,0,0,0.1,0c0,0,0.1,0.1,0.1,0.1c0.1,0.1,0.3,0.2,0.2,0.4c0.1,0.2,0.1,0.6,0.5,0.7c0,0,0,0,0,0.1C21.5,51.1,21.3,51,21.1,51.1
			L21.1,51.1z"/>
		<path class="st1" d="M41.2,7c0.1,0,0.3,0.1,0.4,0.1c0.6,0.2,1,0.8,0.9,1.4c0,0.1,0,0.3,0,0.4c0,0.1,0,0.1,0,0.2
			c-0.1,0.2-0.2,0.2-0.3,0.1c0,0,0,0-0.1,0c-0.2,0.3-0.3,0.7-0.4,1.1c0,0.1,0,0.2-0.1,0.3c-0.1,0.2-0.2,0.2-0.4,0.2
			c-0.3-0.1-0.4-0.4-0.4-0.6c0-0.3,0-0.6,0.2-1C40.9,9,41,8.9,41,8.7c-0.1,0-0.1-0.1-0.2-0.1c-0.6,0.1-1.2,0.1-1.8,0.2
			c-0.1,0-0.2,0-0.3,0c-0.5-0.1-0.8-0.4-0.6-0.9c0-0.2,0.2-0.3,0.3-0.5c0.2-0.2,0.3-0.3,0.5-0.5c0.2-0.3,0.5-0.5,0.7-0.8
			C39.8,6,40,5.8,40.2,5.7c0.3-0.2,0.7-0.2,1,0.2c0,0.1,0.1,0.1,0.2,0.2c0.1,0.1,0.2,0.2,0.2,0.3C41.5,6.6,41.5,6.7,41.2,7L41.2,7z
			 M41,6.9c0.1-0.2,0.2-0.3,0.3-0.4c0.1-0.2,0.1-0.2-0.1-0.3c0,0-0.1-0.1-0.2-0.1C41.1,6,41,6,41,6c-0.1-0.2-0.2-0.4-0.5-0.3
			c-0.1,0-0.2,0.1-0.3,0.1c-0.2,0.2-0.4,0.3-0.5,0.5c-0.3,0.3-0.5,0.7-0.9,0.9c-0.1,0.1-0.2,0.2-0.3,0.3c-0.1,0.1-0.2,0.3-0.2,0.4
			c-0.1,0.4,0.1,0.7,0.5,0.7c0.1,0,0.2,0,0.3,0c0.3,0,0.6,0,0.9-0.1c0.1,0,0.3,0,0.4,0c0.3-0.1,0.6-0.1,0.9,0c0.1,0,0.2,0,0.2-0.1
			c0.1-0.1,0.2-0.1,0.3-0.1c-0.2,0.4-0.4,0.3-0.7,0.3C41,9,41,9.3,40.9,9.6c0,0.2-0.1,0.5,0,0.7c0,0.1,0.1,0.3,0.3,0.3
			c0,0,0.1,0,0.2,0c0.1,0,0.2-0.3,0.1-0.4c-0.2-0.2,0-0.4,0.1-0.7c0,0.1,0.1,0.1,0.1,0.2c0.1-0.1,0.1-0.3,0.2-0.4
			C42,9.2,42,9,41.9,8.8c0,0,0,0,0,0c0.1,0.1,0.1,0.3,0.3,0.5c0-0.1,0.1-0.2,0.1-0.3c0-0.2,0-0.4,0-0.6c0-0.1,0-0.1,0-0.1
			c-0.1-0.5-0.4-0.9-0.9-1c-0.3-0.1-0.6-0.1-0.9-0.2c-0.1,0-0.1,0-0.2,0c-0.1,0-0.1,0-0.2,0C40.5,6.8,40.8,6.9,41,6.9L41,6.9z"/>
		<path class="st1" d="M13.9,34.3c0.2,0.1,0.3,0.1,0.5,0.2c0.5,0.2,0.9,0.8,0.8,1.4c0,0.1,0,0.2,0,0.4c0,0.1,0,0.2,0,0.2
			c-0.1,0.2-0.2,0.3-0.4,0.1c0,0-0.1,0-0.1,0c-0.2,0.3-0.4,0.7-0.4,1.1c0,0.1,0,0.2-0.1,0.3c-0.1,0.3-0.3,0.3-0.5,0.2
			c-0.2-0.1-0.3-0.4-0.3-0.6c0-0.3,0-0.7,0.1-1c0.1-0.2,0.1-0.3,0.2-0.5c-0.1,0-0.1-0.1-0.2,0c-0.6,0.2-1.2,0.1-1.7,0.2
			c-0.1,0-0.2,0-0.4,0c-0.5-0.1-0.8-0.5-0.6-0.9c0.1-0.2,0.2-0.3,0.3-0.5c0.1-0.2,0.3-0.3,0.5-0.5c0.2-0.2,0.4-0.5,0.7-0.8
			c0.2-0.2,0.3-0.3,0.5-0.5c0.4-0.3,0.8-0.2,1,0.2c0.1,0.1,0.1,0.1,0.2,0.2c0.2,0.1,0.2,0.2,0.2,0.3c0,0.2-0.1,0.3-0.2,0.4
			C14,34.2,13.9,34.2,13.9,34.3L13.9,34.3z M13.8,36c-0.1,0.3-0.2,0.6-0.2,0.9c-0.1,0.2-0.1,0.5,0,0.7c0.1,0.2,0.1,0.3,0.3,0.3
			c0.1,0,0.2,0,0.2,0c0.1-0.1,0.1-0.2,0.1-0.4c-0.1-0.2,0-0.4,0.1-0.7c0,0.1,0.1,0.1,0.1,0.2c0.1-0.2,0.2-0.3,0.3-0.5
			c0.1-0.1,0.1-0.2,0.1-0.4c0,0,0-0.1,0-0.2c0.1,0.2,0.2,0.3,0.3,0.5c0.1-0.1,0.1-0.2,0.1-0.3c0-0.1,0-0.3,0-0.4
			c0.1-0.6-0.4-1.1-0.7-1.3c-0.4-0.1-0.8-0.2-1.2-0.2c0,0-0.1,0-0.2,0c0.3-0.2,0.6-0.1,0.9-0.1c0.1-0.2,0.2-0.3,0.3-0.4
			s0.1-0.2-0.1-0.3c-0.1,0-0.1-0.1-0.2-0.1c0.1-0.2-0.1-0.2-0.2-0.3c-0.2-0.1-0.4-0.1-0.6,0.1c-0.2,0.2-0.4,0.3-0.6,0.5
			c-0.3,0.3-0.5,0.7-0.9,0.9c-0.1,0.1-0.2,0.2-0.3,0.3c-0.1,0.1-0.2,0.3-0.2,0.5c-0.1,0.4,0.2,0.7,0.5,0.7c0.1,0,0.2,0,0.3,0
			c0.2,0,0.5,0,0.7,0c0.2,0,0.4,0,0.6-0.1C13.4,35.9,13.6,35.9,13.8,36c0.2-0.1,0.3,0,0.4-0.1c0.1-0.1,0.2-0.1,0.3-0.1
			C14.4,36.1,14.1,36.1,13.8,36L13.8,36z"/>
		<path class="st1" d="M41.2,34.3c0.4,0.1,0.7,0.2,1,0.5c0.2,0.3,0.4,0.6,0.3,1c0,0.2,0,0.3,0,0.5c0,0,0,0,0,0
			c0,0.3-0.2,0.4-0.5,0.2c-0.2,0.3-0.3,0.7-0.4,1.1c0,0.1,0,0.2-0.1,0.3c-0.1,0.2-0.2,0.3-0.5,0.2c-0.3-0.1-0.4-0.4-0.4-0.6
			c0-0.3,0-0.7,0.1-1c0.1-0.2,0.1-0.3,0.2-0.5c-0.1,0-0.2,0-0.2,0c-0.6,0.2-1.2,0.1-1.8,0.2c-0.1,0-0.2,0-0.2,0
			c-0.5-0.1-0.8-0.5-0.6-1c0.1-0.2,0.2-0.3,0.3-0.4c0.2-0.2,0.3-0.3,0.5-0.5c0.2-0.2,0.5-0.5,0.7-0.8c0.2-0.2,0.3-0.3,0.5-0.5
			c0.3-0.3,0.8-0.2,1,0.2c0,0.1,0.1,0.1,0.2,0.2c0.2,0.1,0.2,0.2,0.2,0.3c0,0.1-0.1,0.3-0.1,0.4C41.3,34.2,41.3,34.2,41.2,34.3
			L41.2,34.3z M41,33.3c0.1-0.2-0.1-0.2-0.2-0.3c-0.2-0.1-0.4-0.1-0.6,0.1c-0.2,0.2-0.4,0.3-0.5,0.5c-0.2,0.3-0.5,0.6-0.8,0.8
			c-0.1,0.2-0.3,0.3-0.4,0.4c-0.1,0.1-0.2,0.3-0.2,0.4c-0.1,0.4,0.1,0.7,0.5,0.7c0.1,0,0.2,0,0.3,0c0.2,0,0.5,0,0.7,0
			c0.2,0,0.4,0,0.7-0.1c0.2,0,0.5-0.1,0.7,0c0.1,0,0.2,0,0.3,0c0.1-0.1,0.2-0.1,0.3-0.1c-0.1,0.3-0.4,0.3-0.7,0.3
			c-0.1,0.3-0.2,0.6-0.2,0.9c0,0.2-0.1,0.5,0,0.7c0,0.1,0.1,0.3,0.3,0.3c0.1,0,0.2,0,0.2,0c0.1-0.1,0.1-0.2,0.1-0.4
			c-0.1-0.2,0-0.4,0.1-0.7c0,0.1,0,0.1,0.1,0.2c0.1-0.2,0.2-0.3,0.3-0.5c0.1-0.1,0.1-0.2,0.1-0.4c0,0,0-0.1,0-0.2
			c0.1,0.2,0.2,0.3,0.3,0.5c0.1-0.1,0.1-0.2,0.1-0.3c0-0.1,0-0.3,0-0.4c0.1-0.6-0.3-1.1-0.7-1.3c-0.4-0.1-0.8-0.2-1.2-0.2
			c0,0-0.1,0-0.2,0c0.3-0.2,0.6-0.1,0.9-0.1c0.1-0.2,0.2-0.3,0.3-0.4c0.1-0.2,0-0.2-0.1-0.3C41.2,33.4,41.1,33.4,41,33.3L41,33.3z"
			/>
		<path class="st1" d="M13.9,7C14,7,14.1,7,14.2,7.1c0.6,0.2,1.1,0.9,1,1.5c0,0.1,0,0.2,0,0.4c0,0.1,0,0.1,0,0.2
			c-0.1,0.2-0.2,0.2-0.4,0.1c0,0,0,0-0.1,0c-0.2,0.3-0.4,0.7-0.4,1.1c0,0.1,0,0.2-0.1,0.3c-0.1,0.2-0.2,0.2-0.4,0.2
			c-0.3-0.1-0.4-0.4-0.4-0.6c0-0.3,0-0.6,0.1-1c0.1-0.2,0.1-0.3,0.2-0.5c-0.1,0-0.2,0-0.2,0c-0.6,0.2-1.2,0.1-1.9,0.2
			c-0.6,0.1-1-0.4-0.8-1c0.1-0.2,0.2-0.3,0.3-0.4c0.1-0.2,0.3-0.3,0.5-0.5c0.2-0.3,0.5-0.5,0.7-0.8c0.2-0.2,0.3-0.3,0.5-0.5
			c0.3-0.2,0.7-0.1,0.9,0.2C13.8,5.9,13.9,6,14,6c0.1,0.1,0.2,0.2,0.2,0.3c0,0.2,0,0.3-0.1,0.4C14,6.8,13.9,6.9,13.9,7L13.9,7z
			 M12.9,7c0.3-0.2,0.5-0.1,0.8-0.1c0.1-0.1,0.2-0.3,0.3-0.4c0.1-0.2,0.1-0.2-0.1-0.4c-0.1-0.1-0.1-0.1-0.2-0.1c0-0.1,0-0.1,0-0.2
			c-0.1-0.1-0.1-0.1-0.2-0.2c-0.2-0.1-0.4-0.1-0.6,0.1c-0.2,0.2-0.4,0.3-0.6,0.6c-0.3,0.3-0.5,0.7-0.9,0.9c-0.1,0.1-0.2,0.2-0.3,0.3
			C11.1,7.7,11,7.8,10.9,8c-0.1,0.4,0.1,0.7,0.5,0.7c0.1,0,0.2,0,0.3,0c0.3,0,0.5,0,0.8-0.1c0.2,0,0.3,0,0.5-0.1
			c0.3-0.1,0.5-0.1,0.8,0c0.1,0,0.2,0,0.3-0.1c0.1-0.1,0.2-0.1,0.3-0.1c-0.1,0.1-0.1,0.2-0.3,0.3c-0.1,0-0.3,0-0.4,0
			c-0.1,0.3-0.2,0.6-0.3,1c-0.1,0.2-0.1,0.4,0,0.6c0.1,0.1,0.1,0.3,0.3,0.3c0.1,0,0.2,0,0.2,0c0.1-0.1,0.1-0.3,0.1-0.4
			c-0.1-0.2,0-0.4,0.1-0.7c0,0.1,0.1,0.1,0.1,0.2c0.1-0.1,0.1-0.3,0.2-0.4c0.1-0.2,0.2-0.4,0.1-0.6c0,0,0,0,0,0
			c0.1,0.1,0.1,0.3,0.3,0.5C15,9.1,15,9,15,8.9c0-0.2,0-0.3,0-0.5c0-0.1,0-0.1,0-0.2c-0.1-0.5-0.4-0.9-0.9-1C13.7,7.1,13.3,7,12.9,7
			L12.9,7z"/>
		<path class="st1" d="M23.7,1.8c0.1,0,0.2,0,0.2,0.1c0.1,0.1,0.1,0.2,0.1,0.3c0,0.1-0.1,0.2-0.2,0.2c0,0,0,0-0.1,0
			c-0.2,0-0.4,0.1-0.5,0.3C23.2,2.8,23,3,22.9,3.2c0,0.1,0.1,0.2,0.1,0.2c-0.1,0.1,0,0.3,0,0.4c0,0.5,0,1-0.3,1.5
			c-0.1,0.2-0.2,0.3-0.3,0.5c-0.2,0.2-0.4,0.4-0.7,0.4c-0.4,0.1-0.8,0-1.2-0.3c0,0-0.1,0-0.1-0.1c-0.3-0.3-0.5-0.7-0.5-1.1
			c0-0.1,0-0.1,0-0.1c0.2-0.4,0.3-0.7,0.7-0.9c0.2-0.1,0.5-0.2,0.7-0.3c0.3-0.1,0.6-0.2,0.9-0.4c0,0,0,0,0.1,0
			c0.2,0,0.3-0.1,0.4-0.2c0.2-0.2,0.3-0.3,0.5-0.5c0.1-0.1,0.1-0.2,0.1-0.4c0-0.2,0.1-0.3,0.2-0.3c0.1,0,0.2,0.1,0.2,0.3
			C23.7,1.7,23.7,1.7,23.7,1.8L23.7,1.8z M22.9,2.7c0.1,0,0.2-0.1,0.3-0.2c0.2-0.2,0.4-0.4,0.7-0.4c0,0,0.1-0.1,0.1-0.1
			c0,0,0-0.1-0.1-0.1c-0.1,0-0.2,0-0.3-0.1c0,0,0-0.1,0-0.1c0-0.1,0-0.2-0.1-0.2c-0.1,0-0.1,0.1-0.1,0.2c0,0.2,0,0.3-0.1,0.4
			C23.2,2.2,23,2.3,23,2.4C23,2.6,22.9,2.5,22.9,2.7c-0.1-0.1-0.1,0-0.1,0c-0.2,0-0.1,0.3-0.2,0.3c0,0,0,0.1,0,0.1c0,0,0,0,0,0
			c0.2,0,0.3-0.2,0.4-0.3C22.9,2.8,22.9,2.8,22.9,2.7z M22.7,4.7c0.1-0.2,0.1-0.5,0.1-0.8c0,0-0.1,0-0.1,0V3.7c0,0,0.1,0,0.1,0
			c0-0.1,0-0.2,0-0.3c-0.1,0-0.2,0-0.3-0.1c-0.1-0.1,0-0.3-0.2-0.3c-0.3,0.3-0.7,0.4-1.1,0.6c-0.2,0.1-0.4,0.2-0.6,0.3
			c-0.5,0.4-0.9,0.9-0.4,1.6c0,0,0,0.1,0,0.1c0.1,0.1,0.1,0.2,0.2,0.3c0.3,0.2,0.6,0.3,1,0.3c0.3,0,0.5-0.1,0.7-0.4
			c0-0.1,0.1-0.1,0.1-0.2c0-0.1,0.1-0.1,0.1-0.2c0.1-0.1-0.1-0.1,0-0.2c0.1-0.2,0.2-0.4,0.3-0.7L22.7,4.7L22.7,4.7z"/>
		<path class="st1" d="M51.1,29.1c0.1,0,0.2,0,0.2,0.1c0.1,0.1,0.1,0.2,0.1,0.3c0,0.1-0.1,0.2-0.2,0.2c-0.5,0-0.7,0.4-0.9,0.6
			c-0.1,0.1-0.1,0.1-0.2,0.2c0,0.1,0.1,0.1,0.1,0.2c0,0.1,0,0.2,0,0.3c0,0.4,0.1,0.7,0,1c-0.1,0.3-0.3,0.5-0.4,0.8
			c-0.4,0.6-0.8,0.7-1.4,0.6c-0.3,0-0.5-0.1-0.7-0.3c-0.3-0.2-0.4-0.6-0.5-1c0-0.2,0-0.3,0.1-0.5c0.2-0.5,0.7-0.8,1.2-1
			c0.2-0.1,0.5-0.2,0.7-0.3c0.1,0,0.2-0.1,0.2-0.1c0.2-0.1,0.2-0.1,0.3-0.2c0.2-0.2,0.4-0.4,0.5-0.6c0.2-0.2,0.3-0.3,0.3-0.6
			c0-0.2,0.1-0.2,0.2-0.2c0.2,0,0.2,0,0.3,0.2C51.1,29,51,29,51.1,29.1L51.1,29.1z M50.1,30.1c-0.2,0-0.1,0.3-0.2,0.3
			c0,0,0,0.1,0,0.1c0,0,0,0,0,0c0,0,0.1-0.1,0.1-0.1c0.2,0,0.2-0.2,0.3-0.3c0,0,0-0.1,0-0.1c0.1,0,0.2-0.1,0.3-0.2
			c0.2-0.2,0.4-0.4,0.7-0.4c0,0,0.1-0.1,0.1-0.1c0,0,0-0.1-0.1-0.1c-0.1,0-0.2,0-0.3-0.1c0,0,0-0.1,0-0.1c0-0.1,0-0.2-0.1-0.2
			c-0.1,0-0.1,0.1-0.1,0.2c0,0.1-0.1,0.3-0.1,0.4c0,0.1-0.2,0.2-0.2,0.3C50.4,29.9,50.2,29.9,50.1,30.1C50.1,30,50.1,30,50.1,30.1z
			 M49.7,30.3C49.7,30.3,49.6,30.3,49.7,30.3c-0.3,0.3-0.6,0.4-0.9,0.5c-0.3,0.1-0.6,0.2-0.8,0.4c-0.5,0.4-0.9,0.9-0.4,1.6
			c0,0,0,0,0,0.1c0.1,0.1,0.2,0.2,0.3,0.3c0.2,0.1,0.3,0.2,0.5,0.2c0.6,0.1,1,0,1.2-0.5c0.1-0.1,0.1-0.2,0.2-0.3c0,0-0.1,0-0.1,0
			c0.1-0.2,0.2-0.5,0.3-0.7h0c0,0.1,0,0.2,0,0.3c0.1-0.3,0.1-0.5,0.1-0.8c-0.1,0-0.1,0-0.2,0.1V31c0,0,0.1,0,0.1,0
			c0-0.1,0-0.2,0-0.3c-0.1,0-0.2,0-0.3-0.1C49.8,30.5,49.7,30.4,49.7,30.3L49.7,30.3z"/>
		<path class="st1" d="M51.1,1.8c0.1,0,0.2,0,0.2,0.1c0.1,0.1,0.1,0.2,0.1,0.3c0,0.1-0.1,0.2-0.2,0.2c0,0,0,0-0.1,0
			c-0.2,0-0.4,0.1-0.5,0.3c-0.2,0.2-0.3,0.4-0.5,0.6c0,0,0.1,0.1,0.1,0.1c-0.1,0.3,0,0.5,0,0.8c0,0.4-0.1,0.8-0.3,1.1
			c-0.1,0.2-0.2,0.3-0.3,0.5C49.5,6,49.3,6.1,49,6.2c-0.4,0.1-0.8,0-1.2-0.3c0,0-0.1,0-0.1-0.1c-0.3-0.3-0.5-0.7-0.5-1.1
			c0-0.1,0-0.1,0-0.1c0.2-0.4,0.3-0.7,0.7-0.9c0.2-0.1,0.5-0.2,0.7-0.3c0.3-0.1,0.6-0.2,0.9-0.4c0,0,0,0,0.1,0
			c0.2,0,0.3-0.1,0.4-0.2c0.2-0.2,0.3-0.3,0.5-0.5c0.1-0.1,0.2-0.2,0.2-0.4c0-0.2,0.1-0.3,0.2-0.3c0.2,0,0.2,0.1,0.2,0.3
			C51.1,1.7,51.1,1.7,51.1,1.8L51.1,1.8z M50.1,2.7c-0.2,0-0.1,0.3-0.2,0.3c0,0,0,0.1,0,0.1c0,0,0,0,0,0c0,0,0.1-0.1,0.1-0.1
			c0.2,0,0.2-0.2,0.3-0.3c0,0,0-0.1,0-0.1c0.1,0,0.2-0.1,0.3-0.2c0.2-0.2,0.4-0.4,0.7-0.4c0,0,0.1-0.1,0.1-0.1c0,0,0-0.1-0.1-0.1
			c-0.1,0-0.2,0-0.3-0.1c0,0,0-0.1,0-0.1c0-0.1,0-0.2-0.1-0.2c-0.1,0-0.1,0.1-0.1,0.2c0,0.1-0.1,0.3-0.1,0.4c0,0.1-0.2,0.2-0.2,0.3
			C50.4,2.6,50.2,2.6,50.1,2.7C50.1,2.7,50.1,2.7,50.1,2.7L50.1,2.7z M49.7,2.9C49.7,2.9,49.7,2.9,49.7,2.9
			c-0.4,0.3-0.8,0.4-1.1,0.6c-0.2,0.1-0.5,0.2-0.7,0.3c-0.5,0.4-0.9,0.9-0.4,1.6c0,0,0,0.1,0,0.1c0.1,0.1,0.2,0.2,0.3,0.3
			C48.1,5.9,48.2,6,48.4,6c0.6,0.2,1.1-0.1,1.4-0.7c0,0,0-0.1,0-0.1c-0.1-0.1,0-0.2,0-0.2c0-0.1,0.1-0.2,0.2-0.4
			c0-0.1,0-0.1,0.1-0.2h0c0,0.1,0,0.2,0,0.3c0.1-0.3,0.1-0.6,0.1-0.8C50.1,4,50.1,4,50,4V3.7c0,0,0.1,0,0.1,0c0-0.1,0-0.2,0-0.3
			c-0.1,0-0.2,0-0.3-0.1C49.8,3.1,49.8,3,49.7,2.9L49.7,2.9z"/>
		<path class="st1" d="M22.4,30.2c0.2-0.2,0.4-0.4,0.5-0.6c0.2-0.2,0.3-0.3,0.3-0.6c0-0.2,0.1-0.2,0.2-0.2c0.2,0,0.2,0,0.3,0.2
			c0,0,0,0.1,0,0.2c0.1,0,0.2,0,0.2,0.1c0.1,0,0.2,0.2,0.1,0.3c0,0.1-0.1,0.2-0.2,0.2c-0.3,0-0.5,0.2-0.7,0.4
			c-0.1,0.1-0.2,0.3-0.4,0.4c0,0,0.1,0.1,0.1,0.1c-0.1,0.3,0,0.6,0,1c0,0.2,0,0.5-0.2,0.7c-0.2,0.3-0.3,0.5-0.5,0.8
			c-0.2,0.3-0.4,0.4-0.8,0.4c-0.4,0-0.8,0-1.1-0.3c-0.1-0.1-0.3-0.2-0.4-0.4c-0.1-0.2-0.3-0.5-0.3-0.8c0,0,0-0.1,0-0.2
			c0.2-0.4,0.4-0.7,0.8-0.9c0.2-0.1,0.4-0.2,0.7-0.3c0.3-0.1,0.7-0.2,0.9-0.5C22.3,30.2,22.4,30.2,22.4,30.2z M22.7,30.1
			c-0.2,0-0.1,0.3-0.2,0.3c0,0,0,0.1,0,0.1c0,0,0,0,0,0c0,0,0.1-0.1,0.1-0.1c0.2,0,0.2-0.2,0.3-0.3c0,0,0-0.1,0-0.1
			c0.1,0,0.2-0.1,0.3-0.2c0.2-0.2,0.4-0.4,0.7-0.4c0,0,0.1-0.1,0.1-0.1c0,0,0-0.1-0.1-0.1c-0.1,0-0.2,0-0.3-0.1c0,0,0-0.1,0-0.1
			c0-0.1,0-0.2-0.1-0.2c-0.1,0-0.1,0.1-0.1,0.2c0,0.2,0,0.3-0.1,0.4c-0.1,0.1-0.2,0.2-0.2,0.3C23,30,22.8,29.9,22.7,30.1
			C22.8,30,22.8,30,22.7,30.1L22.7,30.1z M22.4,30.3C22.4,30.3,22.3,30.3,22.4,30.3c-0.4,0.3-0.8,0.4-1.2,0.6
			C21,31,20.8,31,20.6,31.2c-0.5,0.4-0.9,0.9-0.4,1.6c0,0,0,0.1,0,0.1c0.1,0.1,0.1,0.2,0.3,0.3c0.3,0.2,0.6,0.3,1,0.3
			c0.2,0,0.5-0.1,0.6-0.3c0.1-0.2,0.2-0.3,0.3-0.6c0.1-0.2,0.2-0.4,0.3-0.7v0.3c0.1-0.3,0.1-0.5,0.1-0.8c-0.1,0-0.1,0-0.1,0
			C22.6,31,22.6,31,22.8,31c0-0.1,0-0.2,0-0.3c-0.1,0-0.2,0-0.3-0.1C22.4,30.5,22.4,30.4,22.4,30.3L22.4,30.3z"/>
		<path class="st1" d="M8.9,49.4c-0.1,0-0.1,0.1-0.2,0.1c-0.1,0-0.2,0-0.4,0.1c-0.5,0.2-1.1,0.2-1.6-0.1c-0.1-0.1-0.2-0.1-0.3-0.2
			c-0.6-0.2-0.8-0.7-0.7-1.2c0-0.2,0.1-0.4,0.1-0.5c0.1-0.2,0.2-0.4,0.4-0.5c0.1-0.1,0.2-0.2,0.4-0.3c0.2-0.1,0.4-0.1,0.7-0.1
			c0.5,0.1,0.9,0.4,1.2,0.9c0.1,0.3,0.3,0.5,0.5,0.8c0.1,0.1,0.1,0.2,0.2,0.2c0.1,0.1,0.2,0.1,0.2,0.2c0,0,0.1,0.1,0.1,0.1
			c0.2,0.2,0.5,0.3,0.7,0.4c0.1,0.1,0.3,0.1,0.4,0.1c0.2,0,0.3,0,0.4,0.2c0,0.1,0,0.2-0.2,0.3c0,0-0.1,0-0.1,0c0,0.1,0,0.1,0,0.2
			c0,0.1-0.1,0.2-0.2,0.2c-0.1,0-0.2,0-0.3-0.2l0,0c0-0.3-0.3-0.5-0.6-0.6C9.1,49.6,9,49.5,8.9,49.4L8.9,49.4z M8.8,49
			c0.1,0.2,0.3,0.4,0.5,0.4c0,0,0.1,0,0.1,0c0,0.1,0.1,0.1,0.1,0.2c0.2,0.1,0.4,0.3,0.5,0.6c0,0,0.1,0.1,0.1,0.1
			c0.1,0,0.1-0.1,0.1-0.1c0-0.1,0-0.2,0-0.2c0.1,0,0.1,0,0.2,0c0,0,0.1-0.1,0.1-0.1c0-0.1-0.1-0.1-0.1-0.1c-0.2,0.1-0.4,0-0.6-0.2
			c-0.1,0-0.1-0.1-0.2-0.1c-0.1,0-0.1-0.1-0.2-0.2C9.3,49.2,9.2,49,9,49.1C9,49,8.9,49,8.8,49C8.8,49,8.9,48.9,9,48.9
			c-0.1-0.2-0.3-0.3-0.4-0.4c-0.2-0.2-0.3-0.5-0.5-0.7c-0.3-0.4-0.6-0.7-1.1-0.8c-0.2,0-0.3,0-0.5,0.1c-0.2,0.1-0.3,0.2-0.5,0.3
			C6,47.3,6,47.4,5.9,47.5c-0.1,0.3-0.2,0.7-0.1,1C5.9,48.8,6,49,6.3,49.2c0.2,0.1,0.3,0.2,0.6,0.2c0.2,0,0.5,0.1,0.7,0.2
			c-0.1,0-0.1,0-0.2,0.1c0.5,0,0.9-0.1,1.4-0.2C8.7,49.3,8.6,49.1,8.8,49z"/>
		<path class="st1" d="M37.7,50c0,0.1,0,0.2,0,0.2c0,0.1-0.1,0.2-0.2,0.2s-0.2,0-0.3-0.2l0,0c0-0.3-0.3-0.5-0.5-0.6
			c-0.2-0.1-0.3-0.2-0.5-0.3c-0.1,0-0.1,0.1-0.2,0.1c-0.1,0-0.2,0-0.4,0.1c-0.6,0.2-1.1,0.2-1.6-0.1c-0.1,0-0.2-0.1-0.3-0.1
			c-0.6-0.2-0.8-0.7-0.7-1.2c0-0.2,0.1-0.4,0.1-0.6c0-0.2,0.2-0.4,0.3-0.5c0.1-0.1,0.2-0.2,0.4-0.3c0.2-0.1,0.4-0.1,0.7-0.1
			c0.5,0.1,0.9,0.4,1.2,0.9c0.2,0.3,0.3,0.5,0.5,0.8c0,0.1,0.1,0.2,0.2,0.2c0.1,0.1,0.2,0.1,0.2,0.2c0,0,0.1,0.1,0.1,0.1
			c0.2,0.2,0.5,0.3,0.7,0.4c0.1,0.1,0.3,0.1,0.4,0.1c0.2,0,0.3,0,0.4,0.2C38.1,49.8,38,50,37.7,50C37.8,50,37.8,50,37.7,50L37.7,50z
			 M36.1,49c0,0.1,0.1,0.2,0.3,0.3c0.1,0,0.2,0.1,0.3,0.1s0.1,0.2,0.2,0.2c0.2,0.1,0.4,0.3,0.5,0.6c0,0,0.1,0.1,0.1,0.1
			c0,0,0.1-0.1,0.1-0.1c0-0.1,0-0.2,0-0.2c0.1,0,0.2,0,0.2,0c0,0,0.1-0.1,0.1-0.1c0-0.1-0.1-0.1-0.2-0.1c-0.2,0.1-0.4,0-0.6-0.1
			c-0.1,0-0.1-0.1-0.3-0.1c0,0-0.1-0.1-0.2-0.2c-0.1-0.1-0.2-0.2-0.3-0.1C36.3,49.1,36.2,49.1,36.1,49c0.1,0,0.2-0.1,0.3-0.1
			c-0.2-0.2-0.3-0.3-0.4-0.4c-0.2-0.2-0.3-0.5-0.5-0.7c-0.3-0.4-0.6-0.7-1.1-0.8c-0.2,0-0.3,0-0.5,0.1c-0.2,0.1-0.3,0.2-0.5,0.3
			c-0.1,0.1-0.2,0.2-0.2,0.3c-0.1,0.3-0.2,0.6-0.1,1c0,0.3,0.2,0.6,0.5,0.7c0.2,0.1,0.3,0.2,0.5,0.1c0.2,0,0.5,0.1,0.7,0.2
			c-0.1,0-0.1,0-0.2,0.1c0.2,0,0.5,0,0.7,0c0.2,0,0.4-0.1,0.7-0.2C36,49.3,35.9,49.1,36.1,49L36.1,49z"/>
		<path class="st1" d="M10.4,22.7c0,0.1,0,0.1,0,0.2c0,0.1-0.1,0.2-0.2,0.2c-0.1,0-0.2-0.1-0.3-0.2c-0.1-0.4-0.4-0.5-0.6-0.7
			c-0.1-0.1-0.2-0.1-0.4-0.2c-0.1,0-0.1,0.1-0.1,0.1c-0.2,0-0.3,0-0.5,0.1c-0.5,0.1-1,0.1-1.5-0.1c-0.1-0.1-0.2-0.1-0.4-0.2
			c-0.6-0.2-0.8-0.7-0.8-1.2c0-0.2,0.1-0.4,0.1-0.6s0.2-0.4,0.3-0.5c0.1-0.1,0.2-0.2,0.4-0.3c0.2-0.1,0.4-0.1,0.7-0.1
			c0.5,0.1,0.9,0.4,1.2,0.9c0.1,0.2,0.3,0.5,0.4,0.8c0.1,0.1,0.2,0.2,0.2,0.3c0,0,0.1,0.1,0.1,0.1c0,0.2,0.1,0.2,0.3,0.3
			c0.2,0.1,0.4,0.2,0.6,0.4c0.1,0.1,0.3,0.1,0.4,0.1c0.2,0,0.3,0,0.4,0.2c0,0.1,0,0.2-0.2,0.3C10.4,22.7,10.4,22.7,10.4,22.7
			L10.4,22.7z M8.8,21.7c0.1,0.2,0.3,0.4,0.5,0.4c0,0,0.1,0,0.1,0c0,0.1,0.1,0.1,0.1,0.2c0.2,0.1,0.4,0.3,0.5,0.6
			c0,0,0.1,0.1,0.1,0.1c0.1,0,0.1-0.1,0.1-0.1c0-0.1,0-0.2,0-0.2c0.1,0,0.1,0,0.2,0c0,0,0.1-0.1,0.1-0.1c0-0.1-0.1-0.1-0.1-0.1
			c-0.2,0.1-0.4,0-0.6-0.1c-0.1,0-0.1-0.1-0.2-0.1c-0.1,0-0.1,0-0.1-0.1c0,0-0.1-0.1-0.1-0.1c-0.1-0.1-0.2-0.2-0.3-0.1
			C8.9,21.7,8.8,21.7,8.8,21.7c0.1,0,0.2-0.1,0.3-0.2c-0.1-0.1-0.3-0.3-0.4-0.4c-0.2-0.2-0.3-0.5-0.5-0.7c-0.3-0.4-0.6-0.7-1.1-0.8
			c-0.1,0-0.3,0-0.4,0c-0.5,0.2-0.9,0.5-0.9,1.1c0,0.1,0,0.2,0,0.3c0,0.5,0.4,1,0.9,1.1c0,0,0.1,0,0.1,0c0.1-0.1,0.2,0,0.2,0
			c0.1,0,0.2,0,0.3,0.1c0,0,0.1,0,0.2,0.1c-0.1,0-0.1,0-0.1,0.1c0.5,0,0.9-0.1,1.4-0.2C8.6,21.9,8.6,21.8,8.8,21.7L8.8,21.7z"/>
		<path class="st1" d="M37.7,22.7c0,0.1,0,0.1,0,0.2c0,0.1-0.1,0.2-0.2,0.2c-0.1,0-0.2-0.1-0.3-0.2c-0.1-0.4-0.3-0.5-0.6-0.7
			c-0.1-0.1-0.2-0.1-0.4-0.2c0,0-0.1,0.1-0.2,0.1c-0.2,0-0.3,0-0.5,0.1c-0.5,0.1-1,0.2-1.5-0.1c-0.1,0-0.2-0.1-0.3-0.1
			c-0.6-0.2-0.8-0.7-0.8-1.2c0-0.2,0.1-0.4,0.1-0.6s0.2-0.4,0.3-0.5c0.1-0.1,0.2-0.2,0.4-0.3c0.2-0.1,0.4-0.1,0.7-0.1
			c0.5,0.1,0.9,0.4,1.2,0.9c0.2,0.2,0.3,0.5,0.4,0.8c0.1,0.1,0.2,0.2,0.2,0.3c0,0,0.1,0.1,0.1,0.1c0,0.2,0.2,0.2,0.3,0.3
			c0.2,0.1,0.4,0.2,0.6,0.4c0.1,0.1,0.3,0.1,0.4,0.1c0.2,0,0.3,0,0.3,0.2c0,0.1,0,0.2-0.2,0.3C37.8,22.7,37.7,22.7,37.7,22.7z
			 M36.1,21.7c0.1,0.2,0.3,0.4,0.5,0.4c0,0,0.1,0,0.1,0c0,0.1,0.1,0.1,0.2,0.2c0.2,0.1,0.4,0.3,0.5,0.6c0,0,0.1,0.1,0.1,0.1
			c0.1,0,0.1-0.1,0.1-0.1c0-0.1,0-0.2,0-0.2c0.1,0,0.2,0,0.2,0c0,0,0.1-0.1,0.1-0.1c0-0.1-0.1-0.1-0.1-0.1c-0.2,0.1-0.4,0-0.6-0.1
			c0,0-0.1-0.1-0.2-0.1c-0.1,0-0.1,0-0.2-0.1c0,0,0-0.1-0.1-0.1c-0.1-0.1-0.2-0.2-0.3-0.1C36.3,21.7,36.2,21.7,36.1,21.7
			c0.1,0,0.2-0.1,0.3-0.2c-0.2-0.1-0.3-0.3-0.4-0.4c-0.2-0.2-0.3-0.5-0.5-0.7c-0.3-0.4-0.6-0.7-1.1-0.8c-0.1,0-0.3,0-0.4,0
			c-0.5,0.2-0.9,0.5-0.9,1.1c0,0.1,0,0.2,0,0.3c0,0.5,0.4,1,0.9,1.1c0,0,0.1,0,0.1,0c0.1-0.1,0.2,0,0.2,0c0.1,0,0.2,0,0.3,0.1
			c0,0,0.1,0,0.1,0.1c0,0-0.1,0.1-0.1,0.1c0.5,0,0.9-0.1,1.3-0.2C36,21.9,35.9,21.8,36.1,21.7L36.1,21.7z"/>
		<path class="st1" d="M52.3,39.5c0.1,0.2,0.2,0.5,0.3,0.8c0.1,0.2,0.3,0.4,0.5,0.6C52.7,40.8,52.3,40.2,52.3,39.5z"/>
		<path class="st1" d="M53.1,13.5c-0.4-0.1-0.8-0.7-0.9-1.3c0.1,0.1,0.1,0.2,0.1,0.2c0.1,0.4,0.3,0.7,0.6,1
			C53.1,13.4,53.1,13.4,53.1,13.5z"/>
		<path class="st1" d="M35.8,53.4c0.4-0.3,1.2-0.3,1.6,0.1c-0.3-0.1-0.6-0.2-0.8-0.2S36.1,53.4,35.8,53.4L35.8,53.4z"/>
		<path class="st1" d="M8.5,53.4c0.4-0.3,1.1-0.3,1.6,0.1c-0.1,0-0.3,0-0.4-0.1c-0.3-0.1-0.7-0.2-1,0C8.7,53.4,8.6,53.4,8.5,53.4
			C8.6,53.4,8.6,53.4,8.5,53.4z"/>
		<path class="st1" d="M31.7,0.9c0.1-0.2,0.1-0.4,0.2-0.5c0,0,0,0,0,0c0,0.1,0,0.2,0,0.3c0,0,0,0,0,0c0-0.1,0-0.1,0.1-0.2
			c0,0,0,0,0.1,0.1c-0.1,0.1,0,0.2-0.2,0.2C31.8,0.7,31.8,0.8,31.7,0.9C31.7,0.9,31.7,0.9,31.7,0.9L31.7,0.9z"/>
		<path class="st1" d="M4.6,0.3c0,0.1,0,0.2-0.1,0.3c0.1-0.1,0.1-0.1,0.2-0.2c0,0.1,0,0.3-0.2,0.2c0,0-0.1,0.1-0.2,0.1
			C4.4,0.7,4.5,0.5,4.6,0.3C4.6,0.3,4.6,0.3,4.6,0.3L4.6,0.3z"/>
		<path d="M50.1,30.1c0,0,0.1,0,0.2,0c0,0,0,0.1,0,0.1c-0.1,0.1-0.1,0.3-0.3,0.3c0,0-0.1,0-0.1,0.1c0,0,0,0,0,0c0,0,0-0.1,0-0.1
			C50,30.4,49.9,30.1,50.1,30.1L50.1,30.1z"/>
		<path class="st1" d="M8.2,26.1c-0.7,0.2-1.2,0.6-1.8,0.9c-0.4,0.2-0.8,0.4-1.1,0.6c-0.2,0.1-0.3,0.2-0.5,0.3
			c0.1-0.1,0.1-0.1,0.1-0.2c0.1-0.1,0.2-0.1,0.3-0.2c0.8-0.4,1.5-0.8,2.3-1.2C7.7,26.2,8,26.1,8.2,26.1L8.2,26.1z"/>
		<path class="st1" d="M10.1,26.2C9.8,26.1,9.6,26,9.3,26c-0.2,0-0.5,0-0.8,0.1c0.1-0.1,0.2-0.1,0.3-0.1
			C9.2,25.8,9.7,25.9,10.1,26.2C10.1,26.1,10.1,26.1,10.1,26.2z"/>
		<path class="st1" d="M4.3,28.2c0.1-0.2,0.1-0.4,0.2-0.6c0,0,0,0,0,0c0,0.1,0,0.2-0.1,0.4c0.1-0.1,0.1-0.1,0.2-0.2
			C4.7,27.9,4.6,28,4.3,28.2L4.3,28.2z"/>
		<path class="st1" d="M35.6,26.1c-0.9,0.3-1.6,0.9-2.5,1.3c-0.3,0.1-0.6,0.3-1,0.5c0-0.1,0.1-0.1,0.1-0.1c0.1-0.1,0.2-0.1,0.3-0.2
			c0.8-0.4,1.5-0.8,2.3-1.2C35,26.2,35.3,26.2,35.6,26.1L35.6,26.1z"/>
		<path class="st1" d="M37.5,26.2c-0.3-0.1-0.6-0.2-0.8-0.2c-0.3,0-0.5,0-0.8,0.1C36.3,25.8,37.1,25.8,37.5,26.2L37.5,26.2z"/>
		<path class="st1" d="M31.9,28c0.1-0.1,0.1-0.1,0.1-0.2C32,27.9,32.1,28.1,31.9,28c-0.1,0.1-0.1,0.1-0.2,0.2
			c0.1-0.2,0.1-0.4,0.2-0.5c0,0,0,0,0,0C31.9,27.8,31.9,27.8,31.9,28L31.9,28z"/>
		<path class="st1" d="M29.4,15.5c-0.1-0.1-0.3-0.1-0.5-0.2c-0.8-0.4-1.6-0.8-2.4-1.2c-0.2-0.1-0.4-0.3-0.6-0.5c0,0,0.1,0,0.1,0
			c0.4,0.3,0.8,0.5,1.3,0.7c0.5,0.3,1,0.5,1.5,0.8C29.1,15.3,29.3,15.4,29.4,15.5C29.4,15.5,29.4,15.5,29.4,15.5L29.4,15.5z"/>
		<path class="st1" d="M25,12.2c0.1,0.2,0.2,0.5,0.3,0.8c0.1,0.2,0.3,0.4,0.5,0.6C25.4,13.4,25,12.8,25,12.2z"/>
		<path class="st1" d="M29.4,42.9c-0.1,0-0.3-0.1-0.5-0.2c-0.8-0.5-1.6-0.8-2.4-1.2c-0.2-0.1-0.4-0.3-0.6-0.5c0,0,0.1,0,0.1,0
			c0.4,0.3,0.8,0.5,1.3,0.7c0.5,0.3,1,0.5,1.5,0.8C29.1,42.7,29.3,42.7,29.4,42.9C29.4,42.8,29.4,42.8,29.4,42.9L29.4,42.9z"/>
		<path class="st1" d="M25,39.5c0.1,0.2,0.2,0.5,0.3,0.8c0.1,0.2,0.3,0.4,0.5,0.6C25.4,40.8,25,40.2,25,39.5z"/>
		<path class="st1" d="M15.1,46.3c0.1-0.1,0.3-0.1,0.4-0.2c0.3-0.2,0.6-0.4,0.9-0.6c0.5-0.3,1-0.7,1.5-1c0.1-0.1,0.3-0.2,0.4-0.2
			c0,0.1-0.1,0.2-0.3,0.3c-0.2,0.1-0.4,0.2-0.5,0.3c-0.6,0.4-1.1,0.8-1.7,1.2C15.6,46.2,15.4,46.3,15.1,46.3
			C15.2,46.4,15.1,46.3,15.1,46.3z"/>
		<path class="st1" d="M14.9,46.4c-0.3,0.4-1,0.4-1.6,0.1c0.1,0,0.2,0,0.3,0c0.4,0.1,0.8,0.1,1.1-0.1C14.8,46.4,14.8,46.4,14.9,46.4
			C14.9,46.4,14.9,46.4,14.9,46.4L14.9,46.4z"/>
		<path class="st1" d="M18.3,16.9c0,0.2-0.2,0.3-0.3,0.3c-0.8,0.5-1.5,1-2.2,1.5c-0.2,0.1-0.4,0.3-0.7,0.3c0,0,0.1,0,0.1,0
			c0.5-0.2,0.9-0.6,1.4-0.9c0.4-0.3,0.9-0.6,1.3-0.9C18.1,17.1,18.2,17,18.3,16.9L18.3,16.9z"/>
		<path class="st1" d="M13.3,19.2c0.1,0,0.2,0,0.3,0c0.4,0.1,0.8,0.1,1.2-0.1c0,0,0.1,0,0.1,0c0,0,0,0,0,0
			C14.6,19.5,13.8,19.5,13.3,19.2L13.3,19.2z"/>
		<path class="st1" d="M45.7,44.2c-0.1,0.1-0.2,0.2-0.3,0.3c-0.8,0.5-1.5,1-2.2,1.5c-0.2,0.2-0.5,0.2-0.7,0.3c0,0,0-0.1,0.1-0.1
			c0.4-0.1,0.7-0.4,1-0.6c0.6-0.4,1.2-0.8,1.8-1.2C45.4,44.4,45.6,44.3,45.7,44.2C45.7,44.2,45.7,44.2,45.7,44.2z"/>
		<path class="st1" d="M40.7,46.5c0.1,0,0.2,0,0.3,0c0.4,0.1,0.8,0.1,1.1-0.1c0,0,0.1,0,0.2,0C41.9,46.8,41.2,46.8,40.7,46.5z"/>
		<path class="st1" d="M42.5,19C42.5,19,42.5,19,42.5,19c0.6-0.3,1.1-0.8,1.7-1.1c0.4-0.2,0.7-0.5,1.1-0.7c0.1-0.1,0.3-0.2,0.5-0.3
			c-0.1,0.2-0.2,0.3-0.3,0.4c-0.2,0.2-0.5,0.3-0.8,0.5c-0.5,0.3-0.9,0.7-1.4,1c-0.1,0.1-0.2,0.1-0.3,0.2C42.8,18.9,42.7,19,42.5,19
			C42.5,19,42.5,19,42.5,19L42.5,19z"/>
		<path class="st1" d="M42.2,19.1c-0.5,0.4-1,0.4-1.6,0.1c0.1,0,0.2,0,0.3,0c0.4,0.1,0.8,0.1,1.2-0.1C42.1,19.1,42.2,19.1,42.2,19.1
			z"/>
		<path class="st1" d="M11.6,34.8c-0.2,0.2-0.3,0.4-0.3,0.7c-0.1-0.2-0.1-0.3-0.1-0.4C11.3,34.9,11.3,34.8,11.6,34.8L11.6,34.8z"/>
		<path class="st1" d="M11.5,7.4c-0.2,0.2-0.2,0.4-0.2,0.7c-0.1-0.2-0.1-0.3-0.1-0.4C11.3,7.5,11.4,7.4,11.5,7.4z"/>
		<path class="st1" d="M21,4.3c0,0.1,0,0.2-0.1,0.2c0,0.2-0.1,0.3-0.1,0.5c0,0.1,0,0.2-0.1,0.1c-0.1,0-0.1-0.1-0.2-0.1
			c-0.1-0.2-0.1-0.4,0-0.6c0-0.1,0.1-0.2,0.2-0.3c0-0.1,0.1-0.1,0.2-0.1C20.9,4.2,20.9,4.3,21,4.3z M20.9,4.2
			c-0.2,0.1-0.2,0.2-0.3,0.3c0,0.2-0.1,0.3,0,0.5C20.7,4.8,20.8,4.5,20.9,4.2L20.9,4.2z"/>
		<path class="st1" d="M21.6,5.4c0.1-0.1,0.2-0.2,0.3-0.3C22,5.1,22.1,5,22.2,4.8C22.2,5.2,21.9,5.4,21.6,5.4z"/>
		<path class="st1" d="M48.3,31.7c0,0.1-0.1,0.2-0.1,0.3c0,0.1-0.1,0.3-0.1,0.4c0,0.1,0,0.2-0.1,0.2s-0.1-0.1-0.2-0.1
			c-0.1-0.2,0-0.4,0-0.6c0-0.1,0.1-0.2,0.1-0.3c0.1-0.1,0.2-0.1,0.2-0.1C48.3,31.5,48.3,31.6,48.3,31.7L48.3,31.7z M48.2,31.5
			c-0.2,0.1-0.2,0.2-0.3,0.3c0,0.2-0.1,0.3,0.1,0.5C48,32.1,48.2,31.9,48.2,31.5L48.2,31.5z"/>
		<path class="st1" d="M49.5,32.2c0,0.4-0.2,0.6-0.5,0.6c0.1-0.1,0.2-0.2,0.3-0.3S49.5,32.3,49.5,32.2z"/>
		<path class="st1" d="M47.8,4.9c0-0.2,0.1-0.4,0.2-0.6c0.1-0.1,0.1-0.1,0.2-0.1c0.1,0,0.1,0.1,0.1,0.2c0,0.1,0,0.2-0.1,0.2
			c0,0.1-0.1,0.3-0.1,0.4c0,0.1,0,0.2-0.1,0.2c-0.1,0-0.2-0.1-0.2-0.1S47.8,4.9,47.8,4.9L47.8,4.9z M48.2,4.3
			C48.2,4.3,48.1,4.2,48.2,4.3c-0.2,0-0.2,0.2-0.3,0.3c0,0.2-0.1,0.3,0,0.4C48,4.8,48.1,4.5,48.2,4.3z"/>
		<path class="st1" d="M49.5,4.9c0,0.4-0.2,0.6-0.5,0.6c0.1-0.1,0.2-0.2,0.3-0.3C49.4,5.1,49.5,5,49.5,4.9z"/>
		<path class="st1" d="M20.4,32.1c0.1-0.2,0.1-0.3,0.2-0.5c0-0.1,0.1-0.2,0.2-0.1c0.1,0,0.1,0.1,0.1,0.2c0,0.1,0,0.1-0.1,0.2
			c0,0.1-0.1,0.3-0.1,0.4c0,0.1,0,0.1-0.1,0.2c-0.1,0-0.1,0-0.2-0.1C20.4,32.3,20.4,32.2,20.4,32.1L20.4,32.1z M20.6,32.4
			c0-0.3,0.2-0.5,0.2-0.9c-0.2,0.1-0.2,0.2-0.3,0.4C20.5,32.1,20.5,32.2,20.6,32.4z"/>
		<path class="st1" d="M21.7,32.8c0.2-0.2,0.4-0.4,0.5-0.6C22.2,32.5,22,32.8,21.7,32.8z"/>
		<path class="st1" d="M6.9,47.2c0.2,0,0.3,0.1,0.5,0.2c0.1,0,0.2,0.1,0.1,0.2c0,0.1-0.1,0.1-0.2,0.1c0,0-0.1,0-0.1,0
			c-0.2,0-0.4,0-0.6-0.1c-0.1,0-0.1,0-0.1-0.1c0,0,0-0.1,0.1-0.2C6.7,47.3,6.8,47.3,6.9,47.2L6.9,47.2z M6.6,47.5
			c0.3,0,0.5,0.1,0.7,0.1c0,0,0.1,0,0.1-0.1c0,0-0.1-0.1-0.1-0.1c-0.2-0.1-0.4-0.1-0.6,0C6.7,47.4,6.7,47.5,6.6,47.5z"/>
		<path class="st1" d="M7.1,49c-0.4,0-0.6-0.1-0.7-0.5c0.1,0.1,0.2,0.2,0.3,0.3S7,49,7.1,49z"/>
		<path class="st1" d="M34.7,47.7c-0.2,0-0.5,0-0.7-0.1c-0.1,0-0.1-0.1-0.1-0.2c0,0,0,0,0.1-0.1c0.2-0.1,0.7-0.1,0.9,0.1
			c0,0,0.1,0.2,0,0.2C34.8,47.7,34.8,47.7,34.7,47.7C34.7,47.7,34.7,47.7,34.7,47.7L34.7,47.7z M33.9,47.5c0.3,0,0.5,0.1,0.7,0.1
			c0,0,0,0,0,0c0,0,0.1,0,0.1-0.1s0-0.1,0-0.1C34.5,47.4,34.2,47.3,33.9,47.5z"/>
		<path class="st1" d="M33.8,48.6c0.1,0.1,0.2,0.2,0.3,0.3s0.2,0.1,0.4,0.2C34.1,49.1,33.8,48.9,33.8,48.6z"/>
		<path class="st1" d="M6.9,19.9c0.2,0,0.3,0.1,0.5,0.1c0.1,0,0.2,0.1,0.1,0.2c0,0.1-0.1,0.1-0.2,0.1c0,0-0.1,0-0.1,0
			c-0.2,0-0.4,0-0.6-0.1c-0.1,0-0.1,0-0.2-0.1c0-0.1,0-0.1,0.1-0.2C6.7,20,6.8,20,6.9,19.9L6.9,19.9z M6.6,20.2
			c0.3,0,0.5,0.1,0.7,0.1c0,0,0.1,0,0.1-0.1c0,0-0.1-0.1-0.1-0.1C7.2,20,7,20,6.7,20.1C6.7,20.1,6.7,20.1,6.6,20.2L6.6,20.2z"/>
		<path class="st1" d="M7.1,21.7c-0.4,0-0.6-0.1-0.7-0.5c0.1,0.1,0.2,0.2,0.3,0.3S7,21.6,7.1,21.7L7.1,21.7z"/>
		<path class="st1" d="M34.3,19.9c0.2,0,0.3,0.1,0.5,0.1c0.1,0,0.2,0.1,0.2,0.2c0,0.1-0.1,0.1-0.3,0.1c-0.1,0-0.2,0-0.3,0
			c-0.1,0-0.2,0-0.4,0c0,0-0.1,0-0.2-0.1c0-0.1,0-0.1,0.1-0.2C34,20,34.1,19.9,34.3,19.9L34.3,19.9z M33.9,20.1
			c0.3,0,0.5,0.1,0.7,0.1c0,0,0,0,0,0c0,0,0.1,0,0.1-0.1c0,0,0-0.1-0.1-0.1C34.5,20,34.2,20,33.9,20.1L33.9,20.1z"/>
		<path class="st1" d="M34.4,21.7c-0.4,0-0.6-0.1-0.7-0.5c0.1,0.1,0.2,0.2,0.3,0.3C34.2,21.6,34.3,21.6,34.4,21.7z"/>
	</g>
</g>
</svg>
